<svg width="20" height="20" viewBox="0 0 24 24" fill="currentColor" xmlns="http://www.w3.org/2000/svg">
  <path d="M17.05 12.54c-.03-2.6 2.12-3.85 2.22-3.91-1.21-1.77-3.1-2.01-3.77-2.04-1.6-.16-3.13.94-3.94.94-.81 0-2.07-.92-3.4-.9-1.75.03-3.36 1.02-4.26 2.58-1.82 3.15-.47 7.82 1.3 10.38.86 1.25 1.89 2.66 3.24 2.61 1.3-.05 1.79-.84 3.36-.84 1.57 0 2.01.84 3.39.81 1.4-.02 2.29-1.28 3.15-2.54.99-1.46 1.4-2.87 1.42-2.94-.03-.02-2.72-1.05-2.75-4.13-.02-2.57 2.1-3.8 2.2-3.86-1.2-1.77-3.09-2.01-3.76-2.04M14.68 4.9c.72-.87 1.2-2.08 1.07-3.29-1.03.04-2.28.69-3.02 1.56-.66.77-1.24 2-1.09 3.18 1.15.09 2.32-.58 3.04-1.45"/>
</svg>
