<svg xmlns="http://www.w3.org/2000/svg" fill="none" viewBox="0 0 14 14">
  <path d="M8.62997 0.5c1.55323 0 2.81233 1.25915 2.81253 2.8125v0.25098c1.2546 0.88199 2.0556 2.00118 2.0556 3.65136 -0.0001 1.24919 -0.4694 2.04953 -1.2421 2.91216v0.1533c0 1.7779 -1.442 3.2197 -3.21978 3.2197 -0.77323 -0.0001 -1.48216 -0.274 -2.03711 -0.7285 -0.55498 0.4545 -1.26384 0.7284 -2.0371 0.7285 -1.7778 0 -3.21875 -1.4418 -3.21875 -3.2197v-0.1533C0.970512 9.26436 0.500179 8.46405 0.500092 7.21484c0 -1.65014 0.801138 -2.76938 2.055668 -3.65136V3.3125C2.55592 1.75917 3.81501 0.500003 5.36826 0.5c0.60849 0 1.17064 0.194959 1.63085 0.52344C7.4593 0.694921 8.02149 0.500056 8.62997 0.5" fill="currentColor" opacity="0.24" />
  <path d="M8.62997 0.5c1.55323 0 2.81233 1.25915 2.81253 2.8125v0.25098c1.2546 0.88199 2.0556 2.00118 2.0556 3.65136 -0.0001 1.24919 -0.4694 2.04953 -1.2421 2.91216v0.1533c0 1.7779 -1.442 3.2197 -3.21978 3.2197 -0.77323 -0.0001 -1.48216 -0.274 -2.03711 -0.7285 -0.55498 0.4545 -1.26384 0.7284 -2.0371 0.7285 -1.7778 0 -3.21875 -1.4418 -3.21875 -3.2197v-0.1533C0.970512 9.26436 0.500179 8.46405 0.500092 7.21484c0 -1.65014 0.801138 -2.76938 2.055668 -3.65136V3.3125C2.55592 1.75917 3.81501 0.500003 5.36826 0.5c0.60849 0 1.17064 0.194959 1.63085 0.52344C7.4593 0.694921 8.02149 0.500056 8.62997 0.5" stroke="currentColor" stroke-width="1" stroke-linecap="round" stroke-linejoin="round" />
  <path d="M9.95057 5.45571c0.41263 -0.09407 1.34773 -0.70727 1.48883 -1.90273" stroke="currentColor" stroke-width="1" stroke-linecap="round" stroke-linejoin="round" />
  <path d="M4.04793 5.45571c-0.41265 -0.09407 -1.34774 -0.70727 -1.48882 -1.90273" stroke="currentColor" stroke-width="1" stroke-linecap="round" stroke-linejoin="round" />
  <path d="M11.3845 8.4585c0.4198 0.33146 0.7546 1.08265 0.863 1.6844" stroke="currentColor" stroke-width="1" stroke-linecap="round" stroke-linejoin="round" />
  <path d="M2.61405 8.4585c-0.41983 0.33146 -0.75457 1.08265 -0.86301 1.6844" stroke="currentColor" stroke-width="1" stroke-linecap="round" stroke-linejoin="round" />
  <path d="m7.5 4.50024 -1.5 2.5h2l-1.5 2.5" stroke="currentColor" stroke-width="1" stroke-linecap="round" stroke-linejoin="round" />
</svg>
