<svg xmlns="http://www.w3.org/2000/svg" fill="none" viewBox="0 0 14 14">
  <path d="M12.5 4.5c0 -1.06087 -0.4214 -2.07828 -1.1716 -2.82843C10.5783 0.921427 9.56087 0.5 8.5 0.5v4h4Z" stroke="currentColor" stroke-width="1" stroke-linecap="round" stroke-linejoin="round" />
  <path d="M3.93921 13.5h4" stroke="currentColor" stroke-width="1" stroke-linecap="round" stroke-linejoin="round" />
  <path d="M5.93925 7V0.5c-1.00378 0.013554 -1.9742 0.362354 -2.75692 0.99092 -0.78271 0.62857 -1.33278 1.50081 -1.5627 2.47799 -0.22993 0.97718 -0.12651 2.00319 0.29381 2.91482C2.33376 7.79537 3.04683 8.54028 3.93925 9v1.5c0 0.1326 0.05268 0.2598 0.14644 0.3536 0.09377 0.0937 0.22095 0.1464 0.35356 0.1464h3c0.13261 0 0.25978 -0.0527 0.35355 -0.1464 0.09377 -0.0938 0.14645 -0.221 0.14645 -0.3536V9c0.866 -0.43202 1.56798 -1.134 2 -2" fill="currentColor" opacity="0.24" />
  <path d="M5.93925 7V0.5c-1.00378 0.013554 -1.9742 0.362354 -2.75692 0.99092 -0.78271 0.62857 -1.33278 1.50081 -1.5627 2.47799 -0.22993 0.97718 -0.12651 2.00319 0.29381 2.91482C2.33376 7.79537 3.04683 8.54028 3.93925 9v1.5c0 0.1326 0.05268 0.2598 0.14644 0.3536 0.09377 0.0937 0.22095 0.1464 0.35356 0.1464h3c0.1326 0 0.25978 -0.0527 0.35355 -0.1464 0.09377 -0.0938 0.14645 -0.221 0.14645 -0.3536V9c0.866 -0.43202 1.56798 -1.134 2 -2" stroke="currentColor" stroke-width="1" stroke-linecap="round" stroke-linejoin="round" />
  <path d="M1.93921 5h5" stroke="currentColor" stroke-width="1" stroke-linecap="round" stroke-linejoin="round" />
</svg>
