<svg width="268" height="148" viewBox="0 0 268 148" fill="none" xmlns="http://www.w3.org/2000/svg">
<g clip-path="url(#clip0_280_12)">
<path d="M57.1038 68.6543C57.1038 73.8301 57.1282 78.9814 57.177 84.1084C57.2258 89.2354 57.2502 94.3867 57.2502 99.5625C57.2502 112.941 53.5393 123.488 46.1174 131.203C38.7444 138.918 28.4905 143.435 15.3557 144.753H14.843C12.5969 144.753 11.4739 143.508 11.4739 141.018C11.4739 139.211 11.5227 137.404 11.6204 135.598C11.6692 133.791 11.718 131.984 11.7668 130.178C11.7668 129.152 11.7668 128.103 11.7668 127.028C11.718 125.954 11.7424 124.929 11.8401 123.952C11.9377 122.634 12.2307 121.73 12.719 121.242C13.2561 120.754 14.135 120.363 15.3557 120.07C16.3323 119.826 17.26 119.582 18.1389 119.338C19.0178 119.094 19.8967 118.728 20.7756 118.239C24.4377 116.335 26.8059 113.479 27.8801 109.67C28.9543 105.861 29.4915 102.102 29.4915 98.3906V78.0293C29.4915 68.7031 29.467 59.4014 29.4182 50.124C29.3694 40.7979 29.345 31.4961 29.345 22.2188C29.345 19.7285 30.5901 18.4834 33.0803 18.4834H53.6614C56.1516 18.4834 57.3967 19.7529 57.3967 22.292C57.3967 30.0068 57.3479 37.7461 57.2502 45.5098C57.1526 53.2246 57.1038 60.9395 57.1038 68.6543ZM71.7522 22.292C71.7522 19.7529 72.9973 18.4834 75.4875 18.4834H95.7024C98.1926 18.4834 99.4377 19.7529 99.4377 22.292C99.4377 30.3486 99.3889 38.4297 99.2913 46.5352C99.2424 54.5918 99.218 62.6484 99.218 70.7051C99.218 78.8105 99.2424 86.916 99.2913 95.0215C99.3889 103.078 99.4377 111.135 99.4377 119.191C99.4377 121.73 98.1926 123 95.7024 123H75.4875C72.9973 123 71.7522 121.73 71.7522 119.191C71.7522 111.135 71.7766 103.078 71.8254 95.0215C71.9231 86.916 71.9719 78.8105 71.9719 70.7051C71.9719 62.6484 71.9231 54.5918 71.8254 46.5352C71.7766 38.4297 71.7522 30.3486 71.7522 22.292ZM140.82 18.4834C143.163 18.4834 144.433 19.7285 144.628 22.2188C144.775 24.0742 144.823 25.9785 144.775 27.9316C144.726 29.8848 144.701 31.7891 144.701 33.6445C144.75 37.6484 144.775 41.6523 144.775 45.6562C144.775 49.6602 144.775 53.6641 144.775 57.668C144.775 57.9121 144.823 58.2051 144.921 58.5469C145.068 58.8398 145.312 58.9863 145.654 58.9863C145.947 58.9863 146.191 58.9131 146.386 58.7666C152.636 55.7881 157.812 51.7842 161.913 46.7549C166.015 41.6768 169.115 35.8662 171.215 29.3232C171.606 28.0537 171.948 26.8086 172.24 25.5879C172.533 24.3184 172.826 23.0488 173.119 21.7793C173.656 19.6309 174.926 18.5566 176.928 18.5566H196.63C197.656 18.5566 198.534 18.7764 199.267 19.2158C199.999 19.6553 200.365 20.4609 200.365 21.6328C200.365 21.877 200.317 22.292 200.219 22.8779C195.922 42.3604 185.693 57.9121 169.531 69.5332C169.091 69.875 168.871 70.168 168.871 70.4121C168.871 70.6074 169.555 71.7793 170.922 73.9277C172.289 76.0273 174.072 78.7129 176.269 81.9844C178.466 85.207 180.834 88.6494 183.373 92.3115C185.961 95.9736 188.427 99.5381 190.771 103.005C193.163 106.423 195.214 109.377 196.923 111.867C198.681 114.357 199.828 116.018 200.365 116.848C200.707 117.336 201.049 117.897 201.391 118.532C201.733 119.118 201.904 119.729 201.904 120.363C201.904 121.486 201.318 122.17 200.146 122.414C199.023 122.658 198.071 122.78 197.289 122.78H174.291C173.168 122.78 172.167 122.268 171.288 121.242C170.019 119.68 168.798 118.044 167.626 116.335C166.503 114.626 165.356 112.941 164.184 111.281C161.303 107.229 158.447 103.151 155.615 99.0498C152.782 94.8994 149.902 90.8223 146.972 86.8184C146.874 86.623 146.655 86.3301 146.313 85.9395C146.02 85.5488 145.727 85.3535 145.434 85.3535C145.092 85.3535 144.897 85.6953 144.848 86.3789C144.799 87.0137 144.775 87.3799 144.775 87.4775L144.555 119.265C144.555 121.755 143.31 123 140.82 123H120.165C117.626 123 116.357 121.706 116.357 119.118C116.357 116.53 116.406 113.942 116.503 111.354C116.601 108.718 116.674 106.105 116.723 103.518C116.821 98.0488 116.894 92.5801 116.943 87.1113C116.991 81.6426 117.016 76.1738 117.016 70.7051C117.016 65.2363 116.991 59.792 116.943 54.3721C116.894 48.9033 116.821 43.4346 116.723 37.9658C116.674 35.3779 116.601 32.79 116.503 30.2021C116.406 27.5654 116.357 24.9531 116.357 22.3652C116.357 19.7773 117.626 18.4834 120.165 18.4834H140.82ZM215.014 22.292C215.014 19.7529 216.259 18.4834 218.749 18.4834H238.964C241.454 18.4834 242.699 19.7529 242.699 22.292C242.699 30.3486 242.651 38.4297 242.553 46.5352C242.504 54.5918 242.48 62.6484 242.48 70.7051C242.48 78.8105 242.504 86.916 242.553 95.0215C242.651 103.078 242.699 111.135 242.699 119.191C242.699 121.73 241.454 123 238.964 123H218.749C216.259 123 215.014 121.73 215.014 119.191C215.014 111.135 215.038 103.078 215.087 95.0215C215.185 86.916 215.234 78.8105 215.234 70.7051C215.234 62.6484 215.185 54.5918 215.087 46.5352C215.038 38.4297 215.014 30.3486 215.014 22.292Z" fill="currentColor"/>
<path d="M162.159 44.4941C157.596 43.0587 154.692 40.5975 153.075 36.7914C151.732 33.63 148.457 23.4053 148.293 21.8567C148.218 21.1618 147.714 20.1767 147.174 19.6724C146.43 18.9775 146.17 17.8177 146.132 14.9651C146.091 11.9134 146.042 10.2922 146.791 9.23252C147.678 7.98304 149.675 7.52707 154.11 6.45244C161.358 4.69172 169.787 3.30073 171.76 3.53623C172.367 3.60582 173.829 3.46129 175.015 3.20472C178.601 2.44443 190.986 2.45582 194.441 3.22353C198.028 4.02533 200.644 5.89242 201.468 8.24428C202.132 10.1348 203.203 10.7711 204.763 10.1911C205.424 9.94957 207.365 9.81493 209.079 9.88859L212.194 10.0235L212.792 7.89225C213.938 3.79019 216.547 2.88213 231.314 1.45187C237.876 0.817256 238.321 0.843319 248.985 2.47264C258.284 3.88923 260.062 4.29053 260.852 5.13819C261.751 6.10047 261.715 6.57612 260.006 17.8453C258.382 28.5831 258.092 29.8276 256.558 32.825C254.146 37.5379 251.875 39.4915 247.6 40.5467C242.854 41.7135 235.816 41.8685 228.566 40.9645C221.44 40.0727 219.084 38.8796 216.8 34.9851C215.439 32.6623 212.776 22.6124 213.035 20.7681C213.269 19.1082 211.351 17.031 208.954 16.3494C207.086 15.8151 206.352 15.8687 204.731 16.6648L202.767 17.6219L201.588 25.7942C200.521 33.1622 200.253 34.2113 198.848 36.4797C197.489 38.6763 196.729 39.2487 192.75 41.0927C184.157 45.0624 169.254 46.7191 162.159 44.4941ZM174.303 41.4624C176.381 41.1379 180.12 40.5558 182.62 40.1653C187.615 39.3784 192.03 37.6321 194.404 35.4998C196.358 33.7475 197.162 31.0393 197.731 24.317C198.507 15.111 198.096 12.0544 195.679 9.06591C194.638 7.77544 194.094 7.58937 189.526 6.93686C178.304 5.33368 157.864 8.58401 154.962 12.434C154.576 12.9492 153.942 13.5184 153.557 13.6942C152.513 14.1692 152.386 16.3769 153.124 21.0885C154.53 30.1154 156.731 36.6104 159.07 38.6633C161.838 41.0897 168.637 42.3379 174.303 41.4624ZM240.45 37.4834C247.448 36.7586 249.81 35.9359 251.365 33.6782C253.682 30.3153 254.406 27.6168 255.343 18.8722C256.379 9.19586 256.217 8.41555 252.948 7.36061C248.75 6.0078 237.112 4.80066 231.536 5.14549C222.63 5.69104 219.802 6.93396 218.055 11.0718C215.836 16.3396 217.794 30.8512 221.177 34.174C223.903 36.8559 232.408 38.3124 240.45 37.4834ZM112.979 43.6166C111.994 42.3026 112.123 38.2979 113.257 35.2861C114.417 32.1944 117.309 28.7556 119.794 27.5062C120.772 27.0167 122.618 25.9231 123.902 25.0795C132.313 19.5378 143.209 12.8667 143.721 12.9387C144.059 12.9863 144.415 14.3946 144.514 16.0699C144.578 17.176 144.748 17.8268 144.595 18.3956C144.258 19.6388 142.371 20.4654 134.367 24.774C130.326 26.954 126.156 29.0011 125.108 29.324C122.75 30.0427 122.073 30.6215 120.039 33.6427C118.772 35.523 118.314 36.8484 117.88 39.896C117.549 42.2161 117.051 43.9746 116.63 44.2917C115.66 45.0226 113.776 44.6742 112.979 43.6166Z" fill="#8B70D6" stroke="#8B70D6" stroke-width="3"/>
</g>
<defs>
<clipPath id="clip0_280_12">
<rect width="268" height="148" fill="white"/>
</clipPath>
</defs>
</svg>
