<svg viewBox="0 0 24 24" fill="none" xmlns="http://www.w3.org/2000/svg">
  <path
    d="M10 5C10 3.89543 10.8954 3 12 3C13.1046 3 14 3.89543 14 5C15.1484 5.54303 15.9563 6.6134 16 7.88889V11.2037C16.0172 11.6568 16.1698 12.0944 16.4393 12.4611L17.5 13.8889C17.7701 14.2558 17.9229 14.6936 17.9403 15.147C17.9577 15.6003 17.8389 16.0487 17.5984 16.4365C17.3578 16.8243 17.0061 17.1351 16.5873 17.3311C16.1684 17.527 15.7006 17.5999 15.2407 17.5407H8.75926C8.29936 17.5999 7.83158 17.527 7.41272 17.3311C6.99385 17.1351 6.64216 16.8243 6.40164 16.4365C6.16112 16.0487 6.04234 15.6003 6.05968 15.147C6.07703 14.6936 6.22993 14.2558 6.5 13.8889L7.56069 12.4611C7.83015 12.0944 7.98281 11.6568 8 11.2037V7.88889C8.04369 6.6134 8.8516 5.54303 10 5Z"
    fill="currentColor" opacity="0.24" />
  <path
    d="M10 5C10 3.89543 10.8954 3 12 3C13.1046 3 14 3.89543 14 5C15.1484 5.54303 15.9563 6.6134 16 7.88889V11.2037C16.0172 11.6568 16.1698 12.0944 16.4393 12.4611L17.5 13.8889C17.7701 14.2558 17.9229 14.6936 17.9403 15.147C17.9577 15.6003 17.8389 16.0487 17.5984 16.4365C17.3578 16.8243 17.0061 17.1351 16.5873 17.3311C16.1684 17.527 15.7006 17.5999 15.2407 17.5407H8.75926C8.29936 17.5999 7.83158 17.527 7.41272 17.3311C6.99385 17.1351 6.64216 16.8243 6.40164 16.4365C6.16112 16.0487 6.04234 15.6003 6.05968 15.147C6.07703 14.6936 6.22993 14.2558 6.5 13.8889L7.56069 12.4611C7.83015 12.0944 7.98281 11.6568 8 11.2037V7.88889C8.04369 6.6134 8.8516 5.54303 10 5Z"
    stroke="currentColor" stroke-width="2.5" stroke-linecap="round" stroke-linejoin="round" />
  <path d="M10 20C10 21.1046 10.8954 22 12 22C13.1046 22 14 21.1046 14 20" stroke="currentColor"
    stroke-width="2.5" stroke-linecap="round" />
</svg>