<svg viewBox="-1 -1 24 24" fill="none" xmlns="http://www.w3.org/2000/svg">
  <path d="M7.489166666666666 16.701666666666664a19.25 19.25 0 0 0 -5.5 -0.9716666666666667 1.3658333333333332 1.3658333333333332 0 0 1 -1.2925 -1.375V2.108333333333333A1.375 1.375 0 0 1 2.154166666666667 0.7333333333333334C7.956666666666666 1.0358333333333332 11 3.1075 11 4.684166666666667c0 -1.5675 3.41 -3.6208333333333336 8.836666666666666 -3.9416666666666664a1.3658333333333332 1.3658333333333332 0 0 1 1.4758333333333333 1.375v11.549999999999999" stroke="currentColor" stroke-linecap="round" stroke-linejoin="round" stroke-width="2" />
  <path d="M11 4.684166666666667 11 8.25" stroke="currentColor" stroke-linecap="round" stroke-linejoin="round" stroke-width="2" />
  <path d="M8.561666666666666 6.004166666666666a22.146666666666665 22.146666666666665 0 0 0 -5.105833333333333 -1.1916666666666667" stroke="currentColor" stroke-linecap="round" stroke-linejoin="round" stroke-width="2" />
  <path d="M17.7925 8.451666666666666c0.3208333333333333 -0.05499999999999999 0.6416666666666666 -0.10083333333333333 0.9808333333333333 -0.13749999999999998" stroke="currentColor" stroke-linecap="round" stroke-linejoin="round" stroke-width="2" />
  <path d="M8.561666666666666 9.496666666666666a22.861666666666668 22.861666666666668 0 0 0 -5.105833333333333 -1.1824999999999999" stroke="currentColor" stroke-linecap="round" stroke-linejoin="round" stroke-width="2" />
  <path d="M8.561666666666666 13.209166666666667a23.118333333333332 23.118333333333332 0 0 0 -5.151666666666666 -1.2008333333333334" stroke="currentColor" stroke-linecap="round" stroke-linejoin="round" stroke-width="2" />
  <path d="M13.658333333333333 6.013333333333333a23.090833333333332 23.090833333333332 0 0 1 5.160833333333333 -1.2008333333333334" stroke="currentColor" stroke-linecap="round" stroke-linejoin="round" stroke-width="2" />
  <path d="m21.211666666666666 21.3125 0.09166666666666667 -1.0266666666666666a2.75 2.75 0 0 0 -2.1449999999999996 -2.9333333333333336l-3.345833333333333 -0.7425v-5.261666666666667a1.7233333333333332 1.7233333333333332 0 1 0 -3.4375 0v8.433333333333332L11 18.764166666666664a1.4024999999999999 1.4024999999999999 0 0 0 -1.9616666666666667 1.9708333333333332l0.4308333333333333 0.5775" stroke="currentColor" stroke-linecap="round" stroke-linejoin="round" stroke-width="2" />
</svg>
