<svg width="14" height="14" viewBox="0 0 14 14" fill="none" xmlns="http://www.w3.org/2000/svg">
<path d="M7 13.5C10.5899 13.5 13.5 10.5899 13.5 7C13.5 3.41015 10.5899 0.5 7 0.5C3.41015 0.5 0.5 3.41015 0.5 7C0.5 10.5899 3.41015 13.5 7 13.5Z" fill="#E8E9EE"/>
<path d="M7 10C8.933 10 10.5 8.433 10.5 6.5C10.5 4.567 8.933 3 7 3C5.067 3 3.5 4.567 3.5 6.5C3.5 8.433 5.067 10 7 10Z" fill="white"/>
<path d="M6.99998 13.5C8.53501 13.5 9.94575 12.9679 11.0578 12.0781C10.1499 10.8193 8.6706 10 6.99998 10C5.32937 10 3.85012 10.8193 2.94214 12.0781C4.05422 12.9679 5.46496 13.5 6.99998 13.5Z" fill="white"/>
<path d="M8 7.5C8 7.5 7.8112 8 7 8C6.1888 8 6 7.5 6 7.5" stroke="#C4C5D4" stroke-width="0.7" stroke-linecap="round" stroke-linejoin="round"/>
<path d="M7 10C8.933 10 10.5 8.433 10.5 6.5C10.5 4.567 8.933 3 7 3C5.067 3 3.5 4.567 3.5 6.5C3.5 8.433 5.067 10 7 10Z" stroke="#C4C5D4" stroke-width="0.7" stroke-linecap="round" stroke-linejoin="round"/>
<path d="M6.99998 13.5C8.53501 13.5 9.94575 12.9679 11.0578 12.0781C10.1499 10.8193 8.6706 10 6.99998 10C5.32937 10 3.85012 10.8193 2.94214 12.0781C4.05422 12.9679 5.46496 13.5 6.99998 13.5Z" stroke="#C4C5D4" stroke-width="0.7" stroke-linecap="round" stroke-linejoin="round"/>
<path d="M5.625 5.75C5.55596 5.75 5.5 5.69404 5.5 5.625C5.5 5.55596 5.55596 5.5 5.625 5.5" stroke="#C4C5D4" stroke-width="0.7" stroke-linecap="round" stroke-linejoin="round"/>
<path d="M5.625 5.75C5.69404 5.75 5.75 5.69404 5.75 5.625C5.75 5.55596 5.69404 5.5 5.625 5.5" stroke="#C4C5D4" stroke-width="0.7" stroke-linecap="round" stroke-linejoin="round"/>
<path d="M8.375 5.75C8.30596 5.75 8.25 5.69404 8.25 5.625C8.25 5.55596 8.30596 5.5 8.375 5.5" stroke="#C4C5D4" stroke-width="0.7" stroke-linecap="round" stroke-linejoin="round"/>
<path d="M8.375 5.75C8.44404 5.75 8.5 5.69404 8.5 5.625C8.5 5.55596 8.44404 5.5 8.375 5.5" stroke="#C4C5D4" stroke-width="0.7" stroke-linecap="round" stroke-linejoin="round"/>
<path d="M7 13.5C10.5899 13.5 13.5 10.5899 13.5 7C13.5 3.41015 10.5899 0.5 7 0.5C3.41015 0.5 0.5 3.41015 0.5 7C0.5 10.5899 3.41015 13.5 7 13.5Z" stroke="#C4C5D4" stroke-width="0.7" stroke-linecap="round" stroke-linejoin="round"/>
</svg>
