<svg xmlns="http://www.w3.org/2000/svg" fill="none" viewBox="-1 -1 24 24">
  <path stroke="currentColor" stroke-linecap="round" stroke-linejoin="round" stroke-miterlimit="10" d="M4.303255 9.854075c-0.5499999999999999 -0.5499999999999999 -1.4666666666666668 -0.5499999999999999 -2.108333333333333 0 -0.5499999999999999 0.5499999999999999 -0.5499999999999999 1.4666666666666668 0 2.108333333333333l7.883369999999999 7.883333333333333c0.9166666666666666 0.9166666666666666 2.1999999999999997 1.4666666666666668 3.5749999999999997 1.4666666666666668s2.658333333333333 -0.5499999999999999 3.5749999999999997 -1.4666666666666668l2.0166666666666666 -2.0166666666666666c1.375 -1.375 2.0166666666666666 -3.3916666666666666 1.65 -5.316666666666666l-1.2833333333333332 -6.324972499999999c-0.09166666666666667 -0.6416666666666666 -0.5499999999999999 -1.0999999999999999 -1.1916666666666667 -1.1916666666666667 -0.825 -0.18333333333333335 -1.7416666666666665 0.4583333333333333 -1.8333333333333333 1.2833333333333332l-0.3666666666666667 3.0249725 -6.783333333333333 -6.7833058333333325c-0.5500366666666666 -0.5499999999999999 -1.4667033333333332 -0.5499999999999999 -2.10837 0 -0.5499999999999999 0.5499999999999999 -0.5499999999999999 1.4666666666666668 0 2.108333333333333l-0.9166666666666666 -1.0083333333333333c-0.5499999999999999 -0.5499999999999999 -1.4666666666666668 -0.5499999999999999 -2.108333333333333 0 -0.5499999999999999 0.5499999999999999 -0.5499999999999999 1.4666666666666668 0 2.108333333333333l1.0083333333333333 1.0083333333333333c-0.5499999999999999 -0.5499999999999999 -1.4666666666666668 -0.5499999999999999 -2.108333333333333 0 -0.5499999999999999 0.5499999999999999 -0.5499999999999999 1.4666666666666668 0 2.108333333333333l1.0999999999999999 1.0083058333333332Z" stroke-width="2"/>
  <path stroke="currentColor" stroke-linecap="round" stroke-linejoin="round" stroke-miterlimit="10" d="m7.326843333333333 4.625518333333334 4.124981666666667 4.125" stroke-width="2"/>
  <path stroke="currentColor" stroke-linecap="round" stroke-linejoin="round" stroke-miterlimit="10" d="m5.311615833333333 6.7374175 4.216675833333333 4.124990833333333" stroke-width="2"/>
  <path stroke="currentColor" stroke-linecap="round" stroke-linejoin="round" stroke-miterlimit="10" d="m7.419921666666666 12.970741666666667 -3.1166666666666663 -3.1166666666666663" stroke-width="2"/>
  <path stroke="currentColor" stroke-linecap="round" stroke-linejoin="round" stroke-miterlimit="10" d="M15.028291666666666 2.9791666666666665c0.3666666666666667 0 0.6416666666666666 0.09166666666666667 0.9166666666666666 0.27499999999999997" stroke-width="2"/>
  <path stroke="currentColor" stroke-linecap="round" stroke-linejoin="round" stroke-miterlimit="10" d="M15.486625 0.6875c1.0083333333333333 0 1.925 0.3666666666666667 2.5666666666666664 1.0999999999999999" stroke-width="2"/>
  <path stroke="currentColor" stroke-linecap="round" stroke-linejoin="round" stroke-miterlimit="10" d="M3.29494 17.1875c0 1.0083333333333333 0.825 1.8333333333333333 1.8333333333333333 1.8333333333333333" stroke-width="2"/>
  <path stroke="currentColor" stroke-linecap="round" stroke-linejoin="round" stroke-miterlimit="10" d="M1.0032733333333332 17.645833333333332c0 2.0166666666666666 1.65 3.6666666666666665 3.6666666666666665 3.6666666666666665" stroke-width="2"/>
</svg>
