<svg xmlns="http://www.w3.org/2000/svg" viewBox="0 0 100 100" width="300" height="300" role="img" aria-label="8 by 8 checkerboard">
  <rect x="0" y="0" width="100" height="100" fill="#000000"/>
  <rect x="2" y="2" width="12" height="12" fill="#FFFFFF"/>
  <rect x="14" y="2" width="12" height="12" fill="#A0512D"/>
  <rect x="26" y="2" width="12" height="12" fill="#FFFFFF"/>
  <rect x="38" y="2" width="12" height="12" fill="#A0512D"/>
  <rect x="50" y="2" width="12" height="12" fill="#FFFFFF"/>
  <rect x="62" y="2" width="12" height="12" fill="#A0512D"/>
  <rect x="74" y="2" width="12" height="12" fill="#FFFFFF"/>
  <rect x="86" y="2" width="12" height="12" fill="#A0512D"/>
  <rect x="2" y="14" width="12" height="12" fill="#A0512D"/>
  <rect x="14" y="14" width="12" height="12" fill="#FFFFFF"/>
  <rect x="26" y="14" width="12" height="12" fill="#A0512D"/>
  <rect x="38" y="14" width="12" height="12" fill="#FFFFFF"/>
  <rect x="50" y="14" width="12" height="12" fill="#A0512D"/>
  <rect x="62" y="14" width="12" height="12" fill="#FFFFFF"/>
  <rect x="74" y="14" width="12" height="12" fill="#A0512D"/>
  <rect x="86" y="14" width="12" height="12" fill="#FFFFFF"/>
  <rect x="2" y="26" width="12" height="12" fill="#FFFFFF"/>
  <rect x="14" y="26" width="12" height="12" fill="#A0512D"/>
  <rect x="26" y="26" width="12" height="12" fill="#FFFFFF"/>
  <rect x="38" y="26" width="12" height="12" fill="#A0512D"/>
  <rect x="50" y="26" width="12" height="12" fill="#FFFFFF"/>
  <rect x="62" y="26" width="12" height="12" fill="#A0512D"/>
  <rect x="74" y="26" width="12" height="12" fill="#FFFFFF"/>
  <rect x="86" y="26" width="12" height="12" fill="#A0512D"/>
  <rect x="2" y="38" width="12" height="12" fill="#A0512D"/>
  <rect x="14" y="38" width="12" height="12" fill="#FFFFFF"/>
  <rect x="26" y="38" width="12" height="12" fill="#A0512D"/>
  <rect x="38" y="38" width="12" height="12" fill="#FFFFFF"/>
  <rect x="50" y="38" width="12" height="12" fill="#A0512D"/>
  <rect x="62" y="38" width="12" height="12" fill="#FFFFFF"/>
  <rect x="74" y="38" width="12" height="12" fill="#A0512D"/>
  <rect x="86" y="38" width="12" height="12" fill="#FFFFFF"/>
  <rect x="2" y="50" width="12" height="12" fill="#FFFFFF"/>
  <rect x="14" y="50" width="12" height="12" fill="#A0512D"/>
  <rect x="26" y="50" width="12" height="12" fill="#FFFFFF"/>
  <rect x="38" y="50" width="12" height="12" fill="#A0512D"/>
  <rect x="50" y="50" width="12" height="12" fill="#FFFFFF"/>
  <rect x="62" y="50" width="12" height="12" fill="#A0512D"/>
  <rect x="74" y="50" width="12" height="12" fill="#FFFFFF"/>
  <rect x="86" y="50" width="12" height="12" fill="#A0512D"/>
  <rect x="2" y="62" width="12" height="12" fill="#A0512D"/>
  <rect x="14" y="62" width="12" height="12" fill="#FFFFFF"/>
  <rect x="26" y="62" width="12" height="12" fill="#A0512D"/>
  <rect x="38" y="62" width="12" height="12" fill="#FFFFFF"/>
  <rect x="50" y="62" width="12" height="12" fill="#A0512D"/>
  <rect x="62" y="62" width="12" height="12" fill="#FFFFFF"/>
  <rect x="74" y="62" width="12" height="12" fill="#A0512D"/>
  <rect x="86" y="62" width="12" height="12" fill="#FFFFFF"/>
  <rect x="2" y="74" width="12" height="12" fill="#FFFFFF"/>
  <rect x="14" y="74" width="12" height="12" fill="#A0512D"/>
  <rect x="26" y="74" width="12" height="12" fill="#FFFFFF"/>
  <rect x="38" y="74" width="12" height="12" fill="#A0512D"/>
  <rect x="50" y="74" width="12" height="12" fill="#FFFFFF"/>
  <rect x="62" y="74" width="12" height="12" fill="#A0512D"/>
  <rect x="74" y="74" width="12" height="12" fill="#FFFFFF"/>
  <rect x="86" y="74" width="12" height="12" fill="#A0512D"/>
  <rect x="2" y="86" width="12" height="12" fill="#A0512D"/>
  <rect x="14" y="86" width="12" height="12" fill="#FFFFFF"/>
  <rect x="26" y="86" width="12" height="12" fill="#A0512D"/>
  <rect x="38" y="86" width="12" height="12" fill="#FFFFFF"/>
  <rect x="50" y="86" width="12" height="12" fill="#A0512D"/>
  <rect x="62" y="86" width="12" height="12" fill="#FFFFFF"/>
  <rect x="74" y="86" width="12" height="12" fill="#A0512D"/>
  <rect x="86" y="86" width="12" height="12" fill="#FFFFFF"/>
  <circle cx="20" cy="8" r="4.800000000000001" fill="#000000"/>
  <circle cx="20" cy="8" r="3.5999999999999996" fill="#45413C"/>
  <circle cx="44" cy="8" r="4.800000000000001" fill="#000000"/>
  <circle cx="44" cy="8" r="3.5999999999999996" fill="#45413C"/>
  <circle cx="68" cy="8" r="4.800000000000001" fill="#000000"/>
  <circle cx="68" cy="8" r="3.5999999999999996" fill="#45413C"/>
  <circle cx="92" cy="8" r="4.800000000000001" fill="#000000"/>
  <circle cx="92" cy="8" r="3.5999999999999996" fill="#45413C"/>
  <circle cx="8" cy="20" r="4.800000000000001" fill="#000000"/>
  <circle cx="8" cy="20" r="3.5999999999999996" fill="#45413C"/>
  <circle cx="32" cy="20" r="4.800000000000001" fill="#000000"/>
  <circle cx="32" cy="20" r="3.5999999999999996" fill="#45413C"/>
  <circle cx="56" cy="20" r="4.800000000000001" fill="#000000"/>
  <circle cx="56" cy="20" r="3.5999999999999996" fill="#45413C"/>
  <circle cx="80" cy="20" r="4.800000000000001" fill="#000000"/>
  <circle cx="80" cy="20" r="3.5999999999999996" fill="#45413C"/>
  <circle cx="20" cy="32" r="4.800000000000001" fill="#000000"/>
  <circle cx="20" cy="32" r="3.5999999999999996" fill="#45413C"/>
  <circle cx="44" cy="32" r="4.800000000000001" fill="#000000"/>
  <circle cx="44" cy="32" r="3.5999999999999996" fill="#45413C"/>
  <circle cx="68" cy="32" r="4.800000000000001" fill="#000000"/>
  <circle cx="68" cy="32" r="3.5999999999999996" fill="#45413C"/>
  <circle cx="92" cy="32" r="4.800000000000001" fill="#000000"/>
  <circle cx="92" cy="32" r="3.5999999999999996" fill="#45413C"/>
  <circle cx="8" cy="68" r="4.800000000000001" fill="#DDDDDD"/>
  <circle cx="8" cy="68" r="3.5999999999999996" fill="#FFFFFF"/>
  <circle cx="32" cy="68" r="4.800000000000001" fill="#DDDDDD"/>
  <circle cx="32" cy="68" r="3.5999999999999996" fill="#FFFFFF"/>
  <circle cx="56" cy="68" r="4.800000000000001" fill="#DDDDDD"/>
  <circle cx="56" cy="68" r="3.5999999999999996" fill="#FFFFFF"/>
  <circle cx="80" cy="68" r="4.800000000000001" fill="#DDDDDD"/>
  <circle cx="80" cy="68" r="3.5999999999999996" fill="#FFFFFF"/>
  <circle cx="20" cy="80" r="4.800000000000001" fill="#DDDDDD"/>
  <circle cx="20" cy="80" r="3.5999999999999996" fill="#FFFFFF"/>
  <circle cx="44" cy="80" r="4.800000000000001" fill="#DDDDDD"/>
  <circle cx="44" cy="80" r="3.5999999999999996" fill="#FFFFFF"/>
  <circle cx="68" cy="80" r="4.800000000000001" fill="#DDDDDD"/>
  <circle cx="68" cy="80" r="3.5999999999999996" fill="#FFFFFF"/>
  <circle cx="92" cy="80" r="4.800000000000001" fill="#DDDDDD"/>
  <circle cx="92" cy="80" r="3.5999999999999996" fill="#FFFFFF"/>
  <circle cx="8" cy="92" r="4.800000000000001" fill="#DDDDDD"/>
  <circle cx="8" cy="92" r="3.5999999999999996" fill="#FFFFFF"/>
  <circle cx="32" cy="92" r="4.800000000000001" fill="#DDDDDD"/>
  <circle cx="32" cy="92" r="3.5999999999999996" fill="#FFFFFF"/>
  <circle cx="56" cy="92" r="4.800000000000001" fill="#DDDDDD"/>
  <circle cx="56" cy="92" r="3.5999999999999996" fill="#FFFFFF"/>
  <circle cx="80" cy="92" r="4.800000000000001" fill="#DDDDDD"/>
  <circle cx="80" cy="92" r="3.5999999999999996" fill="#FFFFFF"/>
</svg>
