<svg xmlns="http://www.w3.org/2000/svg" fill="none" viewBox="0 0 24 24" width="18" height="18">
  <path stroke="#000"
    d="M7 12c0 1.3261 0.52678 2.5979 1.46447 3.5355C9.40215 16.4732 10.6739 17 12 17c1.3261 0 2.5979 -0.5268 3.5355 -1.4645C16.4732 14.5979 17 13.3261 17 12c0 -1.3261 -0.5268 -2.59785 -1.4645 -3.53553C14.5979 7.52678 13.3261 7 12 7c-1.3261 0 -2.59785 0.52678 -3.53553 1.46447C7.52678 9.40215 7 10.6739 7 12Z"
    stroke-width="2"></path>
  <path stroke="#000"
    d="M19.7782 19.7782C17.7153 21.8411 14.9174 23 12 23c-2.91738 0 -5.71527 -1.1589 -7.77817 -3.2218S1 14.9174 1 12c0 -2.91738 1.15893 -5.71527 3.22183 -7.77817S9.08262 1 12 1c2.9174 0 5.7153 1.15893 7.7782 3.22183S23 9.08262 23 12c0 1.753 -0.4184 3.4629 -1.2 4.9961C19.1313 16.8911 17 14.6944 17 12"
    stroke-width="2"></path>
</svg>