<svg xmlns="http://www.w3.org/2000/svg" width="160" height="160" fill="none"><path fill="#c7f0ff" stroke="#c7f0ff" stroke-miterlimit="10" stroke-width="1.6" d="M16 80a64 64 0 1 0 127.999 0A64 64 0 0 0 16 80z"/><path fill="url(#a)" d="M41.2 74.252q-1.65 0-3.275-.575A9.3 9.3 0 0 1 35 71.902l2.125-2.525q.925.75 2.025 1.225t2.3.475 1.75-.4.55-1.025q0-.425-.175-.7a1.66 1.66 0 0 0-.5-.525 4.4 4.4 0 0 0-.8-.425 101 101 0 0 1-1.05-.45l-2.1-.9a7.5 7.5 0 0 1-1.325-.65 5.4 5.4 0 0 1-1.1-.925 4.8 4.8 0 0 1-.775-1.25 4.6 4.6 0 0 1-.275-1.625q0-1 .425-1.875.45-.9 1.225-1.55.8-.675 1.9-1.05t2.425-.375q1.5 0 2.9.55t2.525 1.6l-1.875 2.325a7.3 7.3 0 0 0-1.7-.95q-.85-.35-2.05-.35-.925 0-1.5.375-.55.375-.55 1.1 0 .724.725 1.125.75.375 1.95.8l1.975.85q1.624.6 2.55 1.65.95 1.05.95 2.775 0 1.024-.425 1.95a4.9 4.9 0 0 1-1.225 1.6q-.8.675-1.975 1.1-1.175.4-2.7.4"/><path fill="url(#b)" d="M56.24 71.252q1.275 0 2.025-1.325.75-1.35.75-4.2 0-2.55-.75-3.875t-2.025-1.325-2.025 1.325-.75 3.875q0 2.85.75 4.2.75 1.325 2.025 1.325m4.675 7.15q-1.2 0-2.2-.325a6.5 6.5 0 0 1-1.8-.9q-.8-.575-1.4-1.375a7.5 7.5 0 0 1-.975-1.75q-2.199-.575-3.525-2.65-1.3-2.1-1.3-5.675 0-2.05.475-3.6.476-1.575 1.325-2.625a5.5 5.5 0 0 1 2.075-1.6q1.2-.55 2.65-.55t2.65.55q1.2.525 2.05 1.6.876 1.05 1.35 2.625.475 1.55.475 3.6 0 3.375-1.2 5.45-1.175 2.05-3.2 2.725.45.875 1.275 1.2.85.35 1.725.35.376 0 .7-.1.351-.1.6-.225l.65 2.75a4.6 4.6 0 0 1-1.025.375q-.574.15-1.375.15"/><path fill="url(#c)" d="M66.406 73.952v-16.3h3.674v13.2h7.25v3.1z"/><path fill="url(#d)" d="M70.8 126.952v-9.128h3.234q.741 0 1.386.154a2.9 2.9 0 0 1 1.134.49q.49.336.77.91.28.56.28 1.386 0 .798-.294 1.386-.28.588-.77.966c-.49.378-.705.439-1.134.56q-.645.182-1.372.182h-1.176v3.094zm2.058-4.732h1.05q1.68 0 1.68-1.456 0-.714-.434-1.008-.42-.294-1.246-.294h-1.05z"/><path fill="url(#e)" d="M79.04 126.952v-9.128h2.058v3.514h2.492v-3.514h2.058v9.128H83.59v-3.808h-2.492v3.808z"/><path fill="url(#f)" d="M87.589 126.952v-9.128h3.234q.741 0 1.386.154a2.9 2.9 0 0 1 1.134.49 2.3 2.3 0 0 1 .77.91q.28.56.28 1.386 0 .798-.294 1.386a2.6 2.6 0 0 1-.77.966 3.3 3.3 0 0 1-1.134.56q-.645.182-1.372.182h-1.176v3.094zm2.058-4.732h1.05q1.68 0 1.68-1.456 0-.714-.434-1.008-.42-.294-1.246-.294h-1.05z"/><path fill="url(#g)" d="M81.818 44.952v-9.504h-3.51v-2.232h9.684v2.232h-3.51v9.504z"/><path fill="url(#h)" d="M94.951 45.168a5.8 5.8 0 0 1-2.088-.378 5.2 5.2 0 0 1-1.728-1.152q-.738-.756-1.188-1.872-.432-1.134-.432-2.61 0-1.458.432-2.592.432-1.152 1.188-1.944a5.04 5.04 0 0 1 1.782-1.206A5.8 5.8 0 0 1 95.113 33q1.116 0 2.016.468.9.45 1.494 1.026l-1.458 1.638a3.6 3.6 0 0 0-.918-.612q-.486-.234-1.134-.234-.63 0-1.152.27a2.7 2.7 0 0 0-.918.738q-.378.486-.594 1.188a5.4 5.4 0 0 0-.216 1.584q0 1.818.828 2.826.828.99 2.16.99.63 0 1.152-.288.54-.288.972-.756l1.458 1.602q-1.458 1.728-3.852 1.728"/><path fill="url(#i)" d="M100.686 44.952V33.216h4.158q.954 0 1.782.198.846.18 1.458.63.63.432.99 1.17.36.72.36 1.782 0 1.026-.378 1.782-.36.756-.99 1.242t-1.458.72a6.5 6.5 0 0 1-1.764.234h-1.512v3.978zm2.646-6.084h1.35q2.16 0 2.16-1.872 0-.918-.558-1.296-.54-.378-1.602-.378h-1.35z"/><path fill="url(#j)" d="M99.158 88.168a5.8 5.8 0 0 1-2.088-.378 5.2 5.2 0 0 1-1.728-1.152q-.738-.756-1.188-1.872-.432-1.134-.432-2.61 0-1.458.432-2.592.432-1.152 1.188-1.944a5.04 5.04 0 0 1 1.782-1.206A5.8 5.8 0 0 1 99.32 76q1.116 0 2.016.468.9.45 1.494 1.026l-1.458 1.638a3.6 3.6 0 0 0-.918-.612q-.486-.234-1.134-.234-.63 0-1.152.27a2.7 2.7 0 0 0-.918.738q-.378.486-.594 1.188a5.4 5.4 0 0 0-.216 1.584q0 1.818.828 2.826.828.99 2.16.99.63 0 1.152-.288.54-.288.972-.756l1.458 1.602q-1.458 1.728-3.852 1.728"/><path fill="url(#k)" d="M108.907 88.168a7 7 0 0 1-2.358-.414 6.7 6.7 0 0 1-2.106-1.278l1.53-1.818q.666.54 1.458.882t1.656.342 1.26-.288.396-.738a.9.9 0 0 0-.126-.504 1.2 1.2 0 0 0-.36-.378 3.2 3.2 0 0 0-.576-.306q-.342-.144-.756-.324l-1.512-.648a5.4 5.4 0 0 1-.954-.468 4 4 0 0 1-.792-.666 3.4 3.4 0 0 1-.558-.9 3.3 3.3 0 0 1-.198-1.17q0-.72.306-1.35.324-.648.882-1.116.576-.486 1.368-.756t1.746-.27q1.08 0 2.088.396a5.7 5.7 0 0 1 1.818 1.152l-1.35 1.674a5.2 5.2 0 0 0-1.224-.684q-.612-.252-1.476-.252-.666 0-1.08.27-.396.27-.396.792t.522.81q.54.27 1.404.576l1.422.612q1.17.432 1.836 1.188.684.756.684 1.998 0 .738-.306 1.404a3.5 3.5 0 0 1-.882 1.152q-.576.486-1.422.792-.846.288-1.944.288"/><path fill="url(#l)" d="M119.7 88.168a7 7 0 0 1-2.358-.414 6.7 6.7 0 0 1-2.106-1.278l1.53-1.818q.666.54 1.458.882t1.656.342 1.26-.288.396-.738a.9.9 0 0 0-.126-.504 1.2 1.2 0 0 0-.36-.378 3.2 3.2 0 0 0-.576-.306q-.342-.144-.756-.324l-1.512-.648a5.4 5.4 0 0 1-.954-.468 4 4 0 0 1-.792-.666 3.4 3.4 0 0 1-.558-.9 3.3 3.3 0 0 1-.198-1.17q0-.72.306-1.35.324-.648.882-1.116.576-.486 1.368-.756t1.746-.27q1.08 0 2.088.396a5.7 5.7 0 0 1 1.818 1.152l-1.35 1.674a5.2 5.2 0 0 0-1.224-.684q-.612-.252-1.476-.252-.666 0-1.08.27-.396.27-.396.792t.522.81q.54.27 1.404.576l1.422.612q1.17.432 1.836 1.188.684.756.684 1.998 0 .738-.306 1.404a3.5 3.5 0 0 1-.882 1.152q-.576.486-1.422.792-.846.288-1.944.288"/><path fill="url(#m)" d="m41.142 101.012-.27 1.08h2.466l-.27-1.08q-.234-.882-.486-1.854a49 49 0 0 1-.45-1.926h-.072q-.216.936-.45 1.926a83 83 0 0 1-.468 1.854m-4.23 5.94 3.654-11.736h3.168l3.654 11.736H44.58l-.702-2.79h-3.546l-.72 2.79z"/><path fill="url(#n)" d="M48.893 106.952V95.216h4.158q.954 0 1.782.198.846.18 1.458.63.63.432.99 1.17.36.72.36 1.782 0 1.026-.378 1.782-.36.756-.99 1.242t-1.458.72a6.5 6.5 0 0 1-1.764.234H51.54v3.978zm2.646-6.084h1.35q2.16 0 2.16-1.872 0-.918-.558-1.296-.54-.378-1.602-.378h-1.35z"/><path fill="url(#o)" d="M59.668 106.952v-2.232h2.736v-7.272h-2.736v-2.232h8.136v2.232h-2.736v7.272h2.736v2.232z"/><defs><linearGradient id="a" x1="56.165" x2="56.165" y1="57.352" y2="78.402" gradientUnits="userSpaceOnUse"><stop stop-color="#20f"/><stop offset="1" stop-color="#9e00ff"/></linearGradient><linearGradient id="b" x1="56.165" x2="56.165" y1="57.352" y2="78.402" gradientUnits="userSpaceOnUse"><stop stop-color="#20f"/><stop offset="1" stop-color="#9e00ff"/></linearGradient><linearGradient id="c" x1="56.165" x2="56.165" y1="57.352" y2="78.402" gradientUnits="userSpaceOnUse"><stop stop-color="#20f"/><stop offset="1" stop-color="#9e00ff"/></linearGradient><linearGradient id="d" x1="82.596" x2="82.596" y1="117.824" y2="126.952" gradientUnits="userSpaceOnUse"><stop stop-color="#20f"/><stop offset="1" stop-color="#9e00ff"/></linearGradient><linearGradient id="e" x1="82.596" x2="82.596" y1="117.824" y2="126.952" gradientUnits="userSpaceOnUse"><stop stop-color="#20f"/><stop offset="1" stop-color="#9e00ff"/></linearGradient><linearGradient id="f" x1="82.596" x2="82.596" y1="117.824" y2="126.952" gradientUnits="userSpaceOnUse"><stop stop-color="#20f"/><stop offset="1" stop-color="#9e00ff"/></linearGradient><linearGradient id="g" x1="93.871" x2="93.871" y1="33" y2="45.168" gradientUnits="userSpaceOnUse"><stop stop-color="#20f"/><stop offset="1" stop-color="#9e00ff"/></linearGradient><linearGradient id="h" x1="93.871" x2="93.871" y1="33" y2="45.168" gradientUnits="userSpaceOnUse"><stop stop-color="#20f"/><stop offset="1" stop-color="#9e00ff"/></linearGradient><linearGradient id="i" x1="93.871" x2="93.871" y1="33" y2="45.168" gradientUnits="userSpaceOnUse"><stop stop-color="#20f"/><stop offset="1" stop-color="#9e00ff"/></linearGradient><linearGradient id="j" x1="108.988" x2="108.988" y1="76" y2="88.168" gradientUnits="userSpaceOnUse"><stop stop-color="#20f"/><stop offset="1" stop-color="#9e00ff"/></linearGradient><linearGradient id="k" x1="108.988" x2="108.988" y1="76" y2="88.168" gradientUnits="userSpaceOnUse"><stop stop-color="#20f"/><stop offset="1" stop-color="#9e00ff"/></linearGradient><linearGradient id="l" x1="108.988" x2="108.988" y1="76" y2="88.168" gradientUnits="userSpaceOnUse"><stop stop-color="#20f"/><stop offset="1" stop-color="#9e00ff"/></linearGradient><linearGradient id="m" x1="52.358" x2="52.358" y1="95.216" y2="106.952" gradientUnits="userSpaceOnUse"><stop stop-color="#20f"/><stop offset="1" stop-color="#9e00ff"/></linearGradient><linearGradient id="n" x1="52.358" x2="52.358" y1="95.216" y2="106.952" gradientUnits="userSpaceOnUse"><stop stop-color="#20f"/><stop offset="1" stop-color="#9e00ff"/></linearGradient><linearGradient id="o" x1="52.358" x2="52.358" y1="95.216" y2="106.952" gradientUnits="userSpaceOnUse"><stop stop-color="#20f"/><stop offset="1" stop-color="#9e00ff"/></linearGradient></defs></svg>