<svg xmlns="http://www.w3.org/2000/svg" width="88" height="87" fill="none" viewBox="0 0 88 87"><path fill="#b8ecff" d="M84 42.37a39.998 39.998 0 0 0-64.477-31.642A40 40 0 0 0 7.564 58.87h72.872A39.8 39.8 0 0 0 84 42.37"/><path fill="#daf7c6" d="M7.564 58.87a40 40 0 0 0 72.872 0z"/><path stroke="#45413c" stroke-linecap="round" stroke-linejoin="round" d="M5 58.87h78M.5 58.87H3M85 58.87h2.5"/><path fill="#f0d3a8" stroke="#45413c" stroke-linecap="round" stroke-linejoin="round" d="M15.9 59.049h-3.473V22.583a2.315 2.315 0 0 1 2.315-2.315H15.9z"/><path fill="#fff" stroke="#45413c" stroke-linecap="round" stroke-linejoin="round" d="M12.427 31.845C17.1 43.51 15.608 55.203 12.3 56.622l-1.2.514a1 1 0 0 0 .393 1.912h4a2.97 2.97 0 0 0 2.209-.983c1.471-1.636 1.874-18.873-1.8-26.22z"/><path fill="#ff6242" stroke="#45413c" stroke-linecap="round" stroke-linejoin="round" d="M45.344 39.637c-2.885-1.895-1.5-5.855.666-3.69 2.165-2.165 3.554 1.794.666 3.69a1.22 1.22 0 0 1-1.332 0"/><path stroke="#45413c" stroke-linecap="round" stroke-linejoin="round" d="M46.01 23.742v12.205"/><path fill="#f0d3a8" stroke="#45413c" stroke-linecap="round" stroke-linejoin="round" d="M57.574 59.049H54.1v-38.78h1.473a2 2 0 0 1 2 2z"/><path fill="#fff" stroke="#45413c" stroke-linecap="round" stroke-linejoin="round" d="M59.452 57.737a1 1 0 0 0-.553-.6l-1.2-.514c-3.184-1.364-4.683-12.255-.621-23.475q-1.806.215-3.624.2c-2.971 7.955-2.531 23.184-1.154 24.717a2.97 2.97 0 0 0 2.208.983h4a1 1 0 0 0 .946-1.312zM12.768 30.51c3.572-.732 16.518-3.779 20.5-10.242h3.473s-5.587 15.074-23.88 12.871a1.164 1.164 0 0 1-1.013-1.154v-.343a1.15 1.15 0 0 1 .92-1.133"/><path fill="#f0d3a8" d="M15.899 20.269h38.202v3.473H15.899z"/><path fill="#fff5e3" d="M15.899 20.269h38.202v1.736H15.899z"/><path stroke="#45413c" stroke-linecap="round" stroke-linejoin="round" d="M15.899 20.269h38.202v3.473H15.899z"/><path fill="#fff" stroke="#45413c" stroke-linecap="round" stroke-linejoin="round" d="M57.259 30.485c-3.439-.819-15.848-4.132-20.185-10.282a1.17 1.17 0 0 0-.952-.512h-1.06a1.156 1.156 0 0 0-1.028 1.69c2.062 3.983 8.573 13.493 23.1 11.76a1.165 1.165 0 0 0 1.015-1.155v-.373a1.16 1.16 0 0 0-.89-1.128"/><path fill="#ff6242" stroke="#45413c" stroke-linecap="round" stroke-linejoin="round" d="M34.334 43.637c-2.885-1.894-1.5-5.854.666-3.69 2.165-2.164 3.554 1.8.666 3.69a1.22 1.22 0 0 1-1.332 0"/><path stroke="#45413c" stroke-linecap="round" stroke-linejoin="round" d="M35 23.742v16.205"/><path fill="#ff6242" stroke="#45413c" stroke-linecap="round" stroke-linejoin="round" d="M25.085 39.058c-2.885-1.895-1.5-5.855.667-3.69 2.164-2.165 3.554 1.8.666 3.69a1.22 1.22 0 0 1-1.333 0"/><path stroke="#45413c" stroke-linecap="round" stroke-linejoin="round" d="M25.752 23.742v11.626"/><path fill="#87898c" d="M47.077 69.496h20.948v15.14H47.077z"/><path fill="#45413c" d="M47.077 69.496h20.948v4.96H47.077z"/><path stroke="#45413c" stroke-linecap="round" stroke-linejoin="round" d="M68.025 84.636v-15.14H47.077v15.14"/><path fill="#fff" stroke="#45413c" stroke-linecap="round" stroke-linejoin="round" d="M57.55 38.626a16.7 16.7 0 0 0-5.186.824l.045 30.046h10.285l.044-30.045a16.7 16.7 0 0 0-5.188-.825"/><path fill="#ff6242" stroke="#45413c" stroke-linecap="round" stroke-linejoin="round" d="M47.077 62.88h20.948v6.616H47.077z"/><path stroke="#45413c" stroke-linecap="round" stroke-linejoin="round" d="M47.078 65.085h20.947M47.078 67.29h20.981M57.551 44.18v18.7"/><path fill="#bf8256" d="M61.41 39.078v-4.863h-7.718v4.861q-.5.117-.983.264l4.841 4.84 4.84-4.84q-.485-.145-.98-.263"/><path fill="#bf8256" d="M61.41 34.216h-7.718v4.919l1.323.393a8.9 8.9 0 0 0 5.073 0l1.322-.393z"/><path stroke="#45413c" stroke-linecap="round" stroke-linejoin="round" d="M61.41 39.078v-4.863h-7.718v4.861q-.5.117-.983.264l4.841 4.84 4.84-4.84q-.485-.145-.98-.263"/><path fill="#87898c" d="M74.089 55.29a16.56 16.56 0 0 0-11.341-15.836L60.725 52.91A63.4 63.4 0 0 0 62.8 68.427a2.3 2.3 0 0 0 .708 1.148l3.367 2.946a1.575 1.575 0 0 0 2.081.009 15.56 15.56 0 0 0 5.134-11.685V55.29z"/><path fill="#87898c" d="M74.089 58.465V55.29a16.56 16.56 0 0 0-11.341-15.836l-.456 3.032a16.56 16.56 0 0 1 11.797 15.979"/><path stroke="#45413c" stroke-linecap="round" stroke-linejoin="round" d="M74.089 55.29a16.56 16.56 0 0 0-11.341-15.836L60.725 52.91A63.4 63.4 0 0 0 62.8 68.427a2.3 2.3 0 0 0 .708 1.148l3.367 2.946a1.575 1.575 0 0 0 2.081.009 15.56 15.56 0 0 0 5.134-11.685V55.29z"/><path fill="#bdbec0" d="M60.725 52.91c.023 3.744.39 7.478 1.095 11.155l4.46-12.742-2.38-5.555 3.175-.793-.63-3.777a16.6 16.6 0 0 0-3.7-1.744z"/><path stroke="#45413c" stroke-linejoin="round" d="M60.725 52.91c.023 3.744.39 7.478 1.095 11.155l4.46-12.742-2.38-5.555 3.175-.793-.63-3.777a16.6 16.6 0 0 0-3.7-1.744z"/><path stroke="#45413c" stroke-linecap="round" stroke-linejoin="round" d="M68.025 51.323v9.716c0 2.8-2.385 7.314-4.519 8.534"/><path fill="#87898c" d="M41.014 55.29a16.56 16.56 0 0 1 11.341-15.836l2.022 13.456a63.4 63.4 0 0 1-2.07 15.517 2.3 2.3 0 0 1-.708 1.148l-3.366 2.946a1.576 1.576 0 0 1-2.082.009 15.56 15.56 0 0 1-5.139-11.685V55.29z"/><path fill="#87898c" d="M41.014 58.465V55.29a16.56 16.56 0 0 1 11.341-15.836l.455 3.032a16.56 16.56 0 0 0-11.796 15.979"/><path stroke="#45413c" stroke-linecap="round" stroke-linejoin="round" d="M41.014 55.29a16.56 16.56 0 0 1 11.341-15.836l2.022 13.456a63.4 63.4 0 0 1-2.07 15.517 2.3 2.3 0 0 1-.708 1.148l-3.366 2.946a1.576 1.576 0 0 1-2.082.009 15.56 15.56 0 0 1-5.139-11.685V55.29z"/><path fill="#bdbec0" d="M54.377 52.91a61 61 0 0 1-1.1 11.155l-4.455-12.742 2.378-5.555-3.174-.793.629-3.777a16.6 16.6 0 0 1 3.7-1.744z"/><path stroke="#45413c" stroke-linejoin="round" d="M54.377 52.91a61 61 0 0 1-1.1 11.155l-4.455-12.742 2.378-5.555-3.174-.793.629-3.777a16.6 16.6 0 0 1 3.7-1.744z"/><path stroke="#45413c" stroke-linecap="round" stroke-linejoin="round" d="M47.077 51.323v9.716c0 2.8 2.385 7.314 4.519 8.534"/><path fill="#ff6242" stroke="#45413c" stroke-linejoin="round" d="m57.551 45.768.926-.794a5.66 5.66 0 0 1 2.7-1.441 1.6 1.6 0 0 1 1.928 1.556v1.358a1.6 1.6 0 0 1-1.927 1.555 5.65 5.65 0 0 1-2.7-1.44zM57.551 45.767l-.926-.793a5.66 5.66 0 0 0-2.7-1.442A1.6 1.6 0 0 0 52 45.088v1.36a1.6 1.6 0 0 0 1.924 1.554 5.65 5.65 0 0 0 2.7-1.44z"/><path fill="#ff6242" stroke="#45413c" stroke-linejoin="round" d="M55.964 45.767a1.587 1.587 0 1 0 3.174 0 1.587 1.587 0 0 0-3.174 0Z"/><path fill="#bf8256" stroke="#45413c" stroke-linecap="round" stroke-linejoin="round" d="M68.576 23.19v-2.756a11.025 11.025 0 0 0-22.05 0v2.756a2.205 2.205 0 1 0 0 4.41c.046 0 .09-.01.135-.013a11.011 11.011 0 0 0 21.78 0c.046 0 .089.014.135.014a2.205 2.205 0 1 0 0-4.41"/><path stroke="#45413c" stroke-linecap="round" stroke-linejoin="round" d="M63.615 24.294a1.8 1.8 0 0 0-3.317 0M54.8 24.294a1.8 1.8 0 0 0-3.317 0"/><path fill="#bf8256" d="M49.834 27.877a1.378 1.378 0 1 0 2.757 0 1.378 1.378 0 0 0-2.757 0M62.513 27.877a1.378 1.378 0 1 0 2.757 0 1.378 1.378 0 0 0-2.757 0"/><path fill="#614b44" stroke="#45413c" stroke-linecap="round" stroke-linejoin="round" d="M57.551 40.83c1.66.023 3.31-.247 4.874-.8a8.63 8.63 0 0 0 5.448-6.928l.556-5.5h-.483s-1.575 3.86-3.78 3.86c-2.273 0-3.859-2.2-6.615-2.2s-4.342 2.2-6.615 2.2c-2.2 0-3.779-3.86-3.779-3.86h-.484l.556 5.5a8.63 8.63 0 0 0 5.449 6.93c1.565.551 3.214.822 4.873.799"/><path fill="#bf8256" stroke="#45413c" stroke-linecap="round" stroke-linejoin="round" d="M57.551 35.38c-1.654 0-2.756 1.1-3.307 0-.889-1.779 1.1-3.86 3.307-3.86s4.2 2.082 3.308 3.86c-.552 1.102-1.654 0-3.308 0"/><path fill="#a86c4d" stroke="#45413c" stroke-linecap="round" stroke-linejoin="round" d="M58.678 9.466a11.3 11.3 0 0 0-2.254 0 11.027 11.027 0 0 0-9.9 10.969v2.753a1.9 1.9 0 0 1 1.766 1.895 10 10 0 0 0 .234-4.482c1.163.387 3.074-1.268 3.074-1.268v-2.646a26.4 26.4 0 0 0 5.953 1.322c2.03-.209 4.027-.653 5.954-1.323v2.646s1.911 1.656 3.073 1.268a10 10 0 0 0 .234 4.482 1.9 1.9 0 0 1 1.764-1.895v-2.753a11.03 11.03 0 0 0-9.898-10.968"/><path fill="#614b44" d="M54.14 18.892a3.86 3.86 0 0 0 5.121-1.884 7.717 7.717 0 0 0-3.769-10.244 7.166 7.166 0 0 0-9.511 3.5l-1.387 3c-.694 1.5-3.007 1.04-4.428.385a2.75 2.75 0 0 0 2.444 3.909l-.328.712a7.166 7.166 0 0 0 10.37 9.04l.021.012a3.86 3.86 0 0 1-1.884-5.12l1.156-2.5a1.653 1.653 0 0 1 2.195-.81"/><path fill="#a86c4d" d="M40.588 16.536c1.421.656 3.734 1.117 4.428-.384l1.387-3a7.166 7.166 0 0 1 9.511-3.5 7.69 7.69 0 0 1 4.048 4.476 7.72 7.72 0 0 0-4.47-7.362 7.166 7.166 0 0 0-9.511 3.5l-1.387 3c-.694 1.5-3.007 1.04-4.428.384a2.75 2.75 0 0 0 .405 2.934q.008-.023.017-.049"/><path stroke="#45413c" stroke-linecap="round" stroke-linejoin="round" d="M54.14 18.892a3.86 3.86 0 0 0 5.121-1.884 7.717 7.717 0 0 0-3.769-10.244 7.166 7.166 0 0 0-9.511 3.5l-1.387 3c-.694 1.5-3.007 1.04-4.428.385a2.75 2.75 0 0 0 2.444 3.909l-.328.712a7.166 7.166 0 0 0 10.37 9.04l.021.012a3.86 3.86 0 0 1-1.884-5.12l1.156-2.5a1.653 1.653 0 0 1 2.195-.81"/></svg>