<svg xmlns="http://www.w3.org/2000/svg" width="160" height="160" viewBox="0 0 160 160"><path fill="#cdf2ff" stroke="#cdf2ff" stroke-width="1.6" d="M16 80a64 64 0 1 0 128 0 64 64 0 1 0-128 0Z"/><path fill="#45413c" d="M48.76 128.834a22.68 2.52 0 1 0 45.36 0 22.68 2.52 0 1 0-45.36 0" opacity=".15"/><path fill="#4acfff" stroke="#009fd9" stroke-width="1.6" d="M121.253 106.54a2.52 2.52 0 0 1-1.783-4.3 35.34 35.34 0 0 0 0-49.98 2.522 2.522 0 1 1 3.57-3.562 40.38 40.38 0 0 1 0 57.105 2.5 2.5 0 0 1-1.787.738Z"/><path fill="#4acfff" stroke="#009fd9" stroke-width="1.6" d="M111.942 97.227a2.518 2.518 0 0 1-1.782-4.3 22.173 22.173 0 0 0 0-31.36 2.52 2.52 0 0 1 1.784-4.287 2.5 2.5 0 0 1 1.782.74 27.213 27.213 0 0 1 0 38.478 2.5 2.5 0 0 1-1.784.73Z"/><path fill="#4acfff" stroke="#009fd9" stroke-width="1.6" d="M102.63 87.918a2.52 2.52 0 0 1-1.78-4.304 9 9 0 0 0 0-12.724 2.52 2.52 0 1 1 3.561-3.567 14.04 14.04 0 0 1 0 19.86 2.5 2.5 0 0 1-1.78.735Z"/><path fill="#e09f7e" d="M31.693 95.04a20.55 20.55 0 0 0 6.984 18.573 19.7 19.7 0 0 0 7.165 3.774A20.63 20.63 0 0 0 72.045 98.18a19.5 19.5 0 0 1 9.817-16.201 32.12 32.12 0 0 0 16.023-27.756c.121-16.39-12.522-30.638-28.48-32.14a31.14 31.14 0 0 0-14.963 2.72 25.65 25.65 0 0 0-14.106 31.21 25.82 25.82 0 0 1-1.12 18.24l-5.454 12.129a21.1 21.1 0 0 0-1.738 6.056Z"/><path fill="#d18660" d="M51.402 118.197a20.92 20.92 0 0 0 13.476-18.72 19.5 19.5 0 0 1 9.818-16.203A32.11 32.11 0 0 0 90.72 55.52c.122-16.39-12.522-30.638-28.48-32.14a25 25 0 0 0-3.744-.063 28.8 28.8 0 0 1 10.91-1.237c15.967 1.502 28.61 15.75 28.488 32.14a32.12 32.12 0 0 1-16.032 27.758 19.5 19.5 0 0 0-9.817 16.201 20.736 20.736 0 0 1-20.643 20.018"/><path fill="none" stroke="#45413c" stroke-linecap="round" stroke-linejoin="round" stroke-width="1.6" d="M31.693 95.04a20.55 20.55 0 0 0 6.984 18.573 19.7 19.7 0 0 0 7.165 3.774A20.63 20.63 0 0 0 72.045 98.18a19.5 19.5 0 0 1 9.817-16.201 32.12 32.12 0 0 0 16.023-27.756c.121-16.39-12.522-30.638-28.48-32.14a31.14 31.14 0 0 0-14.963 2.72 25.65 25.65 0 0 0-14.106 31.21h0a25.82 25.82 0 0 1-1.12 18.24l-5.454 12.129a21.1 21.1 0 0 0-1.738 6.056Z"/><path fill="#bd704a" d="M65.288 37.018a16.666 16.666 0 0 0-18.16 15.022q-.014.152-.026.306a6.13 6.13 0 0 0 5.858 6.374h.051c4.731.426 6.976 4.92 6.421 9.28-.787 6.18-6.538 8.466-10.818 12.05a13.6 13.6 0 0 0-5.256 8.48 4.6 4.6 0 0 0 .132 1.638c1.784 7.04 6.73 8.549 10.779 7.282a8.28 8.28 0 0 0 5.771-7.912c-.018-4.048 3.36-5.556 6.344-7.375a30 30 0 0 0 12.528-16.15c2.106-6.287 2.907-14.795-.605-20.72a17.07 17.07 0 0 0-13.019-8.275"/><path fill="#915e3a" d="M55.829 96.782c-2.466-.84-4.669-3.06-5.738-7.276a4.6 4.6 0 0 1-.131-1.64 13.6 13.6 0 0 1 5.256-8.48c4.28-3.583 10.03-5.868 10.818-12.05.382-2.998-.727-8.8-6.472-9.28a6.147 6.147 0 0 1-5.837-6.678 16.59 16.59 0 0 1 11.68-14.341l-.11-.011a16.666 16.666 0 0 0-18.16 15.022q-.014.152-.026.306a6.13 6.13 0 0 0 5.851 6.366h.051c4.731.426 6.976 4.92 6.421 9.28-.787 6.18-6.538 8.466-10.818 12.05a13.6 13.6 0 0 0-5.256 8.48 4.6 4.6 0 0 0 .132 1.638c1.784 7.04 6.73 8.549 10.779 7.282a8 8 0 0 0 1.56-.668"/><path fill="none" stroke="#45413c" stroke-linecap="round" stroke-linejoin="round" stroke-width="1.6" d="M65.288 37.018a16.666 16.666 0 0 0-18.16 15.022q-.014.152-.026.306a6.13 6.13 0 0 0 5.858 6.374h.051c4.731.426 6.976 4.92 6.421 9.28-.787 6.18-6.538 8.466-10.818 12.05a13.6 13.6 0 0 0-5.256 8.48 4.6 4.6 0 0 0 .132 1.638c1.784 7.04 6.73 8.549 10.779 7.282a8.28 8.28 0 0 0 5.771-7.912c-.018-4.048 3.36-5.556 6.344-7.375a30 30 0 0 0 12.528-16.15c2.106-6.287 2.907-14.795-.605-20.72a17.07 17.07 0 0 0-13.019-8.275"/></svg>