<svg xmlns="http://www.w3.org/2000/svg" width="100" height="100" fill="none" viewBox="0 0 100 100"><g clip-path="url(#a)"><path fill="#daedf7" stroke="#daedf7" d="M5 50a40 40 0 1 0 80 0 40 40 0 0 0-80 0Z"/><path fill="#adc4d9" d="M36.92 23.76a6.06 6.06 0 0 0 6.05 6.05h4.4a1.1 1.1 0 0 1 1.1 1.1v4.4h3.3v-4.4a1.1 1.1 0 0 1 1.1-1.1h4.4a6.05 6.05 0 1 0 0-12.1 5.56 5.56 0 0 0-5.2 3.6l-.917 2.45a1.1 1.1 0 0 1-2.06 0l-.917-2.45a5.55 5.55 0 0 0-5.2-3.6 6.054 6.054 0 0 0-6.056 6.05m18.15.24a2.295 2.295 0 1 1 2.3 2.288A2.305 2.305 0 0 1 55.07 24m-14.476 0a2.288 2.288 0 1 1 2.288 2.288A2.3 2.3 0 0 1 40.594 24"/><path fill="#daedf7" d="M42.97 19.707a5.55 5.55 0 0 1 5.2 3.6 2.08 2.08 0 0 0 3.894 0 5.56 5.56 0 0 1 5.2-3.6 6.04 6.04 0 0 1 5.961 5.05 6.014 6.014 0 0 0-5.955-7.047 5.56 5.56 0 0 0-5.2 3.6l-.917 2.449a1.1 1.1 0 0 1-2.06 0l-.917-2.449a5.55 5.55 0 0 0-5.2-3.6 6.054 6.054 0 0 0-6.05 6.05q.003.504.09 1a6.05 6.05 0 0 1 5.954-5.053"/><path stroke="#45413c" stroke-linecap="round" stroke-linejoin="round" d="M36.92 23.76a6.06 6.06 0 0 0 6.05 6.05h4.4a1.1 1.1 0 0 1 1.1 1.1v4.4h3.3v-4.4a1.1 1.1 0 0 1 1.1-1.1h4.4a6.05 6.05 0 1 0 0-12.1 5.56 5.56 0 0 0-5.2 3.6l-.917 2.45a1.1 1.1 0 0 1-2.06 0l-.917-2.45a5.55 5.55 0 0 0-5.2-3.6 6.054 6.054 0 0 0-6.056 6.05m18.15.24a2.295 2.295 0 1 1 2.3 2.288A2.305 2.305 0 0 1 55.07 24m-14.476 0a2.288 2.288 0 1 1 2.288 2.288A2.3 2.3 0 0 1 40.594 24"/><path fill="#fc9" stroke="#45413c" stroke-linecap="round" stroke-linejoin="round" d="M51.585 66.756a1.983 1.983 0 0 0-2.763.46l-5.07 7.1a1.1 1.1 0 0 1-1.387.344l-2.926-1.46a1.981 1.981 0 0 0-1.771 3.543l7.92 3.96a1.98 1.98 0 1 0 1.771-3.543.542.542 0 0 1-.2-.8l4.884-6.838a1.98 1.98 0 0 0-.458-2.766"/><path fill="#ffaa54" d="M44.475 73.307a18 18 0 0 0 3.332 2.144l4.238-5.932a1.98 1.98 0 0 0-3.223-2.3l-4.349 6.089"/><path stroke="#45413c" stroke-linecap="round" stroke-linejoin="round" d="M51.585 66.756a1.983 1.983 0 0 0-2.763.46l-5.07 7.1a1.1 1.1 0 0 1-1.387.344l-2.926-1.46a1.981 1.981 0 0 0-1.771 3.543l7.92 3.96a1.98 1.98 0 1 0 1.771-3.543.542.542 0 0 1-.2-.8l4.884-6.838a1.98 1.98 0 0 0-.458-2.766"/><path fill="#45413c" d="M38.225 81.834c0 .403 1.812.789 5.037 1.073 3.224.285 7.598.445 12.159.445 4.56 0 8.935-.16 12.16-.445 3.224-.284 5.036-.67 5.036-1.073s-1.812-.789-5.037-1.073c-3.224-.285-7.598-.445-12.159-.445-4.56 0-8.935.16-12.16.445-3.224.284-5.036.67-5.036 1.073" opacity=".15"/><path fill="#ffe500" d="M74.78 56.237a1.32 1.32 0 0 1 1.312 1.468C75.077 66.773 64.828 73.9 55.555 73.9a17.666 17.666 0 0 1-17.661-17.663v-9.649a11.88 11.88 0 0 1 23.76 0V53.6a2.64 2.64 0 0 0 2.64 2.64z"/><path fill="#ebcb00" d="M37.894 51.4v4.842A17.666 17.666 0 0 0 55.555 73.9c9.273 0 19.522-7.125 20.537-16.193a1.32 1.32 0 0 0-.859-1.388c-2.825 7.362-11.616 12.744-19.681 12.744A17.67 17.67 0 0 1 37.9 51.4"/><path stroke="#45413c" stroke-linecap="round" stroke-linejoin="round" d="M74.78 56.237a1.32 1.32 0 0 1 1.312 1.468C75.077 66.773 64.828 73.9 55.555 73.9a17.666 17.666 0 0 1-17.661-17.663v-9.649a11.88 11.88 0 0 1 23.76 0V53.6a2.64 2.64 0 0 0 2.64 2.64z"/><path fill="#fff" stroke="#45413c" stroke-linecap="round" stroke-linejoin="round" d="M42.22 45.928a5.94 5.94 0 1 0 11.88 0 5.94 5.94 0 0 0-11.88 0"/><path fill="#4acfff" stroke="#45413c" stroke-linecap="round" stroke-linejoin="round" d="M43.09 43.828a2.97 2.97 0 1 0 5.94 0 2.97 2.97 0 0 0-5.94 0"/><path fill="#ffaa54" stroke="#45413c" stroke-linecap="round" stroke-linejoin="round" d="M38.872 45.9a1.1 1.1 0 0 0-1.228-.384l-5.552 1.851a1.1 1.1 0 0 1-.522.043 1.44 1.44 0 0 0-1.518 2.067l.467.933c.101.205.136.436.1.662a1.907 1.907 0 0 0 2.349 2.15l.759-.19c.175-.043.358-.043.533 0l3.425.857a1.1 1.1 0 0 0 1.147-.408l2.368-3.153a1.1 1.1 0 0 0 0-1.32z"/><path stroke="#45413c" stroke-linecap="round" stroke-linejoin="round" d="M67.3 56.237a8.8 8.8 0 0 1-8.8 8.831M50.349 69.468a15.65 15.65 0 0 0 5.951 1.1c2.781 0 6.157-.706 8.305-2.508"/><path fill="#fc9" d="M68.52 73.829a2 2 0 0 0-2.8-.133.546.546 0 0 1-.824-.1l-2.714-4.111c-1.311.52-2.69.853-4.093.989l3.681 5.576a1.1 1.1 0 0 1-.176 1.418l-1.176 1.075a1.98 1.98 0 0 0-.119 2.794 1.976 1.976 0 0 0 2.79.129l5.3-4.845a1.99 1.99 0 0 0 .131-2.792"/><path fill="#ffaa54" d="M62.182 69.483c-1.311.52-2.69.853-4.093.989l2.489 3.77a22.6 22.6 0 0 0 3.958-1.194z"/><path stroke="#45413c" stroke-linecap="round" stroke-linejoin="round" d="M68.52 73.829a2 2 0 0 0-2.8-.133.546.546 0 0 1-.824-.1l-2.714-4.111c-1.311.52-2.69.853-4.093.989l3.681 5.576a1.1 1.1 0 0 1-.176 1.418l-1.176 1.075a1.98 1.98 0 0 0-.119 2.794 1.976 1.976 0 0 0 2.79.129l5.3-4.845a1.99 1.99 0 0 0 .131-2.792"/><path fill="#ffaa54" stroke="#45413c" stroke-linecap="round" stroke-linejoin="round" d="M15 73h6v6h-6zM15 61h6v6h-6z"/><path fill="#ff8a14" stroke="#45413c" stroke-linecap="round" stroke-linejoin="round" d="M8 79h13v5H8z"/><path fill="#ffaa54" stroke="#45413c" stroke-linecap="round" stroke-linejoin="round" d="M-5 79H8v5H-5zM2 84h13v6H2zM-11 84H2v6h-13zM-5 67H8v6H-5z"/><path fill="#eb6d00" stroke="#45413c" stroke-linecap="round" stroke-linejoin="round" d="M2 73h13v6H2z"/><path fill="#ffaa54" stroke="#45413c" stroke-linecap="round" stroke-linejoin="round" d="M-11 73H2v6h-13z"/><path fill="#ff8a14" stroke="#45413c" stroke-linecap="round" stroke-linejoin="round" d="M8 67h13v6H8z"/><path fill="#ffaa54" stroke="#45413c" stroke-linecap="round" stroke-linejoin="round" d="M8 56h13v5H8zM-5 56H8v5H-5zM2 61h13v6H2z"/><path fill="#eb6d00" stroke="#45413c" stroke-linecap="round" stroke-linejoin="round" d="M-11 61H2v6h-13z"/><path fill="#ffaa54" stroke="#45413c" stroke-linecap="round" stroke-linejoin="round" d="M8 44h13v6H8zM-5 44H8v6H-5z"/><path fill="#ff8a14" stroke="#45413c" stroke-linecap="round" stroke-linejoin="round" d="M15 39h6v5h-6zM2 50h13v6H2z"/><path fill="#ffaa54" stroke="#45413c" stroke-linecap="round" stroke-linejoin="round" d="M-11 50H2v6h-13zM-5 33H8v6H-5zM2 39h13v5H2zM-11 39H2v5h-13z"/><path fill="#eb6d00" stroke="#45413c" stroke-linecap="round" stroke-linejoin="round" d="M8 33h13v6H8z"/><path fill="#ffaa54" stroke="#45413c" stroke-linecap="round" stroke-linejoin="round" d="M8 21h13v6H8z"/><path fill="#ff8a14" stroke="#45413c" stroke-linecap="round" stroke-linejoin="round" d="M-5 21H8v6H-5zM2 27h13v6H2z"/><path fill="#ffaa54" stroke="#45413c" stroke-linecap="round" stroke-linejoin="round" d="M-11 27H2v6h-13z"/><path fill="#ff8a14" stroke="#45413c" stroke-linecap="round" stroke-linejoin="round" d="M8 10h13v6H8z"/><path fill="#ffaa54" stroke="#45413c" stroke-linecap="round" stroke-linejoin="round" d="M-5 10H8v6H-5zM2 16h13v5H2zM-11 16H2v5h-13z"/><path fill="#eb6d00" d="M2 5c-7.295.475-14.42 2.172-21 5H2z"/><path fill="#ffaa54" d="M15 5.56A67 67 0 0 0 6.333 5Q4.146 5 2 5.139V10h13zM15 6v4h6V7.064A61 61 0 0 0 15 6"/><path stroke="#45413c" stroke-linecap="round" stroke-linejoin="round" d="M-19 10H2V5M2 5v5h13V5.433M15 6v4h6V7.064"/><path fill="#ffaa54" stroke="#45413c" stroke-linecap="round" stroke-linejoin="round" d="M15 27h6v6h-6z"/><path fill="#eb6d00" stroke="#45413c" stroke-linecap="round" stroke-linejoin="round" d="M15 16h6v5h-6zM15 50h6v6h-6zM21 84h-6v6h4.667A1.334 1.334 0 0 0 21 88.667z"/></g><defs><clipPath id="a"><path fill="#fff" d="M0 0h100v100H0z"/></clipPath></defs></svg>