<svg xmlns="http://www.w3.org/2000/svg" width="82" height="82" fill="none" viewBox="0 0 82 82"><path fill="#daedf7" stroke="#daedf7" d="M1 41a40 40 0 1 0 80 0 40 40 0 0 0-80 0Z"/><path fill="#45413c" d="M27.89 64.369c0 .435 1.381.852 3.84 1.159s5.793.48 9.27.48 6.812-.173 9.27-.48c2.459-.307 3.84-.724 3.84-1.159s-1.381-.852-3.84-1.159-5.793-.48-9.27-.48-6.812.173-9.27.48c-2.459.307-3.84.724-3.84 1.159" opacity=".15"/><path fill="#f8f8f8" d="M80.876 42.519A18.025 18.025 0 0 0 62.85 24.493h-43.7a18.027 18.027 0 1 0 13.436 30.043h16.828a18.026 18.026 0 0 0 31.462-12.017"/><path fill="#fff" d="M19.15 27.224h43.7a18.03 18.03 0 0 1 17.975 16.66q.051-.676.051-1.365A18.025 18.025 0 0 0 62.85 24.493h-43.7A18.026 18.026 0 0 0 1.175 43.884a18.03 18.03 0 0 1 17.975-16.66"/><path stroke="#45413c" stroke-linecap="round" stroke-linejoin="round" d="M80.876 42.519A18.025 18.025 0 0 0 62.85 24.493h-43.7a18.027 18.027 0 1 0 13.436 30.043h16.828a18.026 18.026 0 0 0 31.462-12.017"/><path fill="#87898c" d="M26.8 40.88a1.093 1.093 0 0 0-1.093-1.092h-3.826v-3.824a1.093 1.093 0 0 0-1.092-1.093h-3.278a1.09 1.09 0 0 0-1.092 1.093v3.824H12.6a1.09 1.09 0 0 0-1.1 1.092v3.277a1.093 1.093 0 0 0 1.1 1.093h3.824v3.824a1.09 1.09 0 0 0 1.092 1.092h3.278a1.09 1.09 0 0 0 1.092-1.092V45.25h3.824a1.093 1.093 0 0 0 1.09-1.093z"/><path fill="#87898c" d="M16.419 37.6a1.09 1.09 0 0 1 1.092-1.092h3.278a1.09 1.09 0 0 1 1.092 1.092v-1.636a1.093 1.093 0 0 0-1.092-1.093h-3.278a1.09 1.09 0 0 0-1.092 1.093zM12.6 41.426h2.731a1.637 1.637 0 0 0 1.639-1.638H12.6a1.09 1.09 0 0 0-1.1 1.092v1.639a1.093 1.093 0 0 1 1.1-1.093M25.705 41.426h-2.731a1.64 1.64 0 0 1-1.639-1.638h4.37A1.09 1.09 0 0 1 26.8 40.88v1.639a1.093 1.093 0 0 0-1.095-1.093"/><path stroke="#45413c" stroke-linecap="round" stroke-linejoin="round" d="M26.8 40.88a1.093 1.093 0 0 0-1.093-1.092h-3.826v-3.824a1.093 1.093 0 0 0-1.092-1.093h-3.278a1.09 1.09 0 0 0-1.092 1.093v3.824H12.6a1.09 1.09 0 0 0-1.1 1.092v3.277a1.093 1.093 0 0 0 1.1 1.093h3.824v3.824a1.09 1.09 0 0 0 1.092 1.092h3.278a1.09 1.09 0 0 0 1.092-1.092V45.25h3.824a1.093 1.093 0 0 0 1.09-1.093z"/><path stroke="#45413c" stroke-linecap="round" stroke-linejoin="round" d="M8.225 42.519a10.925 10.925 0 1 0 21.85 0 10.925 10.925 0 0 0-21.85 0M62.85 39.787v5.463M65.581 42.519h-5.462"/><path fill="#87898c" stroke="#45413c" stroke-linecap="round" stroke-linejoin="round" d="M49.194 42.519a13.656 13.656 0 1 0 27.313 0 13.656 13.656 0 0 0-27.313 0"/><path fill="#e0e0e0" d="M65.281 32.589a3.825 3.825 0 0 1 0 5.408l-6.953 6.952a3.824 3.824 0 1 1-5.408-5.407l6.953-6.953a3.825 3.825 0 0 1 5.408 0"/><path fill="#dabff5" stroke="#45413c" stroke-linecap="round" stroke-linejoin="round" d="M53.439 42.246a2.185 2.185 0 1 0 4.37 0 2.185 2.185 0 0 0-4.37 0M60.392 35.293a2.185 2.185 0 1 0 4.37 0 2.185 2.185 0 0 0-4.37 0"/><path fill="#e0e0e0" d="M72.78 40.088a3.825 3.825 0 0 0-5.408 0l-6.953 6.953a3.825 3.825 0 1 0 5.408 5.407L72.78 45.5a3.823 3.823 0 0 0 0-5.412"/><path fill="#bf8df2" stroke="#45413c" stroke-linecap="round" stroke-linejoin="round" d="M60.938 49.745a2.185 2.185 0 1 0 4.37 0 2.185 2.185 0 0 0-4.37 0M67.891 42.792a2.185 2.185 0 1 0 4.37 0 2.185 2.185 0 0 0-4.37 0"/><path fill="#45413c" stroke="#45413c" stroke-linecap="round" stroke-linejoin="round" d="M38.678 45.981a.545.545 0 0 1-.048.771l-2.458 2.168a.547.547 0 0 1-.723-.819l2.458-2.168a.546.546 0 0 1 .771.048M45.507 45.981a.547.547 0 0 1-.049.771L43 48.92a.547.547 0 0 1-.723-.819l2.459-2.168a.547.547 0 0 1 .771.048"/><path fill="#e9e1fc" stroke="#45413c" stroke-linecap="round" stroke-linejoin="round" d="M31.714 27.77h18.573v3.278H31.714z"/></svg>