<svg xmlns="http://www.w3.org/2000/svg" width="100" height="100" viewBox="0 0 100 100"><desc>Wall Construction Streamline Illustration: https://streamlinehq.com</desc><path fill="#daedf7" stroke="#daedf7" d="M1.554 50a40 40 0 1 0 80 0 40 40 0 1 0-80 0Z"/><path fill="#f7e5c6" d="M4.722 65.624a40.014 40.014 0 0 0 73.664 0Z"/><path fill="none" stroke="#45413c" stroke-linecap="round" stroke-linejoin="round" d="M78.386 65.624H4.722"/><path fill="#ff8a14" d="M10.849 58.475h11.55v7.149h-11.55z"/><path fill="#eb6d00" d="M10.849 61.954h11.55v3.67h-11.55z"/><path fill="none" stroke="#45413c" stroke-linecap="round" stroke-linejoin="round" d="M10.849 58.475h11.55v7.149h-11.55z"/><path fill="#ff8a14" d="M10.849 44.557h11.55v6.959h-11.55z"/><path fill="#eb6d00" d="M10.849 48.037h11.55v3.479h-11.55z"/><path fill="none" stroke="#45413c" stroke-linecap="round" stroke-linejoin="round" d="M10.849 44.557h11.55v6.959h-11.55z"/><path fill="#ff8a14" d="M17.149 51.516h11.55v6.959h-11.55z"/><path fill="#eb6d00" d="M17.149 54.996h11.55v3.479h-11.55z"/><path fill="none" stroke="#45413c" stroke-linecap="round" stroke-linejoin="round" d="M17.149 51.516h11.55v6.959h-11.55z"/><path fill="#ff8a14" d="M5.599 51.516h11.55v6.959H5.599z"/><path fill="#eb6d00" d="M5.599 54.996h11.55v3.479H5.599z"/><path fill="none" stroke="#45413c" stroke-linecap="round" stroke-linejoin="round" d="M5.599 51.516h11.55v6.959H5.599z"/><path fill="#ff8a14" d="M17.149 37.598h11.55v6.959h-11.55z"/><path fill="#eb6d00" d="M17.149 41.078h11.55v3.479h-11.55z"/><path fill="none" stroke="#45413c" stroke-linecap="round" stroke-linejoin="round" d="M17.149 37.598h11.55v6.959h-11.55z"/><path fill="#ff8a14" d="M5.599 37.598h11.55v6.959H5.599z"/><path fill="#eb6d00" d="M5.599 41.078h11.55v3.479H5.599z"/><path fill="none" stroke="#45413c" stroke-linecap="round" stroke-linejoin="round" d="M5.599 37.598h11.55v6.959H5.599z"/><path fill="#ff8a14" d="M10.849 30.64h11.55v6.959h-11.55z"/><path fill="#eb6d00" d="M10.849 34.119h11.55v3.479h-11.55z"/><path fill="none" stroke="#45413c" stroke-linecap="round" stroke-linejoin="round" d="M10.849 30.64h11.55v6.959h-11.55z"/><path fill="#ff8a14" d="M17.149 23.681h11.55v6.959h-11.55z"/><path fill="#eb6d00" d="M17.149 27.16h11.55v3.479h-11.55z"/><path fill="none" stroke="#45413c" stroke-linecap="round" stroke-linejoin="round" d="M17.149 23.681h11.55v6.959h-11.55z"/><path fill="#eb6d00" d="M4.722 65.624h6.127v-7.149H2.462a40.5 40.5 0 0 0 2.26 7.149"/><path fill="#ff8a14" d="M2.462 58.475q.382 1.77.917 3.479h7.47v-3.479Z"/><path fill="none" stroke="#45413c" stroke-linecap="round" stroke-linejoin="round" d="M4.722 65.624h6.127v-7.149H2.462"/><path fill="#eb6d00" d="M2.462 58.475H5.6v-6.959H1.592a40 40 0 0 0 .87 6.959"/><path fill="#ff8a14" d="M1.592 51.516q.066 1.761.281 3.48H5.6v-3.48Z"/><path fill="none" stroke="#45413c" stroke-linecap="round" stroke-linejoin="round" d="M2.462 58.475h3.137v-6.959H1.592"/><path fill="#eb6d00" d="M1.592 51.516h9.257v-6.959H1.932A40 40 0 0 0 1.554 50c0 .509.019 1.012.038 1.516"/><path fill="#ff8a14" d="M1.932 44.557a42 42 0 0 0-.308 3.48h9.225v-3.48Z"/><path fill="none" stroke="#45413c" stroke-linecap="round" stroke-linejoin="round" d="M1.592 51.516h9.257v-6.959H1.932"/><path fill="#eb6d00" d="M5.6 44.557V37.6H3.524a40 40 0 0 0-1.592 6.959Z"/><path fill="#ff8a14" d="M3.524 37.6q-.556 1.709-.959 3.48H5.6V37.6Z"/><path fill="none" stroke="#45413c" stroke-linecap="round" stroke-linejoin="round" d="M1.932 44.557h3.667v-6.959H3.524"/><path fill="#eb6d00" d="M10.849 37.6v-6.96h-4.3a39.7 39.7 0 0 0-3.025 6.96Z"/><path fill="#ff8a14" d="M6.551 30.64q-.937 1.691-1.709 3.479h6.007V30.64Z"/><path fill="none" stroke="#45413c" stroke-linecap="round" stroke-linejoin="round" d="M3.524 37.598h7.325V30.64H6.551"/><path fill="#eb6d00" d="M6.551 30.64h10.6v-6.959h-5.7a40 40 0 0 0-4.9 6.959"/><path fill="#ff8a14" d="M11.446 23.681a40 40 0 0 0-2.719 3.479h8.422v-3.479Z"/><path fill="none" stroke="#45413c" stroke-linecap="round" stroke-linejoin="round" d="M6.551 30.64h10.598v-6.959h-5.703"/><path fill="#45413c" d="M23.22 85.309a12 1.5 0 1 0 24 0 12 1.5 0 1 0-24 0" opacity=".15"/><path fill="#ff8a14" d="M32.241 79.463h14.276v5.191H32.241z"/><path fill="#eb6d00" d="M32.241 82.059h14.276v2.596H32.241z"/><path fill="none" stroke="#45413c" stroke-linecap="round" stroke-linejoin="round" d="M32.241 79.463h14.276v5.191H32.241z"/><path fill="#ff8a14" d="m22.435 80.22 12.194-7.423 2.7 4.434-12.195 7.423z"/><path fill="#eb6d00" d="m23.785 82.438 12.194-7.423 1.35 2.217-12.194 7.423z"/><path fill="none" stroke="#45413c" stroke-linecap="round" stroke-linejoin="round" d="m22.435 80.22 12.194-7.423 2.7 4.434-12.195 7.423z"/><path fill="#45413c" d="M45.651 77.286a14 1.5 0 1 0 28 0 14 1.5 0 1 0-28 0" opacity=".15"/><path fill="none" stroke="#daedf7" d="M1.554 50a40 40 0 1 0 80 0 40 40 0 1 0-80 0Z"/><path fill="#b89558" d="M74.674 37.034a4.631 4.631 0 1 0-9.261 0 4.63 4.63 0 0 0-4.631 4.63c0 1.292-3.85 3.278-3 4.118.626.616 5.806.238 6.7.42l10.187.093c1.174 0 6.354.359 7.17-.361.962-.848-2.539-2.885-2.539-4.27a4.63 4.63 0 0 0-4.626-4.63"/><path fill="#debb7e" d="M80.8 46.262c-.721-.748-1.495-1.543-1.495-2.194a4.63 4.63 0 0 0-4.631-4.631 4.631 4.631 0 1 0-9.261 0 4.63 4.63 0 0 0-4.63 4.631c0 .59-.806 1.326-1.6 2.032a2.8 2.8 0 0 1-1.4-.318c-.854-.84 3-2.826 3-4.118a4.63 4.63 0 0 1 4.631-4.63 4.631 4.631 0 1 1 9.261 0 4.63 4.63 0 0 1 4.631 4.63c0 1.385 3.5 3.422 2.539 4.27a2.2 2.2 0 0 1-1.045.328"/><path fill="none" stroke="#45413c" stroke-linecap="round" stroke-linejoin="round" d="M74.674 37.034a4.631 4.631 0 1 0-9.261 0 4.63 4.63 0 0 0-4.631 4.63c0 1.292-3.85 3.278-3 4.118.626.616 5.806.238 6.7.42l10.187.093c1.174 0 6.354.359 7.17-.361.962-.848-2.539-2.885-2.539-4.27a4.63 4.63 0 0 0-4.626-4.63"/><path fill="#ff8a14" d="m58.654 31.79 8.976-6.359 2.313 3.264-8.976 6.359z"/><path fill="#eb6d00" d="m59.81 33.422 8.976-6.36 1.156 1.633-8.976 6.358z"/><path fill="none" stroke="#45413c" stroke-linecap="round" stroke-linejoin="round" d="m58.654 31.79 8.976-6.359 2.313 3.264-8.976 6.359z"/><path fill="#b89558" d="M65.041 35.013a7.6 7.6 0 1 0-15.2 0 7.6 7.6 0 0 0-7.6 7.6c0 2.12-6.318 5.378-4.918 6.756 1.028 1.012 9.528.391 11 .689l16.716.153c1.926 0 10.425.589 11.764-.591 1.58-1.393-4.166-4.735-4.166-7.007a7.6 7.6 0 0 0-7.596-7.6"/><path fill="#debb7e" d="M75.092 50.156c-1.182-1.228-2.453-2.533-2.453-3.6a7.6 7.6 0 0 0-7.6-7.6 7.6 7.6 0 0 0-15.2 0 7.6 7.6 0 0 0-7.6 7.6c0 .969-1.321 2.176-2.622 3.334a4.6 4.6 0 0 1-2.3-.522c-1.4-1.378 4.918-4.636 4.918-6.756a7.6 7.6 0 0 1 7.6-7.6 7.6 7.6 0 1 1 15.2 0 7.6 7.6 0 0 1 7.6 7.6c0 2.272 5.746 5.614 4.166 7.007a3.64 3.64 0 0 1-1.709.537"/><path fill="none" stroke="#45413c" stroke-linecap="round" stroke-linejoin="round" d="M65.041 35.013a7.6 7.6 0 1 0-15.2 0 7.6 7.6 0 0 0-7.6 7.6c0 2.12-6.318 5.378-4.918 6.756 1.028 1.012 9.528.391 11 .689l16.716.153c1.926 0 10.425.589 11.764-.591 1.58-1.393-4.166-4.735-4.166-7.007a7.6 7.6 0 0 0-7.596-7.6"/><path fill="#ff8a14" d="m42.816 34.776 2.815-2.842 7.815 7.74-2.815 2.843z"/><path fill="#eb6d00" d="m42.815 34.776 1.408-1.42 7.815 7.74-1.407 1.421z"/><path fill="none" stroke="#45413c" stroke-linecap="round" stroke-linejoin="round" d="m42.816 34.776 2.815-2.842 7.815 7.74-2.815 2.843z"/><path fill="#b89558" stroke="#45413c" stroke-linecap="round" stroke-linejoin="round" d="M60.786 39.942a2.87 2.87 0 0 0-3.674-1.728 2.871 2.871 0 1 0-5.4 1.947 2.87 2.87 0 0 0-1.727 3.674"/><path fill="#ff6242" d="M75.58 61.915 47.335 68.64 36.694 49.809h44.178z"/><path fill="#e04122" d="m79.589 52.746 1.283-2.936H36.694l1.655 2.936z"/><path fill="none" stroke="#45413c" stroke-linecap="round" stroke-linejoin="round" d="M75.58 61.915 47.335 68.64 36.694 49.809h44.178z"/><path fill="#ff6242" d="M83.651 47.792a2.02 2.02 0 0 1-2.018 2.017H35.9a2.018 2.018 0 1 1 0-4.035h45.733a2.02 2.02 0 0 1 2.018 2.018"/><path fill="#ff6242" d="M33.884 47.792a2.02 2.02 0 0 1 2.016-2.018h45.733a2.018 2.018 0 0 1 1.743 3.035 2.01 2.01 0 0 0-1.743-1.017H35.9a2.01 2.01 0 0 0-1.743 1.017 2 2 0 0 1-.273-1.017"/><path fill="none" stroke="#45413c" stroke-linecap="round" stroke-linejoin="round" d="M83.651 47.792a2.02 2.02 0 0 1-2.018 2.017H35.9a2.018 2.018 0 1 1 0-4.035h45.733a2.02 2.02 0 0 1 2.018 2.018"/><path fill="#87898c" d="M38.776 68.64a8.559 8.559 0 1 0 17.118 0 8.559 8.559 0 1 0-17.118 0"/><path fill="#daedf7" d="M41.955 68.64a5.38 5.38 0 1 0 10.76 0 5.38 5.38 0 1 0-10.76 0"/><path fill="none" stroke="#45413c" stroke-linecap="round" stroke-linejoin="round" d="M41.955 68.64a5.38 5.38 0 1 0 10.76 0 5.38 5.38 0 1 0-10.76 0"/><path fill="#87898c" d="M55.821 69.765a8.552 8.552 0 0 0-16.973 0 9 9 0 0 1-.073-1.125 8.56 8.56 0 0 1 17.119 0 9 9 0 0 1-.073 1.125"/><path fill="none" stroke="#45413c" stroke-linecap="round" stroke-linejoin="round" d="M38.776 68.64a8.559 8.559 0 1 0 17.118 0 8.559 8.559 0 1 0-17.118 0"/><path fill="#adc4d9" stroke="#45413c" d="M87.81 45.869h-.124a1.25 1.25 0 0 0-1.119.691L80.1 59.49l-33.06 7.934a1.25 1.25 0 0 0 .291 2.466 1.3 1.3 0 0 0 .292-.034l12.053-2.893 5.5 9.751a1.2 1.2 0 0 0 .276.335 4.51 4.51 0 0 0 2.953 1.1 4.6 4.6 0 0 0 1.02-.115 4.52 4.52 0 0 0 3.165-2.6 1 1 0 0 0 .05-.13l3.936-12.4 4.675-1.122a1.25 1.25 0 0 0 .827-.656L88.6 48.09a1.25 1.25 0 0 0-.788-2.221Zm-17.529 28.61a2.062 2.062 0 0 1-3.047.793l-5.027-8.916 11.53-2.767Z"/><path fill="#87898c" d="M87.686 46.447a2.02 2.02 0 0 1 2.014-2.018h6.726a2.018 2.018 0 0 1 0 4.035H89.7a2.017 2.017 0 0 1-2.014-2.017"/><path fill="#87898c" d="M87.686 46.447a2.02 2.02 0 0 1 2.014-2.018h6.726a2.018 2.018 0 0 1 1.742 3.035 2.01 2.01 0 0 0-1.742-1.017H89.7a2.01 2.01 0 0 0-1.742 1.017 2 2 0 0 1-.272-1.017"/><path fill="none" stroke="#45413c" stroke-linecap="round" stroke-linejoin="round" d="M87.686 46.447a2.02 2.02 0 0 1 2.014-2.018h6.726a2.018 2.018 0 0 1 0 4.035H89.7a2.017 2.017 0 0 1-2.014-2.017"/></svg>