<svg xmlns="http://www.w3.org/2000/svg" width="100" height="100" viewBox="0 0 100 100"><desc>Hairstyle Barber 15 Streamline Illustration: https://streamlinehq.com</desc><path fill="#b8ecff" d="M90 59.646a40 40 0 1 0-76.436 16.5h72.872A39.84 39.84 0 0 0 90 59.646"/><path fill="#f2dfc2" d="M13.564 76.146a40 40 0 0 0 72.872 0Z"/><path fill="#8ca4b8" d="M23.6 65.854v10.292h7.144l.231-1.292a2.129 2.129 0 0 1 4.25 0l.236 1.292 7.139-.016V65.854Z"/><path fill="#627b8c" d="M23.6 65.854h19v3.5h-19z"/><path fill="#00dba8" d="M48.6 50.354a15.5 15.5 0 0 0-16.249-15.482c-8.337.392-14.751 7.574-14.751 15.92v1.062a1 1 0 0 0 1 1h5v13h19v-13h5a1 1 0 0 0 1-1Z"/><path fill="#00dba8" d="M32.35 34.872c-8.336.392-14.75 7.574-14.75 15.92v1.062a.98.98 0 0 0 .193.559A15.69 15.69 0 0 1 32.35 38.872a15.49 15.49 0 0 1 16.1 13.469.97.97 0 0 0 .145-.487v-1.5A15.5 15.5 0 0 0 32.35 34.872"/><path fill="none" stroke="#45413c" stroke-linecap="round" stroke-linejoin="round" d="M48.6 50.354a15.5 15.5 0 0 0-16.249-15.482c-8.337.392-14.751 7.574-14.751 15.92v1.062a1 1 0 0 0 1 1h5v13h19v-13h5a1 1 0 0 0 1-1ZM23.6 48.854v4"/><path fill="#ffdb94" d="M29.6 35.354a3.5 3.5 0 0 0 7 0v-3.5h-7Z"/><path fill="#ffbe3d" d="M29.6 35.34a12.17 12.17 0 0 0 7 0v-3.486h-7Z"/><path fill="none" stroke="#45413c" stroke-linecap="round" stroke-linejoin="round" d="M29.6 35.354v-3.5h7v3.5a3.5 3.5 0 0 1-7 0"/><path fill="#ffdb94" stroke="#45413c" stroke-linecap="round" stroke-linejoin="round" d="M47.6 52.854a2 2 0 0 0 2 2h10.5a2.5 2.5 0 1 1 0 5H49.6a7 7 0 0 1-7-7Z"/><path fill="none" stroke="#45413c" stroke-linecap="round" stroke-linejoin="round" d="M36.6 54.515v21.636"/><path fill="#adc4d9" stroke="#45413c" stroke-linecap="round" stroke-linejoin="round" d="m38.314 52.832-1.4 1.425a2 2 0 0 1-2.829.022l-4.988-4.911 4.21-4.275L38.292 50a2 2 0 0 1 .022 2.832"/><path fill="#87898c" stroke="#45413c" stroke-linecap="round" stroke-linejoin="round" d="m36.911 54.257 1.4-1.425A2 2 0 0 0 38.292 50l-1.644-1.619a6.84 6.84 0 0 0-4.209 4.276l1.643 1.618a2 2 0 0 0 2.829-.018"/><path fill="none" stroke="#45413c" stroke-linecap="round" stroke-linejoin="round" d="M29.094 49.368 26.6 46.913M33.304 45.093l-2.495-2.456"/><path fill="#daedf7" stroke="#45413c" stroke-linecap="round" stroke-linejoin="round" d="m27.67 47.965 4.209-4.275 1.425 1.403-4.21 4.275z"/><path fill="none" stroke="#45413c" stroke-linecap="round" stroke-linejoin="round" d="m28.003 45.487 1.069 1.053M29.406 44.062l1.069 1.053"/><path fill="#ffdb94" stroke="#45413c" stroke-linecap="round" stroke-linejoin="round" d="M34.6 52.854v-.5a2.5 2.5 0 0 0-5 0v.5a3 3 0 0 1-6 0h-5a8 8 0 0 0 16 0"/><path fill="none" stroke="#45413c" stroke-linecap="round" stroke-linejoin="round" d="M23.6 48.854v4M42.6 48.854v4"/><path fill="#ffdb94" stroke="#45413c" stroke-linecap="round" stroke-linejoin="round" d="M43.1 21.354v-2.5a10 10 0 0 0-20 0v2.5a2 2 0 0 0 0 4c.042 0 .081-.01.123-.012a9.987 9.987 0 0 0 19.755 0c.041 0 .08.012.122.012a2 2 0 1 0 0-4"/><path fill="none" stroke="#45413c" stroke-linecap="round" stroke-linejoin="round" d="M38.6 22.354a1.629 1.629 0 0 0-3.008 0M30.609 22.354a1.63 1.63 0 0 0-3.009 0"/><path fill="#ffbe3d" d="M26.1 26.021a1.25 1.111 0 1 0 2.5 0 1.25 1.111 0 1 0-2.5 0M37.6 26.021a1.25 1.111 0 1 0 2.5 0 1.25 1.111 0 1 0-2.5 0"/><path fill="none" stroke="#45413c" stroke-linecap="round" stroke-linejoin="round" d="M30.1 28.354a4.35 4.35 0 0 0 6 0"/><path fill="#614b44" d="M41.93 11.092a1.9 1.9 0 0 0 .17-.738c0-3.866-2.891-7-8-7-1 0-5.963.853-5-3-6 2.5-5.5 10-5.5 10a2.15 2.15 0 0 0 .323 1.034c-1.233 1.136-3.485 4.141-.823 9.466a11.04 11.04 0 0 0 3-7l-.285-.569a12.8 12.8 0 0 0 7.035 2.069 12.9 12.9 0 0 0 6.756-1.889c.064 3.953 3.494 7.389 3.494 7.389 2.947-5.894-.123-8.943-1.17-9.762"/><path fill="#947063" d="M22.623 19.79c-.006-.145-.023-.289-.023-.436a10.26 10.26 0 0 1 10.5-10 10.26 10.26 0 0 1 10.5 10c0 .15-.017.3-.023.445 2.1-5.2-.665-7.938-1.647-8.707a1.9 1.9 0 0 0 .17-.738c0-3.866-2.891-7-8-7-1 0-5.963.853-5-3-6 2.5-5.5 10-5.5 10a2.15 2.15 0 0 0 .323 1.034c-1.148 1.058-3.176 3.739-1.3 8.402"/><path fill="none" stroke="#45413c" stroke-linecap="round" stroke-linejoin="round" d="M41.93 11.092a1.9 1.9 0 0 0 .17-.738c0-3.866-2.891-7-8-7-1 0-5.963.853-5-3-6 2.5-5.5 10-5.5 10a2.15 2.15 0 0 0 .323 1.034c-1.233 1.136-3.485 4.141-.823 9.466a11.04 11.04 0 0 0 3-7l-.285-.569a12.8 12.8 0 0 0 7.035 2.069 12.9 12.9 0 0 0 6.756-1.889c.064 3.953 3.494 7.389 3.494 7.389 2.947-5.894-.123-8.943-1.17-9.762M23.6 65.854v10.292h7.144l.231-1.292a2.129 2.129 0 0 1 4.25 0l.236 1.292 7.139-.016V65.854Z"/><path fill="#ff6242" d="M39.445 76.138c2.777-9.941 8.78-16.5 20.555-16.5s17.778 6.559 20.555 16.5Z"/><path fill="#ff6242" d="M39.445 76.138c2.776-9.941 8.78-16.5 20.555-16.5s17.779 6.559 20.555 16.5h-1.278c-3.189-8.8-9.059-12.5-19.277-12.5s-16.088 3.7-19.277 12.5Z"/><path fill="none" stroke="#45413c" stroke-linecap="round" stroke-linejoin="round" d="M39.445 76.138c2.777-9.941 8.78-16.5 20.555-16.5s17.778 6.559 20.555 16.5"/><path fill="#bf8256" d="M56.5 60.138a3.5 3.5 0 1 0 7 0v-3.5h-7Z"/><path fill="#bf8256" d="M56.5 60.124a12.17 12.17 0 0 0 7 0v-3.486h-7Z"/><path fill="none" stroke="#45413c" stroke-linecap="round" stroke-linejoin="round" d="M56.5 60.138v-3.5h7v3.5a3.5 3.5 0 1 1-7 0"/><path fill="#bf8256" stroke="#45413c" stroke-linecap="round" stroke-linejoin="round" d="M70 46.138v-2.5a10 10 0 0 0-20 0v2.5a2 2 0 0 0 0 4c.042 0 .081-.01.123-.012a9.986 9.986 0 0 0 19.754 0c.042 0 .081.012.123.012a2 2 0 0 0 0-4"/><path fill="none" stroke="#45413c" stroke-linecap="round" stroke-linejoin="round" d="M65.5 47.138a1.629 1.629 0 0 0-3.008 0M57.508 47.138a1.629 1.629 0 0 0-3.008 0"/><path fill="#bf8256" d="M53 50.388a1.25 1.25 0 1 0 2.5 0 1.25 1.25 0 1 0-2.5 0M64.5 50.388a1.25 1.25 0 1 0 2.5 0 1.25 1.25 0 1 0-2.5 0"/><path fill="#947063" stroke="#45413c" stroke-linecap="round" stroke-linejoin="round" d="M61.023 33.69a10 10 0 0 0-2.046 0A10 10 0 0 0 50 43.638v2.5a1.725 1.725 0 0 1 1.6 1.719 9.1 9.1 0 0 0 .212-4.065c1.055.351 2.788-1.151 2.788-1.151v-2.4a24 24 0 0 0 5.4 1.2 24 24 0 0 0 5.4-1.2v2.4s1.733 1.5 2.787 1.151a9.1 9.1 0 0 0 .213 4.065 1.725 1.725 0 0 1 1.6-1.722v-2.5a10 10 0 0 0-8.977-9.945"/><path fill="#614b44" d="M73.89 32.2a1.48 1.48 0 0 0-.288-1.568 1.5 1.5 0 0 0-.1-2.99 1.5 1.5 0 0 0-.735.2 1.5 1.5 0 0 0-1.265-.7 1.5 1.5 0 0 0-2.765-.8 1.5 1.5 0 0 0-.735-.2c-.032 0-.063.008-.095.01a1.494 1.494 0 1 0-2.816-1c-.03 0-.059-.009-.089-.009a1.5 1.5 0 0 0-.735.2 1.5 1.5 0 0 0-1.265-.7 1.494 1.494 0 0 0-2.648-.954 1.37 1.37 0 0 0-.7 0 1.494 1.494 0 0 0-2.654.949 1.5 1.5 0 0 0-1.265.7 1.5 1.5 0 0 0-.735-.2c-.03 0-.059.007-.089.009a1.495 1.495 0 1 0-2.816 1c-.032 0-.063-.01-.095-.01a1.5 1.5 0 0 0-.735.2 1.5 1.5 0 0 0-2.765.8 1.5 1.5 0 0 0-1.265.7 1.5 1.5 0 0 0-.735-.2 1.5 1.5 0 0 0-.1 2.99 1.48 1.48 0 0 0-.29 1.573 1.5 1.5 0 1 0 1.223 2.689 9.57 9.57 0 0 1 3.189 5.588c.02.106 4.078-.235 4.078-.235s.533.18 1.29.4a17.7 17.7 0 0 0 4.11.8 17.7 17.7 0 0 0 4.11-.8c.757-.22 1.29-.4 1.29-.4s4.058.341 4.078.235a9.57 9.57 0 0 1 3.189-5.588A1.5 1.5 0 1 0 73.89 32.2"/><path fill="#947063" d="M73.89 32.2a1.48 1.48 0 0 0-.288-1.568 1.5 1.5 0 0 0-.1-2.99 1.5 1.5 0 0 0-.735.2 1.5 1.5 0 0 0-1.265-.7 1.5 1.5 0 0 0-2.765-.8 1.5 1.5 0 0 0-.735-.2c-.032 0-.063.008-.095.01a1.494 1.494 0 1 0-2.816-1c-.03 0-.059-.009-.089-.009a1.5 1.5 0 0 0-.735.2 1.5 1.5 0 0 0-1.265-.7 1.494 1.494 0 0 0-2.648-.954 1.37 1.37 0 0 0-.7 0 1.494 1.494 0 0 0-2.654.949 1.5 1.5 0 0 0-1.265.7 1.5 1.5 0 0 0-.735-.2c-.03 0-.059.007-.089.009a1.495 1.495 0 1 0-2.816 1c-.032 0-.063-.01-.095-.01a1.5 1.5 0 0 0-.735.2 1.5 1.5 0 0 0-2.765.8 1.5 1.5 0 0 0-1.265.7 1.5 1.5 0 0 0-.735-.2 1.5 1.5 0 0 0-.1 2.99 1.48 1.48 0 0 0-.29 1.573 1.5 1.5 0 1 0 1.223 2.689c.041.032.073.07.114.1a1 1 0 0 1 .181-.082 1.32 1.32 0 0 1 .257-1.4 1.333 1.333 0 1 1 .745-2.485 1.33 1.33 0 0 1 1.127-.623 1.334 1.334 0 0 1 2.462-.713 1.3 1.3 0 0 1 .656-.178c.028 0 .056.007.083.009a1.331 1.331 0 1 1 2.509-.892c.027 0 .053-.008.079-.008a1.3 1.3 0 0 1 .655.178 1.33 1.33 0 0 1 1.127-.623 1.331 1.331 0 0 1 2.359-.85 1.2 1.2 0 0 1 .626 0 1.331 1.331 0 0 1 2.359.85 1.33 1.33 0 0 1 1.128.628 1.3 1.3 0 0 1 .655-.178c.026 0 .052.007.079.008a1.332 1.332 0 1 1 2.509.892c.027 0 .055-.009.083-.009a1.3 1.3 0 0 1 .656.178 1.334 1.334 0 0 1 2.462.713 1.33 1.33 0 0 1 1.127.623 1.3 1.3 0 0 1 .654-.178 1.333 1.333 0 0 1 .091 2.663 1.32 1.32 0 0 1 .257 1.4 1 1 0 0 1 .181.082c.041-.033.073-.071.114-.1A1.5 1.5 0 1 0 73.89 32.2"/><path fill="none" stroke="#45413c" stroke-linecap="round" stroke-linejoin="round" d="M73.89 32.2a1.48 1.48 0 0 0-.288-1.568 1.5 1.5 0 0 0-.1-2.99 1.5 1.5 0 0 0-.735.2 1.5 1.5 0 0 0-1.265-.7 1.5 1.5 0 0 0-2.765-.8 1.5 1.5 0 0 0-.735-.2c-.032 0-.063.008-.095.01a1.494 1.494 0 1 0-2.816-1c-.03 0-.059-.009-.089-.009a1.5 1.5 0 0 0-.735.2 1.5 1.5 0 0 0-1.265-.7 1.494 1.494 0 0 0-2.648-.954 1.37 1.37 0 0 0-.7 0 1.494 1.494 0 0 0-2.654.949 1.5 1.5 0 0 0-1.265.7 1.5 1.5 0 0 0-.735-.2c-.03 0-.059.007-.089.009a1.495 1.495 0 1 0-2.816 1c-.032 0-.063-.01-.095-.01a1.5 1.5 0 0 0-.735.2 1.5 1.5 0 0 0-2.765.8 1.5 1.5 0 0 0-1.265.7 1.5 1.5 0 0 0-.735-.2 1.5 1.5 0 0 0-.1 2.99 1.48 1.48 0 0 0-.29 1.573 1.5 1.5 0 1 0 1.223 2.689 9.57 9.57 0 0 1 3.189 5.588c.02.106 4.078-.235 4.078-.235s.533.18 1.29.4a17.7 17.7 0 0 0 4.11.8 17.7 17.7 0 0 0 4.11-.8c.757-.22 1.29-.4 1.29-.4s4.058.341 4.078.235a9.57 9.57 0 0 1 3.189-5.588A1.5 1.5 0 1 0 73.89 32.2"/><path fill="#614b44" stroke="#45413c" stroke-linecap="round" stroke-linejoin="round" d="M70.963 57.813 69.947 53.3c.458-1.793.365-3.163-.08-3.163h-.439a2.015 2.015 0 0 0-1.914 1.428c-.361 1.152-.86 1.963-1.514 2.072-2.034.339-3.5-2-6-2s-3.966 2.339-6 2c-.654-.109-1.153-.92-1.514-2.072a2.015 2.015 0 0 0-1.914-1.428h-.439c-.445 0-.538 1.37-.08 3.163l-1.016 4.512a1.5 1.5 0 0 0 1.134 1.792 1.48 1.48 0 0 0 .919-.088l-.26 1.269a1.494 1.494 0 0 0 2.377 1.488 1.491 1.491 0 0 0 2.88.457l-.079 1.1a1.5 1.5 0 0 0 2.484 1.237v.324a1.5 1.5 0 0 0 3 0v-.342a1.5 1.5 0 0 0 2.5-1.219l-.079-1.1a1.491 1.491 0 0 0 2.88-.457 1.494 1.494 0 0 0 2.377-1.488l-.26-1.269a1.48 1.48 0 0 0 .919.088 1.5 1.5 0 0 0 1.134-1.791"/><path fill="#bf8256" stroke="#45413c" stroke-linecap="round" stroke-linejoin="round" d="M60 57.194c-1.5 0-2.5 1-3 0-.806-1.613 1-3.5 3-3.5s3.806 1.887 3 3.5c-.5 1-1.5 0-3 0"/><path fill="#614b44" stroke="#45413c" stroke-linecap="round" stroke-linejoin="round" d="M60 55.138c3.325 0 6.65 5.866 11.689.452a.3.3 0 0 0-.324-.493C66.035 56.915 66.1 51.638 60 51.638s-6.035 5.277-11.365 3.462a.3.3 0 0 0-.324.493C53.35 61 56.675 55.138 60 55.138"/><path fill="none" stroke="#45413c" stroke-linecap="round" stroke-linejoin="round" d="M11 76.146h78M6.5 76.146H9M91 76.146h2.5"/></svg>