<svg xmlns="http://www.w3.org/2000/svg" width="100" height="100" viewBox="0 0 100 100"><desc>Digital Desk Clock Streamline Illustration: https://streamlinehq.com</desc><path fill="#daedf7" stroke="#daedf7" stroke-linecap="round" stroke-linejoin="round" d="M10 50a40 40 0 1 0 80 0 40 40 0 1 0-80 0"/><path fill="#45413c" d="M21.059 68.864a28.941 3.473 0 1 0 57.882 0 28.941 3.473 0 1 0-57.882 0" opacity=".15"/><path fill="#fff" d="M33.214 34.287h53.251v30.952H33.214z"/><path fill="#e0e0e0" d="M33.214 34.287h53.251v2.742H33.214z"/><path fill="#fff" d="M33.214 62.497h53.251v2.742H33.214z"/><path fill="none" stroke="#45413c" stroke-linecap="round" stroke-linejoin="round" d="M33.214 34.287h53.251v30.952H33.214z"/><path fill="#45413c" stroke="#45413c" stroke-linecap="round" stroke-linejoin="round" d="M39.003 39.924h32.414v19.68H39.003Z"/><path fill="none" stroke="#fff" stroke-linecap="round" stroke-linejoin="round" d="M42.475 52.079v-5.21h3.473v5.21M48.264 52.079v-5.21h2.315v5.21M50.579 52.079v-5.21h2.315v5.21M63.313 52.079v-5.21h2.315v5.21M65.628 52.079v-5.21h2.315v5.21M42.475 49.764h3.473M57.525 46.869h3.473v2.894h-3.473zM57.525 49.764v2.315M55.209 46.869v1.158M55.209 50.921v1.158"/><path fill="#f8f8f8" d="M86.465 34.287v4.037a18.174 18.174 0 0 1 0 22.879v4.037a20 20 0 0 0 6.946-15.476 20 20 0 0 0-6.946-15.477"/><path fill="#fff" d="M93.363 51.211q.048-.717.048-1.447a20 20 0 0 0-6.946-15.477v2.894a19.82 19.82 0 0 1 6.898 14.03"/><path fill="none" stroke="#45413c" stroke-linecap="round" stroke-linejoin="round" d="M86.465 34.287v4.037a18.174 18.174 0 0 1 0 22.879v4.037a20 20 0 0 0 6.946-15.476 20 20 0 0 0-6.946-15.477"/><path fill="#fff" stroke="#45413c" stroke-linecap="round" stroke-linejoin="round" d="M86.465 34.287a15.4 15.4 0 0 0-9.84-3.624h-53.25v3.624Z"/><path fill="#87898c" stroke="#45413c" stroke-linecap="round" stroke-linejoin="round" d="M86.465 65.24a15.4 15.4 0 0 1-9.84 3.624h-53.25V65.24Z"/><path fill="none" stroke="#45413c" stroke-linecap="round" stroke-linejoin="round" d="M74.31 59.603h8.682"/><path fill="#bdbec0" d="M33.214 34.287v4.037a18.174 18.174 0 0 1 0 22.879v4.037a20 20 0 0 0 6.946-15.476 20 20 0 0 0-6.946-15.477"/><path fill="#e0e0e0" d="M40.113 51.211q.046-.717.047-1.447a20 20 0 0 0-6.946-15.477v2.894a19.82 19.82 0 0 1 6.899 14.03"/><path fill="none" stroke="#45413c" stroke-linecap="round" stroke-linejoin="round" d="M33.214 34.287v4.037a18.174 18.174 0 0 1 0 22.879v4.037a20 20 0 0 0 6.946-15.476 20 20 0 0 0-6.946-15.477"/><path fill="#e0e0e0" d="M33.214 34.287a15.4 15.4 0 0 0-9.839-3.624c-9.271 0-16.786 8.551-16.786 19.1s7.515 19.1 16.786 19.1a15.4 15.4 0 0 0 9.839-3.624Z"/><path fill="#f8f8f8" d="M23.375 30.663c-9.271 0-16.786 8.551-16.786 19.1q0 .729.048 1.447c.65-9.874 7.9-17.654 16.738-17.654a15.4 15.4 0 0 1 9.839 3.624v-2.893a15.4 15.4 0 0 0-9.839-3.624"/><path fill="none" stroke="#45413c" stroke-linecap="round" stroke-linejoin="round" d="M33.214 34.287a15.4 15.4 0 0 0-9.839-3.624c-9.271 0-16.786 8.551-16.786 19.1s7.515 19.1 16.786 19.1a15.4 15.4 0 0 0 9.839-3.624Z"/></svg>