<svg xmlns="http://www.w3.org/2000/svg" width="100" height="100" fill="none" viewBox="0 0 100 100"><desc>Tree House Streamline Illustration: https://streamlinehq.com</desc><path fill="#b8ecff" d="M50 93.345c22.091 0 40-17.909 40-40s-17.909-40-40-40-40 17.909-40 40 17.909 40 40 40"/><path stroke="#daedf7" stroke-miterlimit="10" d="M50 93.345c22.091 0 40-17.909 40-40s-17.909-40-40-40-40 17.909-40 40 17.909 40 40 40Z"/><path fill="#46b000" d="M51.373 29.561c-1.664-.8-9.452.73-10.828 1.773-.215-2.221-3.324-.413-5.483-1.446-1.755-.839-3.274-2.274-4.94-1.583.273-2-1.146-2.576-3.061-3.491a4.752 4.752 0 0 0-5.761 7.261 3.72 3.72 0 0 0 1.98 6.541 3.261 3.261 0 0 0 5.793 2.984c.1.056.2.117.31.168a6.58 6.58 0 0 0 7.691-1.49 4.73 4.73 0 0 0 2.508 3c2.373 1.135 8.648-.654 9.783-3.027s4.381-9.551 2.008-10.69"/><path fill="#f7e5c6" stroke="#45413c" stroke-linecap="round" stroke-linejoin="round" d="m40.44 69.678-6.514-9.234h-3.8l9.952 14.263q.25-2.38.362-5.029"/><path fill="#f7e5c6" d="m62.144 89.061 9.133-15.724h-3.26l-6.489 11.231c.172 1.632.382 3.132.616 4.493"/><path fill="#f0d3a8" d="m69.302 76.738 1.975-3.401h-3.26l-1.965 3.401z"/><path stroke="#45413c" stroke-linecap="round" stroke-linejoin="round" d="m62.144 89.061 9.133-15.724h-3.26l-6.489 11.231c.172 1.632.382 3.132.616 4.493"/><path fill="#bf8256" d="M40.512 60.444v5.628c0 11.357-2.057 19.242-4.662 24.689a40 40 0 0 0 26.732.553 78 78 0 0 1-1.526-16.185V60.444z"/><path fill="#915e3a" d="M61.055 60.444H40.512v3.401h20.543z"/><path fill="#46b000" d="M78.35 37.607a4 4 0 0 0-.591.06 4.885 4.885 0 0 0-5.936-3.335 9.464 9.464 0 1 0-2.945 11.774A3.9 3.9 0 0 0 76.433 45a3.9 3.9 0 0 0 1.917.516 3.954 3.954 0 0 0 3.765-5.491 3.95 3.95 0 0 0-3.765-2.409z"/><path stroke="#45413c" stroke-linecap="round" stroke-linejoin="round" d="M78.35 37.607a4 4 0 0 0-.591.06 4.885 4.885 0 0 0-5.936-3.335 9.464 9.464 0 1 0-2.945 11.774A3.9 3.9 0 0 0 76.433 45a3.9 3.9 0 0 0 1.917.516 3.954 3.954 0 0 0 3.765-5.491 3.95 3.95 0 0 0-3.765-2.409z"/><path fill="#f7e5c6" stroke="#45413c" stroke-linecap="round" stroke-linejoin="round" d="M77.005 70.647H61.056v2.69h15.949a1.345 1.345 0 1 0 0-2.69"/><path fill="#f0d3a8" d="m36.325 63.845-2.399-3.401h-3.804l2.373 3.401z"/><path stroke="#45413c" stroke-linecap="round" stroke-linejoin="round" d="m40.44 69.678-6.514-9.234h-3.8l9.952 14.263q.25-2.38.362-5.029"/><path stroke="#45413c" stroke-linecap="round" stroke-linejoin="round" d="M62.582 91.314a78 78 0 0 1-1.526-16.185V60.444H40.512v5.628c0 11.357-2.057 19.242-4.662 24.689"/><path fill="#f7e5c6" stroke="#45413c" stroke-linecap="round" stroke-linejoin="round" d="M68.239 59.1a1.345 1.345 0 0 1-1.339 1.344H18.561a1.345 1.345 0 0 1 0-2.69H66.9a1.345 1.345 0 0 1 1.339 1.346M18.8 51.624a1.314 1.314 0 0 0 1.314 1.314h20.494V50.31H20.115a1.316 1.316 0 0 0-1.315 1.314"/><path fill="#f7e5c6" d="M23.048 52.938H20.42v4.815h2.628z"/><path fill="#f0d3a8" d="M23.048 52.938H20.42v2.193h2.628z"/><path stroke="#45413c" stroke-linecap="round" stroke-linejoin="round" d="M23.048 52.938H20.42v4.815h2.628z"/><path fill="#f7e5c6" d="M33.377 52.938h-2.628v4.815h2.628z"/><path fill="#f0d3a8" d="M33.377 52.938h-2.628v2.193h2.628z"/><path stroke="#45413c" stroke-linecap="round" stroke-linejoin="round" d="M33.377 52.938h-2.628v4.815h2.628z"/><path fill="#f7e5c6" d="M45.748 68.031a1.21 1.21 0 0 0 2.393-.361l-1.089-7.226H44.6z"/><path fill="#f7e5c6" stroke="#45413c" stroke-linecap="round" stroke-linejoin="round" d="M56.14 68.031a1.213 1.213 0 0 1-1.834.886 1.21 1.21 0 0 1-.56-1.247l1.089-7.226h2.449z"/><path stroke="#45413c" stroke-linecap="round" stroke-linejoin="round" d="M51.373 29.561c-1.664-.8-9.452.73-10.828 1.773-.215-2.221-3.324-.413-5.483-1.446-1.755-.839-3.274-2.274-4.94-1.583.273-2-1.146-2.576-3.061-3.491a4.752 4.752 0 0 0-5.761 7.261 3.72 3.72 0 0 0 1.98 6.541 3.261 3.261 0 0 0 5.793 2.984c.1.056.2.117.31.168a6.58 6.58 0 0 0 7.691-1.49 4.73 4.73 0 0 0 2.508 3c2.373 1.135 8.648-.654 9.783-3.027s4.381-9.551 2.008-10.69"/><path fill="#f0d3a8" d="M63.581 45.197 51.966 36.04l-11.354 8.952v12.761h22.969z"/><path fill="#debb7e" d="m51.966 36.04-11.354 8.952v2.578L51 39.377a1.586 1.586 0 0 1 1.927 0l10.651 8.4V45.2z"/><path stroke="#45413c" stroke-linecap="round" stroke-linejoin="round" d="M63.581 45.197 51.966 36.04l-11.354 8.952v12.761h22.969z"/><path fill="#ff6242" d="M53.493 33.07a2.52 2.52 0 0 0-3.053 0l-12.392 9.719a1.492 1.492 0 0 0-.192 2.235c.318.332.75.532 1.208.559.462.035.921-.102 1.288-.386l11.614-9.157L63.58 45.2c.367.284.826.421 1.288.386.459-.028.89-.227 1.208-.559a1.493 1.493 0 0 0-.191-2.235z"/><path stroke="#45413c" stroke-linecap="round" stroke-linejoin="round" d="M53.493 33.07a2.52 2.52 0 0 0-3.053 0l-12.392 9.719a1.492 1.492 0 0 0-.192 2.235c.318.332.75.532 1.208.559.462.035.921-.102 1.288-.386l11.614-9.157L63.58 45.2c.367.284.826.421 1.288.386.459-.028.89-.227 1.208-.559a1.493 1.493 0 0 0-.191-2.235z"/><path fill="#b89558" stroke="#45413c" stroke-linecap="round" stroke-linejoin="round" d="M49.726 57.759h-6.345V52.32a3.172 3.172 0 1 1 6.345 0z"/><path stroke="#45413c" stroke-linecap="round" stroke-linejoin="round" d="M47.428 53.395v-1.058"/><path fill="#00b8f0" stroke="#45413c" stroke-linecap="round" stroke-linejoin="round" d="M52.096 46.291a2.879 2.879 0 1 0 0-5.758 2.879 2.879 0 0 0 0 5.758"/><path fill="#00b8f0" d="M60.882 49.147h-7.636v4.755h7.636z"/><path fill="#4acfff" d="M53.246 49.147v4.755h.598l4.754-4.755z"/><path stroke="#45413c" stroke-linecap="round" stroke-linejoin="round" d="M49.217 43.412h5.758M52.096 40.533v5.758M60.882 49.147h-7.636v4.755h7.636z"/><path fill="#f0d3a8" d="m47.565 63.845-.513-3.401h-2.448l.513 3.401z"/><path stroke="#45413c" stroke-linecap="round" stroke-linejoin="round" d="M45.748 68.031a1.21 1.21 0 0 0 2.393-.361l-1.089-7.226H44.6z"/><path fill="#f0d3a8" d="m54.323 63.845.512-3.401h2.449l-.513 3.401z"/><path stroke="#45413c" stroke-linecap="round" stroke-linejoin="round" d="M56.14 68.031a1.213 1.213 0 0 1-1.834.886 1.21 1.21 0 0 1-.56-1.247l1.089-7.226h2.449z"/><path fill="#6dd627" d="M31.172 21.167a4.3 4.3 0 0 1 2.147.588 7.754 7.754 0 0 1 7.581-6.124q.483.003.964.067a8 8 0 0 1-.116-1.29 7.748 7.748 0 0 1 14.677-3.472 4.33 4.33 0 0 1 7.342 1.973 5.532 5.532 0 0 1 7.953 5.958 7.743 7.743 0 0 1 1.163 15.389 3.82 3.82 0 0 1-7.3.113h-28.8a5.54 5.54 0 0 1-5.443-4.52c-.059 0-.114.017-.173.017a4.35 4.35 0 1 1 0-8.7z"/><path fill="#9ceb60" d="M76.324 32.792a7.742 7.742 0 0 0-4.605-13.925 5.53 5.53 0 0 0-7.955-5.96 4.33 4.33 0 0 0-7.342-1.973 7.748 7.748 0 0 0-14.677 3.472q.005.65.116 1.29a8 8 0 0 0-.964-.067 7.754 7.754 0 0 0-7.578 6.124 4.3 4.3 0 0 0-2.147-.588 4.35 4.35 0 1 0-.116 8.7 3.768 3.768 0 0 1 5.6-3.944 6.764 6.764 0 0 1 6.612-5.343q.423.003.842.058a6.758 6.758 0 0 1 12.7-4.155 3.78 3.78 0 0 1 6.414 1.719 4.824 4.824 0 0 1 6.941 5.2 6.76 6.76 0 0 1 6.709 6.761c-.003.905-.19 1.8-.55 2.631"/><path stroke="#45413c" stroke-linecap="round" stroke-linejoin="round" d="M31.172 21.167a4.3 4.3 0 0 1 2.147.588 7.754 7.754 0 0 1 7.581-6.124q.483.003.964.067a8 8 0 0 1-.116-1.29 7.748 7.748 0 0 1 14.677-3.472 4.33 4.33 0 0 1 7.342 1.973 5.532 5.532 0 0 1 7.953 5.958 7.743 7.743 0 0 1 1.163 15.389 3.82 3.82 0 0 1-7.3.113h-28.8a5.54 5.54 0 0 1-5.443-4.52c-.059 0-.114.017-.173.017a4.35 4.35 0 1 1 0-8.7z"/><path stroke="#daedf7" stroke-miterlimit="10" d="M90 53.345a40 40 0 0 1-80 0"/><path stroke="#45413c" stroke-linecap="round" stroke-linejoin="round" d="M24.643 60.444v9.402"/><path fill="#87898c" d="M24.643 69.846a10.408 10.408 0 1 0 0 20.816 10.408 10.408 0 0 0 0-20.816m0 14.487a4.08 4.08 0 1 1-.002-8.16 4.08 4.08 0 0 1 .002 8.16"/><path stroke="#45413c" stroke-linecap="round" stroke-linejoin="round" d="M24.642 84.333a4.08 4.08 0 1 1 0-8.16 4.08 4.08 0 0 1 0 8.16"/><path fill="#87898c" d="M34.855 82.273a10.408 10.408 0 1 0-20.422.015 10.408 10.408 0 0 1 20.414-.017"/><path stroke="#45413c" stroke-linecap="round" stroke-linejoin="round" d="M24.642 69.846a10.408 10.408 0 1 0 0 20.816 10.408 10.408 0 0 0 0-20.816"/></svg>