<svg xmlns="http://www.w3.org/2000/svg" width="100" height="100" fill="none" viewBox="0 0 100 100"><path fill="#daedf7" stroke="#daedf7" d="M10 58.207a40 40 0 1 0 80 0 40 40 0 0 0-80 0Z"/><path fill="#daedf7" d="M80.773 62.085c0-6.954-.992-11.338-2.747-14.459a15.8 15.8 0 0 0-3.953 3.757c1.988 2.927 1.829 10.7 1.829 10.7zM64.268 36.842a64 64 0 0 1-1.242-.821c-3.913-2.66-4.84-8.093-4.326-11.4l-5.077-.375s-.916 5.284.57 9.613a12.9 12.9 0 0 0 5.337 7.057l1.962 1.164z"/><path fill="#45413c" d="M42.355 91.05c0 .46 1.22.902 3.39 1.228 2.172.325 5.116.508 8.186.508s6.015-.183 8.186-.508c2.17-.326 3.39-.768 3.39-1.228 0-.228-.3-.454-.881-.664-.582-.21-1.435-.402-2.51-.563a44 44 0 0 0-3.755-.377 72 72 0 0 0-4.43-.132c-1.52 0-3.025.045-4.43.132s-2.68.215-3.755.377c-1.075.16-1.928.352-2.51.563s-.881.436-.881.664" opacity=".15"/><path fill="#fff" d="M78.707 62.085C78.138 50.5 74.223 47.2 68.44 43.642c-2.766-1.7-4.895-2.869-7.4-4.571-2.914-1.98-4.172-5.5-4.413-8.533a3.44 3.44 0 0 0-3.276-3.115c.02-1.064.11-2.126.272-3.178l5.077.375c-.514 3.308.413 8.741 4.326 11.4 2.505 1.7 4.634 2.87 7.4 4.571 6.263 3.85 10.346 7.384 10.346 21.493z"/><path stroke="#45413c" stroke-linecap="round" stroke-linejoin="round" d="M64.268 36.842a64 64 0 0 1-1.242-.821c-3.913-2.66-4.84-8.093-4.326-11.4l-5.077-.375s-.916 5.284.57 9.613a12.9 12.9 0 0 0 5.337 7.057l1.962 1.164zM80.773 62.085c0-6.954-.992-11.338-2.747-14.459a15.8 15.8 0 0 0-3.953 3.757c1.988 2.927 1.829 10.7 1.829 10.7z"/><path fill="#ffdb94" stroke="#45413c" stroke-linecap="round" stroke-linejoin="round" d="m53.883 24.264.14-1.709a2.33 2.33 0 1 1 4.638.445l-.153 1.609zM76.115 63.6l-.033-1.513H80.7l.07 1.406a2.33 2.33 0 1 1-4.658.107z"/><path fill="#daedf7" d="M57.227 45.351c2.6-4.2 3.3-7.042 3.4-8.772a1.15 1.15 0 0 1 1.76-.9l15.9 9.821a1.15 1.15 0 0 1-.015 1.976c-1.5.862-3.727 2.765-6.322 6.968z"/><path fill="#fff" d="m77.18 48.219-16.726-10.33q.127-.645.166-1.3a1.153 1.153 0 0 1 1.761-.916L78.3 45.506a1.153 1.153 0 0 1-.031 1.985 10 10 0 0 0-1.089.728"/><path stroke="#45413c" stroke-linecap="round" stroke-linejoin="round" d="M57.227 45.351c2.6-4.2 3.3-7.042 3.4-8.772a1.15 1.15 0 0 1 1.76-.9l15.9 9.821a1.15 1.15 0 0 1-.015 1.976c-1.5.862-3.727 2.765-6.322 6.968z"/><path fill="#ffdb94" stroke="#45413c" stroke-linecap="round" stroke-linejoin="round" d="M75.139 38.033 70 35.453l-1.543 2.752a1 1 0 0 1-1.4.362l-.19-.117-.7 1.668a2.315 2.315 0 0 0 .915 2.872l2.572 1.588a2.314 2.314 0 0 0 2.978-.467l1.176-1.378-.152-.093a1 1 0 0 1-.347-1.34z"/><path fill="#ff6242" stroke="#45413c" stroke-linecap="round" stroke-linejoin="round" d="M66.085 47.477a13.7 13.7 0 0 0-8.848-2.127L49.905 57.5l15.138 8.1 6.9-11.18a13.73 13.73 0 0 0-5.858-6.943"/><path fill="#ffdb94" stroke="#45413c" stroke-linecap="round" stroke-linejoin="round" d="M70.646 25.553a1.64 1.64 0 0 1 2.078.026l.827-.673A7.988 7.988 0 0 1 83.629 37.3l-.827.672a1.63 1.63 0 0 1-2.61 1.906 7.988 7.988 0 0 1-9.866-12.135 1.647 1.647 0 0 1 .32-2.19"/><path fill="#ffbe3d" d="M77.481 36.771a.998.998 0 1 0 1.996 0 .998.998 0 0 0-1.996 0M72.022 30.056a.998.998 0 1 0 1.996 0 .998.998 0 0 0-1.996 0"/><path stroke="#45413c" stroke-linecap="round" stroke-linejoin="round" d="M79.935 32.954v2.315M78.777 34.111h2.315M75.762 27.854v2.315M74.604 29.012h2.316"/><path fill="#ff6242" stroke="#45413c" stroke-linecap="round" stroke-linejoin="round" d="M71.953 35.269a1.791 1.791 0 1 0 3.582 0 1.791 1.791 0 0 0-3.582 0"/><path fill="#ff6242" d="M80.934 20.733a6.95 6.95 0 0 1 3.789 2.377l2.854 3.511a6.95 6.95 0 0 1 1.552 4.131l.064 1.77a4.63 4.63 0 0 1-1.707 3.76l-.456.371-4.056 3.3a9.27 9.27 0 0 1-5.707 2.074l-.448.006a3.47 3.47 0 0 1-2.745-1.281.634.634 0 0 1 .483-1.033l3.234-.047a2.3 2.3 0 0 0 1.427-.518l4.351-3.537a1.152 1.152 0 0 0 .049-1.752 35.5 35.5 0 0 1-3.688-3.846 36.4 36.4 0 0 1-3.06-4.469 1.15 1.15 0 0 0-1.724-.309l-4.357 3.542a2.32 2.32 0 0 0-.8 1.291l-.706 3.157a.632.632 0 0 1-1.11.261 3.47 3.47 0 0 1-.7-2.949l.1-.437a9.27 9.27 0 0 1 3.2-5.163l4.056-3.3.477-.387a4.63 4.63 0 0 1 3.987-.913z"/><path fill="#ff6242" d="M75.305 21.258a4.63 4.63 0 0 1 3.988-.913l1.641.388a6.95 6.95 0 0 1 3.789 2.377l2.854 3.511a6.95 6.95 0 0 1 1.552 4.131l.064 1.77a4.63 4.63 0 0 1-1.707 3.76l-.456.371-1.415 1.147a4.63 4.63 0 0 0 1.706-3.76l-.063-1.77a6.95 6.95 0 0 0-1.552-4.131l-2.855-3.511a6.94 6.94 0 0 0-3.789-2.378l-1.64-.388a4.63 4.63 0 0 0-3.988.913l1.395-1.134z"/><path stroke="#45413c" stroke-linecap="round" stroke-linejoin="round" d="M80.934 20.733a6.95 6.95 0 0 1 3.789 2.377l2.854 3.511a6.95 6.95 0 0 1 1.552 4.131l.064 1.77a4.63 4.63 0 0 1-1.707 3.76l-.456.371-4.056 3.3a9.27 9.27 0 0 1-5.707 2.074l-.448.006a3.47 3.47 0 0 1-2.745-1.281.634.634 0 0 1 .483-1.033l3.234-.047a2.3 2.3 0 0 0 1.427-.518l4.351-3.537a1.152 1.152 0 0 0 .049-1.752 35.5 35.5 0 0 1-3.688-3.846 36.4 36.4 0 0 1-3.06-4.469 1.15 1.15 0 0 0-1.724-.309l-4.357 3.542a2.32 2.32 0 0 0-.8 1.291l-.706 3.157a.632.632 0 0 1-1.11.261 3.47 3.47 0 0 1-.7-2.949l.1-.437a9.27 9.27 0 0 1 3.2-5.163l4.056-3.3.477-.387a4.63 4.63 0 0 1 3.987-.913z"/><path fill="#fff" stroke="#45413c" stroke-linecap="round" stroke-linejoin="round" d="m79.037 25.293 2.096-1.704 5.09 6.262-2.095 1.704z"/><path fill="#ffdb94" stroke="#45413c" stroke-linecap="round" stroke-linejoin="round" d="m59.5 89.807.621.113a2 2 0 0 0 2.326-1.61l.678-3.727-4.555-.829-.679 3.727a2 2 0 0 0 1.609 2.326M46.641 84.106l.6-.194a2 2 0 0 0 1.289-2.518l-1.164-3.6-4.406 1.418 1.164 3.6a2 2 0 0 0 2.517 1.294"/><path fill="#daedf7" d="m49.905 57.5-4.779 4.249a13.66 13.66 0 0 0-4.4 12.454l.852 5.114a1.157 1.157 0 0 0 1.508.907l4.614-1.54a1.16 1.16 0 0 0 .747-1.416l-.955-3.343a4.63 4.63 0 0 1 2.382-5.413l2.991-1.5a1.16 1.16 0 0 1 1.035 0l3.585 1.793a1.16 1.16 0 0 1 .625.845l.525 3.155a15.6 15.6 0 0 1-.254 6.366l-1.166 4.666a1.157 1.157 0 0 0 1.123 1.438h5.692a1.16 1.16 0 0 0 1.13-.906l.727-3.272a27.1 27.1 0 0 0-.164-12.441l-.676-3.06z"/><path fill="#fff" d="M43.849 75.863a13.66 13.66 0 0 1 4.4-12.454l4.7-4.285-3.044-1.624-4.779 4.249a13.66 13.66 0 0 0-4.4 12.454l.852 5.114a1.157 1.157 0 0 0 1.508.907l1.41-.47z"/><path stroke="#45413c" stroke-linecap="round" stroke-linejoin="round" d="m49.905 57.5-4.779 4.249a13.66 13.66 0 0 0-4.4 12.454l.852 5.114a1.157 1.157 0 0 0 1.508.907l4.614-1.54a1.16 1.16 0 0 0 .747-1.416l-.955-3.343a4.63 4.63 0 0 1 2.382-5.413l2.991-1.5a1.16 1.16 0 0 1 1.035 0l3.585 1.793a1.16 1.16 0 0 1 .625.845l.525 3.155a15.6 15.6 0 0 1-.254 6.366l-1.166 4.666a1.157 1.157 0 0 0 1.123 1.438h5.692a1.16 1.16 0 0 0 1.13-.906l.727-3.272a27.1 27.1 0 0 0-.164-12.441l-.676-3.06z"/><path fill="#bf8256" stroke="#45413c" stroke-linecap="round" stroke-linejoin="round" d="M61.047 42.514a2.33 2.33 0 1 0-1.725-4.328l-3.383 1.434 1.169 4.5z"/><path fill="#daedf7" d="M40.539 52.066A12.7 12.7 0 0 1 42.96 51l13.667-4.392a1.16 1.16 0 0 0 .766-1.393l-1.467-5.643a1.157 1.157 0 0 0-1.432-.823L35.643 44.03l-9.015 3.251v20.837a1.16 1.16 0 0 0 1.158 1.158h5.848a1.16 1.16 0 0 0 1.156-1.1l.6-11.333a3.48 3.48 0 0 1 1.745-2.833z"/><path fill="#fff" d="m35.893 48.252 20.969-5.083-.936-3.6a1.16 1.16 0 0 0-1.432-.823L35.643 44.03l-9.015 3.251v3.86z"/><path stroke="#45413c" stroke-linecap="round" stroke-linejoin="round" d="M40.539 52.066A12.7 12.7 0 0 1 42.96 51l13.667-4.392a1.16 1.16 0 0 0 .766-1.393l-1.467-5.643a1.157 1.157 0 0 0-1.432-.823L35.643 44.03l-9.015 3.251v20.837a1.16 1.16 0 0 0 1.158 1.158h5.848a1.16 1.16 0 0 0 1.156-1.1l.6-11.333a3.48 3.48 0 0 1 1.745-2.833z"/><path fill="#bf8256" stroke="#45413c" stroke-linecap="round" stroke-linejoin="round" d="M30.417 75.064h-.631a2 2 0 0 1-2-2v-3.788h4.631v3.788a2 2 0 0 1-2 2"/><path fill="#daedf7" d="M37.636 31.056c-1.83-4.589-2.035-7.508-1.831-9.229a1.15 1.15 0 0 0-1.578-1.189L16.866 27.56a1.15 1.15 0 0 0-.327 1.949c1.332 1.108 3.191 3.368 5.021 7.956z"/><path fill="#fff" d="M35.743 23.149a10 10 0 0 1 .062-1.322 1.15 1.15 0 0 0-1.578-1.189L16.866 27.56a1.15 1.15 0 0 0-.327 1.949 10 10 0 0 1 .953.915z"/><path stroke="#45413c" stroke-linecap="round" stroke-linejoin="round" d="M37.636 31.056c-1.83-4.589-2.035-7.508-1.831-9.229a1.15 1.15 0 0 0-1.578-1.189L16.866 27.56a1.15 1.15 0 0 0-.327 1.949c1.332 1.108 3.191 3.368 5.021 7.956z"/><path fill="#bf8256" stroke="#45413c" stroke-linecap="round" stroke-linejoin="round" d="M28.34 27.025a2.316 2.316 0 0 0 1.4-2.671l-.407-1.765a1 1 0 0 1-1.322-.626l-.973-3.084-5.4 1.979 1.066 3.377a1 1 0 0 1-.584 1.229l-.361.144.92 1.561a2.32 2.32 0 0 0 2.852.976z"/><path fill="#00b8f0" stroke="#45413c" stroke-linecap="round" stroke-linejoin="round" d="M37.636 31.056a13.64 13.64 0 0 0-9.092.561 13.64 13.64 0 0 0-6.984 5.848l5.07 12.716 15-5.981a1.16 1.16 0 0 0 .647-1.5z"/><path fill="#bf8256" stroke="#45413c" stroke-linecap="round" stroke-linejoin="round" d="M31.539 12.191a1.64 1.64 0 0 0-1.709-1.183l-.285-1.027a7.99 7.99 0 0 0-15.4 4.267l.285 1.027a1.63 1.63 0 0 0 1.024 3.065 7.988 7.988 0 0 0 15.076-4.177 1.65 1.65 0 0 0 1.009-1.972"/><path fill="#bf8256" d="M17.658 16.798a.998.998 0 1 0 1.997 0 .998.998 0 0 0-1.997 0M25.997 14.486a.997.997 0 1 0 1.995 0 .997.997 0 0 0-1.995 0"/><path fill="#45413c" d="M18.23 13.876a.998.998 0 1 0 1.996 0 .998.998 0 0 0-1.996 0M24.003 12.276a.998.998 0 1 0 1.996 0 .998.998 0 0 0-1.996 0"/><path fill="#00b8f0" d="m21.479 2.046-4.361 1.208a6.95 6.95 0 0 0-3.658 2.469l-1.077 1.406a4.63 4.63 0 0 0-.787 4.053l.157.566 1.4 5.038a9.26 9.26 0 0 0 3.45 5l.362.265a3.47 3.47 0 0 0 2.98.546.634.634 0 0 0 .2-1.122l-2.609-1.912a2.32 2.32 0 0 1-.863-1.249l-1.5-5.4a1.15 1.15 0 0 1 .974-1.457 35.6 35.6 0 0 0 5.234-1 36.5 36.5 0 0 0 5.081-1.869 1.15 1.15 0 0 1 1.584.747l1.5 5.411a2.3 2.3 0 0 1-.1 1.515L28.2 19.239a.634.634 0 0 0 .753.856 3.47 3.47 0 0 0 2.274-2l.174-.414a9.26 9.26 0 0 0 .386-6.059l-1.4-5.038-.164-.592a4.63 4.63 0 0 0-2.721-3.054L25.945 2.3a6.95 6.95 0 0 0-4.466-.254"/><path fill="#4acfff" d="M27.507 2.936 25.945 2.3a6.95 6.95 0 0 0-4.466-.256l-4.361 1.21a6.95 6.95 0 0 0-3.658 2.469l-1.077 1.406a4.63 4.63 0 0 0-.787 4.053l.157.566.488 1.758a4.63 4.63 0 0 1 .786-4.053l1.078-1.406a6.94 6.94 0 0 1 3.658-2.469l4.36-1.208a6.95 6.95 0 0 1 4.466.257l1.562.633a4.63 4.63 0 0 1 2.722 3.054l-.481-1.732-.164-.592a4.63 4.63 0 0 0-2.721-3.054"/><path fill="#fff48c" stroke="#45413c" stroke-linecap="round" stroke-linejoin="round" d="m28.117 34.114 3.696-1.475c.87-.352 1.363-.426 1.871.832.43 1.063.166 1.399-.72 1.757l-2.627 1.061q.042.194.31 1.2a3.94 3.94 0 0 1 3.511-.205 3.74 3.74 0 0 1 2.201 2.166 4 4 0 0 1 0 3.107 3.86 3.86 0 0 1-2.233 2.203c-2.158.872-4.134.09-4.392-.547a1.7 1.7 0 0 1 .161-1.2 1.34 1.34 0 0 1 .67-.846 1.86 1.86 0 0 1 1.2.074 1.81 1.81 0 0 0 1.939-.748 1.175 1.175 0 0 0-.67-1.571 1.26 1.26 0 0 0-1.53.592c-.138.3-.379.54-.68.676-.34.118-.703.151-1.059.097a3.3 3.3 0 0 1-.882-.176.56.56 0 0 1-.314-.3c-.052-.129-1.28-4.91-1.294-4.974a1.46 1.46 0 0 1 .842-1.723"/><path stroke="#45413c" stroke-linecap="round" stroke-linejoin="round" d="m21.479 2.046-4.361 1.208a6.95 6.95 0 0 0-3.658 2.469l-1.077 1.406a4.63 4.63 0 0 0-.787 4.053l.157.566 1.4 5.038a9.26 9.26 0 0 0 3.45 5l.362.265a3.47 3.47 0 0 0 2.98.546.634.634 0 0 0 .2-1.122l-2.609-1.912a2.32 2.32 0 0 1-.863-1.249l-1.5-5.4a1.15 1.15 0 0 1 .974-1.457 35.6 35.6 0 0 0 5.234-1 36.5 36.5 0 0 0 5.081-1.869 1.15 1.15 0 0 1 1.584.747l1.5 5.411a2.3 2.3 0 0 1-.1 1.515L28.2 19.239a.634.634 0 0 0 .753.856 3.47 3.47 0 0 0 2.274-2l.174-.414a9.26 9.26 0 0 0 .386-6.059l-1.4-5.038-.164-.592a4.63 4.63 0 0 0-2.721-3.054L25.945 2.3a6.95 6.95 0 0 0-4.466-.254"/><path fill="#ff6242" stroke="#45413c" stroke-linecap="round" stroke-linejoin="round" d="M19.936 18.459c2.626 2.194 5.663 1.352 6.784-1.88z"/><path fill="#fff" stroke="#45413c" stroke-linecap="round" stroke-linejoin="round" d="m16.011 6.314 7.777-2.156.721 2.603-7.777 2.156z"/><path fill="#daedf7" d="m44.465 35.6-1.622-4.068a13.28 13.28 0 0 0-7.033-7.267c.291 2.336.906 4.62 1.826 6.788l2.411 6.047a2.473 2.473 0 0 1-1.381 3.213L36.944 41a2.33 2.33 0 0 0 1.726 4.328l1.945-.776a6.89 6.89 0 0 0 3.85-8.952"/><path fill="#fff" d="M42.843 31.535a13.28 13.28 0 0 0-7.033-7.267 20 20 0 0 0 .607 3.178 13.3 13.3 0 0 1 7.654 7.223l.019-.007z"/><path stroke="#45413c" stroke-linecap="round" stroke-linejoin="round" d="m44.465 35.6-1.622-4.068a13.28 13.28 0 0 0-7.033-7.267c.291 2.336.906 4.62 1.826 6.788l2.411 6.047a2.473 2.473 0 0 1-1.381 3.213L36.944 41a2.33 2.33 0 0 0 1.726 4.328l1.945-.776a6.89 6.89 0 0 0 3.85-8.952"/><path fill="#bf8256" stroke="#45413c" stroke-linecap="round" stroke-linejoin="round" d="M38.318 40.456 36.944 41a2.33 2.33 0 0 0 1.726 4.328l1.373-.548z"/><path fill="#daedf7" d="M19.729 45.464 18.108 41.4a13.26 13.26 0 0 1 .107-10.111 25.5 25.5 0 0 1 3.343 6.182l2.41 6.05A2.473 2.473 0 0 0 27.18 44.9l1.722-.687a2.33 2.33 0 0 1 1.725 4.329l-1.946.775a6.89 6.89 0 0 1-8.952-3.853"/><path fill="#fff" d="M18.108 41.4a13.26 13.26 0 0 1 .107-10.111q.983 1.291 1.745 2.724a13.3 13.3 0 0 0-.588 10.508l-.018.007z"/><path stroke="#45413c" stroke-linecap="round" stroke-linejoin="round" d="M19.729 45.464 18.108 41.4a13.26 13.26 0 0 1 .107-10.111 25.5 25.5 0 0 1 3.343 6.182l2.41 6.05A2.473 2.473 0 0 0 27.18 44.9l1.722-.687a2.33 2.33 0 0 1 1.725 4.329l-1.946.775a6.89 6.89 0 0 1-8.952-3.853"/><path fill="#bf8256" stroke="#45413c" stroke-linecap="round" stroke-linejoin="round" d="m27.529 44.759 1.374-.547a2.33 2.33 0 0 1 1.724 4.328l-1.373.547z"/><path fill="#fff48c" stroke="#45413c" stroke-linecap="round" stroke-linejoin="round" d="M61.212 48.856q.32.172.587.421c.302.31.33.47.286.716a2.9 2.9 0 0 1-.32.701l-4.027 6.976q-.12.219-.268.421c-.408.521-.936.353-1.533.008s-.999-.714-.747-1.324q.11-.24.246-.468l2.58-4.469-.258.052c-.382.07-.78.02-1.14-.14a1.35 1.35 0 0 1-.365-.397 1.3 1.3 0 0 1-.175-.5 1.42 1.42 0 0 1 .04-1.016 1.2 1.2 0 0 1 .395-.329 1.3 1.3 0 0 1 .504-.14l3.217-.611c.322-.09.672-.055.978.1"/><path fill="#fff48c" stroke="#45413c" d="M66.65 51.994c2.504 1.446 2.194 4.183.796 6.605-1.421 2.461-3.597 4.068-6.105 2.62-2.525-1.458-2.226-4.155-.8-6.624 1.403-2.432 3.642-4.026 6.11-2.6Zm-4.08 7.049q1.275.735 2.65-1.648l.043-.074q1.411-2.444.148-3.174-1.263-.729-2.678 1.722-1.418 2.45-.164 3.174Z"/></svg>