<svg xmlns="http://www.w3.org/2000/svg" width="89" height="89" fill="none" viewBox="0 0 89 89"><path fill="#b8ecff" d="M85 44.503A39.998 39.998 0 0 0 20.523 12.86 40 40 0 0 0 8.564 61.002h72.872A39.84 39.84 0 0 0 85 44.503"/><path fill="#ff8a14" d="M14.795 52.978h11.55v7.148h-11.55z" opacity=".6"/><path fill="#eb6d00" d="M14.795 56.457h11.55v3.67h-11.55z" opacity=".6"/><path stroke="#45413c" stroke-linecap="round" stroke-linejoin="round" d="M14.795 52.978h11.55v7.148h-11.55z" opacity=".6"/><path fill="#ff8a14" d="M14.795 39.06h11.55v6.959h-11.55z" opacity=".6"/><path fill="#eb6d00" d="M14.795 42.54h11.55v3.479h-11.55z" opacity=".6"/><path stroke="#45413c" stroke-linecap="round" stroke-linejoin="round" d="M14.795 39.06h11.55v6.959h-11.55z" opacity=".6"/><path fill="#ff8a14" d="M21.095 46.019h11.55v6.959h-11.55z" opacity=".6"/><path fill="#eb6d00" d="M21.095 49.499h11.55v3.478h-11.55z" opacity=".6"/><path stroke="#45413c" stroke-linecap="round" stroke-linejoin="round" d="M21.095 46.019h11.55v6.959h-11.55z" opacity=".6"/><path fill="#ff8a14" d="M9.545 46.019h11.55v6.959H9.545z" opacity=".6"/><path fill="#eb6d00" d="M9.545 49.499h11.55v3.478H9.545z" opacity=".6"/><path stroke="#45413c" stroke-linecap="round" stroke-linejoin="round" d="M9.545 46.019h11.55v6.959H9.545z" opacity=".6"/><path fill="#ff8a14" d="M21.095 32.1h11.55v6.96h-11.55z" opacity=".6"/><path fill="#eb6d00" d="M21.095 35.58h11.55v3.48h-11.55z" opacity=".6"/><path stroke="#45413c" stroke-linecap="round" stroke-linejoin="round" d="M21.095 32.1h11.55v6.96h-11.55z" opacity=".6"/><path fill="#ff8a14" d="M9.545 32.1h11.55v6.96H9.545z" opacity=".6"/><path fill="#eb6d00" d="M9.545 35.58h11.55v3.48H9.545z" opacity=".6"/><path stroke="#45413c" stroke-linecap="round" stroke-linejoin="round" d="M9.545 32.1h11.55v6.96H9.545z" opacity=".6"/><path fill="#ff8a14" d="M14.795 25.143h11.55v6.959h-11.55z" opacity=".6"/><path fill="#eb6d00" d="M14.795 28.622h11.55V32.1h-11.55z" opacity=".6"/><path stroke="#45413c" stroke-linecap="round" stroke-linejoin="round" d="M14.795 25.143h11.55v6.959h-11.55z" opacity=".6"/><path fill="#ff8a14" d="M21.095 18.184h11.55v6.958h-11.55z" opacity=".6"/><path fill="#eb6d00" d="M21.095 21.663h11.55v3.479h-11.55z" opacity=".6"/><path stroke="#45413c" stroke-linecap="round" stroke-linejoin="round" d="M21.095 18.184h11.55v6.958h-11.55z" opacity=".6"/><path fill="#eb6d00" d="M8.668 60.127h6.127v-7.15H6.408a40.5 40.5 0 0 0 2.26 7.15" opacity=".6"/><path fill="#f2dfc2" d="M8.564 61.003a39.999 39.999 0 0 0 72.872 0z"/><path stroke="#45413c" stroke-linecap="round" stroke-linejoin="round" d="M5.5 61.003h78M1 61.003h2.5M85.5 61.003H88"/><path fill="#ffe500" d="M58.748 30.947c0-1-.286-1.98-.823-2.823l-2.891-4.546a5.58 5.58 0 0 0-4.707-2.582H31.955a5.58 5.58 0 0 0-4.7 2.582l-2.893 4.546a5.26 5.26 0 0 0-.822 2.823v1.53a17.606 17.606 0 1 0 35.212 0z"/><path fill="#ebcb00" d="M56.975 35.54a17.571 17.571 0 0 1-31.665 0h-1.49a17.589 17.589 0 0 0 34.645 0z"/><path fill="#fffacf" d="M58.515 29.416H23.768a5.2 5.2 0 0 0-.232 1.53v1.531h35.212v-1.53a5.2 5.2 0 0 0-.233-1.531M29.659 24.058h22.965a5.57 5.57 0 0 1 3.517 1.262l-1.107-1.742a5.58 5.58 0 0 0-4.707-2.582H31.955a5.58 5.58 0 0 0-4.7 2.582l-1.109 1.742a5.57 5.57 0 0 1 3.513-1.262"/><path stroke="#45413c" stroke-linecap="round" stroke-linejoin="round" d="M58.748 30.947c0-1-.286-1.98-.823-2.823l-2.891-4.546a5.58 5.58 0 0 0-4.707-2.582H31.955a5.58 5.58 0 0 0-4.7 2.582l-2.893 4.546a5.26 5.26 0 0 0-.822 2.823v1.53a17.606 17.606 0 1 0 35.212 0z"/><path fill="#ffe500" d="M71 27.884a3.06 3.06 0 0 0-3.06-3.061h-6.132a3.06 3.06 0 0 0-3.06 3.06V50.85a3.06 3.06 0 0 1-3.062 3.062H26.6a3.063 3.063 0 0 1-3.063-3.064V34.009a4.593 4.593 0 0 0-9.186 0v22.964a4.593 4.593 0 0 0 4.593 4.593H66.4a4.59 4.59 0 0 0 4.6-4.593z"/><path fill="#fffacf" d="M23.536 54.675a3.06 3.06 0 0 0 3.064 3.064h29.086a3.06 3.06 0 0 0 3.062-3.062v-3.828a3.06 3.06 0 0 1-3.062 3.062H26.6a3.063 3.063 0 0 1-3.063-3.064zM67.935 24.823h-6.127a3.06 3.06 0 0 0-3.06 3.06v3.828a3.06 3.06 0 0 1 3.06-3.06h6.127a3.06 3.06 0 0 1 3.06 3.06v-3.827a3.06 3.06 0 0 0-3.06-3.061M18.943 33.243a4.593 4.593 0 0 1 4.593 4.593v-3.828a4.593 4.593 0 1 0-9.186 0v3.828a4.593 4.593 0 0 1 4.593-4.593"/><path stroke="#45413c" stroke-linecap="round" stroke-linejoin="round" d="M71 27.884a3.06 3.06 0 0 0-3.06-3.061h-6.132a3.06 3.06 0 0 0-3.06 3.06V50.85a3.06 3.06 0 0 1-3.062 3.062H26.6a3.063 3.063 0 0 1-3.063-3.064V34.009a4.593 4.593 0 0 0-9.186 0v22.964a4.593 4.593 0 0 0 4.593 4.593H66.4a4.59 4.59 0 0 0 4.6-4.593z"/><path fill="#ffe500" d="m71 27.884 5.957 8.935a10.1 10.1 0 0 1 1.7 5.61v5.358a6.37 6.37 0 0 1-2.39 4.974L71 56.973z"/><path fill="#ebcb00" d="m74.057 32.478-3.062-4.594v29.088l3.062-2.449z"/><path stroke="#45413c" stroke-linecap="round" stroke-linejoin="round" d="m71 27.884 5.957 8.935a10.1 10.1 0 0 1 1.7 5.61v5.358a6.37 6.37 0 0 1-2.39 4.974L71 56.973z"/><path fill="#45413c" stroke="#45413c" stroke-linecap="round" stroke-linejoin="round" d="M14.35 66.925a5.358 5.358 0 1 0 10.716 0 5.358 5.358 0 0 0-10.716 0"/><path fill="#87898c" d="M17.412 66.925a2.296 2.296 0 1 0 4.592 0 2.296 2.296 0 0 0-4.592 0"/><path fill="#bdbec0" d="M19.708 66.518a2.3 2.3 0 0 1 2.092 1.35 2.3 2.3 0 1 0-4.177 0 2.29 2.29 0 0 1 2.085-1.35"/><path stroke="#45413c" stroke-linecap="round" stroke-linejoin="round" d="M17.412 66.925a2.296 2.296 0 1 0 4.592 0 2.296 2.296 0 0 0-4.592 0"/><path fill="#45413c" stroke="#45413c" stroke-linecap="round" stroke-linejoin="round" d="M60.279 66.925a5.358 5.358 0 1 0 10.716 0 5.358 5.358 0 0 0-10.716 0"/><path fill="#87898c" d="M63.341 66.925a2.296 2.296 0 1 0 4.592 0 2.296 2.296 0 0 0-4.592 0"/><path fill="#bdbec0" d="M65.637 66.518a2.3 2.3 0 0 1 2.089 1.35 2.3 2.3 0 1 0-4.178 0 2.3 2.3 0 0 1 2.089-1.35"/><path stroke="#45413c" stroke-linecap="round" stroke-linejoin="round" d="M63.341 66.925a2.296 2.296 0 1 0 4.592 0 2.296 2.296 0 0 0-4.592 0"/><path fill="#45413c" d="M72.956 72.903c0 1.348-13.119 2.441-29.3 2.441s-29.3-1.093-29.3-2.441c0-1.35 13.119-2.443 29.3-2.443s29.3 1.095 29.3 2.443" opacity=".15"/><path stroke="#45413c" stroke-linecap="round" stroke-linejoin="round" d="M61.81 30.947h6.123M61.81 34.009h6.123M61.81 37.07h6.123M23.82 35.54h34.645c.182-1.006.277-2.026.283-3.047v-1.547a5.2 5.2 0 0 0-.233-1.53H23.768a5.2 5.2 0 0 0-.232 1.53v1.531c.005 1.028.1 2.052.284 3.063"/><path fill="#ff8a14" d="M6.408 52.978q.382 1.77.917 3.478h7.47v-3.479z" opacity=".6"/><path stroke="#45413c" stroke-linecap="round" stroke-linejoin="round" d="M8.668 60.127h6.127v-7.15H6.408" opacity=".6"/><path fill="#eb6d00" d="M6.408 52.978h3.138v-6.96H5.538c.086 2.341.377 4.67.87 6.96" opacity=".6"/><path fill="#ff8a14" d="M5.538 46.019q.066 1.761.281 3.48h3.727v-3.48z" opacity=".6"/><path stroke="#45413c" stroke-linecap="round" stroke-linejoin="round" d="M6.408 52.978h3.137v-6.96H5.538" opacity=".6"/><path fill="#eb6d00" d="M5.538 46.019h9.257v-6.96H5.878a40 40 0 0 0-.378 5.444c0 .508.019 1.011.038 1.516" opacity=".6"/><path fill="#ff8a14" d="M5.878 39.06a42 42 0 0 0-.308 3.48h9.225v-3.48z" opacity=".6"/><path stroke="#45413c" stroke-linecap="round" stroke-linejoin="round" d="M5.538 46.019h9.257v-6.96H5.878" opacity=".6"/><path fill="#eb6d00" d="M9.546 39.06v-6.958H7.47a40 40 0 0 0-1.592 6.96z" opacity=".6"/><path fill="#ff8a14" d="M7.47 32.103q-.555 1.709-.959 3.48h3.035v-3.48z" opacity=".6"/><path stroke="#45413c" stroke-linecap="round" stroke-linejoin="round" d="M5.878 39.06h3.667V32.1H7.47" opacity=".6"/><path fill="#eb6d00" d="M14.795 32.103v-6.96h-4.3a39.7 39.7 0 0 0-3.025 6.96z" opacity=".6"/><path fill="#ff8a14" d="M10.497 25.143a39 39 0 0 0-1.709 3.479h6.007v-3.48z" opacity=".6"/><path stroke="#45413c" stroke-linecap="round" stroke-linejoin="round" d="M7.47 32.1h7.325v-6.958h-4.298" opacity=".6"/><path fill="#eb6d00" d="M10.497 25.143h10.6v-6.96h-5.7a40 40 0 0 0-4.9 6.96" opacity=".6"/><path fill="#ff8a14" d="M15.392 18.184a40 40 0 0 0-2.719 3.479h8.422v-3.48z" opacity=".6"/><path stroke="#45413c" stroke-linecap="round" stroke-linejoin="round" d="M10.497 25.143h10.598v-6.96h-5.703" opacity=".6"/><path stroke="#daedf7" d="M5.5 44.503a40 40 0 1 0 80 0 40 40 0 0 0-80 0Z" opacity=".6"/></svg>