<svg xmlns="http://www.w3.org/2000/svg" width="82" height="83" fill="none" viewBox="0 0 82 83"><path fill="#daedf7" stroke="#daedf7" stroke-miterlimit="10" d="M41 81.216c22.091 0 40-17.909 40-40s-17.909-40-40-40-40 17.909-40 40 17.909 40 40 40Z"/><path fill="#45413c" d="M24.479 82.784c7.72 0 13.978-.939 13.978-2.097s-6.258-2.097-13.978-2.097-13.978.939-13.978 2.097 6.258 2.097 13.978 2.097" opacity=".15"/><path fill="#87898c" d="M15.241 53.29v25.161h6.71l.766-17.615a1.752 1.752 0 0 1 3.5 0l.766 17.615h6.71V53.29z"/><path fill="#45413c" d="m21.088 59.511 3.38-2.028 3.426 2.056a1.83 1.83 0 0 0 1.6.136l4.2-1.632V53.29H15.241v4.472l4.166 1.852a1.83 1.83 0 0 0 1.681-.103"/><path stroke="#45413c" stroke-linecap="round" stroke-linejoin="round" d="M15.241 53.29v25.161h6.71l.766-17.615a1.752 1.752 0 0 1 3.5 0l.766 17.615h6.71V53.29z"/><path fill="#45413c" stroke="#45413c" stroke-linecap="round" stroke-linejoin="round" d="M14.192 77.123a1.4 1.4 0 0 0 1.168 2.166h5.724a1.4 1.4 0 0 0 1.24-2.043c-1.524-2.927-6.39-2.765-8.132-.123M34.742 77.123a1.4 1.4 0 0 1-1.168 2.166H27.85a1.4 1.4 0 0 1-1.24-2.043c1.527-2.927 6.39-2.765 8.132-.123"/><path fill="#87898c" d="M9.372 43.645c.008.678.087 1.354.237 2.015a15.086 15.086 0 0 1 29.606-.6c.227-.871.345-1.768.35-2.668a15.1 15.1 0 1 0-30.193 0z"/><path fill="#87898c" d="M39.565 42.387a15.1 15.1 0 1 0-30.193 0v1.258a9.66 9.66 0 0 0 5.869 8.874v.771h18.453v-1.237a10.9 10.9 0 0 0 5.871-9.666"/><path stroke="#45413c" stroke-linecap="round" stroke-linejoin="round" d="M39.565 42.387a15.1 15.1 0 1 0-30.193 0v1.258a9.66 9.66 0 0 0 5.869 8.874v.771h18.453v-1.237a10.9 10.9 0 0 0 5.871-9.666"/><path fill="#fff" stroke="#45413c" stroke-linecap="round" stroke-linejoin="round" d="m33.694 54.967-5.87 1.678-3.356-1.678-3.355 1.678-5.87-1.678V53.29h18.451z"/><path stroke="#45413c" stroke-linecap="round" stroke-linejoin="round" d="M33.694 52.053V40.709"/><path fill="#fff" stroke="#45413c" stroke-linecap="round" stroke-linejoin="round" d="m24.467 49.1 5.953-20.587a15.1 15.1 0 0 0-11.906 0z"/><path fill="#bf8256" stroke="#45413c" stroke-linecap="round" stroke-linejoin="round" d="M27.587 28.513a8.93 8.93 0 0 1-6.23 0l.007-3.679h6.23z"/><path stroke="#45413c" stroke-linecap="round" stroke-linejoin="round" d="M24.468 28.836v26.13M24.467 49.1l-5.953-20.587a15.1 15.1 0 0 0-4.722 3.2l3.965 3.965v4.194zM24.467 49.1l5.953-20.587a15.1 15.1 0 0 1 4.722 3.2l-3.965 3.965v4.194z"/><path fill="#45413c" stroke="#45413c" stroke-linecap="round" stroke-linejoin="round" d="m24.468 28.835-3.836-1.973a.725.725 0 0 0-1.056.645v2.657a.725.725 0 0 0 1.056.645zM24.468 28.835l3.837-1.973a.725.725 0 0 1 1.056.645v2.657a.725.725 0 0 1-1.056.645z"/><path fill="#fff" stroke="#45413c" stroke-linecap="round" stroke-linejoin="round" d="M27.823 52.45a2.516 2.516 0 0 0 0-5.031h-2.516v5.032z"/><path stroke="#45413c" stroke-linecap="round" stroke-linejoin="round" d="M15.242 52.519a9.6 9.6 0 0 0 3.775.771h6.29v-5.871h-6.29a3.78 3.78 0 0 1-3.775-3.774v-2.936"/><path fill="#fff" stroke="#45413c" stroke-linecap="round" stroke-linejoin="round" d="M26.823 46.58h-6.387a1 1 0 0 0-1 1v11.419a1 1 0 0 0 1 1h6.387a1 1 0 0 0 1-1V47.58a1 1 0 0 0-1-1"/><path fill="#bf8256" stroke="#45413c" stroke-linecap="round" stroke-linejoin="round" d="M34.788 17.545a1.794 1.794 0 0 0-1.456-1.745v-1.167a8.736 8.736 0 0 0-17.472 0V15.8a1.783 1.783 0 0 0 .183 3.53 8.737 8.737 0 0 0 17.105 0 1.8 1.8 0 0 0 1.64-1.785"/><path fill="#bf8256" d="M19.864 19.729a1.092 1.092 0 1 0 0-2.184 1.092 1.092 0 0 0 0 2.184M29.328 19.729a1.092 1.092 0 1 0 0-2.184 1.092 1.092 0 0 0 0 2.184"/><path fill="#45413c" d="M21.32 16.817a1.092 1.092 0 1 0 0-2.184 1.092 1.092 0 0 0 0 2.184M27.872 16.817a1.092 1.092 0 1 0 0-2.184 1.092 1.092 0 0 0 0 2.184"/><path fill="#614b44" stroke="#45413c" stroke-linecap="round" stroke-linejoin="round" d="M22.121 23.952a18 18 0 0 0-3.495.873s1.2-4.368 3.495-4.368a1.75 1.75 0 0 1 0 3.5zM27.07 23.952c1.192.172 2.363.465 3.495.873 0 0-1.2-4.368-3.494-4.368a1.75 1.75 0 0 0 0 3.5zM24.6 5.9a8.736 8.736 0 0 0-8.736 8.736v.8a2.433 2.433 0 0 0 2.4-2.421 1.73 1.73 0 0 1 2.027-1.427c1.42.28 2.863.424 4.31.429a22.6 22.6 0 0 0 4.31-.429 1.73 1.73 0 0 1 2.026 1.427 2.434 2.434 0 0 0 2.4 2.421v-.8A8.735 8.735 0 0 0 24.6 5.9"/><path fill="#614b44" d="M33.569 6.773a.44.44 0 0 0-.587-.262 2.2 2.2 0 0 1-1.834-.21S26.78 4.117 24.6 4.117 18.044 6.3 18.044 6.3a2.2 2.2 0 0 1-1.835.21.44.44 0 0 0-.586.262c-.393 1.134.368 2.374 1.138 4.012.378.8.978 1.917 1.407 2.7q.053-.225.091-.472a1.73 1.73 0 0 1 2.027-1.427c1.42.28 2.863.423 4.31.428a22.6 22.6 0 0 0 4.31-.428 1.73 1.73 0 0 1 2.026 1.427q.038.244.09.464c.4-.729 1.012-1.848 1.408-2.69.77-1.639 1.532-2.879 1.139-4.013"/><path stroke="#45413c" stroke-linecap="round" stroke-linejoin="round" d="M33.569 6.773a.44.44 0 0 0-.587-.262 2.2 2.2 0 0 1-1.834-.21S26.78 4.117 24.6 4.117 18.044 6.3 18.044 6.3a2.2 2.2 0 0 1-1.835.21.44.44 0 0 0-.586.262c-.393 1.134.368 2.374 1.138 4.012.378.8.978 1.917 1.407 2.7q.053-.225.091-.472a1.73 1.73 0 0 1 2.027-1.427c1.42.28 2.863.423 4.31.428a22.6 22.6 0 0 0 4.31-.428 1.73 1.73 0 0 1 2.026 1.427q.038.244.09.464c.4-.729 1.012-1.848 1.408-2.69.77-1.639 1.532-2.879 1.139-4.013"/><path fill="#bf8256" stroke="#45413c" stroke-linecap="round" stroke-linejoin="round" d="M73.01 69.82H43.981a1 1 0 0 0-1 1v1.955H74.01V70.82a1 1 0 0 0-1-1M72.531 67.6a.74.74 0 0 0-.738-.738H45.2a.74.74 0 0 0-.739.738v2.22h28.07zM72.27 46.18H44.721a1 1 0 0 0-1 1v1.955h29.55V47.18a1 1 0 0 0-1-1"/><path fill="#bf8256" stroke="#45413c" stroke-linecap="round" stroke-linejoin="round" d="M71.792 49.135H45.198v17.729h26.594z"/><path fill="#915e3a" stroke="#45413c" stroke-linecap="round" stroke-linejoin="round" d="M56.018 52.09h-6.865a1 1 0 0 0-1 1v9.82a1 1 0 0 0 1 1h6.865a1 1 0 0 0 1-1v-9.82a1 1 0 0 0-1-1M67.838 52.09h-6.865a1 1 0 0 0-1 1v9.82a1 1 0 0 0 1 1h6.865a1 1 0 0 0 1-1v-9.82a1 1 0 0 0-1-1"/><path fill="#46b000" stroke="#45413c" stroke-linecap="round" stroke-linejoin="round" d="M67.36 35.838h-8.126a2.955 2.955 0 0 0-2.955 2.955 1.48 1.48 0 0 0 1.478 1.478h11.08a1.48 1.48 0 0 0 1.478-1.478 2.955 2.955 0 0 0-2.955-2.955"/><path stroke="#45413c" stroke-linecap="round" stroke-linejoin="round" d="M58.495 40.271v2.954"/><path fill="#ffe500" stroke="#45413c" stroke-linecap="round" stroke-linejoin="round" d="M66.991 40.271h-2.955v5.91h2.955z"/></svg>