<svg xmlns="http://www.w3.org/2000/svg" width="89" height="87" fill="none" viewBox="0 0 89 87"><path fill="#b8ecff" d="M80.949 59.77a40 40 0 1 0-72.9 0z"/><path stroke="#45413c" stroke-linecap="round" stroke-linejoin="round" d="M5.5 59.77h78M1 59.77h2.5M85.5 59.77H88"/><path fill="#9ceb60" d="M8.04 59.77a39.739 39.739 0 0 0 72.92 0z"/><path stroke="#45413c" stroke-linecap="round" stroke-linejoin="round" d="M82.331 59.77H6.858"/><path stroke="#6dd627" stroke-linecap="round" d="M59.2 72.014h7.514M54.817 72.014h1.878M51.686 72.014h.626M27.864 68.34h7.515M23.481 68.34h1.879M20.35 68.34h.626M39.611 79.89h7.514M35.227 79.89h1.879M32.096 79.89h.626"/><path fill="#00b8f0" stroke="#45413c" stroke-linecap="round" stroke-linejoin="round" d="M29.956 43.223a3.904 3.904 0 0 1-1.02-7.74l.107-.015a3.904 3.904 0 1 1 1.02 7.741zM28.725 31.896a2.853 2.853 0 0 1-3.161-2.5l-.253-2.143a7.15 7.15 0 0 1 3.946-7.212 5.677 5.677 0 0 0-3.2-10.724l-.148.02a5.71 5.71 0 0 0-4.809 6.28 2.847 2.847 0 0 1-4.6 2.572 2.83 2.83 0 0 1-1.064-1.9A11.32 11.32 0 0 1 25.11 3.704l.3-.04a11.371 11.371 0 0 1 6.378 21.483 1.45 1.45 0 0 0-.818 1.444l.252 2.143a2.87 2.87 0 0 1-2.422 3.152z"/><path fill="#45413c" d="M33.862 76.292c0 .317.482.63 1.418.922.937.293 2.309.558 4.039.782s3.784.4 6.044.522c2.26.121 4.683.183 7.13.183s4.87-.062 7.13-.183 4.314-.299 6.044-.522 3.102-.49 4.039-.782 1.418-.605 1.418-.922c0-.639-1.963-1.251-5.457-1.703s-8.233-.706-13.174-.706-9.68.254-13.174.706-5.457 1.064-5.457 1.703" opacity=".15"/><path fill="#f0d3a8" stroke="#45413c" stroke-linecap="round" stroke-linejoin="round" d="m64.622 56.507 2.323-.342a3.017 3.017 0 0 1 3.435 2.494l.033.212c.05.327.046.66-.014.986l-2.633 11.62a4.47 4.47 0 0 1 1.306 3.422h-6.39zM40.365 56.507l-2.324-.342a3.016 3.016 0 0 0-3.435 2.494l-.033.212c-.05.327-.046.66.014.986l2.633 11.62a4.47 4.47 0 0 0-1.306 3.422H42.3z"/><path fill="#f7e5c6" d="M52.493 41.934c-11.939 0-18.906 16.32-7.556 29.067 1.35 1.517 0 3.9 0 3.9h14.915a2.41 2.41 0 0 1 0-3.68C71.479 58.56 64.5 41.934 52.493 41.934"/><path fill="#f0d3a8" d="M52.493 41.934a12.43 12.43 0 0 0-8.871 3.7 10.4 10.4 0 0 0 5.288 4.425 8.6 8.6 0 0 0 2.643.4c3.41 0 7.074-1.83 10.087-4.525a12.43 12.43 0 0 0-9.147-4"/><path fill="#fff" d="M44.937 74.9h14.915a56 56 0 0 1 2.552-6.01c-1.066-11.423-5.1-19.922-9.911-19.922s-8.846 8.5-9.911 19.923a51 51 0 0 1 2.355 6.008"/><path stroke="#45413c" stroke-linecap="round" stroke-linejoin="round" d="M52.493 41.934c-11.939 0-18.906 16.32-7.556 29.067 1.35 1.517 0 3.9 0 3.9h14.915a2.41 2.41 0 0 1 0-3.68C71.479 58.56 64.5 41.934 52.493 41.934"/><path fill="#ffe500" d="M49.829 50.856a2.664 2.664 0 1 0 5.328 0 2.664 2.664 0 0 0-5.328 0"/><path fill="#fff48c" d="M52.493 50.19a2.665 2.665 0 0 1 2.47 1.665 2.663 2.663 0 1 0-4.94 0 2.665 2.665 0 0 1 2.47-1.665"/><path stroke="#45413c" stroke-linecap="round" stroke-linejoin="round" d="M49.829 50.856a2.664 2.664 0 1 0 5.328 0 2.664 2.664 0 0 0-5.328 0"/><path fill="#f7e5c6" d="M39.182 57.362c-.005 4.338 1.93 10.585 1.93 10.585a2.97 2.97 0 0 1-.785 2.442 2.92 2.92 0 0 0-.808 2.058 2.29 2.29 0 0 0 2.087 2.452h4.677a2.165 2.165 0 0 0 1.971-2.317 3.2 3.2 0 0 0-.9-2.272c-.178-.175-3.5-6.21-2.812-11.607"/><path stroke="#45413c" stroke-linecap="round" stroke-linejoin="round" d="M39.182 57.362c-.005 4.338 1.93 10.585 1.93 10.585a2.97 2.97 0 0 1-.785 2.442 2.92 2.92 0 0 0-.808 2.058 2.29 2.29 0 0 0 2.087 2.452h4.677a2.165 2.165 0 0 0 1.971-2.317 3.2 3.2 0 0 0-.9-2.272c-.178-.175-3.5-6.21-2.812-11.607"/><path fill="#f7e5c6" d="M65.8 57.362c0 4.338-1.93 10.585-1.93 10.585a2.97 2.97 0 0 0 .785 2.442 2.92 2.92 0 0 1 .808 2.058 2.29 2.29 0 0 1-2.086 2.452H58.7a2.165 2.165 0 0 1-1.971-2.317 3.2 3.2 0 0 1 .9-2.272c.178-.175 3.5-6.21 2.813-11.607"/><path stroke="#45413c" stroke-linecap="round" stroke-linejoin="round" d="M65.8 57.362c0 4.338-1.93 10.585-1.93 10.585a2.97 2.97 0 0 0 .785 2.442 2.92 2.92 0 0 1 .808 2.058 2.29 2.29 0 0 1-2.086 2.452H58.7a2.165 2.165 0 0 1-1.971-2.317 3.2 3.2 0 0 1 .9-2.272c.178-.175 3.5-6.21 2.813-11.607"/><path fill="#bf8256" stroke="#45413c" stroke-linecap="round" stroke-linejoin="round" d="M52.8 21.86a4.62 4.62 0 0 1-9.205.771c-.158-1.882 2.016-6.232 3.157-8.366a.92.92 0 0 1 1.542-.129c1.484 1.915 4.352 5.842 4.506 7.723M62.276 24.925a4.619 4.619 0 0 0 7.008 6.02c1.23-1.428 2.016-6.228 2.343-8.628a.92.92 0 0 0-1.174-1.009c-2.322.683-6.946 2.185-8.177 3.617"/><path fill="#fff5e3" d="M49.659 47.743c-8.788-2.845-11.518-29.619 7.585-23.436s1.203 26.28-7.585 23.436"/><path fill="#45413c" d="M48.343 30.916a1.823 1.823 0 1 0 3.646 0 1.823 1.823 0 0 0-3.646 0M52.785 46.146c-.423 1.3-3.126 1.6-3.126 1.6s-2.019-1.829-1.597-3.129a2.482 2.482 0 0 1 4.723 1.53"/><path fill="#bf8256" d="M60.1 44.017c6.007-5.38 9.355-14.777-1.283-19.137A12.13 12.13 0 0 0 60.1 44.017"/><path stroke="#45413c" stroke-linecap="round" stroke-linejoin="round" d="M49.659 47.743c-8.788-2.845-11.518-29.619 7.585-23.436s1.203 26.28-7.585 23.436"/><path fill="#45413c" d="M57.285 33.81a1.823 1.823 0 1 0 3.647 0 1.823 1.823 0 0 0-3.647 0"/></svg>