<svg xmlns="http://www.w3.org/2000/svg" width="100" height="100" fill="none" viewBox="0 0 100 100"><path fill="#daedf7" stroke="#daedf7" stroke-miterlimit="10" d="M49.576 90c22.092 0 40-17.909 40-40s-17.908-40-40-40-40 17.909-40 40 17.909 40 40 40Z"/><path fill="#4acfff" d="M89.424 22.129H11.729a1 1 0 0 0-1 1v48.82a1 1 0 0 0 1 1h77.695a1 1 0 0 0 1-1v-48.82a1 1 0 0 0-1-1"/><path stroke="#45413c" stroke-miterlimit="10" d="M89.424 22.129H11.729a1 1 0 0 0-1 1v48.82a1 1 0 0 0 1 1h77.695a1 1 0 0 0 1-1v-48.82a1 1 0 0 0-1-1Z"/><path fill="#8ca4b8" d="M42.116 72.946V66.28h4.96a12.8 12.8 0 0 0-25.59 0h4.96v6.666z"/><path fill="#adc4d9" d="M34.281 57.584a12.8 12.8 0 0 1 12.125 8.7h.67a12.8 12.8 0 0 0-25.59 0h.671a12.8 12.8 0 0 1 12.124-8.7"/><path stroke="#45413c" stroke-linecap="round" stroke-linejoin="round" d="M26.446 66.281a4.26 4.26 0 0 0-.753-1.962 4.26 4.26 0 0 1-.638-2.329"/><path fill="#ffcebf" d="M26.446 66.281h-4.96v6.665h4.96z"/><path fill="#ffb59e" d="M26.446 66.281h-4.96v3.54h4.96z"/><path stroke="#45413c" stroke-linecap="round" stroke-linejoin="round" d="M26.446 66.281h-4.96v6.665h4.96zM42.116 66.281a4.26 4.26 0 0 1 .754-1.962 4.26 4.26 0 0 0 .638-2.329"/><path fill="#ffcebf" d="M47.076 66.281h-4.96v6.665h4.96z"/><path fill="#ffb59e" d="M47.076 66.281h-4.96v3.54h4.96z"/><path stroke="#45413c" stroke-linecap="round" stroke-linejoin="round" d="M47.076 66.281h-4.96v6.665h4.96z"/><path stroke="#45413c" stroke-linecap="round" stroke-linejoin="round" d="M42.116 72.946V66.28h4.96a12.8 12.8 0 0 0-25.59 0h4.96v6.666z"/><path fill="#fff" stroke="#45413c" stroke-linecap="round" stroke-linejoin="round" d="M34.281 53.486a12.8 12.8 0 0 0-4.478.806l4.473 14.119 4.483-14.119a12.8 12.8 0 0 0-4.478-.806"/><path stroke="#45413c" stroke-linecap="round" stroke-linejoin="round" d="m36.786 60.506-2.505-3.255-2.504 3.253M34.281 68.409v4.537M42.306 56.311v.01l-.21 3.39-2.77-.17.25 3.84-5.3 5.03"/><path stroke="#45413c" stroke-linecap="round" stroke-linejoin="round" d="m34.276 68.411-5.29-5.03.25-3.84-2.77.17-.21-3.39v-.01"/><path fill="#ffc44d" d="M43.969 43.408a9.68 9.68 0 1 0-19.36 0v4.84a4.84 4.84 0 0 0 4.84 4.84h9.68a4.84 4.84 0 0 0 4.84-4.84z"/><path fill="#ffdb94" d="M34.289 33.729a9.68 9.68 0 0 0-9.68 9.679v3.025a9.68 9.68 0 0 1 19.36 0v-3.025a9.68 9.68 0 0 0-9.68-9.679"/><path stroke="#45413c" stroke-miterlimit="10" d="M43.969 43.408a9.68 9.68 0 1 0-19.36 0v4.84a4.84 4.84 0 0 0 4.84 4.84h9.68a4.84 4.84 0 0 0 4.84-4.84z"/><path fill="#ffcebf" stroke="#45413c" stroke-linecap="round" stroke-linejoin="round" d="m36.925 54.251-2.649 3-2.631-3 .006-4.854h5.28z"/><path fill="#ffcebf" stroke="#45413c" stroke-linecap="round" stroke-linejoin="round" d="M41.549 43.772V42.8q0-.244-.017-.485a7.72 7.72 0 0 1-7.243-4.354 7.72 7.72 0 0 1-7.243 4.354 7 7 0 0 0-.017.485v.969a1.481 1.481 0 0 0 .153 2.934 7.26 7.26 0 0 0 14.214 0 1.482 1.482 0 0 0 .153-2.934z"/><path fill="#45413c" d="M31.566 42.8a.907.907 0 1 0 0 1.815.907.907 0 0 0 0-1.815M37.011 42.8a.907.907 0 1 0 0 1.815.907.907 0 0 0 0-1.815"/><path fill="#ffb59e" d="M30.357 47.038a.907.907 0 1 0 0-1.814.907.907 0 0 0 0 1.814M38.221 47.038a.907.907 0 1 0 0-1.814.907.907 0 0 0 0 1.814"/><path stroke="#45413c" stroke-linecap="round" stroke-linejoin="round" d="M32.474 48.3a3.275 3.275 0 0 0 3.63 0"/><path fill="#45413c" d="M49.999 84.5c12.12 0 21.945-.776 21.945-1.733s-9.825-1.733-21.945-1.733-21.945.776-21.945 1.733S37.879 84.5 49.999 84.5" opacity=".15"/><path fill="#87898c" d="M55.198 72.949H44.803v5.775h10.395z"/><path fill="#45413c" d="M55.198 72.949H44.803v3.176h10.395z"/><path stroke="#45413c" stroke-miterlimit="10" d="M55.198 72.949H44.803v5.775h10.395z"/><path fill="#87898c" stroke="#45413c" stroke-linecap="round" stroke-linejoin="round" d="M71.368 81.612a.577.577 0 0 1-.578.577H29.21a.577.577 0 0 1-.577-.577v-.578a2.31 2.31 0 0 1 2.31-2.31h38.115a2.31 2.31 0 0 1 2.31 2.31z"/><path fill="#daedf7" d="M82.649 31.966h-30.65a2 2 0 0 0-2 2v25.433a2 2 0 0 0 2 2h30.65a2 2 0 0 0 2-2V33.966a2 2 0 0 0-2-2"/><path fill="#daedf7" d="M84.649 38.662v-4.7a2 2 0 0 0-2-2H52a2 2 0 0 0-2 2v4.7a2.31 2.31 0 0 1 2.31-2.31h30.03a2.317 2.317 0 0 1 2.309 2.31"/><path stroke="#45413c" stroke-linecap="round" stroke-linejoin="round" d="M54.04 38.299v18.843h28.158"/><path fill="#ffe500" stroke="#45413c" stroke-linecap="round" stroke-linejoin="round" d="M61.454 57.142h-4.533v-3.533a1 1 0 0 1 1-1h2.533a1 1 0 0 1 1 1z"/><path fill="#ff6242" stroke="#45413c" stroke-linecap="round" stroke-linejoin="round" d="M69.009 57.142h-4.533v-6.555a1 1 0 0 1 1-1h2.533a1 1 0 0 1 1 1z"/><path fill="#00b8f0" stroke="#45413c" stroke-linecap="round" stroke-linejoin="round" d="M76.564 57.142h-4.533V46.054a1 1 0 0 1 1-1h2.533a1 1 0 0 1 1 1z"/><path stroke="#45413c" stroke-linecap="round" stroke-linejoin="round" d="M72.099 36.352h8.085M75.564 39.817h4.62M79.03 43.282h1.154"/><path stroke="#45413c" stroke-miterlimit="10" d="M82.649 31.966h-30.65a2 2 0 0 0-2 2v25.433a2 2 0 0 0 2 2h30.65a2 2 0 0 0 2-2V33.966a2 2 0 0 0-2-2Z"/></svg>