<svg xmlns="http://www.w3.org/2000/svg" width="130" height="130" fill="none"><path fill="#c7f0ff" stroke="#c7f0ff" stroke-miterlimit="10" stroke-width="1.6" d="M1 65a64 64 0 1 0 128 0A64 64 0 0 0 1 65z"/><path fill="#00b8f0" stroke="#45413c" stroke-linecap="round" stroke-linejoin="round" stroke-width="1.6" d="M93.797 127.436a5.35 5.35 0 0 1-2.286 1.348 5.33 5.33 0 0 1-2.653.081 5.34 5.34 0 0 1-2.364-1.205 5.34 5.34 0 0 1-1.492-2.194 49.96 49.96 0 0 1 .863-33.502c3.95-11.61 3.97-28.218-7.82-40.007-11.788-11.788-28.397-11.77-40.013-7.82a49.95 49.95 0 0 1-33.501.864 5.34 5.34 0 0 1-3.216-6.83 5.34 5.34 0 0 1 6.83-3.215 39.62 39.62 0 0 0 26.453-.925c14.65-4.983 35.743-4.874 50.995 10.379 15.253 15.252 15.352 36.344 10.382 50.999a39.62 39.62 0 0 0-.928 26.449 5.34 5.34 0 0 1 .185 2.97 5.34 5.34 0 0 1-1.435 2.608"/><path fill="#009fd9" d="M26.515 46.952a64.3 64.3 0 0 0 11.514-2.817 45.2 45.2 0 0 1 10.062-2.162 42 42 0 0 1 1.135-3.947 67 67 0 0 0 1.967-6.924 55.8 55.8 0 0 0-16.599 2.92 58 58 0 0 1-5.776 1.644 56 56 0 0 0-2.306 11.274"/><path stroke="#45413c" stroke-linecap="round" stroke-linejoin="round" stroke-width="1.6" d="m11.48 35.938 10.193-10.19m86.759 80.237 11.545-11.545"/><path fill="#4acfff" stroke="#45413c" stroke-linecap="round" stroke-linejoin="round" stroke-width="1.6" d="M19.489 21.558a5.108 5.108 0 1 0 10.215 0 5.108 5.108 0 0 0-10.215 0"/><path fill="#00f5bc" stroke="#45413c" stroke-linecap="round" stroke-linejoin="round" stroke-width="1.6" d="M99.713 109.596c0 1.355.538 2.654 1.496 3.612a5.1 5.1 0 0 0 3.611 1.496 5.1 5.1 0 0 0 3.612-1.496 5.1 5.1 0 0 0 1.496-3.612 5.1 5.1 0 0 0-1.496-3.612 5.1 5.1 0 0 0-3.612-1.496 5.1 5.1 0 0 0-3.611 1.496 5.1 5.1 0 0 0-1.496 3.612"/><path stroke="#45413c" stroke-linecap="round" stroke-linejoin="round" stroke-width="1.6" d="M93.797 127.436a5.35 5.35 0 0 1-2.286 1.348 5.33 5.33 0 0 1-2.653.081 5.34 5.34 0 0 1-2.364-1.205 5.34 5.34 0 0 1-1.492-2.194 49.96 49.96 0 0 1 .863-33.502c3.95-11.61 3.97-28.218-7.82-40.007-11.788-11.788-28.397-11.77-40.013-7.82a49.95 49.95 0 0 1-33.501.864 5.34 5.34 0 0 1-3.216-6.83 5.34 5.34 0 0 1 6.83-3.215 39.62 39.62 0 0 0 26.453-.925c14.65-4.983 35.743-4.874 50.995 10.379 15.253 15.252 15.352 36.344 10.382 50.999a39.62 39.62 0 0 0-.928 26.449 5.34 5.34 0 0 1 .185 2.97 5.34 5.34 0 0 1-1.435 2.608"/><path fill="#00f5bc" stroke="#45413c" stroke-linecap="round" stroke-linejoin="round" stroke-width="1.6" d="M127.439 93.797a5.34 5.34 0 0 1-5.581 1.25 39.66 39.66 0 0 0-26.452.925c-14.655 4.982-35.747 4.874-51.006-10.379C29.142 70.341 29.05 49.25 34.022 34.594a39.6 39.6 0 0 0 .924-26.449 5.34 5.34 0 0 1 .194-4.081 5.34 5.34 0 0 1 3.022-2.749 5.34 5.34 0 0 1 5.756 1.431 5.3 5.3 0 0 1 1.074 1.785 49.95 49.95 0 0 1-.863 33.501c-3.947 11.613-3.97 28.222 7.82 40.014 11.788 11.791 28.4 11.769 40.012 7.82a49.96 49.96 0 0 1 33.498-.867 5.34 5.34 0 0 1 2.197 1.491 5.33 5.33 0 0 1 1.207 2.366 5.34 5.34 0 0 1-1.43 4.94z"/><path fill="#00dba8" d="M105.166 82.83a56.2 56.2 0 0 1-2.216 11.136 55 55 0 0 0-7.554 2.012 55.8 55.8 0 0 1-17.85 2.933 68 68 0 0 1 1.97-6.937 44 44 0 0 0 1.11-3.838 45.1 45.1 0 0 0 11.332-2.268 63.3 63.3 0 0 1 12.821-2.99"/><path stroke="#45413c" stroke-linecap="round" stroke-linejoin="round" stroke-width="1.6" d="M51.954 78.046c11.792 11.788 28.4 11.769 40.013 7.82a49.96 49.96 0 0 1 33.498-.867 5.34 5.34 0 0 1 3.025 2.747c.299.634.47 1.32.504 2.02a5.3 5.3 0 0 1-.308 2.06 5.3 5.3 0 0 1-1.073 1.786 5.34 5.34 0 0 1-3.695 1.743 5.3 5.3 0 0 1-2.06-.308 39.66 39.66 0 0 0-26.453.925c-14.654 4.982-35.746 4.874-51.005-10.379"/><path fill="#00b8f0" d="M98.473 70.872a55.26 55.26 0 0 1-2.498 24.533 39.62 39.62 0 0 0-.928 26.45 5.34 5.34 0 0 1-.193 4.081 5.34 5.34 0 0 1-3.023 2.749 5.34 5.34 0 0 1-6.83-3.216 49.95 49.95 0 0 1 .864-33.502 44 44 0 0 0 1.817-21.108"/><path stroke="#45413c" stroke-linecap="round" stroke-linejoin="round" stroke-width="1.6" d="M98.473 70.872a55.26 55.26 0 0 1-2.498 24.533 39.62 39.62 0 0 0-.928 26.45 5.34 5.34 0 0 1-.193 4.081 5.34 5.34 0 0 1-3.023 2.749 5.34 5.34 0 0 1-6.83-3.216 49.95 49.95 0 0 1 .864-33.502 44 44 0 0 0 1.817-21.108"/></svg>