<svg xmlns="http://www.w3.org/2000/svg" width="82" height="82" fill="none" viewBox="0 0 82 82"><path fill="#daedf7" stroke="#daedf7" stroke-linecap="round" stroke-linejoin="round" d="M1 41a40 40 0 1 0 80 0 40 40 0 0 0-80 0"/><path fill="#45413c" d="M21.843 70.72c0 .492 2.084.964 5.794 1.312s8.742.543 13.989.543 10.279-.195 13.989-.543 5.794-.82 5.794-1.312-2.084-.964-5.794-1.312-8.742-.543-13.989-.543-10.279.195-13.989.543-5.794.82-5.794 1.312" opacity=".15"/><path fill="#9ceb60" d="M57.12 25.825S55.4 13.784 49.2 9.029a1.43 1.43 0 0 1-.49-1.489 1.47 1.47 0 0 1 2.1-.952c2.341 1.2 6.619 5.055 10.02 17.382z"/><path fill="#6dd627" d="m57.12 25.825 3.71-1.855a68 68 0 0 0-1.358-4.372l-3.408 1.494c.447 1.555.8 3.136 1.056 4.733"/><path stroke="#45413c" stroke-linecap="round" stroke-linejoin="round" d="M57.12 25.825S55.4 13.784 49.2 9.029a1.43 1.43 0 0 1-.49-1.489 1.47 1.47 0 0 1 2.1-.952c2.341 1.2 6.619 5.055 10.02 17.382z"/><path fill="#9ceb60" d="M56.982 28.8a3.8 3.8 0 0 1-1.355-1.793 2.474 2.474 0 0 1 1.452-3.245l3.23-1.174a2.47 2.47 0 0 1 3.058 1.219 4.8 4.8 0 0 1 .416 3.138z"/><path fill="#e4ffd1" d="M58.641 25.611a2.47 2.47 0 0 1 .474-2.591l-2.036.741a2.47 2.47 0 0 0-1.452 3.244 3.8 3.8 0 0 0 1.355 1.795l3.783-1.032a3.42 3.42 0 0 1-2.124-2.157"/><path stroke="#45413c" stroke-linecap="round" stroke-linejoin="round" d="M56.982 28.8a3.8 3.8 0 0 1-1.355-1.793 2.474 2.474 0 0 1 1.452-3.245l3.23-1.174a2.47 2.47 0 0 1 3.058 1.219 4.8 4.8 0 0 1 .416 3.138z"/><path fill="#ff6242" d="M70.064 33.125c7.419 21.02-14.219 35.857-34.62 35.857-16.162 0-23.4-12.026-25.711-17.025a3.69 3.69 0 0 0-3.346-2.14 1.237 1.237 0 0 1 0-2.473c2.544 0 5.005.9 6.948 2.542a34.12 34.12 0 0 0 22.109 7.968c8.549 0 23.585-7.687 19.331-21.732a8.006 8.006 0 0 1 5.131-9.915 7.417 7.417 0 0 1 9.36 4.627q.373 1.085.798 2.291"/><path fill="#ffa694" d="M38.921 59.941c8.55 0 23.585-7.687 19.332-21.733a8 8 0 0 1 5.13-9.914 7.4 7.4 0 0 1 4.28-.125 7.42 7.42 0 0 0-7.757-1.961 8 8 0 0 0-5.131 9.914c4.254 14.045-10.782 21.732-19.331 21.732a34.3 34.3 0 0 1-16-3.879 34.2 34.2 0 0 0 19.477 5.966"/><path stroke="#45413c" stroke-linecap="round" stroke-linejoin="round" d="M70.064 33.125c7.419 21.02-14.219 35.857-34.62 35.857-16.162 0-23.4-12.026-25.711-17.025a3.69 3.69 0 0 0-3.346-2.14 1.237 1.237 0 0 1 0-2.473c2.544 0 5.005.9 6.948 2.542a34.12 34.12 0 0 0 22.109 7.968c8.549 0 23.585-7.687 19.331-21.732a8.006 8.006 0 0 1 5.131-9.915 7.417 7.417 0 0 1 9.36 4.627q.373 1.085.798 2.291"/></svg>