<svg xmlns="http://www.w3.org/2000/svg" width="89" height="87" fill="none" viewBox="0 0 89 87"><path fill="#b8ecff" d="M84.5 44.005a39.998 39.998 0 0 0-64.477-31.642A40 40 0 0 0 8.064 60.505h72.872a39.84 39.84 0 0 0 3.564-16.5"/><path fill="#ccf7ad" d="M8.064 60.505a40 40 0 0 0 72.872 0z"/><path stroke="#45413c" stroke-linecap="round" stroke-linejoin="round" d="M5.5 60.505h78M1 60.505h2.5M85.5 60.505H88"/><path fill="#ffa694" stroke="#45413c" stroke-linecap="round" stroke-linejoin="round" d="M63.528 41.448h-6.39l1.528-13.2a1.33 1.33 0 0 1 1.322-1.178h.69A1.33 1.33 0 0 1 62 28.248z"/><path fill="#bf8256" stroke="#45413c" stroke-linecap="round" stroke-linejoin="round" d="M65.525 35.058a1.33 1.33 0 0 0-1.331-1.332H55.94v7.855h9.585z"/><path fill="#fff5e3" d="M39.565 30.507v38.498h27.291V44.153z"/><path fill="#f7e5c6" d="M39.565 30.507v3.994l27.291 13.646v-3.994z"/><path stroke="#45413c" stroke-linecap="round" stroke-linejoin="round" d="M39.565 30.507v38.498h27.291V44.153z"/><path fill="#00b8f0" d="M60.865 57.69a1.33 1.33 0 0 0-1.331-1.332H46.221a1.33 1.33 0 0 0-1.331 1.331v11.292h15.975z"/><path fill="#4acfff" d="M53.553 56.358h-7.332a1.33 1.33 0 0 0-1.331 1.331v7.332z"/><path stroke="#45413c" stroke-linecap="round" stroke-linejoin="round" d="M60.865 57.69a1.33 1.33 0 0 0-1.331-1.332H46.221a1.33 1.33 0 0 0-1.331 1.331v11.292h15.975z"/><path fill="#ff6242" stroke="#45413c" stroke-linecap="round" stroke-linejoin="round" d="M70.184 43.663a1.33 1.33 0 0 1-1.926 1.191L37.372 29.411a1.33 1.33 0 0 1-.736-1.191v-1.815a1.332 1.332 0 0 1 1.927-1.19l30.885 15.441a1.33 1.33 0 0 1 .736 1.191z"/><path fill="#00b8f0" d="M44.225 45.042a3.328 3.328 0 1 0 6.656 0 3.328 3.328 0 0 0-6.656 0"/><path stroke="#45413c" stroke-linecap="round" stroke-linejoin="round" d="M52.878 56.358v12.623"/><path fill="#fff5e3" d="M16.933 69.005h22.632V41.823L16.933 52.931z"/><path fill="#f7e5c6" d="M16.933 52.931v3.328l22.632-11.108v-3.328z"/><path stroke="#45413c" stroke-linecap="round" stroke-linejoin="round" d="M16.933 69.005h22.632V41.823L16.933 52.931z"/><path fill="#ff6242" stroke="#45413c" stroke-linecap="round" stroke-linejoin="round" d="M39.565 37.031 14.341 49.443a1.33 1.33 0 0 0-.736 1.19v1.816a1.33 1.33 0 0 0 1.927 1.191l24.033-11.817z"/><path fill="#daedf7" stroke="#45413c" stroke-linecap="round" stroke-linejoin="round" d="M36.237 57.69a1.33 1.33 0 0 0-1.331-1.332H21.593a1.33 1.33 0 0 0-1.331 1.331v11.316h15.975z"/><path stroke="#45413c" stroke-linecap="round" stroke-linejoin="round" d="M20.262 59.686h15.975M20.262 63.014h15.975M20.262 66.342h15.975"/><path fill="#4acfff" d="M50.052 42.866a3.316 3.316 0 1 0-4.676 4.676z"/><path stroke="#45413c" stroke-linecap="round" stroke-linejoin="round" d="M44.225 45.042a3.328 3.328 0 1 0 6.656 0 3.328 3.328 0 0 0-6.656 0M75.895 61.324v-3.618"/><path fill="#6dd627" d="M79.5 54.628a3.606 3.606 0 0 1-7.21 0c0-1.529 2.125-8.91 3.112-12.254a.512.512 0 0 1 .985 0C77.374 45.718 79.5 53.1 79.5 54.628"/><path fill="#6dd627" d="M79.5 54.628a3.606 3.606 0 0 1-7.21 0c0-1.529 2.125-8.91 3.112-12.254a.512.512 0 0 1 .985 0C77.374 45.718 79.5 53.1 79.5 54.628"/><path fill="#9ceb60" d="M78 48.005c-.576-2.1-1.193-4.225-1.608-5.633a.514.514 0 0 0-.986 0 286 286 0 0 0-1.613 5.633 4.6 4.6 0 0 1 4.207 0"/><path stroke="#45413c" stroke-linecap="round" stroke-linejoin="round" d="M79.5 54.628a3.606 3.606 0 0 1-7.21 0c0-1.529 2.125-8.91 3.112-12.254a.512.512 0 0 1 .985 0C77.374 45.718 79.5 53.1 79.5 54.628"/><path fill="#fff" stroke="#45413c" stroke-linecap="round" stroke-linejoin="round" d="M22.475 20.615a3.2 3.2 0 0 0-1.15.222 5.3 5.3 0 0 0-10.48 0A3.192 3.192 0 1 0 9.7 27.005h12.78a3.2 3.2 0 0 0 0-6.39z"/><path fill="#fff" stroke="#45413c" stroke-linecap="round" stroke-linejoin="round" d="M22.475 20.615a3.2 3.2 0 0 0-1.15.222 5.3 5.3 0 0 0-10.48 0A3.192 3.192 0 1 0 9.7 27.005h12.78a3.2 3.2 0 0 0 0-6.39z"/></svg>