<svg xmlns="http://www.w3.org/2000/svg" width="160" height="160" viewBox="0 0 160 160"><path fill="#c7f0ff" stroke="#c7f0ff" stroke-miterlimit="10" stroke-width="1.6" d="M3.762 87.886a64 64 0 1 0 128 0 64 64 0 1 0-128 0Z"/><path fill="#f7e5c6" d="m8.793 61.954 63.679-10.1 10.163 64.07-63.68 10.101Z"/><path fill="#fff" stroke="#45413c" stroke-linecap="round" stroke-linejoin="round" stroke-width="1.6" d="m8.793 61.954 63.679-10.1 10.163 64.07-63.68 10.101Z"/><path fill="none" stroke="#45413c" stroke-linecap="round" stroke-linejoin="round" stroke-width="1.6" d="m15.845 72.117-1.746-11.005M17.192 80.608l-.338-2.123"/><path fill="#c7f0ff" d="m21.53 59.934 63.68-10.1 10.162 64.07-63.68 10.101Z"/><path fill="none" stroke="#45413c" stroke-linecap="round" stroke-linejoin="round" stroke-width="1.6" d="m21.53 59.934 63.68-10.1 10.162 64.07-63.68 10.101ZM26.386 124.846l-3.368-21.225"/><path fill="#fff" d="M89.31 75.696a25.79 25.79 0 0 0 29.512 21.432l-63.68 10.1a25.79 25.79 0 0 1-29.512-21.44l-3.82-24.086a1.79 1.79 0 0 1 1.488-2.048l60.14-9.54a1.79 1.79 0 0 1 2.05 1.488Z"/><path fill="#ff6242" d="m88.029 67.62-63.68 10.1-2.54-16.018a1.79 1.79 0 0 1 1.489-2.048l60.14-9.54a1.79 1.79 0 0 1 2.05 1.488Z"/><path fill="none" stroke="#45413c" stroke-linecap="round" stroke-linejoin="round" stroke-width="1.6" d="M89.31 75.696a25.79 25.79 0 0 0 29.512 21.432l-63.68 10.1a25.79 25.79 0 0 1-29.512-21.44l-3.82-24.086a1.79 1.79 0 0 1 1.488-2.048l60.14-9.54a1.79 1.79 0 0 1 2.05 1.488Z"/><path fill="#e0e0e0" stroke="#45413c" stroke-linecap="round" stroke-linejoin="round" stroke-width="1.6" d="M52.546 51.968a12.8 12.8 0 0 0 .8 2.918l3.68-.584a9.3 9.3 0 0 1-.95-2.896 9.85 9.85 0 1 1 17.618 4.37 1.82 1.82 0 0 0-.379 1.384 1.798 1.798 0 0 0 3.224.776 13.35 13.35 0 0 0 2.055-12.203 13.44 13.44 0 0 0-26.048 6.24Z"/><path fill="#e0e0e0" stroke="#45413c" stroke-linecap="round" stroke-linejoin="round" stroke-width="1.6" d="M33.088 55.054a12.8 12.8 0 0 0 .8 2.919l3.68-.584a9.3 9.3 0 0 1-.949-2.896 9.85 9.85 0 1 1 17.621 4.37 1.82 1.82 0 0 0-.38 1.383 1.798 1.798 0 0 0 3.225.776 13.35 13.35 0 0 0 2.054-12.203 13.44 13.44 0 0 0-26.048 6.24Z"/><path fill="#e0e0e0" stroke="#45413c" stroke-linecap="round" stroke-linejoin="round" stroke-width="1.6" d="M13.63 58.14a12.8 12.8 0 0 0 .8 2.92l3.68-.585a9.3 9.3 0 0 1-.948-2.896 9.85 9.85 0 1 1 17.61 4.37 1.82 1.82 0 0 0-.378 1.384 1.798 1.798 0 0 0 3.224.776 13.35 13.35 0 0 0 2.062-12.203 13.44 13.44 0 0 0-26.048 6.24Z"/><path fill="none" stroke="#45413c" stroke-linecap="round" stroke-linejoin="round" stroke-width="1.6" d="m24.35 77.72 63.679-10.1M41.875 74.94l1.23 7.758a26.02 26.02 0 0 0 29.513 21.76M57.949 72.39l1.173 7.397a26.456 26.456 0 0 0 29.84 22.08M74.651 69.74l1.104 6.962c2.227 14.039 14.75 24.2 28.32 22.765M26.987 90.914 89.88 79.286M34.531 101.518l61.616-12.03"/><path fill="#45413c" d="M29.904 136.866a28.472 2.8 0 1 0 56.944 0 28.472 2.8 0 1 0-56.944 0" opacity=".15"/><path fill="#fff" d="M119.38 8.26a33.637 33.637 0 0 0-27.631 47l-8.115 18.548a1.683 1.683 0 0 0 2.017 2.29l19.309-5.68A33.65 33.65 0 1 0 119.376 8.26Z"/><path fill="#c7f0ff" d="m84.722 71.322 20.238-5.954a33.58 33.58 0 0 0 51.168-26.349 34.5 34.5 0 0 1-.045 6.027 33.613 33.613 0 0 1-51.123 25.372l-19.314 5.68a1.683 1.683 0 0 1-2.017-2.29Z"/><path fill="none" stroke="#45413c" stroke-linecap="round" stroke-linejoin="round" stroke-width="1.6" d="M119.38 8.26a33.637 33.637 0 0 0-27.631 47l-8.115 18.548a1.683 1.683 0 0 0 2.017 2.29l19.309-5.68A33.65 33.65 0 1 0 119.376 8.26Z"/><path fill="#ff6242" stroke="#45413c" stroke-linecap="round" stroke-linejoin="round" stroke-width="1.6" d="M123.74 44.08a1.347 1.347 0 0 1-2.612 0c-5.28-20.782-5.053-19.84-5.072-20.054a6.4 6.4 0 1 1 12.755 0c-.02.208.202-.735-5.072 20.054"/><path fill="#ff6242" d="M122.434 62.026a5.608 5.608 0 1 1 5.6-5.612 5.614 5.614 0 0 1-5.6 5.612"/><path fill="#45413c" d="M122.434 51.61a4.808 4.808 0 1 1-4.8 4.8 4.813 4.813 0 0 1 4.8-4.8m0-1.6a6.408 6.408 0 1 0 6.4 6.4 6.4 6.4 0 0 0-6.4-6.4"/><path fill="#fff" d="M119.38 8.26a33.637 33.637 0 0 0-27.631 47l-8.115 18.548a1.683 1.683 0 0 0 2.017 2.29l19.309-5.68A33.65 33.65 0 1 0 119.376 8.26Z"/><path fill="#c7f0ff" d="m84.722 71.322 20.238-5.954a33.58 33.58 0 0 0 51.168-26.349 34.5 34.5 0 0 1-.045 6.027 33.613 33.613 0 0 1-51.123 25.372l-19.314 5.68a1.683 1.683 0 0 1-2.017-2.29Z"/><path fill="none" stroke="#45413c" stroke-linecap="round" stroke-linejoin="round" stroke-width="1.6" d="M119.38 8.26a33.637 33.637 0 0 0-27.631 47l-8.115 18.548a1.683 1.683 0 0 0 2.017 2.29l19.309-5.68A33.65 33.65 0 1 0 119.376 8.26Z"/><path fill="#ff6242" stroke="#e04122" stroke-linecap="round" stroke-linejoin="round" stroke-width="1.6" d="M123.74 44.08a1.347 1.347 0 0 1-2.612 0c-5.28-20.782-5.053-19.84-5.072-20.054a6.4 6.4 0 1 1 12.755 0c-.02.208.202-.735-5.072 20.054"/><path fill="#ff6242" d="M122.434 62.026a5.608 5.608 0 1 1 5.6-5.612 5.614 5.614 0 0 1-5.6 5.612"/><path fill="#e04122" d="M122.434 51.61a4.808 4.808 0 1 1-4.8 4.8 4.813 4.813 0 0 1 4.8-4.8m0-1.6a6.408 6.408 0 1 0 6.4 6.4 6.4 6.4 0 0 0-6.4-6.4"/></svg>