<svg xmlns="http://www.w3.org/2000/svg" width="100" height="100" fill="none" viewBox="0 0 100 100"><desc>Maze Strategy Streamline Illustration: https://streamlinehq.com</desc><path fill="#e5f8ff" d="M50 93.39c22.091 0 40-17.91 40-40s-17.909-40-40-40-40 17.908-40 40 17.909 40 40 40"/><path stroke="#4acfff" stroke-linecap="round" stroke-linejoin="round" d="M41.614 45.251H25.91M33.986 17.276v18.762a1 1 0 0 0 1 1h6.628M25.911 31.263v21.474a1 1 0 0 1-1 1h-8.967a1 1 0 0 0-1 1v16.857M57.938 14.687v21.351a1 1 0 0 0 1 1H66.7M66.15 28.69h7.076a1 1 0 0 1 1 1v23.465M57.938 28.69H41.614M50.006 28.69v23.465a1 1 0 0 1-1 1H34.763a1 1 0 0 0-1 1V61.4"/><path stroke="#4acfff" stroke-linecap="round" stroke-linejoin="round" d="M25.91 69.887V62.4a1 1 0 0 1 1-1h31.028M74.226 45.045H58.938a1 1 0 0 0-1 1v23.3M18.863 77.69h13.9a1 1 0 0 0 1-1v-6.35a1 1 0 0 1 1-1h14.243a1 1 0 0 1 1 1v7.35"/><path stroke="#4acfff" stroke-linecap="round" stroke-linejoin="round" d="M66.082 53.155V76.69a1 1 0 0 1-1 1H41.614M66.082 61.401h8.144M74.226 69.34h11.896M50 85.153v7.736M41.925 85.153H26.52M82.917 69.34V51.591a1 1 0 0 1 1-1H89.4M74.226 37.918h11.931M46.928 14.006v6.795"/><path stroke="#4acfff" stroke-linecap="round" stroke-linejoin="round" d="M50 92.89a39.5 39.5 0 1 1 0-79M57.938 14.687a39.512 39.512 0 0 1 3.662 76.47M25.91 37.038h-7.047M74.226 77.69h6.908"/><path stroke="#ff4064" stroke-linecap="round" stroke-linejoin="round" d="M53.916 10.357v11.9a2 2 0 0 1-2 2h-11.91a2 2 0 0 0-2 2v4.785a2 2 0 0 0 2 2h3.5a2 2 0 0 1 2 2v12.905a2 2 0 0 1-2 2H31.66a2 2 0 0 0-2 2v4.23a2 2 0 0 1-2 2h-4.8a2 2 0 0 0-2 2v12.7a2 2 0 0 0 2 2h4.44a2 2 0 0 0 2-2V68.6a2 2 0 0 1 2-2h20.616a2 2 0 0 1 2 2v4.281a2 2 0 0 0 2 2h4.653a2 2 0 0 0 2-2V52.127a2 2 0 0 1 2-2h4.364a2 2 0 0 1 2 2v2.637a2 2 0 0 0 2 2h4a2 2 0 0 1 2 2v4.875a2 2 0 0 1-2 2h-4a2 2 0 0 0-2 2v13.907a2 2 0 0 1-2 2H56.546a2 2 0 0 0-2 2V98.39"/><path fill="#ff4064" stroke="#ff4064" stroke-linecap="round" stroke-linejoin="round" d="m60.941 10.357-7.025-8.746-7.026 8.746z"/></svg>