<svg xmlns="http://www.w3.org/2000/svg" width="100" height="100" fill="none" viewBox="0 0 100 100"><path fill="#daedf7" stroke="#daedf7" d="M9.924 50a40 40 0 1 0 80 0 40 40 0 0 0-80 0Z"/><path fill="#45413c" d="M25.762 74.587c0 .526 2.12 1.03 5.895 1.403 3.774.372 8.893.581 14.23.581s10.456-.209 14.23-.581 5.895-.877 5.895-1.403-2.12-1.03-5.895-1.403c-3.774-.372-8.892-.581-14.23-.581-5.337 0-10.456.21-14.23.581-3.775.372-5.895.877-5.895 1.403M66.587 79.389c0 .526.97 1.03 2.695 1.403 1.725.372 4.065.581 6.505.581s4.78-.209 6.505-.581c1.726-.372 2.695-.877 2.695-1.403s-.97-1.03-2.695-1.403c-1.725-.372-4.065-.581-6.505-.581s-4.78.21-6.505.581c-1.726.372-2.695.877-2.695 1.403" opacity=".15"/><path fill="#87898c" stroke="#45413c" stroke-linecap="round" stroke-linejoin="round" d="M81.035 31.8a6.9 6.9 0 0 1-2.1-12.575 1.723 1.723 0 0 1 2.615 1.85 1.73 1.73 0 0 1-.788 1.076 3.45 3.45 0 0 0-1.1 4.753A3.534 3.534 0 0 0 84.415 28a3.45 3.45 0 0 0 1.1-4.753 1.726 1.726 0 1 1 2.926-1.827 6.9 6.9 0 0 1-7.406 10.38"/><path fill="#adc4d9" stroke="#45413c" stroke-linecap="round" stroke-linejoin="round" d="M67.325 45.153a2.876 2.876 0 0 1 .447-5.671c.438-.034 9.714-.915 11.323-12.021a2.875 2.875 0 0 1 5.691.824C82.951 40.95 73.107 44.9 68.158 45.22q-.422.027-.833-.067"/><path stroke="#45413c" stroke-linecap="round" stroke-linejoin="round" d="M72.817 37.733a4.745 4.745 0 0 1 1.829 5.575M76.7 34.039a4.74 4.74 0 0 1 4.154 4.076M78.577 29.91a4.744 4.744 0 0 1 5.494 1.9"/><path fill="#87898c" stroke="#45413c" stroke-linecap="round" stroke-linejoin="round" d="M12.362 31.8a6.9 6.9 0 0 0 2.1-12.575 1.723 1.723 0 0 0-2.615 1.85 1.73 1.73 0 0 0 .788 1.076 3.45 3.45 0 0 1 1.1 4.753A3.534 3.534 0 0 1 8.981 28a3.45 3.45 0 0 1-1.1-4.753 1.724 1.724 0 0 0-2.925-1.827 6.9 6.9 0 0 0 7.406 10.38"/><path fill="#adc4d9" stroke="#45413c" stroke-linecap="round" stroke-linejoin="round" d="M26.071 45.153a2.876 2.876 0 0 0-.447-5.671c-.438-.034-9.713-.915-11.323-12.021a2.875 2.875 0 1 0-5.691.824C10.445 40.95 20.289 44.9 25.238 45.22q.422.027.833-.067"/><path stroke="#45413c" stroke-linecap="round" stroke-linejoin="round" d="M20.579 37.733a4.745 4.745 0 0 0-1.828 5.575M16.7 34.039a4.745 4.745 0 0 0-4.154 4.076M14.819 29.91a4.744 4.744 0 0 0-5.494 1.9"/><path fill="#fff" stroke="#fff" d="M25.187 25.453h41.4v48.3h-41.4z"/><path fill="#daedf7" d="M30.937 55.353a14.95 14.95 0 1 0 29.9 0 14.95 14.95 0 0 0-29.9 0"/><path fill="#adc4d9" d="M34.387 55.353a3.45 3.45 0 0 1-3.45 3.45h-5.75V42.7h5.75a3.45 3.45 0 0 1 3.45 3.45z"/><path fill="#fffacf" d="M66.369 28.65H51.292a3.47 3.47 0 0 0-2.438 1.012l-2.806 2.806a3.42 3.42 0 0 1-2.438 1.012H25.187v-3.427a4.6 4.6 0 0 1 4.6-4.6h32.2a4.61 4.61 0 0 1 4.382 3.197"/><path fill="#fffef2" d="M29.787 28.65h36.582a4.61 4.61 0 0 0-4.382-3.2h-32.2a4.6 4.6 0 0 0-4.6 4.6v3.2a4.6 4.6 0 0 1 4.6-4.6"/><path fill="#f8f8f8" d="M94.187 43.853a1.9 1.9 0 0 0 1.875-2.253c-4.443-22.081-3.921-25.346-8.775-25.346a4.6 4.6 0 0 0-4.6 4.6v20.7a2.307 2.307 0 0 0 2.3 2.3h.575a2.307 2.307 0 0 0 2.3 2.3h3.45a2.307 2.307 0 0 0 2.3-2.3z"/><path fill="#fff" d="M85.562 43.853v-12.65Z"/><path stroke="#45413c" stroke-linecap="round" stroke-linejoin="round" d="M85.562 43.853v-12.65"/><path fill="#fff" d="m93.612 43.853-2.3-11.5Z"/><path stroke="#45413c" stroke-linecap="round" stroke-linejoin="round" d="m93.612 43.853-2.3-11.5"/><path fill="#fff" d="M92.991 25.729c-1.506-3.99-3-4.876-6.543-4.876a8.3 8.3 0 0 0-3.761.863v-.863a4.6 4.6 0 0 1 4.6-4.6c3.308 0 4.119 1.517 5.707 9.476"/><path stroke="#45413c" stroke-linecap="round" stroke-linejoin="round" d="M94.187 43.853a1.9 1.9 0 0 0 1.875-2.253c-4.443-22.081-3.921-25.346-8.775-25.346a4.6 4.6 0 0 0-4.6 4.6v20.7a2.307 2.307 0 0 0 2.3 2.3h.575a2.307 2.307 0 0 0 2.3 2.3h3.45a2.307 2.307 0 0 0 2.3-2.3zM66.369 28.65H51.292a3.47 3.47 0 0 0-2.438 1.012l-2.806 2.806a3.42 3.42 0 0 1-2.438 1.012H25.187v-3.427a4.6 4.6 0 0 1 4.6-4.6h32.2a4.61 4.61 0 0 1 4.382 3.197"/><path fill="#45413c" d="M28.637 30.053a1.15 1.15 0 1 0 2.3 0 1.15 1.15 0 0 0-2.3 0M33.237 30.053a1.15 1.15 0 1 0 2.3 0 1.15 1.15 0 0 0-2.3 0M37.837 30.053a1.15 1.15 0 1 0 2.3 0 1.15 1.15 0 0 0-2.3 0"/><path stroke="#45413c" stroke-linecap="round" stroke-linejoin="round" d="M25.187 25.453h41.4v48.3h-41.4z"/><path fill="#dabff5" d="M69.713 56.49a8.05 8.05 0 1 0 16.099 0 8.05 8.05 0 0 0-16.099 0"/><path fill="#eddbff" d="M70.049 58.8a8.052 8.052 0 0 1 15.429 0 8.05 8.05 0 1 0-15.429 0"/><path stroke="#45413c" stroke-linecap="round" stroke-linejoin="round" d="M69.713 56.49a8.05 8.05 0 1 0 16.099 0 8.05 8.05 0 0 0-16.099 0"/><path fill="#8cffe4" d="m86.963 56.49-2.473 16.5-.54 3.565a3.2 3.2 0 0 1-.253.874 3.46 3.46 0 0 1-3.151 2.058H71.53a3.45 3.45 0 0 1-3.4-2.932l-1.564-10.4-1.453-9.665z"/><path fill="#00dba8" d="m84.031 76-.08.563a3.457 3.457 0 0 1-3.404 2.933h-9.016a3.45 3.45 0 0 1-3.4-2.933L68.046 76q.458.063.92.057H83.1q.467-.002.931-.057"/><path fill="#ffe500" d="m86.963 56.49-2.473 16.5-.54 3.565a3.2 3.2 0 0 1-.253.874c-5.473-4.449-12.48-15.89-7.843-21.517 1.679-1.952 4.979-3.504 11.109.578"/><path fill="#fff48c" d="M86.458 59.884c-5.808-3.668-8.97-2.139-10.6-.241a5.34 5.34 0 0 0-1.27 3.236c-.52-2.646-.252-5.118 1.269-6.964 1.679-1.955 4.979-3.507 11.109.575z"/><path stroke="#45413c" stroke-linecap="round" stroke-linejoin="round" d="m86.963 56.49-2.473 16.5-.54 3.565a3.2 3.2 0 0 1-.253.874c-5.473-4.449-12.48-15.89-7.843-21.517 1.679-1.952 4.979-3.504 11.109.578"/><path fill="#f8f8f8" d="M76.613 57.64a8.2 8.2 0 0 1-2.113 3.14 27.5 27.5 0 0 1-7.935 5.382l-1.452-9.672s1.15-3.45 5.75-3.45a5.62 5.62 0 0 1 4.991 2.875q.172.3.31.575.278.555.449 1.15"/><path fill="#fff" d="M65.516 59.148a6 6 0 0 1 5.348-2.648 5.58 5.58 0 0 1 4.9 2.742 5.7 5.7 0 0 0 .847-1.6 6.7 6.7 0 0 0-.449-1.15 14 14 0 0 0-.31-.575 5.62 5.62 0 0 0-4.991-2.875c-4.6 0-5.75 3.45-5.75 3.45l.4 2.659"/><path stroke="#45413c" stroke-linecap="round" stroke-linejoin="round" d="m86.963 56.49-2.473 16.5-.54 3.565a3.2 3.2 0 0 1-.253.874 3.46 3.46 0 0 1-3.151 2.058H71.53a3.45 3.45 0 0 1-3.4-2.932l-1.564-10.4-1.453-9.665z"/><path stroke="#45413c" stroke-linecap="round" stroke-linejoin="round" d="M76.613 57.64a8.2 8.2 0 0 1-2.113 3.14 27.5 27.5 0 0 1-7.935 5.382l-1.452-9.672s1.15-3.45 5.75-3.45a5.62 5.62 0 0 1 4.991 2.875q.172.3.31.575.278.555.449 1.15"/><path stroke="#45413c" stroke-linecap="round" stroke-linejoin="round" d="M83.954 76.552a3.45 3.45 0 0 1-3.412 2.938h-9.008a3.45 3.45 0 0 1-3.412-2.938L65.113 56.49h21.85zM62.813 56.49h26.45M66.737 67.314 78.913 79.49M66.263 56.49l18 18M76.613 56.49l9 9M85.542 65.96 72.013 79.49M84.663 56.49l-17 17M74.313 56.49l-8 8"/><path fill="#daedf7" d="M25.187 45.5h5.75a3.445 3.445 0 0 1 3.45 3.45v-2.8a3.45 3.45 0 0 0-3.45-3.45h-5.75z"/><path stroke="#45413c" d="M34.387 55.353a3.45 3.45 0 0 1-3.45 3.45h-5.75V42.7h5.75a3.45 3.45 0 0 1 3.45 3.45z"/><path fill="#adc4d9" d="M30.937 50.753a14.95 14.95 0 1 0 29.9 0 14.95 14.95 0 0 0-29.9 0"/><path fill="#adc4d9" d="M31.038 52.5a14.947 14.947 0 0 1 29.7 0q.1-.87.1-1.745a14.95 14.95 0 1 0-29.8 1.745"/><path stroke="#45413c" d="M30.937 50.753a14.95 14.95 0 1 0 29.9 0 14.95 14.95 0 0 0-29.9 0Z"/><path fill="#00b8f0" d="M34.387 50.753a11.5 11.5 0 1 0 23 0 11.5 11.5 0 0 0-23 0"/><path fill="#4acfff" d="M37.7 58.827A11.5 11.5 0 0 1 54.077 42.68z"/><path fill="#fff" stroke="#009fd9" stroke-linecap="round" stroke-linejoin="round" d="M38.987 50.753c0 .915.182 1.792.505 2.44.324.647.763 1.01 1.22 1.01s.896-.364 1.22-1.01c.323-.648.505-1.525.505-2.44s-.182-1.792-.505-2.44c-.324-.647-.763-1.01-1.22-1.01-.458 0-.896.364-1.22 1.01-.323.648-.505 1.525-.505 2.44M49.337 50.753c0 .915.182 1.792.505 2.44.324.647.763 1.01 1.22 1.01.458 0 .896-.364 1.22-1.01.323-.648.505-1.525.505-2.44s-.182-1.792-.505-2.44c-.324-.647-.762-1.01-1.22-1.01s-.896.364-1.22 1.01c-.323.648-.505 1.525-.505 2.44"/><path stroke="#45413c" d="M34.387 50.753a11.5 11.5 0 1 0 23 0 11.5 11.5 0 0 0-23 0Z"/><path fill="#adc4d9" d="M56.237 46.153h5.75v9.2h-5.75z"/><path fill="#daedf7" d="M56.237 49.925a1.154 1.154 0 0 1 1.15-1.15h3.45a1.153 1.153 0 0 1 1.15 1.15V47.3a1.15 1.15 0 0 0-1.15-1.15h-3.45a1.15 1.15 0 0 0-1.15 1.15z"/><path stroke="#45413c" d="M56.237 46.153h5.75v9.2h-5.75z"/></svg>