<svg xmlns="http://www.w3.org/2000/svg" width="100" height="100" fill="none" viewBox="0 0 100 100"><path fill="#daedf7" stroke="#daedf7" stroke-miterlimit="10" d="M50 97c22.091 0 40-17.909 40-40S72.091 17 50 17 10 34.909 10 57s17.909 40 40 40Z"/><path fill="#fff" stroke="#45413c" stroke-linejoin="round" d="M64.861 5.653A2.655 2.655 0 0 0 62.207 3H39.653A2.653 2.653 0 0 0 37 5.653v20.565a2.653 2.653 0 0 0 2.653 2.653h4.868a1.1 1.1 0 0 1 1.1 1.1v2.87a1.1 1.1 0 0 0 1.882.779l4.428-4.428a1.1 1.1 0 0 1 .78-.323h9.493a2.654 2.654 0 0 0 2.654-2.654z"/><path fill="#ffcebf" d="m25.194 91.259.299-6.439h-4.478v6.439z"/><path fill="#ffb59e" d="m25.344 88.037.149-3.217h-4.478v3.217z"/><path stroke="#45413c" stroke-linecap="round" stroke-linejoin="round" d="m25.194 91.259.299-6.439h-4.478v6.439z"/><path fill="#ffcebf" d="m30.766 91.259-.299-6.439h4.478v6.439z"/><path fill="#ffb59e" d="m30.616 88.037-.149-3.217h4.478v3.217z"/><path stroke="#45413c" stroke-linecap="round" stroke-linejoin="round" d="m30.766 91.259-.299-6.439h4.478v6.439z"/><path fill="#e09f7e" d="M38.428 62.266a11.144 11.144 0 1 0-22.288 0v1.392h4.178v9.055h15.324v-9.055h2.786z"/><path fill="#f0c2a1" d="M27.284 51.121A11.144 11.144 0 0 0 16.14 62.266v1.392h.2a11.137 11.137 0 0 1 21.894 0h.2v-1.392a11.145 11.145 0 0 0-11.15-11.145"/><path stroke="#45413c" stroke-linecap="round" stroke-linejoin="round" d="M38.428 62.266a11.144 11.144 0 1 0-22.288 0v1.392h4.178v9.055h15.324v-9.055h2.786z"/><path fill="#45413c" d="M28.873 96.62c6.393 0 11.576-.777 11.576-1.736s-5.183-1.736-11.576-1.736-11.576.777-11.576 1.736 5.183 1.736 11.576 1.736" opacity=".15"/><path fill="#e09f7e" d="M25.093 85.251a1.16 1.16 0 0 0 1.156-1.1l.278-5.174a1.455 1.455 0 0 1 2.907 0l.278 5.174a1.16 1.16 0 0 0 1.156 1.1h3.616a1.16 1.16 0 0 0 1.158-1.158V71.321H20.318v12.772a1.16 1.16 0 0 0 1.158 1.158z"/><path fill="#bf8256" d="M35.641 72.713H20.318v2.786h15.323z"/><path stroke="#45413c" stroke-linecap="round" stroke-linejoin="round" d="M26.527 78.981a1.455 1.455 0 0 1 2.907 0l.278 5.174a1.16 1.16 0 0 0 1.156 1.1h3.616a1.16 1.16 0 0 0 1.158-1.158V71.321H20.318v12.772a1.16 1.16 0 0 0 1.158 1.158h3.617a1.16 1.16 0 0 0 1.156-1.1z"/><path fill="#87898c" stroke="#45413c" stroke-linecap="round" stroke-linejoin="round" d="M37.731 94.305c0-2.494-2.437-3.482-4.594-3.482h-1.909a1.16 1.16 0 0 0-1.158 1.158v1.167a1.157 1.157 0 0 0 1.158 1.157zM27.98 94.305c0-2.494-2.438-3.482-4.594-3.482h-1.91a1.16 1.16 0 0 0-1.158 1.158v1.167a1.16 1.16 0 0 0 1.158 1.157z"/><path fill="#ffcebf" stroke="#45413c" stroke-linecap="round" stroke-linejoin="round" d="M20.318 76.2a2.088 2.088 0 1 1-4.178 0V63.658h4.178z"/><path stroke="#45413c" stroke-linecap="round" stroke-linejoin="round" d="M35.642 63.658V59.48M20.318 63.658V59.48"/><path fill="#ffcebf" stroke="#45413c" stroke-linecap="round" stroke-linejoin="round" d="M30.328 51.548a1 1 0 0 1-.729-.963v-4.387h-4.6v4.381a1 1 0 0 1-.73.962l-.1.028 3.8 6.518 3.568-6.117a11 11 0 0 0-1.209-.422"/><path fill="#f0c2a1" stroke="#45413c" stroke-linecap="round" stroke-linejoin="round" d="M33.484 53.005a11 11 0 0 0-1.936-1.034l-3.568 6.116a11.83 11.83 0 0 1 5.6-2.68.58.58 0 0 0 .458-.754zM27.98 58.087l-3.8-6.517q-.713.203-1.391.5l-.86 2.579a.582.582 0 0 0 .459.754c2.07.381 4 1.308 5.592 2.684"/><path stroke="#45413c" stroke-linecap="round" stroke-linejoin="round" d="M27.98 58.087v3.482"/><path fill="#a86c4d" stroke="#45413c" stroke-linecap="round" stroke-linejoin="round" d="M35.641 70.624H20.318v2.787h15.323z"/><path fill="#ffe500" stroke="#45413c" stroke-linecap="round" stroke-linejoin="round" d="M30.07 70.624h-4.179v2.787h4.179z"/><path fill="#debb7e" stroke="#45413c" stroke-linecap="round" stroke-linejoin="round" d="M43 59.48H31.07a1 1 0 0 0-1 1v11.931a1 1 0 0 0 1 1H43a1 1 0 0 0 1-1V60.48a1 1 0 0 0-1-1"/><path fill="#ffcebf" stroke="#45413c" stroke-linecap="round" stroke-linejoin="round" d="M43.079 70.377a2.09 2.09 0 0 0-2.82-.943 2.09 2.09 0 0 0-1.138 2.042c.023.276.101.544.229.789l.736 1.453a1.16 1.16 0 0 0 1.556.51l1.663-.843a1.16 1.16 0 0 0 .509-1.556z"/><path fill="#f7e5c6" stroke="#45413c" stroke-linecap="round" stroke-linejoin="round" d="M38.625 65.748h-3.18a.5.5 0 0 1-.5-.5V59.48h4.18v5.768a.5.5 0 0 1-.5.5"/><path fill="#ffcebf" stroke="#45413c" stroke-linecap="round" stroke-linejoin="round" d="M28.677 33.405a6.965 6.965 0 0 0-6.965 6.966v1.392c-1.989 0-1.853 3.483.348 3.483h.006a6.946 6.946 0 0 0 13.576-2.088v-2.787a6.965 6.965 0 0 0-6.965-6.966"/><path fill="#45413c" d="M27.458 41.763a.87.87 0 1 0 0 1.742.87.87 0 0 0 0-1.742M32.682 41.763a.87.87 0 1 0 0 1.742.87.87 0 0 0 0-1.742"/><path fill="#ffb59e" d="M26.587 44.723a.7.7 0 1 1-1.399 0 .7.7 0 0 1 1.399 0"/><path stroke="#45413c" stroke-linecap="round" stroke-linejoin="round" d="M28.677 46.7a2.09 2.09 0 0 0 2.459.231q.173-.102.327-.231"/><path fill="#ffc44d" stroke="#45413c" stroke-linecap="round" stroke-linejoin="round" d="M20.318 43.33v-7.835H23.8v4.352a3.48 3.48 0 0 1-3.482 3.483"/><path fill="#915e3a" stroke="#45413c" stroke-linecap="round" stroke-linejoin="round" d="M32.642 31.315h-9.324a3 3 0 0 0-3 3v3.269h15.324v-3.269a3 3 0 0 0-3-3"/><path fill="#915e3a" d="M27.98 31.315s-4.18 2.09-4.18 5.572z"/><path stroke="#45413c" stroke-linejoin="round" d="M27.98 31.315s-4.18 2.09-4.18 5.572"/><path fill="#915e3a" d="M27.98 31.315s4.179 2.09 4.179 5.572z"/><path stroke="#45413c" stroke-linejoin="round" d="M27.98 31.315s4.179 2.09 4.179 5.572"/><path fill="#e09f7e" stroke="#45413c" stroke-linecap="round" stroke-linejoin="round" d="m20.318 37.584 1.582 2.109a1.16 1.16 0 0 0 1.265.413 24.2 24.2 0 0 1 11.7.015 1.158 1.158 0 0 0 1.269-1.72l-.49-.817c-2.788-1.393-9.753-1.393-15.326 0"/><path fill="#bf8256" stroke="#45413c" stroke-linecap="round" stroke-linejoin="round" d="M59.726 76.5a2.09 2.09 0 0 0 4.179 0V63.962h-4.179z"/><path fill="#45413c" d="M68.987 96.924c6.393 0 11.576-.777 11.576-1.736s-5.183-1.736-11.576-1.736-11.576.777-11.576 1.736 5.183 1.736 11.576 1.736" opacity=".15"/><path fill="#87898c" d="m72.349 92.716-.721-13.432a1.455 1.455 0 0 0-2.908 0L68 92.721l-5.487-.013V71.624h15.323v21.1z"/><path fill="#87898c" d="M77.835 73.017H62.512v2.786h15.323z"/><path stroke="#45413c" stroke-linecap="round" stroke-linejoin="round" d="m72.349 92.716-.721-13.432a1.455 1.455 0 0 0-2.908 0L68 92.721l-5.487-.013V71.624h15.323v21.1z"/><path fill="#debb7e" stroke="#45413c" stroke-linecap="round" stroke-linejoin="round" d="M60.423 94.609c0-2.494 2.437-3.482 4.594-3.482h3.068v2.324a1.16 1.16 0 0 1-1.158 1.158zM70.174 94.609c0-2.494 2.438-3.482 4.595-3.482h3.067v2.324a1.16 1.16 0 0 1-1.158 1.158z"/><path fill="#ffe500" d="M59.726 62.57a11.144 11.144 0 1 1 22.288 0v1.392h-4.178v9.055H62.512v-9.055h-2.786z"/><path fill="#fff48c" d="M70.871 51.425A11.145 11.145 0 0 0 59.726 62.57v1.392h.2a11.138 11.138 0 0 1 21.895 0h.2V62.57a11.144 11.144 0 0 0-11.15-11.145"/><path stroke="#45413c" stroke-linecap="round" stroke-linejoin="round" d="M59.726 62.57a11.144 11.144 0 1 1 22.288 0v1.392h-4.178v9.055H62.512v-9.055h-2.786zM62.512 63.962v-4.179M77.836 63.962v-4.179"/><path fill="#bf8256" stroke="#45413c" stroke-linecap="round" stroke-linejoin="round" d="M73.605 51.777a.57.57 0 0 1-.432-.555V47.63h-4.6v3.261a1 1 0 0 1-.73.962q-.569.158-1.117.377a3.45 3.45 0 1 0 6.879-.453"/><path fill="#bf8256" stroke="#45413c" stroke-miterlimit="10" d="M77.836 63.962v.7c0 3.826-3.3 6.269-5.573 6.269h-1.392a2.09 2.09 0 1 0 0 4.179h1.392c4.6 0 9.751-4.467 9.751-10.448v-.7z"/><path fill="#bf8256" stroke="#45413c" stroke-linecap="round" stroke-linejoin="round" d="M70.174 33.674a6.98 6.98 0 0 1 6.979 6.98v1.395c1.993 0 1.856 3.49-.349 3.49H76.8a6.96 6.96 0 0 1-13.6-2.093v-2.792a6.98 6.98 0 0 1 6.974-6.98"/><path fill="#45413c" d="M71.4 42.05a.872.872 0 1 0 0 1.744.872.872 0 0 0 0-1.744M66.16 42.05a.872.872 0 1 0 .002 1.745.872.872 0 0 0-.002-1.745"/><path fill="#bf8256" d="M72.267 45.016a.7.7 0 1 0 1.4 0 .7.7 0 0 0-1.4 0"/><path stroke="#45413c" stroke-linecap="round" stroke-linejoin="round" d="M70.174 47a2.095 2.095 0 0 1-2.464.231 2.4 2.4 0 0 1-.328-.231"/><path fill="#614b44" stroke="#45413c" stroke-linecap="round" stroke-linejoin="round" d="M77.851 38.109v3.94a3.49 3.49 0 0 1-3.49-3.489v-.73a1.4 1.4 0 0 1 1.915-1.3l.7.279a1.4 1.4 0 0 1 .875 1.3"/><path stroke="#45413c" stroke-linecap="round" stroke-linejoin="round" d="M66.684 38.56h4.188M68.778 36.466h1.396"/><path fill="#fff" d="m59.273 16.075-1.548.954a4.909 4.909 0 1 1-5.13-8.371l1.549-.955a4.91 4.91 0 0 1 5.13 8.372m-5.537-5.558a2.728 2.728 0 0 0 2.85 4.651l1.547-.954a2.724 2.724 0 0 0 .927-3.766 2.726 2.726 0 0 0-3.777-.884z"/><path fill="#daedf7" d="m55.393 8.697-1.548.954a2.73 2.73 0 0 0-1.3 2.421 2.73 2.73 0 0 1 1.19-1.555l1.548-.954a2.727 2.727 0 0 1 4.15 2.21 2.7 2.7 0 0 0-.29-2.176 2.726 2.726 0 0 0-3.75-.9"/><path fill="#daedf7" d="M50.368 11.788a4.907 4.907 0 0 0 7.357 5.241l1.548-.954a4.91 4.91 0 0 0 2.34-4.034 4.87 4.87 0 0 1-2.231 3.168l-1.548.954a4.916 4.916 0 0 1-6.75-1.621 4.85 4.85 0 0 1-.716-2.754"/><path stroke="#45413c" d="m59.273 16.075-1.548.954a4.909 4.909 0 1 1-5.13-8.371l1.549-.955a4.91 4.91 0 0 1 5.13 8.372Zm-5.537-5.558a2.728 2.728 0 0 0 2.85 4.651l1.547-.954a2.724 2.724 0 0 0 .927-3.766 2.726 2.726 0 0 0-3.777-.884z"/><path fill="#fff" d="m49.187 22.296-1.547.955a4.91 4.91 0 1 1-5.13-8.372l1.548-.954a4.91 4.91 0 1 1 5.13 8.371m-5.537-5.558a2.727 2.727 0 0 0 2.85 4.65l1.547-.955a2.728 2.728 0 1 0-2.85-4.65z"/><path fill="#daedf7" d="m45.307 14.92-1.548.954a2.73 2.73 0 0 0-1.3 2.421 2.72 2.72 0 0 1 1.191-1.555l1.548-.954a2.727 2.727 0 0 1 4.15 2.21 2.7 2.7 0 0 0-.291-2.176 2.727 2.727 0 0 0-3.75-.9"/><path fill="#daedf7" d="M40.283 18.01a4.907 4.907 0 0 0 7.357 5.241l1.547-.954a4.91 4.91 0 0 0 2.343-4.034 4.87 4.87 0 0 1-2.233 3.168l-1.547.954A4.916 4.916 0 0 1 41 20.764a4.85 4.85 0 0 1-.717-2.754"/><path stroke="#45413c" d="m49.187 22.296-1.547.955a4.91 4.91 0 1 1-5.13-8.372l1.548-.954a4.91 4.91 0 1 1 5.13 8.371Zm-5.537-5.558a2.727 2.727 0 0 0 2.85 4.65l1.547-.955a2.728 2.728 0 1 0-2.85-4.65z"/><path fill="#fff" d="m55.641 13.862-8.372 5.13a1.091 1.091 0 0 1-1.14-1.86l8.372-5.13a1.092 1.092 0 0 1 1.14 1.86"/><path fill="#daedf7" d="m48.664 18.136-1.395.855a1.09 1.09 0 0 1-1.631-1.185 1.1 1.1 0 0 1 .49-.675l1.396-.856a1.091 1.091 0 0 0 1.14 1.861"/><path stroke="#45413c" d="m55.641 13.862-8.372 5.13a1.091 1.091 0 0 1-1.14-1.86l8.372-5.13a1.092 1.092 0 0 1 1.14 1.86Z"/></svg>