<svg xmlns="http://www.w3.org/2000/svg" width="100" height="100" viewBox="0 0 100 100"><desc>Spaghetti Meatball Fork Streamline Illustration: https://streamlinehq.com</desc><path fill="#daedf7" stroke="#daedf7" stroke-linecap="round" stroke-linejoin="round" d="M10 53.916a40 40 0 1 0 80 0 40 40 0 1 0-80 0"/><path fill="#adc4d9" d="M35.81 85.591a1.177 1.177 0 0 1-2.354 0L32.9 52.02c0-6.264 3.685-13.435 9.006-16.55a6.96 6.96 0 0 0 3.437-6.233c-.148-4.38-.411-7.646-.867-23.153h8.1l-.893 23.148a6.96 6.96 0 0 0 3.444 6.227c5.331 3.109 9.026 10.289 9.026 16.561l-.56 33.571a1.177 1.177 0 0 1-2.354 0l-.511-30.678a2.943 2.943 0 0 0-5.885 0l-.511 30.678a1.177 1.177 0 0 1-2.354 0l-.511-30.678a2.943 2.943 0 0 0-5.885 0l-.511 30.678a1.177 1.177 0 0 1-2.354 0l-.511-30.678a2.943 2.943 0 0 0-5.885 0Z"/><path fill="#adc4d9" d="m53.155 80.96-1.25.25-.438-26.3a3 3 0 0 0-.067-.579h3.51a3 3 0 0 0-.067.579l-.438 26.3ZM42.67 82.79l-.464-27.877a3 3 0 0 0-.067-.579h3.51a3 3 0 0 0-.067.579l-.456 27.4ZM33.433 84.17l-.5-29.836h3.453a3 3 0 0 0-.067.579l-.478 28.675ZM60.759 56.799l3.31.221-.437 26.255-2.445-.834z"/><path fill="none" stroke="#45413c" stroke-linecap="round" stroke-linejoin="round" d="m52.576 6.084-.893 23.148a6.96 6.96 0 0 0 3.444 6.227c5.331 3.109 9.026 10.289 9.026 16.561l-.56 33.571a1.177 1.177 0 0 1-2.354 0l-.511-30.678a2.943 2.943 0 0 0-5.885 0l-.511 30.678a1.177 1.177 0 0 1-2.354 0l-.511-30.678a2.943 2.943 0 0 0-5.885 0l-.511 30.678a1.177 1.177 0 0 1-2.354 0l-.511-30.678a2.943 2.943 0 0 0-5.885 0l-.511 30.678a1.177 1.177 0 0 1-2.354 0L32.9 52.02c0-6.264 3.685-13.435 9.006-16.55a6.96 6.96 0 0 0 3.437-6.233c-.148-4.38-.411-7.646-.867-23.153"/><path fill="#9ceb60" d="M37.232 53.992c4.664 5.264 12.442 4.443 12.442 4.443s1.753-7.623-2.91-12.887a14.1 14.1 0 0 0-8.843-4.33A3.474 3.474 0 0 0 34 44.7a14.08 14.08 0 0 0 3.232 9.292"/><path fill="#6dd627" d="M46.48 53.714a1.593 1.593 0 0 0 2.146-.77 18 18 0 0 1 .946-1.8 18 18 0 0 1 .1 7.287s-7.778.821-12.442-4.443a12.85 12.85 0 0 1-2.938-6.219Z"/><path fill="none" stroke="#f0ffe5" stroke-linecap="round" stroke-linejoin="round" d="M49.674 58.435 38.927 46.304"/><path fill="none" stroke="#45413c" stroke-linecap="round" stroke-linejoin="round" d="M37.232 53.992c4.664 5.264 12.442 4.443 12.442 4.443s1.753-7.623-2.91-12.887a14.1 14.1 0 0 0-8.843-4.33A3.474 3.474 0 0 0 34 44.7a14.08 14.08 0 0 0 3.232 9.292"/><path fill="none" stroke="#f0ffe5" stroke-linecap="round" stroke-linejoin="round" d="m41.861 45.252-.247 4.085M44.932 48.718l-.247 4.085M37.529 49.09l4.085.247M40.599 52.556l4.086.247"/><path fill="#9ceb60" d="M60.6 54.052c-4.723 5.211-12.492 4.3-12.492 4.3s-1.662-7.641 3.061-12.852a14.08 14.08 0 0 1 8.891-4.23 3.473 3.473 0 0 1 3.882 3.53 14.08 14.08 0 0 1-3.342 9.252"/><path fill="#6dd627" d="M53.069 55.306a2.316 2.316 0 0 1-2.41-2.183 15.68 15.68 0 0 1 2.052-9.043 12 12 0 0 0-1.542 1.42c-4.723 5.21-3.057 12.853-3.057 12.853s7.769.909 12.492-4.3a11.7 11.7 0 0 0 1.263-1.674 15.67 15.67 0 0 1-8.798 2.927"/><path fill="none" stroke="#f0ffe5" stroke-linecap="round" stroke-linejoin="round" d="m48.112 58.354 10.884-12.008"/><path fill="none" stroke="#45413c" stroke-linecap="round" stroke-linejoin="round" d="M60.6 54.052c-4.723 5.211-12.492 4.3-12.492 4.3s-1.662-7.641 3.061-12.852a14.08 14.08 0 0 1 8.891-4.23 3.473 3.473 0 0 1 3.882 3.53 14.08 14.08 0 0 1-3.342 9.252"/><path fill="none" stroke="#f0ffe5" stroke-linecap="round" stroke-linejoin="round" d="m56.074 45.26.201 4.088M52.965 48.691l.2 4.087M60.363 49.147l-4.088.201M57.253 52.578l-4.088.2"/><path fill="#ffe500" d="M88.463 57.025a1.737 1.737 0 0 0-1.737-1.736h-3.175a12.34 12.34 0 0 0-9.437 4.377 8.87 8.87 0 0 1-6.786 3.147h-3.754a1.737 1.737 0 1 0 0 3.473h3.754a12.34 12.34 0 0 0 9.437-4.377 8.87 8.87 0 0 1 6.786-3.147h3.175a1.737 1.737 0 0 0 1.737-1.737"/><path fill="#ebcb00" d="M63.574 66.286a1.737 1.737 0 1 1 0-3.473h3.754a8.9 8.9 0 0 0 2.571-.379 1.736 1.736 0 0 1-1.7 2.116 1.736 1.736 0 0 1 1.715 1.462 12.4 12.4 0 0 1-2.591.274Z"/><path fill="none" stroke="#45413c" stroke-linecap="round" stroke-linejoin="round" d="M88.463 57.025a1.737 1.737 0 0 0-1.737-1.736h-3.175a12.34 12.34 0 0 0-9.437 4.377 8.87 8.87 0 0 1-6.786 3.147h-3.754a1.737 1.737 0 1 0 0 3.473h3.754a12.34 12.34 0 0 0 9.437-4.377 8.87 8.87 0 0 1 6.786-3.147h3.175a1.737 1.737 0 0 0 1.737-1.737"/><path fill="#ffe500" d="M64.754 73.377a1.736 1.736 0 0 1 .6 3.42L32.3 82.626a1.736 1.736 0 1 1-.6-3.42Z"/><path fill="#ebcb00" d="m65.055 75.087-33.061 5.829a1.73 1.73 0 0 1-1.631-.594 1.735 1.735 0 0 0 1.933 2.3L65.357 76.8a1.737 1.737 0 0 0 1.028-2.827 1.73 1.73 0 0 1-1.33 1.114"/><path fill="none" stroke="#45413c" stroke-linecap="round" stroke-linejoin="round" d="M64.754 73.377a1.736 1.736 0 0 1 .6 3.42L32.3 82.626a1.736 1.736 0 1 1-.6-3.42Z"/><path fill="#ffe500" d="M64.754 63.011a1.736 1.736 0 0 0 .6-3.42L32.3 53.761a1.736 1.736 0 1 0-.6 3.42Z"/><path fill="#fff48c" d="m65.055 61.3-33.061-5.83a1.74 1.74 0 0 0-1.631.594 1.7 1.7 0 0 1-.079-.895 1.737 1.737 0 0 1 2.016-1.408l33.061 5.83a1.736 1.736 0 0 1 1.028 2.826 1.74 1.74 0 0 0-1.334-1.117"/><path fill="none" stroke="#45413c" stroke-linecap="round" stroke-linejoin="round" d="M64.754 63.011a1.736 1.736 0 0 0 .6-3.42L32.3 53.761a1.736 1.736 0 1 0-.6 3.42Z"/><path fill="#ffe500" d="M64.754 66.537a1.736 1.736 0 0 0 .6-3.42L32.3 57.288a1.736 1.736 0 1 0-.6 3.42Z"/><path fill="#fff48c" d="M65.055 64.827 31.994 59a1.73 1.73 0 0 0-1.631.594 1.735 1.735 0 0 1 1.933-2.3l33.061 5.829a1.736 1.736 0 0 1 1.028 2.826 1.74 1.74 0 0 0-1.33-1.122"/><path fill="none" stroke="#45413c" stroke-linecap="round" stroke-linejoin="round" d="M64.754 66.537a1.736 1.736 0 0 0 .6-3.42L32.3 57.288a1.736 1.736 0 1 0-.6 3.42Z"/><path fill="#ffe500" d="M64.754 70.064a1.736 1.736 0 0 0 .6-3.42L32.3 60.814a1.736 1.736 0 1 0-.6 3.42Z"/><path fill="#fff48c" d="m65.055 68.354-33.061-5.83a1.74 1.74 0 0 0-1.631.594 1.7 1.7 0 0 1-.079-.9 1.737 1.737 0 0 1 2.016-1.404l33.061 5.83a1.736 1.736 0 0 1 1.028 2.826 1.73 1.73 0 0 0-1.334-1.116"/><path fill="none" stroke="#45413c" stroke-linecap="round" stroke-linejoin="round" d="M64.754 70.064a1.736 1.736 0 0 0 .6-3.42L32.3 60.814a1.736 1.736 0 1 0-.6 3.42Z"/><path fill="#ffe500" d="M64.754 73.59a1.736 1.736 0 0 0 .6-3.42L32.3 64.341a1.736 1.736 0 1 0-.6 3.42Z"/><path fill="#fff48c" d="m65.055 71.88-33.061-5.829a1.73 1.73 0 0 0-1.631.594 1.735 1.735 0 0 1 1.933-2.3l33.061 5.825A1.736 1.736 0 0 1 66.385 73a1.74 1.74 0 0 0-1.33-1.12"/><path fill="none" stroke="#45413c" stroke-linecap="round" stroke-linejoin="round" d="M64.754 73.59a1.736 1.736 0 0 0 .6-3.42L32.3 64.341a1.736 1.736 0 1 0-.6 3.42Z"/><path fill="#ffe500" d="M64.754 77.117a1.736 1.736 0 0 0 .6-3.42L32.3 67.867a1.736 1.736 0 1 0-.6 3.42Z"/><path fill="#fff48c" d="m65.055 75.407-33.061-5.83a1.74 1.74 0 0 0-1.631.594 1.7 1.7 0 0 1-.079-.9 1.737 1.737 0 0 1 2.016-1.404L65.357 73.7a1.736 1.736 0 0 1 1.028 2.826 1.73 1.73 0 0 0-1.33-1.119"/><path fill="none" stroke="#45413c" stroke-linecap="round" stroke-linejoin="round" d="M64.754 77.117a1.736 1.736 0 0 0 .6-3.42L32.3 67.867a1.736 1.736 0 1 0-.6 3.42Z"/><path fill="#ffe500" d="M64.754 80.643a1.736 1.736 0 0 0 .6-3.42L32.3 71.394a1.736 1.736 0 1 0-.6 3.42Z"/><path fill="#fff48c" d="M65.055 78.933 31.994 73.1a1.73 1.73 0 0 0-1.631.594 1.735 1.735 0 0 1 1.933-2.3l33.061 5.829a1.736 1.736 0 0 1 1.028 2.826 1.74 1.74 0 0 0-1.33-1.116"/><path fill="none" stroke="#45413c" stroke-linecap="round" stroke-linejoin="round" d="M64.754 80.643a1.736 1.736 0 0 0 .6-3.42L32.3 71.394a1.736 1.736 0 1 0-.6 3.42Z"/><path fill="#ff6242" d="M58.185 68.213a3.45 3.45 0 0 0-.812-2.231 4.63 4.63 0 0 1-1.066-2.573 3.47 3.47 0 0 0-3.156-3.158 4.63 4.63 0 0 1-2.573-1.065 3.47 3.47 0 0 0-4.466 0 4.6 4.6 0 0 1-2.573 1.065 3.47 3.47 0 0 0-3.156 3.158 4.6 4.6 0 0 1-1.067 2.573 3.474 3.474 0 0 0 0 4.462 4.62 4.62 0 0 1 1.067 2.573 3.47 3.47 0 0 0 3.156 3.157 4.62 4.62 0 0 1 2.573 1.066 3.47 3.47 0 0 0 4.466 0 4.6 4.6 0 0 1 2.573-1.066 3.47 3.47 0 0 0 3.156-3.157 4.6 4.6 0 0 1 1.066-2.573 3.46 3.46 0 0 0 .812-2.231"/><path fill="#ff6242" d="M56.121 64.149a4.07 4.07 0 0 0-2.4-1 5.5 5.5 0 0 1-2.881-1.069 4.24 4.24 0 0 0-4.991 0 5.5 5.5 0 0 1-2.876 1.065 4.08 4.08 0 0 0-2.405 1 3.6 3.6 0 0 0-.478.52 4.6 4.6 0 0 0 .293-1.26 3.47 3.47 0 0 1 3.156-3.158 4.63 4.63 0 0 0 2.573-1.065 3.47 3.47 0 0 1 4.466 0 4.6 4.6 0 0 0 2.573 1.065 3.47 3.47 0 0 1 3.156 3.158 4.6 4.6 0 0 0 .29 1.258 3.5 3.5 0 0 0-.476-.514"/><path fill="none" stroke="#45413c" d="M58.185 68.213a3.45 3.45 0 0 0-.812-2.231 4.63 4.63 0 0 1-1.066-2.573 3.47 3.47 0 0 0-3.156-3.158 4.63 4.63 0 0 1-2.573-1.065 3.47 3.47 0 0 0-4.466 0 4.6 4.6 0 0 1-2.573 1.065 3.47 3.47 0 0 0-3.156 3.158 4.6 4.6 0 0 1-1.067 2.573 3.474 3.474 0 0 0 0 4.462 4.62 4.62 0 0 1 1.067 2.573 3.47 3.47 0 0 0 3.156 3.157 4.62 4.62 0 0 1 2.573 1.066 3.47 3.47 0 0 0 4.466 0 4.6 4.6 0 0 1 2.573-1.066 3.47 3.47 0 0 0 3.156-3.157 4.6 4.6 0 0 1 1.066-2.573 3.46 3.46 0 0 0 .812-2.231Z"/><path fill="none" stroke="#fffef2" stroke-linecap="round" stroke-linejoin="round" d="m48.345 64.161 2.894 1.158M46.608 67.634l-1.157 1.736M48.924 68.213l1.157 1.157M50.081 72.264h-2.315M43.714 65.319l.579-1.158M54.712 67.055l.579 1.158M45.451 73.422l-2.315-1.158"/></svg>