<svg xmlns="http://www.w3.org/2000/svg" width="89" height="87" fill="none" viewBox="0 0 89 87"><path fill="#009fd9" d="M80.936 60.005a40 40 0 1 0-72.872 0z"/><path fill="#adc4d9" d="M8.064 60.005a40 40 0 0 0 72.872 0z"/><path stroke="#45413c" stroke-linecap="round" stroke-linejoin="round" d="M5.5 60.005h78M1 60.005h2.5M85.5 60.005H88"/><path stroke="#8ca4b8" stroke-linecap="round" d="M58.5 70.505h7.157M54.325 70.505h1.789M51.343 70.505h.597M28.657 67.005h7.156M24.482 67.005h1.789M21.5 67.005h.596M39.843 78.005H47M35.669 78.005h1.789M32.687 78.005h.596"/><path fill="#4aeff7" stroke="#45413c" stroke-linecap="round" stroke-linejoin="round" d="M45.201 18.794a10.79 10.79 0 1 0 21.578 0 10.79 10.79 0 0 0-21.578 0"/><path stroke="#45413c" stroke-linecap="round" stroke-linejoin="round" d="m32.778 28.567 1.09-1.09"/><path fill="#f8f8f8" d="m54.631 52.714 3.539-9.909a2.99 2.99 0 0 1 5.807 1.006v14h-9.346z"/><path fill="#fff" d="m56.33 56.962 3.54-9.909a2.966 2.966 0 0 1 4.107-1.68V43.81a2.99 2.99 0 0 0-5.807-1.005l-3.539 9.91v5.1h1.7z"/><path stroke="#45413c" stroke-linecap="round" stroke-linejoin="round" d="m54.631 52.714 3.539-9.909a2.99 2.99 0 0 1 5.807 1.006v14h-9.346z"/><path fill="#f8f8f8" stroke="#45413c" stroke-linecap="round" stroke-linejoin="round" d="M54.631 52.714H44.586a1 1 0 0 0-1 1v4.1h11.045z"/><path stroke="#45413c" stroke-linecap="round" stroke-linejoin="round" d="M67.375 51.595V37.421M23.195 51.595V35.16"/><path fill="#adc4d9" stroke="#45413c" stroke-linecap="round" stroke-linejoin="round" d="M33.391 57.812H58.03v3.398H33.391z"/><path fill="#daedf7" stroke="#45413c" stroke-linecap="round" stroke-linejoin="round" d="M36.789 61.21a10.2 10.2 0 0 0-20.259-1.644 1.42 1.42 0 0 0 1.4 1.644h1.87a6.8 6.8 0 0 1 13.594 0z"/><path fill="#45413c" d="M19.797 61.21a6.797 6.797 0 1 0 13.594 0 6.797 6.797 0 0 0-13.594 0"/><path fill="#87898c" d="M26.594 56.648a6.8 6.8 0 0 1 6.7 5.68q.092-.555.092-1.118a6.8 6.8 0 0 0-13.594 0q0 .563.092 1.118a6.8 6.8 0 0 1 6.71-5.68"/><path stroke="#45413c" stroke-linecap="round" stroke-linejoin="round" d="M19.797 61.21a6.797 6.797 0 1 0 13.594 0 6.797 6.797 0 0 0-13.594 0"/><path fill="#f8f8f8" d="M24.045 61.21a2.55 2.55 0 1 0 5.099 0 2.55 2.55 0 0 0-5.099 0"/><path fill="#fff" d="M26.594 60.786a2.55 2.55 0 0 1 2.317 1.486 2.548 2.548 0 1 0-4.634 0 2.55 2.55 0 0 1 2.317-1.486"/><path stroke="#45413c" stroke-linecap="round" stroke-linejoin="round" d="M24.045 61.21a2.55 2.55 0 1 0 5.099 0 2.55 2.55 0 0 0-5.099 0"/><path fill="#45413c" d="M57.18 61.21a6.797 6.797 0 1 0 13.594 0 6.797 6.797 0 0 0-13.594 0"/><path fill="#87898c" d="M63.977 56.648a6.8 6.8 0 0 1 6.7 5.68q.092-.555.092-1.118a6.8 6.8 0 0 0-13.594 0q0 .563.092 1.118a6.8 6.8 0 0 1 6.71-5.68"/><path stroke="#45413c" stroke-linecap="round" stroke-linejoin="round" d="M57.18 61.21a6.797 6.797 0 1 0 13.594 0 6.797 6.797 0 0 0-13.594 0"/><path fill="#f8f8f8" d="M61.428 61.21a2.55 2.55 0 1 0 5.099 0 2.55 2.55 0 0 0-5.099 0"/><path fill="#fff" d="M63.977 60.786a2.55 2.55 0 0 1 2.317 1.486 2.548 2.548 0 1 0-4.634 0 2.55 2.55 0 0 1 2.317-1.486"/><path stroke="#45413c" stroke-linecap="round" stroke-linejoin="round" d="M61.428 61.21a2.55 2.55 0 1 0 5.099 0 2.55 2.55 0 0 0-5.099 0"/><path fill="#daedf7" stroke="#45413c" stroke-linecap="round" stroke-linejoin="round" d="M72.643 61.21a1.417 1.417 0 0 0 1.4-1.644 10.2 10.2 0 0 0-20.258 1.644h3.4a6.8 6.8 0 0 1 13.594 0z"/><path stroke="#45413c" stroke-linecap="round" stroke-linejoin="round" d="M17.762 56.113h-3.063"/><path fill="#fff" stroke="#45413c" stroke-linecap="round" stroke-linejoin="round" d="M33.391 36.945c-2.323 2.322-6.895 1.515-10.213-1.8s-4.125-7.89-1.8-10.213c0 0 2.479 5.182 6.008 6.008.414 3.34 6.005 6.005 6.005 6.005"/><path stroke="#45413c" stroke-linecap="round" stroke-linejoin="round" d="m27.383 30.937 1.803-1.802"/><path fill="#adc4d9" d="M32.79 30.336a1.7 1.7 0 0 1-2.4 0l-2.4-2.4a1.7 1.7 0 0 1 2.4-2.4l2.4 2.4a1.7 1.7 0 0 1 0 2.4"/><path fill="#daedf7" d="m32.79 27.933-2.4-2.4a1.7 1.7 0 0 0-2.832.721 1.7 1.7 0 0 1 1.682.43l2.4 2.4a1.7 1.7 0 0 1 .429 1.681 1.7 1.7 0 0 0 .721-2.832"/><path stroke="#45413c" stroke-linecap="round" stroke-linejoin="round" d="M32.79 30.336a1.7 1.7 0 0 1-2.4 0l-2.4-2.4a1.7 1.7 0 0 1 2.4-2.4l2.4 2.4a1.7 1.7 0 0 1 0 2.4M19.797 53.611v-5.994"/><path fill="#f8f8f8" stroke="#45413c" stroke-linecap="round" stroke-linejoin="round" d="M23.2 47.617h-7.5a1 1 0 0 1-1-1v-1.4a1 1 0 0 1 1-1h7.5z"/><path fill="#ff6242" d="M64.826 34.872a2.55 2.55 0 1 0 5.098 0 2.55 2.55 0 0 0-5.098 0"/><path fill="#ff6242" d="M67.375 34.357a2.55 2.55 0 0 1 2.338 1.532 2.55 2.55 0 1 0-4.675 0 2.55 2.55 0 0 1 2.337-1.532"/><path stroke="#45413c" stroke-linecap="round" stroke-linejoin="round" d="M64.826 34.872a2.55 2.55 0 1 0 5.098 0 2.55 2.55 0 0 0-5.098 0M36.217 49.316v8.496"/><path fill="#f8f8f8" d="M41.3 47.557a1.417 1.417 0 0 1-1.374 1.76h-6.965a1.416 1.416 0 0 1-1.416-1.412v-3.97a1.416 1.416 0 0 1 1.416-1.416h5.974a1.416 1.416 0 0 1 1.374 1.073z"/><path fill="#fff" d="m40.89 45.917-.581-2.325a1.416 1.416 0 0 0-1.374-1.073h-5.974a1.416 1.416 0 0 0-1.416 1.416v1.982z"/><path stroke="#45413c" stroke-linecap="round" stroke-linejoin="round" d="M41.3 47.557a1.417 1.417 0 0 1-1.374 1.76h-6.965a1.416 1.416 0 0 1-1.416-1.412v-3.97a1.416 1.416 0 0 1 1.416-1.416h5.974a1.416 1.416 0 0 1 1.374 1.073z"/><path fill="#9ceb60" stroke="#45413c" stroke-linecap="round" stroke-linejoin="round" d="M62.155 23.417a1.543 1.543 0 1 1-3.083 0 1.541 1.541 0 0 0-3.082 0v6.165a10.773 10.773 0 0 0 10.538-13.085 7.69 7.69 0 0 0-4.373 6.92M45.3 17.414l3.547 1.612a2.063 2.063 0 0 0 2.887-1.538l.145-.87a2.06 2.06 0 0 1 2.034-1.723h.01a2.06 2.06 0 0 0 1.6-3.367c-.825-1-1.72-2.1-2.533-3.09a10.79 10.79 0 0 0-7.69 8.976"/><path fill="#45413c" d="M29 67.505c0 .398 1.791.78 4.98 1.06 3.187.282 7.511.44 12.02.44s8.833-.158 12.02-.44c3.189-.28 4.98-.662 4.98-1.06s-1.791-.78-4.98-1.06c-3.187-.282-7.511-.44-12.02-.44s-8.833.158-12.02.44c-3.189.28-4.98.662-4.98 1.06" opacity=".15"/></svg>