<svg xmlns="http://www.w3.org/2000/svg" width="82" height="82" fill="none" viewBox="0 0 82 82"><path fill="#daedf7" stroke="#daedf7" d="M1 41a40 40 0 1 0 80 0 40 40 0 0 0-80 0Z"/><path fill="#45413c" d="M24 71.35c0 .438 1.78.857 4.949 1.167S36.416 73 40.897 73s8.78-.174 11.948-.483c3.169-.31 4.949-.73 4.949-1.167s-1.78-.857-4.949-1.167-7.467-.483-11.948-.483-8.78.174-11.948.483c-3.169.31-4.949.73-4.949 1.167" opacity=".15"/><path fill="#fff" d="M64.753 48.548a1.15 1.15 0 0 1 0 1.284C62.868 52.637 54.584 63.68 41.017 63.68S19.165 52.637 17.28 49.832a1.15 1.15 0 0 1 0-1.284C19.165 45.744 27.45 34.7 41.017 34.7s21.851 11.044 23.736 13.848"/><path fill="#4acfff" d="M30.667 49.19a10.35 10.35 0 1 0 20.701 0 10.35 10.35 0 0 0-20.701 0"/><path fill="#4acfff" d="M33.7 56.508a10.35 10.35 0 0 1 14.635-14.636z"/><path stroke="#45413c" stroke-linecap="round" stroke-linejoin="round" d="M30.667 49.19a10.35 10.35 0 1 0 20.701 0 10.35 10.35 0 0 0-20.701 0"/><path fill="#45413c" d="M36.992 49.19a4.025 4.025 0 1 0 8.05 0 4.025 4.025 0 0 0-8.05 0"/><path fill="#87898c" d="M38.171 52.036a4.024 4.024 0 0 1 4.386-6.579c.49.206.933.508 1.306.887z"/><path stroke="#45413c" stroke-linecap="round" stroke-linejoin="round" d="M36.992 49.19a4.025 4.025 0 1 0 8.05 0 4.025 4.025 0 0 0-8.05 0"/><path fill="#daedf7" d="M64.843 48.707C60.3 53.626 52.208 60.092 41.017 60.092S21.73 53.625 17.191 48.707l.089-.159a1.15 1.15 0 0 0 0 1.284c1.885 2.805 10.17 13.848 23.737 13.848s21.851-11.043 23.736-13.848a1.15 1.15 0 0 0 0-1.284"/><path stroke="#45413c" stroke-linecap="round" stroke-linejoin="round" d="M64.753 48.548a1.15 1.15 0 0 1 0 1.284C62.868 52.637 54.584 63.68 41.017 63.68S19.165 52.637 17.28 49.832a1.15 1.15 0 0 1 0-1.284C19.165 45.744 27.45 34.7 41.017 34.7s21.851 11.044 23.736 13.848"/><path fill="#ff6242" stroke="#e04122" stroke-linecap="round" stroke-linejoin="round" d="M27.872 32.432a1.61 1.61 0 0 1-1.813 1.223L18.524 32.5a6.23 6.23 0 0 1-4.134-2.711 4.84 4.84 0 0 1-.646-4.277 3.824 3.824 0 0 1 4.675-2.452l2.19.569.291-2.244a3.823 3.823 0 0 1 4.022-3.419 4.84 4.84 0 0 1 3.725 2.2 6.23 6.23 0 0 1 .969 4.848zM61.709 35.712a1.115 1.115 0 0 1-1.083-1.06l-.261-5.28a4.32 4.32 0 0 1 1.267-3.183 3.35 3.35 0 0 1 2.814-1.032 2.65 2.65 0 0 1 2.315 2.834l-.082 1.566 1.564-.114a2.65 2.65 0 0 1 2.881 2.257 3.35 3.35 0 0 1-.976 2.835 4.32 4.32 0 0 1-3.157 1.33zM47.054 28.268a2.247 2.247 0 0 1-3.016-.46l-6.633-8.315A8.7 8.7 0 0 1 35.73 12.8a6.75 6.75 0 0 1 3.384-5 5.334 5.334 0 0 1 7.114 1.908l1.707 2.655 2.421-2.025a5.333 5.333 0 0 1 7.359.3 6.75 6.75 0 0 1 1.741 5.778 8.69 8.69 0 0 1-3.593 5.887z"/></svg>