<svg xmlns="http://www.w3.org/2000/svg" width="100" height="100" viewBox="0 0 100 100"><desc>Kayak Streamline Illustration: https://streamlinehq.com</desc><path fill="#b8ecff" d="M10 50a40 40 0 1 0 80 0 40 40 0 1 0-80 0"/><path fill="#ffe500" d="M29.3 32.8a6 6 0 1 0 12 0 6 6 0 1 0-12 0"/><path fill="none" stroke="#45413c" stroke-linecap="round" stroke-linejoin="round" d="M29.3 32.8a6 6 0 1 0 12 0 6 6 0 1 0-12 0M35.3 24.4v-1.8M41.24 26.86l1.273-1.272M43.7 32.8h1.8M41.24 38.74l1.273 1.273M35.3 41.2V43M29.36 38.74l-1.272 1.273M26.9 32.8h-1.8M29.36 26.86l-1.272-1.272"/><path fill="#ffe500" d="M78.087 52.079a.548.548 0 0 1 .793.49c0 6.859-5.56 16.515-12.418 16.515H29.207c-6.859 0-12.419-9.656-12.419-16.515a.55.55 0 0 1 .794-.49l5.08 2.54a14.2 14.2 0 0 0 6.347 1.5H66.66a14.2 14.2 0 0 0 6.347-1.5Z"/><path fill="#fff48c" d="M66.994 60.546c4.381 0 8.239-3.726 10.54-8.191l-4.527 2.264a14.2 14.2 0 0 1-6.347 1.5H29.009a14.2 14.2 0 0 1-6.347-1.5l-4.527-2.264c2.3 4.465 6.159 8.191 10.54 8.191Z"/><path fill="#ffaa54" stroke="#45413c" stroke-linecap="round" stroke-linejoin="round" d="M36.3 56.117a5.32 5.32 0 0 0 5.322 5.322h12.422a5.32 5.32 0 0 0 5.322-5.322Z"/><path fill="none" stroke="#45413c" stroke-linecap="round" stroke-linejoin="round" d="M78.087 52.079a.548.548 0 0 1 .793.49c0 6.859-5.56 16.515-12.418 16.515H29.207c-6.859 0-12.419-9.656-12.419-16.515a.55.55 0 0 1 .794-.49l5.08 2.54a14.2 14.2 0 0 0 6.347 1.5H66.66a14.2 14.2 0 0 0 6.347-1.5Z"/><path fill="#4acfff" d="M77.165 64.368a6.4 6.4 0 0 1-11.034 0 6.4 6.4 0 0 1-11.033 0 6.4 6.4 0 0 1-11.034 0 6.4 6.4 0 0 1-11.034 0 6.4 6.4 0 0 1-11.034 0s-.887 3.153-3.153 3.153h-4.807a40.009 40.009 0 0 0 71.928 0h-5.646c-2.266 0-3.153-3.153-3.153-3.153"/><path fill="none" stroke="#45413c" stroke-linecap="round" stroke-linejoin="round" d="M89 67.5h2.5M8.5 67.5H11"/><path fill="#4aeff7" stroke="#45413c" stroke-linecap="round" stroke-linejoin="round" d="M87 67.521h-6.682c-2.266 0-3.153-3.153-3.153-3.153a6.4 6.4 0 0 1-11.034 0 6.4 6.4 0 0 1-11.033 0 6.4 6.4 0 0 1-11.034 0 6.4 6.4 0 0 1-11.034 0 6.4 6.4 0 0 1-11.034 0s-.887 3.153-3.153 3.153H13"/><path fill="none" stroke="#e5feff" stroke-linecap="round" stroke-linejoin="round" d="M45.814 74.906A3.76 3.76 0 0 1 42.479 73a3.872 3.872 0 0 1-6.672 0 3.872 3.872 0 0 1-6.671 0 3.76 3.76 0 0 1-3.336 1.906M72.5 77.765a3.76 3.76 0 0 1-3.336-1.906 3.872 3.872 0 0 1-6.671 0 3.76 3.76 0 0 1-3.336 1.906M52.843 83.906A3.76 3.76 0 0 1 49.507 82a3.872 3.872 0 0 1-6.671 0 3.76 3.76 0 0 1-3.336 1.906"/><path fill="#daedf7" d="M46.463 70.718 65.96 45.97l.159-2.023a11.14 11.14 0 0 1 2.342-6.014l3.814-4.825a2.477 2.477 0 0 1 3.478-.408l1.933 1.543 2.023 1.579a2.46 2.46 0 0 1 .408 3.477l-3.8 4.826a11.33 11.33 0 0 1-5.287 3.69l-1.933.638-19.476 24.731-.178 2.04a10.94 10.94 0 0 1-2.341 6l-3.8 4.843a2.48 2.48 0 0 1-3.495.391l-2.058-1.615-1.88-1.49a2.5 2.5 0 0 1-.426-3.5l3.8-4.808a11.2 11.2 0 0 1 5.305-3.707Z"/><path fill="#adc4d9" d="m43.305 86.063 3.8-4.843a10.94 10.94 0 0 0 2.341-6l.178-2.04L69.1 48.453l1.933-.639a11.3 11.3 0 0 0 5.287-3.689l3.8-4.826a2.46 2.46 0 0 0-.408-3.477l-2.023-1.579-.114-.091-39.823 50.687 2.058 1.615a2.48 2.48 0 0 0 3.495-.391"/><path fill="none" stroke="#45413c" stroke-linecap="round" stroke-linejoin="round" d="m37.752 84.839 2.058 1.615a2.48 2.48 0 0 0 3.495-.391l3.8-4.843a10.94 10.94 0 0 0 2.341-6l.178-2.04L69.1 48.453l1.933-.638a11.33 11.33 0 0 0 5.287-3.69l3.8-4.826a2.46 2.46 0 0 0-.408-3.477l-2.023-1.579-1.936-1.543a2.477 2.477 0 0 0-3.478.408l-3.814 4.825a11.14 11.14 0 0 0-2.342 6.014l-.159 2.023-19.5 24.748-1.916.621a11.2 11.2 0 0 0-5.3 3.707l-3.8 4.808a2.5 2.5 0 0 0 .426 3.5Z"/></svg>