<svg xmlns="http://www.w3.org/2000/svg" width="160" height="160" viewBox="0 0 160 160"><path fill="#c7f0ff" stroke="#c7f0ff" stroke-miterlimit="10" stroke-width="1.6" d="M16 80a64 64 0 1 0 128 0 64 64 0 1 0-128 0Z"/><path fill="#ff8a14" d="M115.06 60.893 86.277 58.68c0 17.474-31.342 19.483-33.464 44.064l.207 15.893h23.757c9.504 0 17.65-5.786 19.87-14.843a40.9 40.9 0 0 0 5.022 14.574 1.76 1.76 0 0 0 1.532.886h4.099a1.76 1.76 0 0 0 1.576-2.56c-4.909-9.806-2.88-24.32 2.795-36.681 3.787-8.25 3.387-19.12 3.387-19.12"/><path fill="#eb6d00" d="M96.31 105a19.91 19.91 0 0 1-19.532 13.637c-13.6-.626-30.207-1.818-32.463-3.944a3.413 3.413 0 0 1-.502-4.59 68.8 68.8 0 0 0 20.126 2.995 68 68 0 0 0 32.357-8.103"/><path fill="#ff8a14" stroke="#45413c" stroke-linecap="round" stroke-linejoin="round" stroke-width="1.6" d="M103.854 39.107c1.38-3.84 6.301-7.512 12.834-11.118a1.76 1.76 0 0 1 2.606 1.353 25.06 25.06 0 0 1-3.886 17.378Z"/><path fill="#f7e5c6" stroke="#45413c" stroke-linecap="round" stroke-linejoin="round" stroke-width="1.6" d="m108.949 40.603 7.291 4.8a24.57 24.57 0 0 0 3.234-13.563c-5.335 2.837-9.436 5.733-10.525 8.763"/><path fill="#ff8a14" stroke="#45413c" stroke-linecap="round" stroke-linejoin="round" stroke-width="1.6" d="M97.882 39.107c-1.38-3.84-6.301-7.512-12.834-11.118a1.76 1.76 0 0 0-2.606 1.352 25.07 25.07 0 0 0 3.886 17.379Z"/><path fill="#f7e5c6" stroke="#45413c" stroke-linecap="round" stroke-linejoin="round" stroke-width="1.6" d="m92.787 40.603-7.291 4.8a24.57 24.57 0 0 1-3.235-13.563c5.334 2.837 9.435 5.733 10.526 8.763"/><path fill="#ffaa54" d="M86.278 58.68c0 17.474-31.342 19.483-33.464 44.064l.207 15.893h5.229l-.17-12.717c2.024-25.14 34.138-27.144 34.376-45.269Z"/><path fill="#45413c" d="M71.885 120.872a21.877 3.043 0 1 0 43.753 0 21.877 3.043 0 1 0-43.753 0" opacity=".15"/><path fill="#fff" d="M96.65 103.789s8.12-4.9 15.024-23.775c3.36-7.32 3.422-16.681 3.393-18.707l-9.526 2.194s-.267 6.862 0 12.16c.734 14.557-8.891 21.269-8.891 28.128"/><path fill="none" stroke="#45413c" stroke-linecap="round" stroke-linejoin="round" stroke-width="1.6" d="M115.06 60.893 86.277 58.68c0 17.474-31.342 19.483-33.464 44.064l.207 15.893h23.757c9.504 0 17.65-5.786 19.87-14.843h0a40.9 40.9 0 0 0 5.022 14.574 1.76 1.76 0 0 0 1.532.886h4.099a1.76 1.76 0 0 0 1.576-2.56c-4.909-9.806-2.88-24.32 2.795-36.681 3.787-8.25 3.387-19.12 3.387-19.12"/><path fill="#ff8a14" stroke="#45413c" stroke-linecap="round" stroke-linejoin="round" stroke-width="1.6" d="M89.518 94.56c-2.968 8.309-1.532 19.3-.868 23.226a1.76 1.76 0 0 0 1.736 1.47h3.708a1.76 1.76 0 0 0 1.76-1.728c.32-15.384 3.952-22.08 3.952-22.08"/><path fill="none" stroke="#45413c" stroke-linecap="round" stroke-linejoin="round" stroke-width="1.6" d="M62.154 100.808a9.104 9.104 0 0 1 15.721 6.253 11.15 11.15 0 0 1-2.06 6.037"/><path fill="#ff8a14" d="M124.24 55.52c-5.91 0-9.104-22.734-23.371-22.734s-15.41 15.36-23.371 22.734a30.5 30.5 0 0 0 16.945 10.002c1.632 3.86 4.36 7.416 6.424 7.416s4.8-3.584 6.426-7.416A30.5 30.5 0 0 0 124.24 55.52"/><path fill="#fff" d="M122.453 54.803c-1.408.05-3.01.16-4.752.362a20.9 20.9 0 0 0-14.765 8.933 2.216 2.216 0 0 1-4.136 0 20.9 20.9 0 0 0-14.765-8.933 54 54 0 0 0-4.752-.362 2.9 2.9 0 0 1-1.787.712 30.5 30.5 0 0 0 16.947 10.002c1.62 3.84 4.36 7.416 6.424 7.416s4.8-3.584 6.426-7.416a30.5 30.5 0 0 0 16.947-9.997 2.9 2.9 0 0 1-1.787-.717"/><path fill="#45413c" d="M103.776 69.06c0 1.652-2.962 3.873-2.962 3.873s-2.963-2.221-2.963-3.874 1.327-2.109 2.963-2.109 2.962.458 2.962 2.11"/><path fill="none" stroke="#45413c" stroke-linecap="round" stroke-linejoin="round" stroke-width="1.6" d="m94.443 65.517-1.704-4.032M108.696 62.195l-1.403 3.322M106.595 50.96a5.86 5.86 0 0 1 6.17-2.4M95.14 50.96a5.86 5.86 0 0 0-6.17-2.4"/><path fill="#ffaa54" d="M85.42 43.68c3.33-5.76 7.191-10.904 15.449-10.904 7.5 0 11.94 6.283 15.323 12.245-4.176-3.634-9.162-7.603-15.323-7.603-6.49 0-11.432 3.368-15.445 6.265"/><path fill="none" stroke="#45413c" stroke-linecap="round" stroke-linejoin="round" stroke-width="1.6" d="M124.24 55.52c-5.91 0-9.104-22.734-23.371-22.734s-15.41 15.36-23.371 22.734a30.5 30.5 0 0 0 16.945 10.002c1.632 3.86 4.36 7.416 6.424 7.416s4.8-3.584 6.426-7.416A30.5 30.5 0 0 0 124.24 55.52M52.917 110.691a47 47 0 0 0-5.589 2.845"/><path fill="#ff8a14" d="M90.106 124.107c-10.303-1.43-19.04 6.88-33.799 6.88s-21.097-9.085-21.097-14.429a13.797 13.797 0 0 1 13.795-13.812h3.81l.102 7.947c14.059-5.981 32.779 7.293 37.189 13.414"/><path fill="#eb6d00" d="M85.714 119.634a26.7 26.7 0 0 1 4.392 4.48c-10.303-1.43-19.04 6.88-33.799 6.88-8.237 0-13.85-2.828-17.203-6.255a29.85 29.85 0 0 0 12.763 2.597c14.634 0 23.872-7.41 33.851-7.7"/><path fill="none" stroke="#45413c" stroke-linecap="round" stroke-linejoin="round" stroke-width="1.6" d="M52.917 110.691a47 47 0 0 0-5.589 2.845"/><path fill="#fff" d="M61.44 130.65c11.778-1.541 19.614-7.799 28.662-6.543-3.54-4.917-16.308-14.443-28.48-14.91l3.023 4a1.76 1.76 0 0 1-.141 2.293l-2.413 2.488a1.76 1.76 0 0 0 .05 2.504l2.4 2.286a1.76 1.76 0 0 1 .297 2.18l-3.398 5.698"/><path fill="#f0f0f0" d="m64.45 125.6-3.01 5.046c11.778-1.54 19.614-7.798 28.662-6.542a26.7 26.7 0 0 0-4.392-4.48c-6.81.198-13.28 3.71-21.342 5.92"/><path fill="none" stroke="#45413c" stroke-linecap="round" stroke-linejoin="round" stroke-width="1.6" d="M90.106 124.107c-10.303-1.43-19.04 6.88-33.799 6.88s-21.097-9.085-21.097-14.429a13.797 13.797 0 0 1 13.795-13.812h3.81l.102 7.947c14.059-5.981 32.779 7.293 37.189 13.414"/></svg>