<svg xmlns="http://www.w3.org/2000/svg" width="82" height="82" fill="none" viewBox="0 0 82 82"><path fill="#daedf7" stroke="#daedf7" d="M1 41a40 40 0 1 0 80 0 40 40 0 0 0-80 0Z"/><path fill="#45413c" d="M26.702 72.148c0 .48 1.56.94 4.334 1.28 2.775.34 6.54.531 10.464.531s7.689-.19 10.464-.53 4.334-.8 4.334-1.281-1.56-.941-4.334-1.28c-2.775-.34-6.54-.531-10.464-.531s-7.689.19-10.464.53-4.334.8-4.334 1.281" opacity=".15"/><path fill="#fff" d="M15.91 12.67h51.18v51.18H15.91z"/><path fill="#9f5ae5" stroke="#8f30ee" stroke-linecap="round" stroke-linejoin="round" d="M29 58a7 7 0 0 1-2.768-.597 7.1 7.1 0 0 1-2.313-1.646 7.1 7.1 0 0 1-1.488-2.431 7.2 7.2 0 0 1-.421-2.826c0-4.345 2.94-7.5 6.99-7.5a7 7 0 0 1 2.768.597c.874.386 1.66.946 2.314 1.646a7.1 7.1 0 0 1 1.487 2.432 7.2 7.2 0 0 1 .421 2.825c0 4.345-2.94 7.5-6.99 7.5m0-11.054c-2.026 0-2.753 1.914-2.753 3.554 0 1.718.724 3.556 2.754 3.556s2.753-1.838 2.753-3.556c0-1.645-.721-3.554-2.753-3.554"/><path fill="#00b8f0" stroke="#00658a" stroke-linecap="round" stroke-linejoin="round" d="M53.497 54c-.386 0-.756-.159-1.028-.44a1.53 1.53 0 0 1-.427-1.06v-1.663c0-.398.154-.779.427-1.06s.642-.44 1.028-.44c.512 0 1.012-.156 1.437-.45a2.65 2.65 0 0 0 .953-1.196 2.74 2.74 0 0 0 .148-1.54 2.7 2.7 0 0 0-.708-1.366 2.56 2.56 0 0 0-1.325-.73 2.5 2.5 0 0 0-1.495.152 2.6 2.6 0 0 0-1.161.982 2.73 2.73 0 0 0-.436 1.482 1.54 1.54 0 0 1-.426 1.06c-.135.14-.296.25-.472.325a1.42 1.42 0 0 1-1.586-.325 1.539 1.539 0 0 1-.426-1.06c0-1.057.286-2.093.827-2.99a5.57 5.57 0 0 1 2.232-2.092 5.36 5.36 0 0 1 5.776.572 5.66 5.66 0 0 1 1.806 2.492c.364.988.454 2.06.258 3.098a5.73 5.73 0 0 1-1.367 2.773 5.47 5.47 0 0 1-2.58 1.612v.367a1.53 1.53 0 0 1-.428 1.058c-.272.28-.642.438-1.027.439M51 57c0 .53.263 1.04.732 1.414.47.375 1.105.586 1.768.586s1.299-.21 1.768-.586C55.737 58.04 56 57.53 56 57s-.263-1.04-.732-1.414C54.798 55.21 54.163 55 53.5 55s-1.299.21-1.768.586C51.263 55.96 51 56.47 51 57"/><path fill="#f8f8f8" d="M61.84 59.424H21.16a5.25 5.25 0 0 1-5.25-5.25V58.6a5.25 5.25 0 0 0 5.25 5.25h40.68a5.25 5.25 0 0 0 5.25-5.25v-4.426a5.25 5.25 0 0 1-5.25 5.25"/><path stroke="#45413c" stroke-linecap="round" stroke-linejoin="round" d="M15.91 12.67h51.18v51.18H15.91zM15.91 38.259h51.18M41.5 12.67v51.179"/><path fill="#6dd627" stroke="#46b000" stroke-linecap="round" stroke-linejoin="round" d="M34.509 23.364h-3.7v-3.7a2.1 2.1 0 1 0-4.2 0v3.7H22.9a2.098 2.098 0 0 0-1.94 2.904 2.1 2.1 0 0 0 1.94 1.296h3.705v3.7a2.1 2.1 0 0 0 4.2 0v-3.7h3.7a2.1 2.1 0 1 0 0-4.2z"/><path fill="#ff6242" stroke="#e04122" stroke-linecap="round" stroke-linejoin="round" d="M60.1 27.564H48.491a2.1 2.1 0 1 1 0-4.2H60.1a2.1 2.1 0 0 1 0 4.2"/></svg>