<svg xmlns="http://www.w3.org/2000/svg" width="100" height="100" fill="none" viewBox="0 0 100 100"><path fill="#65696b" d="M2 7a3 3 0 0 1 3-3h11.6a3 3 0 0 1 3 3v10.8a3 3 0 0 1-3 3H5a3 3 0 0 1-3-3z"/><path fill="#65696b" d="M19.6 7.429c0-.91-.124-1.782-.344-2.425-.221-.643-.52-1.004-.832-1.004H3.176c-.312 0-.61.361-.831 1.004S2 6.52 2 7.43V11.2c0-.955.13-1.87.362-2.546S2.908 7.6 3.235 7.6h15.13c.328 0 .642.38.873 1.054.232.676.362 1.591.362 2.546z"/><path fill="#65696b" stroke="#45413c" stroke-linecap="round" stroke-linejoin="round" d="M2 7a3 3 0 0 1 3-3h11.6a3 3 0 0 1 3 3v10.8a3 3 0 0 1-3 3H5a3 3 0 0 1-3-3z"/><path fill="#5a9c51" d="M41.2 7a3 3 0 0 1 3-3h11.6a3 3 0 0 1 3 3v10.8a3 3 0 0 1-3 3H44.2a3 3 0 0 1-3-3z"/><path fill="#5a9c51" d="M58.8 7.429c0-.91-.124-1.782-.344-2.425-.221-.643-.52-1.004-.832-1.004H42.376c-.312 0-.61.361-.831 1.004S41.2 6.52 41.2 7.43V11.2c0-.955.13-1.87.362-2.546s.546-1.054.873-1.054h15.13c.328 0 .642.38.873 1.054.232.676.362 1.591.362 2.546z"/><path fill="#5a9c51" stroke="#45413c" stroke-linecap="round" stroke-linejoin="round" d="M41.2 7a3 3 0 0 1 3-3h11.6a3 3 0 0 1 3 3v10.8a3 3 0 0 1-3 3H44.2a3 3 0 0 1-3-3z"/><path fill="#bda747" d="M21.6 7a3 3 0 0 1 3-3h11.6a3 3 0 0 1 3 3v10.8a3 3 0 0 1-3 3H24.6a3 3 0 0 1-3-3z"/><path fill="#bda747" d="M39.2 7.429c0-.91-.124-1.782-.345-2.425S38.335 4 38.024 4H22.776c-.312 0-.61.361-.831 1.004S21.6 6.52 21.6 7.43V11.2c0-.955.13-1.87.362-2.546s.546-1.054.873-1.054h15.13c.327 0 .642.38.873 1.054.232.676.362 1.591.362 2.546z"/><path fill="#bda747" stroke="#45413c" stroke-linecap="round" stroke-linejoin="round" d="M21.6 7a3 3 0 0 1 3-3h11.6a3 3 0 0 1 3 3v10.8a3 3 0 0 1-3 3H24.6a3 3 0 0 1-3-3z"/><path fill="#5a9c51" d="M80.4 7a3 3 0 0 1 3-3H95a3 3 0 0 1 3 3v10.8a3 3 0 0 1-3 3H83.4a3 3 0 0 1-3-3z"/><path fill="#5a9c51" d="M98 7.429c0-.91-.124-1.782-.344-2.425-.221-.643-.52-1.004-.832-1.004H81.576c-.312 0-.61.361-.831 1.004S80.4 6.52 80.4 7.43V11.2c0-.955.13-1.87.362-2.546s.546-1.054.873-1.054h15.13c.328 0 .642.38.873 1.054.232.676.362 1.591.362 2.546z"/><path fill="#5a9c51" stroke="#45413c" stroke-linecap="round" stroke-linejoin="round" d="M80.4 7a3 3 0 0 1 3-3H95a3 3 0 0 1 3 3v10.8a3 3 0 0 1-3 3H83.4a3 3 0 0 1-3-3z"/><path fill="#65696b" d="M60.8 7a3 3 0 0 1 3-3h11.6a3 3 0 0 1 3 3v10.8a3 3 0 0 1-3 3H63.8a3 3 0 0 1-3-3z"/><path fill="#65696b" d="M78.4 7.429c0-.91-.124-1.782-.345-2.425S77.536 4 77.224 4H61.976c-.312 0-.61.361-.831 1.004S60.8 6.52 60.8 7.43V11.2c0-.955.13-1.87.362-2.546s.546-1.054.873-1.054h15.13c.328 0 .642.38.873 1.054.232.676.362 1.591.362 2.546z"/><path fill="#65696b" stroke="#45413c" stroke-linecap="round" stroke-linejoin="round" d="M60.8 7a3 3 0 0 1 3-3h11.6a3 3 0 0 1 3 3v10.8a3 3 0 0 1-3 3H63.8a3 3 0 0 1-3-3z"/><path fill="#5a9c51" d="M2 26a3 3 0 0 1 3-3h11.6a3 3 0 0 1 3 3v10.8a3 3 0 0 1-3 3H5a3 3 0 0 1-3-3z"/><path fill="#5a9c51" d="M19.6 26.429c0-.91-.124-1.782-.344-2.425-.221-.643-.52-1.004-.832-1.004H3.176c-.312 0-.61.361-.831 1.004S2 25.52 2 26.43V30.2c0-.955.13-1.87.362-2.546s.546-1.054.873-1.054h15.13c.328 0 .642.38.873 1.054.232.675.362 1.591.362 2.546z"/><path fill="#5a9c51" stroke="#45413c" stroke-linecap="round" stroke-linejoin="round" d="M2 26a3 3 0 0 1 3-3h11.6a3 3 0 0 1 3 3v10.8a3 3 0 0 1-3 3H5a3 3 0 0 1-3-3z"/><path fill="#65696b" d="M41.2 26a3 3 0 0 1 3-3h11.6a3 3 0 0 1 3 3v10.8a3 3 0 0 1-3 3H44.2a3 3 0 0 1-3-3z"/><path fill="#65696b" d="M58.8 26.429c0-.91-.124-1.782-.344-2.425-.221-.643-.52-1.004-.832-1.004H42.376c-.312 0-.61.361-.831 1.004S41.2 25.52 41.2 26.43V30.2c0-.955.13-1.87.362-2.546s.546-1.054.873-1.054h15.13c.328 0 .642.38.873 1.054.232.675.362 1.591.362 2.546z"/><path fill="#65696b" stroke="#45413c" stroke-linecap="round" stroke-linejoin="round" d="M41.2 26a3 3 0 0 1 3-3h11.6a3 3 0 0 1 3 3v10.8a3 3 0 0 1-3 3H44.2a3 3 0 0 1-3-3z"/><path fill="#bda747" d="M21.6 26a3 3 0 0 1 3-3h11.6a3 3 0 0 1 3 3v10.8a3 3 0 0 1-3 3H24.6a3 3 0 0 1-3-3z"/><path fill="#bda747" d="M39.2 26.429c0-.91-.124-1.782-.345-2.425S38.335 23 38.024 23H22.776c-.312 0-.61.361-.831 1.004S21.6 25.52 21.6 26.43V30.2c0-.955.13-1.87.362-2.546s.546-1.054.873-1.054h15.13c.327 0 .642.38.873 1.054.232.675.362 1.591.362 2.546z"/><path fill="#bda747" stroke="#45413c" stroke-linecap="round" stroke-linejoin="round" d="M21.6 26a3 3 0 0 1 3-3h11.6a3 3 0 0 1 3 3v10.8a3 3 0 0 1-3 3H24.6a3 3 0 0 1-3-3z"/><path fill="#65696b" d="M80.4 26a3 3 0 0 1 3-3H95a3 3 0 0 1 3 3v10.8a3 3 0 0 1-3 3H83.4a3 3 0 0 1-3-3z"/><path fill="#65696b" d="M98 26.429c0-.91-.124-1.782-.344-2.425-.221-.643-.52-1.004-.832-1.004H81.576c-.312 0-.61.361-.831 1.004S80.4 25.52 80.4 26.43V30.2c0-.955.13-1.87.362-2.546s.546-1.054.873-1.054h15.13c.328 0 .642.38.873 1.054.232.675.362 1.591.362 2.546z"/><path fill="#bda747" stroke="#45413c" stroke-linecap="round" stroke-linejoin="round" d="M80.4 26a3 3 0 0 1 3-3H95a3 3 0 0 1 3 3v10.8a3 3 0 0 1-3 3H83.4a3 3 0 0 1-3-3z"/><path fill="#bda747" d="M60.8 26a3 3 0 0 1 3-3h11.6a3 3 0 0 1 3 3v10.8a3 3 0 0 1-3 3H63.8a3 3 0 0 1-3-3z"/><path fill="#bda747" d="M78.4 26.429c0-.91-.124-1.782-.345-2.425S77.536 23 77.224 23H61.976c-.312 0-.61.361-.831 1.004S60.8 25.52 60.8 26.43V30.2c0-.955.13-1.87.362-2.546s.546-1.054.873-1.054h15.13c.328 0 .642.38.873 1.054.232.675.362 1.591.362 2.546z"/><path fill="#bda747" stroke="#45413c" stroke-linecap="round" stroke-linejoin="round" d="M60.8 26a3 3 0 0 1 3-3h11.6a3 3 0 0 1 3 3v10.8a3 3 0 0 1-3 3H63.8a3 3 0 0 1-3-3z"/><path fill="#bda747" d="M2 45a3 3 0 0 1 3-3h11.6a3 3 0 0 1 3 3v10.8a3 3 0 0 1-3 3H5a3 3 0 0 1-3-3z"/><path fill="#bda747" d="M19.6 45.429c0-.91-.124-1.782-.344-2.425-.221-.643-.52-1.004-.832-1.004H3.176c-.312 0-.61.361-.831 1.004S2 44.52 2 45.43V49.2c0-.955.13-1.87.362-2.546s.546-1.054.873-1.054h15.13c.328 0 .642.38.873 1.054.232.675.362 1.591.362 2.546z"/><path fill="#bda747" stroke="#45413c" stroke-linecap="round" stroke-linejoin="round" d="M2 45a3 3 0 0 1 3-3h11.6a3 3 0 0 1 3 3v10.8a3 3 0 0 1-3 3H5a3 3 0 0 1-3-3z"/><path fill="#bda747" d="M41.2 45a3 3 0 0 1 3-3h11.6a3 3 0 0 1 3 3v10.8a3 3 0 0 1-3 3H44.2a3 3 0 0 1-3-3z"/><path fill="#bda747" d="M58.8 45.429c0-.91-.124-1.782-.344-2.425-.221-.643-.52-1.004-.832-1.004H42.376c-.312 0-.61.361-.831 1.004S41.2 44.52 41.2 45.43V49.2c0-.955.13-1.87.362-2.546s.546-1.054.873-1.054h15.13c.328 0 .642.38.873 1.054.232.675.362 1.591.362 2.546z"/><path fill="#bda747" stroke="#45413c" stroke-linecap="round" stroke-linejoin="round" d="M41.2 45a3 3 0 0 1 3-3h11.6a3 3 0 0 1 3 3v10.8a3 3 0 0 1-3 3H44.2a3 3 0 0 1-3-3z"/><path fill="#bda747" d="M21.6 45a3 3 0 0 1 3-3h11.6a3 3 0 0 1 3 3v10.8a3 3 0 0 1-3 3H24.6a3 3 0 0 1-3-3z"/><path fill="#bda747" d="M39.2 45.429c0-.91-.124-1.782-.345-2.425S38.335 42 38.024 42H22.776c-.312 0-.61.361-.831 1.004S21.6 44.52 21.6 45.43V49.2c0-.955.13-1.87.362-2.546s.546-1.054.873-1.054h15.13c.327 0 .642.38.873 1.054.232.675.362 1.591.362 2.546z"/><path fill="#bda747" stroke="#45413c" stroke-linecap="round" stroke-linejoin="round" d="M21.6 45a3 3 0 0 1 3-3h11.6a3 3 0 0 1 3 3v10.8a3 3 0 0 1-3 3H24.6a3 3 0 0 1-3-3z"/><path fill="#65696b" d="M80.4 45a3 3 0 0 1 3-3H95a3 3 0 0 1 3 3v10.8a3 3 0 0 1-3 3H83.4a3 3 0 0 1-3-3z"/><path fill="#65696b" d="M98 45.429c0-.91-.124-1.782-.344-2.425-.221-.643-.52-1.004-.832-1.004H81.576c-.312 0-.61.361-.831 1.004S80.4 44.52 80.4 45.43V49.2c0-.955.13-1.87.362-2.546s.546-1.054.873-1.054h15.13c.328 0 .642.38.873 1.054.232.675.362 1.591.362 2.546z"/><path fill="#65696b" stroke="#45413c" stroke-linecap="round" stroke-linejoin="round" d="M80.4 45a3 3 0 0 1 3-3H95a3 3 0 0 1 3 3v10.8a3 3 0 0 1-3 3H83.4a3 3 0 0 1-3-3z"/><path fill="#bda747" d="M60.8 45a3 3 0 0 1 3-3h11.6a3 3 0 0 1 3 3v10.8a3 3 0 0 1-3 3H63.8a3 3 0 0 1-3-3z"/><path fill="#bda747" d="M78.4 45.429c0-.91-.124-1.782-.345-2.425S77.536 42 77.224 42H61.976c-.312 0-.61.361-.831 1.004S60.8 44.52 60.8 45.43V49.2c0-.955.13-1.87.362-2.546s.546-1.054.873-1.054h15.13c.328 0 .642.38.873 1.054.232.675.362 1.591.362 2.546z"/><path fill="#bda747" stroke="#45413c" stroke-linecap="round" stroke-linejoin="round" d="M60.8 45a3 3 0 0 1 3-3h11.6a3 3 0 0 1 3 3v10.8a3 3 0 0 1-3 3H63.8a3 3 0 0 1-3-3z"/><path fill="#5a9c51" d="M2 64a3 3 0 0 1 3-3h11.6a3 3 0 0 1 3 3v10.8a3 3 0 0 1-3 3H5a3 3 0 0 1-3-3z"/><path fill="#5a9c51" d="M19.6 64.429c0-.91-.124-1.782-.344-2.425-.221-.643-.52-1.004-.832-1.004H3.176c-.312 0-.61.361-.831 1.004S2 63.52 2 64.43V68.2c0-.955.13-1.87.362-2.546s.546-1.054.873-1.054h15.13c.328 0 .642.38.873 1.054.232.675.362 1.591.362 2.546z"/><path fill="#5a9c51" stroke="#45413c" stroke-linecap="round" stroke-linejoin="round" d="M2 64a3 3 0 0 1 3-3h11.6a3 3 0 0 1 3 3v10.8a3 3 0 0 1-3 3H5a3 3 0 0 1-3-3z"/><path fill="#bda747" d="M41.2 64a3 3 0 0 1 3-3h11.6a3 3 0 0 1 3 3v10.8a3 3 0 0 1-3 3H44.2a3 3 0 0 1-3-3z"/><path fill="#bda747" d="M58.8 64.429c0-.91-.124-1.782-.344-2.425-.221-.643-.52-1.004-.832-1.004H42.376c-.312 0-.61.361-.831 1.004S41.2 63.52 41.2 64.43V68.2c0-.955.13-1.87.362-2.546s.546-1.054.873-1.054h15.13c.328 0 .642.38.873 1.054.232.675.362 1.591.362 2.546z"/><path fill="#bda747" stroke="#45413c" stroke-linecap="round" stroke-linejoin="round" d="M41.2 64a3 3 0 0 1 3-3h11.6a3 3 0 0 1 3 3v10.8a3 3 0 0 1-3 3H44.2a3 3 0 0 1-3-3z"/><path fill="#5a9c51" d="M21.6 64a3 3 0 0 1 3-3h11.6a3 3 0 0 1 3 3v10.8a3 3 0 0 1-3 3H24.6a3 3 0 0 1-3-3z"/><path fill="#5a9c51" d="M39.2 64.429c0-.91-.124-1.782-.345-2.425S38.335 61 38.024 61H22.776c-.312 0-.61.361-.831 1.004S21.6 63.52 21.6 64.43V68.2c0-.955.13-1.87.362-2.546s.546-1.054.873-1.054h15.13c.327 0 .642.38.873 1.054.232.675.362 1.591.362 2.546z"/><path fill="#5a9c51" stroke="#45413c" stroke-linecap="round" stroke-linejoin="round" d="M21.6 64a3 3 0 0 1 3-3h11.6a3 3 0 0 1 3 3v10.8a3 3 0 0 1-3 3H24.6a3 3 0 0 1-3-3z"/><path fill="#65696b" d="M80.4 64a3 3 0 0 1 3-3H95a3 3 0 0 1 3 3v10.8a3 3 0 0 1-3 3H83.4a3 3 0 0 1-3-3z"/><path fill="#65696b" d="M98 64.429c0-.91-.124-1.782-.344-2.425-.221-.643-.52-1.004-.832-1.004H81.576c-.312 0-.61.361-.831 1.004S80.4 63.52 80.4 64.43V68.2c0-.955.13-1.87.362-2.546s.546-1.054.873-1.054h15.13c.328 0 .642.38.873 1.054.232.675.362 1.591.362 2.546z"/><path fill="#65696b" stroke="#45413c" stroke-linecap="round" stroke-linejoin="round" d="M80.4 64a3 3 0 0 1 3-3H95a3 3 0 0 1 3 3v10.8a3 3 0 0 1-3 3H83.4a3 3 0 0 1-3-3z"/><path fill="#bda747" d="M60.8 64a3 3 0 0 1 3-3h11.6a3 3 0 0 1 3 3v10.8a3 3 0 0 1-3 3H63.8a3 3 0 0 1-3-3z"/><path fill="#bda747" d="M78.4 64.429c0-.91-.124-1.782-.345-2.425S77.536 61 77.224 61H61.976c-.312 0-.61.361-.831 1.004S60.8 63.52 60.8 64.43V68.2c0-.955.13-1.87.362-2.546s.546-1.054.873-1.054h15.13c.328 0 .642.38.873 1.054.232.675.362 1.591.362 2.546z"/><path fill="#bda747" stroke="#45413c" stroke-linecap="round" stroke-linejoin="round" d="M60.8 64a3 3 0 0 1 3-3h11.6a3 3 0 0 1 3 3v10.8a3 3 0 0 1-3 3H63.8a3 3 0 0 1-3-3z"/><path fill="#5a9c51" d="M2 83a3 3 0 0 1 3-3h11.6a3 3 0 0 1 3 3v10.8a3 3 0 0 1-3 3H5a3 3 0 0 1-3-3z"/><path fill="#5a9c51" d="M19.6 83.429c0-.91-.124-1.782-.344-2.425-.221-.643-.52-1.004-.832-1.004H3.176c-.312 0-.61.361-.831 1.004S2 82.52 2 83.43V87.2c0-.955.13-1.87.362-2.546s.546-1.054.873-1.054h15.13c.328 0 .642.38.873 1.054.232.675.362 1.591.362 2.546z"/><path fill="#5a9c51" stroke="#45413c" stroke-linecap="round" stroke-linejoin="round" d="M2 83a3 3 0 0 1 3-3h11.6a3 3 0 0 1 3 3v10.8a3 3 0 0 1-3 3H5a3 3 0 0 1-3-3z"/><path fill="#5a9c51" d="M41.2 83a3 3 0 0 1 3-3h11.6a3 3 0 0 1 3 3v10.8a3 3 0 0 1-3 3H44.2a3 3 0 0 1-3-3z"/><path fill="#5a9c51" d="M58.8 83.429c0-.91-.124-1.782-.344-2.425-.221-.643-.52-1.004-.832-1.004H42.376c-.312 0-.61.361-.831 1.004S41.2 82.52 41.2 83.43V87.2c0-.955.13-1.87.362-2.546s.546-1.054.873-1.054h15.13c.328 0 .642.38.873 1.054.232.675.362 1.591.362 2.546z"/><path stroke="#45413c" stroke-linecap="round" stroke-linejoin="round" d="M41.2 83a3 3 0 0 1 3-3h11.6a3 3 0 0 1 3 3v10.8a3 3 0 0 1-3 3H44.2a3 3 0 0 1-3-3z"/><path fill="#5a9c51" d="M21.6 83a3 3 0 0 1 3-3h11.6a3 3 0 0 1 3 3v10.8a3 3 0 0 1-3 3H24.6a3 3 0 0 1-3-3z"/><path fill="#5a9c51" d="M39.2 83.429c0-.91-.124-1.782-.345-2.425S38.335 80 38.024 80H22.776c-.312 0-.61.361-.831 1.004S21.6 82.52 21.6 83.43V87.2c0-.955.13-1.87.362-2.546s.546-1.054.873-1.054h15.13c.327 0 .642.38.873 1.054.232.675.362 1.591.362 2.546z"/><path fill="#5a9c51" stroke="#45413c" stroke-linecap="round" stroke-linejoin="round" d="M21.6 83a3 3 0 0 1 3-3h11.6a3 3 0 0 1 3 3v10.8a3 3 0 0 1-3 3H24.6a3 3 0 0 1-3-3z"/><path fill="#5a9c51" d="M80.4 83a3 3 0 0 1 3-3H95a3 3 0 0 1 3 3v10.8a3 3 0 0 1-3 3H83.4a3 3 0 0 1-3-3z"/><path fill="#5a9c51" d="M98 83.429c0-.91-.124-1.782-.344-2.425-.221-.643-.52-1.004-.832-1.004H81.576c-.312 0-.61.361-.831 1.004S80.4 82.52 80.4 83.43V87.2c0-.955.13-1.87.362-2.546s.546-1.054.873-1.054h15.13c.328 0 .642.38.873 1.054.232.675.362 1.591.362 2.546z"/><path stroke="#45413c" stroke-linecap="round" stroke-linejoin="round" d="M80.4 83a3 3 0 0 1 3-3H95a3 3 0 0 1 3 3v10.8a3 3 0 0 1-3 3H83.4a3 3 0 0 1-3-3z"/><path fill="#5a9c51" d="M60.8 83a3 3 0 0 1 3-3h11.6a3 3 0 0 1 3 3v10.8a3 3 0 0 1-3 3H63.8a3 3 0 0 1-3-3z"/><path fill="#5a9c51" d="M78.4 83.429c0-.91-.124-1.782-.345-2.425S77.536 80 77.224 80H61.976c-.312 0-.61.361-.831 1.004S60.8 82.52 60.8 83.43V87.2c0-.955.13-1.87.362-2.546s.546-1.054.873-1.054h15.13c.328 0 .642.38.873 1.054.232.675.362 1.591.362 2.546z"/><path stroke="#45413c" stroke-linecap="round" stroke-linejoin="round" d="M60.8 83a3 3 0 0 1 3-3h11.6a3 3 0 0 1 3 3v10.8a3 3 0 0 1-3 3H63.8a3 3 0 0 1-3-3z"/><path fill="#fff" d="M8.245 93v-8.727h2.109v7.014h3.63V93zM92.711 84.273V93h-1.79l-3.473-5.037h-.055V93h-2.11v-8.727H87.1l3.435 5.028h.072v-5.028zM66.688 93v-8.727h3.605q.98 0 1.692.353.716.35 1.103 1.006.388.652.388 1.547 0 .908-.396 1.543-.397.63-1.125.963-.729.328-1.726.328h-2.28V88.35h1.888q.477 0 .797-.124.325-.128.49-.383.166-.26.166-.665t-.166-.67a1 1 0 0 0-.49-.4 2.1 2.1 0 0 0-.797-.136h-1.04V93zm4.913-3.989L73.775 93h-2.302l-2.13-3.989zM47.92 93h-2.268l2.945-8.727h2.808L54.35 93h-2.267l-2.05-6.528h-.068zm-.303-3.435h4.739v1.603h-4.74zM26.957 93v-8.727h6.086v1.713h-3.976v1.79h3.664v1.717h-3.664v1.794h3.976V93zM8.245 74v-8.727h2.109v7.014h3.63V74zM85.315 66.986v-1.713h7.376v1.713h-2.646V74h-2.08v-7.014zM73.711 65.273V74h-1.79l-3.473-5.037h-.055V74h-2.11v-8.727H68.1l3.435 5.028h.072v-5.028zM46.688 74v-8.727h3.605q.98 0 1.692.353.716.35 1.103 1.006.388.652.388 1.547 0 .908-.396 1.543-.397.63-1.125.963-.729.328-1.726.328h-2.28V69.35h1.888q.477 0 .797-.124.325-.128.49-.383.166-.26.166-.665t-.166-.67a1 1 0 0 0-.49-.4 2.1 2.1 0 0 0-.797-.136h-1.04V74zm4.913-3.989L53.775 74h-2.302l-2.13-3.989zM26.957 74v-8.727h6.086v1.713h-3.976v1.79h3.664v1.717h-3.664v1.794h3.976V74zM7.957 55v-8.727h6.086v1.713h-3.976v1.79h3.665v1.717h-3.665v1.794h3.976V55zM84.761 46.273h2.357l1.845 3.652h.076l1.846-3.652h2.356l-3.192 5.812V55h-2.096v-2.915zM67.245 55v-8.727h2.109v7.014h3.63V55zM46.688 55v-8.727h3.605q.98 0 1.692.353.716.35 1.103 1.006.388.652.388 1.547 0 .908-.396 1.543-.397.63-1.125.963-.729.328-1.726.328h-2.28V50.35h1.888q.477 0 .797-.124.325-.128.49-.383.166-.26.166-.665t-.166-.67a1 1 0 0 0-.49-.4 2.1 2.1 0 0 0-.797-.136h-1.04V55zm4.913-3.989L53.775 55h-2.302l-2.13-3.989zM27.92 55h-2.268l2.945-8.727h2.808L34.35 55h-2.267l-2.05-6.528h-.068zm-.303-3.435h4.738v1.603h-4.738zM8.245 36v-8.727h2.109v7.014h3.63V36zM85.688 36v-8.727h3.605q.98 0 1.692.353.716.35 1.103 1.006.388.652.388 1.547 0 .908-.396 1.543-.397.63-1.125.963-.729.328-1.726.328h-2.28V31.35h1.888q.477 0 .797-.124.325-.128.49-.383.166-.26.166-.665t-.166-.67a1 1 0 0 0-.49-.4 2.1 2.1 0 0 0-.797-.136h-1.04V36zm4.913-3.989L92.775 36h-2.302l-2.13-3.989zM66.957 36v-8.727h6.086v1.713h-3.976v1.79h3.665v1.717h-3.665v1.794h3.976V36zM46.315 28.986v-1.713h7.376v1.713h-2.646V36h-2.08v-7.014zM27.92 36h-2.268l2.945-8.727h2.808L34.35 36h-2.267l-2.05-6.528h-.068zm-.303-3.435h4.738v1.603h-4.738zM7.314 9.986V8.273h7.377v1.713h-2.646V17h-2.08V9.986zM92.711 8.273V17h-1.79l-3.473-5.037h-.055V17h-2.11V8.273H87.1l3.435 5.028h.072V8.273zM71.053 8.273V17h-2.11V8.273zM47.92 17h-2.268l2.945-8.727h2.808L54.35 17h-2.267l-2.05-6.528h-.068zm-.303-3.435h4.739v1.603h-4.74zM26.688 17V8.273h3.605q.98 0 1.692.353.716.35 1.103 1.006.388.652.388 1.547 0 .908-.396 1.543-.397.63-1.125.963-.729.328-1.726.328h-2.28V12.35h1.888q.477 0 .797-.124.324-.128.49-.383.165-.26.166-.665 0-.405-.166-.67a1 1 0 0 0-.49-.4 2.1 2.1 0 0 0-.797-.136h-1.04V17zm4.913-3.989L33.775 17h-2.302l-2.13-3.989z"/></svg>