<svg xmlns="http://www.w3.org/2000/svg" width="160" height="160" viewBox="0 0 160 160"><path fill="#c7f0ff" stroke="#c7f0ff" stroke-miterlimit="10" stroke-width="1.6" d="M14.55 81.915a64 64 0 1 0 128 0 64 64 0 1 0-128 0Z"/><path fill="#45413c" d="M55.453 136.86a23.814 2.646 0 1 0 47.629 0 23.814 2.646 0 1 0-47.63 0" opacity=".15"/><path fill="#ffe500" stroke="#45413c" stroke-linecap="round" stroke-linejoin="round" stroke-width="1.6" d="M75.66 24.704a2.5 2.5 0 0 1-.812-.133 2.56 2.56 0 0 1-1.622-3.246l1.828-5.485a2.566 2.566 0 0 1 4.87 1.624l-1.828 5.485a2.56 2.56 0 0 1-2.435 1.755M26.427 47.602a2.56 2.56 0 0 1-1.814-.752l-4.088-4.088a2.569 2.569 0 1 1 3.635-3.63l4.088 4.087a2.56 2.56 0 0 1-1.814 4.383Z"/><path fill="#4acfff" stroke="#45413c" stroke-linecap="round" stroke-linejoin="round" stroke-width="1.6" d="M81.323 83.798h-3.656a2.566 2.566 0 0 1 0-5.132h3.656a2.566 2.566 0 1 1 0 5.132M89.74 123.486a2.56 2.56 0 0 1-1.817-4.38l5.485-5.485a2.567 2.567 0 0 1 3.63 3.63l-5.484 5.483a2.56 2.56 0 0 1-1.815.752"/><path fill="#ffe500" stroke="#45413c" stroke-linecap="round" stroke-linejoin="round" stroke-width="1.6" d="M119.952 104.05a2.56 2.56 0 0 1-1.816-.752l-5.482-5.484a2.567 2.567 0 1 1 3.63-3.63l5.476 5.483a2.56 2.56 0 0 1-1.814 4.383Z"/><path fill="#4acfff" stroke="#45413c" stroke-linecap="round" stroke-linejoin="round" stroke-width="1.6" d="M111.131 29.962a2.56 2.56 0 0 1-1.814-.752l-5.477-5.484a2.567 2.567 0 0 1 3.63-3.63l5.482 5.483a2.56 2.56 0 0 1-1.814 4.383Z"/><path fill="#ffe500" stroke="#45413c" stroke-linecap="round" stroke-linejoin="round" stroke-width="1.6" d="M142.88 59.949a2.56 2.56 0 0 1-1.811-.749l-5.483-5.483a2.57 2.57 0 1 1 3.63-3.637l5.482 5.483a2.56 2.56 0 0 1-1.818 4.386"/><path fill="#4acfff" stroke="#45413c" stroke-linecap="round" stroke-linejoin="round" stroke-width="1.6" d="M22.9 84.64a2.56 2.56 0 0 1-1.815-.752l-5.483-5.478a2.566 2.566 0 0 1 3.628-3.63l5.484 5.484a2.56 2.56 0 0 1-1.815 4.376M130.438 86.443a2.5 2.5 0 0 1-.812-.133A2.56 2.56 0 0 1 128 83.064l1.829-5.483A2.567 2.567 0 0 1 134.7 79.2l-1.827 5.488a2.56 2.56 0 0 1-2.436 1.755M123.288 123.453a2.56 2.56 0 0 1-1.814-4.381l3.656-3.658a2.565 2.565 0 0 1 3.63 3.626l-3.656 3.66a2.56 2.56 0 0 1-1.816.753"/><path fill="#ffe500" stroke="#45413c" stroke-linecap="round" stroke-linejoin="round" stroke-width="1.6" d="M24.534 118.131a2.56 2.56 0 0 1-1.814-4.382l3.656-3.656a2.567 2.567 0 1 1 3.63 3.63l-3.657 3.656a2.56 2.56 0 0 1-1.815.752"/><path fill="#4acfff" stroke="#45413c" stroke-linecap="round" stroke-linejoin="round" stroke-width="1.6" d="M52.696 40.578a2.56 2.56 0 0 1-1.816-4.383l5.485-5.475A2.566 2.566 0 1 1 60 34.342l-5.483 5.484a2.56 2.56 0 0 1-1.821.752"/><path fill="#ff6242" d="M102.435 59.314h.016a36 36 0 0 1 3.445-10.159c4.606-9.12 11.626-14.853 15.68-12.8s3.605 11.1-1.002 20.22c-8.363 16.553-15.056 12.66-19.507 12.428Z"/><path fill="#ff866e" d="M101.6 65.227a36 36 0 0 1 3.42-10.05c4.607-9.12 11.626-14.85 15.68-12.8 1.884.953 2.783 3.428 2.756 6.71 1.622-6.148 1.037-11.255-1.882-12.729-4.052-2.048-11.072 3.68-15.68 12.8a36 36 0 0 0-3.444 10.159h-.016l-.852 6.022"/><path fill="none" stroke="#45413c" stroke-linecap="round" stroke-linejoin="round" stroke-width="1.6" d="M102.435 59.314h.016a36 36 0 0 1 3.445-10.159c4.606-9.12 11.626-14.853 15.68-12.8s3.605 11.1-1.002 20.22c-8.363 16.553-15.056 12.66-19.507 12.428Z"/><path fill="#ff6242" d="M102.149 59.277h-.018a36 36 0 0 0-.808-10.696c-2.192-9.98-7.565-17.28-12-16.304s-6.253 9.854-4.06 19.84c3.98 18.115 11.433 16.011 15.801 16.893Z"/><path fill="#ff866e" d="M101.486 65.211a36.1 36.1 0 0 0-.812-10.584c-2.192-9.979-7.565-17.28-12-16.304-2.063.453-3.55 2.627-4.34 5.813-.041-6.358 1.796-11.158 4.99-11.86 4.434-.975 9.807 6.324 12 16.303a36 36 0 0 1 .807 10.696h.018l-.675 6.045"/><path fill="none" stroke="#45413c" stroke-linecap="round" stroke-linejoin="round" stroke-width="1.6" d="M102.149 59.277h-.018a36 36 0 0 0-.808-10.696c-2.192-9.98-7.565-17.28-12-16.304s-6.253 9.854-4.06 19.84c3.98 18.115 11.433 16.011 15.801 16.893Z"/><path fill="#ff6242" d="M104.878 86.147c-1.28 8.992-5.035 15.896-8.408 15.42s-5.075-8.153-3.803-17.146 5.034-15.895 8.407-15.418 5.075 8.152 3.804 17.144"/><path fill="#e04122" d="M93.18 81.494c-.236 6.928 1.406 12.266 4.2 12.66 3.002.425 6.311-5.008 7.898-12.554a43 43 0 0 1-.4 4.547c-1.28 8.992-5.035 15.896-8.408 15.42s-5.075-8.153-3.803-17.146c.141-1.003.314-1.983.514-2.927"/><path fill="none" stroke="#45413c" stroke-linecap="round" stroke-linejoin="round" stroke-width="1.6" d="M104.878 86.147c-1.28 8.992-5.035 15.896-8.408 15.42s-5.075-8.153-3.803-17.146 5.034-15.895 8.407-15.418 5.075 8.152 3.804 17.144"/><path fill="#00f5bc" d="M52.48 79.184h.016a36.2 36.2 0 0 1 .134-10.72c1.562-10.096 6.466-17.718 10.952-17.024s6.861 9.44 5.3 19.538c-2.836 18.328-10.4 16.696-14.71 17.85Z"/><path fill="#8cffe4" d="M53.514 85.066a36.1 36.1 0 0 1 .145-10.615c1.562-10.096 6.466-17.718 10.952-17.025 2.08.32 3.707 2.4 4.696 5.53-.358-6.35-2.493-11.025-5.725-11.52-4.48-.695-9.39 6.927-10.952 17.023a36.2 36.2 0 0 0-.134 10.72h-.016l1.053 5.99"/><path fill="none" stroke="#45413c" stroke-linecap="round" stroke-linejoin="round" stroke-width="1.6" d="M52.48 79.184h.016a36.2 36.2 0 0 1 .134-10.72c1.562-10.096 6.466-17.718 10.952-17.024s6.861 9.44 5.3 19.538c-2.836 18.328-10.4 16.696-14.71 17.85Z"/><path fill="#00f5bc" d="M52.197 79.238h-.016a36 36 0 0 0-4.075-9.92c-5.17-8.81-12.536-14.09-16.453-11.793s-2.9 11.305 2.267 20.117c9.387 16 15.822 11.69 20.25 11.179Z"/><path fill="#8cffe4" d="M53.402 85.086a36.1 36.1 0 0 0-4.047-9.814c-5.17-8.813-12.536-14.093-16.453-11.795-1.82 1.069-2.56 3.597-2.33 6.87-2.004-6.035-1.742-11.168 1.08-12.822 3.914-2.298 11.28 2.982 16.452 11.793a36.1 36.1 0 0 1 4.075 9.92h.016l1.229 5.959"/><path fill="none" stroke="#45413c" stroke-linecap="round" stroke-linejoin="round" stroke-width="1.6" d="M52.195 79.237h-.016a36.1 36.1 0 0 0-4.075-9.92c-5.171-8.811-12.538-14.091-16.453-11.794s-2.9 11.306 2.269 20.117c9.386 16 15.822 11.691 20.25 11.18Z"/><path fill="#00f5bc" d="M56.022 98.442h-.016a36 36 0 0 1 .023 10.72c-1.413 10.118-6.205 17.812-10.703 17.184s-6.996-9.34-5.584-19.458c2.56-18.37 10.16-16.848 14.447-18.066Z"/><path fill="#00dba8" d="M54.904 92.574a36.2 36.2 0 0 1 .008 10.616c-1.413 10.119-6.205 17.812-10.702 17.184-2.09-.29-3.741-2.344-4.776-5.459.452 6.343 2.654 10.986 5.892 11.439 4.498.628 9.29-7.066 10.703-17.184a36 36 0 0 0-.023-10.72h.016l-1.142-5.983"/><path fill="none" stroke="#45413c" stroke-linecap="round" stroke-linejoin="round" stroke-width="1.6" d="M56.022 98.442h-.016a36 36 0 0 1 .023 10.72c-1.413 10.118-6.205 17.812-10.703 17.184s-6.996-9.34-5.584-19.458c2.56-18.37 10.16-16.848 14.447-18.066Z"/><path fill="#00f5bc" d="M56.306 98.384h.016a36.1 36.1 0 0 0 4.22 9.86c5.3 8.735 12.741 13.908 16.624 11.553s2.735-11.346-2.56-20.08c-9.619-15.858-15.992-11.458-20.41-10.88Z"/><path fill="#00dba8" d="M55.014 92.554a36.1 36.1 0 0 0 4.186 9.753c5.298 8.736 12.74 13.907 16.622 11.554 1.805-1.095 2.51-3.634 2.23-6.904 2.092 6.005 1.905 11.14-.89 12.837-3.884 2.355-11.325-2.818-16.624-11.552a36.1 36.1 0 0 1-4.218-9.861h-.016l-1.315-5.94"/><path fill="none" stroke="#45413c" stroke-linecap="round" stroke-linejoin="round" stroke-width="1.6" d="M56.306 98.384h.016a36.1 36.1 0 0 0 4.22 9.86c5.3 8.735 12.741 13.908 16.624 11.553s2.735-11.346-2.56-20.08c-9.619-15.858-15.992-11.458-20.41-10.88Z"/></svg>