<svg xmlns="http://www.w3.org/2000/svg" width="82" height="82" fill="none" viewBox="0 0 82 82"><path fill="#daedf7" stroke="#daedf7" d="M1 41a40 40 0 1 0 80 0 40 40 0 0 0-80 0Z"/><path fill="#45413c" d="M22 71.5c0 .328.479.653 1.408.957.93.303 2.293.579 4.01.81 1.718.233 3.758.417 6.002.543 2.245.125 4.65.19 7.08.19s4.835-.065 7.08-.19c2.244-.126 4.284-.31 6.002-.542s3.08-.508 4.01-.811S59 71.828 59 71.5s-.478-.653-1.408-.957-2.293-.579-4.01-.81c-1.718-.233-3.758-.417-6.002-.543-2.245-.125-4.65-.19-7.08-.19s-4.835.065-7.08.19c-2.244.126-4.284.31-6.001.542s-3.081.508-4.01.811c-.93.304-1.409.629-1.409.957"/><path fill="#ff6242" d="M40.5 14a25.4 25.4 0 0 0-10.086 2.084A25.3 25.3 0 0 0 22 22h37a25.3 25.3 0 0 0-8.414-5.916A25.4 25.4 0 0 0 40.499 14"/><path fill="#ff8a14" d="M17 30h12.38a13.86 13.86 0 0 1 4.92-3.787 14.8 14.8 0 0 1 6.2-1.355c2.15 0 4.272.463 6.2 1.355A13.86 13.86 0 0 1 51.62 30H64a23.3 23.3 0 0 0-5.253-8H22.253A23.3 23.3 0 0 0 17 30"/><path fill="#ffe500" d="M30 30H17.515A27.3 27.3 0 0 0 16 39h11.07c-.004-3.256 1.027-6.422 2.93-9M54.93 39H66c.003-3.07-.51-6.116-1.515-9H52c1.903 2.578 2.933 5.744 2.93 9"/><path fill="#6dd627" d="M52 47h12.486A21.8 21.8 0 0 0 66 39H54.93c.003 2.895-1.027 5.708-2.93 8M27.07 39H16a21.8 21.8 0 0 0 1.514 8H30c-1.903-2.292-2.934-5.105-2.93-8"/><path fill="#00b8f0" d="M40.5 52.786c-2.15 0-4.272-.523-6.2-1.526A14.2 14.2 0 0 1 29.38 47H17a26.7 26.7 0 0 0 5.253 9h36.494A26.7 26.7 0 0 0 64 47H51.62a14.2 14.2 0 0 1-4.92 4.26 13.4 13.4 0 0 1-6.2 1.526"/><path fill="#9f5ae5" d="M40.5 64c3.47.002 6.903-.708 10.086-2.084A25.3 25.3 0 0 0 59 56H22a25.3 25.3 0 0 0 8.414 5.916A25.4 25.4 0 0 0 40.499 64"/><path fill="#ff6242" d="M40.496 14a25.3 25.3 0 0 0-10.084 2.08A25.25 25.25 0 0 0 22 22h6.894a28.58 28.58 0 0 1 23.213 0H59a25.25 25.25 0 0 0-8.415-5.92A25.3 25.3 0 0 0 40.496 14"/><path fill="#ffaa54" d="M29 22h-6.778A23.2 23.2 0 0 0 17 30h1.245c2.826-3.463 6.522-6.212 10.755-8M62.754 30H64a23.2 23.2 0 0 0-5.226-8H52c4.233 1.79 7.928 4.538 10.754 8"/><path fill="#fff48c" d="M65 34a38 38 0 0 0-.865-4H63a36 36 0 0 1 2 4M16 34a36 36 0 0 1 2-4h-1.135A38 38 0 0 0 16 34"/><path stroke="#45413c" stroke-linecap="round" stroke-linejoin="round" d="M40.5 64a24.15 24.15 0 0 1-13.611-4.213 24.9 24.9 0 0 1-9.024-11.22 25.47 25.47 0 0 1-1.394-14.444 25.16 25.16 0 0 1 6.705-12.8A24.35 24.35 0 0 1 35.72 14.48a24.04 24.04 0 0 1 14.156 1.423 24.6 24.6 0 0 1 10.995 9.208A25.36 25.36 0 0 1 65 39c-.007 6.628-2.59 12.983-7.184 17.67-4.593 4.686-10.82 7.323-17.316 7.33m0-39.024c-2.718 0-5.376.822-7.636 2.363a13.97 13.97 0 0 0-5.062 6.294 14.3 14.3 0 0 0-.782 8.103c.53 2.72 1.84 5.22 3.762 7.18a13.66 13.66 0 0 0 7.037 3.839c2.666.541 5.43.263 7.94-.798a13.8 13.8 0 0 0 6.169-5.166A14.23 14.23 0 0 0 54.244 39a14.2 14.2 0 0 0-4.03-9.912 13.62 13.62 0 0 0-9.714-4.112"/></svg>