<svg xmlns="http://www.w3.org/2000/svg" width="100" height="100" fill="none" viewBox="0 0 100 100"><desc>Raining 2 Streamline Illustration: https://streamlinehq.com</desc><path fill="#4acfff" d="M90 51.25a39.998 39.998 0 0 0-64.477-31.642A40 40 0 0 0 13.564 67.75h72.872A39.84 39.84 0 0 0 90 51.25"/><path fill="#b8ecff" d="M13.564 67.75a40 40 0 0 0 72.872 0z"/><path stroke="#45413c" stroke-linecap="round" stroke-linejoin="round" d="M11 67.75h78M6.5 67.75H9M91 67.75h2.5"/><path stroke="#e5f8ff" stroke-linecap="round" stroke-miterlimit="10" d="M35.5 81.715c-2.282-.162-4-.868-4-1.715 0-.648 1.005-1.213 2.5-1.515M36.5 78.25c2.761 0 5 .783 5 1.75 0 .783-1.471 1.447-3.5 1.67M26.5 70.785c2.282.162 4 .868 4 1.715 0 .648-1 1.213-2.5 1.515M25.5 74.25c-2.762 0-5-.783-5-1.75 0-.783 1.471-1.447 3.5-1.67M43.5 70.785c2.282.162 4 .868 4 1.715 0 .648-1.005 1.213-2.5 1.515M42.5 74.25c-2.762 0-5-.783-5-1.75 0-.783 1.471-1.447 3.5-1.67M71 70.285c2.282.162 4 .868 4 1.715 0 .648-1 1.213-2.5 1.515M70 73.75c-2.762 0-5-.783-5-1.75 0-.783 1.471-1.447 3.5-1.67M70 81.715c-2.282-.162-4-.868-4-1.715 0-.648 1-1.213 2.5-1.515M71 78.25c2.761 0 5 .783 5 1.75 0 .783-1.471 1.447-3.5 1.67"/><path stroke="#f8f8f8" stroke-linecap="round" stroke-miterlimit="10" d="M19.959 44.026 15 57.652M24.064 32.75l-2.224 6.108M39.459 46.125 34.5 59.75M43.564 34.848l-2.224 6.108M78.959 49.625 74 63.25M83.064 38.348l-2.224 6.108M32.5 40.288l-4.959 13.625M26.002 58.142l-2.224 6.108M76.721 25.75l-4.959 13.626M70.223 43.604 68 49.712"/><path fill="#ffcebf" d="m57.298 84.779 1.932-17.23H45.191l1.931 17.23z"/><path fill="#ffb59e" d="m58.085 77.759.358-3.191H45.978l.357 3.191z"/><path stroke="#45413c" stroke-linecap="round" stroke-linejoin="round" d="m57.298 84.779 1.932-17.23H45.191l1.931 17.23z"/><path stroke="#45413c" stroke-linecap="round" stroke-linejoin="round" d="m57.298 84.779 1.932-17.23H45.191l1.931 17.23zM52.21 72.654v12.125"/><path fill="#45413c" d="M52.21 94.35c5.991 0 10.848-.857 10.848-1.914s-4.857-1.914-10.848-1.914-10.848.857-10.848 1.914 4.857 1.914 10.848 1.914" opacity=".15"/><path fill="#ff6242" stroke="#45413c" stroke-linecap="round" stroke-linejoin="round" d="M47.105 91.16h5.105v-8.934h-4.372a1.275 1.275 0 0 0-1.273 1.367zM57.315 91.16h-5.1v-8.934h4.373a1.275 1.275 0 0 1 1.273 1.367z"/><path fill="#ff6242" stroke="#45413c" stroke-linecap="round" stroke-linejoin="round" d="M52.21 91.16a3.83 3.83 0 0 0-3.829-3.829h-.638a3.83 3.83 0 0 0-3.352 1.978 1.272 1.272 0 0 0 1.145 1.851zM58.885 91.16a1.273 1.273 0 0 0 1.145-1.851 3.83 3.83 0 0 0-3.353-1.978h-.638a3.83 3.83 0 0 0-3.829 3.829z"/><path fill="#fffacf" d="M63.7 55.424a11.485 11.485 0 0 0-11.49-11.486 11.71 11.71 0 0 0-11.486 11.88v2.8h4.467V73.93a.64.64 0 0 0 .638.638h12.763a.637.637 0 0 0 .638-.638v-5.105h4.47z"/><path fill="#fffef2" d="M63.7 55.424a11.485 11.485 0 0 0-11.49-11.486 11.71 11.71 0 0 0-11.486 11.88v2.552A11.707 11.707 0 0 1 52.21 46.49 11.487 11.487 0 0 1 63.7 57.977z"/><path stroke="#45413c" stroke-linecap="round" stroke-linejoin="round" d="M63.7 55.424a11.485 11.485 0 0 0-11.49-11.486 11.71 11.71 0 0 0-11.486 11.88v2.8h4.467V73.93a.64.64 0 0 0 .638.638h12.763a.637.637 0 0 0 .638-.638v-5.105h4.47z"/><path fill="#ffcebf" stroke="#45413c" stroke-linecap="round" stroke-linejoin="round" d="M59.23 68.825v2.234a2.234 2.234 0 0 0 4.467 0v-2.234z"/><path stroke="#45413c" stroke-linecap="round" stroke-linejoin="round" d="M45.829 50.319c-1.6 3.2-2.566 4.193-1.341 5.921.488.693.734 1.528.7 2.375M58.592 50.319c1.6 3.2 2.566 4.193 1.341 5.921a3.85 3.85 0 0 0-.7 2.375v10.21M52.21 43.938a11.1 11.1 0 0 0-6.666 2.2 7.022 7.022 0 0 0 13.356-.055c-1.95-1.4-4.29-2.15-6.69-2.145"/><path fill="#ffcebf" stroke="#45413c" stroke-linecap="round" stroke-linejoin="round" d="M55.552 44.432a1 1 0 0 1-.71-.958V39.5h-5.257v3.987a1 1 0 0 1-.7.955q-.533.165-1.047.385a4.468 4.468 0 0 0 8.761-.023q-.517-.21-1.047-.372"/><path stroke="#45413c" stroke-linecap="round" stroke-linejoin="round" d="m45.191 69.484 1.5-1.427a1.275 1.275 0 0 1 1.727-.027l.447.4a1.277 1.277 0 0 0 1.721-.021l.633-.592a1.276 1.276 0 0 1 1.854.117l.364.438a1.278 1.278 0 0 0 1.914.056l.437-.467a1.276 1.276 0 0 1 1.82-.045l1.62 1.568M45.191 72.654l1.5-1.427a1.275 1.275 0 0 1 1.729-.027l.447.4a1.276 1.276 0 0 0 1.721-.021l.633-.592a1.275 1.275 0 0 1 1.854.117l.364.438a1.278 1.278 0 0 0 1.914.056l.437-.468a1.276 1.276 0 0 1 1.82-.045l1.62 1.569"/><path fill="#ffcebf" stroke="#45413c" stroke-linecap="round" stroke-linejoin="round" d="M61.144 35.227a1.57 1.57 0 0 0-1.276-1.53v-1.022a7.656 7.656 0 0 0-7.657-7.745 7.66 7.66 0 0 0-7.658 7.745V33.7a1.563 1.563 0 0 0 .16 3.094 7.66 7.66 0 0 0 14.994 0 1.58 1.58 0 0 0 1.437-1.567"/><path fill="#ffb59e" d="M48.062 37.142a.957.957 0 1 0 0-1.914.957.957 0 0 0 0 1.914M56.358 37.142a.957.957 0 1 0 0-1.914.957.957 0 0 0 0 1.914"/><path stroke="#45413c" stroke-linecap="round" stroke-linejoin="round" d="M50.3 38.477a3.455 3.455 0 0 0 3.829 0"/><path fill="#45413c" d="M49.339 34.589a.957.957 0 1 0 0-1.914.957.957 0 0 0 0 1.914M55.082 34.589a.957.957 0 1 0 0-1.914.957.957 0 0 0 0 1.914"/><path fill="#ffe500" stroke="#45413c" stroke-linecap="round" stroke-linejoin="round" d="M49.448 30.923c-5.2.644-6.112 3-6.123 3.028-.731 5.487 1.491 9.493.215 15.506a.38.38 0 0 0 .63.356c1.3-1.156 3.573-3.561 3.573-6.29 0-3.775-3.1-8.79 1.705-12.6M54.973 30.923c5.2.644 6.111 3 6.123 3.028.73 5.487-1.492 9.493-.215 15.506a.381.381 0 0 1-.631.356c-1.3-1.156-3.573-3.561-3.573-6.29 0-3.775 3.101-8.79-1.704-12.6"/><path fill="#dabff5" d="M52.21 21.826c-7.009.028-11.48 5.122-8.885 12.125.014-.035 1.232-3.176 8.885-3.19 7.683.014 8.881 3.179 8.886 3.19 2.585-6.961-1.835-12.097-8.886-12.125"/><path fill="#eddbff" d="M52.21 24.618c5.1.02 8.854 2.722 9.524 6.889.841-5.714-3.359-9.656-9.524-9.681-6.164.025-10.365 3.967-9.523 9.681.669-4.167 4.424-6.868 9.523-6.889"/><path stroke="#45413c" stroke-linecap="round" stroke-linejoin="round" d="M52.21 21.826c-7.009.028-11.48 5.122-8.885 12.125.014-.035 1.232-3.176 8.885-3.19 7.683.014 8.881 3.179 8.886 3.19 2.585-6.961-1.835-12.097-8.886-12.125"/><path fill="#bf8df2" stroke="#45413c" stroke-linecap="round" stroke-linejoin="round" d="M61.1 33.951c.383-1.007.624-2.062.716-3.136a17.65 17.65 0 0 0-9.6-2.607 17.66 17.66 0 0 0-9.6 2.606c.093 1.074.334 2.13.717 3.137.014-.036 1.232-3.176 8.885-3.19 7.675.014 8.873 3.179 8.882 3.19"/><path fill="#bdbec0" stroke="#45413c" stroke-miterlimit="10" d="M44.553 67.549a3.833 3.833 0 0 0 3.828-3.829v-1.276a1.276 1.276 0 1 0-2.552 0v1.276a1.277 1.277 0 0 1-2.553 0V19.688a1.276 1.276 0 1 0-2.552 0V63.72a3.833 3.833 0 0 0 3.829 3.829Z"/><path fill="#ff6242" d="M42 5.649S16.474 10.116 16.474 26.07a17.81 17.81 0 0 1 15.432-.241l.522.241.715-.286a24.9 24.9 0 0 1 17.714 0l.715.286.522-.241a17.81 17.81 0 0 1 15.432.241C67.526 10.116 42 5.649 42 5.649"/><path fill="#ff6242" d="M42 5.649a26.42 26.42 0 0 0-9.572 20.421l.715-.286a24.9 24.9 0 0 1 17.714 0l.715.286A26.42 26.42 0 0 0 42 5.649"/><path fill="#ff6242" d="M42 12.031c11.806 0 21.828 5.088 25.4 12.154C65.5 9.762 42 5.649 42 5.649S18.5 9.762 16.6 24.185c3.572-7.066 13.594-12.154 25.4-12.154"/><path stroke="#45413c" stroke-linecap="round" stroke-linejoin="round" d="M42 5.649S16.474 10.116 16.474 26.07a17.81 17.81 0 0 1 15.432-.241l.522.241.715-.286a24.9 24.9 0 0 1 17.714 0l.715.286.522-.241a17.81 17.81 0 0 1 15.432.241C67.526 10.116 42 5.649 42 5.649"/><path fill="#ffa694" d="M36.166 12.455a40.4 40.4 0 0 1 11.668 0A24.8 24.8 0 0 0 42 5.649a24.8 24.8 0 0 0-5.834 6.806"/><path stroke="#45413c" stroke-linecap="round" stroke-linejoin="round" d="M42 5.649a26.42 26.42 0 0 0-9.572 20.421l.715-.286a24.9 24.9 0 0 1 17.714 0l.715.286A26.42 26.42 0 0 0 42 5.649"/><path fill="#ffcebf" stroke="#45413c" stroke-linecap="round" stroke-linejoin="round" d="M44.553 59.253a1.915 1.915 0 0 1-1.915 1.914h-1.276a1.276 1.276 0 0 1-1.276-1.276v-1.914a1.28 1.28 0 0 1 1.276-1.277h1.276a1.916 1.916 0 0 1 1.915 1.915z"/></svg>