<svg xmlns="http://www.w3.org/2000/svg" width="100" height="100" viewBox="0 0 100 100"><desc>Vr Robot 2 Streamline Illustration: https://streamlinehq.com</desc><path fill="#daedf7" stroke="#daedf7" d="M2.986 50.252a40 40 0 1 0 80 0 40 40 0 1 0-80 0Z"/><path fill="#e0e0e0" stroke="#45413c" stroke-linecap="round" stroke-linejoin="round" d="M43.265 74.337a2.1 2.1 0 0 1-.955-2.649 65.6 65.6 0 0 1 11.2-18.433 2.1 2.1 0 0 1 3.19 2.728A62.2 62.2 0 0 0 46.2 73.28a2.1 2.1 0 0 1-2.931 1.057Z"/><path fill="#87898c" stroke="#45413c" stroke-linecap="round" stroke-linejoin="round" d="M36.808 70.4c-.728 2 1.37 2.552 3.874 3.462s4.465 1.839 5.194-.164-.71-4.365-3.214-5.276-5.125-.022-5.854 1.978"/><path fill="none" stroke="#45413c" stroke-linecap="round" stroke-linejoin="round" d="M52.847 60.968a9 9 0 0 1-1.878-1.125 9 9 0 0 1-1.476-1.429M50.377 64.855a9.25 9.25 0 0 1-3.588-2.2M48.39 68.465a8.5 8.5 0 0 1-2.51-1.082 9.4 9.4 0 0 1-1.194-.886"/><path fill="#87898c" d="M43.5 58.536a.495.495 0 0 0 .685.27 5.2 5.2 0 1 0-7.359-3.351.5.5 0 0 0 .653.34l1.4-.525a.5.5 0 0 0 .312-.564 2.724 2.724 0 1 1 4 1.823.494.494 0 0 0-.221.6Z"/><path fill="none" stroke="#45413c" stroke-linecap="round" stroke-linejoin="round" d="M43.5 58.536a.495.495 0 0 0 .685.27 5.2 5.2 0 1 0-7.359-3.351.5.5 0 0 0 .653.34l1.4-.525a.5.5 0 0 0 .312-.564 2.724 2.724 0 1 1 4 1.823.494.494 0 0 0-.221.6Z"/><path fill="#87898c" d="M89.251 26.794a.495.495 0 0 0-.728-.111 5.2 5.2 0 1 0 7.918 1.646.5.5 0 0 0-.712-.188l-1.253.821a.5.5 0 0 0-.179.619 2.724 2.724 0 1 1-4.306-.9.494.494 0 0 0 .082-.638Z"/><path fill="none" stroke="#45413c" stroke-linecap="round" stroke-linejoin="round" d="M89.251 26.794a.495.495 0 0 0-.728-.111 5.2 5.2 0 1 0 7.918 1.646.5.5 0 0 0-.712-.188l-1.253.821a.5.5 0 0 0-.179.619 2.724 2.724 0 1 1-4.306-.9.494.494 0 0 0 .082-.638Z"/><path fill="#adc4d9" stroke="#45413c" stroke-linecap="round" stroke-linejoin="round" d="M41.579 49.662a2.1 2.1 0 1 0 3.865 1.662A13.94 13.94 0 0 1 57.1 42.466a17.9 17.9 0 0 1 5.659.239 2.12 2.12 0 0 0 2.541-1.544 2 2 0 0 0-.1-1.271l-4.77-1.748a22 22 0 0 0-1.747-.017 18.46 18.46 0 0 0-17.104 11.537M69.626 46.291q.082.03.169.054c5.415 1.473 17.077 1.181 22.451-10.475a2.1 2.1 0 0 0-3.814-1.759c-5.213 11.307-17.04 8.312-17.54 8.18a2.1 2.1 0 0 0-1.266 4"/><path fill="#adc4d9" d="M59.405 80.208a2.1 2.1 0 0 0 2.435-1.416 65.6 65.6 0 0 0 3.26-21.319 2.1 2.1 0 0 0-4.2.038 62.2 62.2 0 0 1-3.064 20 2.1 2.1 0 0 0 1.364 2.643 2 2 0 0 0 .205.054"/><path fill="#adc4d9" d="M60.9 57.511a44 44 0 0 1-.128 4.867 6.7 6.7 0 0 0 4.293-1.319c.1-2.127.036-3.419.035-3.586a2 2 0 0 0-.026-.309l-3.44-1.264a2.1 2.1 0 0 0-.734 1.611"/><path fill="none" stroke="#45413c" stroke-linecap="round" stroke-linejoin="round" d="M59.405 80.208a2.1 2.1 0 0 0 2.435-1.416 65.6 65.6 0 0 0 3.26-21.319 2.1 2.1 0 0 0-4.2.038 62.2 62.2 0 0 1-3.064 20 2.1 2.1 0 0 0 1.364 2.643 2 2 0 0 0 .205.054"/><path fill="#87898c" stroke="#45413c" stroke-linecap="round" stroke-linejoin="round" d="m64.014 39.458.827-2.253 2.253.827-.827 2.253z"/><path fill="#fff" stroke="#45413c" stroke-linecap="round" stroke-linejoin="round" d="m66.282 56.174-12.557-4.608 4.793-13.06a1 1 0 0 1 1.283-.595l10.68 3.92a1 1 0 0 1 .594 1.283Z"/><path fill="#daedf7" stroke="#45413c" stroke-linecap="round" stroke-linejoin="round" d="M66.282 56.174a6.688 6.688 0 0 1-12.557-4.608Z"/><path fill="#4acfff" d="M66.389 46.175a1.2 1.2 0 0 1-1.54.713l-4.025-1.477a1.2 1.2 0 0 1-.713-1.54L62 38.719l6.278 2.3Z"/><path fill="#4acfff" d="m62 38.719-1.891 5.152a1.2 1.2 0 0 0-.021.764l8.19-3.612Z"/><path fill="none" stroke="#45413c" stroke-linecap="round" stroke-linejoin="round" d="M66.389 46.175a1.2 1.2 0 0 1-1.54.713l-4.025-1.477a1.2 1.2 0 0 1-.713-1.54L62 38.719l6.278 2.3Z"/><path fill="#87898c" stroke="#45413c" stroke-linecap="round" stroke-linejoin="round" d="M67.408 79.622c-.026 2.131-2.184 1.9-4.848 1.871s-4.827.143-4.8-1.989 2.207-3.833 4.871-3.8 4.803 1.786 4.777 3.918"/><path fill="none" stroke="#45413c" stroke-linecap="round" stroke-linejoin="round" d="M60.653 63.808a9.3 9.3 0 0 0 4.211.2M60.048 68.373a9.3 9.3 0 0 0 4.164.619M59.251 72.416a8.5 8.5 0 0 0 2.619.783 9 9 0 0 0 1.484.088M89.938 39.757A3.97 3.97 0 0 0 86.61 37.2M85.023 44.229a3.97 3.97 0 0 0-1.843-3.578M79.37 46.477a3.97 3.97 0 0 0-1.641-3.977M73 46.893a3.97 3.97 0 0 0 1-4.169M43.676 45.881a3.97 3.97 0 0 0 3.624 2.148M48.955 40.9a3.97 3.97 0 0 0 1.529 4"/><path fill="#00b8f0" d="m58.15 34.769 4.066-11.128 15.579 5.692-4.066 11.127Z"/><path fill="#4acfff" d="M59.194 34.634a2.37 2.37 0 0 1-.231-2.092l2.437-6.676a2.37 2.37 0 0 1 3.039-1.413l9.336 3.411Z"/><path fill="none" stroke="#45413c" stroke-linecap="round" stroke-linejoin="round" d="m58.15 34.769 4.066-11.128 15.579 5.692-4.066 11.127Z"/><path fill="#fff" stroke="#009fd9" stroke-linecap="round" stroke-linejoin="round" d="M65.746 32.487a1.25 1.25 0 0 1-1.249-1.3 1.2 1.2 0 0 1-.976.487 1.25 1.25 0 0 1-1.134-.723 1.24 1.24 0 0 1-.04-.956 2.435 2.435 0 0 1 4.574 1.671 1.26 1.26 0 0 1-1.175.821M72.423 34.927a1.25 1.25 0 0 1-1.133-.727 1.25 1.25 0 0 1-.117-.575 1.2 1.2 0 0 1-.975.486 1.2 1.2 0 0 1-.431-.078 1.25 1.25 0 0 1-.743-1.6 2.437 2.437 0 0 1 3.122-1.452A2.44 2.44 0 0 1 73.6 34.1a1.25 1.25 0 0 1-1.177.827"/><path fill="#45413c" d="M9.761 80.527a21 1.725 0 1 0 42 0 21 1.725 0 1 0-42 0" opacity=".15"/><path fill="#45413c" d="M40.986 82.527a13 1.725 0 1 0 26 0 13 1.725 0 1 0-26 0" opacity=".15"/><path fill="#b8ecff" d="M7.986 18.252h46v62h-46Z"/><path fill="#e5f8ff" d="M53.986 22.252v5a4 4 0 0 0-4-4h-38a4 4 0 0 0-4 4v-5a4 4 0 0 1 4-4h38a4 4 0 0 1 4 4"/><path fill="none" stroke="#45413c" d="M7.986 18.252h46v62h-46Z"/><path fill="#4acfff" stroke="#009fd9" stroke-linecap="round" stroke-linejoin="round" d="M48.271 51.18a17.07 17.07 0 0 0-11.61-14.941 6.1 6.1 0 0 0-2.1-.373h-1.667a.5.5 0 0 1-.5-.5v-1.224a.5.5 0 0 1 .5-.5c3.619.012 3.911.2 4.787-.47l.005.005c1.133-.869.877-1.465.866-8.444a2.223 2.223 0 0 0-2.227-2.221H25.3a2.223 2.223 0 0 0-2.228 2.221c-.01 6.979-.267 7.575.867 8.444v-.005c.876.67 1.169.482 4.788.47a.5.5 0 0 1 .355.146.5.5 0 0 1 .146.355v1.224a.5.5 0 0 1-.5.5H27.06a6.1 6.1 0 0 0-2.1.373 17.07 17.07 0 0 0-11.609 14.94c-5.012 1.777-2.917 8.407-1.683 7.35l1.054-.9a.46.46 0 0 0 .092-.589 2.508 2.508 0 0 1 1.105-3.615 1.89 1.89 0 0 0 2.4.173 2.508 2.508 0 0 1 .56 3.755.46.46 0 0 0 0 .6l.9 1.054a.46.46 0 0 0 .682.017 4.807 4.807 0 0 0-1.231-7.546 12.8 12.8 0 0 1 6.655-10.453.5.5 0 0 1 .745.435v8.379c.011.339.027.565.051.749a3 3 0 0 1-.153 1.4 61.8 61.8 0 0 0-3.423 15.969c-2.81-.462-5.384 1.263-5.38 3.509 0 1.976 2 1.787 4.474 1.783 2.333 0 4.227.137 4.43-1.511a2 2 0 0 0 .184-.754 61.2 61.2 0 0 1 2.437-14.869 1 1 0 0 1 1.324-.647 6.1 6.1 0 0 0 4.468 0 1 1 0 0 1 1.324.647 61.2 61.2 0 0 1 2.437 14.869 1.9 1.9 0 0 0 .183.754c.2 1.648 2.1 1.507 4.43 1.511 2.47 0 4.472.193 4.475-1.783 0-2.246-2.571-3.971-5.38-3.509a61.8 61.8 0 0 0-3.421-15.973 2.96 2.96 0 0 1-.152-1.4c.024-.184.04-.41.05-.749v-8.382a.5.5 0 0 1 .745-.435 12.8 12.8 0 0 1 6.655 10.453 4.808 4.808 0 0 0-1.231 7.546.46.46 0 0 0 .682-.018l.9-1.054a.46.46 0 0 0 0-.6A2.508 2.508 0 0 1 45.3 53.6a1.89 1.89 0 0 0 2.4-.173 2.508 2.508 0 0 1 1.1 3.615.46.46 0 0 0 .092.589l1.054.9c1.241 1.056 3.337-5.574-1.675-7.351"/><path fill="#fff" d="M53.986 66.252v10a4 4 0 0 1-4 4h-38a4 4 0 0 1-4-4v-10Z"/><path fill="#e5f8ff" d="M53.986 73.252v3a4 4 0 0 1-4 4h-38a4 4 0 0 1-4-4v-3a4 4 0 0 0 4 4h38a4 4 0 0 0 4-4"/><path fill="none" stroke="#45413c" d="M53.986 66.252v10a4 4 0 0 1-4 4h-38a4 4 0 0 1-4-4v-10Z"/><path fill="#f8f8f8" stroke="#45413c" stroke-linecap="round" stroke-linejoin="round" d="M35.986 10.252h-10a4 4 0 0 0-4 4v4h18v-4a4 4 0 0 0-4-4m-1 6h-8a1 1 0 0 1 0-2h1.172a1 1 0 0 0 .942-.665 2 2 0 0 1 3.771 0 1 1 0 0 0 .943.665h1.172a1 1 0 0 1 0 2"/><path fill="#009fd9" d="M18.174 69.855a.66.66 0 0 1-.647.664.675.675 0 0 1-.648-.664.648.648 0 0 1 1.295 0m-1.223 1.735a.579.579 0 1 1 1.151 0v3.07a.579.579 0 1 1-1.151 0ZM21.462 72.43a.47.47 0 0 1 .455.512.463.463 0 0 1-.455.5h-1.7a.464.464 0 0 1-.456-.5.47.47 0 0 1 .456-.512ZM23.167 70.183a.566.566 0 0 1 .616-.624h1.407c1.231 0 1.99.552 1.99 1.807a1.55 1.55 0 0 1-1.48 1.511l1.36 1.455a.52.52 0 0 1 .159.353.606.606 0 0 1-1.063.407l-1.775-2.15h-.016v1.734a.6.6 0 1 1-1.2 0Zm1.2 1.895h.824a.68.68 0 0 0 .743-.712.67.67 0 0 0-.743-.7h-.824ZM32.18 73.133a2.068 2.068 0 1 1-4.125 0 2.069 2.069 0 1 1 4.125 0m-2.974 0c0 .552.288 1.16.911 1.16s.912-.608.912-1.16-.28-1.175-.912-1.175-.911.623-.911 1.175M33.31 69.736a.579.579 0 1 1 1.152 0V71.3a1.67 1.67 0 0 1 1.095-.4 2.255 2.255 0 0 1-.04 4.445 1.25 1.25 0 0 1-1.055-.527.55.55 0 0 1-.576.479.58.58 0 0 1-.576-.64Zm2.056 4.557c.6 0 .9-.624.9-1.16s-.3-1.175-.9-1.175c-.616 0-.9.575-.9 1.135s.268 1.2.9 1.2M42.5 73.133a2.068 2.068 0 1 1-4.126 0 2.069 2.069 0 1 1 4.126 0m-2.974 0c0 .552.288 1.16.911 1.16s.912-.608.912-1.16-.28-1.175-.912-1.175-.911.623-.911 1.175M43.91 72.006h-.255a.467.467 0 0 1-.5-.5.49.49 0 0 1 .5-.5h.255v-.687a.579.579 0 1 1 1.152 0V71h.327a.506.506 0 1 1 0 1.008h-.327v2.652a.579.579 0 1 1-1.152 0Z"/><path fill="#45413c" d="M41.115 19.527a9.779 9.779 0 1 0 19.558 0 9.779 9.779 0 1 0-19.558 0"/><path fill="#87898c" d="M43.9 26.365a9.78 9.78 0 0 1 13.985-13.676Z"/><path fill="#fff" stroke="#45413c" stroke-linecap="round" stroke-linejoin="round" d="M49.684 14.954a1.39 1.39 0 0 0-1.267.9l-1.349 3.622-1.368-3.663a1.376 1.376 0 0 0-2.651.486 1.6 1.6 0 0 0 .115.613l2.573 6.542a1.389 1.389 0 0 0 2.664 0l2.57-6.537a1.6 1.6 0 0 0 .116-.613 1.377 1.377 0 0 0-1.403-1.35M57.74 22.185l-1.429-1.528a2.59 2.59 0 0 0 1.739-2.481c0-2.032-1.215-3.151-3.42-3.151h-2.064a1.32 1.32 0 0 0-1.4 1.415v6.591a1.38 1.38 0 1 0 2.759 0v-1.182l1.745 2.114a1.39 1.39 0 0 0 2.443-.919 1.25 1.25 0 0 0-.373-.859m-2.769-4.009c0 .361-.2.544-.591.544h-.459v-1.077h.459c.591 0 .591.387.591.533"/><path fill="none" stroke="#45413c" stroke-linecap="round" stroke-linejoin="round" d="M41.115 19.527a9.779 9.779 0 1 0 19.558 0 9.779 9.779 0 1 0-19.558 0"/></svg>