<svg xmlns="http://www.w3.org/2000/svg" width="160" height="160" fill="none"><path fill="#c7f0ff" d="M16 80a64 64 0 1 0 127.999 0A64 64 0 0 0 16 80"/><path fill="#f9e8cf" d="M131.106 135.266H89.699a4.81 4.81 0 0 1-4.808-4.808V89.051a4.81 4.81 0 0 1 4.808-4.808h41.407a4.81 4.81 0 0 1 4.808 4.808v41.407a4.81 4.81 0 0 1-4.808 4.808M69.599 75.757H28.192a4.81 4.81 0 0 1-4.808-4.808V29.543a4.81 4.81 0 0 1 4.808-4.808h41.407a4.81 4.81 0 0 1 4.808 4.808V70.95a4.81 4.81 0 0 1-4.808 4.807m62.209 0H90.401a4.81 4.81 0 0 1-4.808-4.808V29.543a4.81 4.81 0 0 1 4.808-4.808h41.407a4.81 4.81 0 0 1 4.808 4.808V70.95a4.81 4.81 0 0 1-4.808 4.807"/><path fill="#1a1e24" d="M59.946 37.582c-1.077 1.058-.848.937-3.877 14.44C52.5 38.847 52.71 38.84 51.37 37.66c-.603-.532-1.428-.802-2.45-.802-3.197 0-3.826 2.5-4.444 4.867l-2.76 10.28-2.5-11.154c-.527-2.476-1.084-3.992-3.389-3.992-.86 0-1.597.292-2.189.869-1.724 1.681-1.054 2.323 3.55 20.94q.183.74.42 1.603c1.331 4.935 6.23 3.819 7.305.987.434-1.147.712-2.269 4.002-14.32 4.017 14.9 3.782 14.817 5.149 15.949 1.442 1.196 4.788 1.226 5.826-1.711.353-.996 5.16-19.902 5.16-21.294 0-2.931-3.567-3.815-5.105-2.301m51.075-.723c-8.068 0-12.638 5.442-12.638 13.32 0 16.637 20.68 17.371 24.637 5.418 2.373-7.176.211-18.738-11.999-18.738m-5.589 9.836c1.84-5.809 8.929-5.613 11.034-.845 1.678 3.814 1.17 12.302-5.378 12.302-6.088.001-6.91-7.498-5.656-11.457"/><path fill="#f9a7a7" d="M65.903 67.289c-3.123 0-4.369.276-4.369-1.01 0-.358.374-.783.593-1.072 3.924-5.249 3.838-5.317 4.395-5.317q.96 0 .959 1.099v4.886c.355 0 .728-.013 1.051.133.382.172.394.877.054 1.114-.29.202-.753.167-1.105.167 0 .909.096 1.553-.214 1.898-.285.312-.846.328-1.146-.007-.317-.355-.218-.977-.218-1.891m-2.715-1.414h2.715v-3.668zm64.058-3.251q-1.604 1.23-2.16 1.23c-.619 0-.901-.851-.473-1.173.651-.487 1.686-.568 2.746-2.04q.353-.492.461-.605c.157-.169.675-.197.941.144q.202.26.202.714c0 7.565.286 8.498-.865 8.498-1.183 0-.852-1.198-.852-6.768m-1.626 64.708c3 0 3.637-.117 4.047.202.341.267.336.776.053 1.072q-.205.215-.622.215c-4.404 0-4.95.167-5.385-.262-.374-.369-.302-.762-.095-1.218q.17-.375.372-.59c.532-.553 1.883-1.906 2.481-2.311q.518-.366.863-.736c2.204-2.368-1.34-4.272-2.248-1.67-.275.785-.556.878-.881.878-.404 0-.732-.276-.732-.776 0-3.406 6.294-3.632 6.294.012.001 2.42-2.951 3.371-4.147 5.184"/><path fill="#f9e8cf" d="M70.3 135.266H28.895a4.81 4.81 0 0 1-4.808-4.808V89.051a4.81 4.81 0 0 1 4.808-4.808H70.3a4.81 4.81 0 0 1 4.808 4.808v41.407a4.81 4.81 0 0 1-4.808 4.808"/><path fill="#1a1e24" d="M54.924 111.026c1.438-.5 2.582-1.195 3.415-2.078 3.308-3.508 2.132-11.381-4.89-12.225-.817-.097-1.804-.146-2.937-.146-8.465 0-9.678-.277-10.896.942-.625.626-.943 1.589-.943 2.862v18.764c0 4.333 4.042 4.482 5.603 2.809 1.153-1.235.89-2.501.89-9.868 2.706 0 3.598-.187 6.078 4.032 3.113 5.181 3.698 6.815 6.121 6.815 2.023 0 3.156-1.483 3.156-2.756 0-1.547-2.756-6.797-5.597-9.151m-9.757-9.187c3.624 0 6.003-.07 6.892.305 1.917.802 1.627 3.055 1.019 3.758-1.129 1.303-4.046 1.087-7.91 1.087zm72.359-2.65c-3.279-2.87-6.867-2.405-14.518-2.405-1.273 0-2.235.317-2.862.943-1.257 1.256-.942 1.484-.942 20.745 0 .868.077 1.565.236 2.132.46 1.631 1.966 2.121 3.667 2.121 7.243 0 13.338.987 16.834-5.385 2.45-4.465 2.678-13.791-2.415-18.151m-11.829 3.058h2.484c1.423 0 2.645.153 3.631.456.885.272 1.621.909 2.251 1.948 1.318 2.173 1.718 9.14-1.238 11.64-.29.255-.641.457-1.045.6-1.14.406-1.689.354-6.083.354z"/><path fill="#f9a7a7" d="M66.442 122.132c-1.39 1.067-2.148 1.52-2.63 1.02a.68.68 0 0 1-.206-.489c0-.487.344-.597.915-.865 1.735-.817 2.01-1.748 2.494-2.254q.108-.113.404-.113c.509 0 .739.451.739.972 0 7.565.287 8.498-.865 8.498-1.183 0-.851-1.199-.851-6.769"/><path fill="#1a1e24" d="M131.105 136.266H89.699a5.815 5.815 0 0 1-5.808-5.808V89.051a5.815 5.815 0 0 1 5.808-5.808h41.406a5.814 5.814 0 0 1 5.808 5.808v41.407a5.814 5.814 0 0 1-5.808 5.808M89.699 85.243a3.81 3.81 0 0 0-3.808 3.808v41.406c0 2.1 1.708 3.808 3.808 3.808h41.406c2.1 0 3.808-1.708 3.808-3.808V89.051c0-2.1-1.708-3.809-3.808-3.809zm-20.1-8.486H28.192a5.815 5.815 0 0 1-5.808-5.808V29.544a5.815 5.815 0 0 1 5.808-5.808h41.406a5.815 5.815 0 0 1 5.808 5.808v41.406a5.814 5.814 0 0 1-5.807 5.809M28.192 25.734a3.81 3.81 0 0 0-3.808 3.808V70.95c0 2.1 1.708 3.808 3.808 3.808h41.406c2.1 0 3.808-1.708 3.808-3.808V29.543c0-2.1-1.708-3.808-3.808-3.808zm103.616 51.023H90.401a5.815 5.815 0 0 1-5.808-5.808V29.544a5.815 5.815 0 0 1 5.808-5.808h41.407a5.815 5.815 0 0 1 5.808 5.808v41.406a5.815 5.815 0 0 1-5.808 5.809M90.401 25.734a3.81 3.81 0 0 0-3.808 3.808V70.95c0 2.1 1.708 3.808 3.808 3.808h41.406c2.1 0 3.808-1.708 3.808-3.808V29.543c0-2.1-1.708-3.808-3.808-3.808zM70.3 136.266H28.894a5.815 5.815 0 0 1-5.808-5.808V89.051a5.815 5.815 0 0 1 5.808-5.808h41.407a5.815 5.815 0 0 1 5.808 5.808v41.407a5.815 5.815 0 0 1-5.808 5.808M28.894 85.243a3.81 3.81 0 0 0-3.808 3.808v41.406c0 2.1 1.709 3.808 3.808 3.808h41.407c2.1 0 3.808-1.708 3.808-3.808V89.051c0-2.1-1.709-3.809-3.808-3.809z"/></svg>