<svg xmlns="http://www.w3.org/2000/svg" width="80" height="80" fill="none" viewBox="0 0 80 80"><path fill="#202921" d="M0 40a40 40 0 1 0 80 0 40 40 0 0 0-80 0"/><path fill="#08eb66" d="M40.065 45.017c-9.788 0-17.723-2.07-17.723-4.623v18.493c0 2.553 7.935 4.624 17.723 4.624s17.723-2.071 17.723-4.624V40.394c0 2.553-7.935 4.623-17.723 4.623"/><path fill="#00c551" d="M32.359 53.493v9.555q1.116.142 2.312.243V51.182a2.31 2.31 0 0 0-2.312 2.311M47.77 53.493v9.555q-1.116.141-2.311.243V51.182a2.31 2.31 0 0 1 2.311 2.311M40.065 45.017c-9.788 0-17.723-2.07-17.723-4.623v2.312c0 2.553 7.935 4.623 17.723 4.623a72 72 0 0 0 1.549-.02 2.4 2.4 0 0 0 2.4 2.332h2.894a2.407 2.407 0 0 0 2.406-2.406v-.591c5.077-.813 8.476-2.27 8.476-3.938v-2.312c-.002 2.553-7.937 4.623-17.725 4.623"/><path fill="#00b149" stroke="#574d41" stroke-linecap="round" stroke-linejoin="round" d="M16.178 52.723c0-1.49.546-2.927 1.536-4.04l4.628-5.207v15.411h-3.855a2.31 2.31 0 0 1-2.309-2.309zM63.948 52.723c0-1.49-.546-2.927-1.536-4.04l-4.628-5.207v15.411h3.855a2.31 2.31 0 0 0 2.309-2.309z"/><path stroke="#574d41" d="M40.065 45.017c-9.788 0-17.723-2.07-17.723-4.623v18.493c0 2.553 7.935 4.624 17.723 4.624s17.723-2.071 17.723-4.624V40.394c0 2.553-7.935 4.623-17.723 4.623Z"/><path fill="#08eb66" d="M40.065 10.342c-10.788 0-17.723 15.411-17.723 20.035v5.394c0 2.553 7.935 4.623 17.723 4.623s17.723-2.07 17.723-4.623v-5.394c0-4.624-6.935-20.035-17.723-20.035"/><path fill="#00c551" d="M40.065 10.342c-10.788 0-17.723 15.411-17.723 20.035v3.082c0-4.623 6.935-20.034 17.723-20.034s17.723 15.411 17.723 20.034v-3.082c0-4.624-6.935-20.035-17.723-20.035"/><path stroke="#574d41" stroke-linecap="round" stroke-linejoin="round" d="M40.065 10.342c-10.788 0-17.723 15.411-17.723 20.035v5.394c0 2.553 7.935 4.623 17.723 4.623s17.723-2.07 17.723-4.623v-5.394c0-4.624-6.935-20.035-17.723-20.035"/><path fill="#87898c" d="M38.524 23.827c0 .715.162 1.401.451 1.907s.681.79 1.09.79.8-.284 1.09-.79c.289-.506.451-1.192.451-1.907s-.162-1.401-.451-1.907-.681-.79-1.09-.79-.8.284-1.09.79c-.289.506-.451 1.192-.451 1.907"/><path stroke="#574d41" stroke-linecap="round" stroke-linejoin="round" d="M38.524 23.827c0 .715.162 1.401.451 1.907s.681.79 1.09.79.8-.284 1.09-.79c.289-.506.451-1.192.451-1.907s-.162-1.401-.451-1.907-.681-.79-1.09-.79-.8.284-1.09.79c-.289.506-.451 1.192-.451 1.907"/><path fill="#87898c" d="M33.163 24.2c-.3 1.458-1.225 2.5-2.059 2.326s-1.262-1.5-.959-2.954 1.225-2.5 2.058-2.327 1.263 1.494.96 2.955"/><path stroke="#574d41" stroke-linecap="round" stroke-linejoin="round" d="M33.163 24.2c-.3 1.458-1.225 2.5-2.059 2.326s-1.262-1.5-.959-2.954 1.225-2.5 2.058-2.327 1.263 1.494.96 2.955"/><path fill="#87898c" stroke="#574d41" stroke-linecap="round" stroke-linejoin="round" d="M46.967 24.2c.3 1.458 1.225 2.5 2.059 2.326s1.262-1.5.959-2.954-1.225-2.5-2.06-2.327c-.833.173-1.261 1.494-.958 2.955"/><path fill="#87898c" d="M22.342 35.771c0 2.553 7.935 4.623 17.723 4.623s17.723-2.07 17.723-4.623v4.623c0 2.553-7.935 4.623-17.723 4.623s-17.723-2.07-17.723-4.623z"/><path fill="#87898c" d="M40.065 40.394c-9.788 0-17.723-2.07-17.723-4.623v1.541c0 2.553 7.935 4.623 17.723 4.623s17.723-2.07 17.723-4.623v-1.541c0 2.553-7.935 4.623-17.723 4.623"/><path stroke="#574d41" stroke-linecap="round" stroke-linejoin="round" d="M22.342 35.771c0 2.553 7.935 4.623 17.723 4.623s17.723-2.07 17.723-4.623v4.623c0 2.553-7.935 4.623-17.723 4.623s-17.723-2.07-17.723-4.623z"/><path fill="#c9ffde" stroke="#574d41" d="M47.77 45.786a2.312 2.312 0 1 1-4.623 0v-6.935a2.311 2.311 0 1 1 4.623 0z"/><path fill="#c9ffde" d="M45.459 51.952V61.2a5.394 5.394 0 1 1-10.788 0v-9.248"/><path stroke="#574d41" stroke-linecap="round" stroke-linejoin="round" d="M45.459 51.952V61.2a5.394 5.394 0 1 1-10.788 0v-9.248"/><path fill="#87898c" d="M26.963 38.876c-1.685-9.292-1.4-10.022-3.08-10.022a1.51 1.51 0 0 0-1.541 1.546v5.375c0 1.193 1.758 2.28 4.621 3.101"/><path fill="#87898c" d="M23.883 31.147a2.8 2.8 0 0 1 1.828.587c-.488-2.579-.764-2.88-1.828-2.88a1.51 1.51 0 0 0-1.541 1.546v2.292a1.51 1.51 0 0 1 1.541-1.545"/><path stroke="#574d41" stroke-linecap="round" stroke-linejoin="round" d="M26.963 38.876c-1.685-9.292-1.4-10.022-3.08-10.022a1.51 1.51 0 0 0-1.541 1.546v5.375c0 1.193 1.758 2.28 4.621 3.101"/><path fill="#87898c" d="M53.167 38.876c1.685-9.292 1.4-10.022 3.08-10.022a1.51 1.51 0 0 1 1.541 1.546v5.375c0 1.193-1.759 2.28-4.621 3.101"/><path fill="#87898c" d="M56.247 31.147a2.8 2.8 0 0 0-1.828.587c.488-2.579.764-2.88 1.828-2.88a1.51 1.51 0 0 1 1.54 1.546v2.292a1.507 1.507 0 0 0-1.54-1.545"/><path stroke="#574d41" stroke-linecap="round" stroke-linejoin="round" d="M53.167 38.876c1.685-9.292 1.4-10.022 3.08-10.022a1.51 1.51 0 0 1 1.541 1.546v5.375c0 1.193-1.759 2.28-4.621 3.101"/></svg>