<svg xmlns="http://www.w3.org/2000/svg" width="160" height="160" viewBox="0 0 160 160"><path fill="#e8f4fa" stroke="#daedf7" stroke-miterlimit="10" stroke-width="1.6" d="M16 82.152a64 64 0 1 0 128 0 64 64 0 1 0-128 0Z"/><path fill="#525252" d="M68.307 140.134a12.042 2.258 0 1 0 24.083 0 12.042 2.258 0 1 0-24.083 0" opacity=".15"/><path fill="#ffe500" stroke="#45413c" stroke-linecap="round" stroke-linejoin="round" stroke-width="1.6" d="M88.422 83.622a18.8 18.8 0 0 0-7.142.058v5.71a12.7 12.7 0 0 1 3.642-.536 12.936 12.936 0 1 1 .054 25.872 12.8 12.8 0 0 1-3.696-.536v5.71a18.487 18.487 0 1 0 7.15-36.274Z"/><path fill="#ffe500" stroke="#45413c" stroke-linecap="round" stroke-linejoin="round" stroke-width="1.6" d="M86.816 123.2a1.85 1.85 0 0 1-.54 1.307l-7.393 7.392a1.848 1.848 0 0 1-3.155-1.307v-28.8h11.088Z"/><path fill="#ebcb00" d="M75.728 101.787v10.866c1.806.136 3.651.222 5.544.222s3.738-.086 5.544-.222v-10.866Z"/><path fill="none" stroke="#45413c" stroke-linecap="round" stroke-linejoin="round" stroke-width="1.6" d="M86.816 123.2a1.85 1.85 0 0 1-.54 1.307l-7.393 7.392a1.848 1.848 0 0 1-3.155-1.307v-28.8h11.088Z"/><path fill="#ffe500" stroke="#45413c" stroke-linecap="round" stroke-linejoin="round" stroke-width="1.6" d="M48.008 72.22V88.85c0 8.16 14.893 14.784 33.264 14.784s33.264-6.619 33.264-14.784V72.22Z"/><path fill="#ebcb00" stroke="#45413c" stroke-linecap="round" stroke-linejoin="round" stroke-width="1.6" d="M48.008 72.22a33.264 6.627 0 1 0 66.528 0 33.264 6.627 0 1 0-66.528 0"/><path fill="#fff" d="m73.26 58.246 18.558-45.02 33.763 13.918-18.557 45.02Z"/><path fill="none" stroke="#45413c" stroke-linecap="round" stroke-linejoin="round" stroke-width="1.6" d="m73.26 58.246 18.558-45.02 33.763 13.918-18.557 45.02ZM99.042 24.984l16.883 6.96M90.486 32.43l21.572 8.893M86.62 41.81l21.572 8.89M82.754 51.189l21.572 8.891"/><path fill="#fff" d="M91.214 68.862c-.036.02-.092.039-.13.056l-22.4 8.224h-.018l-2.607.98c-1.403-.15-2.752-.32-4.027-.5a65 65 0 0 1-4.8-.832l-3.106-8.408L44 40.846l-1.405-3.806a2.024 2.024 0 0 1 1.202-2.605L74.25 23.218a2.026 2.026 0 0 1 2.607 1.201l1.366 3.733.02.037 4.212 11.438L84 43.84l1.554 4.176v.02l3.862 10.495 2.744 7.43.13.353a2.05 2.05 0 0 1-1.076 2.548"/><path fill="none" stroke="#45413c" stroke-linecap="round" stroke-linejoin="round" stroke-width="1.6" d="M91.214 68.862c-.036.02-.092.039-.13.056l-22.4 8.224h-.018l-2.607.98c-1.403-.15-2.752-.32-4.027-.5a65 65 0 0 1-4.8-.832l-3.106-8.408L44 40.846l-1.405-3.806a2.024 2.024 0 0 1 1.202-2.605L74.25 23.218a2.026 2.026 0 0 1 2.607 1.201l1.366 3.733.02.037 4.212 11.438L84 43.84l1.554 4.176v.02l3.862 10.495 2.744 7.43.13.353a2.05 2.05 0 0 1-1.076 2.548M55.165 38.89 72.3 32.582M53.909 50.162l21.896-8.06M57.413 59.682l21.896-8.06M60.917 69.202l21.896-8.06"/><path fill="#fff" d="m101.6 43.286-.35 4.03-1.628 19.36-.96 11.18c-3.382.426-7.152.722-11.18.869q-3.023.11-6.21.11c-5.488 0-10.662-.257-15.21-.72-1.403-.149-2.752-.32-4.027-.499l.776-9.13.147-1.81.8-9.332.943-11.162.16-1.94.333-4.048a2.054 2.054 0 0 1 2.198-1.848l15.06 1.28 17.28 1.46a2.034 2.034 0 0 1 1.868 2.2"/><path fill="none" stroke="#45413c" stroke-linecap="round" stroke-linejoin="round" stroke-width="1.6" d="m101.6 43.286-.35 4.03-1.628 19.36-.96 11.18c-3.382.426-7.152.722-11.18.869q-3.023.11-6.21.11c-5.488 0-10.662-.257-15.21-.72-1.403-.149-2.752-.32-4.027-.499l.776-9.13.147-1.81.8-9.332.943-11.162.16-1.94.333-4.048a2.054 2.054 0 0 1 2.198-1.848l15.06 1.28 17.28 1.46a2.034 2.034 0 0 1 1.868 2.2M75.808 47.206l18.195 1.541M69.9 56.888l23.247 1.968M69.043 66.997l23.25 1.968"/></svg>