<svg xmlns="http://www.w3.org/2000/svg" width="82" height="82" fill="none" viewBox="0 0 82 82"><path fill="#daedf7" stroke="#daedf7" d="M1.051 41a40 40 0 1 0 80 0 40 40 0 0 0-80 0Z"/><path fill="#fff2d9" d="M8.063 60.094H5.894a40 40 0 0 0 3.169 4.923v-3.923a1 1 0 0 0-1-1"/><path fill="#00b8f0" d="M8.063 47.104H1.514c.34 2.205.867 4.378 1.573 6.495h4.976a1 1 0 0 0 1-1v-4.495a1 1 0 0 0-1-1"/><path fill="#fff" d="M8.063 40.61a1 1 0 0 0 1-1v-4.495a1 1 0 0 0-1-1h-6.41a40 40 0 0 0-.592 6.495z"/><path fill="#ffe500" d="M10.31 66.588h13.377a1 1 0 0 0 1-1v-4.494a1 1 0 0 0-1-1H10.063a1 1 0 0 0-1 1v3.923"/><path stroke="#45413c" stroke-linecap="round" stroke-linejoin="round" d="M10.31 66.588h13.377a1 1 0 0 0 1-1v-4.494a1 1 0 0 0-1-1H10.063a1 1 0 0 0-1 1v3.923"/><path fill="#fff" d="M15.875 53.599H3.087a40 40 0 0 0 2.807 6.495h9.981a1 1 0 0 0 1-1v-4.495a1 1 0 0 0-1-1M1.449 47.104h14.426a1 1 0 0 0 1-1V41.61a1 1 0 0 0-1-1H.949"/><path fill="#fff" stroke="#45413c" stroke-linecap="round" stroke-linejoin="round" d="M9.063 47.104h15.624v6.495H9.063zM24.687 60.093h15.624v6.495H24.687z"/><path fill="#6dd627" stroke="#45413c" stroke-linecap="round" stroke-linejoin="round" d="M16.875 53.599h15.624v6.495H16.875z"/><path fill="#fff" stroke="#45413c" stroke-linecap="round" stroke-linejoin="round" d="M40.311 60.093h15.624v6.495H40.311z"/><path fill="#ff6242" d="M15.875 27.621H3.351a40 40 0 0 0-1.663 6.3.97.97 0 0 0 .562.2h13.625a1 1 0 0 0 1-1v-4.5a1 1 0 0 0-1-1"/><path fill="#fff" stroke="#45413c" stroke-linecap="round" stroke-linejoin="round" d="M48.123 53.599h15.624v6.495H48.123z"/><path fill="#6dd627" stroke="#45413c" stroke-linecap="round" stroke-linejoin="round" d="M55.935 60.093H71.56v6.495H55.935z"/><path fill="#fff" stroke="#45413c" stroke-linecap="round" stroke-linejoin="round" d="M55.935 47.104H71.56v6.495H55.935zM55.935 34.115H71.56v6.495H55.935z"/><path fill="#ff6242" d="M78.945 53.802a.97.97 0 0 0-.574-.2H64.747a1 1 0 0 0-1 1v4.492a1 1 0 0 0 1 1h11.46"/><path stroke="#45413c" stroke-linecap="round" stroke-linejoin="round" d="M78.945 53.802a.97.97 0 0 0-.574-.2H64.747a1 1 0 0 0-1 1v4.492a1 1 0 0 0 1 1h11.46"/><path fill="#ffe500" stroke="#45413c" stroke-linecap="round" stroke-linejoin="round" d="M63.747 40.61H79.37v6.495H63.747z"/><path fill="#00b8f0" d="M78.78 27.713a1 1 0 0 0-.41-.092H64.748a1 1 0 0 0-1 1v4.494a1 1 0 0 0 1 1h15.7"/><path stroke="#45413c" stroke-linecap="round" stroke-linejoin="round" d="M78.78 27.713a1 1 0 0 0-.41-.092H64.748a1 1 0 0 0-1 1v4.494a1 1 0 0 0 1 1h15.7"/><path fill="#fff2d9" d="M76.207 60.094h-3.648a1 1 0 0 0-1 1v4.495a.98.98 0 0 0 .412.787"/><path stroke="#45413c" stroke-linecap="round" stroke-linejoin="round" d="M76.207 60.094h-3.648a1 1 0 0 0-1 1v4.495a.98.98 0 0 0 .412.787"/><path fill="#fff" d="M80.587 47.104h-8.028a1 1 0 0 0-1 1v4.495a1 1 0 0 0 1 1h6.455"/><path stroke="#45413c" stroke-linecap="round" stroke-linejoin="round" d="M80.587 47.104h-8.028a1 1 0 0 0-1 1v4.495a1 1 0 0 0 1 1h6.455"/><path fill="#fff" d="M80.448 34.115h-7.889a1 1 0 0 0-1 1v4.495a1 1 0 0 0 1 1h8.482"/><path stroke="#45413c" stroke-linecap="round" stroke-linejoin="round" d="M80.448 34.115h-7.889a1 1 0 0 0-1 1v4.495a1 1 0 0 0 1 1h8.482"/><path fill="#fff2d9" d="M81.041 40.61h-.67a1 1 0 0 0-1 1v4.494a1 1 0 0 0 1 1h.216"/><path stroke="#45413c" stroke-linecap="round" stroke-linejoin="round" d="M81.041 40.61h-.67a1 1 0 0 0-1 1v4.494a1 1 0 0 0 1 1h.216M9.063 65.016v-3.922a1 1 0 0 0-1-1H5.894M3.087 53.599h4.976a1 1 0 0 0 1-1v-4.495a1 1 0 0 0-1-1H1.514M1.061 40.61h7a1 1 0 0 0 1-1v-4.495a1 1 0 0 0-1-1h-6.41M5.894 60.094h9.981a1 1 0 0 0 1-1v-4.495a1 1 0 0 0-1-1H3.087M2.25 47.104h13.625a1 1 0 0 0 1-1V41.61a1 1 0 0 0-1-1H2.25"/><path stroke="#45413c" stroke-linecap="round" stroke-linejoin="round" d="M1.688 33.92a.97.97 0 0 0 .562.2h13.625a1 1 0 0 0 1-1v-4.499a1 1 0 0 0-1-1H3.351"/><path fill="#ffe500" stroke="#45413c" stroke-linecap="round" stroke-linejoin="round" d="m39.53 56.435 1.568-5.815 13.987 3.773-1.568 5.814z"/><path fill="#45413c" d="M26.051 71.701c0 .227.246.452.725.662s1.18.401 2.064.562c.885.16 1.935.288 3.09.375 1.156.087 2.394.132 3.645.132s2.49-.045 3.645-.132a30 30 0 0 0 3.09-.375c.884-.16 1.585-.352 2.064-.562s.725-.435.725-.662-.246-.452-.725-.662-1.18-.401-2.065-.562a30 30 0 0 0-3.09-.375 49 49 0 0 0-3.644-.132c-1.25 0-2.49.045-3.645.132a30 30 0 0 0-3.09.375c-.884.16-1.585.352-2.064.562s-.725.435-.725.662" opacity=".15"/><path fill="#ffe500" stroke="#45413c" stroke-linecap="round" stroke-linejoin="round" d="m30.04 13.137 13.6-4.101 1.705 5.652-13.6 4.102z"/><path fill="#ff6242" stroke="#45413c" stroke-linecap="round" stroke-linejoin="round" d="m51.126 16.469 3.883-5.629 13.54 9.34-3.883 5.63z"/><path fill="#6dd627" stroke="#45413c" stroke-linecap="round" stroke-linejoin="round" d="m52.148 40.153 15.933-6.267 2.605 6.623-15.933 6.267z"/><path fill="#ffe500" stroke="#ffe500" stroke-linecap="round" stroke-linejoin="round" d="M22.538 40.01a14.222 14.222 0 1 0 28.443 0 14.222 14.222 0 0 0-28.443 0"/><path fill="#fff48c" d="M25.038 43.51a14.215 14.215 0 0 1 24.4-9.924 14.214 14.214 0 1 0-22.854 16.35 14.14 14.14 0 0 1-1.546-6.426"/><path stroke="#45413c" stroke-linecap="round" stroke-linejoin="round" d="M22.538 40.01a14.222 14.222 0 1 0 28.443 0 14.222 14.222 0 0 0-28.443 0"/><path fill="#00b8f0" stroke="#45413c" stroke-linecap="round" stroke-linejoin="round" d="m3.67 21.534 3.597-8.292 19.948 8.651-3.596 8.292z"/><path fill="#ff6242" stroke="#45413c" stroke-linecap="round" stroke-linejoin="round" d="m13.959 46.793 14.851-5.551 2.308 6.172-14.852 5.551z"/></svg>