<svg xmlns="http://www.w3.org/2000/svg" width="82" height="82" fill="none" viewBox="0 0 82 82"><path fill="#daedf7" stroke="#daedf7" d="M1 41a40 40 0 1 0 80 0 40 40 0 0 0-80 0Z"/><path fill="#ffe500" d="M18.448 23.019h45.089v45.089H18.448z"/><path fill="#fff48c" d="M57.275 23.019H24.71a6.26 6.26 0 0 0-6.262 6.263v3.757a6.26 6.26 0 0 1 6.262-6.262h32.565a6.263 6.263 0 0 1 6.262 6.262v-3.757a6.263 6.263 0 0 0-6.262-6.263"/><path stroke="#45413c" stroke-linecap="round" stroke-linejoin="round" d="M18.448 23.019h45.089v45.089H18.448z"/><path fill="#fff48c" d="m42.466 32.709 2.972 6.023a1.64 1.64 0 0 0 1.238.9l6.647.966a1.643 1.643 0 0 1 .911 2.8l-4.811 4.689a1.65 1.65 0 0 0-.472 1.455l1.135 6.621A1.642 1.642 0 0 1 47.7 57.9l-5.943-3.13a1.65 1.65 0 0 0-1.529 0l-5.946 3.13a1.643 1.643 0 0 1-2.382-1.736l1.135-6.621a1.64 1.64 0 0 0-.472-1.455L27.75 43.4a1.644 1.644 0 0 1 .911-2.8l6.648-.966a1.64 1.64 0 0 0 1.237-.9l2.973-6.023a1.643 1.643 0 0 1 2.947-.002"/><path fill="#fffacf" d="m32.1 54.981.932-5.438a1.64 1.64 0 0 0-.472-1.455L27.75 43.4a1.644 1.644 0 0 1 .911-2.8l6.648-.966a1.64 1.64 0 0 0 1.237-.9l2.973-6.023a1.644 1.644 0 0 1 2.947 0l2.972 6.023a1.64 1.64 0 0 0 1.238.9z"/><path stroke="#45413c" stroke-linecap="round" stroke-linejoin="round" d="m42.466 32.709 2.972 6.023a1.64 1.64 0 0 0 1.238.9l6.647.966a1.643 1.643 0 0 1 .911 2.8l-4.811 4.689a1.65 1.65 0 0 0-.472 1.455l1.135 6.621A1.642 1.642 0 0 1 47.7 57.9l-5.943-3.13a1.65 1.65 0 0 0-1.529 0l-5.946 3.13a1.643 1.643 0 0 1-2.382-1.736l1.135-6.621a1.64 1.64 0 0 0-.472-1.455L27.75 43.4a1.644 1.644 0 0 1 .911-2.8l6.648-.966a1.64 1.64 0 0 0 1.237-.9l2.973-6.023a1.643 1.643 0 0 1 2.947-.002"/><path fill="#fffacf" stroke="#b58b00" stroke-linecap="round" stroke-linejoin="round" d="M69.763 21.154a3.12 3.12 0 0 1 2.337-2.333l4.683-1.08a.388.388 0 0 0 0-.758L72.1 15.9a3.11 3.11 0 0 1-2.333-2.332l-1.08-4.68a.39.39 0 0 0-.758 0l-1.08 4.68a3.11 3.11 0 0 1-2.337 2.332l-4.68 1.08a.389.389 0 0 0 0 .758l4.679 1.08a3.11 3.11 0 0 1 2.333 2.333l1.081 4.683a.39.39 0 0 0 .758 0zM13.338 22.648a2.46 2.46 0 0 1 1.842-1.843l3.7-.853a.307.307 0 0 0 0-.6l-3.7-.853a2.46 2.46 0 0 1-1.843-1.842l-.853-3.695a.307.307 0 0 0-.6 0l-.852 3.7A2.46 2.46 0 0 1 9.19 18.5l-3.7.852a.307.307 0 0 0 0 .6l3.7.853a2.46 2.46 0 0 1 1.842 1.843l.853 3.7a.307.307 0 0 0 .6 0zM35.824 9.009A1.97 1.97 0 0 1 37.3 7.538l2.95-.681a.245.245 0 0 0 0-.478L37.3 5.7a1.96 1.96 0 0 1-1.471-1.47l-.681-2.95a.245.245 0 0 0-.478 0l-.681 2.95a1.96 1.96 0 0 1-1.47 1.471l-2.951.68a.245.245 0 0 0 0 .478l2.95.681a1.96 1.96 0 0 1 1.47 1.471l.682 2.952a.245.245 0 0 0 .478 0z"/></svg>