<svg xmlns="http://www.w3.org/2000/svg" width="84" height="82" fill="none" viewBox="0 0 84 82"><path fill="#ffa951" d="M2 40.75a40 40 0 1 0 80 0 40 40 0 0 0-80 0"/><path stroke="#45413c" stroke-linecap="round" stroke-linejoin="round" d="M.5 58.25H3"/><path fill="#ff8102" d="M28.185 54.492a14.273 14.273 0 0 0 19.732 13.185 14.272 14.272 0 1 0-19.732-13.185"/><path fill="#e77400" d="M56.494 57.076a14.272 14.272 0 1 0-28.076 0 14.26 14.26 0 0 1 28.076 0"/><path stroke="#45413c" stroke-linecap="round" stroke-linejoin="round" d="M28.185 54.492a14.273 14.273 0 0 0 19.732 13.185 14.272 14.272 0 1 0-19.732-13.185"/><path fill="#fff5eb" stroke="#45413c" stroke-linecap="round" stroke-linejoin="round" d="M42.456 34.212a1.32 1.32 0 0 1-1.322-1.321v-3.569a1.322 1.322 0 0 1 2.644 0v3.569a1.32 1.32 0 0 1-1.322 1.321m-15.274 6.327a1.32 1.32 0 0 1-.935-.387l-2.523-2.524a1.321 1.321 0 1 1 1.869-1.868l2.523 2.523a1.321 1.321 0 0 1-.934 2.256m-6.327 15.274h-3.57a1.323 1.323 0 0 1 0-2.643h3.57a1.323 1.323 0 0 1 0 2.643M57.73 40.539a1.322 1.322 0 0 1-.934-2.256l2.523-2.523a1.321 1.321 0 0 1 1.869 1.868l-2.523 2.524a1.32 1.32 0 0 1-.935.387m11.217 13.953a1.32 1.32 0 0 1-1.321 1.321h-3.57a1.32 1.32 0 0 1-1.358-1.322 1.323 1.323 0 0 1 1.359-1.321h3.569a1.32 1.32 0 0 1 1.32 1.322"/><path stroke="#45413c" stroke-linecap="round" stroke-linejoin="round" d="M81 58.25h2.5"/><path fill="#aeaeae" stroke="#45413c" stroke-linecap="round" stroke-linejoin="round" d="M54.9 6.415c-3.191-1.9-5.659 1.937-5.659 1.937s-2.469-3.836-5.659-1.937-6.128 5.969-6.128 5.969c5.765-1.887 6.812-5.74 10.022-1.992a1.83 1.83 0 0 0 1.385.638h.76A1.83 1.83 0 0 0 51 10.392c3.21-3.748 4.256.105 10.021 1.992.001 0-2.936-4.07-6.121-5.969m20.375 11.511c-3.8-2.264-6.747 2.309-6.747 2.309s-2.944-4.573-6.747-2.309-7.306 7.117-7.306 7.117c6.873-2.25 8.121-6.843 11.948-2.375a2.18 2.18 0 0 0 1.652.76h.906a2.17 2.17 0 0 0 1.651-.76c3.828-4.468 5.075.125 11.948 2.375 0 0-3.502-4.853-7.305-7.117"/><path fill="#0285b5" d="M72.677 58.271c-2.293 0-3.19-3.153-3.19-3.153a6.518 6.518 0 0 1-11.164 0 6.52 6.52 0 0 1-11.165 0 6.52 6.52 0 0 1-11.165 0 6.518 6.518 0 0 1-11.164 0 6.52 6.52 0 0 1-11.165 0s-.9 3.153-3.19 3.153h-5a40.514 40.514 0 0 0 73.046 0z"/><path stroke="#e5f8ff" stroke-linecap="round" stroke-linejoin="round" d="M37.765 65.656a3.82 3.82 0 0 1-3.376-1.906 3.94 3.94 0 0 1-6.75 0 3.94 3.94 0 0 1-6.75 0 3.81 3.81 0 0 1-3.376 1.906m47.254 2.859a3.81 3.81 0 0 1-3.376-1.906 3.94 3.94 0 0 1-6.75 0 3.81 3.81 0 0 1-3.375 1.906m-6.39 6.141A3.81 3.81 0 0 1 41.5 72.75a3.94 3.94 0 0 1-6.75 0 3.81 3.81 0 0 1-3.375 1.906"/><path stroke="#45413c" stroke-linecap="round" stroke-linejoin="round" d="M78.523 58.271h-5.846c-2.293 0-3.19-3.153-3.19-3.153a6.518 6.518 0 0 1-11.164 0 6.52 6.52 0 0 1-11.165 0 6.52 6.52 0 0 1-11.165 0 6.518 6.518 0 0 1-11.164 0 6.52 6.52 0 0 1-11.165 0s-.9 3.153-3.19 3.153h-5"/></svg>