<svg xmlns="http://www.w3.org/2000/svg" width="100" height="100" viewBox="0 0 100 100"><desc>Winter House 3 Streamline Illustration: https://streamlinehq.com</desc><path fill="#b8ecff" d="M90 50.75a40 40 0 1 0-76.436 16.5h72.872A39.8 39.8 0 0 0 90 50.75"/><path fill="#daedf7" d="M13.564 67.25a40 40 0 0 0 72.872 0z"/><path fill="none" stroke="#f8f8f8" stroke-linecap="round" stroke-miterlimit="10" d="M54 72.25h9m-33 0h9m26.5 11H70m1.5-11H76m-20 5.5h4.5m-15.5 0h4.5m19 0h9m-57-5.5H25"/><path fill="none" stroke="#45413c" stroke-linecap="round" stroke-linejoin="round" d="M11 67.25h78m-82.5 0H9m82 0h2.5"/><path fill="#ff8a14" stroke="#45413c" stroke-linejoin="round" d="M55.5 39.25H61v8h-5.5z"/><path fill="#8ca4b8" stroke="#45413c" stroke-linejoin="round" d="M55.5 37.25H61s.5 0 .5.5v1s0 .5-.5.5h-5.5s-.5 0-.5-.5v-1s0-.5.5-.5"/><path fill="#bf8256" d="M66 40.477 53.5 47.62v19.63h25V47.62z"/><path fill="#915e3a" d="M53.5 53.75h25v2h-25z"/><path fill="none" stroke="#45413c" stroke-linecap="round" stroke-linejoin="round" d="M66 40.477 53.5 47.62v19.63h25V47.62z"/><path fill="#f0c2a1" stroke="#45413c" stroke-linecap="round" stroke-linejoin="round" d="M52.5 51.75h27s.5 0 .5.5v1s0 .5-.5.5h-27s-.5 0-.5-.5v-1s0-.5.5-.5"/><path fill="#fff" stroke="#45413c" stroke-linejoin="round" d="m80.744 45.447-14-8a1.5 1.5 0 0 0-1.488 0l-14 8a1.5 1.5 0 0 0-.75 1.3H50.5v3.5a1.5 1.5 0 0 0 3 0v-1a2 2 0 0 0 2-2v-.773a3.057 3.057 0 0 0 3.585-2.048.946.946 0 0 1 1.415.821 1 1 0 0 0 2 0v-2.77a5.7 5.7 0 0 0 3.5-2c.43 1.242 1.5 1.731 3 1.714v.559a2 2 0 0 0 2 2V46a1.25 1.25 0 0 0 2.5 0v-1.237A12.33 12.33 0 0 0 80 48.25v1.25a.75.75 0 0 0 1.5 0v-2.072c0-.877.029-1.528-.756-1.981z"/><path fill="#ffe500" stroke="#45413c" stroke-linecap="round" stroke-linejoin="round" d="M63 46.75a3 3 0 1 0 6 0 3 3 0 1 0-6 0"/><path fill="#ff6242" stroke="#45413c" stroke-linecap="round" stroke-linejoin="round" d="M74.5 67.25h-7v-8.5a1 1 0 0 1 1-1h5a1 1 0 0 1 1 1z"/><path fill="#ffe500" stroke="#45413c" stroke-linecap="round" stroke-linejoin="round" d="M63.5 63.25h-6a1 1 0 0 1-1-1v-3.5h8v3.5a1 1 0 0 1-1 1"/><path fill="#fff" stroke="#45413c" stroke-linecap="round" stroke-linejoin="round" d="M64.5 56.75a1 1 0 0 1 0 2h-6.75a.77.77 0 0 0-.561 1.284 1.368 1.368 0 0 1-.622 2.177A1.253 1.253 0 0 1 55 61v-2.75a1.5 1.5 0 0 1 1.5-1.5z"/><path fill="#45413c" d="M72.5 62.75a.5.5 0 1 0 1 0 .5.5 0 1 0-1 0"/><path fill="#fff" stroke="#45413c" stroke-linejoin="round" d="M63.25 25.75a2.75 2.75 0 0 0-2.75 2.75 2.7 2.7 0 0 0 .323 1.268 2.023 2.023 0 1 0 2.1 1.449 3 3 0 0 0 .331.033 2.75 2.75 0 0 0 0-5.5zM65 22.25a1.5 1.5 0 1 0 3 0 1.5 1.5 0 1 0-3 0"/><path fill="#fff" d="M73 32.75a1.5 1.5 0 1 0 3 0 1.5 1.5 0 1 0-3 0M81.5 40.75a1.5 1.5 0 1 0 3 0 1.5 1.5 0 1 0-3 0M47.5 31.75a1.5 1.5 0 1 0 3 0 1.5 1.5 0 1 0-3 0M54 20.25a1.5 1.5 0 1 0 3 0 1.5 1.5 0 1 0-3 0"/><path fill="none" stroke="#45413c" stroke-linecap="round" stroke-linejoin="round" d="M66 43.75v6m3-3h-6"/><path fill="#87898c" d="M42.777 65.862v-1.4c6.161-4.873 5.591-11.4 5.591-13.978a14.677 14.677 0 1 0-29.354 0c0 2.574-.57 9.105 5.591 13.978v1.4z"/><path fill="#bdbec0" d="M33.691 39.3a14.677 14.677 0 0 1 14.66 13.98c.058-1.143.017-2.111.017-2.8a14.677 14.677 0 1 0-29.354 0c0 .686-.041 1.654.017 2.8a14.677 14.677 0 0 1 14.66-13.98"/><path fill="none" stroke="#45413c" stroke-linecap="round" stroke-linejoin="round" d="M42.777 65.862v-1.4c6.161-4.873 5.591-11.4 5.591-13.978h0a14.677 14.677 0 1 0-29.354 0h0c0 2.574-.57 9.105 5.591 13.978v1.4z"/><path fill="none" stroke="#45413c" stroke-linecap="round" stroke-linejoin="round" d="m24.605 64.464 3.968-3.989a9.03 9.03 0 0 1-3.968-7.5v-6.683"/><path fill="#b89558" d="m31.228 77.045.22-6.913a2.245 2.245 0 0 1 4.487 0l.219 6.913h6.623V65.862H24.605v11.183z"/><path fill="#947746" d="M31.619 69.357a2.234 2.234 0 0 1 4.144 0h7.014v-3.5H24.605v3.5z"/><path fill="#45413c" d="M19.014 88.927a14.677 2.097 0 1 0 29.354 0 14.677 2.097 0 1 0-29.354 0" opacity=".15"/><path fill="#915e3a" stroke="#45413c" stroke-linecap="round" stroke-linejoin="round" d="M31.594 86.131a1.4 1.4 0 0 1-1.4 1.4H25.3a1.4 1.4 0 0 1-1.4-1.4v-8.387a.7.7 0 0 1 .7-.7h6.3a.7.7 0 0 1 .7.7zm11.882 0a1.4 1.4 0 0 1-1.4 1.4h-4.89a1.4 1.4 0 0 1-1.4-1.4v-8.387a.7.7 0 0 1 .7-.7h6.29a.7.7 0 0 1 .7.7z"/><path fill="#00dba8" stroke="#45413c" stroke-linecap="round" stroke-linejoin="round" d="M33.691 33.013a8.33 8.33 0 0 1-5.52-2.1H28.1v6.29a11.88 11.88 0 0 0 11.182 0v-6.29h-.071a8.33 8.33 0 0 1-5.52 2.1"/><path fill="none" stroke="#45413c" stroke-linecap="round" stroke-linejoin="round" d="M33.691 38.604v27.258"/><path fill="#00dba8" stroke="#45413c" stroke-linecap="round" stroke-linejoin="round" d="M27.003 31.615h1.495s1 0 1 1v3.591s0 1-1 1h-1.495s-1 0-1-1v-3.591s0-1 1-1"/><path fill="none" stroke="#45413c" stroke-linecap="round" stroke-linejoin="round" d="m24.605 49.758-5.466-1.193m5.537 5.556-5.497.789m6.565 2.476-4.835 2.819m21.868 4.259-3.968-3.989a9.03 9.03 0 0 0 3.968-7.5v-6.683m2.961-4.193H21.645m21.132 6.29H24.605m18.013 6.29H24.764m14.537 6.291H28.082m14.695-11.212 5.466-1.193m-5.537 5.556 5.498.789m-6.566 2.476 4.835 2.819"/><path fill="#00dba8" stroke="#45413c" stroke-linecap="round" stroke-linejoin="round" d="M28.879 36.938a1.36 1.36 0 0 1-.779.268h-.082l-.58 9.854a.693.693 0 0 0 .6.733c1.568.2 5.576.327 6.895-3.131a.69.69 0 0 0-.221-.766 43 43 0 0 1-5.833-6.958"/><path fill="#00dba8" stroke="#45413c" stroke-linecap="round" stroke-linejoin="round" d="M28.84 36.964a1.36 1.36 0 0 1-.74.242h-.7a1.4 1.4 0 0 1-1.4-1.4l-2.8 13.279c1.313 2.6 3.134 3.026 6.27 2.845a.7.7 0 0 0 .655-.762z"/><path fill="#915e3a" stroke="#45413c" stroke-linecap="round" stroke-linejoin="round" d="M43.1 87.529a1.4 1.4 0 0 0 1.211-2.1 4.19 4.19 0 0 0-3.633-2.1h-.7a4.19 4.19 0 0 0-3.632 2.1 1.4 1.4 0 0 0 1.211 2.1zm-13.277 0a1.4 1.4 0 0 0 1.21-2.1 4.19 4.19 0 0 0-3.632-2.1h-.7a4.2 4.2 0 0 0-3.633 2.1 1.4 1.4 0 0 0 1.211 2.1z"/><path fill="#fff" d="M11.204 47.873a1.823 1.823 0 1 0 3.646 0 1.823 1.823 0 1 0-3.646 0M17.89 30.248a1.823 1.823 0 1 0 3.646 0 1.823 1.823 0 1 0-3.646 0M42.808 10.8a1.823 1.823 0 1 0 3.646 0 1.823 1.823 0 1 0-3.646 0"/><path fill="none" stroke="#45413c" stroke-linecap="round" stroke-linejoin="round" d="m31.228 77.045.22-6.913a2.245 2.245 0 0 1 4.487 0l.219 6.913h6.623V65.862H24.605v11.183z"/><path fill="#bf8256" stroke="#45413c" stroke-linecap="round" stroke-linejoin="round" d="M42.078 24.781v-1.119a8.387 8.387 0 1 0-16.774 0v1.119a1.712 1.712 0 0 0 .176 3.389 8.388 8.388 0 0 0 16.422 0 1.712 1.712 0 0 0 .176-3.389"/><path fill="#45413c" d="M29.498 25.41a1.048 1.048 0 1 0 2.096 0 1.048 1.048 0 1 0-2.096 0M35.788 25.41a1.048 1.048 0 1 0 2.096 0 1.048 1.048 0 1 0-2.096 0"/><path fill="#bf8256" d="M28.1 27.506a1.048 1.048 0 1 0 2.096 0 1.048 1.048 0 1 0-2.096 0M37.186 27.506a1.048 1.048 0 1 0 2.096 0 1.048 1.048 0 1 0-2.096 0"/><path fill="#614b44" stroke="#45413c" stroke-linecap="round" stroke-linejoin="round" d="M39.35 30.569a4.12 4.12 0 0 1-3.015-.553 5.16 5.16 0 0 0-2.641-.762h-.006a5.16 5.16 0 0 0-2.641.762 4.12 4.12 0 0 1-3.015.553 2.79 2.79 0 0 1-2.553-2.4l.49 3.023a6.43 6.43 0 0 0 4.344 4.871 18.8 18.8 0 0 0 3.375.878h.006a18.8 18.8 0 0 0 3.375-.878 6.43 6.43 0 0 0 4.344-4.871l.49-3.023a2.79 2.79 0 0 1-2.553 2.4"/><g stroke="#45413c" stroke-linecap="round" stroke-linejoin="round"><path fill="#ff6242" d="M42.072 20.867H25.31a1.4 1.4 0 1 0 0 2.795h16.762a1.4 1.4 0 1 0 0-2.795"/><path fill="none" d="M27.401 20.867v2.795m4.193-2.795v2.795m4.194-2.795v2.795m4.193-2.795v2.795"/></g><path fill="#ff6242" d="M33.7 13.179h-.012a9.09 9.09 0 0 0-9 7.829 1.4 1.4 0 0 1 .612-.141h16.784a1.4 1.4 0 0 1 .613.141 9.09 9.09 0 0 0-8.997-7.829"/><path fill="#ff6242" d="M33.685 15.275h.015a9.09 9.09 0 0 1 8.389 5.592 1.4 1.4 0 0 1 .611.141 9.09 9.09 0 0 0-9-7.829h-.012a9.09 9.09 0 0 0-9 7.829 1.4 1.4 0 0 1 .61-.141 9.09 9.09 0 0 1 8.387-5.592"/><path fill="none" stroke="#45413c" stroke-linecap="round" stroke-linejoin="round" d="M33.7 13.179h-.012a9.09 9.09 0 0 0-9 7.829 1.4 1.4 0 0 1 .612-.141h16.784a1.4 1.4 0 0 1 .613.141 9.09 9.09 0 0 0-8.997-7.829"/></svg>