<svg xmlns="http://www.w3.org/2000/svg" width="100" height="100" viewBox="0 0 100 100"><desc>Winter Snowman 1 Streamline Illustration: https://streamlinehq.com</desc><path fill="#b8ecff" d="M90 49a40 40 0 1 0-76.436 16.5h72.872A39.8 39.8 0 0 0 90 49"/><path fill="#daedf7" d="M13.564 65.5a40 40 0 0 0 72.872 0z"/><path fill="none" stroke="#f8f8f8" stroke-linecap="round" stroke-miterlimit="10" d="M54 70.5h9m-33 0h9m26.5 11H70m1.5-11H76M56 76h4.5M45 76h4.5m19 0h9m-57-5.5H25"/><path fill="none" stroke="#45413c" stroke-linecap="round" stroke-linejoin="round" d="M11 65.5h78m-82.5 0H9m82 0h2.5"/><path fill="#b89558" stroke="#45413c" stroke-linejoin="round" d="M48.755 51.419a1 1 0 0 0-1.214-.726l-1.979.5-.662-1.658 1.511-2.135a1 1 0 0 0-1.632-1.155l-1.827 2.581a1 1 0 0 0-.112.95L43.733 52l-4.619 3.173a1 1 0 0 0 1.133 1.649l5.131-3.522 2.652-.667a1 1 0 0 0 .725-1.214zM19.434 48.5a1 1 0 0 0-.959 1.04l.082 2.039-1.756.31-1.783-1.917a1 1 0 0 0-1.465 1.36l2.153 2.317a1 1 0 0 0 .906.3l2.366-.418 2.159 5.17a1 1 0 0 0 1.847-.771l-2.4-5.744-.11-2.732a1 1 0 0 0-1.04-.954z"/><path fill="#f8f8f8" stroke="#45413c" stroke-linecap="round" stroke-linejoin="round" d="M41.52 65.5a10.55 10.55 0 0 0 1.266-5 11.26 11.26 0 0 0-11.5-11 11.26 11.26 0 0 0-11.5 11 10.56 10.56 0 0 0 1.265 5z"/><path fill="#87898c" d="m39.151 40.408-11.636-2.933c1.428-1.659 1.835-5.03 1.788-7.528a1 1 0 0 1 1.245-.989l10.02 2.526a1 1 0 0 1 .639 1.441c-1.294 2.424-2.649 5.727-2.056 7.483"/><path fill="#87898c" d="M40.624 34.083c.192-.4.387-.791.583-1.158a1 1 0 0 0-.639-1.441l-10.02-2.526a1 1 0 0 0-1.245.989c.008.405 0 .837-.021 1.277z"/><path fill="none" stroke="#45413c" stroke-linecap="round" stroke-linejoin="round" d="m39.151 40.408-11.636-2.933c1.428-1.659 1.835-5.03 1.788-7.528a1 1 0 0 1 1.245-.989l10.02 2.526a1 1 0 0 1 .639 1.441c-1.294 2.424-2.649 5.727-2.056 7.483"/><path fill="#fff" d="M31.286 53a11.35 11.35 0 0 1 11.338 9.233 10.4 10.4 0 0 0 .162-1.733 11.26 11.26 0 0 0-11.5-11 11.26 11.26 0 0 0-11.5 11 10.3 10.3 0 0 0 .162 1.733A11.35 11.35 0 0 1 31.286 53"/><path fill="none" stroke="#45413c" stroke-linecap="round" stroke-linejoin="round" d="M41.52 65.5a10.55 10.55 0 0 0 1.266-5 11.26 11.26 0 0 0-11.5-11 11.26 11.26 0 0 0-11.5 11 10.56 10.56 0 0 0 1.265 5z"/><path fill="#fff" stroke="#45413c" stroke-linecap="round" stroke-linejoin="round" d="M23.072 45.858a8.214 7.857 0 1 0 16.428 0 8.214 7.857 0 1 0-16.428 0"/><path fill="#a6fbff" stroke="#45413c" stroke-linecap="round" stroke-linejoin="round" d="M38.536 50.976c-1.971 5.055-13.48 5.009-14.654-.112a.5.5 0 0 1 .686-.558c4.946 1.929 8.429 1.947 13.3.055a.5.5 0 0 1 .668.615"/><path fill="#45413c" d="M27.286 43.75a.75.75 0 1 0 1.5 0 .75.75 0 1 0-1.5 0M33.786 43.75a.75.75 0 1 0 1.5 0 .75.75 0 1 0-1.5 0M30.786 63a.5.5 0 1 0 1 0 .5.5 0 1 0-1 0M30.786 59a.5.5 0 1 0 1 0 .5.5 0 1 0-1 0"/><path fill="#87898c" stroke="#45413c" stroke-linecap="round" stroke-linejoin="round" d="M40.361 41.745a1 1 0 0 1-1.214.725l-12.606-3.178a1 1 0 0 1 .489-1.939l12.606 3.178a1 1 0 0 1 .725 1.214"/><path fill="#ff6242" stroke="#45413c" stroke-linecap="round" stroke-linejoin="round" d="M39.34 37.362 28.8 34.7a6.9 6.9 0 0 1-1.281 2.771l11.636 2.933a5.5 5.5 0 0 1 .185-3.042"/><path fill="#fff" d="M33.786 22a1.5 1.5 0 1 0 3 0 1.5 1.5 0 1 0-3 0M45.286 32a1.5 1.5 0 1 0 3 0 1.5 1.5 0 1 0-3 0M79.786 46.5a1.5 1.5 0 1 0 3 0 1.5 1.5 0 1 0-3 0M77.286 32a1.5 1.5 0 1 0 3 0 1.5 1.5 0 1 0-3 0M16.786 39.5a1.5 1.5 0 1 0 3 0 1.5 1.5 0 1 0-3 0M46.786 16a1.5 1.5 0 1 0 3 0 1.5 1.5 0 1 0-3 0"/><path fill="#a6fbff" d="M27.286 50.5a1 1 0 0 0-1 1v3.719a11 11 0 0 1-.564 3.472 2.135 2.135 0 0 0 4.05 1.35 19.8 19.8 0 0 0 1.014-6.241v-2.3a1 1 0 0 0-1-1z"/><path fill="#d9fdff" d="M26.782 52.5h2.983a1.23 1.23 0 0 1 1.021.513V51.5a1 1 0 0 0-1-1h-2.5a1 1 0 0 0-1 1v1.1a1.4 1.4 0 0 1 .496-.1"/><path fill="none" stroke="#45413c" stroke-linecap="round" stroke-linejoin="round" d="M27.286 50.5a1 1 0 0 0-1 1v3.719a11 11 0 0 1-.564 3.472 2.135 2.135 0 0 0 4.05 1.35 19.8 19.8 0 0 0 1.014-6.241v-2.3a1 1 0 0 0-1-1z"/><path fill="#4acfff" d="M63 48a15.5 15.5 0 0 0-15.5 15.5V81h31V63.5A15.5 15.5 0 0 0 63 48"/><path fill="#ff8a14" stroke="#45413c" stroke-linecap="round" stroke-linejoin="round" d="M30.06 47.215a1 1 0 0 0 .749.666c1.493.306 5.739 1.1 5.967.311s-3.8-2.542-5.189-3.116a1 1 0 0 0-.989.129 1.645 1.645 0 0 0-.538 2.01"/><path fill="#4acfff" d="M64.585 48.079a16 16 0 0 0-3.17.001A15.5 15.5 0 0 0 47.5 63.5v2h.22a15.48 15.48 0 0 1 30.56 0h.22v-2a15.5 15.5 0 0 0-13.915-15.421"/><path fill="none" stroke="#45413c" stroke-linecap="round" stroke-linejoin="round" d="M63 48a15.5 15.5 0 0 0-15.5 15.5V81h31V63.5A15.5 15.5 0 0 0 63 48"/><path fill="none" stroke="#45413c" stroke-linecap="round" stroke-linejoin="round" d="M72.5 82V63.263a6 6 0 0 1 .51-2.42l2.724-6.183M53.5 82V63.263a6 6 0 0 0-.51-2.42l-2.724-6.183"/><path fill="#ff8a14" d="M63 47a9.96 9.96 0 0 1-7.672-3.6A4.6 4.6 0 0 0 54 46.5c0 3.314 4.029 6 9 6s9-2.686 9-6a4.6 4.6 0 0 0-1.328-3.1A9.96 9.96 0 0 1 63 47"/><path fill="#eb6d00" d="M71.623 44.82a5.4 5.4 0 0 0-.807-1.255l-.055-.064-.013-.016-.076-.084a9.978 9.978 0 0 1-15.344 0l-.076.084-.013.016-.055.064a5.4 5.4 0 0 0-.807 1.255c1.107 2.48 4.546 4.286 8.623 4.286s7.516-1.806 8.623-4.286"/><path fill="none" stroke="#45413c" stroke-linecap="round" stroke-linejoin="round" d="M63 47a9.96 9.96 0 0 1-7.672-3.6A4.6 4.6 0 0 0 54 46.5c0 3.314 4.029 6 9 6s9-2.686 9-6a4.6 4.6 0 0 0-1.328-3.1A9.96 9.96 0 0 1 63 47m0 5.499v34m-12.963-31.5h25.927m-23.125 5.5h20.322m-19.661 5.5h19m-19 5.5h19m-19 5.5h19"/><path fill="#ff8a14" d="M60.3 46.63a10 10 0 0 1-2.862-1.323A1.99 1.99 0 0 0 56.5 47l-2 11a2 2 0 0 0 2 2c-.166 3 .5 5 2.5 5a2 2 0 0 0 2-2l-.5-15.5a2 2 0 0 0-.2-.87"/><path fill="#eb6d00" d="M60.5 47.5a2 2 0 0 0-.2-.869 10 10 0 0 1-2.862-1.323A1.99 1.99 0 0 0 56.5 47l-.04.223a10.5 10.5 0 0 0 4.084 1.655z"/><path fill="none" stroke="#45413c" stroke-linecap="round" stroke-linejoin="round" d="M60.3 46.63a10 10 0 0 1-2.862-1.323A1.99 1.99 0 0 0 56.5 47l-2 11a2 2 0 0 0 2 2c-.166 3 .5 5 2.5 5a2 2 0 0 0 2-2l-.5-15.5a2 2 0 0 0-.2-.87m12.325 15.369h5.803m-5.928 5.5h6m-25.167-5.5h-5.761m5.928 5.5h-6m6 5.5h-6m6 5.5h-6m31-5.5h-6m6 5.5h-6m-16-18.5.75-6.583"/><path fill="#ff8a14" stroke="#45413c" stroke-linecap="round" stroke-linejoin="round" d="M47.5 81a3.23 3.23 0 0 1-.458 1.659A9.64 9.64 0 0 0 46 87.7a3.3 3.3 0 0 0 3.3 3.3 1.7 1.7 0 0 0 1.7-1.7v-.014a2.5 2.5 0 0 0 2.5-2.5V81z"/><path fill="none" stroke="#45413c" stroke-linecap="round" stroke-linejoin="round" d="M51 85.999v3.5"/><path fill="#ff8a14" stroke="#45413c" stroke-linecap="round" stroke-linejoin="round" d="M78.5 81a3.23 3.23 0 0 0 .458 1.658A9.64 9.64 0 0 1 80 87.7a3.3 3.3 0 0 1-3.3 3.3 1.7 1.7 0 0 1-1.7-1.7v-.014a2.5 2.5 0 0 1-2.5-2.5V81z"/><path fill="none" stroke="#45413c" stroke-linecap="round" stroke-linejoin="round" d="M75 85.999v3.5"/><path fill="#ffcebf" stroke="#45413c" stroke-linecap="round" stroke-linejoin="round" d="M73.008 34.492v-2.5a10 10 0 1 0-20 0v2.5a2 2 0 0 0 0 4c.042 0 .082-.01.123-.012a9.987 9.987 0 0 0 19.755 0c.041 0 .08.012.122.012a2 2 0 0 0 0-4"/><path fill="none" stroke="#45413c" stroke-linecap="round" stroke-linejoin="round" d="M59.992 41.289a4.36 4.36 0 0 0 6.016 0m2.5-5.797a1.629 1.629 0 0 0-3.008 0m-4.983 0a1.63 1.63 0 0 0-3.009 0"/><path fill="#ffb59e" d="M56.008 38.742a1.25 1.25 0 1 0 2.5 0 1.25 1.25 0 1 0-2.5 0M67.508 38.742a1.25 1.25 0 1 0 2.5 0 1.25 1.25 0 1 0-2.5 0"/><path fill="#947063" stroke="#45413c" stroke-linecap="round" stroke-linejoin="round" d="M64.031 22.044a10 10 0 0 0-2.045 0 10 10 0 0 0-8.978 9.948v2.5a1.726 1.726 0 0 1 1.6 1.719 9.1 9.1 0 0 0 .213-4.065c1.054.351 2.787-1.151 2.787-1.151v-2.4a24 24 0 0 0 5.4 1.2 24 24 0 0 0 5.4-1.2v2.4s1.734 1.5 2.788 1.151a9.1 9.1 0 0 0 .212 4.065 1.727 1.727 0 0 1 1.6-1.719v-2.5a10 10 0 0 0-8.977-9.948"/><path fill="#f8f8f8" d="M59.508 15.492a3.5 3.5 0 1 0 7 0 3.5 3.5 0 1 0-7 0"/><path fill="#ff8a14" d="M70.008 31.992c0 5.5 2.5 17.5 2.5 17.5s3-10.5 3-18.5c0-6.351-4-12-12.5-12s-12.5 5.649-12.5 12c0 8 3 18.5 3 18.5s2.5-12 2.5-17.5z"/><path fill="#ffaa54" d="M63.008 22.492c7.9 0 11.9 4.875 12.434 10.659.042-.733.066-1.456.066-2.159 0-6.351-4-12-12.5-12s-12.5 5.649-12.5 12c0 .7.025 1.426.067 2.159.531-5.784 4.538-10.659 12.433-10.659"/><path fill="none" stroke="#45413c" stroke-linecap="round" stroke-linejoin="round" d="M70.008 31.992c0 5.5 2.5 17.5 2.5 17.5s3-10.5 3-18.5c0-6.351-4-12-12.5-12s-12.5 5.649-12.5 12c0 8 3 18.5 3 18.5s2.5-12 2.5-17.5z"/><path fill="#f8f8f8" stroke="#45413c" stroke-linecap="round" stroke-linejoin="round" d="M71.508 29.492c-.023 0-.043.012-.066.013a2 2 0 0 0-.156-.411.97.97 0 0 0 .222-.6 1 1 0 0 0-1-1 .99.99 0 0 0-.856.514c-.048 0-.094-.014-.144-.014a1.5 1.5 0 0 0-3 0 1 1 0 0 0-2 0 1.5 1.5 0 1 0-3 0 1 1 0 1 0-2 0 1.5 1.5 0 1 0-3 0c-.049 0-.1.011-.143.014a.99.99 0 0 0-.857-.514 1 1 0 0 0-1 1 .97.97 0 0 0 .223.6 2 2 0 0 0-.156.411c-.023 0-.043-.013-.067-.013a1 1 0 0 0 0 2c.024 0 .044-.012.067-.013a2 2 0 0 0 .156.411.98.98 0 0 0-.223.6 1 1 0 0 0 1 1 .99.99 0 0 0 .857-.514c.048 0 .094.014.143.014a1.5 1.5 0 0 0 3 0 1 1 0 0 0 2 0 1.5 1.5 0 1 0 3 0 1 1 0 1 0 2 0 1.5 1.5 0 1 0 3 0c.05 0 .1-.011.144-.014a.99.99 0 0 0 .856.514 1 1 0 0 0 1-1 .97.97 0 0 0-.222-.6 2 2 0 0 0 .156-.411c.023 0 .043.013.066.013a1 1 0 0 0 0-2"/><path fill="#fff" d="M63.008 13.992a3.49 3.49 0 0 1 3.338 2.5 3.5 3.5 0 0 0 .162-1 3.5 3.5 0 1 0-7 0 3.5 3.5 0 0 0 .163 1 3.49 3.49 0 0 1 3.337-2.5"/><path fill="none" stroke="#45413c" stroke-linecap="round" stroke-linejoin="round" d="M59.508 15.492a3.5 3.5 0 1 0 7 0 3.5 3.5 0 1 0-7 0"/><path fill="#f8f8f8" stroke="#45413c" stroke-linecap="round" stroke-linejoin="round" d="M50.008 52.992a3.5 3.5 0 1 0 7 0 3.5 3.5 0 1 0-7 0M69.008 52.992a3.5 3.5 0 1 0 7 0 3.5 3.5 0 1 0-7 0"/><path fill="#87898c" stroke="#45413c" stroke-linecap="round" stroke-linejoin="round" d="M53.5 89.999v-9.538h19v9.538"/><path fill="none" stroke="#45413c" stroke-linecap="round" stroke-linejoin="round" d="M63 85.999v4"/></svg>