<svg xmlns="http://www.w3.org/2000/svg" width="82" height="82" fill="none" viewBox="0 0 82 82"><path fill="#daedf7" stroke="#daedf7" d="M1 41.245a40 40 0 1 0 80 0 40 40 0 0 0-80 0Z"/><path fill="#45413c" d="M26.3 42.234c-2.552 6.382-9.572 5.1-7.609 11.229 1.059 3.3 5.735 14.935 8.655 14.935a5.1 5.1 0 0 0 1.7 1.431l9.572 5a5.11 5.11 0 0 0 4.723 0l9.572-5a5.1 5.1 0 0 0 1.7-1.431c7.073-7.491 8.94-19.073 8.742-29.286a2.56 2.56 0 0 0-1.137-2.077l-6.559-4.373z" opacity=".15"/><path fill="#bdbec0" d="M52.518 50.53V20.906a2.55 2.55 0 0 0-1.989-2.491 42.7 42.7 0 0 0-18.994 0 2.55 2.55 0 0 0-1.99 2.49V50.53l-3.191 3.191V60.2a5.11 5.11 0 0 0 2.746 4.524l9.572 4.994a5.1 5.1 0 0 0 4.723 0l9.572-4.994a5.1 5.1 0 0 0 2.742-4.524v-6.479z"/><path fill="#87898c" d="m52.965 60.272-9.572 4.994a5.1 5.1 0 0 1-4.723 0l-9.57-4.994a5.11 5.11 0 0 1-2.744-4.526V60.2a5.11 5.11 0 0 0 2.744 4.524l9.572 4.995a5.1 5.1 0 0 0 4.723 0l9.572-4.995a5.1 5.1 0 0 0 2.742-4.524v-4.454a5.1 5.1 0 0 1-2.744 4.526"/><path stroke="#45413c" stroke-linejoin="round" d="M52.518 50.53V20.906a2.55 2.55 0 0 0-1.989-2.491 42.7 42.7 0 0 0-18.994 0 2.55 2.55 0 0 0-1.99 2.49V50.53l-3.191 3.191V60.2a5.11 5.11 0 0 0 2.746 4.524l9.572 4.994a5.1 5.1 0 0 0 4.723 0l9.572-4.994a5.1 5.1 0 0 0 2.742-4.524v-6.479z"/><path stroke="#45413c" stroke-linecap="round" stroke-linejoin="round" d="M41.032 14.156V8.732A7.98 7.98 0 0 1 49.008.755"/><path fill="#fff" stroke="#45413c" stroke-linecap="round" stroke-linejoin="round" d="M42.946 17.391V16.07a1.915 1.915 0 0 0-3.83 0v1.321q1.915-.09 3.83 0"/><path fill="#45413c" stroke="#45413c" stroke-linejoin="round" d="M44.222 42.872v-25.4a42 42 0 0 0-6.381 0v25.4l3.146 2.553zM63.405 34.007a2.55 2.55 0 0 0-1.136-2.077l-6.56-4.373V60.2a5.1 5.1 0 0 1-1.045 3.1c7.072-7.5 8.936-19.08 8.741-29.293Z"/><path fill="#6dd627" stroke="#45413c" stroke-linejoin="round" d="m52.518 50.53 3.19 3.191V23.542a2.55 2.55 0 0 0-1.604-2.37l-1.586-.635z"/><path fill="#45413c" stroke="#45413c" stroke-linejoin="round" d="M26.354 53.721V37.129c-2.552 6.381-9.572 5.105-7.608 11.229C19.8 51.66 24.48 63.293 27.4 63.293a5.1 5.1 0 0 1-1.046-3.1z"/><path fill="#6dd627" stroke="#45413c" stroke-linejoin="round" d="m29.545 50.53-3.191 3.191V23.542a2.55 2.55 0 0 1 1.605-2.37l1.586-.635z"/><path fill="#45413c" d="m29.545 34.577 8.296 8.295Z"/><path stroke="#45413c" stroke-linejoin="round" d="m29.545 34.577 8.296 8.295"/><path fill="#45413c" d="m44.222 42.872 8.296-8.295Z"/><path stroke="#45413c" stroke-linejoin="round" d="m44.222 42.872 8.296-8.295"/><path fill="#87898c" stroke="#45413c" stroke-linejoin="round" d="M23.164 28.2a2.553 2.553 0 0 0 2.552 2.553h.638v-7.02h-.638a2.553 2.553 0 0 0-2.552 2.553zM23.164 37.767a2.553 2.553 0 0 0 2.552 2.553h.638V33.3h-.638a2.553 2.553 0 0 0-2.552 2.553zM23.164 47.339a2.553 2.553 0 0 0 2.552 2.553h.638v-7.02h-.638a2.553 2.553 0 0 0-2.552 2.553z"/><path stroke="#45413c" stroke-linejoin="round" d="m37.84 36.491 3.192 3.191 3.19-3.249M37.84 30.806l3.192 3.191 3.19-3.249"/><path fill="#ff6242" stroke="#45413c" stroke-linejoin="round" d="M37.84 20.537h6.382v8.934H37.84z"/></svg>