<svg xmlns="http://www.w3.org/2000/svg" width="100" height="100" viewBox="0 0 100 100"><desc>Party Mexicam Streamline Illustration: https://streamlinehq.com</desc><path fill="#daedf7" stroke="#daedf7" d="M10.134 49.295a40 40 0 1 0 80 0 40 40 0 1 0-80 0Z"/><path fill="none" stroke="#daedf7" stroke-linecap="round" stroke-linejoin="round" d="M10.134 49.295a40 40 0 1 0 80 0 40 40 0 1 0-80 0"/><path fill="#9ceb60" d="M48.541 90.705a87 87 0 0 0 2.856-9.8 10 10 0 0 0 1.043.445 10.57 10.57 0 0 0 11.927-3.475l1.864-2.4a4 4 0 0 0-6.317-4.909l-1.864 2.4a2.592 2.592 0 0 1-4.639-1.6l.012-3.594c.132-1.586.239-3.174.293-4.764.376-11.143-2.146-27.173-15.316-29.95a12.81 12.81 0 0 0-13.008 4.914c-4.548 5.95-5.041 13.962-3.72 21.229-6.763 8.505-6.657 15.692.343 21.93a10.6 10.6 0 0 0 4.589 2.39 27.5 27.5 0 0 1-1.249 6.837"/><path fill="none" stroke="#6dd627" stroke-linecap="round" stroke-linejoin="round" d="M48.541 90.705a87 87 0 0 0 2.856-9.8 10 10 0 0 0 1.043.445 10.57 10.57 0 0 0 11.927-3.475l1.864-2.4a4 4 0 0 0-6.317-4.909l-1.864 2.4a2.592 2.592 0 0 1-4.639-1.6l.012-3.594c.132-1.586.239-3.174.293-4.764.376-11.143-2.146-27.173-15.316-29.95a12.81 12.81 0 0 0-13.008 4.914c-4.548 5.95-5.041 13.962-3.72 21.229-6.763 8.505-6.657 15.692.343 21.93a10.6 10.6 0 0 0 4.589 2.39 27.5 27.5 0 0 1-1.249 6.837"/><path fill="none" stroke="#6dd627" stroke-linecap="round" stroke-linejoin="round" d="M27.12 36.093a92.7 92.7 0 0 0 .154 29.254A229 229 0 0 0 32.8 90.455M42.417 34.455l.068.119c.344.608.688 1.217 1.016 1.834a51 51 0 0 1 5.287 18.444 130 130 0 0 1 .289 19.282 121 121 0 0 1-1.5 16.472M33.57 32.944a116 116 0 0 0-.27 24.492c.6 6.279 1.706 12.5 2.813 18.705l2.373 13.3.2 1.116M38.151 33.008c5.52 17.861 6.049 36.792 6.534 55.455l.018.692.039 1.5"/><path fill="none" stroke="#45413c" stroke-linecap="round" stroke-linejoin="round" d="M48.541 90.705a87 87 0 0 0 2.856-9.8 10 10 0 0 0 1.043.445 10.57 10.57 0 0 0 11.927-3.475l1.864-2.4a4 4 0 0 0-6.317-4.909l-1.864 2.4a2.592 2.592 0 0 1-4.639-1.6l.012-3.594c.132-1.586.239-3.174.293-4.764.376-11.143-2.146-27.173-15.316-29.95a12.81 12.81 0 0 0-13.008 4.914c-4.548 5.95-5.041 13.962-3.72 21.229-6.763 8.505-6.657 15.692.343 21.93a10.6 10.6 0 0 0 4.589 2.39 27.5 27.5 0 0 1-1.249 6.837"/><path fill="#e4ffd1" d="M26.649 53.124a1.967 1.967 0 1 0 3.934 0 1.967 1.967 0 1 0-3.934 0M44.387 49.563a1.967 1.967 0 1 0 3.934 0 1.967 1.967 0 1 0-3.934 0"/><path fill="none" stroke="#45413c" stroke-linecap="round" stroke-linejoin="round" d="M44.962 44.627a2.564 2.564 0 0 0-4.64.931M32.61 47.107a2.564 2.564 0 0 0-4.641.931"/><path fill="none" stroke="#6dd627" stroke-linecap="round" stroke-linejoin="round" d="M52.56 72.921a4.49 4.49 0 0 0 .85 4.684 4 4 0 0 0 1.6.816 6.8 6.8 0 0 0 2.42.245 9.6 9.6 0 0 0 3.067-.856 13.26 13.26 0 0 0 6.303-5.455M22.428 61.35A14.6 14.6 0 0 0 19.337 71a11.85 11.85 0 0 0 4.736 8.83c4.321 3.087 10.773 2.43 14.72-1.133"/><path fill="none" stroke="#6dd627" stroke-linecap="round" stroke-linejoin="round" d="M37.437 74.233a11.85 11.85 0 0 1-9.528 3.28c-5.2-.823-6.74-6.828-4.753-11.126a23.6 23.6 0 0 1 4.173-5.787"/><path fill="#915e3a" d="M53.034 51.574a1.787 1.787 0 1 0 .636 3.517c.025 0 .05-.01.075-.015a.088.088 0 0 1 .072.155h-.006a5.26 5.26 0 0 1-5.963.237c-1.956-1.235-4.653-3.164-6.855-2.455-1.52.489-2.668 2.579-2.668 2.579s-1.808-1.555-3.4-1.481c-2.311.107-4.161 2.859-5.561 4.7a5.265 5.265 0 0 1-5.668 1.867h-.007a.7.7 0 0 1-.263-.155 1.7 1.7 0 0 0 .351-.028 1.787 1.787 0 1 0-.636-3.517c-2.549.461-2.2 3.783.594 5.8 3.224 2.319 9.5 2.933 15.057-3.986l.093-.116.127.076c7.627 4.535 13.293 1.76 15.5-1.541 1.91-2.865 1.071-6.098-1.478-5.637"/><path fill="#bf8256" d="M23.6 62.677a6 6 0 0 0 6.121-1.9c1.4-1.842 3.25-4.594 5.56-4.7 1.595-.074 3.4 1.481 3.4 1.481s1.149-2.09 2.668-2.579c2.2-.709 4.9 1.22 6.855 2.455a5.27 5.27 0 0 0 6.718-.922c1.356-2.663.457-5.36-1.885-4.936a1.787 1.787 0 1 0 .636 3.517c.025 0 .05-.01.075-.015a.088.088 0 0 1 .072.155h-.006a5.26 5.26 0 0 1-5.963.237c-1.956-1.235-4.653-3.164-6.855-2.455-1.52.489-2.668 2.579-2.668 2.579s-1.808-1.555-3.4-1.481c-2.311.107-4.161 2.859-5.561 4.7a5.265 5.265 0 0 1-5.668 1.867h-.007a.7.7 0 0 1-.263-.155 1.7 1.7 0 0 0 .351-.028 1.787 1.787 0 1 0-.636-3.517c-2.549.461-2.2 3.783.594 5.8"/><path fill="none" stroke="#45413c" stroke-linecap="round" stroke-linejoin="round" d="M53.034 51.574a1.787 1.787 0 1 0 .636 3.517c.025 0 .05-.01.075-.015a.088.088 0 0 1 .072.155h-.006 0a5.26 5.26 0 0 1-5.963.237c-1.956-1.235-4.653-3.164-6.855-2.455-1.52.489-2.668 2.579-2.668 2.579s-1.808-1.555-3.4-1.481c-2.311.107-4.161 2.859-5.561 4.7a5.265 5.265 0 0 1-5.668 1.867h0-.007a.7.7 0 0 1-.263-.155 1.7 1.7 0 0 0 .351-.028 1.787 1.787 0 1 0-.636-3.517c-2.549.461-2.2 3.783.594 5.8 3.224 2.319 9.5 2.933 15.057-3.986l.093-.116.127.076c7.627 4.535 13.293 1.76 15.5-1.541 1.91-2.865 1.071-6.098-1.478-5.637"/><path fill="none" stroke="#6dd627" stroke-linecap="round" stroke-linejoin="round" d="M66.322 37.481a2.24 2.24 0 1 1-2.24-2.241 2.24 2.24 0 0 1 2.24 2.241M77.522 35.24a2.24 2.24 0 1 1-2.24-2.24 2.24 2.24 0 0 1 2.24 2.24"/><path fill="none" stroke="#6dd627" stroke-linecap="round" stroke-linejoin="round" d="M66.322 37.481v-9.268a1.2 1.2 0 0 1 .754-1.114l8.8-3.52a1.2 1.2 0 0 1 1.646 1.114V35.24"/><path fill="none" stroke="#ff6242" stroke-linecap="round" stroke-linejoin="round" d="M82.342 19.658a1.875 1.875 0 1 0 3.75 0 1.875 1.875 0 1 0-3.75 0M86.092 19.658V11.22l2.812 1.875"/><path fill="none" stroke="#ffaa54" stroke-linecap="round" stroke-linejoin="round" d="M69.542 52.02a1.2 1.2 0 1 1-1.2-1.2 1.2 1.2 0 0 1 1.2 1.2M69.542 52.02v-5.4l1.8 1.2"/><path fill="none" stroke="#00b8f0" stroke-linecap="round" stroke-linejoin="round" d="M83.442 43.921v-.9M85.351 44.712l.637-.637M86.142 46.621h.9M85.351 48.53l.637.636M83.442 49.32v.9M81.532 48.53l-.636.636M80.741 46.621h-.899M81.532 44.712l-.636-.637"/><path fill="none" stroke="#00aed9" stroke-linecap="round" stroke-linejoin="round" d="M74.242 20.921v-2.4M73.042 19.72h2.4M61.942 49.02v-4.8M59.542 46.62h4.8M84.642 33.22v-2.4M83.443 32.021h2.399"/><path fill="none" stroke="#45413c" stroke-linecap="round" stroke-linejoin="round" d="m73.217 68.242.868 2.452"/><path fill="#bf8256" d="M40.136 86.358a1.72 1.72 0 0 1 1.777-.694 6.16 6.16 0 0 0 3.386-.186c4.061-1.438 5.8-6.993 3.883-12.408s-6.762-8.64-10.823-7.2a6.16 6.16 0 0 0-2.749 1.985 1.72 1.72 0 0 1-1.818.578 8.23 8.23 0 0 0-5.527.09c-5.867 2.076-7.3 7.936-5.229 13.8s6.881 9.518 12.747 7.442a8.23 8.23 0 0 0 4.353-3.407"/><path fill="#e09f7e" d="M49.752 75.206c-2.27-4.2-6.4-6.507-9.947-5.253a6.16 6.16 0 0 0-2.75 1.985 1.715 1.715 0 0 1-1.818.578 8.24 8.24 0 0 0-5.527.09c-5.171 1.83-6.9 6.6-5.814 11.724a16 16 0 0 1-.86-2.007c-2.076-5.866-.638-11.726 5.229-13.8a8.23 8.23 0 0 1 5.527-.09 1.72 1.72 0 0 0 1.818-.578 6.16 6.16 0 0 1 2.749-1.985c4.061-1.438 8.907 1.787 10.823 7.2a13.7 13.7 0 0 1 .57 2.136"/><path fill="none" stroke="#45413c" stroke-linecap="round" stroke-linejoin="round" d="M40.136 86.358a1.72 1.72 0 0 1 1.777-.694 6.16 6.16 0 0 0 3.386-.186c4.061-1.438 5.8-6.993 3.883-12.408s-6.762-8.64-10.823-7.2a6.16 6.16 0 0 0-2.749 1.985 1.72 1.72 0 0 1-1.818.578 8.23 8.23 0 0 0-5.527.09c-5.867 2.076-7.3 7.936-5.229 13.8s6.881 9.518 12.747 7.442a8.23 8.23 0 0 0 4.353-3.407M28.416 76.742l2.313 6.537"/><path fill="#915e3a" stroke="#45413c" stroke-linecap="round" stroke-linejoin="round" d="m37.165 75.484 27.78-9.832 1.157 3.269-27.78 9.831zM64.367 64.018l8.17-2.892 2.314 6.537-8.17 2.892Z"/><path fill="none" stroke="#45413c" stroke-linecap="round" stroke-linejoin="round" d="m70.037 59.254.867 2.452M67.585 60.122l.868 2.451M65.134 60.989l.867 2.451M70.766 69.11l.867 2.451M68.315 69.977l.867 2.451"/><path fill="#45413c" stroke="#45413c" stroke-linecap="round" stroke-linejoin="round" d="M40.983 79.47a3.467 3.467 0 1 1 2.117-4.425 3.467 3.467 0 0 1-2.117 4.425"/><path fill="#9ceb60" d="M17.867 65.388C15.4 71.27 16.78 76.466 22.015 81.131a10.6 10.6 0 0 0 4.589 2.39v.01a10.57 10.57 0 0 0 7.771-1.145L37 80.863a4 4 0 1 0-4.013-6.921l-2.628 1.524a2.59 2.59 0 0 1-3.024-.307c-1.908-1.7-3.866-3.445-1.711-7.588"/><path fill="none" stroke="#6dd627" stroke-linecap="round" stroke-linejoin="round" d="M20.024 65.88a13.7 13.7 0 0 0-.687 5.12 11.85 11.85 0 0 0 4.736 8.83c4.32 3.086 10.77 2.431 14.717-1.13"/><path fill="none" stroke="#6dd627" stroke-linecap="round" stroke-linejoin="round" d="M37.437 74.233a11.85 11.85 0 0 1-9.528 3.28c-5.2-.823-6.74-6.828-4.753-11.126"/><path fill="none" stroke="#45413c" stroke-linecap="round" stroke-linejoin="round" d="M18.576 63.88c-3.381 6.506-2.24 12.191 3.439 17.251a10.6 10.6 0 0 0 4.589 2.39v.01a10.57 10.57 0 0 0 7.771-1.145L37 80.863a4 4 0 1 0-4.013-6.921l-2.628 1.524a2.59 2.59 0 0 1-3.024-.307c-1.908-1.7-3.866-3.445-1.711-7.588"/><path fill="#9ceb60" d="M54.67 73.6a2.5 2.5 0 0 0 .461.218 2.59 2.59 0 0 0 2.919-.85l1.864-2.4a4 4 0 0 1 6.317 4.909l-1.864 2.4a10.57 10.57 0 0 1-6.1 3.852q-.279.061-.561.107"/><path fill="none" stroke="#6dd627" stroke-linecap="round" stroke-linejoin="round" d="M52.285 75.205a3.8 3.8 0 0 0 1.125 2.4 4 4 0 0 0 1.6.816 6.8 6.8 0 0 0 2.42.245 9.6 9.6 0 0 0 3.067-.856 13.26 13.26 0 0 0 6.303-5.455"/><path fill="none" stroke="#6dd627" stroke-linecap="round" stroke-linejoin="round" d="M55.044 73.907a3.36 3.36 0 0 0 2.589.831 7.74 7.74 0 0 0 3.374-1.408 9.47 9.47 0 0 0 3.817-3.905"/><path fill="none" stroke="#45413c" stroke-linecap="round" stroke-linejoin="round" d="M54.67 73.6a2.5 2.5 0 0 0 .461.218 2.59 2.59 0 0 0 2.919-.85l1.864-2.4a4 4 0 0 1 6.317 4.909l-1.864 2.4a10.57 10.57 0 0 1-6.1 3.852q-.279.061-.561.107"/><path fill="#ebcb00" d="M22.9 26.526a23.4 23.4 0 0 0 .488 7.643c.116.511.252 1.007.4 1.5a161 161 0 0 1 18.581-4.125 24 24 0 0 0-.3-1.6 23.4 23.4 0 0 0-2.85-7.109Z"/><path fill="#ffe500" d="M42.363 31.541a24 24 0 0 0-.3-1.6c-1.893-8.365-7.609-14.2-12.767-13.034s-7.8 8.9-5.912 17.26c.116.511.252 1.007.4 1.5a161 161 0 0 1 18.579-4.126"/><path fill="none" stroke="#45413c" stroke-linecap="round" stroke-linejoin="round" d="M42.363 31.541a24 24 0 0 0-.3-1.6c-1.893-8.365-7.609-14.2-12.767-13.034s-7.8 8.9-5.912 17.26c.116.511.252 1.007.4 1.5a161 161 0 0 1 18.579-4.126"/><path fill="#ffaa54" d="M22.944 31.614a20.6 20.6 0 0 1 .537-8.088L37.4 20.378a20.6 20.6 0 0 1 3.967 7.069Z"/><path fill="#fc9" d="M22.9 26.525a18 18 0 0 1 .583-3L37.4 20.378a17.6 17.6 0 0 1 1.818 2.456Z"/><path fill="none" stroke="#45413c" stroke-linecap="round" stroke-linejoin="round" d="M22.944 31.614a20.6 20.6 0 0 1 .537-8.088L37.4 20.378a20.6 20.6 0 0 1 3.967 7.069Z"/><path fill="none" stroke="#45413c" stroke-linecap="round" stroke-linejoin="round" d="m22.787 28.069 1.027.23a4.68 4.68 0 0 0 4.613-1.557l.06-.071a4.69 4.69 0 0 1 5.534-1.252h0a4.7 4.7 0 0 0 5.784-1.567"/><path fill="#fff48c" d="M54.581 38.314a155.7 155.7 0 0 0-38.888 8.8A2.976 2.976 0 0 1 12.1 45.7l-1.775-3.088a3.22 3.22 0 0 1 1.491-4.669 200 200 0 0 1 42.26-9.509A3.22 3.22 0 0 1 57.48 32l-.267 3.492a2.975 2.975 0 0 1-2.632 2.822"/><path fill="#ff6242" d="M57.256 34.925A266 266 0 0 0 11.759 45.1l-1.431-2.489a3.5 3.5 0 0 1-.384-1 269 269 0 0 1 47.466-10.62A3.5 3.5 0 0 1 57.48 32Z"/><path fill="#6dd627" stroke="#45413c" stroke-linecap="round" stroke-linejoin="round" d="M15.352 43.971a51 51 0 0 1 3.036-4.927l4.767 2.69M25.986 40.992l4.229-5.011 5.955 2.624M48.441 36.27l2.986-4.397 4.002 3.309M38.337 38.152l3.637-4.653 4.606 3.09"/><path fill="none" stroke="#45413c" stroke-linecap="round" stroke-linejoin="round" d="M57.256 34.925A266 266 0 0 0 11.759 45.1l-1.431-2.489a3.5 3.5 0 0 1-.384-1 269 269 0 0 1 47.466-10.62A3.5 3.5 0 0 1 57.48 32Z"/><path fill="none" stroke="#45413c" stroke-linecap="round" stroke-linejoin="round" d="M54.581 38.314a155.7 155.7 0 0 0-38.888 8.8A2.976 2.976 0 0 1 12.1 45.7l-1.775-3.088a3.22 3.22 0 0 1 1.491-4.669 200 200 0 0 1 42.26-9.509A3.22 3.22 0 0 1 57.48 32l-.267 3.492a2.975 2.975 0 0 1-2.632 2.822"/></svg>