<svg xmlns="http://www.w3.org/2000/svg" width="683" height="683" fill="none" viewBox="0 0 683 683"><g clip-path="url(#a)"><path fill="url(#b)" d="M310.667 1.333C192 12.8 87.867 84.267 36 190 14.533 233.6 4.533 270.8 1.067 319.733c-3.2 44.667 4 95.867 19.6 138.4 7.2 19.734 24.533 53.867 36.133 71.2 32.267 48.267 76.133 88 126 113.867 32 16.667 62 27.067 96.533 33.467 110.8 20.4 222-13.6 301.867-92.534 52.8-52.266 87.067-119.866 98.133-193.466 4.534-30.134 3.867-73.6-1.466-105.6-3.067-17.6-10.267-45.2-15.867-60.534-7.067-19.2-24.4-53.733-35.2-69.866-27.067-40.667-63.867-76.8-103.6-102-15.067-9.6-48-25.734-65.067-32-18-6.667-46-13.734-66.8-16.8C371.2.8 329.733-.4 310.667 1.333M267.733 175.6l28.934-28.933 16 16 16 16-29.067 29.066-28.933 28.934L300 266l29.333 29.333-16 16-16 16L268 298l-29.333-29.333L209.333 298 180 327.333 164.4 311.6 148.667 296 178 266.667l29.333-29.334L178 208l-29.333-29.333 16-16 16-16L209.6 175.6l29.067 29.067zm198.134-24.933c15.733 4 27.866 10.933 40.266 23.333 22.134 21.867 31.067 50.133 25.334 79.333-9.2 46.534-52.4 78.267-98 72-30.667-4.133-55.6-21.733-68.8-48.266-13.067-26.534-13.2-52.934-.4-79.6 7.6-16 23.733-32.134 39.733-40 19.6-9.6 41.6-12 61.867-6.8m-204.134 208.8c27.867 7.2 52.8 30.8 61.734 58.266 19.2 59.6-26.667 119.867-88.667 116.534-58.933-3.067-98.4-59.6-80.667-115.6 14.267-45.067 61.6-71.067 107.6-59.2m153.2 25.466L444 414l29.333-29.333 29.334-29.334L518 370.667c8.4 8.4 15.333 15.866 15.333 16.666s-12.933 14.267-28.666 30L476 446l28.933 28.933L534 504l-16 16-16 16-29.333-29.333-29.334-29.334-28.933 28.934-29.067 29.066-15.6-15.733L354 504l29.067-29.067L412 446l-28.667-28.667c-15.733-15.733-28.666-29.2-28.666-30C354.667 386 384 356 385.333 356c.4 0 13.734 13.067 29.6 28.933"/><path fill="#3301fa" d="M436.933 193.467c-15.333 2.266-28.933 13.2-34.4 27.733-2.266 6-2.666 9.467-2.266 18.133.8 13.067 4.533 21.467 13.733 29.867 9.333 8.533 16.533 11.467 29.333 11.467 9.467 0 11.734-.534 19.6-4.4 9.734-4.8 16.4-11.467 21.334-21.467 4.533-9.2 4.4-26-.4-36.133-8.4-18-27.334-28-46.934-25.2"/><path fill="#4a01f3" d="M225.733 403.2c-26.8 8.8-38.933 39.067-25.466 63.6 18.266 33.6 67.866 29.2 80.266-7.2 6.934-20.4-3.2-44.4-22.8-53.6-9.066-4.4-23.6-5.6-32-2.8"/></g><defs><linearGradient id="b" x1="341.332" x2="341.332" y1="682.468" y2=".535" gradientUnits="userSpaceOnUse"><stop stop-color="#5f00ed"/><stop offset="1" stop-color="#2301ff"/></linearGradient><clipPath id="a"><path fill="#fff" d="M0 0h682.667v682.667H0z"/></clipPath></defs></svg>