<svg xmlns="http://www.w3.org/2000/svg" width="160" height="160" viewBox="0 0 160 160"><path fill="#c7f0ff" stroke="#c7f0ff" stroke-miterlimit="10" stroke-width="1.6" d="M16 80a64 64 0 1 0 128 0 64 64 0 1 0-128 0Z"/><path fill="#45413c" fill-opacity=".15" d="M55.16 130.762a24.84 2.76 0 1 0 49.68 0 24.84 2.76 0 1 0-49.68 0"/><path fill="#4acfff" d="M82.25 110.4a2.634 2.634 0 0 1-4.517 0L42.88 52.32a2.632 2.632 0 0 1 2.262-4h69.698a2.632 2.632 0 0 1 2.26 4Z"/><path fill="#80ddff" d="M117.133 49.662a2.63 2.63 0 0 0-2.291-1.336h-69.7a2.632 2.632 0 0 0-2.262 3.994l2.131 3.55a2.445 2.445 0 0 1 2.323-1.643h65.306a2.47 2.47 0 0 1 2.147 1.251 2.6 2.6 0 0 1 .178.392l2.134-3.55a2.63 2.63 0 0 0 .034-2.658"/><path fill="none" stroke="#45413c" stroke-linecap="round" stroke-linejoin="round" stroke-width="1.6" d="M82.25 110.4a2.634 2.634 0 0 1-4.517 0L42.88 52.32a2.632 2.632 0 0 1 2.262-4h69.698a2.632 2.632 0 0 1 2.26 4Z"/></svg>