<svg xmlns="http://www.w3.org/2000/svg" width="88" height="87" fill="none" viewBox="0 0 88 87"><path fill="#b8ecff" d="M84 43.5a39.998 39.998 0 0 0-64.477-31.642A40 40 0 0 0 7.564 60h72.872A39.8 39.8 0 0 0 84 43.5M7.564 60a40 40 0 0 0 72.872 0z"/><path stroke="#45413c" stroke-linecap="round" stroke-linejoin="round" d="M5 60h78M.5 60H3m82 0h2.5"/><path fill="#45413c" d="M9.528 77.605c0 .234.307.466.904.682s1.473.413 2.576.578c1.103.166 2.413.297 3.854.386a74 74 0 0 0 4.547.136c1.56 0 3.105-.046 4.547-.136s2.75-.22 3.854-.386c1.103-.165 1.979-.362 2.576-.578s.904-.448.904-.682-.307-.466-.904-.682c-.598-.216-1.473-.413-2.576-.578a46 46 0 0 0-3.854-.386 74 74 0 0 0-4.547-.136c-1.56 0-3.105.046-4.547.136s-2.75.22-3.854.386c-1.103.165-1.979.362-2.576.578s-.904.448-.904.682" opacity=".15"/><path fill="#00b8f0" d="M23.56 37.013h52.935v22.985H23.56z"/><path fill="#4acfff" d="m26.783 59.998 22.985-22.985H23.56v22.985z"/><path fill="#ffe500" d="M23.56 12.635h52.935v24.378H23.56z"/><path fill="#fff48c" d="M23.56 12.635v24.378h1.83l24.378-24.378z"/><path stroke="#45413c" stroke-linejoin="round" d="M23.56 12.635h52.935v24.378H23.56zM23.56 37.013h52.935v22.985H23.56z"/><path fill="#e0e0e0" stroke="#45413c" stroke-linejoin="round" d="M20.774 11.242a1.394 1.394 0 0 1 1.394-1.394h55.721a1.394 1.394 0 0 1 0 2.787H22.168a1.394 1.394 0 0 1-1.394-1.393Z"/><path stroke="#45413c" stroke-linecap="round" stroke-miterlimit="10" d="M38.187 21.689h-8.358m6.269 3.483h-6.269m6.269 3.483h-6.269"/><path fill="#fff" stroke="#45413c" stroke-linejoin="round" d="M67.789 21.689a2.4 2.4 0 0 0-1.121.286 3.832 3.832 0 0 0-7.509 0 2.4 2.4 0 0 0-1.121-.286 2.438 2.438 0 0 0 0 4.876h9.751a2.438 2.438 0 0 0 0-4.876Z"/><path fill="#ffe500" stroke="#45413c" stroke-linejoin="round" d="m61.172 26.565-1.094 2.19a.58.58 0 0 0 .334.808l1.061.353a.58.58 0 0 1 .4.549v1.668a.58.58 0 0 0 .988.409l2.085-2.084a.58.58 0 0 0 0-.82l-.731-.73a.58.58 0 0 1-.14-.592l.584-1.751z"/><path fill="#fff" stroke="#45413c" stroke-linejoin="round" d="M67.789 43.978a2.4 2.4 0 0 0-1.121.285 3.83 3.83 0 0 0-7.509 0 2.431 2.431 0 0 0-3.501 2.673 2.43 2.43 0 0 0 2.38 1.918h9.751a2.438 2.438 0 0 0 0-4.876Z"/><path fill="#b8ecff" stroke="#45413c" stroke-linejoin="round" d="M61.869 53.73a1.393 1.393 0 0 1-2.786 0c0-.77 1.393-2.787 1.393-2.787s1.393 2.017 1.393 2.787Zm5.572 0a1.393 1.393 0 0 1-2.786 0c0-.77 1.393-2.787 1.393-2.787s1.393 2.017 1.393 2.787Z"/><path fill="#45413c" d="M46.439 27.462c.4 0 .706.181.706.6a.585.585 0 0 1-.651.6h-3.017c-.4 0-.7-.181-.7-.6a.76.76 0 0 1 .208-.46c.749-.894 1.563-1.708 2.249-2.7.19-.24.3-.534.316-.84a.675.675 0 0 0-.65-.7c-1.039 0-.541 1.464-1.409 1.464a.626.626 0 0 1-.66-.659 2.124 2.124 0 0 1 2.123-2.051 1.875 1.875 0 0 1 2.006 1.879c0 1.256-1.4 2.5-2.168 3.468zm1.311-2.023c0-1.473.568-3.324 2.394-3.324s2.393 1.851 2.393 3.324-.568 3.324-2.393 3.324-2.394-1.851-2.394-3.324m3.378 0c0-.687-.064-2.1-.984-2.1s-.985 1.409-.985 2.1c0 .642.064 2.1.985 2.1s.984-1.458.984-2.1"/><path stroke="#45413c" stroke-miterlimit="10" d="M53.51 18.9a1.393 1.393 0 1 1-2.786 0 1.393 1.393 0 0 1 2.786 0Z"/><path fill="#45413c" d="M46.439 51.143c.4 0 .706.181.706.6a.584.584 0 0 1-.651.595h-3.017c-.4 0-.7-.18-.7-.595a.75.75 0 0 1 .208-.461c.749-.9 1.563-1.707 2.249-2.7.19-.24.3-.534.316-.84a.675.675 0 0 0-.65-.7c-1.039 0-.541 1.463-1.409 1.463a.625.625 0 0 1-.66-.659 2.125 2.125 0 0 1 2.118-2.046 1.876 1.876 0 0 1 2.006 1.879c0 1.256-1.4 2.5-2.168 3.469zm2.485-3.993h-.533a.583.583 0 0 1-.614-.623.6.6 0 0 1 .614-.623h1.283a.587.587 0 0 1 .605.641v5.14a.678.678 0 1 1-1.355 0z"/><path stroke="#45413c" stroke-miterlimit="10" d="M53.51 42.585a1.393 1.393 0 1 1-2.786 0 1.393 1.393 0 0 1 2.786 0Z"/><path stroke="#45413c" stroke-linecap="round" stroke-linejoin="round" d="m39.194 44.987 5.977-8.966"/><path fill="#87898c" d="M26.755 72.852q.3 0 .594.05V54.437H11.9v18.415h4.752q.363 0 .719.073l.4-11.361a1.85 1.85 0 1 1 3.7 0L22 72.852z"/><path stroke="#45413c" stroke-linecap="round" stroke-linejoin="round" d="M26.755 72.852q.3 0 .594.05V54.437H11.9v18.415h4.752q.363 0 .719.073l.4-11.361a1.85 1.85 0 1 1 3.7 0L22 72.852z"/><path fill="#947746" stroke="#45413c" stroke-linecap="round" stroke-linejoin="round" d="M30.32 76.417a3.565 3.565 0 0 0-3.565-3.565H22v2.377a1.19 1.19 0 0 0 1.188 1.188zm-10.099 0a3.565 3.565 0 0 0-3.565-3.565H11.9v2.377a1.19 1.19 0 0 0 1.188 1.188z"/><path fill="#f8f8f8" d="M27.349 54.437v-3.712a7.017 7.017 0 0 0 11.672-.008l.182-.273a.565.565 0 0 0-.189-.8l-3.608-2.067-.339.508a2.266 2.266 0 0 1-4.153-1.258v-2.489a11.881 11.881 0 0 0-23.762 0v10.693a.594.594 0 0 0 .594.594H11.9v-1.188z"/><path fill="#fff" d="M7.285 46.714a11.883 11.883 0 0 1 23.5 0h.133v-2.376a11.88 11.88 0 1 0-23.762 0v2.376z"/><path stroke="#45413c" stroke-linecap="round" stroke-linejoin="round" d="M27.349 54.437v-3.712a7.017 7.017 0 0 0 11.672-.008l.182-.273a.565.565 0 0 0-.189-.8l-3.608-2.067-.339.508a2.266 2.266 0 0 1-4.153-1.258v-2.489a11.881 11.881 0 0 0-23.762 0v10.693a.594.594 0 0 0 .594.594H11.9v-1.188z"/><path fill="#bf8256" stroke="#45413c" stroke-linecap="round" stroke-linejoin="round" d="M40.048 47.837a2.08 2.08 0 0 0-3.608-2.068l-1.034 1.8 3.608 2.067zM7.746 57.7a2.079 2.079 0 0 0 4.158 0v-2.075H7.746z"/><path stroke="#45413c" stroke-linecap="round" stroke-linejoin="round" d="M19.627 36.988v17.449m-7.723-12.475v13.663M27.35 41.962v8.763"/><path fill="#ff6242" stroke="#45413c" stroke-linecap="round" stroke-linejoin="round" d="m19.627 36.988-2.093 11.115 2.093 2.825 2.284-2.825z"/><path fill="#f8f8f8" d="m19.627 36.988-1.7-4.48a11.8 11.8 0 0 0-4.18 1.192l2.772 4.83zm3.108 1.537 2.486-4.33a11.8 11.8 0 0 0-3.96-1.528l-1.634 4.321z"/><path stroke="#45413c" stroke-linecap="round" stroke-linejoin="round" d="m19.627 36.988-1.7-4.48a11.8 11.8 0 0 0-4.18 1.192l2.772 4.83zm0 0 1.635-4.32c1.401.265 2.742.782 3.959 1.526l-2.486 4.331z"/><path fill="#bf8256" stroke="#45413c" stroke-linecap="round" stroke-linejoin="round" d="M22.562 32.99a.9.9 0 0 1-.636-.865v-4.724h-4.821v4.6a.74.74 0 0 1-.582.721l3.108 4.264z"/><path fill="#bf8256" stroke="#45413c" stroke-linecap="round" stroke-linejoin="round" d="M20.238 15.087a7.03 7.03 0 0 0-7.028 7.028v1.406c-2.007 0-1.869 3.514.351 3.514h.006a7.009 7.009 0 0 0 13.7-2.108v-2.812a7.027 7.027 0 0 0-7.029-7.028"/><path fill="#45413c" d="M18.129 23.696a.88.88 0 1 0 1.758 0 .88.88 0 0 0-1.758 0M25.158 23.7a.879.879 0 1 1-1.758.002.879.879 0 0 1 1.758-.002"/><path fill="#bf8256" d="M18.13 26.508a.7.7 0 1 1-1.4 0 .7.7 0 0 1 1.4 0"/><path stroke="#45413c" stroke-linecap="round" stroke-linejoin="round" d="M19.887 27.671a2.64 2.64 0 0 0 3.1.291q.22-.128.413-.291"/><path fill="#614b44" stroke="#45413c" stroke-linecap="round" stroke-linejoin="round" d="M26.835 19.393a19.5 19.5 0 0 1-7.035 1.166 14.7 14.7 0 0 1-3.559-.349 1.433 1.433 0 0 0-1.683 1.178c-.168 1.094-.529 2.092-1.971 2.308v-2.76a6 6 0 0 1 3-4.808c2.284-1.383 3.594-1.8 3.017-2.994.169.06 2.049.65 1.484 1.792 0 0 1.51-1.2-.293-3.607 0 0 3.888 1.2 2.71 3.6a2.13 2.13 0 0 0 .9-1.792 6.05 6.05 0 0 1 3.43 6.266"/></svg>