<svg xmlns="http://www.w3.org/2000/svg" width="160" height="160" viewBox="0 0 160 160"><path fill="#c7f0ff" stroke="#c7f0ff" stroke-miterlimit="10" stroke-width="1.6" d="M16 80a64 64 0 1 0 128 0 64 64 0 1 0-128 0Z"/><path fill="#fff" d="M51.387 109.523a1.885 1.885 0 0 0 1.893 1.885h54.672a1.885 1.885 0 0 0 1.886-1.885v-61.27L93.805 32.229H53.28a1.885 1.885 0 0 0-1.885 1.885Z"/><path fill="#e0e0e0" d="M81.72 76.666a1.76 1.76 0 0 0-1.76-1.76H51.387v34.617a1.886 1.886 0 0 0 1.893 1.885h28.44Z"/><path fill="none" stroke="#45413c" stroke-linecap="round" stroke-linejoin="round" stroke-width="1.6" d="M51.387 109.523a1.885 1.885 0 0 0 1.893 1.885h54.672a1.885 1.885 0 0 0 1.886-1.885v-61.27L93.805 32.229H53.28a1.885 1.885 0 0 0-1.885 1.885Z"/><path fill="#fff" stroke="#45413c" stroke-linecap="round" stroke-linejoin="round" stroke-width="1.6" d="M109.83 48.253H95.565a1.76 1.76 0 0 1-1.76-1.76V32.229Z"/><path fill="#009fd9" stroke="#45413c" stroke-linecap="round" stroke-linejoin="round" stroke-width="1.6" d="M37.957 80.186h38.481v38.481H37.957Z"/><path fill="#fff" stroke="#fff" stroke-linecap="round" stroke-linejoin="round" stroke-width="1.6" d="M44.253 86.482h25.89v25.89h-25.89z"/><path fill="none" stroke="#009fd9" stroke-linecap="round" stroke-linejoin="round" stroke-width="3.2" d="m66.522 92.774-4.181 13.303-5.143-13.303-5.142 13.303-4.18-13.303"/><path fill="#45413c" d="M55.803 129.766a24.805 3.035 0 1 0 49.61 0 24.805 3.035 0 1 0-49.61 0" opacity=".15"/></svg>