<svg xmlns="http://www.w3.org/2000/svg" width="210" height="200" fill="none" viewBox="0 0 210 200"><path fill="#65696b" d="M4 5.2a3 3 0 0 1 3-3h11.6a3 3 0 0 1 3 3V16a3 3 0 0 1-3 3H7a3 3 0 0 1-3-3z"/><path fill="#65696b" d="M21.6 5.63c0-.91-.12-1.78-.34-2.43-.23-.64-.52-1-.84-1H5.18q-.49.02-.84 1A8 8 0 0 0 4 5.63V9.4c0-.95.13-1.87.36-2.55s.55-1.05.88-1.05h15.12c.33 0 .65.38.88 1.05.23.68.36 1.6.36 2.55z"/><path fill="#65696b" stroke="#45413c" stroke-linecap="round" stroke-linejoin="round" d="M4 5.2a3 3 0 0 1 3-3h11.6a3 3 0 0 1 3 3V16a3 3 0 0 1-3 3H7a3 3 0 0 1-3-3z"/><path fill="#5a9c51" d="M43.2 5.2a3 3 0 0 1 3-3h11.6a3 3 0 0 1 3 3V16a3 3 0 0 1-3 3H46.2a3 3 0 0 1-3-3z"/><path fill="#5a9c51" d="M60.8 5.63c0-.91-.12-1.78-.34-2.43-.23-.64-.52-1-.84-1H44.38q-.49.02-.84 1a8 8 0 0 0-.34 2.43V9.4c0-.95.13-1.87.36-2.55s.55-1.05.88-1.05h15.12c.33 0 .65.38.88 1.05.23.68.36 1.6.36 2.55z"/><path fill="#5a9c51" stroke="#45413c" stroke-linecap="round" stroke-linejoin="round" d="M43.2 5.2a3 3 0 0 1 3-3h11.6a3 3 0 0 1 3 3V16a3 3 0 0 1-3 3H46.2a3 3 0 0 1-3-3z"/><path fill="#bda747" d="M23.6 5.2a3 3 0 0 1 3-3h11.6a3 3 0 0 1 3 3V16a3 3 0 0 1-3 3H26.6a3 3 0 0 1-3-3z"/><path fill="#bda747" d="M41.2 5.63c0-.91-.12-1.78-.34-2.43-.23-.64-.52-1-.84-1H24.78q-.49.02-.84 1a8 8 0 0 0-.34 2.43V9.4c0-.95.13-1.87.36-2.55s.55-1.05.88-1.05h15.12c.33 0 .65.38.88 1.05.23.68.36 1.6.36 2.55z"/><path fill="#bda747" stroke="#45413c" stroke-linecap="round" stroke-linejoin="round" d="M23.6 5.2a3 3 0 0 1 3-3h11.6a3 3 0 0 1 3 3V16a3 3 0 0 1-3 3H26.6a3 3 0 0 1-3-3z"/><path fill="#5a9c51" d="M82.4 5.2a3 3 0 0 1 3-3H97a3 3 0 0 1 3 3V16a3 3 0 0 1-3 3H85.4a3 3 0 0 1-3-3z"/><path fill="#5a9c51" d="M100 5.63c0-.91-.12-1.78-.34-2.43-.23-.64-.52-1-.84-1H83.58q-.49.02-.84 1a8 8 0 0 0-.34 2.43V9.4c0-.95.13-1.87.36-2.55s.55-1.05.88-1.05h15.12c.33 0 .65.38.88 1.05.23.68.36 1.6.36 2.55z"/><path fill="#5a9c51" stroke="#45413c" stroke-linecap="round" stroke-linejoin="round" d="M82.4 5.2a3 3 0 0 1 3-3H97a3 3 0 0 1 3 3V16a3 3 0 0 1-3 3H85.4a3 3 0 0 1-3-3z"/><path fill="#65696b" d="M62.8 5.2a3 3 0 0 1 3-3h11.6a3 3 0 0 1 3 3V16a3 3 0 0 1-3 3H65.8a3 3 0 0 1-3-3z"/><path fill="#65696b" d="M80.4 5.63c0-.91-.12-1.78-.34-2.43-.23-.64-.52-1-.84-1H63.98q-.49.02-.84 1a8 8 0 0 0-.34 2.43V9.4c0-.95.13-1.87.36-2.55s.55-1.05.88-1.05h15.12c.33 0 .65.38.88 1.05.23.68.36 1.6.36 2.55z"/><path fill="#65696b" stroke="#45413c" stroke-linecap="round" stroke-linejoin="round" d="M62.8 5.2a3 3 0 0 1 3-3h11.6a3 3 0 0 1 3 3V16a3 3 0 0 1-3 3H65.8a3 3 0 0 1-3-3z"/><path fill="#5a9c51" d="M4 24.2a3 3 0 0 1 3-3h11.6a3 3 0 0 1 3 3V35a3 3 0 0 1-3 3H7a3 3 0 0 1-3-3z"/><path fill="#5a9c51" d="M21.6 24.63c0-.91-.12-1.78-.34-2.43q-.35-.98-.84-1H5.18q-.49.02-.84 1A8 8 0 0 0 4 24.63v3.77c0-.95.13-1.87.36-2.55s.55-1.05.88-1.05h15.12c.33 0 .65.38.88 1.05.23.68.36 1.6.36 2.55z"/><path fill="#5a9c51" stroke="#45413c" stroke-linecap="round" stroke-linejoin="round" d="M4 24.2a3 3 0 0 1 3-3h11.6a3 3 0 0 1 3 3V35a3 3 0 0 1-3 3H7a3 3 0 0 1-3-3z"/><path fill="#65696b" d="M43.2 24.2a3 3 0 0 1 3-3h11.6a3 3 0 0 1 3 3V35a3 3 0 0 1-3 3H46.2a3 3 0 0 1-3-3z"/><path fill="#65696b" d="M60.8 24.63c0-.91-.12-1.78-.34-2.43q-.35-.98-.84-1H44.38q-.49.02-.84 1a8 8 0 0 0-.34 2.43v3.77c0-.95.13-1.87.36-2.55s.55-1.05.88-1.05h15.12c.33 0 .65.38.88 1.05.23.68.36 1.6.36 2.55z"/><path fill="#65696b" stroke="#45413c" stroke-linecap="round" stroke-linejoin="round" d="M43.2 24.2a3 3 0 0 1 3-3h11.6a3 3 0 0 1 3 3V35a3 3 0 0 1-3 3H46.2a3 3 0 0 1-3-3z"/><path fill="#bda747" d="M23.6 24.2a3 3 0 0 1 3-3h11.6a3 3 0 0 1 3 3V35a3 3 0 0 1-3 3H26.6a3 3 0 0 1-3-3z"/><path fill="#bda747" d="M41.2 24.63c0-.91-.12-1.78-.34-2.43q-.35-.98-.84-1H24.78q-.49.02-.84 1a8 8 0 0 0-.34 2.43v3.77c0-.95.13-1.87.36-2.55s.55-1.05.88-1.05h15.12c.33 0 .65.38.88 1.05.23.68.36 1.6.36 2.55z"/><path fill="#bda747" stroke="#45413c" stroke-linecap="round" stroke-linejoin="round" d="M23.6 24.2a3 3 0 0 1 3-3h11.6a3 3 0 0 1 3 3V35a3 3 0 0 1-3 3H26.6a3 3 0 0 1-3-3z"/><path fill="#65696b" d="M82.4 24.2a3 3 0 0 1 3-3H97a3 3 0 0 1 3 3V35a3 3 0 0 1-3 3H85.4a3 3 0 0 1-3-3z"/><path fill="#65696b" d="M100 24.63c0-.91-.12-1.78-.34-2.43q-.35-.98-.84-1H83.58q-.49.02-.84 1a8 8 0 0 0-.34 2.43v3.77c0-.95.13-1.87.36-2.55s.55-1.05.88-1.05h15.12c.33 0 .65.38.88 1.05.23.68.36 1.6.36 2.55z"/><path fill="#bda747" stroke="#45413c" stroke-linecap="round" stroke-linejoin="round" d="M82.4 24.2a3 3 0 0 1 3-3H97a3 3 0 0 1 3 3V35a3 3 0 0 1-3 3H85.4a3 3 0 0 1-3-3z"/><path fill="#bda747" d="M62.8 24.2a3 3 0 0 1 3-3h11.6a3 3 0 0 1 3 3V35a3 3 0 0 1-3 3H65.8a3 3 0 0 1-3-3z"/><path fill="#bda747" d="M80.4 24.63c0-.91-.12-1.78-.34-2.43q-.35-.98-.84-1H63.98q-.49.02-.84 1a8 8 0 0 0-.34 2.43v3.77c0-.95.13-1.87.36-2.55s.55-1.05.88-1.05h15.12c.33 0 .65.38.88 1.05.23.68.36 1.6.36 2.55z"/><path fill="#bda747" stroke="#45413c" stroke-linecap="round" stroke-linejoin="round" d="M62.8 24.2a3 3 0 0 1 3-3h11.6a3 3 0 0 1 3 3V35a3 3 0 0 1-3 3H65.8a3 3 0 0 1-3-3z"/><path fill="#bda747" d="M4 43.2a3 3 0 0 1 3-3h11.6a3 3 0 0 1 3 3V54a3 3 0 0 1-3 3H7a3 3 0 0 1-3-3z"/><path fill="#bda747" d="M21.6 43.63c0-.91-.12-1.78-.34-2.43q-.35-.98-.84-1H5.18q-.49.02-.84 1A8 8 0 0 0 4 43.63v3.77c0-.95.13-1.87.36-2.55s.55-1.05.88-1.05h15.12c.33 0 .65.38.88 1.05.23.68.36 1.6.36 2.55z"/><path fill="#bda747" stroke="#45413c" stroke-linecap="round" stroke-linejoin="round" d="M4 43.2a3 3 0 0 1 3-3h11.6a3 3 0 0 1 3 3V54a3 3 0 0 1-3 3H7a3 3 0 0 1-3-3z"/><path fill="#bda747" d="M43.2 43.2a3 3 0 0 1 3-3h11.6a3 3 0 0 1 3 3V54a3 3 0 0 1-3 3H46.2a3 3 0 0 1-3-3z"/><path fill="#bda747" d="M60.8 43.63c0-.91-.12-1.78-.34-2.43q-.35-.98-.84-1H44.38q-.49.02-.84 1a8 8 0 0 0-.34 2.43v3.77c0-.95.13-1.87.36-2.55s.55-1.05.88-1.05h15.12c.33 0 .65.38.88 1.05.23.68.36 1.6.36 2.55z"/><path fill="#bda747" stroke="#45413c" stroke-linecap="round" stroke-linejoin="round" d="M43.2 43.2a3 3 0 0 1 3-3h11.6a3 3 0 0 1 3 3V54a3 3 0 0 1-3 3H46.2a3 3 0 0 1-3-3z"/><path fill="#bda747" d="M23.6 43.2a3 3 0 0 1 3-3h11.6a3 3 0 0 1 3 3V54a3 3 0 0 1-3 3H26.6a3 3 0 0 1-3-3z"/><path fill="#bda747" d="M41.2 43.63c0-.91-.12-1.78-.34-2.43q-.35-.98-.84-1H24.78q-.49.02-.84 1a8 8 0 0 0-.34 2.43v3.77c0-.95.13-1.87.36-2.55s.55-1.05.88-1.05h15.12c.33 0 .65.38.88 1.05.23.68.36 1.6.36 2.55z"/><path fill="#bda747" stroke="#45413c" stroke-linecap="round" stroke-linejoin="round" d="M23.6 43.2a3 3 0 0 1 3-3h11.6a3 3 0 0 1 3 3V54a3 3 0 0 1-3 3H26.6a3 3 0 0 1-3-3z"/><path fill="#65696b" d="M82.4 43.2a3 3 0 0 1 3-3H97a3 3 0 0 1 3 3V54a3 3 0 0 1-3 3H85.4a3 3 0 0 1-3-3z"/><path fill="#65696b" d="M100 43.63c0-.91-.12-1.78-.34-2.43q-.35-.98-.84-1H83.58q-.49.02-.84 1a8 8 0 0 0-.34 2.43v3.77c0-.95.13-1.87.36-2.55s.55-1.05.88-1.05h15.12c.33 0 .65.38.88 1.05.23.68.36 1.6.36 2.55z"/><path fill="#65696b" stroke="#45413c" stroke-linecap="round" stroke-linejoin="round" d="M82.4 43.2a3 3 0 0 1 3-3H97a3 3 0 0 1 3 3V54a3 3 0 0 1-3 3H85.4a3 3 0 0 1-3-3z"/><path fill="#bda747" d="M62.8 43.2a3 3 0 0 1 3-3h11.6a3 3 0 0 1 3 3V54a3 3 0 0 1-3 3H65.8a3 3 0 0 1-3-3z"/><path fill="#bda747" d="M80.4 43.63c0-.91-.12-1.78-.34-2.43q-.35-.98-.84-1H63.98q-.49.02-.84 1a8 8 0 0 0-.34 2.43v3.77c0-.95.13-1.87.36-2.55s.55-1.05.88-1.05h15.12c.33 0 .65.38.88 1.05.23.68.36 1.6.36 2.55z"/><path fill="#bda747" stroke="#45413c" stroke-linecap="round" stroke-linejoin="round" d="M62.8 43.2a3 3 0 0 1 3-3h11.6a3 3 0 0 1 3 3V54a3 3 0 0 1-3 3H65.8a3 3 0 0 1-3-3z"/><path fill="#5a9c51" d="M4 62.2a3 3 0 0 1 3-3h11.6a3 3 0 0 1 3 3V73a3 3 0 0 1-3 3H7a3 3 0 0 1-3-3z"/><path fill="#5a9c51" d="M21.6 62.63c0-.91-.12-1.78-.34-2.43-.23-.64-.52-1-.84-1H5.18q-.49.02-.84 1A8 8 0 0 0 4 62.63v3.77c0-.95.13-1.87.36-2.55s.55-1.05.88-1.05h15.12c.33 0 .65.38.88 1.05.23.68.36 1.6.36 2.55z"/><path fill="#5a9c51" stroke="#45413c" stroke-linecap="round" stroke-linejoin="round" d="M4 62.2a3 3 0 0 1 3-3h11.6a3 3 0 0 1 3 3V73a3 3 0 0 1-3 3H7a3 3 0 0 1-3-3z"/><path fill="#bda747" d="M43.2 62.2a3 3 0 0 1 3-3h11.6a3 3 0 0 1 3 3V73a3 3 0 0 1-3 3H46.2a3 3 0 0 1-3-3z"/><path fill="#bda747" d="M60.8 62.63c0-.91-.12-1.78-.34-2.43-.23-.64-.52-1-.84-1H44.38q-.49.02-.84 1a8 8 0 0 0-.34 2.43v3.77c0-.95.13-1.87.36-2.55s.55-1.05.88-1.05h15.12c.33 0 .65.38.88 1.05.23.68.36 1.6.36 2.55z"/><path fill="#bda747" stroke="#45413c" stroke-linecap="round" stroke-linejoin="round" d="M43.2 62.2a3 3 0 0 1 3-3h11.6a3 3 0 0 1 3 3V73a3 3 0 0 1-3 3H46.2a3 3 0 0 1-3-3z"/><path fill="#5a9c51" d="M23.6 62.2a3 3 0 0 1 3-3h11.6a3 3 0 0 1 3 3V73a3 3 0 0 1-3 3H26.6a3 3 0 0 1-3-3z"/><path fill="#5a9c51" d="M41.2 62.63c0-.91-.12-1.78-.34-2.43-.23-.64-.52-1-.84-1H24.78q-.49.02-.84 1a8 8 0 0 0-.34 2.43v3.77c0-.95.13-1.87.36-2.55s.55-1.05.88-1.05h15.12c.33 0 .65.38.88 1.05.23.68.36 1.6.36 2.55z"/><path fill="#5a9c51" stroke="#45413c" stroke-linecap="round" stroke-linejoin="round" d="M23.6 62.2a3 3 0 0 1 3-3h11.6a3 3 0 0 1 3 3V73a3 3 0 0 1-3 3H26.6a3 3 0 0 1-3-3z"/><path fill="#65696b" d="M82.4 62.2a3 3 0 0 1 3-3H97a3 3 0 0 1 3 3V73a3 3 0 0 1-3 3H85.4a3 3 0 0 1-3-3z"/><path fill="#65696b" d="M100 62.63c0-.91-.12-1.78-.34-2.43-.23-.64-.52-1-.84-1H83.58q-.49.02-.84 1a8 8 0 0 0-.34 2.43v3.77c0-.95.13-1.87.36-2.55s.55-1.05.88-1.05h15.12c.33 0 .65.38.88 1.05.23.68.36 1.6.36 2.55z"/><path fill="#65696b" stroke="#45413c" stroke-linecap="round" stroke-linejoin="round" d="M82.4 62.2a3 3 0 0 1 3-3H97a3 3 0 0 1 3 3V73a3 3 0 0 1-3 3H85.4a3 3 0 0 1-3-3z"/><path fill="#bda747" d="M62.8 62.2a3 3 0 0 1 3-3h11.6a3 3 0 0 1 3 3V73a3 3 0 0 1-3 3H65.8a3 3 0 0 1-3-3z"/><path fill="#bda747" d="M80.4 62.63c0-.91-.12-1.78-.34-2.43-.23-.64-.52-1-.84-1H63.98q-.49.02-.84 1a8 8 0 0 0-.34 2.43v3.77c0-.95.13-1.87.36-2.55s.55-1.05.88-1.05h15.12c.33 0 .65.38.88 1.05.23.68.36 1.6.36 2.55z"/><path fill="#bda747" stroke="#45413c" stroke-linecap="round" stroke-linejoin="round" d="M62.8 62.2a3 3 0 0 1 3-3h11.6a3 3 0 0 1 3 3V73a3 3 0 0 1-3 3H65.8a3 3 0 0 1-3-3z"/><path fill="#5a9c51" d="M4 81.2a3 3 0 0 1 3-3h11.6a3 3 0 0 1 3 3V92a3 3 0 0 1-3 3H7a3 3 0 0 1-3-3z"/><path fill="#5a9c51" d="M21.6 81.63c0-.91-.12-1.78-.34-2.43-.23-.64-.52-1-.84-1H5.18q-.49.02-.84 1A8 8 0 0 0 4 81.63v3.77c0-.95.13-1.87.36-2.55s.55-1.05.88-1.05h15.12c.33 0 .65.38.88 1.05.23.68.36 1.6.36 2.55z"/><path fill="#5a9c51" stroke="#45413c" stroke-linecap="round" stroke-linejoin="round" d="M4 81.2a3 3 0 0 1 3-3h11.6a3 3 0 0 1 3 3V92a3 3 0 0 1-3 3H7a3 3 0 0 1-3-3z"/><path fill="#5a9c51" d="M43.2 81.2a3 3 0 0 1 3-3h11.6a3 3 0 0 1 3 3V92a3 3 0 0 1-3 3H46.2a3 3 0 0 1-3-3z"/><path fill="#5a9c51" d="M60.8 81.63c0-.91-.12-1.78-.34-2.43-.23-.64-.52-1-.84-1H44.38q-.49.02-.84 1a8 8 0 0 0-.34 2.43v3.77c0-.95.13-1.87.36-2.55s.55-1.05.88-1.05h15.12c.33 0 .65.38.88 1.05.23.68.36 1.6.36 2.55z"/><path stroke="#45413c" stroke-linecap="round" stroke-linejoin="round" d="M43.2 81.2a3 3 0 0 1 3-3h11.6a3 3 0 0 1 3 3V92a3 3 0 0 1-3 3H46.2a3 3 0 0 1-3-3z"/><path fill="#5a9c51" d="M23.6 81.2a3 3 0 0 1 3-3h11.6a3 3 0 0 1 3 3V92a3 3 0 0 1-3 3H26.6a3 3 0 0 1-3-3z"/><path fill="#5a9c51" d="M41.2 81.63c0-.91-.12-1.78-.34-2.43-.23-.64-.52-1-.84-1H24.78q-.49.02-.84 1a8 8 0 0 0-.34 2.43v3.77c0-.95.13-1.87.36-2.55s.55-1.05.88-1.05h15.12c.33 0 .65.38.88 1.05.23.68.36 1.6.36 2.55z"/><path fill="#5a9c51" stroke="#45413c" stroke-linecap="round" stroke-linejoin="round" d="M23.6 81.2a3 3 0 0 1 3-3h11.6a3 3 0 0 1 3 3V92a3 3 0 0 1-3 3H26.6a3 3 0 0 1-3-3z"/><path fill="#5a9c51" d="M82.4 81.2a3 3 0 0 1 3-3H97a3 3 0 0 1 3 3V92a3 3 0 0 1-3 3H85.4a3 3 0 0 1-3-3z"/><path fill="#5a9c51" d="M100 81.63c0-.91-.12-1.78-.34-2.43-.23-.64-.52-1-.84-1H83.58q-.49.02-.84 1a8 8 0 0 0-.34 2.43v3.77c0-.95.13-1.87.36-2.55s.55-1.05.88-1.05h15.12c.33 0 .65.38.88 1.05.23.68.36 1.6.36 2.55z"/><path stroke="#45413c" stroke-linecap="round" stroke-linejoin="round" d="M82.4 81.2a3 3 0 0 1 3-3H97a3 3 0 0 1 3 3V92a3 3 0 0 1-3 3H85.4a3 3 0 0 1-3-3z"/><path fill="#5a9c51" d="M62.8 81.2a3 3 0 0 1 3-3h11.6a3 3 0 0 1 3 3V92a3 3 0 0 1-3 3H65.8a3 3 0 0 1-3-3z"/><path fill="#5a9c51" d="M80.4 81.63c0-.91-.12-1.78-.34-2.43-.23-.64-.52-1-.84-1H63.98q-.49.02-.84 1a8 8 0 0 0-.34 2.43v3.77c0-.95.13-1.87.36-2.55s.55-1.05.88-1.05h15.12c.33 0 .65.38.88 1.05.23.68.36 1.6.36 2.55z"/><path stroke="#45413c" stroke-linecap="round" stroke-linejoin="round" d="M62.8 81.2a3 3 0 0 1 3-3h11.6a3 3 0 0 1 3 3V92a3 3 0 0 1-3 3H65.8a3 3 0 0 1-3-3z"/><path fill="#fff" d="M10.24 91.2v-8.73h2.11v7.02h3.63v1.71zM94.71 82.47v8.73h-1.79l-3.47-5.04h-.06v5.04h-2.1v-8.73h1.8l3.44 5.03h.08v-5.03zM68.69 91.2v-8.73h3.6q.98 0 1.7.36.7.34 1.1 1 .39.66.39 1.55 0 .9-.4 1.54-.4.63-1.13.96t-1.72.33h-2.28v-1.66h1.89q.48 0 .8-.12a1 1 0 0 0 .48-.39q.17-.26.17-.66t-.17-.67a1 1 0 0 0-.49-.4q-.32-.14-.8-.14H70.8v7.03zm4.91-3.99 2.17 3.99h-2.3l-2.13-3.99zM49.92 91.2h-2.27l2.95-8.73h2.8l2.95 8.73h-2.27l-2.05-6.53h-.07zm-.3-3.43h4.74v1.6h-4.74zM28.96 91.2v-8.73h6.08v1.72h-3.97v1.79h3.66v1.71h-3.66v1.8h3.97v1.71zM10.24 72.2v-8.73h2.11v7.02h3.63v1.71zM87.31 65.19v-1.72h7.38v1.72h-2.65v7.01h-2.08v-7.01zM75.71 63.47v8.73h-1.79l-3.47-5.04h-.06v5.04h-2.1v-8.73h1.8l3.44 5.03h.08v-5.03zM48.69 72.2v-8.73h3.6q.98 0 1.7.36.7.34 1.1 1 .39.66.39 1.55 0 .9-.4 1.54-.4.63-1.13.96t-1.72.33h-2.28v-1.66h1.89q.47 0 .8-.12a1 1 0 0 0 .48-.39q.17-.26.17-.66t-.17-.67a1 1 0 0 0-.49-.4q-.32-.14-.8-.14H50.8v7.03zm4.91-3.99 2.17 3.99h-2.3l-2.13-3.99zM28.96 72.2v-8.73h6.08v1.72h-3.97v1.79h3.66v1.71h-3.66v1.8h3.97v1.71zM9.96 53.2v-8.73h6.08v1.72h-3.97v1.79h3.66v1.71h-3.66v1.8h3.97v1.71zM86.76 44.47h2.36l1.84 3.65h.08l1.84-3.65h2.36l-3.2 5.82v2.91h-2.09v-2.91zM69.24 53.2v-8.73h2.11v7.02h3.63v1.71zM48.69 53.2v-8.73h3.6q.98 0 1.7.36.7.34 1.1 1 .39.66.39 1.55 0 .9-.4 1.54-.4.63-1.13.96t-1.72.33h-2.28v-1.66h1.89q.47 0 .8-.12a1 1 0 0 0 .48-.39q.17-.26.17-.66t-.17-.67a1 1 0 0 0-.49-.4q-.32-.14-.8-.14H50.8v7.03zm4.91-3.99 2.17 3.99h-2.3l-2.13-3.99zM29.92 53.2h-2.27l2.95-8.73h2.8l2.95 8.73h-2.27l-2.05-6.53h-.07zm-.3-3.43h4.74v1.6h-4.74zM10.24 34.2v-8.73h2.11v7.02h3.63v1.71zM87.69 34.2v-8.73h3.6q.98 0 1.7.36.7.34 1.1 1 .39.66.39 1.55 0 .9-.4 1.54-.4.63-1.13.96t-1.72.33h-2.28v-1.66h1.89q.47 0 .8-.12a1 1 0 0 0 .48-.39q.17-.26.17-.66t-.17-.67a1 1 0 0 0-.49-.4q-.32-.14-.8-.14H89.8v7.03zm4.91-3.99 2.17 3.99h-2.3l-2.13-3.99zM68.96 34.2v-8.73h6.08v1.72h-3.97v1.79h3.66v1.71h-3.66v1.8h3.97v1.71zM48.31 27.19v-1.72h7.38v1.72h-2.65v7.01h-2.07v-7.01zM29.92 34.2h-2.27l2.95-8.73h2.8l2.95 8.73h-2.27l-2.05-6.53h-.07zm-.3-3.43h4.74v1.6h-4.74zM9.31 8.19V6.47h7.38V8.2h-2.65v7.01h-2.07V8.19zM94.71 6.47v8.73h-1.79l-3.47-5.04h-.06v5.04h-2.1V6.47h1.8l3.44 5.03h.08V6.47zM73.05 6.47v8.73h-2.1V6.47zM49.92 15.2h-2.27l2.95-8.73h2.8l2.95 8.73h-2.27l-2.05-6.53h-.07zm-.3-3.43h4.74v1.6h-4.74zM28.69 15.2V6.47h3.6q.98 0 1.7.36.7.34 1.1 1 .39.65.39 1.55t-.4 1.54q-.4.63-1.13.96t-1.72.33h-2.28v-1.66h1.89q.47 0 .8-.12a1 1 0 0 0 .48-.39q.17-.26.17-.66t-.17-.67a1 1 0 0 0-.49-.4q-.32-.14-.8-.14H30.8v7.03zm4.91-3.99 2.17 3.99h-2.3l-2.13-3.99z"/><path fill="#65696b" d="M110 5.2a3 3 0 0 1 3-3h11.6a3 3 0 0 1 3 3V16a3 3 0 0 1-3 3H113a3 3 0 0 1-3-3z"/><path fill="#65696b" d="M127.6 5.63c0-.91-.12-1.78-.34-2.43-.23-.64-.52-1-.84-1h-15.24q-.5.02-.84 1a8 8 0 0 0-.34 2.43V9.4c0-.95.13-1.87.36-2.55s.55-1.05.88-1.05h15.13c.32 0 .64.38.87 1.05.23.68.36 1.6.36 2.55z"/><path fill="#65696b" stroke="#45413c" stroke-linecap="round" stroke-linejoin="round" d="M110 5.2a3 3 0 0 1 3-3h11.6a3 3 0 0 1 3 3V16a3 3 0 0 1-3 3H113a3 3 0 0 1-3-3z"/><path fill="#5a9c51" d="M149.2 5.2a3 3 0 0 1 3-3h11.6a3 3 0 0 1 3 3V16a3 3 0 0 1-3 3h-11.6a3 3 0 0 1-3-3z"/><path fill="#5a9c51" d="M166.8 5.63c0-.91-.12-1.78-.34-2.43-.22-.64-.52-1-.84-1h-15.24q-.5.02-.84 1a8 8 0 0 0-.34 2.43V9.4c0-.95.13-1.87.36-2.55s.55-1.05.88-1.05h15.13c.32 0 .64.38.87 1.05.23.68.36 1.6.36 2.55z"/><path fill="#5a9c51" stroke="#45413c" stroke-linecap="round" stroke-linejoin="round" d="M149.2 5.2a3 3 0 0 1 3-3h11.6a3 3 0 0 1 3 3V16a3 3 0 0 1-3 3h-11.6a3 3 0 0 1-3-3z"/><path fill="#bda747" d="M129.6 5.2a3 3 0 0 1 3-3h11.6a3 3 0 0 1 3 3V16a3 3 0 0 1-3 3h-11.6a3 3 0 0 1-3-3z"/><path fill="#bda747" d="M147.2 5.63c0-.91-.12-1.78-.34-2.43-.23-.64-.52-1-.84-1h-15.24q-.5.02-.84 1a8 8 0 0 0-.34 2.43V9.4c0-.95.13-1.87.36-2.55s.55-1.05.88-1.05h15.13c.32 0 .64.38.87 1.05.23.68.36 1.6.36 2.55z"/><path fill="#bda747" stroke="#45413c" stroke-linecap="round" stroke-linejoin="round" d="M129.6 5.2a3 3 0 0 1 3-3h11.6a3 3 0 0 1 3 3V16a3 3 0 0 1-3 3h-11.6a3 3 0 0 1-3-3z"/><path fill="#5a9c51" d="M188.4 5.2a3 3 0 0 1 3-3H203a3 3 0 0 1 3 3V16a3 3 0 0 1-3 3h-11.6a3 3 0 0 1-3-3z"/><path fill="#5a9c51" d="M206 5.63c0-.91-.12-1.78-.34-2.43-.22-.64-.52-1-.84-1h-15.24q-.5.02-.84 1a8 8 0 0 0-.34 2.43V9.4c0-.95.13-1.87.36-2.55s.55-1.05.88-1.05h15.13c.32 0 .64.38.87 1.05.23.68.36 1.6.36 2.55z"/><path fill="#5a9c51" stroke="#45413c" stroke-linecap="round" stroke-linejoin="round" d="M188.4 5.2a3 3 0 0 1 3-3H203a3 3 0 0 1 3 3V16a3 3 0 0 1-3 3h-11.6a3 3 0 0 1-3-3z"/><path fill="#65696b" d="M168.8 5.2a3 3 0 0 1 3-3h11.6a3 3 0 0 1 3 3V16a3 3 0 0 1-3 3h-11.6a3 3 0 0 1-3-3z"/><path fill="#65696b" d="M186.4 5.63c0-.91-.12-1.78-.34-2.43-.22-.64-.52-1-.84-1h-15.24q-.49.02-.84 1a8 8 0 0 0-.34 2.43V9.4c0-.95.13-1.87.36-2.55s.55-1.05.88-1.05h15.13c.32 0 .64.38.87 1.05.23.68.36 1.6.36 2.55z"/><path fill="#65696b" stroke="#45413c" stroke-linecap="round" stroke-linejoin="round" d="M168.8 5.2a3 3 0 0 1 3-3h11.6a3 3 0 0 1 3 3V16a3 3 0 0 1-3 3h-11.6a3 3 0 0 1-3-3z"/><path fill="#5a9c51" d="M110 24.2a3 3 0 0 1 3-3h11.6a3 3 0 0 1 3 3V35a3 3 0 0 1-3 3H113a3 3 0 0 1-3-3z"/><path fill="#5a9c51" d="M127.6 24.63c0-.91-.12-1.78-.34-2.43q-.35-.98-.84-1h-15.24q-.5.02-.84 1a8 8 0 0 0-.34 2.43v3.77c0-.95.13-1.87.36-2.55s.55-1.05.88-1.05h15.13c.32 0 .64.38.87 1.05.23.68.36 1.6.36 2.55z"/><path fill="#5a9c51" stroke="#45413c" stroke-linecap="round" stroke-linejoin="round" d="M110 24.2a3 3 0 0 1 3-3h11.6a3 3 0 0 1 3 3V35a3 3 0 0 1-3 3H113a3 3 0 0 1-3-3z"/><path fill="#65696b" d="M149.2 24.2a3 3 0 0 1 3-3h11.6a3 3 0 0 1 3 3V35a3 3 0 0 1-3 3h-11.6a3 3 0 0 1-3-3z"/><path fill="#65696b" d="M166.8 24.63c0-.91-.12-1.78-.34-2.43q-.34-.98-.84-1h-15.24q-.5.02-.84 1a8 8 0 0 0-.34 2.43v3.77c0-.95.13-1.87.36-2.55s.55-1.05.88-1.05h15.13c.32 0 .64.38.87 1.05.23.68.36 1.6.36 2.55z"/><path fill="#65696b" stroke="#45413c" stroke-linecap="round" stroke-linejoin="round" d="M149.2 24.2a3 3 0 0 1 3-3h11.6a3 3 0 0 1 3 3V35a3 3 0 0 1-3 3h-11.6a3 3 0 0 1-3-3z"/><path fill="#bda747" d="M129.6 24.2a3 3 0 0 1 3-3h11.6a3 3 0 0 1 3 3V35a3 3 0 0 1-3 3h-11.6a3 3 0 0 1-3-3z"/><path fill="#bda747" d="M147.2 24.63c0-.91-.12-1.78-.34-2.43q-.35-.98-.84-1h-15.24q-.5.02-.84 1a8 8 0 0 0-.34 2.43v3.77c0-.95.13-1.87.36-2.55s.55-1.05.88-1.05h15.13c.32 0 .64.38.87 1.05.23.68.36 1.6.36 2.55z"/><path fill="#bda747" stroke="#45413c" stroke-linecap="round" stroke-linejoin="round" d="M129.6 24.2a3 3 0 0 1 3-3h11.6a3 3 0 0 1 3 3V35a3 3 0 0 1-3 3h-11.6a3 3 0 0 1-3-3z"/><path fill="#65696b" d="M188.4 24.2a3 3 0 0 1 3-3H203a3 3 0 0 1 3 3V35a3 3 0 0 1-3 3h-11.6a3 3 0 0 1-3-3z"/><path fill="#65696b" d="M206 24.63c0-.91-.12-1.78-.34-2.43q-.35-.98-.84-1h-15.24q-.5.02-.84 1a8 8 0 0 0-.34 2.43v3.77c0-.95.13-1.87.36-2.55s.55-1.05.88-1.05h15.13c.32 0 .64.38.87 1.05.23.68.36 1.6.36 2.55z"/><path fill="#bda747" stroke="#45413c" stroke-linecap="round" stroke-linejoin="round" d="M188.4 24.2a3 3 0 0 1 3-3H203a3 3 0 0 1 3 3V35a3 3 0 0 1-3 3h-11.6a3 3 0 0 1-3-3z"/><path fill="#bda747" d="M168.8 24.2a3 3 0 0 1 3-3h11.6a3 3 0 0 1 3 3V35a3 3 0 0 1-3 3h-11.6a3 3 0 0 1-3-3z"/><path fill="#bda747" d="M186.4 24.63c0-.91-.12-1.78-.34-2.43q-.35-.98-.84-1h-15.24q-.49.02-.84 1a8 8 0 0 0-.34 2.43v3.77c0-.95.13-1.87.36-2.55s.55-1.05.88-1.05h15.13c.32 0 .64.38.87 1.05.23.68.36 1.6.36 2.55z"/><path fill="#bda747" stroke="#45413c" stroke-linecap="round" stroke-linejoin="round" d="M168.8 24.2a3 3 0 0 1 3-3h11.6a3 3 0 0 1 3 3V35a3 3 0 0 1-3 3h-11.6a3 3 0 0 1-3-3z"/><path fill="#bda747" d="M110 43.2a3 3 0 0 1 3-3h11.6a3 3 0 0 1 3 3V54a3 3 0 0 1-3 3H113a3 3 0 0 1-3-3z"/><path fill="#bda747" d="M127.6 43.63c0-.91-.12-1.78-.34-2.43q-.35-.98-.84-1h-15.24q-.5.02-.84 1a8 8 0 0 0-.34 2.43v3.77c0-.95.13-1.87.36-2.55s.55-1.05.88-1.05h15.13c.32 0 .64.38.87 1.05.23.68.36 1.6.36 2.55z"/><path fill="#bda747" stroke="#45413c" stroke-linecap="round" stroke-linejoin="round" d="M110 43.2a3 3 0 0 1 3-3h11.6a3 3 0 0 1 3 3V54a3 3 0 0 1-3 3H113a3 3 0 0 1-3-3z"/><path fill="#bda747" d="M149.2 43.2a3 3 0 0 1 3-3h11.6a3 3 0 0 1 3 3V54a3 3 0 0 1-3 3h-11.6a3 3 0 0 1-3-3z"/><path fill="#bda747" d="M166.8 43.63c0-.91-.12-1.78-.34-2.43q-.34-.98-.84-1h-15.24q-.5.02-.84 1a8 8 0 0 0-.34 2.43v3.77c0-.95.13-1.87.36-2.55s.55-1.05.88-1.05h15.13c.32 0 .64.38.87 1.05.23.68.36 1.6.36 2.55z"/><path fill="#bda747" stroke="#45413c" stroke-linecap="round" stroke-linejoin="round" d="M149.2 43.2a3 3 0 0 1 3-3h11.6a3 3 0 0 1 3 3V54a3 3 0 0 1-3 3h-11.6a3 3 0 0 1-3-3z"/><path fill="#bda747" d="M129.6 43.2a3 3 0 0 1 3-3h11.6a3 3 0 0 1 3 3V54a3 3 0 0 1-3 3h-11.6a3 3 0 0 1-3-3z"/><path fill="#bda747" d="M147.2 43.63c0-.91-.12-1.78-.34-2.43q-.35-.98-.84-1h-15.24q-.5.02-.84 1a8 8 0 0 0-.34 2.43v3.77c0-.95.13-1.87.36-2.55s.55-1.05.88-1.05h15.13c.32 0 .64.38.87 1.05.23.68.36 1.6.36 2.55z"/><path fill="#bda747" stroke="#45413c" stroke-linecap="round" stroke-linejoin="round" d="M129.6 43.2a3 3 0 0 1 3-3h11.6a3 3 0 0 1 3 3V54a3 3 0 0 1-3 3h-11.6a3 3 0 0 1-3-3z"/><path fill="#65696b" d="M188.4 43.2a3 3 0 0 1 3-3H203a3 3 0 0 1 3 3V54a3 3 0 0 1-3 3h-11.6a3 3 0 0 1-3-3z"/><path fill="#65696b" d="M206 43.63c0-.91-.12-1.78-.34-2.43q-.35-.98-.84-1h-15.24q-.5.02-.84 1a8 8 0 0 0-.34 2.43v3.77c0-.95.13-1.87.36-2.55s.55-1.05.88-1.05h15.13c.32 0 .64.38.87 1.05.23.68.36 1.6.36 2.55z"/><path fill="#65696b" stroke="#45413c" stroke-linecap="round" stroke-linejoin="round" d="M188.4 43.2a3 3 0 0 1 3-3H203a3 3 0 0 1 3 3V54a3 3 0 0 1-3 3h-11.6a3 3 0 0 1-3-3z"/><path fill="#bda747" d="M168.8 43.2a3 3 0 0 1 3-3h11.6a3 3 0 0 1 3 3V54a3 3 0 0 1-3 3h-11.6a3 3 0 0 1-3-3z"/><path fill="#bda747" d="M186.4 43.63c0-.91-.12-1.78-.34-2.43q-.35-.98-.84-1h-15.24q-.49.02-.84 1a8 8 0 0 0-.34 2.43v3.77c0-.95.13-1.87.36-2.55s.55-1.05.88-1.05h15.13c.32 0 .64.38.87 1.05.23.68.36 1.6.36 2.55z"/><path fill="#bda747" stroke="#45413c" stroke-linecap="round" stroke-linejoin="round" d="M168.8 43.2a3 3 0 0 1 3-3h11.6a3 3 0 0 1 3 3V54a3 3 0 0 1-3 3h-11.6a3 3 0 0 1-3-3z"/><path fill="#5a9c51" d="M110 62.2a3 3 0 0 1 3-3h11.6a3 3 0 0 1 3 3V73a3 3 0 0 1-3 3H113a3 3 0 0 1-3-3z"/><path fill="#5a9c51" d="M127.6 62.63c0-.91-.12-1.78-.34-2.43-.23-.64-.52-1-.84-1h-15.24q-.5.02-.84 1a8 8 0 0 0-.34 2.43v3.77c0-.95.13-1.87.36-2.55s.55-1.05.88-1.05h15.13c.32 0 .64.38.87 1.05.23.68.36 1.6.36 2.55z"/><path fill="#5a9c51" stroke="#45413c" stroke-linecap="round" stroke-linejoin="round" d="M110 62.2a3 3 0 0 1 3-3h11.6a3 3 0 0 1 3 3V73a3 3 0 0 1-3 3H113a3 3 0 0 1-3-3z"/><path fill="#bda747" d="M149.2 62.2a3 3 0 0 1 3-3h11.6a3 3 0 0 1 3 3V73a3 3 0 0 1-3 3h-11.6a3 3 0 0 1-3-3z"/><path fill="#bda747" d="M166.8 62.63c0-.91-.12-1.78-.34-2.43-.22-.64-.52-1-.84-1h-15.24q-.5.02-.84 1a8 8 0 0 0-.34 2.43v3.77c0-.95.13-1.87.36-2.55s.55-1.05.88-1.05h15.13c.32 0 .64.38.87 1.05.23.68.36 1.6.36 2.55z"/><path fill="#bda747" stroke="#45413c" stroke-linecap="round" stroke-linejoin="round" d="M149.2 62.2a3 3 0 0 1 3-3h11.6a3 3 0 0 1 3 3V73a3 3 0 0 1-3 3h-11.6a3 3 0 0 1-3-3z"/><path fill="#5a9c51" d="M129.6 62.2a3 3 0 0 1 3-3h11.6a3 3 0 0 1 3 3V73a3 3 0 0 1-3 3h-11.6a3 3 0 0 1-3-3z"/><path fill="#5a9c51" d="M147.2 62.63c0-.91-.12-1.78-.34-2.43-.23-.64-.52-1-.84-1h-15.24q-.5.02-.84 1a8 8 0 0 0-.34 2.43v3.77c0-.95.13-1.87.36-2.55s.55-1.05.88-1.05h15.13c.32 0 .64.38.87 1.05.23.68.36 1.6.36 2.55z"/><path fill="#5a9c51" stroke="#45413c" stroke-linecap="round" stroke-linejoin="round" d="M129.6 62.2a3 3 0 0 1 3-3h11.6a3 3 0 0 1 3 3V73a3 3 0 0 1-3 3h-11.6a3 3 0 0 1-3-3z"/><path fill="#65696b" d="M188.4 62.2a3 3 0 0 1 3-3H203a3 3 0 0 1 3 3V73a3 3 0 0 1-3 3h-11.6a3 3 0 0 1-3-3z"/><path fill="#65696b" d="M206 62.63c0-.91-.12-1.78-.34-2.43-.22-.64-.52-1-.84-1h-15.24q-.5.02-.84 1a8 8 0 0 0-.34 2.43v3.77c0-.95.13-1.87.36-2.55s.55-1.05.88-1.05h15.13c.32 0 .64.38.87 1.05.23.68.36 1.6.36 2.55z"/><path fill="#65696b" stroke="#45413c" stroke-linecap="round" stroke-linejoin="round" d="M188.4 62.2a3 3 0 0 1 3-3H203a3 3 0 0 1 3 3V73a3 3 0 0 1-3 3h-11.6a3 3 0 0 1-3-3z"/><path fill="#bda747" d="M168.8 62.2a3 3 0 0 1 3-3h11.6a3 3 0 0 1 3 3V73a3 3 0 0 1-3 3h-11.6a3 3 0 0 1-3-3z"/><path fill="#bda747" d="M186.4 62.63c0-.91-.12-1.78-.34-2.43-.22-.64-.52-1-.84-1h-15.24q-.49.02-.84 1a8 8 0 0 0-.34 2.43v3.77c0-.95.13-1.87.36-2.55s.55-1.05.88-1.05h15.13c.32 0 .64.38.87 1.05.23.68.36 1.6.36 2.55z"/><path fill="#bda747" stroke="#45413c" stroke-linecap="round" stroke-linejoin="round" d="M168.8 62.2a3 3 0 0 1 3-3h11.6a3 3 0 0 1 3 3V73a3 3 0 0 1-3 3h-11.6a3 3 0 0 1-3-3z"/><path fill="#5a9c51" d="M110 81.2a3 3 0 0 1 3-3h11.6a3 3 0 0 1 3 3V92a3 3 0 0 1-3 3H113a3 3 0 0 1-3-3z"/><path fill="#5a9c51" d="M127.6 81.63c0-.91-.12-1.78-.34-2.43-.23-.64-.52-1-.84-1h-15.24q-.5.02-.84 1a8 8 0 0 0-.34 2.43v3.77c0-.95.13-1.87.36-2.55s.55-1.05.88-1.05h15.13c.32 0 .64.38.87 1.05.23.68.36 1.6.36 2.55z"/><path fill="#5a9c51" stroke="#45413c" stroke-linecap="round" stroke-linejoin="round" d="M110 81.2a3 3 0 0 1 3-3h11.6a3 3 0 0 1 3 3V92a3 3 0 0 1-3 3H113a3 3 0 0 1-3-3z"/><path fill="#5a9c51" d="M149.2 81.2a3 3 0 0 1 3-3h11.6a3 3 0 0 1 3 3V92a3 3 0 0 1-3 3h-11.6a3 3 0 0 1-3-3z"/><path fill="#5a9c51" d="M166.8 81.63c0-.91-.12-1.78-.34-2.43-.22-.64-.52-1-.84-1h-15.24q-.5.02-.84 1a8 8 0 0 0-.34 2.43v3.77c0-.95.13-1.87.36-2.55s.55-1.05.88-1.05h15.13c.32 0 .64.38.87 1.05.23.68.36 1.6.36 2.55z"/><path stroke="#45413c" stroke-linecap="round" stroke-linejoin="round" d="M149.2 81.2a3 3 0 0 1 3-3h11.6a3 3 0 0 1 3 3V92a3 3 0 0 1-3 3h-11.6a3 3 0 0 1-3-3z"/><path fill="#5a9c51" d="M129.6 81.2a3 3 0 0 1 3-3h11.6a3 3 0 0 1 3 3V92a3 3 0 0 1-3 3h-11.6a3 3 0 0 1-3-3z"/><path fill="#5a9c51" d="M147.2 81.63c0-.91-.12-1.78-.34-2.43-.23-.64-.52-1-.84-1h-15.24q-.5.02-.84 1a8 8 0 0 0-.34 2.43v3.77c0-.95.13-1.87.36-2.55s.55-1.05.88-1.05h15.13c.32 0 .64.38.87 1.05.23.68.36 1.6.36 2.55z"/><path fill="#5a9c51" stroke="#45413c" stroke-linecap="round" stroke-linejoin="round" d="M129.6 81.2a3 3 0 0 1 3-3h11.6a3 3 0 0 1 3 3V92a3 3 0 0 1-3 3h-11.6a3 3 0 0 1-3-3z"/><path fill="#5a9c51" d="M188.4 81.2a3 3 0 0 1 3-3H203a3 3 0 0 1 3 3V92a3 3 0 0 1-3 3h-11.6a3 3 0 0 1-3-3z"/><path fill="#5a9c51" d="M206 81.63c0-.91-.12-1.78-.34-2.43-.22-.64-.52-1-.84-1h-15.24q-.5.02-.84 1a8 8 0 0 0-.34 2.43v3.77c0-.95.13-1.87.36-2.55s.55-1.05.88-1.05h15.13c.32 0 .64.38.87 1.05.23.68.36 1.6.36 2.55z"/><path stroke="#45413c" stroke-linecap="round" stroke-linejoin="round" d="M188.4 81.2a3 3 0 0 1 3-3H203a3 3 0 0 1 3 3V92a3 3 0 0 1-3 3h-11.6a3 3 0 0 1-3-3z"/><path fill="#5a9c51" d="M168.8 81.2a3 3 0 0 1 3-3h11.6a3 3 0 0 1 3 3V92a3 3 0 0 1-3 3h-11.6a3 3 0 0 1-3-3z"/><path fill="#5a9c51" d="M186.4 81.63c0-.91-.12-1.78-.34-2.43-.22-.64-.52-1-.84-1h-15.24q-.49.02-.84 1a8 8 0 0 0-.34 2.43v3.77c0-.95.13-1.87.36-2.55s.55-1.05.88-1.05h15.13c.32 0 .64.38.87 1.05.23.68.36 1.6.36 2.55z"/><path stroke="#45413c" stroke-linecap="round" stroke-linejoin="round" d="M168.8 81.2a3 3 0 0 1 3-3h11.6a3 3 0 0 1 3 3V92a3 3 0 0 1-3 3h-11.6a3 3 0 0 1-3-3z"/><path fill="#fff" d="M116.25 91.2v-8.73h2.1v7.02H122v1.71zM200.71 82.47v8.73h-1.79l-3.47-5.04h-.06v5.04h-2.1v-8.73h1.8l3.44 5.03h.08v-5.03zM174.69 91.2v-8.73h3.6q.99 0 1.7.36.7.34 1.1 1 .39.66.39 1.55 0 .9-.4 1.54-.4.63-1.12.96-.75.33-1.73.33h-2.28v-1.66h1.89q.47 0 .8-.12a1 1 0 0 0 .48-.39q.17-.26.17-.66t-.17-.67a1 1 0 0 0-.49-.4q-.32-.14-.8-.14h-1.03v7.03zm4.91-3.99 2.17 3.99h-2.3l-2.13-3.99zM155.92 91.2h-2.27l2.95-8.73h2.8l2.95 8.73h-2.27l-2.05-6.53h-.06zm-.3-3.43h4.74v1.6h-4.74zM134.96 91.2v-8.73h6.08v1.72h-3.97v1.79h3.66v1.71h-3.66v1.8h3.97v1.71zM116.25 72.2v-8.73h2.1v7.02H122v1.71zM193.32 65.19v-1.72h7.37v1.72h-2.65v7.01h-2.07v-7.01zM181.71 63.47v8.73h-1.79l-3.47-5.04h-.06v5.04h-2.1v-8.73h1.8l3.44 5.03h.08v-5.03zM154.69 72.2v-8.73h3.6q.99 0 1.7.36.7.34 1.1 1 .39.66.39 1.55 0 .9-.4 1.54-.4.63-1.12.96-.75.33-1.73.33h-2.28v-1.66h1.89q.47 0 .8-.12a1 1 0 0 0 .48-.39q.17-.26.17-.66t-.17-.67a1 1 0 0 0-.49-.4q-.32-.14-.8-.14h-1.03v7.03zm4.91-3.99 2.17 3.99h-2.3l-2.13-3.99zM134.96 72.2v-8.73h6.08v1.72h-3.97v1.79h3.66v1.71h-3.66v1.8h3.97v1.71zM115.96 53.2v-8.73h6.08v1.72h-3.97v1.79h3.66v1.71h-3.66v1.8h3.97v1.71zM192.76 44.47h2.36l1.84 3.65h.08l1.84-3.65h2.36l-3.2 5.82v2.91h-2.09v-2.91zM175.25 53.2v-8.73h2.1v7.02H181v1.71zM154.69 53.2v-8.73h3.6q.99 0 1.7.36.7.34 1.1 1 .39.66.39 1.55 0 .9-.4 1.54-.4.63-1.12.96-.75.33-1.73.33h-2.28v-1.66h1.89q.47 0 .8-.12a1 1 0 0 0 .48-.39q.17-.26.17-.66t-.17-.67a1 1 0 0 0-.49-.4q-.32-.14-.8-.14h-1.03v7.03zm4.91-3.99 2.17 3.99h-2.3l-2.13-3.99zM135.92 53.2h-2.27l2.95-8.73h2.8l2.95 8.73h-2.27l-2.05-6.53h-.06zm-.3-3.43h4.74v1.6h-4.74zM116.25 34.2v-8.73h2.1v7.02H122v1.71zM193.69 34.2v-8.73h3.6q.99 0 1.7.36.7.34 1.1 1 .39.66.39 1.55 0 .9-.4 1.54-.4.63-1.12.96-.75.33-1.73.33h-2.28v-1.66h1.89q.47 0 .8-.12a1 1 0 0 0 .48-.39q.17-.26.17-.66t-.17-.67a1 1 0 0 0-.49-.4q-.32-.14-.8-.14h-1.03v7.03zm4.91-3.99 2.17 3.99h-2.3l-2.13-3.99zM174.96 34.2v-8.73h6.08v1.72h-3.97v1.79h3.66v1.71h-3.66v1.8h3.97v1.71zM154.32 27.19v-1.72h7.37v1.72h-2.65v7.01h-2.07v-7.01zM135.92 34.2h-2.27l2.95-8.73h2.8l2.95 8.73h-2.27l-2.05-6.53h-.06zm-.3-3.43h4.74v1.6h-4.74zM115.31 8.19V6.47h7.38V8.2h-2.64v7.01h-2.08V8.19zM200.71 6.47v8.73h-1.79l-3.47-5.04h-.06v5.04h-2.1V6.47h1.8l3.44 5.03h.08V6.47zM179.05 6.47v8.73h-2.1V6.47zM155.92 15.2h-2.27l2.95-8.73h2.8l2.95 8.73h-2.27l-2.05-6.53h-.06zm-.3-3.43h4.74v1.6h-4.74zM134.69 15.2V6.47h3.6q.99 0 1.7.36.7.34 1.1 1 .39.65.39 1.55t-.4 1.54q-.4.63-1.12.96-.75.33-1.73.33h-2.28v-1.66h1.89q.47 0 .8-.12a1 1 0 0 0 .48-.39q.17-.26.17-.66t-.17-.67a1 1 0 0 0-.49-.4q-.32-.14-.8-.14h-1.03v7.03zm4.91-3.99 2.17 3.99h-2.3l-2.13-3.99z"/><path fill="#65696b" d="M4 108a3 3 0 0 1 3-3h11.6a3 3 0 0 1 3 3v10.8a3 3 0 0 1-3 3H7a3 3 0 0 1-3-3z"/><path fill="#65696b" d="M21.6 108.43c0-.91-.12-1.78-.34-2.43q-.35-.98-.84-1H5.18q-.49.02-.84 1a8 8 0 0 0-.34 2.43v3.77c0-.95.13-1.87.36-2.55s.55-1.05.88-1.05h15.12c.33 0 .65.38.88 1.05.23.68.36 1.6.36 2.55z"/><path fill="#65696b" stroke="#45413c" stroke-linecap="round" stroke-linejoin="round" d="M4 108a3 3 0 0 1 3-3h11.6a3 3 0 0 1 3 3v10.8a3 3 0 0 1-3 3H7a3 3 0 0 1-3-3z"/><path fill="#5a9c51" d="M43.2 108a3 3 0 0 1 3-3h11.6a3 3 0 0 1 3 3v10.8a3 3 0 0 1-3 3H46.2a3 3 0 0 1-3-3z"/><path fill="#5a9c51" d="M60.8 108.43c0-.91-.12-1.78-.34-2.43q-.35-.98-.84-1H44.38q-.49.02-.84 1a8 8 0 0 0-.34 2.43v3.77c0-.95.13-1.87.36-2.55s.55-1.05.88-1.05h15.12c.33 0 .65.38.88 1.05.23.68.36 1.6.36 2.55z"/><path fill="#5a9c51" stroke="#45413c" stroke-linecap="round" stroke-linejoin="round" d="M43.2 108a3 3 0 0 1 3-3h11.6a3 3 0 0 1 3 3v10.8a3 3 0 0 1-3 3H46.2a3 3 0 0 1-3-3z"/><path fill="#bda747" d="M23.6 108a3 3 0 0 1 3-3h11.6a3 3 0 0 1 3 3v10.8a3 3 0 0 1-3 3H26.6a3 3 0 0 1-3-3z"/><path fill="#bda747" d="M41.2 108.43c0-.91-.12-1.78-.34-2.43q-.35-.98-.84-1H24.78q-.49.02-.84 1a8 8 0 0 0-.34 2.43v3.77c0-.95.13-1.87.36-2.55s.55-1.05.88-1.05h15.12c.33 0 .65.38.88 1.05.23.68.36 1.6.36 2.55z"/><path fill="#bda747" stroke="#45413c" stroke-linecap="round" stroke-linejoin="round" d="M23.6 108a3 3 0 0 1 3-3h11.6a3 3 0 0 1 3 3v10.8a3 3 0 0 1-3 3H26.6a3 3 0 0 1-3-3z"/><path fill="#5a9c51" d="M82.4 108a3 3 0 0 1 3-3H97a3 3 0 0 1 3 3v10.8a3 3 0 0 1-3 3H85.4a3 3 0 0 1-3-3z"/><path fill="#5a9c51" d="M100 108.43c0-.91-.12-1.78-.34-2.43q-.35-.98-.84-1H83.58q-.49.02-.84 1a8 8 0 0 0-.34 2.43v3.77c0-.95.13-1.87.36-2.55s.55-1.05.88-1.05h15.12c.33 0 .65.38.88 1.05.23.68.36 1.6.36 2.55z"/><path fill="#5a9c51" stroke="#45413c" stroke-linecap="round" stroke-linejoin="round" d="M82.4 108a3 3 0 0 1 3-3H97a3 3 0 0 1 3 3v10.8a3 3 0 0 1-3 3H85.4a3 3 0 0 1-3-3z"/><path fill="#65696b" d="M62.8 108a3 3 0 0 1 3-3h11.6a3 3 0 0 1 3 3v10.8a3 3 0 0 1-3 3H65.8a3 3 0 0 1-3-3z"/><path fill="#65696b" d="M80.4 108.43c0-.91-.12-1.78-.34-2.43q-.35-.98-.84-1H63.98q-.49.02-.84 1a8 8 0 0 0-.34 2.43v3.77c0-.95.13-1.87.36-2.55s.55-1.05.88-1.05h15.12c.33 0 .65.38.88 1.05.23.68.36 1.6.36 2.55z"/><path fill="#65696b" stroke="#45413c" stroke-linecap="round" stroke-linejoin="round" d="M62.8 108a3 3 0 0 1 3-3h11.6a3 3 0 0 1 3 3v10.8a3 3 0 0 1-3 3H65.8a3 3 0 0 1-3-3z"/><path fill="#5a9c51" d="M4 127a3 3 0 0 1 3-3h11.6a3 3 0 0 1 3 3v10.8a3 3 0 0 1-3 3H7a3 3 0 0 1-3-3z"/><path fill="#5a9c51" d="M21.6 127.43c0-.91-.12-1.78-.34-2.43q-.35-.98-.84-1H5.18q-.49.02-.84 1a8 8 0 0 0-.34 2.43v3.77c0-.95.13-1.87.36-2.55s.55-1.05.88-1.05h15.12c.33 0 .65.38.88 1.05.23.68.36 1.6.36 2.55z"/><path fill="#5a9c51" stroke="#45413c" stroke-linecap="round" stroke-linejoin="round" d="M4 127a3 3 0 0 1 3-3h11.6a3 3 0 0 1 3 3v10.8a3 3 0 0 1-3 3H7a3 3 0 0 1-3-3z"/><path fill="#65696b" d="M43.2 127a3 3 0 0 1 3-3h11.6a3 3 0 0 1 3 3v10.8a3 3 0 0 1-3 3H46.2a3 3 0 0 1-3-3z"/><path fill="#65696b" d="M60.8 127.43c0-.91-.12-1.78-.34-2.43q-.35-.98-.84-1H44.38q-.49.02-.84 1a8 8 0 0 0-.34 2.43v3.77c0-.95.13-1.87.36-2.55s.55-1.05.88-1.05h15.12c.33 0 .65.38.88 1.05.23.68.36 1.6.36 2.55z"/><path fill="#65696b" stroke="#45413c" stroke-linecap="round" stroke-linejoin="round" d="M43.2 127a3 3 0 0 1 3-3h11.6a3 3 0 0 1 3 3v10.8a3 3 0 0 1-3 3H46.2a3 3 0 0 1-3-3z"/><path fill="#bda747" d="M23.6 127a3 3 0 0 1 3-3h11.6a3 3 0 0 1 3 3v10.8a3 3 0 0 1-3 3H26.6a3 3 0 0 1-3-3z"/><path fill="#bda747" d="M41.2 127.43c0-.91-.12-1.78-.34-2.43q-.35-.98-.84-1H24.78q-.49.02-.84 1a8 8 0 0 0-.34 2.43v3.77c0-.95.13-1.87.36-2.55s.55-1.05.88-1.05h15.12c.33 0 .65.38.88 1.05.23.68.36 1.6.36 2.55z"/><path fill="#bda747" stroke="#45413c" stroke-linecap="round" stroke-linejoin="round" d="M23.6 127a3 3 0 0 1 3-3h11.6a3 3 0 0 1 3 3v10.8a3 3 0 0 1-3 3H26.6a3 3 0 0 1-3-3z"/><path fill="#65696b" d="M82.4 127a3 3 0 0 1 3-3H97a3 3 0 0 1 3 3v10.8a3 3 0 0 1-3 3H85.4a3 3 0 0 1-3-3z"/><path fill="#65696b" d="M100 127.43c0-.91-.12-1.78-.34-2.43q-.35-.98-.84-1H83.58q-.49.02-.84 1a8 8 0 0 0-.34 2.43v3.77c0-.95.13-1.87.36-2.55s.55-1.05.88-1.05h15.12c.33 0 .65.38.88 1.05.23.68.36 1.6.36 2.55z"/><path fill="#bda747" stroke="#45413c" stroke-linecap="round" stroke-linejoin="round" d="M82.4 127a3 3 0 0 1 3-3H97a3 3 0 0 1 3 3v10.8a3 3 0 0 1-3 3H85.4a3 3 0 0 1-3-3z"/><path fill="#bda747" d="M62.8 127a3 3 0 0 1 3-3h11.6a3 3 0 0 1 3 3v10.8a3 3 0 0 1-3 3H65.8a3 3 0 0 1-3-3z"/><path fill="#bda747" d="M80.4 127.43c0-.91-.12-1.78-.34-2.43q-.35-.98-.84-1H63.98q-.49.02-.84 1a8 8 0 0 0-.34 2.43v3.77c0-.95.13-1.87.36-2.55s.55-1.05.88-1.05h15.12c.33 0 .65.38.88 1.05.23.68.36 1.6.36 2.55z"/><path fill="#bda747" stroke="#45413c" stroke-linecap="round" stroke-linejoin="round" d="M62.8 127a3 3 0 0 1 3-3h11.6a3 3 0 0 1 3 3v10.8a3 3 0 0 1-3 3H65.8a3 3 0 0 1-3-3z"/><path fill="#bda747" d="M4 146a3 3 0 0 1 3-3h11.6a3 3 0 0 1 3 3v10.8a3 3 0 0 1-3 3H7a3 3 0 0 1-3-3z"/><path fill="#bda747" d="M21.6 146.43c0-.91-.12-1.78-.34-2.43-.23-.64-.52-1-.84-1H5.18c-.32 0-.61.36-.84 1a8 8 0 0 0-.34 2.43v3.77c0-.95.13-1.87.36-2.55s.55-1.05.88-1.05h15.12c.33 0 .65.38.88 1.05.23.68.36 1.6.36 2.55z"/><path fill="#bda747" stroke="#45413c" stroke-linecap="round" stroke-linejoin="round" d="M4 146a3 3 0 0 1 3-3h11.6a3 3 0 0 1 3 3v10.8a3 3 0 0 1-3 3H7a3 3 0 0 1-3-3z"/><path fill="#bda747" d="M43.2 146a3 3 0 0 1 3-3h11.6a3 3 0 0 1 3 3v10.8a3 3 0 0 1-3 3H46.2a3 3 0 0 1-3-3z"/><path fill="#bda747" d="M60.8 146.43c0-.91-.12-1.78-.34-2.43-.23-.64-.52-1-.84-1H44.38c-.32 0-.61.36-.84 1a8 8 0 0 0-.34 2.43v3.77c0-.95.13-1.87.36-2.55s.55-1.05.88-1.05h15.12c.33 0 .65.38.88 1.05.23.68.36 1.6.36 2.55z"/><path fill="#bda747" stroke="#45413c" stroke-linecap="round" stroke-linejoin="round" d="M43.2 146a3 3 0 0 1 3-3h11.6a3 3 0 0 1 3 3v10.8a3 3 0 0 1-3 3H46.2a3 3 0 0 1-3-3z"/><path fill="#bda747" d="M23.6 146a3 3 0 0 1 3-3h11.6a3 3 0 0 1 3 3v10.8a3 3 0 0 1-3 3H26.6a3 3 0 0 1-3-3z"/><path fill="#bda747" d="M41.2 146.43c0-.91-.12-1.78-.34-2.43-.23-.64-.52-1-.84-1H24.78c-.32 0-.61.36-.84 1a8 8 0 0 0-.34 2.43v3.77c0-.95.13-1.87.36-2.55s.55-1.05.88-1.05h15.12c.33 0 .65.38.88 1.05.23.68.36 1.6.36 2.55z"/><path fill="#bda747" stroke="#45413c" stroke-linecap="round" stroke-linejoin="round" d="M23.6 146a3 3 0 0 1 3-3h11.6a3 3 0 0 1 3 3v10.8a3 3 0 0 1-3 3H26.6a3 3 0 0 1-3-3z"/><path fill="#65696b" d="M82.4 146a3 3 0 0 1 3-3H97a3 3 0 0 1 3 3v10.8a3 3 0 0 1-3 3H85.4a3 3 0 0 1-3-3z"/><path fill="#65696b" d="M100 146.43c0-.91-.12-1.78-.34-2.43-.23-.64-.52-1-.84-1H83.58c-.32 0-.61.36-.84 1a8 8 0 0 0-.34 2.43v3.77c0-.95.13-1.87.36-2.55s.55-1.05.88-1.05h15.12c.33 0 .65.38.88 1.05.23.68.36 1.6.36 2.55z"/><path fill="#65696b" stroke="#45413c" stroke-linecap="round" stroke-linejoin="round" d="M82.4 146a3 3 0 0 1 3-3H97a3 3 0 0 1 3 3v10.8a3 3 0 0 1-3 3H85.4a3 3 0 0 1-3-3z"/><path fill="#bda747" d="M62.8 146a3 3 0 0 1 3-3h11.6a3 3 0 0 1 3 3v10.8a3 3 0 0 1-3 3H65.8a3 3 0 0 1-3-3z"/><path fill="#bda747" d="M80.4 146.43c0-.91-.12-1.78-.34-2.43-.23-.64-.52-1-.84-1H63.98c-.32 0-.61.36-.84 1a8 8 0 0 0-.34 2.43v3.77c0-.95.13-1.87.36-2.55s.55-1.05.88-1.05h15.12c.33 0 .65.38.88 1.05.23.68.36 1.6.36 2.55z"/><path fill="#bda747" stroke="#45413c" stroke-linecap="round" stroke-linejoin="round" d="M62.8 146a3 3 0 0 1 3-3h11.6a3 3 0 0 1 3 3v10.8a3 3 0 0 1-3 3H65.8a3 3 0 0 1-3-3z"/><path fill="#5a9c51" d="M4 165a3 3 0 0 1 3-3h11.6a3 3 0 0 1 3 3v10.8a3 3 0 0 1-3 3H7a3 3 0 0 1-3-3z"/><path fill="#5a9c51" d="M21.6 165.43c0-.91-.12-1.78-.34-2.43-.23-.64-.52-1-.84-1H5.18c-.32 0-.61.36-.84 1a8 8 0 0 0-.34 2.43v3.77c0-.95.13-1.87.36-2.55s.55-1.05.88-1.05h15.12c.33 0 .65.38.88 1.05.23.68.36 1.6.36 2.55z"/><path fill="#5a9c51" stroke="#45413c" stroke-linecap="round" stroke-linejoin="round" d="M4 165a3 3 0 0 1 3-3h11.6a3 3 0 0 1 3 3v10.8a3 3 0 0 1-3 3H7a3 3 0 0 1-3-3z"/><path fill="#bda747" d="M43.2 165a3 3 0 0 1 3-3h11.6a3 3 0 0 1 3 3v10.8a3 3 0 0 1-3 3H46.2a3 3 0 0 1-3-3z"/><path fill="#bda747" d="M60.8 165.43c0-.91-.12-1.78-.34-2.43-.23-.64-.52-1-.84-1H44.38c-.32 0-.61.36-.84 1a8 8 0 0 0-.34 2.43v3.77c0-.95.13-1.87.36-2.55s.55-1.05.88-1.05h15.12c.33 0 .65.38.88 1.05.23.68.36 1.6.36 2.55z"/><path fill="#bda747" stroke="#45413c" stroke-linecap="round" stroke-linejoin="round" d="M43.2 165a3 3 0 0 1 3-3h11.6a3 3 0 0 1 3 3v10.8a3 3 0 0 1-3 3H46.2a3 3 0 0 1-3-3z"/><path fill="#5a9c51" d="M23.6 165a3 3 0 0 1 3-3h11.6a3 3 0 0 1 3 3v10.8a3 3 0 0 1-3 3H26.6a3 3 0 0 1-3-3z"/><path fill="#5a9c51" d="M41.2 165.43c0-.91-.12-1.78-.34-2.43-.23-.64-.52-1-.84-1H24.78c-.32 0-.61.36-.84 1a8 8 0 0 0-.34 2.43v3.77c0-.95.13-1.87.36-2.55s.55-1.05.88-1.05h15.12c.33 0 .65.38.88 1.05.23.68.36 1.6.36 2.55z"/><path fill="#5a9c51" stroke="#45413c" stroke-linecap="round" stroke-linejoin="round" d="M23.6 165a3 3 0 0 1 3-3h11.6a3 3 0 0 1 3 3v10.8a3 3 0 0 1-3 3H26.6a3 3 0 0 1-3-3z"/><path fill="#65696b" d="M82.4 165a3 3 0 0 1 3-3H97a3 3 0 0 1 3 3v10.8a3 3 0 0 1-3 3H85.4a3 3 0 0 1-3-3z"/><path fill="#65696b" d="M100 165.43c0-.91-.12-1.78-.34-2.43-.23-.64-.52-1-.84-1H83.58c-.32 0-.61.36-.84 1a8 8 0 0 0-.34 2.43v3.77c0-.95.13-1.87.36-2.55s.55-1.05.88-1.05h15.12c.33 0 .65.38.88 1.05.23.68.36 1.6.36 2.55z"/><path fill="#65696b" stroke="#45413c" stroke-linecap="round" stroke-linejoin="round" d="M82.4 165a3 3 0 0 1 3-3H97a3 3 0 0 1 3 3v10.8a3 3 0 0 1-3 3H85.4a3 3 0 0 1-3-3z"/><path fill="#bda747" d="M62.8 165a3 3 0 0 1 3-3h11.6a3 3 0 0 1 3 3v10.8a3 3 0 0 1-3 3H65.8a3 3 0 0 1-3-3z"/><path fill="#bda747" d="M80.4 165.43c0-.91-.12-1.78-.34-2.43-.23-.64-.52-1-.84-1H63.98c-.32 0-.61.36-.84 1a8 8 0 0 0-.34 2.43v3.77c0-.95.13-1.87.36-2.55s.55-1.05.88-1.05h15.12c.33 0 .65.38.88 1.05.23.68.36 1.6.36 2.55z"/><path fill="#bda747" stroke="#45413c" stroke-linecap="round" stroke-linejoin="round" d="M62.8 165a3 3 0 0 1 3-3h11.6a3 3 0 0 1 3 3v10.8a3 3 0 0 1-3 3H65.8a3 3 0 0 1-3-3z"/><path fill="#5a9c51" d="M4 184a3 3 0 0 1 3-3h11.6a3 3 0 0 1 3 3v10.8a3 3 0 0 1-3 3H7a3 3 0 0 1-3-3z"/><path fill="#5a9c51" d="M21.6 184.43c0-.91-.12-1.78-.34-2.43-.23-.64-.52-1-.84-1H5.18c-.32 0-.61.36-.84 1a8 8 0 0 0-.34 2.43v3.77c0-.95.13-1.87.36-2.55s.55-1.05.88-1.05h15.12c.33 0 .65.38.88 1.05.23.68.36 1.6.36 2.55z"/><path fill="#5a9c51" stroke="#45413c" stroke-linecap="round" stroke-linejoin="round" d="M4 184a3 3 0 0 1 3-3h11.6a3 3 0 0 1 3 3v10.8a3 3 0 0 1-3 3H7a3 3 0 0 1-3-3z"/><path fill="#5a9c51" d="M43.2 184a3 3 0 0 1 3-3h11.6a3 3 0 0 1 3 3v10.8a3 3 0 0 1-3 3H46.2a3 3 0 0 1-3-3z"/><path fill="#5a9c51" d="M60.8 184.43c0-.91-.12-1.78-.34-2.43-.23-.64-.52-1-.84-1H44.38c-.32 0-.61.36-.84 1a8 8 0 0 0-.34 2.43v3.77c0-.95.13-1.87.36-2.55s.55-1.05.88-1.05h15.12c.33 0 .65.38.88 1.05.23.68.36 1.6.36 2.55z"/><path stroke="#45413c" stroke-linecap="round" stroke-linejoin="round" d="M43.2 184a3 3 0 0 1 3-3h11.6a3 3 0 0 1 3 3v10.8a3 3 0 0 1-3 3H46.2a3 3 0 0 1-3-3z"/><path fill="#5a9c51" d="M23.6 184a3 3 0 0 1 3-3h11.6a3 3 0 0 1 3 3v10.8a3 3 0 0 1-3 3H26.6a3 3 0 0 1-3-3z"/><path fill="#5a9c51" d="M41.2 184.43c0-.91-.12-1.78-.34-2.43-.23-.64-.52-1-.84-1H24.78c-.32 0-.61.36-.84 1a8 8 0 0 0-.34 2.43v3.77c0-.95.13-1.87.36-2.55s.55-1.05.88-1.05h15.12c.33 0 .65.38.88 1.05.23.68.36 1.6.36 2.55z"/><path fill="#5a9c51" stroke="#45413c" stroke-linecap="round" stroke-linejoin="round" d="M23.6 184a3 3 0 0 1 3-3h11.6a3 3 0 0 1 3 3v10.8a3 3 0 0 1-3 3H26.6a3 3 0 0 1-3-3z"/><path fill="#5a9c51" d="M82.4 184a3 3 0 0 1 3-3H97a3 3 0 0 1 3 3v10.8a3 3 0 0 1-3 3H85.4a3 3 0 0 1-3-3z"/><path fill="#5a9c51" d="M100 184.43c0-.91-.12-1.78-.34-2.43-.23-.64-.52-1-.84-1H83.58c-.32 0-.61.36-.84 1a8 8 0 0 0-.34 2.43v3.77c0-.95.13-1.87.36-2.55s.55-1.05.88-1.05h15.12c.33 0 .65.38.88 1.05.23.68.36 1.6.36 2.55z"/><path stroke="#45413c" stroke-linecap="round" stroke-linejoin="round" d="M82.4 184a3 3 0 0 1 3-3H97a3 3 0 0 1 3 3v10.8a3 3 0 0 1-3 3H85.4a3 3 0 0 1-3-3z"/><path fill="#5a9c51" d="M62.8 184a3 3 0 0 1 3-3h11.6a3 3 0 0 1 3 3v10.8a3 3 0 0 1-3 3H65.8a3 3 0 0 1-3-3z"/><path fill="#5a9c51" d="M80.4 184.43c0-.91-.12-1.78-.34-2.43-.23-.64-.52-1-.84-1H63.98c-.32 0-.61.36-.84 1a8 8 0 0 0-.34 2.43v3.77c0-.95.13-1.87.36-2.55s.55-1.05.88-1.05h15.12c.33 0 .65.38.88 1.05.23.68.36 1.6.36 2.55z"/><path stroke="#45413c" stroke-linecap="round" stroke-linejoin="round" d="M62.8 184a3 3 0 0 1 3-3h11.6a3 3 0 0 1 3 3v10.8a3 3 0 0 1-3 3H65.8a3 3 0 0 1-3-3z"/><path fill="#fff" d="M10.24 194v-8.73h2.11v7.02h3.63V194zM94.71 185.27V194h-1.79l-3.47-5.04h-.06V194h-2.1v-8.73h1.8l3.44 5.03h.08v-5.03zM68.69 194v-8.73h3.6q.98 0 1.7.36.7.34 1.1 1 .39.65.39 1.55t-.4 1.54q-.4.63-1.13.97-.73.32-1.72.32h-2.28v-1.66h1.89q.48 0 .8-.12a1 1 0 0 0 .48-.39q.17-.26.17-.66t-.17-.67a1 1 0 0 0-.49-.4 2 2 0 0 0-.8-.14H70.8V194zm4.91-3.99 2.17 3.99h-2.3l-2.13-3.99zM49.92 194h-2.27l2.95-8.73h2.8l2.95 8.73h-2.27l-2.05-6.53h-.07zm-.3-3.44h4.74v1.6h-4.74zM28.96 194v-8.73h6.08V187h-3.97v1.79h3.66v1.71h-3.66v1.8h3.97V194zM10.24 175v-8.73h2.11v7.02h3.63V175zM87.31 167.99v-1.72h7.38V168h-2.65V175h-2.08v-7.01zM75.71 166.27V175h-1.79l-3.47-5.04h-.06V175h-2.1v-8.73h1.8l3.44 5.03h.08v-5.03zM48.69 175v-8.73h3.6q.98 0 1.7.36.7.34 1.1 1 .39.65.39 1.55t-.4 1.54q-.4.63-1.13.97-.73.32-1.72.32h-2.28v-1.66h1.89q.47 0 .8-.12a1 1 0 0 0 .48-.39q.17-.26.17-.66t-.17-.67a1 1 0 0 0-.49-.4 2 2 0 0 0-.8-.14H50.8V175zm4.91-3.99 2.17 3.99h-2.3l-2.13-3.99zM28.96 175v-8.73h6.08V168h-3.97v1.79h3.66v1.71h-3.66v1.8h3.97V175zM9.96 156v-8.73h6.08V149h-3.97v1.79h3.66v1.71h-3.66v1.8h3.97V156zM86.76 147.27h2.36l1.84 3.66h.08l1.84-3.66h2.36l-3.2 5.81V156h-2.09v-2.91zM69.24 156v-8.73h2.11v7.02h3.63V156zM48.69 156v-8.73h3.6q.98 0 1.7.36.7.34 1.1 1 .39.65.39 1.55t-.4 1.54q-.4.63-1.13.97-.73.32-1.72.32h-2.28v-1.66h1.89q.47 0 .8-.12a1 1 0 0 0 .48-.39q.17-.26.17-.66t-.17-.67a1 1 0 0 0-.49-.4 2 2 0 0 0-.8-.14H50.8V156zm4.91-3.99 2.17 3.99h-2.3l-2.13-3.99zM29.92 156h-2.27l2.95-8.73h2.8l2.95 8.73h-2.27l-2.05-6.53h-.07zm-.3-3.44h4.74v1.6h-4.74zM10.24 137v-8.73h2.11v7.02h3.63V137zM87.69 137v-8.73h3.6q.98 0 1.7.36.7.34 1.1 1 .39.65.39 1.55t-.4 1.54q-.4.63-1.13.97-.73.32-1.72.32h-2.28v-1.66h1.89q.47 0 .8-.12a1 1 0 0 0 .48-.39q.17-.26.17-.66t-.17-.67a1 1 0 0 0-.49-.4 2 2 0 0 0-.8-.14H89.8V137zm4.91-3.99 2.17 3.99h-2.3l-2.13-3.99zM68.96 137v-8.73h6.08V130h-3.97v1.79h3.66v1.71h-3.66v1.8h3.97V137zM48.31 129.99v-1.72h7.38V130h-2.65V137h-2.07v-7.01zM29.92 137h-2.27l2.95-8.73h2.8l2.95 8.73h-2.27l-2.05-6.53h-.07zm-.3-3.44h4.74v1.6h-4.74zM9.31 110.99v-1.72h7.38V111h-2.65V118h-2.07v-7.01zM94.71 109.27V118h-1.79l-3.47-5.04h-.06V118h-2.1v-8.73h1.8l3.44 5.03h.08v-5.03zM73.05 109.27V118h-2.1v-8.73zM49.92 118h-2.27l2.95-8.73h2.8l2.95 8.73h-2.27l-2.05-6.53h-.07zm-.3-3.44h4.74v1.6h-4.74zM28.69 118v-8.73h3.6q.98 0 1.7.36.7.34 1.1 1 .39.66.39 1.55 0 .9-.4 1.54-.4.63-1.13.97-.73.32-1.72.32h-2.28v-1.66h1.89q.47 0 .8-.12a1 1 0 0 0 .48-.39q.17-.26.17-.66t-.17-.67a1 1 0 0 0-.49-.4q-.32-.14-.8-.14H30.8V118zm4.91-3.99 2.17 3.99h-2.3l-2.13-3.99z"/><path fill="#65696b" d="M110 108a3 3 0 0 1 3-3h11.6a3 3 0 0 1 3 3v10.8a3 3 0 0 1-3 3H113a3 3 0 0 1-3-3z"/><path fill="#65696b" d="M127.6 108.43c0-.91-.12-1.78-.34-2.43q-.35-.98-.84-1h-15.24q-.5.02-.84 1a8 8 0 0 0-.34 2.43v3.77c0-.95.13-1.87.36-2.55s.55-1.05.88-1.05h15.13c.32 0 .64.38.87 1.05.23.68.36 1.6.36 2.55z"/><path fill="#65696b" stroke="#45413c" stroke-linecap="round" stroke-linejoin="round" d="M110 108a3 3 0 0 1 3-3h11.6a3 3 0 0 1 3 3v10.8a3 3 0 0 1-3 3H113a3 3 0 0 1-3-3z"/><path fill="#5a9c51" d="M149.2 108a3 3 0 0 1 3-3h11.6a3 3 0 0 1 3 3v10.8a3 3 0 0 1-3 3h-11.6a3 3 0 0 1-3-3z"/><path fill="#5a9c51" d="M166.8 108.43c0-.91-.12-1.78-.34-2.43q-.34-.98-.84-1h-15.24q-.5.02-.84 1a8 8 0 0 0-.34 2.43v3.77c0-.95.13-1.87.36-2.55s.55-1.05.88-1.05h15.13c.32 0 .64.38.87 1.05.23.68.36 1.6.36 2.55z"/><path fill="#5a9c51" stroke="#45413c" stroke-linecap="round" stroke-linejoin="round" d="M149.2 108a3 3 0 0 1 3-3h11.6a3 3 0 0 1 3 3v10.8a3 3 0 0 1-3 3h-11.6a3 3 0 0 1-3-3z"/><path fill="#bda747" d="M129.6 108a3 3 0 0 1 3-3h11.6a3 3 0 0 1 3 3v10.8a3 3 0 0 1-3 3h-11.6a3 3 0 0 1-3-3z"/><path fill="#bda747" d="M147.2 108.43c0-.91-.12-1.78-.34-2.43q-.35-.98-.84-1h-15.24q-.5.02-.84 1a8 8 0 0 0-.34 2.43v3.77c0-.95.13-1.87.36-2.55s.55-1.05.88-1.05h15.13c.32 0 .64.38.87 1.05.23.68.36 1.6.36 2.55z"/><path fill="#bda747" stroke="#45413c" stroke-linecap="round" stroke-linejoin="round" d="M129.6 108a3 3 0 0 1 3-3h11.6a3 3 0 0 1 3 3v10.8a3 3 0 0 1-3 3h-11.6a3 3 0 0 1-3-3z"/><path fill="#5a9c51" d="M188.4 108a3 3 0 0 1 3-3H203a3 3 0 0 1 3 3v10.8a3 3 0 0 1-3 3h-11.6a3 3 0 0 1-3-3z"/><path fill="#5a9c51" d="M206 108.43c0-.91-.12-1.78-.34-2.43q-.35-.98-.84-1h-15.24q-.5.02-.84 1a8 8 0 0 0-.34 2.43v3.77c0-.95.13-1.87.36-2.55s.55-1.05.88-1.05h15.13c.32 0 .64.38.87 1.05.23.68.36 1.6.36 2.55z"/><path fill="#5a9c51" stroke="#45413c" stroke-linecap="round" stroke-linejoin="round" d="M188.4 108a3 3 0 0 1 3-3H203a3 3 0 0 1 3 3v10.8a3 3 0 0 1-3 3h-11.6a3 3 0 0 1-3-3z"/><path fill="#65696b" d="M168.8 108a3 3 0 0 1 3-3h11.6a3 3 0 0 1 3 3v10.8a3 3 0 0 1-3 3h-11.6a3 3 0 0 1-3-3z"/><path fill="#65696b" d="M186.4 108.43a8 8 0 0 0-.34-2.43q-.35-.98-.84-1h-15.24q-.49.02-.84 1a8 8 0 0 0-.34 2.43v3.77c0-.95.13-1.87.36-2.55s.55-1.05.88-1.05h15.13c.32 0 .64.38.87 1.05.23.68.36 1.6.36 2.55z"/><path fill="#65696b" stroke="#45413c" stroke-linecap="round" stroke-linejoin="round" d="M168.8 108a3 3 0 0 1 3-3h11.6a3 3 0 0 1 3 3v10.8a3 3 0 0 1-3 3h-11.6a3 3 0 0 1-3-3z"/><path fill="#5a9c51" d="M110 127a3 3 0 0 1 3-3h11.6a3 3 0 0 1 3 3v10.8a3 3 0 0 1-3 3H113a3 3 0 0 1-3-3z"/><path fill="#5a9c51" d="M127.6 127.43c0-.91-.12-1.78-.34-2.43q-.35-.98-.84-1h-15.24q-.5.02-.84 1a8 8 0 0 0-.34 2.43v3.77c0-.95.13-1.87.36-2.55s.55-1.05.88-1.05h15.13c.32 0 .64.38.87 1.05.23.68.36 1.6.36 2.55z"/><path fill="#5a9c51" stroke="#45413c" stroke-linecap="round" stroke-linejoin="round" d="M110 127a3 3 0 0 1 3-3h11.6a3 3 0 0 1 3 3v10.8a3 3 0 0 1-3 3H113a3 3 0 0 1-3-3z"/><path fill="#65696b" d="M149.2 127a3 3 0 0 1 3-3h11.6a3 3 0 0 1 3 3v10.8a3 3 0 0 1-3 3h-11.6a3 3 0 0 1-3-3z"/><path fill="#65696b" d="M166.8 127.43c0-.91-.12-1.78-.34-2.43q-.34-.98-.84-1h-15.24q-.5.02-.84 1a8 8 0 0 0-.34 2.43v3.77c0-.95.13-1.87.36-2.55s.55-1.05.88-1.05h15.13c.32 0 .64.38.87 1.05.23.68.36 1.6.36 2.55z"/><path fill="#65696b" stroke="#45413c" stroke-linecap="round" stroke-linejoin="round" d="M149.2 127a3 3 0 0 1 3-3h11.6a3 3 0 0 1 3 3v10.8a3 3 0 0 1-3 3h-11.6a3 3 0 0 1-3-3z"/><path fill="#bda747" d="M129.6 127a3 3 0 0 1 3-3h11.6a3 3 0 0 1 3 3v10.8a3 3 0 0 1-3 3h-11.6a3 3 0 0 1-3-3z"/><path fill="#bda747" d="M147.2 127.43c0-.91-.12-1.78-.34-2.43q-.35-.98-.84-1h-15.24q-.5.02-.84 1a8 8 0 0 0-.34 2.43v3.77c0-.95.13-1.87.36-2.55s.55-1.05.88-1.05h15.13c.32 0 .64.38.87 1.05.23.68.36 1.6.36 2.55z"/><path fill="#bda747" stroke="#45413c" stroke-linecap="round" stroke-linejoin="round" d="M129.6 127a3 3 0 0 1 3-3h11.6a3 3 0 0 1 3 3v10.8a3 3 0 0 1-3 3h-11.6a3 3 0 0 1-3-3z"/><path fill="#65696b" d="M188.4 127a3 3 0 0 1 3-3H203a3 3 0 0 1 3 3v10.8a3 3 0 0 1-3 3h-11.6a3 3 0 0 1-3-3z"/><path fill="#65696b" d="M206 127.43c0-.91-.12-1.78-.34-2.43q-.35-.98-.84-1h-15.24q-.5.02-.84 1a8 8 0 0 0-.34 2.43v3.77c0-.95.13-1.87.36-2.55s.55-1.05.88-1.05h15.13c.32 0 .64.38.87 1.05.23.68.36 1.6.36 2.55z"/><path fill="#bda747" stroke="#45413c" stroke-linecap="round" stroke-linejoin="round" d="M188.4 127a3 3 0 0 1 3-3H203a3 3 0 0 1 3 3v10.8a3 3 0 0 1-3 3h-11.6a3 3 0 0 1-3-3z"/><path fill="#bda747" d="M168.8 127a3 3 0 0 1 3-3h11.6a3 3 0 0 1 3 3v10.8a3 3 0 0 1-3 3h-11.6a3 3 0 0 1-3-3z"/><path fill="#bda747" d="M186.4 127.43a8 8 0 0 0-.34-2.43q-.35-.98-.84-1h-15.24q-.49.02-.84 1a8 8 0 0 0-.34 2.43v3.77c0-.95.13-1.87.36-2.55s.55-1.05.88-1.05h15.13c.32 0 .64.38.87 1.05.23.68.36 1.6.36 2.55z"/><path fill="#bda747" stroke="#45413c" stroke-linecap="round" stroke-linejoin="round" d="M168.8 127a3 3 0 0 1 3-3h11.6a3 3 0 0 1 3 3v10.8a3 3 0 0 1-3 3h-11.6a3 3 0 0 1-3-3z"/><path fill="#bda747" d="M110 146a3 3 0 0 1 3-3h11.6a3 3 0 0 1 3 3v10.8a3 3 0 0 1-3 3H113a3 3 0 0 1-3-3z"/><path fill="#bda747" d="M127.6 146.43c0-.91-.12-1.78-.34-2.43-.23-.64-.52-1-.84-1h-15.24c-.32 0-.62.36-.84 1a8 8 0 0 0-.34 2.43v3.77c0-.95.13-1.87.36-2.55s.55-1.05.88-1.05h15.13c.32 0 .64.38.87 1.05.23.68.36 1.6.36 2.55z"/><path fill="#bda747" stroke="#45413c" stroke-linecap="round" stroke-linejoin="round" d="M110 146a3 3 0 0 1 3-3h11.6a3 3 0 0 1 3 3v10.8a3 3 0 0 1-3 3H113a3 3 0 0 1-3-3z"/><path fill="#bda747" d="M149.2 146a3 3 0 0 1 3-3h11.6a3 3 0 0 1 3 3v10.8a3 3 0 0 1-3 3h-11.6a3 3 0 0 1-3-3z"/><path fill="#bda747" d="M166.8 146.43c0-.91-.12-1.78-.34-2.43-.22-.64-.52-1-.84-1h-15.24c-.32 0-.62.36-.84 1a8 8 0 0 0-.34 2.43v3.77c0-.95.13-1.87.36-2.55s.55-1.05.88-1.05h15.13c.32 0 .64.38.87 1.05.23.68.36 1.6.36 2.55z"/><path fill="#bda747" stroke="#45413c" stroke-linecap="round" stroke-linejoin="round" d="M149.2 146a3 3 0 0 1 3-3h11.6a3 3 0 0 1 3 3v10.8a3 3 0 0 1-3 3h-11.6a3 3 0 0 1-3-3z"/><path fill="#bda747" d="M129.6 146a3 3 0 0 1 3-3h11.6a3 3 0 0 1 3 3v10.8a3 3 0 0 1-3 3h-11.6a3 3 0 0 1-3-3z"/><path fill="#bda747" d="M147.2 146.43c0-.91-.12-1.78-.34-2.43-.23-.64-.52-1-.84-1h-15.24c-.32 0-.62.36-.84 1a8 8 0 0 0-.34 2.43v3.77c0-.95.13-1.87.36-2.55s.55-1.05.88-1.05h15.13c.32 0 .64.38.87 1.05.23.68.36 1.6.36 2.55z"/><path fill="#bda747" stroke="#45413c" stroke-linecap="round" stroke-linejoin="round" d="M129.6 146a3 3 0 0 1 3-3h11.6a3 3 0 0 1 3 3v10.8a3 3 0 0 1-3 3h-11.6a3 3 0 0 1-3-3z"/><path fill="#65696b" d="M188.4 146a3 3 0 0 1 3-3H203a3 3 0 0 1 3 3v10.8a3 3 0 0 1-3 3h-11.6a3 3 0 0 1-3-3z"/><path fill="#65696b" d="M206 146.43c0-.91-.12-1.78-.34-2.43-.22-.64-.52-1-.84-1h-15.24c-.32 0-.62.36-.84 1a8 8 0 0 0-.34 2.43v3.77c0-.95.13-1.87.36-2.55s.55-1.05.88-1.05h15.13c.32 0 .64.38.87 1.05.23.68.36 1.6.36 2.55z"/><path fill="#65696b" stroke="#45413c" stroke-linecap="round" stroke-linejoin="round" d="M188.4 146a3 3 0 0 1 3-3H203a3 3 0 0 1 3 3v10.8a3 3 0 0 1-3 3h-11.6a3 3 0 0 1-3-3z"/><path fill="#bda747" d="M168.8 146a3 3 0 0 1 3-3h11.6a3 3 0 0 1 3 3v10.8a3 3 0 0 1-3 3h-11.6a3 3 0 0 1-3-3z"/><path fill="#bda747" d="M186.4 146.43a8 8 0 0 0-.34-2.43c-.22-.64-.52-1-.84-1h-15.24c-.32 0-.61.36-.84 1a8 8 0 0 0-.34 2.43v3.77c0-.95.13-1.87.36-2.55s.55-1.05.88-1.05h15.13c.32 0 .64.38.87 1.05.23.68.36 1.6.36 2.55z"/><path fill="#bda747" stroke="#45413c" stroke-linecap="round" stroke-linejoin="round" d="M168.8 146a3 3 0 0 1 3-3h11.6a3 3 0 0 1 3 3v10.8a3 3 0 0 1-3 3h-11.6a3 3 0 0 1-3-3z"/><path fill="#5a9c51" d="M110 165a3 3 0 0 1 3-3h11.6a3 3 0 0 1 3 3v10.8a3 3 0 0 1-3 3H113a3 3 0 0 1-3-3z"/><path fill="#5a9c51" d="M127.6 165.43c0-.91-.12-1.78-.34-2.43-.23-.64-.52-1-.84-1h-15.24c-.32 0-.62.36-.84 1a8 8 0 0 0-.34 2.43v3.77c0-.95.13-1.87.36-2.55s.55-1.05.88-1.05h15.13c.32 0 .64.38.87 1.05.23.68.36 1.6.36 2.55z"/><path fill="#5a9c51" stroke="#45413c" stroke-linecap="round" stroke-linejoin="round" d="M110 165a3 3 0 0 1 3-3h11.6a3 3 0 0 1 3 3v10.8a3 3 0 0 1-3 3H113a3 3 0 0 1-3-3z"/><path fill="#bda747" d="M149.2 165a3 3 0 0 1 3-3h11.6a3 3 0 0 1 3 3v10.8a3 3 0 0 1-3 3h-11.6a3 3 0 0 1-3-3z"/><path fill="#bda747" d="M166.8 165.43c0-.91-.12-1.78-.34-2.43-.22-.64-.52-1-.84-1h-15.24c-.32 0-.62.36-.84 1a8 8 0 0 0-.34 2.43v3.77c0-.95.13-1.87.36-2.55s.55-1.05.88-1.05h15.13c.32 0 .64.38.87 1.05.23.68.36 1.6.36 2.55z"/><path fill="#bda747" stroke="#45413c" stroke-linecap="round" stroke-linejoin="round" d="M149.2 165a3 3 0 0 1 3-3h11.6a3 3 0 0 1 3 3v10.8a3 3 0 0 1-3 3h-11.6a3 3 0 0 1-3-3z"/><path fill="#5a9c51" d="M129.6 165a3 3 0 0 1 3-3h11.6a3 3 0 0 1 3 3v10.8a3 3 0 0 1-3 3h-11.6a3 3 0 0 1-3-3z"/><path fill="#5a9c51" d="M147.2 165.43c0-.91-.12-1.78-.34-2.43-.23-.64-.52-1-.84-1h-15.24c-.32 0-.62.36-.84 1a8 8 0 0 0-.34 2.43v3.77c0-.95.13-1.87.36-2.55s.55-1.05.88-1.05h15.13c.32 0 .64.38.87 1.05.23.68.36 1.6.36 2.55z"/><path fill="#5a9c51" stroke="#45413c" stroke-linecap="round" stroke-linejoin="round" d="M129.6 165a3 3 0 0 1 3-3h11.6a3 3 0 0 1 3 3v10.8a3 3 0 0 1-3 3h-11.6a3 3 0 0 1-3-3z"/><path fill="#65696b" d="M188.4 165a3 3 0 0 1 3-3H203a3 3 0 0 1 3 3v10.8a3 3 0 0 1-3 3h-11.6a3 3 0 0 1-3-3z"/><path fill="#65696b" d="M206 165.43c0-.91-.12-1.78-.34-2.43-.22-.64-.52-1-.84-1h-15.24c-.32 0-.62.36-.84 1a8 8 0 0 0-.34 2.43v3.77c0-.95.13-1.87.36-2.55s.55-1.05.88-1.05h15.13c.32 0 .64.38.87 1.05.23.68.36 1.6.36 2.55z"/><path fill="#65696b" stroke="#45413c" stroke-linecap="round" stroke-linejoin="round" d="M188.4 165a3 3 0 0 1 3-3H203a3 3 0 0 1 3 3v10.8a3 3 0 0 1-3 3h-11.6a3 3 0 0 1-3-3z"/><path fill="#bda747" d="M168.8 165a3 3 0 0 1 3-3h11.6a3 3 0 0 1 3 3v10.8a3 3 0 0 1-3 3h-11.6a3 3 0 0 1-3-3z"/><path fill="#bda747" d="M186.4 165.43a8 8 0 0 0-.34-2.43c-.22-.64-.52-1-.84-1h-15.24c-.32 0-.61.36-.84 1a8 8 0 0 0-.34 2.43v3.77c0-.95.13-1.87.36-2.55s.55-1.05.88-1.05h15.13c.32 0 .64.38.87 1.05.23.68.36 1.6.36 2.55z"/><path fill="#bda747" stroke="#45413c" stroke-linecap="round" stroke-linejoin="round" d="M168.8 165a3 3 0 0 1 3-3h11.6a3 3 0 0 1 3 3v10.8a3 3 0 0 1-3 3h-11.6a3 3 0 0 1-3-3z"/><path fill="#5a9c51" d="M110 184a3 3 0 0 1 3-3h11.6a3 3 0 0 1 3 3v10.8a3 3 0 0 1-3 3H113a3 3 0 0 1-3-3z"/><path fill="#5a9c51" d="M127.6 184.43c0-.91-.12-1.78-.34-2.43-.23-.64-.52-1-.84-1h-15.24c-.32 0-.62.36-.84 1a8 8 0 0 0-.34 2.43v3.77c0-.95.13-1.87.36-2.55s.55-1.05.88-1.05h15.13c.32 0 .64.38.87 1.05.23.68.36 1.6.36 2.55z"/><path fill="#5a9c51" stroke="#45413c" stroke-linecap="round" stroke-linejoin="round" d="M110 184a3 3 0 0 1 3-3h11.6a3 3 0 0 1 3 3v10.8a3 3 0 0 1-3 3H113a3 3 0 0 1-3-3z"/><path fill="#5a9c51" d="M149.2 184a3 3 0 0 1 3-3h11.6a3 3 0 0 1 3 3v10.8a3 3 0 0 1-3 3h-11.6a3 3 0 0 1-3-3z"/><path fill="#5a9c51" d="M166.8 184.43c0-.91-.12-1.78-.34-2.43-.22-.64-.52-1-.84-1h-15.24c-.32 0-.62.36-.84 1a8 8 0 0 0-.34 2.43v3.77c0-.95.13-1.87.36-2.55s.55-1.05.88-1.05h15.13c.32 0 .64.38.87 1.05.23.68.36 1.6.36 2.55z"/><path stroke="#45413c" stroke-linecap="round" stroke-linejoin="round" d="M149.2 184a3 3 0 0 1 3-3h11.6a3 3 0 0 1 3 3v10.8a3 3 0 0 1-3 3h-11.6a3 3 0 0 1-3-3z"/><path fill="#5a9c51" d="M129.6 184a3 3 0 0 1 3-3h11.6a3 3 0 0 1 3 3v10.8a3 3 0 0 1-3 3h-11.6a3 3 0 0 1-3-3z"/><path fill="#5a9c51" d="M147.2 184.43c0-.91-.12-1.78-.34-2.43-.23-.64-.52-1-.84-1h-15.24c-.32 0-.62.36-.84 1a8 8 0 0 0-.34 2.43v3.77c0-.95.13-1.87.36-2.55s.55-1.05.88-1.05h15.13c.32 0 .64.38.87 1.05.23.68.36 1.6.36 2.55z"/><path fill="#5a9c51" stroke="#45413c" stroke-linecap="round" stroke-linejoin="round" d="M129.6 184a3 3 0 0 1 3-3h11.6a3 3 0 0 1 3 3v10.8a3 3 0 0 1-3 3h-11.6a3 3 0 0 1-3-3z"/><path fill="#5a9c51" d="M188.4 184a3 3 0 0 1 3-3H203a3 3 0 0 1 3 3v10.8a3 3 0 0 1-3 3h-11.6a3 3 0 0 1-3-3z"/><path fill="#5a9c51" d="M206 184.43c0-.91-.12-1.78-.34-2.43-.22-.64-.52-1-.84-1h-15.24c-.32 0-.62.36-.84 1a8 8 0 0 0-.34 2.43v3.77c0-.95.13-1.87.36-2.55s.55-1.05.88-1.05h15.13c.32 0 .64.38.87 1.05.23.68.36 1.6.36 2.55z"/><path stroke="#45413c" stroke-linecap="round" stroke-linejoin="round" d="M188.4 184a3 3 0 0 1 3-3H203a3 3 0 0 1 3 3v10.8a3 3 0 0 1-3 3h-11.6a3 3 0 0 1-3-3z"/><path fill="#5a9c51" d="M168.8 184a3 3 0 0 1 3-3h11.6a3 3 0 0 1 3 3v10.8a3 3 0 0 1-3 3h-11.6a3 3 0 0 1-3-3z"/><path fill="#5a9c51" d="M186.4 184.43a8 8 0 0 0-.34-2.43c-.22-.64-.52-1-.84-1h-15.24c-.32 0-.61.36-.84 1a8 8 0 0 0-.34 2.43v3.77c0-.95.13-1.87.36-2.55s.55-1.05.88-1.05h15.13c.32 0 .64.38.87 1.05.23.68.36 1.6.36 2.55z"/><path stroke="#45413c" stroke-linecap="round" stroke-linejoin="round" d="M168.8 184a3 3 0 0 1 3-3h11.6a3 3 0 0 1 3 3v10.8a3 3 0 0 1-3 3h-11.6a3 3 0 0 1-3-3z"/><path fill="#fff" d="M116.25 194v-8.73h2.1v7.02H122V194zM200.71 185.27V194h-1.79l-3.47-5.04h-.06V194h-2.1v-8.73h1.8l3.44 5.03h.08v-5.03zM174.69 194v-8.73h3.6q.99 0 1.7.36.7.34 1.1 1 .39.65.39 1.55t-.4 1.54q-.4.63-1.12.97-.75.32-1.73.32h-2.28v-1.66h1.89q.47 0 .8-.12a1 1 0 0 0 .48-.39q.17-.26.17-.66t-.17-.67a1 1 0 0 0-.49-.4 2 2 0 0 0-.8-.14h-1.03V194zm4.91-3.99 2.17 3.99h-2.3l-2.13-3.99zM155.92 194h-2.27l2.95-8.73h2.8l2.95 8.73h-2.27l-2.05-6.53h-.06zm-.3-3.44h4.74v1.6h-4.74zM134.96 194v-8.73h6.08V187h-3.97v1.79h3.66v1.71h-3.66v1.8h3.97V194zM116.25 175v-8.73h2.1v7.02H122V175zM193.32 167.99v-1.72h7.37V168h-2.65V175h-2.07v-7.01zM181.71 166.27V175h-1.79l-3.47-5.04h-.06V175h-2.1v-8.73h1.8l3.44 5.03h.08v-5.03zM154.69 175v-8.73h3.6q.99 0 1.7.36.7.34 1.1 1 .39.65.39 1.55t-.4 1.54q-.4.63-1.12.97-.75.32-1.73.32h-2.28v-1.66h1.89q.47 0 .8-.12a1 1 0 0 0 .48-.39q.17-.26.17-.66t-.17-.67a1 1 0 0 0-.49-.4 2 2 0 0 0-.8-.14h-1.03V175zm4.91-3.99 2.17 3.99h-2.3l-2.13-3.99zM134.96 175v-8.73h6.08V168h-3.97v1.79h3.66v1.71h-3.66v1.8h3.97V175zM115.96 156v-8.73h6.08V149h-3.97v1.79h3.66v1.71h-3.66v1.8h3.97V156zM192.76 147.27h2.36l1.84 3.66h.08l1.84-3.66h2.36l-3.2 5.81V156h-2.09v-2.91zM175.25 156v-8.73h2.1v7.02H181V156zM154.69 156v-8.73h3.6q.99 0 1.7.36.7.34 1.1 1 .39.65.39 1.55t-.4 1.54q-.4.63-1.12.97-.75.32-1.73.32h-2.28v-1.66h1.89q.47 0 .8-.12a1 1 0 0 0 .48-.39q.17-.26.17-.66t-.17-.67a1 1 0 0 0-.49-.4 2 2 0 0 0-.8-.14h-1.03V156zm4.91-3.99 2.17 3.99h-2.3l-2.13-3.99zM135.92 156h-2.27l2.95-8.73h2.8l2.95 8.73h-2.27l-2.05-6.53h-.06zm-.3-3.44h4.74v1.6h-4.74zM116.25 137v-8.73h2.1v7.02H122V137zM193.69 137v-8.73h3.6q.99 0 1.7.36.7.34 1.1 1 .39.65.39 1.55t-.4 1.54q-.4.63-1.12.97-.75.32-1.73.32h-2.28v-1.66h1.89q.47 0 .8-.12a1 1 0 0 0 .48-.39q.17-.26.17-.66t-.17-.67a1 1 0 0 0-.49-.4 2 2 0 0 0-.8-.14h-1.03V137zm4.91-3.99 2.17 3.99h-2.3l-2.13-3.99zM174.96 137v-8.73h6.08V130h-3.97v1.79h3.66v1.71h-3.66v1.8h3.97V137zM154.32 129.99v-1.72h7.37V130h-2.65V137h-2.07v-7.01zM135.92 137h-2.27l2.95-8.73h2.8l2.95 8.73h-2.27l-2.05-6.53h-.06zm-.3-3.44h4.74v1.6h-4.74zM115.31 110.99v-1.72h7.38V111h-2.64V118h-2.08v-7.01zM200.71 109.27V118h-1.79l-3.47-5.04h-.06V118h-2.1v-8.73h1.8l3.44 5.03h.08v-5.03zM179.05 109.27V118h-2.1v-8.73zM155.92 118h-2.27l2.95-8.73h2.8l2.95 8.73h-2.27l-2.05-6.53h-.06zm-.3-3.44h4.74v1.6h-4.74zM134.69 118v-8.73h3.6q.99 0 1.7.36.7.34 1.1 1 .39.66.39 1.55 0 .9-.4 1.54-.4.63-1.12.97-.75.32-1.73.32h-2.28v-1.66h1.89q.47 0 .8-.12a1 1 0 0 0 .48-.39q.17-.26.17-.66t-.17-.67a1 1 0 0 0-.49-.4q-.32-.14-.8-.14h-1.03V118zm4.91-3.99 2.17 3.99h-2.3l-2.13-3.99z"/></svg>
