<svg xmlns="http://www.w3.org/2000/svg" width="100" height="100" fill="none" viewBox="0 0 100 100"><path fill="#daedf7" stroke="#daedf7" d="M10 56.097a40 40 0 1 0 80 0 40 40 0 0 0-80 0Z"/><path stroke="#45413c" stroke-linecap="round" stroke-linejoin="round" d="m59.113 77.367 12.04-20.951"/><path fill="#ff6242" stroke="#45413c" stroke-linecap="round" stroke-linejoin="round" d="M53.548 77.367a5.565 5.565 0 1 0 11.13 0 5.565 5.565 0 0 0-11.13 0"/><path stroke="#45413c" stroke-linecap="round" stroke-linejoin="round" d="M71.153 56.416 50 37.393M83.194 77.367 71.153 56.416"/><path fill="#ffaa54" stroke="#45413c" stroke-linecap="round" stroke-linejoin="round" d="M65.588 56.416a5.567 5.567 0 0 0 7.695 5.141 5.567 5.567 0 0 0 1.805-9.076 5.566 5.566 0 0 0-9.5 3.935"/><path fill="#ff6242" stroke="#45413c" stroke-linecap="round" stroke-linejoin="round" d="M77.629 77.367a5.566 5.566 0 1 0 11.132 0 5.566 5.566 0 0 0-11.132 0"/><path stroke="#45413c" stroke-linecap="round" stroke-linejoin="round" d="m40.887 77.367-12.04-20.951"/><path fill="#ff6242" stroke="#45413c" stroke-linecap="round" stroke-linejoin="round" d="M35.322 77.367a5.565 5.565 0 1 0 11.13 0 5.565 5.565 0 0 0-11.13 0"/><path stroke="#45413c" stroke-linecap="round" stroke-linejoin="round" d="M28.847 56.416 50 37.393M16.806 77.367l12.041-20.951"/><path fill="#ffaa54" stroke="#45413c" stroke-linecap="round" stroke-linejoin="round" d="M23.282 56.416a5.565 5.565 0 1 0 11.13 0 5.565 5.565 0 0 0-11.13 0"/><path fill="#ff6242" stroke="#45413c" stroke-linecap="round" stroke-linejoin="round" d="M11.241 77.367a5.565 5.565 0 1 0 11.13 0 5.565 5.565 0 0 0-11.13 0"/><path fill="#ffe500" d="M59.83 42.564h5.064a5.56 5.56 0 0 0 5.195-4.025c.325-1.04.49-2.123.49-3.213 0-4.682-2.986-8.492-6.7-8.647-.6-2.341-2.33-4.049-4.4-4.049a3.9 3.9 0 0 0-2.245.752 10.33 10.33 0 0 0-8.4-4.8c-3.727 0-7.012 2.3-9.018 5.817a7 7 0 0 0-.693-.036c-3.368 0-6.139 3.225-6.437 7.357a6.45 6.45 0 0 0-3.273 5.924 4.734 4.734 0 0 0 4.515 4.921z"/><path stroke="#45413c" stroke-linecap="round" stroke-linejoin="round" d="M52.36 42.564C51.191 40.18 50.862 37.8 47 36.486M59.83 42.564a5.89 5.89 0 0 1-1.8-4.408"/><path stroke="#45413c" stroke-linecap="round" stroke-linejoin="round" d="M60.406 37.064a4.5 4.5 0 0 1-3.236 1.155c-1.927 0-3.237-2.07-4.162-4.621a6.6 6.6 0 0 0-2.774-3.465M39.824 24.4a9.48 9.48 0 0 1 6.972 4.67M43.876 42.564a6.13 6.13 0 0 0-1.04-6.656M32.694 31.719a5.49 5.49 0 0 1 6.443.724"/><path stroke="#45413c" stroke-linecap="round" stroke-linejoin="round" d="M43.3 31.288a4.72 4.72 0 0 1-.462 4.62 3.8 3.8 0 0 1-4.624 1.733c-2.736-1.011-3.7 0-3.7 0M63.879 26.679a4.1 4.1 0 0 0-3.01.566M57.238 23.382c-2.606 1.48-2.727 5.884-.531 7.906 3.227 2.97 5.9-1.011 8.323 2.888M47 33.021a7.2 7.2 0 0 1 0-4.621 4.07 4.07 0 0 1 4.624-2.888"/><path stroke="#45413c" stroke-linecap="round" stroke-linejoin="round" d="M59.83 42.564h5.064a5.56 5.56 0 0 0 5.195-4.025c.325-1.04.49-2.123.49-3.213 0-4.682-2.986-8.492-6.7-8.647-.6-2.341-2.33-4.049-4.4-4.049a3.9 3.9 0 0 0-2.245.752 10.33 10.33 0 0 0-8.4-4.8c-3.727 0-7.012 2.3-9.018 5.817a7 7 0 0 0-.693-.036c-3.368 0-6.139 3.225-6.437 7.357a6.45 6.45 0 0 0-3.273 5.924 4.734 4.734 0 0 0 4.515 4.921z"/><path fill="#fff48c" stroke="#b58b00" stroke-linecap="round" stroke-linejoin="round" d="M50.227 11.005c-.938 0-2.172-3.1-2.172-4.93a2.173 2.173 0 0 1 4.345 0c0 1.825-1.235 4.93-2.173 4.93M34.967 11.068A2.172 2.172 0 1 1 38.611 8.7c1 1.534 1.649 4.807.863 5.318-.838.54-3.574-1.511-4.507-2.95M26.71 22.383a2.173 2.173 0 0 1 1.767-3.97c1.49.663 4.03 3.07 3.62 3.99-.42.945-3.94.624-5.387-.02M67.585 22c-.426-.835 1.776-3.343 3.406-4.174a2.173 2.173 0 1 1 1.973 3.874c-1.684.853-4.964 1.1-5.379.3M60.018 13.783c-.833-.48-.3-3.829.583-5.355a2.173 2.173 0 0 1 3.763 2.172c-.812 1.407-3.48 3.684-4.346 3.183"/></svg>