<svg xmlns="http://www.w3.org/2000/svg" width="82" height="82" fill="none" viewBox="0 0 82 82"><g clip-path="url(#a)"><path fill="#daedf7" stroke="#daedf7" stroke-miterlimit="10" d="M41 81c22.091 0 40-17.909 40-40S63.091 1 41 1 1 18.909 1 41s17.909 40 40 40Z"/><path fill="#45413c" d="M34.2 74.896c8.346 0 15.111-.828 15.111-1.85s-6.765-1.85-15.111-1.85-15.111.828-15.111 1.85 6.765 1.85 15.111 1.85" opacity=".15"/><path fill="#fff" stroke="#45413c" stroke-linecap="round" stroke-linejoin="round" d="M14.7 61.382a1.32 1.32 0 0 0 1.32 1.321h38.3a1.32 1.32 0 0 0 1.321-1.321V18.457L44.418 7.23h-28.4a1.32 1.32 0 0 0-1.32 1.321z"/><path fill="#fff" stroke="#45413c" stroke-linecap="round" stroke-linejoin="round" d="M55.645 18.457h-9.994a1.237 1.237 0 0 1-1.233-1.233V7.23z"/><path fill="#00b8f0" d="M79.255 23.088a3.806 3.806 0 0 1-.216 5.4l-28.1 25.936h-.017l-5.171-5.6v-.017l28.1-25.937a3.804 3.804 0 0 1 5.404.218"/><path fill="#4acfff" d="M79.3 23.148c-.018-.019-.029-.041-.046-.06a3.807 3.807 0 0 0-5.4-.216L45.756 48.809v.017l2.637 2.856z"/><path stroke="#45413c" stroke-linecap="round" stroke-linejoin="round" d="m66.829 29.355 5.187 5.62M60.074 29.085l4.917-4.54a4.78 4.78 0 0 1 6.755.27"/><path fill="#daedf7" stroke="#45413c" stroke-linecap="round" stroke-linejoin="round" d="m50.926 54.427-7.02 2.043c-.652.189-.987-.175-.747-.81l2.6-6.834z"/><path stroke="#45413c" stroke-linecap="round" stroke-linejoin="round" d="M79.255 23.088a3.806 3.806 0 0 1-.216 5.4l-28.1 25.936h-.017l-5.171-5.6v-.017l28.1-25.937a3.804 3.804 0 0 1 5.404.218"/><path stroke="#46b000" stroke-linecap="round" stroke-linejoin="round" d="m21.224 34.698 1.676 1.589 4.452-5.372"/><path fill="#7029f5" d="M42.917 19.77v-2.166h-1.083v-1.083H40.75v-.542h1.084v-1.625h-1.625v1.083h-1.084v1.084h-3.25v-1.084h-1.083v-1.083h-1.625v1.625h1.083v.542h-1.083v1.083h-1.083v2.167H31v3.791h1.625v-2.166h.542v2.166h1.083v1.084h2.709V23.02h-2.167v-.542h5.417v.542h-2.167v1.625h2.708v-1.084h1.084v-2.166h.541v2.166H44v-3.791zm-7.042-.54H34.25v-1.626h1.625zm4.875 0h-1.625v-1.626h1.625zM42.917 33.77v-2.166h-1.083v-1.083H40.75v-.542h1.084v-1.625h-1.625v1.083h-1.084v1.084h-3.25v-1.084h-1.083v-1.083h-1.625v1.625h1.083v.542h-1.083v1.083h-1.083v2.167H31v3.791h1.625v-2.166h.542v2.166h1.083v1.084h2.709V37.02h-2.167v-.542h5.417v.542h-2.167v1.625h2.708v-1.084h1.084v-2.166h.541v2.166H44v-3.791zm-7.042-.54H34.25v-1.626h1.625zm4.875 0h-1.625v-1.626h1.625zM42.917 46.77v-2.166h-1.083v-1.083H40.75v-.542h1.084v-1.625h-1.625v1.083h-1.084v1.084h-3.25v-1.084h-1.083v-1.083h-1.625v1.625h1.083v.542h-1.083v1.083h-1.083v2.167H31v3.791h1.625v-2.166h.542v2.166h1.083v1.084h2.709V50.02h-2.167v-.542h5.417v.542h-2.167v1.625h2.708v-1.084h1.084v-2.166h.541v2.166H44v-3.791zm-7.042-.54H34.25v-1.626h1.625zm4.875 0h-1.625v-1.626h1.625z"/><path stroke="#46b000" stroke-linecap="round" stroke-linejoin="round" d="M21.224 22.031 22.9 23.62l4.452-5.372M21.224 47.72l1.676 1.589 4.452-5.372"/><g clip-path="url(#b)"><path fill="#f7df1e" d="M77 53H50v27h27z"/><path fill="#000" d="M68.137 74.094c.544.888 1.252 1.54 2.503 1.54 1.051 0 1.723-.525 1.723-1.25 0-.87-.69-1.179-1.847-1.685l-.635-.272c-1.83-.78-3.047-1.757-3.047-3.823 0-1.903 1.45-3.352 3.716-3.352 1.613 0 2.773.562 3.609 2.032l-1.976 1.268c-.435-.78-.904-1.087-1.633-1.087-.743 0-1.214.472-1.214 1.087 0 .762.471 1.07 1.56 1.541l.634.272c2.156.924 3.373 1.867 3.373 3.986 0 2.284-1.794 3.535-4.204 3.535-2.357 0-3.879-1.123-4.624-2.594zm-8.963.22c.399.707.762 1.305 1.633 1.305.834 0 1.36-.326 1.36-1.595v-8.627h2.537v8.662c0 2.627-1.54 3.823-3.789 3.823-2.031 0-3.208-1.052-3.806-2.318z"/></g></g><defs><clipPath id="a"><path fill="#fff" d="M0 0h82v82H0z"/></clipPath><clipPath id="b"><path fill="#fff" d="M50 53h27v27H50z"/></clipPath></defs></svg>