<svg xmlns="http://www.w3.org/2000/svg" width="82" height="82" fill="none" viewBox="0 0 82 82"><path fill="#daedf7" stroke="#daedf7" stroke-miterlimit="10" d="M41 81c22.091 0 40-17.909 40-40S63.091 1 41 1 1 18.909 1 41s17.909 40 40 40Z"/><path fill="#45413c" d="M40.896 74.347c11.337 0 20.528-.81 20.528-1.811s-9.19-1.811-20.528-1.811-20.528.81-20.528 1.811 9.19 1.811 20.528 1.811" opacity=".15"/><path fill="#6dd627" stroke="#45413c" stroke-linecap="round" stroke-linejoin="round" d="M35.462 37H14.935c-2 0-3.623 1.622-3.623 3.623V61.15c0 2 1.622 3.623 3.623 3.623h20.527c2 0 3.623-1.622 3.623-3.623V40.623c0-2-1.622-3.623-3.623-3.623"/><path fill="#fff" stroke="#45413c" stroke-linecap="round" stroke-linejoin="round" d="M34.463 40.623H15.935a1 1 0 0 0-1 1V60.15a1 1 0 0 0 1 1h18.528a1 1 0 0 0 1-1V41.623a1 1 0 0 0-1-1"/><path fill="#6dd627" stroke="#45413c" stroke-linecap="round" stroke-linejoin="round" d="M28.551 49.991a3 3 0 0 0 .864-2.37 3.145 3.145 0 0 0-3.193-2.772H22.18a1.207 1.207 0 0 0-1.208 1.207v9.66a1.21 1.21 0 0 0 1.208 1.208h4.92a3.535 3.535 0 0 0 3.535-3.535v-.175a3.54 3.54 0 0 0-2.084-3.223"/><path fill="#fff" stroke="#45413c" stroke-linecap="round" stroke-linejoin="round" d="M25.2 49.679h-1.209v-2.415H25.2a1.207 1.207 0 1 1 0 2.415M25.8 54.509h-1.809v-2.415H25.8a1.208 1.208 0 1 1 0 2.415"/><path fill="#ff6242" stroke="#45413c" stroke-linecap="round" stroke-linejoin="round" d="M47.538 37h20.527a3.62 3.62 0 0 1 3.622 3.622V61.15a3.623 3.623 0 0 1-3.623 3.623H47.537a3.623 3.623 0 0 1-3.623-3.623V40.623A3.62 3.62 0 0 1 47.538 37"/><path fill="#fff" stroke="#45413c" stroke-linecap="round" stroke-linejoin="round" d="M67.065 40.623H48.537a1 1 0 0 0-1 1V60.15a1 1 0 0 0 1 1h18.528a1 1 0 0 0 1-1V41.623a1 1 0 0 0-1-1"/><path fill="#ff6242" stroke="#45413c" stroke-linecap="round" stroke-linejoin="round" d="M62.342 53.177a1.12 1.12 0 0 0-1.311.163 3.233 3.233 0 1 1 0-4.908 1.125 1.125 0 0 0 1.311.164 1.96 1.96 0 0 0 .965-1.638c0-1.445-2.877-2.713-5.118-2.713-3.822 0-5.822 3.436-5.822 6.641s2 6.642 5.822 6.642c2.241 0 5.118-1.268 5.118-2.714a1.96 1.96 0 0 0-.965-1.637"/><path fill="#ffe500" stroke="#45413c" stroke-linecap="round" stroke-linejoin="round" d="M51.765 9.228H31.236c-2 0-3.622 1.622-3.622 3.622v20.528c0 2 1.622 3.622 3.622 3.622h20.529c2 0 3.622-1.622 3.622-3.622V12.85c0-2-1.622-3.622-3.622-3.622"/><path fill="#fff" stroke="#45413c" stroke-linecap="round" stroke-linejoin="round" d="M50.764 12.85H32.236a1 1 0 0 0-1 1v18.528a1 1 0 0 0 1 1h18.528a1 1 0 0 0 1-1V13.85a1 1 0 0 0-1-1"/><path stroke="#45413c" stroke-linecap="round" stroke-linejoin="round" d="M41.5 22.51v-.604"/><path fill="#fff48c" stroke="#45413c" stroke-linecap="round" stroke-linejoin="round" d="m39.592 16 4.519.02c1.065 0 1.615.133 1.615 1.7 0 1.324-.42 1.569-1.505 1.569h-3.217q-.038.225-.184 1.42a4.4 4.4 0 0 1 2.042.196 4.46 4.46 0 0 1 1.742 1.102c.448.413.805.919 1.045 1.483.241.564.36 1.175.35 1.79a4.7 4.7 0 0 1-.33 1.799 4.6 4.6 0 0 1-.992 1.527 4.4 4.4 0 0 1-1.498 1.051 4.3 4.3 0 0 1-1.79.342c-2.64 0-4.389-1.692-4.389-2.486.072-.476.314-.909.68-1.214a1.53 1.53 0 0 1 1.065-.617c.464.055.896.265 1.23.598a2.03 2.03 0 0 0 2.36.038 1.36 1.36 0 0 0 .4-.994 1.38 1.38 0 0 0-.437-.978 1.42 1.42 0 0 0-1.863-.028 1.54 1.54 0 0 1-1.002.43 2.5 2.5 0 0 1-1.156-.354 3.7 3.7 0 0 1-.854-.571.65.65 0 0 1-.203-.457c0-.16.741-5.81.753-5.886.048-.404.239-.777.537-1.05a1.64 1.64 0 0 1 1.082-.43"/></svg>