<svg width="450" height="450" viewBox="0 0 450 450" fill="none" xmlns="http://www.w3.org/2000/svg">
<path d="M220.298 423C329.65 423 418.298 334.352 418.298 225C418.298 115.648 329.65 27 220.298 27C110.946 27 22.2979 115.648 22.2979 225C22.2979 334.352 110.946 423 220.298 423Z" fill="#DAEDF7" stroke="#DAEDF7" stroke-width="5" stroke-miterlimit="10"/>
<path opacity="0.15" d="M229.203 405.373C298.526 405.373 354.725 401.157 354.725 395.958C354.725 390.758 298.526 386.543 229.203 386.543C159.878 386.543 103.68 390.758 103.68 395.958C103.68 401.157 159.878 405.373 229.203 405.373Z" fill="#45413C"/>
<path d="M206.007 273.574V383.4C206.008 385.061 205.351 386.655 204.179 387.833C203.007 389.01 201.416 389.675 199.755 389.681H177.767L174.975 311.224C174.895 308.689 173.831 306.284 172.009 304.52C170.187 302.755 167.75 301.768 165.214 301.768C162.677 301.768 160.241 302.755 158.419 304.52C156.597 306.284 155.533 308.689 155.452 311.224L152.878 383.628C152.82 385.253 152.132 386.792 150.962 387.921C149.791 389.05 148.228 389.681 146.602 389.681H124.421V273.574H206.007Z" fill="#87898C"/>
<path d="M206.007 286.127H124.421V301.819H206.007V286.127Z" fill="#45413C"/>
<path d="M206.007 273.574V383.4C206.008 385.061 205.351 386.655 204.179 387.833C203.007 389.01 201.416 389.675 199.755 389.681H177.767L174.975 311.224C174.895 308.689 173.831 306.284 172.009 304.52C170.187 302.755 167.75 301.768 165.214 301.768C162.677 301.768 160.241 302.755 158.419 304.52C156.597 306.284 155.533 308.689 155.452 311.224L152.878 383.628C152.82 385.253 152.132 386.792 150.962 387.921C149.791 389.05 148.228 389.681 146.602 389.681H124.421V273.574H206.007Z" stroke="#45413C" stroke-width="5" stroke-linecap="round" stroke-linejoin="round"/>
<path d="M153.289 370.842L152.864 383.603C152.81 385.231 152.126 386.774 150.955 387.906C149.785 389.038 148.221 389.672 146.592 389.672H108.73C108.718 385.225 110.291 380.919 113.167 377.526C116.042 374.134 120.032 371.877 124.421 371.159C125.45 370.925 126.504 370.819 127.559 370.842H153.289Z" fill="#87898C" stroke="#45413C" stroke-width="5" stroke-linecap="round" stroke-linejoin="round"/>
<path d="M162.076 389.682C162.076 384.693 164.057 379.908 167.585 376.381C171.112 372.853 175.897 370.872 180.886 370.872H205.987V383.4C205.988 385.058 205.334 386.649 204.166 387.826C202.998 389.002 201.413 389.67 199.755 389.682H162.076Z" fill="#87898C" stroke="#45413C" stroke-width="5" stroke-linecap="round" stroke-linejoin="round"/>
<path d="M227.97 217.08C227.97 201.267 221.689 186.102 210.507 174.92C199.325 163.739 184.16 157.457 168.347 157.457C152.535 157.457 137.369 163.739 126.188 174.92C115.006 186.102 108.725 201.267 108.725 217.08V232.771H124.416V286.127H206.007V232.781H227.97V217.08Z" fill="#FFE500" stroke="#45413C" stroke-width="5" stroke-linecap="round" stroke-linejoin="round"/>
<path d="M184.039 217.08C184.205 211.272 186.429 205.712 190.315 201.394C192.793 204.253 194.902 207.413 196.592 210.799" stroke="#45413C" stroke-width="5" stroke-linecap="round" stroke-linejoin="round"/>
<path d="M108.73 232.771H124.421V240.617C122.653 244.783 119.704 248.339 115.939 250.847C112.173 253.357 107.755 254.707 103.23 254.735C100.128 254.688 97.0663 254.031 94.2186 252.801C91.3704 251.572 88.7929 249.793 86.6327 247.567C84.472 245.34 82.7712 242.711 81.6273 239.827C80.4833 236.944 79.9185 233.863 79.9651 230.762V228.816C80.1903 229.911 80.7051 230.925 81.4555 231.753C82.2059 232.581 83.1647 233.193 84.232 233.524L93.2063 236.35C94.7309 236.83 96.3817 236.708 97.8187 236.007C99.2552 235.306 100.368 234.081 100.928 232.583C102.076 233.354 103.42 233.78 104.802 233.813C106.183 233.847 107.546 233.485 108.73 232.771Z" fill="#FFCEBF" stroke="#45413C" stroke-width="5" stroke-linecap="round" stroke-linejoin="round"/>
<path d="M124.421 273.574V232.781L124.436 273.574H124.421Z" stroke="#45413C" stroke-width="5" stroke-linecap="round" stroke-linejoin="round"/>
<path d="M206.007 232.782V204.542" stroke="#45413C" stroke-width="5" stroke-linecap="round" stroke-linejoin="round"/>
<path d="M124.421 232.782V204.542" stroke="#45413C" stroke-width="5" stroke-linecap="round" stroke-linejoin="round"/>
<path d="M168.352 157.472C155.534 157.451 143.053 161.581 132.777 169.243L159.888 194.414C161.273 195.7 163.09 196.418 164.979 196.427C166.869 196.436 168.692 195.735 170.09 194.464L200.448 166.838C190.868 160.705 179.727 157.454 168.352 157.472Z" fill="#87898C" stroke="#45413C" stroke-width="5" stroke-linecap="round" stroke-linejoin="round"/>
<path d="M180.638 158.739C179.82 158.568 179.085 158.12 178.559 157.472C178.032 156.822 177.746 156.011 177.747 155.175V132.984H155.423V155.037C155.423 156.111 155.073 157.156 154.426 158.015C153.78 158.872 152.872 159.497 151.839 159.794C151.26 159.962 150.681 160.135 150.102 160.323C150.732 164.046 152.708 167.408 155.654 169.77C158.6 172.131 162.312 173.328 166.083 173.132C169.854 172.937 173.421 171.363 176.107 168.709C178.794 166.055 180.411 162.508 180.653 158.739H180.638Z" fill="#FFCEBF" stroke="#45413C" stroke-width="5" stroke-linecap="round" stroke-linejoin="round"/>
<path d="M50.4134 213.466L8.51172 200.072" stroke="#45413C" stroke-width="5" stroke-linecap="round" stroke-linejoin="round"/>
<path d="M221.788 287.103L203.716 293.31C202.687 293.662 201.584 293.741 200.515 293.539C199.446 293.337 198.448 292.86 197.619 292.155C196.791 291.451 196.159 290.543 195.787 289.521C195.415 288.499 195.316 287.398 195.499 286.325L195.994 283.355L176.887 260.749L158.963 254.992L182.643 242.82C182.643 242.82 215.378 257.205 225.392 278.336C225.785 279.14 226.003 280.02 226.033 280.915C226.062 281.809 225.901 282.701 225.56 283.529C225.22 284.358 224.708 285.104 224.057 285.72C223.407 286.336 222.634 286.807 221.788 287.103Z" fill="#87898C" stroke="#45413C" stroke-width="5" stroke-linecap="round" stroke-linejoin="round"/>
<path d="M169.283 231.796L152.68 235.994C152.111 236.137 151.513 236.118 150.953 235.939L42.4587 201.091L50.3342 213.511L158.962 254.992L182.643 242.82C178.708 238.558 174.214 234.85 169.283 231.796Z" fill="#DEBB7E" stroke="#45413C" stroke-width="5" stroke-linecap="round" stroke-linejoin="round"/>
<path d="M169.877 231.643L152.68 235.994C152.111 236.137 151.513 236.118 150.953 235.94L39.4541 200.126C38.321 199.762 37.3672 198.984 36.7836 197.947C36.2 196.909 36.0292 195.69 36.3059 194.533C36.594 193.359 37.3157 192.338 38.3255 191.674C39.3353 191.01 40.5594 190.753 41.7509 190.954C87.6126 199.003 127.425 211.962 170.01 225.604C170.661 225.807 171.228 226.217 171.626 226.77C172.023 227.324 172.23 227.992 172.216 228.674C172.2 229.356 171.964 230.013 171.542 230.549C171.121 231.085 170.536 231.469 169.877 231.643Z" fill="#BDBEC0" stroke="#45413C" stroke-width="5" stroke-linecap="round" stroke-linejoin="round"/>
<path d="M206.007 232.781C205.505 236.776 204.021 240.585 201.689 243.867C199.357 247.149 196.249 249.803 192.642 251.591L180.91 257.457C178.34 258.78 176.394 261.064 175.497 263.811C174.599 266.56 174.82 269.551 176.113 272.137C177.406 274.722 179.667 276.694 182.404 277.624C185.142 278.553 188.135 278.367 190.736 277.104L202.468 271.238C209.718 267.628 215.891 262.174 220.368 255.424C224.844 248.674 227.466 240.865 227.97 232.781H206.007Z" fill="#FFCEBF" stroke="#45413C" stroke-width="5" stroke-linecap="round" stroke-linejoin="round"/>
<path d="M165.065 64.3823C170.011 64.3818 174.908 65.355 179.477 67.2474C184.046 69.1393 188.198 71.9128 191.694 75.4094C195.191 78.9061 197.965 83.0572 199.858 87.626C201.751 92.1949 202.725 97.0919 202.725 102.037V107.061C204.554 107.405 206.196 108.4 207.346 109.863C208.497 111.325 209.078 113.155 208.982 115.013C208.886 116.872 208.119 118.632 206.824 119.968C205.529 121.304 203.793 122.124 201.938 122.278C200.037 131.399 194.822 139.492 187.301 144.993C179.781 150.493 170.488 153.01 161.219 152.057C151.95 151.104 143.364 146.749 137.119 139.833C130.875 132.918 127.416 123.932 127.411 114.615V102.037C127.411 92.0503 131.378 82.4726 138.44 75.4109C145.501 68.3498 155.079 64.3823 165.065 64.3823Z" fill="#FFCEBF" stroke="#45413C" stroke-width="5" stroke-linecap="round" stroke-linejoin="round"/>
<path d="M169.921 102.136C168.99 102.136 168.08 102.412 167.306 102.929C166.532 103.446 165.929 104.181 165.572 105.042C165.216 105.902 165.123 106.848 165.304 107.762C165.486 108.675 165.934 109.513 166.592 110.172C167.251 110.83 168.09 111.279 169.003 111.46C169.916 111.642 170.863 111.548 171.723 111.193C172.583 110.836 173.318 110.233 173.835 109.459C174.352 108.684 174.629 107.774 174.629 106.843C174.629 106.225 174.508 105.612 174.272 105.041C174.035 104.469 173.689 103.95 173.252 103.513C172.814 103.076 172.295 102.729 171.724 102.493C171.152 102.256 170.54 102.135 169.921 102.136Z" fill="#45413C"/>
<path d="M144.81 102.136C143.879 102.136 142.969 102.412 142.195 102.929C141.421 103.446 140.817 104.181 140.461 105.042C140.104 105.902 140.011 106.848 140.193 107.762C140.375 108.675 140.823 109.513 141.481 110.172C142.139 110.83 142.978 111.279 143.892 111.46C144.804 111.642 145.751 111.548 146.611 111.193C147.472 110.836 148.207 110.233 148.724 109.459C149.241 108.684 149.517 107.774 149.517 106.843C149.517 105.595 149.021 104.397 148.139 103.515C147.256 102.631 146.058 102.136 144.81 102.136Z" fill="#45413C"/>
<path d="M182.47 124.099C185.07 124.099 187.177 121.992 187.177 119.392C187.177 116.792 185.07 114.684 182.47 114.684C179.87 114.684 177.762 116.792 177.762 119.392C177.762 121.992 179.87 124.099 182.47 124.099Z" fill="#FFB59E"/>
<path d="M146.384 130.663C149.17 132.518 152.442 133.508 155.789 133.508C159.136 133.508 162.408 132.518 165.194 130.663" stroke="#45413C" stroke-width="5" stroke-linecap="round" stroke-linejoin="round"/>
<path d="M159.071 102.126C159.147 102.127 159.221 102.101 159.28 102.054C159.339 102.006 159.38 101.94 159.395 101.865C159.411 101.791 159.399 101.713 159.363 101.646C159.328 101.579 159.27 101.526 159.2 101.497C156.773 100.462 154.651 98.825 153.034 96.7396C151.418 94.6546 150.36 92.191 149.963 89.5828H177.891C178.819 89.5794 179.737 89.7833 180.576 90.1798C181.415 90.5763 182.155 91.1555 182.742 91.8747C186.484 96.4534 195.023 106.462 199.73 108.413C201.811 108.721 203.926 108.721 206.007 108.413V83.3062C206.01 80.0081 205.362 76.7421 204.102 73.6943C202.842 70.6466 200.993 67.8771 198.662 65.5442C196.331 63.2107 193.563 61.3604 190.516 60.0977C187.469 58.8349 184.204 58.185 180.905 58.185H152.661C150.996 58.185 149.4 57.5237 148.223 56.3466C147.045 55.1695 146.384 53.5731 146.384 51.9084H137.915C133.108 51.8158 128.437 53.5053 124.802 56.651C121.166 59.7967 118.823 64.176 118.224 68.9463C117.744 73.8745 119.226 78.7938 122.35 82.636C125.474 86.4777 129.987 88.9334 134.91 89.469C135.799 92.8003 137.666 95.7882 140.271 98.0464C142.876 100.305 146.099 101.729 149.522 102.136C150.923 102.136 156.155 102.146 159.071 102.126Z" fill="#FFE500"/>
<path d="M180.905 58.185H152.661C150.996 58.185 149.4 57.5237 148.222 56.3466C147.045 55.1695 146.384 53.5731 146.384 51.9084H137.915C133.108 51.8158 128.437 53.5053 124.802 56.651C121.166 59.7967 118.823 64.176 118.224 68.9463C118.014 71.2119 118.212 73.4968 118.808 75.6931C130.957 73.035 143.362 71.7203 155.799 71.7727C172.728 71.597 189.576 74.1473 205.695 79.3264C205.695 79.168 205.64 78.9997 205.616 78.8314C204.569 73.0399 201.522 67.7999 197.005 64.026C192.489 60.2526 186.791 58.185 180.905 58.185Z" fill="#FFF48C"/>
<path d="M159.071 102.126C159.147 102.127 159.221 102.101 159.28 102.054C159.339 102.006 159.38 101.94 159.395 101.865C159.411 101.791 159.399 101.713 159.363 101.646C159.328 101.579 159.27 101.526 159.2 101.497C156.773 100.462 154.651 98.825 153.034 96.7396C151.418 94.6546 150.36 92.191 149.963 89.5828H177.891C178.819 89.5794 179.737 89.7833 180.576 90.1798C181.415 90.5763 182.155 91.1555 182.742 91.8747C186.484 96.4534 195.023 106.462 199.73 108.413C201.811 108.721 203.926 108.721 206.007 108.413V83.3062C206.01 80.0081 205.362 76.7421 204.102 73.6943C202.842 70.6466 200.993 67.8771 198.662 65.5442C196.331 63.2107 193.563 61.3604 190.516 60.0977C187.469 58.8349 184.204 58.185 180.905 58.185H152.661C150.996 58.185 149.4 57.5237 148.223 56.3466C147.045 55.1695 146.384 53.5731 146.384 51.9084H137.915C133.108 51.8158 128.437 53.5053 124.802 56.651C121.166 59.7967 118.823 64.176 118.224 68.9463C117.744 73.8745 119.226 78.7938 122.35 82.636C125.474 86.4777 129.987 88.9334 134.91 89.469C135.799 92.8003 137.666 95.7882 140.271 98.0464C142.876 100.305 146.099 101.729 149.522 102.136C150.923 102.136 156.155 102.146 159.071 102.126Z" stroke="#45413C" stroke-width="5" stroke-linecap="round" stroke-linejoin="round"/>
<path d="M81.45 221.297C81.9108 219.77 82.6984 218.362 83.7577 217.17C84.8175 215.978 86.1233 215.031 87.586 214.394C89.0482 213.758 90.6312 213.447 92.2261 213.483C93.8205 213.519 95.3877 213.902 96.8197 214.605C99.1814 215.86 101.026 217.907 102.03 220.386C103.033 222.865 103.132 225.618 102.309 228.163L101.116 232.163C100.879 232.959 100.486 233.699 99.9595 234.342C99.4338 234.985 98.7854 235.517 98.0528 235.907C97.3197 236.298 96.5163 236.539 95.6896 236.617C94.8625 236.694 94.0289 236.607 93.2359 236.36L84.2467 233.563C82.6706 233.071 81.352 231.978 80.5753 230.521C79.7991 229.064 79.6279 227.36 80.0986 225.777L81.45 221.297Z" fill="#FFCEBF" stroke="#45413C" stroke-width="5" stroke-linecap="round" stroke-linejoin="round"/>
<path d="M329.282 176.425C324.283 170.49 318.047 165.718 311.011 162.444C303.975 159.171 296.309 157.473 288.549 157.472C246.36 157.472 219.051 183.563 216.378 212.194V220.228C216.595 224.515 217.473 228.742 218.981 232.761H244.256C240.989 229.374 238.921 225.01 238.371 220.337C238.371 218.624 238.371 217.332 238.341 217.089C238.408 215.011 239.024 212.987 240.126 211.225C241.229 209.462 242.778 208.022 244.617 207.051C246.35 206.004 248.337 205.451 250.362 205.451C252.386 205.451 254.373 206.004 256.106 207.051L257.171 207.68V273.574H326.208V232.781H341.895V210.818C341.885 198.224 337.418 186.04 329.282 176.425Z" fill="#BF8DF2" stroke="#45413C" stroke-width="5" stroke-linecap="round" stroke-linejoin="round"/>
<path d="M316.709 370.852L326.208 273.574H257.17L266.669 370.852H316.709Z" fill="#87898C"/>
<path d="M324.51 289.266L326.208 273.574H257.17L258.868 289.266H324.51Z" fill="#45413C"/>
<path d="M316.709 370.852L326.208 273.574H257.17L266.669 370.852H316.709Z" stroke="#45413C" stroke-width="5" stroke-linecap="round" stroke-linejoin="round"/>
<path d="M257.175 273.574L290.291 236.637C291.363 235.442 292.852 234.703 294.452 234.572C296.052 234.441 297.642 234.929 298.894 235.934L326.213 257.888V273.574H257.175Z" fill="#87898C" stroke="#45413C" stroke-width="5" stroke-linecap="round" stroke-linejoin="round"/>
<path d="M335.618 389.682C335.618 384.693 333.636 379.908 330.109 376.381C326.581 372.853 321.797 370.872 316.808 370.872H291.687V383.4C291.687 385.065 292.348 386.661 293.525 387.838C294.702 389.015 296.298 389.677 297.963 389.677L335.618 389.682Z" fill="#87898C" stroke="#45413C" stroke-width="5" stroke-linecap="round" stroke-linejoin="round"/>
<path d="M310.516 389.682C310.516 384.693 308.535 379.908 305.007 376.381C301.48 372.853 296.695 370.872 291.706 370.872H266.58V383.4C266.58 385.065 267.241 386.661 268.419 387.838C269.596 389.015 271.192 389.677 272.857 389.677L310.516 389.682Z" fill="#87898C" stroke="#45413C" stroke-width="5" stroke-linecap="round" stroke-linejoin="round"/>
<path d="M291.687 304.958V370.852" stroke="#45413C" stroke-width="5" stroke-linecap="round" stroke-linejoin="round"/>
<path d="M326.208 235.919V228.841C326.206 224.939 327.417 221.133 329.673 217.951C331.584 214.866 332.563 211.293 332.489 207.665" stroke="#45413C" stroke-width="5" stroke-linecap="round" stroke-linejoin="round"/>
<path d="M226.648 185.711H335.519C333.758 182.414 331.668 179.303 329.282 176.425C324.282 170.49 318.047 165.718 311.011 162.444C303.975 159.171 296.309 157.473 288.548 157.472C260.19 157.472 238.598 169.282 226.648 185.711Z" fill="#87898C" stroke="#45413C" stroke-width="5" stroke-linecap="round" stroke-linejoin="round"/>
<path d="M341.92 232.761H326.228V240.607C327.996 244.777 330.948 248.338 334.719 250.848C338.49 253.358 342.914 254.707 347.444 254.729C353.7 254.624 359.659 252.04 364.012 247.546C368.366 243.051 370.758 237.013 370.664 230.756V228.811C370.439 229.905 369.924 230.92 369.174 231.748C368.423 232.576 367.464 233.187 366.397 233.518L357.423 236.34C355.898 236.823 354.247 236.701 352.809 236C351.372 235.298 350.259 234.072 349.701 232.573C348.555 233.34 347.216 233.765 345.837 233.799C344.459 233.832 343.101 233.472 341.92 232.761Z" fill="#BF8256" stroke="#45413C" stroke-width="5" stroke-linecap="round" stroke-linejoin="round"/>
<path d="M303.106 159.531C302.073 159.233 301.165 158.607 300.519 157.747C299.873 156.887 299.525 155.84 299.528 154.764V131.89H274.471V154.338C274.47 155.484 274.071 156.593 273.344 157.478C272.616 158.362 271.605 158.968 270.481 159.189C269.821 159.318 269.161 159.457 268.501 159.605C275.975 167.273 291.707 176.405 291.707 185.711C291.707 177.643 303.532 169.708 311.551 162.739C308.832 161.434 306.007 160.361 303.106 159.531Z" fill="#BF8256" stroke="#45413C" stroke-width="5" stroke-linecap="round" stroke-linejoin="round"/>
<path d="M400.067 217.461L441.489 202.854" stroke="#45413C" stroke-width="5" stroke-linecap="round" stroke-linejoin="round"/>
<path d="M230.876 296.152L249.132 301.809C250.171 302.131 251.276 302.176 252.338 301.942C253.4 301.707 254.383 301.202 255.191 300.472C255.998 299.744 256.603 298.818 256.945 297.785C257.286 296.752 257.354 295.649 257.141 294.582L256.557 291.652L274.995 268.481L292.746 262.195L268.694 250.74C268.694 250.74 236.405 266.085 227.02 287.503C226.652 288.319 226.46 289.203 226.458 290.097C226.456 290.991 226.643 291.876 227.007 292.693C227.372 293.51 227.905 294.24 228.571 294.836C229.238 295.432 230.024 295.881 230.876 296.152Z" fill="#87898C" stroke="#45413C" stroke-width="5" stroke-linecap="round" stroke-linejoin="round"/>
<path d="M300.171 242.914C299.617 243.11 299.019 243.148 298.444 243.023L281.727 239.315C276.888 242.519 272.504 246.361 268.694 250.74L292.731 262.199L400.077 217.525L407.587 204.878L300.171 242.914Z" fill="#DEBB7E" stroke="#45413C" stroke-width="5" stroke-linecap="round" stroke-linejoin="round"/>
<path d="M281.129 239.182L298.454 243.023C299.028 243.148 299.627 243.11 300.181 242.914L410.566 203.809C411.687 203.411 412.616 202.604 413.167 201.55C413.717 200.496 413.849 199.273 413.536 198.126C413.215 196.958 412.463 195.956 411.431 195.322C410.399 194.687 409.164 194.469 407.977 194.711C362.373 204.116 322.956 218.238 280.792 233.138C280.143 233.359 279.584 233.787 279.201 234.355C278.817 234.924 278.631 235.602 278.669 236.287C278.707 236.972 278.968 237.625 279.412 238.148C279.856 238.67 280.459 239.034 281.129 239.182Z" fill="#BDBEC0" stroke="#45413C" stroke-width="5" stroke-linecap="round" stroke-linejoin="round"/>
<path d="M369.219 221.292C368.759 219.763 367.971 218.352 366.91 217.158C365.849 215.964 364.54 215.015 363.075 214.379C361.61 213.742 360.024 213.433 358.427 213.472C356.83 213.511 355.261 213.898 353.829 214.605C351.467 215.86 349.623 217.907 348.619 220.386C347.615 222.865 347.516 225.618 348.34 228.163L349.533 232.162C349.77 232.958 350.163 233.699 350.689 234.342C351.215 234.985 351.863 235.516 352.596 235.907C353.329 236.297 354.132 236.539 354.959 236.616C355.786 236.694 356.62 236.607 357.413 236.36L366.402 233.558C367.979 233.067 369.298 231.975 370.075 230.517C370.851 229.06 371.022 227.355 370.55 225.772L369.219 221.292Z" fill="#BF8256" stroke="#45413C" stroke-width="5" stroke-linecap="round" stroke-linejoin="round"/>
<path d="M271.56 248.017C259.081 241.518 249.918 238.503 244.295 232.781H219.06C228.371 257.402 258.943 267.297 264.383 267.297C266.628 267.306 268.822 266.625 270.669 265.348C272.516 264.07 273.926 262.258 274.71 260.153C275.495 258.05 275.615 255.756 275.055 253.581C274.496 251.407 273.283 249.456 271.58 247.992L271.56 248.017Z" fill="#BF8256" stroke="#45413C" stroke-width="5" stroke-linecap="round" stroke-linejoin="round"/>
<path d="M342.81 114.159V102.645C342.811 95.8421 341.471 89.1052 338.868 82.8196C336.266 76.5341 332.45 70.8223 327.64 66.0114C322.83 61.2 317.119 57.3836 310.833 54.7794C304.548 52.1752 297.812 50.8347 291.008 50.8337C277.267 50.8337 264.089 56.2926 254.372 66.0095C244.655 75.7258 239.197 88.9042 239.197 102.645V129.509C239.197 135.616 241.623 141.474 245.941 145.792C250.26 150.11 256.117 152.536 262.224 152.536H304.438C314.615 152.535 324.375 148.491 331.571 141.294C338.767 134.097 342.81 124.337 342.81 114.159Z" fill="#614B44"/>
<path d="M291.009 50.8337C297.812 50.8347 304.549 52.1752 310.834 54.7794C317.119 57.3836 322.83 61.2 327.64 66.0114C332.45 70.8223 336.266 76.5341 338.869 82.8196C341.472 89.1052 342.811 95.8421 342.811 102.645V114.159C342.811 114.595 342.697 115.001 342.687 115.436C342.039 101.928 336.132 89.2081 326.228 79.9981C316.324 70.7882 303.21 65.8189 289.689 66.1535C276.169 66.4876 263.316 72.0989 253.879 81.7871C244.442 91.4752 239.171 104.471 239.192 117.995V102.65C239.191 95.8456 240.531 89.1076 243.135 82.8206C245.739 76.5336 249.556 70.8209 254.367 66.0095C259.179 61.1976 264.892 57.3806 271.179 54.7769C277.466 52.1732 284.204 50.8332 291.009 50.8337Z" fill="#A86C4D"/>
<path d="M342.81 114.159V102.645C342.811 95.8421 341.471 89.1052 338.868 82.8196C336.266 76.5341 332.45 70.8223 327.64 66.0114C322.83 61.2 317.119 57.3836 310.833 54.7794C304.548 52.1752 297.812 50.8347 291.008 50.8337C277.267 50.8337 264.089 56.2926 254.372 66.0095C244.655 75.7258 239.197 88.9042 239.197 102.645V129.509C239.197 135.616 241.623 141.474 245.941 145.792C250.26 150.11 256.117 152.536 262.224 152.536H304.438C314.615 152.535 324.375 148.491 331.571 141.294C338.767 134.097 342.81 124.337 342.81 114.159Z" stroke="#45413C" stroke-width="5" stroke-linecap="round" stroke-linejoin="round"/>
<path d="M285.252 79.6179C285.252 96.5667 259.665 109.991 252.884 109.991C255.176 142.201 272.57 152.536 290.999 152.536C296.038 152.536 301.029 151.543 305.685 149.615C310.341 147.686 314.572 144.859 318.136 141.296C321.699 137.732 324.526 133.502 326.455 128.845C328.383 124.189 329.376 119.199 329.376 114.159V98.814C329.374 96.4727 329.158 94.1368 328.733 91.8345C321.176 95.0481 312.75 95.5891 304.845 93.368C296.94 91.147 290.028 86.297 285.252 79.6179Z" fill="#BF8256" stroke="#45413C" stroke-width="5" stroke-linecap="round" stroke-linejoin="round"/>
<path d="M289.088 111.278C289.089 112.228 288.808 113.157 288.281 113.948C287.754 114.738 287.004 115.354 286.126 115.718C285.249 116.082 284.283 116.178 283.351 115.993C282.419 115.807 281.563 115.35 280.891 114.678C280.22 114.007 279.762 113.15 279.577 112.219C279.392 111.287 279.488 110.321 279.851 109.443C280.215 108.566 280.831 107.816 281.622 107.289C282.413 106.761 283.341 106.481 284.292 106.482C285.564 106.482 286.783 106.987 287.683 107.886C288.583 108.786 289.088 110.006 289.088 111.278Z" fill="#45413C"/>
<path d="M313.076 116.075C315.725 116.075 317.872 113.927 317.872 111.278C317.872 108.629 315.725 106.482 313.076 106.482C310.427 106.482 308.279 108.629 308.279 111.278C308.279 113.927 310.427 116.075 313.076 116.075Z" fill="#45413C"/>
<path d="M281.43 122.792C281.431 123.552 281.207 124.295 280.785 124.928C280.363 125.56 279.763 126.053 279.061 126.344C278.359 126.636 277.586 126.713 276.841 126.564C276.095 126.416 275.41 126.05 274.873 125.513C274.335 124.975 273.969 124.291 273.821 123.545C273.673 122.799 273.75 122.027 274.041 121.325C274.332 120.622 274.826 120.023 275.458 119.601C276.09 119.179 276.834 118.955 277.594 118.956C278.612 118.956 279.587 119.36 280.306 120.079C281.026 120.798 281.43 121.775 281.43 122.792Z" fill="#BF8256"/>
<path d="M291.009 133.697C292.838 135.321 295.137 136.32 297.572 136.549C300.007 136.778 302.453 136.224 304.552 134.969C305.189 134.597 305.793 134.171 306.359 133.697" stroke="#45413C" stroke-width="5" stroke-linecap="round" stroke-linejoin="round"/>
</svg>
