<svg width="420" height="420" viewBox="0 0 420 420" fill="none" xmlns="http://www.w3.org/2000/svg">
<path d="M12 210C12 262.513 32.8607 312.875 69.9929 350.007C107.125 387.139 157.487 408 210 408C262.513 408 312.875 387.139 350.007 350.007C387.139 312.875 408 262.513 408 210C408 157.487 387.139 107.125 350.007 69.9929C312.875 32.8607 262.513 12 210 12C157.487 12 107.125 32.8607 69.9929 69.9929C32.8607 107.125 12 157.487 12 210Z" fill="#DAEDF7" stroke="#DAEDF7" stroke-width="5"/>
<path d="M166.881 180.3L146.279 87.5865C145.069 83.6465 142.366 80.3362 138.747 78.3639C135.128 76.3915 130.881 75.9137 126.915 77.0326C122.948 78.1515 119.577 80.7783 117.522 84.351C115.467 87.9238 114.893 92.1587 115.92 96.15L140.066 199.838C140.842 202.538 141.236 205.334 141.235 208.144C141.235 280.112 155.53 277.498 162.931 312.45V363.311H253.684V303.015C253.684 270.84 276.677 256.421 326.696 194.551C330.993 189.24 335.042 179.493 329.79 172.578C327.257 169.253 323.512 167.064 319.372 166.489C315.232 165.913 311.033 166.997 307.688 169.504L278.166 192.319C276.078 193.878 273.599 194.83 271.003 195.067C268.408 195.305 265.797 194.82 263.46 193.665C261.125 192.514 259.159 190.733 257.783 188.524C256.407 186.314 255.677 183.764 255.674 181.161L275.706 58.9309C276.454 54.8408 275.557 50.621 273.21 47.1885C270.864 43.756 267.258 41.3883 263.175 40.5999C259.093 39.8114 254.864 40.666 251.408 42.9779C247.953 45.2897 245.549 48.8721 244.719 52.9464L224.424 176.642C224.38 176.88 224.395 177.107 224.36 177.345H224.132V118.692C224.132 114.507 222.47 110.493 219.51 107.534C216.551 104.574 212.537 102.912 208.352 102.912C204.166 102.912 200.153 104.574 197.193 107.534C194.234 110.493 192.571 114.507 192.571 118.692V130.453C192.498 126.316 190.803 122.373 187.851 119.473C184.899 116.572 180.926 114.947 176.788 114.947C172.65 114.947 168.677 116.572 165.725 119.473C162.773 122.373 161.078 126.316 161.005 130.453L164.643 170.331" fill="#BF8256"/>
<path d="M211.262 283.983C189.783 283.963 168.503 279.854 148.561 271.875C153.194 285.913 159.02 293.957 162.916 312.43V363.311H253.684V303.015C253.598 293.847 255.845 284.807 260.213 276.746C244.337 281.537 227.845 283.975 211.262 283.983Z" fill="#BF8256"/>
<path d="M211.651 294.242C190.874 294.22 170.29 289.726 151 281C155.482 296.353 161.117 305.15 164.885 325.354V381H252.685V315.057C252.602 305.03 254.775 295.144 259 286.327C243.644 291.567 227.691 294.234 211.651 294.242Z" fill="#BF8256"/>
<path d="M253.684 379.5V303.015C253.684 270.84 276.676 256.421 326.696 194.551C330.993 189.24 335.042 179.493 329.79 172.578C327.257 169.253 323.512 167.064 319.372 166.489C315.232 165.913 311.033 166.997 307.688 169.504L278.166 192.319C276.078 193.878 273.599 194.83 271.003 195.067C268.408 195.305 265.797 194.82 263.46 193.665C261.125 192.514 259.159 190.733 257.783 188.524C256.407 186.314 255.677 183.764 255.674 181.161L275.706 58.9309C276.454 54.8408 275.557 50.621 273.21 47.1885C270.864 43.756 267.258 41.3883 263.175 40.5999C259.093 39.8114 254.864 40.666 251.408 42.9779C247.952 45.2897 245.549 48.8721 244.719 52.9464L224.424 176.642C224.38 176.88 224.395 177.107 224.36 177.345H224.132V118.692C224.132 114.507 222.47 110.493 219.51 107.534C216.551 104.574 212.537 102.912 208.352 102.912C204.166 102.912 200.153 104.574 197.193 107.534C194.234 110.493 192.571 114.507 192.571 118.692V130.453C192.498 126.316 190.803 122.373 187.851 119.473C184.899 116.572 180.926 114.947 176.788 114.947C172.65 114.947 168.677 116.572 165.725 119.473C162.773 122.373 161.078 126.316 161.005 130.453L164.589 169.761" stroke="#45413C" stroke-width="5" stroke-linecap="round" stroke-linejoin="round"/>
<path d="M166.881 180.3L146.279 87.5866C145.069 83.6466 142.366 80.3363 138.747 78.364C135.128 76.3916 130.881 75.9138 126.915 77.0327C122.948 78.1516 119.577 80.7784 117.522 84.3512C115.467 87.9239 114.893 92.1589 115.92 96.1501L140.066 199.838C140.842 202.538 141.236 205.334 141.235 208.144C141.235 280.112 155.53 277.498 162.931 312.45V379.5" stroke="#45413C" stroke-width="5" stroke-linecap="round" stroke-linejoin="round"/>
<path d="M154.699 312.131H261.361V359.538H154.699V312.131Z" fill="#9F5AE5"/>
<path d="M154.694 317.863V322.229H261.361V317.863C261.36 316.344 260.756 314.886 259.681 313.812C258.606 312.737 257.149 312.133 255.629 312.131H160.426C158.906 312.133 157.449 312.737 156.374 313.812C155.299 314.886 154.695 316.344 154.694 317.863Z" fill="#BA88EC"/>
<path d="M154.699 312.131H261.361V359.538H154.699V312.131Z" stroke="#45413C" stroke-width="5" stroke-linecap="round" stroke-linejoin="round"/>
<path d="M169.509 346.561C169.137 346.983 168.68 347.32 168.168 347.551C167.656 347.783 167.101 347.902 166.539 347.902C165.977 347.902 165.422 347.783 164.91 347.551C164.398 347.32 163.941 346.983 163.569 346.561L156.981 339.062C156.348 338.34 156 337.413 156 336.454C156 335.494 156.348 334.567 156.981 333.845L163.569 326.341C163.941 325.919 164.398 325.582 164.91 325.351C165.422 325.12 165.977 325 166.539 325C167.101 325 167.656 325.12 168.168 325.351C168.68 325.582 169.137 325.919 169.509 326.341L176.103 333.845C176.735 334.567 177.083 335.494 177.083 336.454C177.083 337.413 176.735 338.34 176.103 339.062L169.509 346.561Z" fill="#FC0DC9" stroke="#5700B4" stroke-width="5" stroke-linecap="round" stroke-linejoin="round"/>
<path d="M212.509 346.561C212.137 346.983 211.68 347.32 211.168 347.551C210.656 347.783 210.101 347.902 209.539 347.902C208.977 347.902 208.422 347.783 207.91 347.551C207.398 347.32 206.941 346.983 206.569 346.561L199.981 339.062C199.348 338.34 199 337.413 199 336.454C199 335.494 199.348 334.567 199.981 333.845L206.569 326.341C206.941 325.919 207.398 325.582 207.91 325.351C208.422 325.12 208.977 325 209.539 325C210.101 325 210.656 325.12 211.168 325.351C211.68 325.582 212.137 325.919 212.509 326.341L219.103 333.845C219.735 334.567 220.083 335.494 220.083 336.454C220.083 337.413 219.735 338.34 219.103 339.062L212.509 346.561Z" fill="#FC0DC9" stroke="#5700B4" stroke-width="5" stroke-linecap="round" stroke-linejoin="round"/>
<path d="M232.509 346.561C232.137 346.983 231.68 347.32 231.168 347.551C230.656 347.783 230.101 347.902 229.539 347.902C228.977 347.902 228.422 347.783 227.91 347.551C227.398 347.32 226.941 346.983 226.569 346.561L219.981 339.062C219.348 338.34 219 337.413 219 336.454C219 335.494 219.348 334.567 219.981 333.845L226.569 326.341C226.941 325.919 227.398 325.582 227.91 325.351C228.422 325.12 228.977 325 229.539 325C230.101 325 230.656 325.12 231.168 325.351C231.68 325.582 232.137 325.919 232.509 326.341L239.103 333.845C239.735 334.567 240.083 335.494 240.083 336.454C240.083 337.413 239.735 338.34 239.103 339.062L232.509 346.561Z" fill="#FC0DC9" stroke="#5700B4" stroke-width="5" stroke-linecap="round" stroke-linejoin="round"/>
<path d="M190.509 346.561C190.137 346.983 189.68 347.32 189.168 347.551C188.656 347.783 188.101 347.902 187.539 347.902C186.977 347.902 186.422 347.783 185.91 347.551C185.398 347.32 184.941 346.983 184.569 346.561L177.981 339.062C177.348 338.34 177 337.413 177 336.454C177 335.494 177.348 334.567 177.981 333.845L184.569 326.341C184.941 325.919 185.398 325.582 185.91 325.351C186.422 325.12 186.977 325 187.539 325C188.101 325 188.656 325.12 189.168 325.351C189.68 325.582 190.137 325.919 190.509 326.341L197.103 333.845C197.735 334.567 198.083 335.494 198.083 336.454C198.083 337.413 197.735 338.34 197.103 339.062L190.509 346.561Z" fill="#FC0DC9" stroke="#5700B4" stroke-width="5" stroke-linecap="round" stroke-linejoin="round"/>
<path d="M253.514 346.561C253.142 346.983 252.685 347.32 252.173 347.551C251.661 347.783 251.106 347.902 250.544 347.902C249.982 347.902 249.427 347.783 248.915 347.551C248.403 347.32 247.946 346.983 247.574 346.561L240.981 339.062C240.348 338.34 240 337.413 240 336.454C240 335.494 240.348 334.567 240.981 333.845L247.574 326.341C247.946 325.919 248.403 325.582 248.915 325.351C249.427 325.12 249.982 325 250.544 325C251.106 325 251.661 325.12 252.173 325.351C252.685 325.582 253.142 325.919 253.514 326.341L260.107 333.845C260.74 334.567 261.088 335.494 261.088 336.454C261.088 337.413 260.74 338.34 260.107 339.062L253.514 346.561Z" fill="#FC0DC9" stroke="#5700B4" stroke-width="5" stroke-linecap="round" stroke-linejoin="round"/>
<path d="M192.526 130.454V177.662Z" fill="#FFCEBF"/>
<path d="M192.526 130.454V177.662" stroke="#45413C" stroke-width="5" stroke-linecap="round" stroke-linejoin="round"/>
</svg>
