<svg xmlns="http://www.w3.org/2000/svg" width="82" height="82" fill="none" viewBox="0 0 82 82"><path fill="#daedf7" stroke="#daedf7" d="M1 41a40 40 0 1 0 80 0 40 40 0 0 0-80 0Z"/><path fill="#45413c" d="M61.05 71.803c0-1.38-8.73-2.5-19.5-2.5-10.768 0-19.5 1.121-19.5 2.5s8.732 2.5 19.5 2.5c10.77 0 19.5-1.114 19.5-2.5" opacity=".15"/><path fill="#ffe500" d="M10.05 40.303a31 31 0 1 0 62 0 31 31 0 0 0-62 0"/><path fill="#fff48c" d="M71.797 44.303A31 31 0 0 0 61.59 24.846a30.966 30.966 0 0 0-41.078 0 30.99 30.99 0 0 0-10.207 19.457 31 31 0 0 1-.255-3.99 31.02 31.02 0 0 1 9.08-21.927 30.995 30.995 0 0 1 43.84 0 31.02 31.02 0 0 1 9.08 21.927c0 1.334-.084 2.667-.253 3.99"/><path stroke="#45413c" stroke-linecap="round" stroke-linejoin="round" d="M10.05 40.303a31 31 0 1 0 62 0 31 31 0 0 0-62 0"/></svg>