<svg width="460" height="460" viewBox="0 0 460 460" fill="none" xmlns="http://www.w3.org/2000/svg">
<path d="M49.439 204.884C49.439 257.397 70.2996 307.759 107.432 344.891C144.564 382.023 194.926 402.884 247.439 402.884C299.952 402.884 350.314 382.023 387.446 344.891C424.578 307.759 445.439 257.397 445.439 204.884C445.439 152.371 424.578 102.009 387.446 64.8766C350.314 27.7444 299.952 6.88379 247.439 6.88379C194.926 6.88379 144.564 27.7444 107.432 64.8766C70.2996 102.009 49.439 152.371 49.439 204.884Z" fill="#DAEDF7" stroke="#DAEDF7" stroke-width="5"/>
<path d="M382.623 451.082C382.723 451.453 382.9 451.799 383.142 452.097C383.384 452.396 383.686 452.64 384.029 452.815C384.371 452.989 384.746 453.09 385.13 453.11C385.514 453.131 385.898 453.07 386.257 452.933C391.331 450.984 395.749 447.638 399.002 443.283C402.254 438.928 404.206 433.741 404.634 428.322C405.061 422.903 403.946 417.474 401.417 412.663C398.888 407.851 395.048 403.854 390.342 401.134C385.636 398.414 380.256 397.081 374.825 397.29C369.393 397.5 364.132 399.243 359.65 402.317C355.167 405.392 351.647 409.672 349.495 414.664C347.344 419.656 346.65 425.155 347.493 430.524C347.553 430.904 347.692 431.267 347.901 431.589C348.11 431.911 348.384 432.186 348.706 432.396C349.028 432.605 349.391 432.745 349.77 432.805C350.149 432.866 350.537 432.846 350.909 432.747L358.923 430.604C359.555 430.436 360.106 430.047 360.475 429.507C360.845 428.968 361.009 428.313 360.937 427.663C360.641 424.894 361.116 422.097 362.312 419.582C363.508 417.067 365.376 414.931 367.711 413.413C370.045 411.895 372.755 411.052 375.539 410.979C378.323 410.906 381.073 411.606 383.483 412.999C385.894 414.393 387.872 416.428 389.198 418.877C390.524 421.326 391.146 424.094 390.995 426.875C390.843 429.656 389.925 432.341 388.342 434.632C386.759 436.923 384.572 438.731 382.024 439.855C381.426 440.118 380.942 440.587 380.659 441.176C380.377 441.766 380.315 442.437 380.485 443.068L382.623 451.082Z" fill="#87898C"/>
<path d="M382.623 451.082C382.723 451.453 382.9 451.799 383.142 452.097C383.384 452.396 383.686 452.64 384.029 452.815C384.371 452.989 384.746 453.09 385.13 453.11C385.514 453.131 385.898 453.07 386.257 452.933C391.331 450.984 395.749 447.638 399.002 443.283C402.254 438.928 404.206 433.741 404.634 428.322C405.061 422.903 403.946 417.474 401.417 412.663C398.888 407.851 395.048 403.854 390.342 401.134C385.636 398.414 380.256 397.081 374.825 397.29C369.393 397.5 364.132 399.243 359.65 402.317C355.167 405.392 351.647 409.672 349.495 414.664C347.344 419.656 346.65 425.155 347.493 430.524C347.553 430.904 347.692 431.267 347.901 431.589C348.11 431.911 348.384 432.186 348.706 432.396C349.028 432.605 349.391 432.745 349.77 432.805C350.149 432.866 350.537 432.846 350.909 432.747L358.923 430.604C359.555 430.436 360.106 430.047 360.475 429.507C360.845 428.968 361.009 428.313 360.937 427.663C360.641 424.894 361.116 422.097 362.312 419.582C363.508 417.067 365.376 414.931 367.711 413.413C370.045 411.895 372.755 411.052 375.539 410.979C378.323 410.906 381.073 411.606 383.483 412.999C385.894 414.393 387.872 416.428 389.198 418.877C390.524 421.326 391.146 424.094 390.995 426.875C390.843 429.656 389.925 432.341 388.342 434.632C386.759 436.923 384.572 438.731 382.024 439.855C381.426 440.118 380.942 440.587 380.659 441.176C380.377 441.766 380.315 442.437 380.485 443.068L382.623 451.082Z" stroke="#45413C" stroke-width="5" stroke-linecap="round" stroke-linejoin="round"/>
<path d="M383.898 393.242L404.868 336.478L425.442 344.079L404.472 400.843L383.898 393.242Z" fill="white"/>
<path d="M390.306 375.881L383.871 393.246L404.448 400.844L410.725 383.841C408.895 380.236 405.801 377.432 402.034 375.964C398.268 374.496 394.093 374.466 390.306 375.881Z" fill="#E0E0E0"/>
<path d="M383.898 393.242L404.868 336.478L425.442 344.079L404.472 400.843L383.898 393.242Z" stroke="#45413C" stroke-width="5" stroke-linecap="round" stroke-linejoin="round"/>
<path d="M375.045 404.359C375.045 408.721 376.778 412.905 379.863 415.99C382.947 419.075 387.131 420.808 391.494 420.808C395.856 420.808 400.04 419.075 403.125 415.99C406.21 412.905 407.943 408.721 407.943 404.359C407.943 399.996 406.21 395.812 403.125 392.728C400.04 389.643 395.856 387.91 391.494 387.91C387.131 387.91 382.947 389.643 379.863 392.728C376.778 395.812 375.045 399.996 375.045 404.359Z" fill="white" stroke="#45413C" stroke-width="5" stroke-linecap="round" stroke-linejoin="round"/>
<path d="M180.004 330.302L228.41 249.066L250.075 261.975L201.67 343.212L180.004 330.302Z" fill="white"/>
<path d="M209.774 280.337C211.518 282.751 213.808 284.718 216.458 286.077C219.108 287.435 222.042 288.147 225.02 288.153H234.455L250.053 261.972L228.391 249.062L209.774 280.337Z" fill="#E0E0E0"/>
<path d="M180.004 330.302L228.41 249.066L250.075 261.975L201.67 343.212L180.004 330.302Z" stroke="#45413C" stroke-width="5" stroke-linecap="round" stroke-linejoin="round"/>
<path d="M356.429 261.972L378.094 249.062L426.5 330.299L404.834 343.209L356.429 261.972Z" fill="white"/>
<path d="M396.726 280.337C394.983 282.751 392.692 284.718 390.042 286.077C387.392 287.435 384.458 288.147 381.48 288.153H372.025L356.428 261.972L378.089 249.062L396.726 280.337Z" fill="#E0E0E0"/>
<path d="M356.429 261.972L378.094 249.062L426.5 330.299L404.834 343.209L356.429 261.972Z" stroke="#45413C" stroke-width="5" stroke-linecap="round" stroke-linejoin="round"/>
<path d="M107.325 316.354L120.234 294.688L180.001 330.301L167.091 351.966L107.325 316.354Z" fill="white"/>
<path d="M120.234 294.692L107.324 316.353L123.575 326.03C127.336 323.811 130.572 320.804 133.059 317.215C135.547 313.626 137.227 309.541 137.985 305.24L120.234 294.692Z" fill="#E0E0E0"/>
<path d="M107.325 316.354L120.234 294.688L180.001 330.301L167.091 351.966L107.325 316.354Z" stroke="#45413C" stroke-width="5" stroke-linecap="round" stroke-linejoin="round"/>
<path d="M122.283 239.311C122.609 239.012 122.995 238.786 123.414 238.646C123.834 238.506 124.278 238.455 124.719 238.498C125.159 238.541 125.585 238.676 125.97 238.895C126.354 239.113 126.689 239.41 126.951 239.766C130.664 244.793 132.879 250.768 133.338 257.001C133.798 263.234 132.483 269.469 129.547 274.986C126.611 280.503 122.172 285.076 116.746 288.176C111.319 291.276 105.126 292.776 98.8822 292.503C92.6386 292.231 86.5997 290.196 81.4642 286.634C76.3286 283.073 72.3063 278.13 69.8624 272.378C67.4185 266.626 66.6529 260.3 67.6542 254.131C68.6555 247.962 71.3827 242.203 75.5205 237.519C75.8135 237.188 76.1726 236.923 76.5746 236.74C76.9766 236.556 77.4126 236.459 77.8544 236.455C78.2962 236.451 78.734 236.54 79.1394 236.715C79.5449 236.891 79.9089 237.149 80.2081 237.474L86.6431 244.503C87.1512 245.058 87.4443 245.776 87.4698 246.527C87.4952 247.279 87.2512 248.015 86.7817 248.602C84.787 251.101 83.5228 254.103 83.1291 257.277C82.7354 260.45 83.2275 263.67 84.551 266.581C85.8745 269.492 87.9777 271.979 90.6277 273.769C93.2778 275.558 96.3713 276.579 99.5657 276.718C102.76 276.858 105.931 276.111 108.727 274.56C111.523 273.008 113.835 270.714 115.408 267.93C116.98 265.145 117.751 261.98 117.636 258.785C117.521 255.589 116.523 252.488 114.754 249.825C114.335 249.2 114.155 248.445 114.246 247.698C114.337 246.951 114.693 246.262 115.249 245.756L122.283 239.311Z" fill="#87898C"/>
<path d="M122.283 239.311C122.609 239.012 122.995 238.786 123.414 238.646C123.834 238.506 124.278 238.455 124.719 238.498C125.159 238.541 125.585 238.676 125.97 238.895C126.354 239.113 126.689 239.41 126.951 239.766C130.664 244.793 132.879 250.768 133.338 257.001C133.798 263.234 132.483 269.469 129.547 274.986C126.611 280.503 122.172 285.076 116.746 288.176C111.319 291.276 105.126 292.776 98.8822 292.503C92.6386 292.231 86.5997 290.196 81.4642 286.634C76.3286 283.073 72.3063 278.13 69.8624 272.378C67.4185 266.626 66.6529 260.3 67.6542 254.131C68.6555 247.962 71.3827 242.203 75.5205 237.519C75.8135 237.188 76.1726 236.923 76.5746 236.74C76.9766 236.556 77.4126 236.459 77.8544 236.455C78.2962 236.451 78.734 236.54 79.1394 236.715C79.5449 236.891 79.9089 237.149 80.2081 237.474L86.6431 244.503C87.1512 245.058 87.4443 245.776 87.4698 246.527C87.4952 247.279 87.2512 248.015 86.7817 248.602C84.787 251.101 83.5228 254.103 83.1291 257.277C82.7354 260.45 83.2275 263.67 84.551 266.581C85.8745 269.492 87.9777 271.979 90.6277 273.769C93.2778 275.558 96.3713 276.579 99.5657 276.718C102.76 276.858 105.931 276.111 108.727 274.56C111.523 273.008 113.835 270.714 115.408 267.93C116.98 265.145 117.751 261.98 117.636 258.785C117.521 255.589 116.523 252.488 114.754 249.825C114.335 249.2 114.155 248.445 114.246 247.698C114.337 246.951 114.693 246.262 115.249 245.756L122.283 239.311Z" stroke="#45413C" stroke-width="5" stroke-linecap="round" stroke-linejoin="round"/>
<path d="M290.643 204.933H315.863V230.153H290.643V204.933Z" fill="#DAEDF7"/>
<path d="M290.643 204.933H315.863V217.541H290.643V204.933Z" fill="#ADC4D9"/>
<path d="M290.643 204.933H315.863V230.153H290.643V204.933Z" stroke="#45413C" stroke-width="5" stroke-linecap="round" stroke-linejoin="round"/>
<path d="M252.814 230.148H353.686V324.713H252.814V230.148Z" fill="white" stroke="#45413C" stroke-width="5" stroke-linecap="round" stroke-linejoin="round"/>
<path d="M252.815 274.283H227.594C222.579 274.281 217.769 272.288 214.223 268.741C210.677 265.194 208.685 260.384 208.685 255.369V249.062C208.685 244.047 210.677 239.237 214.223 235.69C217.769 232.143 222.579 230.15 227.594 230.148H240.207C243.551 230.148 246.757 231.477 249.122 233.841C251.486 236.206 252.815 239.412 252.815 242.756V274.283Z" fill="white" stroke="#45413C" stroke-width="5" stroke-linecap="round" stroke-linejoin="round"/>
<path d="M284.336 324.718H322.164V362.546H284.336V324.718Z" fill="#DAEDF7"/>
<path d="M284.336 324.718H322.164V343.632H284.336V324.718Z" fill="#ADC4D9"/>
<path d="M284.336 324.718H322.164V362.546H284.336V324.718Z" stroke="#45413C" stroke-width="5" stroke-linecap="round" stroke-linejoin="round"/>
<path d="M328.47 274.283C328.469 277.627 327.14 280.834 324.775 283.198C322.409 285.562 319.202 286.89 315.858 286.89H290.643C288.985 286.892 287.344 286.568 285.813 285.935C284.281 285.302 282.889 284.374 281.716 283.203C280.544 282.032 279.613 280.642 278.978 279.111C278.343 277.581 278.016 275.94 278.015 274.283V230.148H328.456L328.47 274.283Z" fill="#00B8F0"/>
<path d="M320.05 230.148L278.03 272.134V230.148H320.05Z" fill="#4ACFFF"/>
<path d="M328.47 274.283C328.469 277.627 327.14 280.834 324.775 283.198C322.409 285.562 319.202 286.89 315.858 286.89H290.643C288.985 286.892 287.344 286.568 285.813 285.935C284.281 285.302 282.889 284.374 281.716 283.203C280.544 282.032 279.613 280.642 278.978 279.111C278.343 277.581 278.016 275.94 278.015 274.283V230.148H328.456L328.47 274.283Z" stroke="#45413C" stroke-width="5" stroke-linecap="round" stroke-linejoin="round"/>
<path d="M164.794 344.929C164.794 349.945 166.786 354.756 170.333 358.303C173.881 361.85 178.691 363.843 183.708 363.843C188.724 363.843 193.535 361.85 197.082 358.303C200.629 354.756 202.622 349.945 202.622 344.929C202.622 339.913 200.629 335.102 197.082 331.555C193.535 328.008 188.724 326.015 183.708 326.015C178.691 326.015 173.881 328.008 170.333 331.555C166.786 335.102 164.794 339.913 164.794 344.929Z" fill="white" stroke="#45413C" stroke-width="5" stroke-linecap="round" stroke-linejoin="round"/>
<path d="M396.083 338.489C396.083 343.505 398.075 348.316 401.622 351.863C405.169 355.41 409.98 357.403 414.996 357.403C420.013 357.403 424.824 355.41 428.371 351.863C431.918 348.316 433.91 343.505 433.91 338.489C433.91 333.473 431.918 328.662 428.371 325.115C424.824 321.568 420.013 319.575 414.996 319.575C409.98 319.575 405.169 321.568 401.622 325.115C398.075 328.662 396.083 333.473 396.083 338.489Z" fill="white" stroke="#45413C" stroke-width="5" stroke-linecap="round" stroke-linejoin="round"/>
<path d="M88.1973 299.29C88.1973 304.306 90.19 309.117 93.737 312.664C97.2841 316.211 102.095 318.204 107.111 318.204C112.128 318.204 116.938 316.211 120.485 312.664C124.032 309.117 126.025 304.306 126.025 299.29C126.025 296.806 125.536 294.347 124.585 292.052C123.635 289.757 122.242 287.672 120.485 285.916C118.729 284.16 116.644 282.766 114.349 281.816C112.055 280.865 109.595 280.376 107.111 280.376C104.627 280.376 102.168 280.865 99.8732 281.816C97.5784 282.766 95.4934 284.16 93.737 285.916C91.9807 287.672 90.5875 289.757 89.637 292.052C88.6865 294.347 88.1973 296.806 88.1973 299.29Z" fill="white" stroke="#45413C" stroke-width="5" stroke-linecap="round" stroke-linejoin="round"/>
<path d="M339.345 362.541C341.364 362.541 343.354 363.026 345.146 363.955C346.938 364.883 348.482 366.229 349.646 367.878C350.81 369.528 351.561 371.432 351.836 373.432C352.111 375.432 351.902 377.469 351.225 379.371C347.745 389.205 341.303 397.718 332.785 403.739C324.267 409.76 314.092 412.993 303.661 412.993C293.23 412.993 283.055 409.76 274.537 403.739C266.019 397.718 259.576 389.205 256.096 379.371C255.421 377.469 255.213 375.433 255.488 373.433C255.764 371.434 256.515 369.529 257.679 367.88C258.843 366.231 260.386 364.886 262.177 363.957C263.969 363.028 265.958 362.542 267.976 362.541H339.345Z" fill="white" stroke="#45413C" stroke-width="5" stroke-linecap="round" stroke-linejoin="round"/>
<path d="M353.686 274.283H378.995C384.011 274.283 388.822 272.29 392.369 268.743C395.916 265.196 397.909 260.385 397.909 255.369V249.062C397.909 244.046 395.916 239.235 392.369 235.688C388.822 232.141 384.011 230.148 378.995 230.148H366.392C363.043 230.161 359.834 231.491 357.456 233.849C355.079 236.208 353.725 239.407 353.686 242.756V274.283Z" fill="white" stroke="#45413C" stroke-width="5" stroke-linecap="round" stroke-linejoin="round"/>
<path d="M214.987 66.2341H391.513V204.933H214.987V66.2341Z" fill="#00B8F0"/>
<path d="M374.807 66.3579L236.207 204.958H233.876C231.391 204.961 228.93 204.474 226.634 203.525C224.338 202.575 222.251 201.182 220.494 199.425C218.737 197.668 217.344 195.582 216.395 193.286C215.446 190.99 214.959 188.529 214.962 186.044V85.1481C214.959 82.6634 215.446 80.2024 216.395 77.9062C217.344 75.61 218.737 73.5236 220.494 71.7666C222.251 70.0097 224.338 68.6166 226.634 67.6673C228.93 66.7179 231.391 66.2309 233.876 66.2341H372.575C373.357 66.2341 374.045 66.2985 374.807 66.3579Z" fill="#4ACFFF"/>
<path d="M214.987 66.2341H391.513V204.933H214.987V66.2341Z" stroke="#45413C" stroke-width="5" stroke-linecap="round" stroke-linejoin="round"/>
<path d="M278.015 149.766C275.929 149.759 273.931 148.927 272.457 147.451C270.983 145.975 270.153 143.976 270.149 141.89C270.149 134.727 266.793 130.861 265.422 130.861C264.051 130.861 260.695 134.727 260.695 141.89C260.695 143.98 259.865 145.984 258.387 147.462C256.909 148.94 254.904 149.77 252.814 149.77C250.724 149.77 248.72 148.94 247.242 147.462C245.764 145.984 244.934 143.98 244.934 141.89C244.934 126.867 253.933 115.096 265.422 115.096C276.911 115.096 285.935 126.862 285.935 141.89C285.933 142.927 285.726 143.954 285.327 144.912C284.928 145.869 284.344 146.739 283.608 147.47C282.873 148.202 282 148.781 281.04 149.175C280.08 149.569 279.052 149.769 278.015 149.766Z" fill="white" stroke="#009FD9" stroke-width="5"/>
<path d="M353.686 149.766C351.602 149.756 349.606 148.923 348.134 147.448C346.662 145.972 345.834 143.974 345.83 141.89C345.83 134.727 342.474 130.861 341.103 130.861C339.732 130.861 336.371 134.727 336.371 141.89C336.371 143.98 335.54 145.984 334.063 147.462C332.585 148.94 330.58 149.77 328.49 149.77C326.4 149.77 324.396 148.94 322.918 147.462C321.44 145.984 320.61 143.98 320.61 141.89C320.61 126.867 329.609 115.096 341.103 115.096C352.597 115.096 361.591 126.867 361.591 141.89C361.589 142.926 361.383 143.952 360.985 144.908C360.586 145.865 360.003 146.734 359.269 147.465C358.535 148.196 357.664 148.776 356.706 149.171C355.748 149.565 354.722 149.767 353.686 149.766Z" fill="white" stroke="#009FD9" stroke-width="5"/>
<path d="M86.0836 120.605C81.8773 113.709 79.409 105.895 78.8913 97.8349L76.5499 61.4326H61.5613L59.2249 97.8349C58.7067 105.895 56.2403 113.708 52.0375 120.605C47.2654 128.431 44.741 137.421 44.7412 146.587V226.134C44.7412 228.119 45.5297 230.023 46.9333 231.426C48.3369 232.83 50.2406 233.618 52.2256 233.618H85.9153C87.8969 233.613 89.7955 232.822 91.1948 231.419C92.5941 230.016 93.3799 228.116 93.3799 226.134V146.568C93.3768 137.408 90.8525 128.425 86.0836 120.605Z" fill="#6DD627"/>
<path d="M69.0459 132.554C76.2032 132.556 83.2235 130.592 89.3409 126.877C88.4107 124.706 87.3289 122.604 86.1036 120.585C81.8972 113.69 79.429 105.876 78.9112 97.8151L76.5501 61.4326H61.5615L59.2251 97.8349C58.702 105.894 56.2342 113.707 52.0327 120.605C50.8055 122.622 49.7236 124.725 48.7954 126.896C54.9017 130.597 61.9055 132.554 69.0459 132.554Z" fill="#9CEB60"/>
<path d="M77.1391 70.7931L76.5352 61.4326H61.5615L60.9526 70.7931H77.1391Z" fill="#6DD627"/>
<path d="M86.0836 120.605C81.8773 113.709 79.409 105.895 78.8913 97.8349L76.5499 61.4326H61.5613L59.2249 97.8349C58.7067 105.895 56.2403 113.708 52.0375 120.605C47.2654 128.431 44.741 137.421 44.7412 146.587V226.134C44.7412 228.119 45.5297 230.023 46.9333 231.426C48.3369 232.83 50.2406 233.618 52.2256 233.618H85.9153C87.8969 233.613 89.7955 232.822 91.1948 231.419C92.5941 230.016 93.3799 228.116 93.3799 226.134V146.568C93.3768 137.408 90.8525 128.425 86.0836 120.605Z" stroke="#45413C" stroke-width="5" stroke-linecap="round" stroke-linejoin="round"/>
<path d="M57.8191 46.0234H80.2772V61.4328H57.8191V46.0234Z" fill="#6DD627" stroke="#45413C" stroke-width="5" stroke-linecap="round" stroke-linejoin="round"/>
<path d="M44.7166 214.309L93.3751 191.256V151.072L44.7166 174.124V214.309Z" fill="white" stroke="#45413C" stroke-width="5" stroke-linecap="round" stroke-linejoin="round"/>
<path d="M75.6392 46.0232H63.5365L60.1358 35.8361C59.8333 34.9264 59.7511 33.9579 59.896 33.0102C60.0409 32.0625 60.4089 31.1628 60.9696 30.3851C61.5302 29.6074 62.2676 28.974 63.1209 28.537C63.9742 28.1 64.9191 27.872 65.8778 27.8716H73.3028C74.2616 27.872 75.2065 28.1 76.0598 28.537C76.9131 28.974 77.6505 29.6074 78.2111 30.3851C78.7718 31.1628 79.1397 32.0625 79.2847 33.0102C79.4296 33.9579 79.3474 34.9264 79.0448 35.8361L75.6392 46.0232Z" fill="#E09F7E" stroke="#45413C" stroke-width="5" stroke-linecap="round" stroke-linejoin="round"/>
<path d="M93.1276 130.743C91.5224 130.744 89.9833 131.382 88.8483 132.517C87.7133 133.652 87.075 135.191 87.0737 136.797V173.105C87.0737 179.524 89.6239 185.681 94.1634 190.221C98.7028 194.76 104.86 197.31 111.279 197.31C117.699 197.31 123.856 194.76 128.395 190.221C132.935 185.681 135.485 179.524 135.485 173.105V136.797C135.485 135.192 134.848 133.653 133.713 132.518C132.579 131.382 131.041 130.744 129.436 130.743H93.1276Z" fill="#4ACFFF"/>
<path d="M135.485 154.948V173.105C135.485 179.524 132.935 185.681 128.395 190.22C123.856 194.76 117.699 197.31 111.279 197.31C104.86 197.31 98.7028 194.76 94.1634 190.22C89.6239 185.681 87.0737 179.524 87.0737 173.105V154.948C87.0737 161.368 89.6239 167.524 94.1634 172.064C98.7028 176.603 104.86 179.153 111.279 179.153C117.699 179.153 123.856 176.603 128.395 172.064C132.935 167.524 135.485 161.368 135.485 154.948Z" fill="#00B8F0"/>
<path d="M93.1276 130.743C91.5224 130.744 89.9833 131.382 88.8483 132.517C87.7133 133.652 87.075 135.191 87.0737 136.797V173.105C87.0737 179.524 89.6239 185.681 94.1634 190.221C98.7028 194.76 104.86 197.31 111.279 197.31C117.699 197.31 123.856 194.76 128.395 190.221C132.935 185.681 135.485 179.524 135.485 173.105V136.797C135.485 135.192 134.848 133.653 133.713 132.518C132.579 131.382 131.041 130.744 129.436 130.743H93.1276Z" stroke="#45413C" stroke-width="5" stroke-linecap="round" stroke-linejoin="round"/>
<path d="M111.279 197.31V233.619Z" fill="white"/>
<path d="M111.279 197.31V233.619" stroke="#45413C" stroke-width="5" stroke-linecap="round" stroke-linejoin="round"/>
<path d="M102.196 167.051C100.591 167.052 99.0526 167.69 97.9184 168.826C96.7841 169.961 96.147 171.5 96.147 173.105C96.147 177.117 97.7407 180.964 100.578 183.801C103.415 186.638 107.262 188.232 111.274 188.232C115.286 188.232 119.134 186.638 121.971 183.801C124.808 180.964 126.401 177.117 126.401 173.105C126.401 171.5 125.764 169.961 124.63 168.826C123.496 167.69 121.957 167.052 120.352 167.051H102.196Z" fill="#FFFEF2"/>
<path d="M123.382 130.743C121.777 130.744 120.239 131.382 119.104 132.518C117.97 133.653 117.333 135.192 117.333 136.797V173.105C117.333 179.524 119.883 185.681 124.423 190.221C128.962 194.76 135.119 197.31 141.538 197.31C147.958 197.31 154.115 194.76 158.654 190.221C163.194 185.681 165.744 179.524 165.744 173.105V136.797C165.744 135.194 165.109 133.658 163.978 132.523C162.847 131.388 161.312 130.748 159.71 130.743H123.382Z" fill="#4ACFFF"/>
<path d="M165.744 154.948V173.105C165.744 179.524 163.194 185.681 158.654 190.22C154.115 194.76 147.958 197.31 141.538 197.31C135.119 197.31 128.962 194.76 124.423 190.22C119.883 185.681 117.333 179.524 117.333 173.105V154.948C117.333 161.368 119.883 167.524 124.423 172.064C128.962 176.603 135.119 179.153 141.538 179.153C147.958 179.153 154.115 176.603 158.654 172.064C163.194 167.524 165.744 161.368 165.744 154.948Z" fill="#00B8F0"/>
<path d="M123.382 130.743C121.777 130.744 120.239 131.382 119.104 132.518C117.97 133.653 117.333 135.192 117.333 136.797V173.105C117.333 179.524 119.883 185.681 124.423 190.221C128.962 194.76 135.119 197.31 141.538 197.31C147.958 197.31 154.115 194.76 158.654 190.221C163.194 185.681 165.744 179.524 165.744 173.105V136.797C165.744 135.194 165.109 133.658 163.978 132.523C162.847 131.388 161.312 130.748 159.71 130.743H123.382Z" stroke="#45413C" stroke-width="5" stroke-linecap="round" stroke-linejoin="round"/>
<path d="M141.539 197.31V233.619Z" fill="white"/>
<path d="M141.539 197.31V233.619" stroke="#45413C" stroke-width="5" stroke-linecap="round" stroke-linejoin="round"/>
<path d="M132.455 167.051C130.85 167.052 129.311 167.69 128.176 168.825C127.041 169.96 126.403 171.499 126.401 173.105C126.473 177.07 128.099 180.848 130.928 183.627C133.758 186.406 137.565 187.963 141.531 187.963C145.497 187.963 149.304 186.406 152.134 183.627C154.963 180.848 156.589 177.07 156.661 173.105C156.661 172.31 156.504 171.522 156.2 170.788C155.896 170.053 155.45 169.386 154.888 168.824C154.325 168.262 153.658 167.816 152.924 167.512C152.189 167.207 151.402 167.051 150.607 167.051H132.455Z" fill="#FFFEF2"/>
<path d="M180.005 233.618C180.492 233.618 180.971 233.734 181.403 233.959C181.835 234.183 182.206 234.508 182.486 234.906C182.765 235.305 182.944 235.765 183.008 236.247C183.071 236.73 183.018 237.22 182.851 237.677C182.02 239.977 180.5 241.963 178.498 243.367C176.495 244.77 174.109 245.521 171.664 245.518H25.9314C23.4866 245.518 21.1012 244.765 19.099 243.363C17.0967 241.96 15.5746 239.975 14.7394 237.677C14.5742 237.22 14.5214 236.73 14.5856 236.248C14.6498 235.766 14.829 235.307 15.1081 234.909C15.3873 234.51 15.7581 234.185 16.1893 233.961C16.6205 233.736 17.0995 233.619 17.5857 233.618H180.005Z" fill="#DAEDF7" stroke="#45413C" stroke-width="5" stroke-linecap="round" stroke-linejoin="round"/>
</svg>
