<svg xmlns="http://www.w3.org/2000/svg" width="80" height="80" fill="none" viewBox="0 0 80 80"><g clip-path="url(#a)"><path fill="#daedf7" stroke="#daedf7" d="M0 40a40 40 0 1 0 80 0 40 40 0 0 0-80 0Z"/><path stroke="#daedf7" stroke-linecap="round" stroke-linejoin="round" d="M0 40a40 40 0 1 0 80 0 40 40 0 0 0-80 0"/><path fill="#daedf7" d="M16.082 40.876a24.415 24.415 0 1 0 48.83 0 24.415 24.415 0 0 0-48.83 0"/><path fill="#fff" d="M64.679 37.474a24.388 24.388 0 0 1-48.362 0 24.42 24.42 0 0 1 48.362 0"/><path stroke="#45413c" stroke-linecap="round" stroke-linejoin="round" d="M16.082 40.876a24.415 24.415 0 1 0 48.83 0 24.415 24.415 0 0 0-48.83 0"/><path stroke="#45413c" stroke-linecap="round" stroke-linejoin="round" d="M59.121 56.408a24.6 24.6 0 0 0-18.623-15.532M17.417 48.86a24.21 24.21 0 0 0 23.081-7.985"/><path stroke="#45413c" stroke-linecap="round" stroke-linejoin="round" d="M44.597 16.803a24.23 24.23 0 0 0-4.1 24.073M25.201 49.145a24.42 24.42 0 0 1-2.683-24.756M33.368 46.578a24.42 24.42 0 0 1 .495-29.056"/><path stroke="#45413c" stroke-linecap="round" stroke-linejoin="round" d="M40.661 23.417a24.43 24.43 0 0 1 22.743 9.064M38.973 31.893a24.555 24.555 0 0 1 25.444 13.821M55.328 49.711A24.44 24.44 0 0 1 35.51 64.79M48.859 44.041a24.42 24.42 0 0 1-25.142 14.575"/></g><defs><clipPath id="a"><path fill="#fff" d="M0 0h80v80H0z"/></clipPath></defs></svg>