<svg xmlns="http://www.w3.org/2000/svg" width="82" height="82" fill="none" viewBox="0 0 82 82"><path fill="#daedf7" stroke="#daedf7" d="M1 41a40 40 0 1 0 80 0 40 40 0 0 0-80 0Z"/><path fill="#ffe500" d="M10.99 30.174h31.95v12.78H10.99z"/><path fill="#fff48c" d="M41.94 30.174H11.99a1 1 0 0 0-1 1v2.2h31.95v-2.2a1 1 0 0 0-1-1"/><path fill="#45413c" d="M25.75 62.228c0 .262.62.522 1.824.764s2.97.463 5.195.648 4.866.333 7.774.433c2.907.1 6.023.152 9.17.152s6.263-.052 9.17-.152 5.55-.247 7.774-.433c2.226-.185 3.99-.406 5.195-.648 1.204-.242 1.824-.502 1.824-.764s-.62-.522-1.824-.764-2.97-.463-5.195-.648a164 164 0 0 0-7.774-.433c-2.907-.1-6.023-.152-9.17-.152s-6.263.052-9.17.152-5.55.247-7.774.433c-2.226.185-3.99.405-5.195.648-1.204.242-1.824.502-1.824.764" opacity=".15"/><path fill="#00b8f0" stroke="#45413c" stroke-linejoin="round" d="M10.99 42.955h31.95v12.78H10.99z"/><path stroke="#45413c" stroke-linejoin="round" d="M10.99 30.174h31.95v12.78H10.99z"/><path fill="#ff6242" d="m29.628 21.14 7.61-10.268 25.667 19.026-7.61 10.267z"/><path fill="#ff6242" d="M60.991 32.483 62.31 30.7a1 1 0 0 0-.208-1.4L38.041 11.468a1 1 0 0 0-1.4.208l-1.32 1.78z"/><path stroke="#45413c" stroke-linejoin="round" d="m29.628 21.14 7.61-10.268 25.667 19.026-7.61 10.267z"/><path fill="#6dd627" stroke="#45413c" stroke-linejoin="round" d="M27.414 37.363h43.932v23.963H27.414z"/></svg>