<svg xmlns="http://www.w3.org/2000/svg" width="87" height="87" fill="none" viewBox="0 0 87 87"><g clip-path="url(#a)"><path fill="#daedf7" d="M7.064 60.003c.546 1.2 1.17 2.363 1.828 3.5a39.944 39.944 0 0 0 69.216 0 41 41 0 0 0 1.828-3.5z"/><path fill="#b8ecff" d="M83.5 43.503a39.999 39.999 0 1 0-76.436 16.5h72.872a39.8 39.8 0 0 0 3.564-16.5"/><path stroke="#45413c" stroke-linecap="round" stroke-linejoin="round" d="M4.5 60.003h78M0 60.003h2.5M84.5 60.003H87"/><path fill="#adc4d9" d="M47.352 55.755H31.567V34.918h15.785a1 1 0 0 1 1 1v18.837a1 1 0 0 1-1 1"/><path fill="#adc4d9" d="M47.352 55.755H31.567V38.969h15.785a1 1 0 0 1 1 1v14.786a1 1 0 0 1-1 1"/><path stroke="#45413c" stroke-linecap="round" stroke-linejoin="round" d="M47.352 55.755H31.567V34.918h15.785a1 1 0 0 1 1 1v18.837a1 1 0 0 1-1 1"/><path fill="#daedf7" d="M80.187 51.703a1.16 1.16 0 0 1-1.158 1.158h-27.2v-2.316h27.2a1.16 1.16 0 0 1 1.158 1.158"/><path fill="#fff" d="M80.032 52.282a1.157 1.157 0 0 0-1-1.736h-27.2v1.157h27.2a1.16 1.16 0 0 1 1 .579"/><path stroke="#45413c" stroke-linecap="round" stroke-linejoin="round" d="M80.187 51.703a1.16 1.16 0 0 1-1.158 1.158h-27.2v-2.316h27.2a1.16 1.16 0 0 1 1.158 1.158"/><path fill="#bdbec0" d="M60.507 52.86h-2.315v6.947h2.315z"/><path fill="#87898c" d="M60.507 52.86h-2.315v1.897h2.315z"/><path stroke="#45413c" stroke-linecap="round" stroke-linejoin="round" d="M60.507 52.86h-2.315v6.947h2.315z"/><path fill="#bdbec0" d="M77.872 52.86h-2.315v6.947h2.315z"/><path fill="#87898c" d="M77.872 52.86h-2.315v1.897h2.315z"/><path stroke="#45413c" stroke-linecap="round" stroke-linejoin="round" d="M77.872 52.86h-2.315v6.947h2.315z"/><path fill="#e0e0e0" d="M25.78 55.755h5.787V40.127H26.78a1 1 0 0 0-1 1z"/><path fill="#bdbec0" d="M25.78 55.755h5.787V44.179H26.78a1 1 0 0 0-1 1z"/><path stroke="#45413c" stroke-linecap="round" stroke-linejoin="round" d="M25.78 55.755h5.787V40.127H26.78a1 1 0 0 0-1 1z"/><path fill="#f8f8f8" d="M50.825 54.018h-2.473v-14.47h2.473a1 1 0 0 1 1 1v12.47a1 1 0 0 1-1 1"/><path fill="#e0e0e0" d="M50.825 54.018h-2.473V41.284h2.973a.5.5 0 0 1 .5.5v11.234a1 1 0 0 1-1 1"/><path stroke="#45413c" stroke-linecap="round" stroke-linejoin="round" d="M50.825 54.018h-2.473v-14.47h2.473a1 1 0 0 1 1 1v12.47a1 1 0 0 1-1 1"/><path fill="#f8f8f8" d="M39.249 44.757H29.83V32.443a3.89 3.89 0 0 1 3.892-3.892h5.527a1 1 0 0 1 1 1v14.206a1 1 0 0 1-1 1"/><path fill="#e0e0e0" d="M39.249 44.757H29.83v-8.841a3.893 3.893 0 0 1 3.892-3.893h6.527v11.734a1 1 0 0 1-1 1"/><path stroke="#45413c" stroke-linecap="round" stroke-linejoin="round" d="M39.249 44.757H29.83V32.443a3.89 3.89 0 0 1 3.892-3.892h5.527a1 1 0 0 1 1 1v14.206a1 1 0 0 1-1 1"/><path fill="#87898c" stroke="#45413c" stroke-linecap="round" stroke-linejoin="round" d="M47.194 55.755H26.357v4.052h20.837z"/><path fill="#fffacf" stroke="#45413c" stroke-linecap="round" stroke-linejoin="round" d="M40.249 29.708v2.315h2.661a1.39 1.39 0 0 1 1.39 1.39v1.505h2.315v-2.154a3.057 3.057 0 0 0-3.057-3.056z"/><path fill="#6dd627" d="M35.04 35.496a1.736 1.736 0 1 0 0-3.472 1.736 1.736 0 0 0 0 3.472"/><path fill="#9ceb60" d="M35.04 33.546a1.74 1.74 0 0 1 1.56.975 1.72 1.72 0 0 0 .002-1.515 1.737 1.737 0 1 0-3.126 1.515 1.74 1.74 0 0 1 1.564-.975"/><path stroke="#45413c" stroke-linecap="round" stroke-linejoin="round" d="M35.04 35.496a1.736 1.736 0 1 0 0-3.472 1.736 1.736 0 0 0 0 3.472"/><path fill="#ff6242" d="M35.04 41.863a1.736 1.736 0 1 0 0-3.472 1.736 1.736 0 0 0 0 3.472"/><path fill="#ff6242" d="M35.04 39.913a1.74 1.74 0 0 1 1.56.975 1.72 1.72 0 0 0 .002-1.515 1.737 1.737 0 1 0-3.126 1.515 1.74 1.74 0 0 1 1.564-.975"/><path stroke="#45413c" stroke-linecap="round" stroke-linejoin="round" d="M35.04 41.863a1.736 1.736 0 1 0 0-3.472 1.736 1.736 0 0 0 0 3.472"/><path fill="#ffaa54" stroke="#45413c" stroke-linecap="round" stroke-linejoin="round" d="M48.353 48.809H31.567v3.473h16.786z"/><path fill="#ffe500" stroke="#45413c" stroke-linecap="round" stroke-linejoin="round" d="m26.322 32.003-.067.228a.365.365 0 0 0 .544.414c4.864-2.983 5.526-4.06 4.01-8.7-.637-1.945 1.231-11.1-2.463-12.336a10.435 10.435 0 0 0-15.409.547l-.03.035c-.747 1.279-1.8 1.885-1.8 7.436 0 5.55-1.847 5.552-1.847 9.253 0 3.342 2.788 4.169 6.22 4.3a.6.6 0 0 0 .566-.884 11 11 0 0 1-.209-.416z"/><path fill="#bf8df2" stroke="#45413c" stroke-linecap="round" stroke-linejoin="round" d="M28.076 45.638v29.15H13.432V52.904h-4.66v-8.65c0-2.653-.719-10.516 6.55-14.15a11.1 11.1 0 0 1 5.432-1.16c1.872.068 3.706.54 5.378 1.386a11.93 11.93 0 0 1 6.294 7.89c.288 1.101.433 2.234.432 3.372v5.658a2.926 2.926 0 0 0 2.853 2.995 2.333 2.333 0 0 1 0 4.66c-4.21-.001-7.506-3.46-7.635-9.266"/><path fill="#45413c" d="M20.754 80.864c7.352 0 13.313-.895 13.313-1.997s-5.96-1.997-13.313-1.997-13.313.894-13.313 1.997c0 1.102 5.96 1.997 13.313 1.997" opacity=".15"/><path stroke="#45413c" stroke-linecap="round" stroke-linejoin="round" d="M13.432 52.903v-11.5a4 4 0 0 0-.732-2.3 4 4 0 0 1-.6-2.182M20.73 58.898V74.79"/><path fill="#e0e0e0" stroke="#45413c" stroke-linecap="round" stroke-linejoin="round" d="M28.076 48.248H13.432v2.663h14.644z"/><path fill="#bdbec0" stroke="#45413c" stroke-linecap="round" stroke-linejoin="round" d="M22.751 48.248h-3.994v2.663h3.994z"/><path fill="#ffcebf" d="M8.772 52.903v3a2.33 2.33 0 0 0 4.66 0v-3z"/><path fill="#ff6242" stroke="#45413c" stroke-linecap="round" stroke-linejoin="round" d="M8.772 52.903v3a2.33 2.33 0 0 0 4.66 0v-3z"/><path fill="#9f5ae5" stroke="#45413c" stroke-linecap="round" stroke-linejoin="round" d="M18.051 42.177c-.452-.732-3.993-6.576-4.619-6.576H12.1l3.275-5.246 1.344 5.91zM29.407 35.603h-1.331c-.626 0-4.167 5.844-4.619 6.576l1.331-5.911 1.344-5.911z"/><path fill="#87898c" stroke="#45413c" stroke-linecap="round" stroke-linejoin="round" d="M30.049 78.783a3.994 3.994 0 0 0-3.994-3.994H20.73v2.663a1.33 1.33 0 0 0 1.332 1.33z"/><path fill="#87898c" stroke="#45413c" stroke-linecap="round" stroke-linejoin="round" d="M22.751 78.783a3.994 3.994 0 0 0-3.994-3.994h-5.325v2.663a1.33 1.33 0 0 0 1.331 1.33z"/><path stroke="#45413c" stroke-linecap="round" stroke-linejoin="round" d="M28.076 41.409c0-.826.257-1.632.734-2.306a4 4 0 0 0 .6-2.182M28.076 45.637v-4.228"/><path fill="#ff6242" stroke="#45413c" stroke-linecap="round" stroke-linejoin="round" d="M34.685 50.045c.326.132.674.2 1.026.2a2.333 2.333 0 0 1 0 4.66 7 7 0 0 1-3.4-.857z"/><path fill="#ffcebf" stroke="#45413c" stroke-linecap="round" stroke-linejoin="round" d="M24.026 29.497a1.16 1.16 0 0 1-.832-1.112v-4.4h-4.86v4.209a1.16 1.16 0 0 1-.871 1.122 10.6 10.6 0 0 0-2.137.789l1.4 6.163 2.7 11.982h2.663l2.7-11.982 1.345-5.937a12 12 0 0 0-2.108-.834"/><path fill="#fff" stroke="#45413c" stroke-linecap="round" stroke-linejoin="round" d="m24.788 36.266-2.703 11.982h-2.662L16.72 36.266z"/><path stroke="#45413c" stroke-linecap="round" stroke-linejoin="round" d="M20.754 36.266v-1.331"/><path fill="#ffcebf" stroke="#45413c" stroke-linecap="round" stroke-linejoin="round" d="M20.958 10.375a7.394 7.394 0 0 0-7.387 7.4v.988a1.51 1.51 0 0 0 .155 2.99 7.386 7.386 0 0 0 14.62-1.511v-2.465a7.4 7.4 0 0 0-7.388-7.402"/><path fill="#45413c" d="M20.035 19.626a.924.924 0 1 0 0-1.848.924.924 0 0 0 0 1.848M24.96 19.626a.924.924 0 1 0 0-1.848.924.924 0 0 0 0 1.848"/><path fill="#ffb59e" d="M17.572 22.094a.924.924 0 1 0 0-1.848.924.924 0 0 0 0 1.848"/><path stroke="#45413c" stroke-linecap="round" stroke-linejoin="round" d="M20.343 23.385a3.33 3.33 0 0 0 3.694 0"/><path fill="#ffe500" d="M12.907 12.19c-.747 1.28-1.8 1.886-1.8 7.438S9.26 25.178 9.26 28.88c0 3.342 2.788 4.169 6.22 4.3a.6.6 0 0 0 .566-.884c-.877-1.656-2.476-5.741-2.476-13.53 2.879.728 11.7-3.91 11.081-5.305 2.463 0 3.694 4.318 3.694 4.318v5.017c0 3.26-1.176 6.307-2.091 9.435a.365.365 0 0 0 .544.414c4.864-2.983 5.526-4.06 4.01-8.7-.636-1.945 1.231-11.1-2.463-12.336a10.435 10.435 0 0 0-15.409.547z"/><path stroke="#45413c" stroke-linecap="round" stroke-linejoin="round" d="M12.907 12.19c-.747 1.28-1.8 1.886-1.8 7.438S9.26 25.178 9.26 28.88c0 3.342 2.788 4.169 6.22 4.3a.6.6 0 0 0 .566-.884c-.877-1.656-2.476-5.741-2.476-13.53 2.879.728 11.7-3.91 11.081-5.305 2.463 0 3.694 4.318 3.694 4.318v5.017c0 3.26-1.176 6.307-2.091 9.435a.365.365 0 0 0 .544.414c4.864-2.983 5.526-4.06 4.01-8.7-.636-1.945 1.231-11.1-2.463-12.336a10.435 10.435 0 0 0-15.409.547z"/><path fill="#ff6242" stroke="#45413c" stroke-linecap="round" stroke-linejoin="round" d="M31.46 16.259a10.472 10.472 0 1 0-20.944 0z"/><path fill="#ff6242" stroke="#45413c" stroke-linecap="round" stroke-linejoin="round" d="M20.524 4.914a10.4 10.4 0 0 0-5.5 1.848c4.01.612 7.1 5.106 7.1 9.5H27.1c0-4.7-2.713-9.623-6.576-11.348"/><path stroke="#45413c" stroke-linecap="round" stroke-linejoin="round" d="M17.5 13.64a4.674 4.674 0 0 0-4.362-4.363"/><path fill="#6dd627" stroke="#45413c" stroke-linecap="round" stroke-linejoin="round" d="M59.5 40.503h4v9h-4z"/><path fill="#c14eff" stroke="#45413c" stroke-linecap="round" stroke-linejoin="round" d="M73.293 41.41a1 1 0 0 1 1.414 0v0a1 1 0 0 1 0 1.414l-6.364 6.364a1 1 0 0 1-1.414 0v0a1 1 0 0 1 0-1.414z"/><path fill="#6dd627" stroke="#45413c" stroke-linecap="round" stroke-linejoin="round" d="M53.5 40.503h4v9h-4z"/><path fill="#ffe500" d="M72.5 47.503a2 2 0 1 0 4 0 2 2 0 0 0-4 0"/><path fill="#fff48c" d="M76.484 47.503a1.72 1.72 0 0 0-.659-1.112 2.15 2.15 0 0 0-1.325-.445c-.488 0-.96.158-1.325.445s-.6.682-.659 1.112a2 2 0 0 1-.016-.228c0-.47.21-.921.586-1.253a2.14 2.14 0 0 1 1.414-.52c.53 0 1.04.187 1.414.52.375.332.586.783.586 1.253q0 .114-.016.228"/><path stroke="#45413c" stroke-linecap="round" stroke-linejoin="round" d="M72.5 47.503a2 2 0 1 0 4 0 2 2 0 0 0-4 0"/></g><defs><clipPath id="a"><path fill="#fff" d="M0 0h87v87H0z"/></clipPath></defs></svg>