<svg width="402" height="402" viewBox="0 0 402 402" fill="none" xmlns="http://www.w3.org/2000/svg">
<g clip-path="url(#clip0_247_2)">
<path d="M3 198.337C3 250.85 23.8607 301.212 60.9929 338.344C98.1251 375.476 148.487 396.337 201 396.337C253.513 396.337 303.875 375.476 341.007 338.344C378.139 301.212 399 250.85 399 198.337C399 145.824 378.139 95.462 341.007 58.3298C303.875 21.1976 253.513 0.336914 201 0.336914C148.487 0.336914 98.1251 21.1976 60.9929 58.3298C23.8607 95.462 3 145.824 3 198.337Z" fill="#B8ECFF"/>
<path d="M229.799 99.9605H171.884L175.28 81.492C175.489 80.3542 176.091 79.3256 176.98 78.585C177.869 77.8444 178.989 77.4385 180.146 77.438H221.543C222.7 77.4385 223.82 77.8444 224.709 78.585C225.598 79.3256 226.199 80.3542 226.409 81.492L229.799 99.9605Z" fill="#DAEDF7" stroke="#45413C" stroke-width="5" stroke-linecap="round" stroke-linejoin="round"/>
<path d="M239.451 138.571H162.231L165.696 101.238C165.81 100.01 166.378 98.8682 167.289 98.0368C168.2 97.2055 169.388 96.7441 170.622 96.7432H231.081C232.319 96.738 233.513 97.1965 234.43 98.0285C235.346 98.8604 235.917 100.005 236.031 101.238L239.451 138.571Z" fill="#DAEDF7" stroke="#45413C" stroke-width="5" stroke-linecap="round" stroke-linejoin="round"/>
<path d="M245.886 161.093H155.796L158.91 120.617C159.006 119.371 159.57 118.208 160.488 117.361C161.406 116.513 162.611 116.044 163.86 116.048H237.838C239.087 116.044 240.292 116.513 241.21 117.361C242.128 118.208 242.691 119.371 242.788 120.617L245.886 161.093Z" fill="#DAEDF7" stroke="#45413C" stroke-width="5" stroke-linecap="round" stroke-linejoin="round"/>
<path d="M241.021 155.46C239.99 154.945 238.852 154.677 237.7 154.678H163.989C162.836 154.677 161.699 154.945 160.668 155.46L152.099 159.742C151.276 160.153 150.584 160.785 150.101 161.568C149.617 162.35 149.361 163.252 149.362 164.172V247.966H252.322V164.152C252.323 163.233 252.068 162.332 251.585 161.549C251.102 160.767 250.411 160.134 249.589 159.722L241.021 155.46Z" fill="#8CA4B8" stroke="#45413C" stroke-width="5" stroke-linecap="round" stroke-linejoin="round"/>
<path d="M344.114 103.084C342.968 103.089 341.833 103.309 340.768 103.732C340.195 100.095 338.343 96.7821 335.544 94.3895C332.745 91.997 329.184 90.6824 325.502 90.6824C321.82 90.6824 318.259 91.997 315.46 94.3895C312.662 96.7821 310.809 100.095 310.236 103.732C309.171 103.309 308.036 103.089 306.89 103.084C304.459 103.14 302.146 104.145 300.446 105.885C298.746 107.625 297.794 109.96 297.794 112.392C297.794 114.825 298.746 117.16 300.446 118.9C302.146 120.64 304.459 121.645 306.89 121.701H344.114C346.546 121.645 348.859 120.64 350.559 118.9C352.259 117.16 353.211 114.825 353.211 112.392C353.211 109.96 352.259 107.625 350.559 105.885C348.859 104.145 346.546 103.14 344.114 103.084ZM96.1539 184.888C95.0068 184.894 93.8707 185.112 92.8028 185.531C92.2335 181.892 90.3826 178.576 87.5839 176.181C84.7852 173.786 81.2229 172.47 77.5394 172.47C73.8559 172.47 70.2936 173.786 67.4949 176.181C64.6963 178.576 62.8454 181.892 62.2761 185.531C61.0026 185.04 59.6365 184.835 58.2747 184.931C56.913 185.027 55.5892 185.421 54.3972 186.087C53.2053 186.752 52.1745 187.672 51.3781 188.78C50.5818 189.889 50.0394 191.16 49.7894 192.502C49.5395 193.844 49.5882 195.224 49.9321 196.545C50.276 197.866 50.9066 199.096 51.7791 200.145C52.6516 201.195 53.7447 202.04 54.9806 202.62C56.2164 203.199 57.5648 203.5 58.9299 203.5H96.1539C98.622 203.5 100.989 202.519 102.734 200.774C104.479 199.029 105.46 196.662 105.46 194.194C105.46 191.726 104.479 189.359 102.734 187.613C100.989 185.868 98.622 184.888 96.1539 184.888Z" fill="white" stroke="#45413C" stroke-width="5" stroke-linejoin="round"/>
<path d="M200.841 77.438C196.575 77.438 192.483 79.133 189.466 82.15C186.449 85.1669 184.754 89.2589 184.754 93.5255V109.613H216.929V93.5255C216.929 89.2589 215.234 85.1669 212.217 82.15C209.2 79.133 205.108 77.438 200.841 77.438ZM187.971 77.438L196.649 47.0549C196.909 46.1441 197.46 45.343 198.216 44.7726C198.972 44.2023 199.894 43.8938 200.841 43.8938C201.789 43.8938 202.71 44.2023 203.467 44.7726C204.223 45.343 204.773 46.1441 205.034 47.0549L213.711 77.4281L187.971 77.438Z" fill="#DAEDF7" stroke="#45413C" stroke-width="5" stroke-linecap="round" stroke-linejoin="round"/>
<path d="M200.842 43.902V22.7407" stroke="#45413C" stroke-width="5" stroke-linecap="round" stroke-linejoin="round"/>
<path d="M200.842 96.7432C197.461 96.7432 194.114 97.4089 190.991 98.7025C187.868 99.9961 185.031 101.892 182.641 104.282C180.25 106.672 178.354 109.51 177.061 112.633C175.767 115.756 175.102 119.103 175.102 122.483V164.311H226.582V122.483C226.582 115.656 223.87 109.109 219.043 104.282C214.215 99.455 207.668 96.7432 200.842 96.7432Z" fill="#DAEDF7" stroke="#45413C" stroke-width="5" stroke-linecap="round" stroke-linejoin="round"/>
<path d="M200.842 116.048C192.308 116.048 184.124 119.438 178.09 125.472C172.056 131.506 168.667 139.69 168.667 148.223V170.746H233.017V148.223C233.017 143.998 232.184 139.814 230.567 135.91C228.95 132.007 226.58 128.46 223.593 125.472C220.605 122.484 217.058 120.114 213.154 118.497C209.251 116.88 205.067 116.048 200.842 116.048Z" fill="#DAEDF7" stroke="#45413C" stroke-width="5" stroke-linecap="round" stroke-linejoin="round"/>
<path d="M200.841 138.571C190.601 138.571 180.781 142.638 173.54 149.879C166.299 157.12 162.231 166.941 162.231 177.181V222.226H239.451V177.181C239.451 166.941 235.384 157.12 228.143 149.879C220.902 142.638 211.081 138.571 200.841 138.571Z" fill="#ADC4D9" stroke="#45413C" stroke-width="5" stroke-linecap="round" stroke-linejoin="round"/>
<path d="M252.322 247.966H239.452V222.226H226.582V177.181C226.582 170.354 223.87 163.807 219.043 158.98C214.215 154.153 207.668 151.441 200.842 151.441C194.015 151.441 187.468 154.153 182.641 158.98C177.814 163.807 175.102 170.354 175.102 177.181V222.226H162.232V247.966H149.362V361.291H136.244V390.773C178.085 405.257 223.575 405.294 265.439 390.877V361.291H252.322V247.966Z" fill="#E0E0E0"/>
<path d="M200.842 173.963C207.668 173.963 214.216 176.675 219.043 181.502C223.87 186.329 226.582 192.876 226.582 199.703V177.181C226.582 170.354 223.87 163.807 219.043 158.98C214.216 154.153 207.668 151.441 200.842 151.441C194.015 151.441 187.468 154.153 182.641 158.98C177.814 163.807 175.102 170.354 175.102 177.181V199.703C175.102 192.876 177.814 186.329 182.641 181.502C187.468 176.675 194.015 173.963 200.842 173.963ZM239.452 254.802C239.452 256.114 239.973 257.373 240.902 258.302C241.83 259.23 243.089 259.752 244.402 259.752H252.322V247.966H239.452V254.802ZM226.582 229.062C226.582 230.374 227.103 231.634 228.032 232.562C228.96 233.49 230.219 234.012 231.532 234.012H239.452V222.226H226.582V229.062ZM162.232 254.802V247.966H149.362V259.752H157.282C158.595 259.752 159.854 259.23 160.782 258.302C161.71 257.373 162.232 256.114 162.232 254.802ZM175.102 229.062V222.226H162.232V234.012H170.152C171.465 234.012 172.724 233.49 173.652 232.562C174.58 231.634 175.102 230.374 175.102 229.062Z" fill="#F8F8F8"/>
<path d="M252.322 247.966H258.757M142.927 247.966H149.362" stroke="#45413C" stroke-width="5" stroke-linecap="round" stroke-linejoin="round"/>
<path d="M210.494 401.416V180.398C210.494 177.838 209.477 175.383 207.667 173.573C205.857 171.763 203.401 170.746 200.841 170.746C198.281 170.746 195.826 171.763 194.016 173.573C192.206 175.383 191.189 177.838 191.189 180.398V401.416" fill="#00B8F0"/>
<path d="M210.494 239.808V180.408C210.494 177.848 209.477 175.393 207.667 173.583C205.857 171.772 203.401 170.755 200.841 170.755C198.281 170.755 195.826 171.772 194.016 173.583C192.206 175.393 191.189 177.848 191.189 180.408V282.333L210.494 239.808Z" fill="#4ACFFF"/>
<path d="M210.494 401.416V180.398C210.494 177.838 209.477 175.383 207.667 173.573C205.857 171.763 203.401 170.746 200.841 170.746C198.281 170.746 195.826 171.763 194.016 173.573C192.206 175.383 191.189 177.838 191.189 180.398V401.416" stroke="#45413C" stroke-width="5" stroke-linecap="round" stroke-linejoin="round"/>
<path d="M178.319 346.594V265.786C178.319 264.473 177.798 263.214 176.869 262.286C175.941 261.357 174.682 260.836 173.369 260.836H170.399C169.086 260.836 167.827 261.357 166.899 262.286C165.971 263.214 165.449 264.473 165.449 265.786V346.594H178.319Z" fill="#00B8F0"/>
<path d="M178.319 310.652V265.786C178.319 264.473 177.798 263.214 176.869 262.286C175.941 261.357 174.682 260.836 173.369 260.836H170.399C169.086 260.836 167.827 261.357 166.899 262.286C165.971 263.214 165.449 264.473 165.449 265.786V338.986L178.319 310.652Z" fill="#4ACFFF"/>
<path d="M178.319 346.594V265.786C178.319 264.473 177.798 263.214 176.869 262.286C175.941 261.357 174.682 260.836 173.369 260.836H170.399C169.086 260.836 167.827 261.357 166.899 262.286C165.971 263.214 165.449 264.473 165.449 265.786V346.594H178.319Z" stroke="#45413C" stroke-width="5" stroke-linecap="round" stroke-linejoin="round"/>
<path d="M223.364 361.291V401.361C232.037 400.388 240.636 398.842 249.104 396.733V361.291H223.364Z" fill="#00B8F0"/>
<path d="M223.364 387.031V361.291H249.104L223.364 387.031Z" fill="#4ACFFF"/>
<path d="M249.104 395.525V361.291H223.364V400.396" stroke="#45413C" stroke-width="5" stroke-linecap="round" stroke-linejoin="round"/>
<path d="M152.579 361.291V396.664C161.046 398.786 169.645 400.34 178.319 401.317V361.291H152.579Z" fill="#00B8F0"/>
<path d="M152.579 387.031V361.291H178.319L152.579 387.031Z" fill="#4ACFFF"/>
<path d="M178.319 400.396V361.291H152.579V395.693M200.842 138.571V128.918M212.776 140.447L216.929 132.136M188.912 140.447L184.754 132.136M200.842 116.048V106.396M209.356 117.187L213.712 112.831M192.328 117.187L187.972 112.831M200.842 96.7431V90.3081M191.189 196.486H210.494M191.189 230.67H210.494M191.189 264.86H210.494M191.189 299.05H210.494M191.189 333.234H210.494M165.449 286.576H178.319M165.449 316.548H178.319" stroke="#45413C" stroke-width="5" stroke-linecap="round" stroke-linejoin="round"/>
<path d="M236.234 346.594V265.786C236.234 264.473 235.713 263.214 234.784 262.286C233.856 261.357 232.597 260.836 231.284 260.836H228.314C227.001 260.836 225.742 261.357 224.814 262.286C223.886 263.214 223.364 264.473 223.364 265.786V346.594H236.234Z" fill="#00B8F0"/>
<path d="M236.234 310.652V265.786C236.234 264.473 235.713 263.214 234.784 262.286C233.856 261.357 232.597 260.836 231.284 260.836H228.314C227.001 260.836 225.742 261.357 224.814 262.286C223.886 263.214 223.364 264.473 223.364 265.786V338.986L236.234 310.652Z" fill="#4ACFFF"/>
<path d="M223.364 286.576H236.234M223.364 316.548H236.234M236.234 346.594V265.786C236.234 264.473 235.713 263.214 234.784 262.286C233.856 261.357 232.597 260.836 231.284 260.836H228.314C227.001 260.836 225.742 261.357 224.814 262.286C223.886 263.214 223.364 264.473 223.364 265.786V346.594H236.234Z" stroke="#45413C" stroke-width="5" stroke-linecap="round" stroke-linejoin="round"/>
<path d="M265.439 391.669V346.57H252.322V247.966H239.452V222.226H226.582V177.181C226.582 170.354 223.87 163.807 219.043 158.98C214.215 154.153 207.668 151.441 200.842 151.441C194.015 151.441 187.468 154.153 182.641 158.98C177.814 163.807 175.102 170.354 175.102 177.181V222.226H162.232V247.966H149.362V346.594H136.244V390.828" stroke="#45413C" stroke-width="5" stroke-linecap="round" stroke-linejoin="round"/>
<path d="M136.249 346.594H191.194V361.296H136.249V346.594ZM210.494 346.594H265.439V361.296H210.494V346.594Z" fill="#F0D3A8" stroke="#45413C" stroke-width="5" stroke-linecap="round" stroke-linejoin="round"/>
<path d="M136.244 346.594V361.291H136.155C132.779 361.291 129.505 360.13 126.884 358.002C124.263 355.873 122.454 352.908 121.76 349.604C121.69 349.238 121.701 348.862 121.792 348.501C121.884 348.141 122.054 347.804 122.29 347.517C122.527 347.23 122.823 346.998 123.16 346.838C123.496 346.679 123.863 346.595 124.235 346.594H136.244ZM265.439 346.594V361.291H265.553C268.929 361.291 272.202 360.129 274.822 358.001C277.442 355.873 279.25 352.908 279.943 349.604C280.015 349.238 280.006 348.861 279.915 348.5C279.824 348.138 279.654 347.801 279.417 347.513C279.18 347.226 278.883 346.994 278.546 346.835C278.208 346.676 277.84 346.594 277.468 346.594H265.439Z" fill="#DAEDF7" stroke="#45413C" stroke-width="5" stroke-linecap="round" stroke-linejoin="round"/>
<path d="M165.449 361.291V399.431M236.234 361.291V399.485" stroke="#45413C" stroke-width="5" stroke-linecap="round" stroke-linejoin="round"/>
</g>
<defs>
<clipPath id="clip0_247_2">
<rect width="402" height="402" fill="white"/>
</clipPath>
</defs>
</svg>
