<svg xmlns="http://www.w3.org/2000/svg" width="82" height="82" fill="none" viewBox="0 0 82 82"><path fill="#b8ecff" stroke="#b8ecff" stroke-miterlimit="10" d="M1 41a40 40 0 1 0 80 0 40 40 0 0 0-80 0Z"/><path fill="#ffe500" d="M46 26.386a12.329 12.329 0 1 0 24.658 0 12.329 12.329 0 0 0-24.657 0"/><path fill="#fff48c" d="M58.33 18.46A12.325 12.325 0 0 1 70.45 28.588a12.331 12.331 0 1 0-24.242 0 12.324 12.324 0 0 1 12.12-10.128"/><path stroke="#45413c" stroke-linecap="round" stroke-linejoin="round" d="M46 26.386a12.329 12.329 0 1 0 24.658 0 12.329 12.329 0 0 0-24.657 0"/><path fill="#daedf7" d="M62.842 31.85a8.1 8.1 0 0 0-.323-4.817 7.93 7.93 0 0 0-2.997-3.74 7.7 7.7 0 0 0-4.566-1.287 7.72 7.72 0 0 0-4.457 1.64 15.66 15.66 0 0 0-7.969-5.118 15.4 15.4 0 0 0-9.41.453 15.74 15.74 0 0 0-7.46 5.86A16.2 16.2 0 0 0 22.838 34v.102a7.4 7.4 0 0 0-.986-.102c-2.082 0-4.08.843-5.552 2.343A8.08 8.08 0 0 0 14 42c0 2.122.827 4.156 2.3 5.657A7.78 7.78 0 0 0 21.85 50h35.327a9.68 9.68 0 0 0 5.799-1.919 9.98 9.98 0 0 0 3.562-5.04c.632-2.024.614-4.2-.051-6.212a9.97 9.97 0 0 0-3.646-4.98"/><path fill="#fff" d="M63.355 47.205a9.79 9.79 0 0 0 3.64-7.939 9.78 9.78 0 0 0-4.153-7.682 7.8 7.8 0 0 0-3.32-8.393 7.81 7.81 0 0 0-9.022.347 15.695 15.695 0 0 0-17.378-4.576 15.68 15.68 0 0 0-10.283 14.73v.1a8 8 0 0 0-.986-.1 7.855 7.855 0 0 0-7.498 5.514A7.84 7.84 0 0 0 17.395 48a7.633 7.633 0 0 1 4.433-9.905 7.65 7.65 0 0 1 3.96-.385c0-.033-.006-.066-.006-.099 0-14.211 16.991-19.76 23.554-9.807 5.753-4.366 12.083 1.31 10.563 7.698a9.79 9.79 0 0 1 4.156 7.994 9.9 9.9 0 0 1-.7 3.709"/><path stroke="#45413c" stroke-linecap="round" stroke-linejoin="round" d="M62.842 31.85a8.1 8.1 0 0 0-.323-4.817 7.93 7.93 0 0 0-2.997-3.74 7.7 7.7 0 0 0-4.566-1.287 7.72 7.72 0 0 0-4.457 1.64 15.66 15.66 0 0 0-7.969-5.118 15.4 15.4 0 0 0-9.41.453 15.74 15.74 0 0 0-7.46 5.86A16.2 16.2 0 0 0 22.838 34v.102a7.4 7.4 0 0 0-.986-.102c-2.082 0-4.08.843-5.552 2.343A8.08 8.08 0 0 0 14 42c0 2.122.827 4.156 2.3 5.657A7.78 7.78 0 0 0 21.85 50h35.327a9.68 9.68 0 0 0 5.799-1.919 9.98 9.98 0 0 0 3.562-5.04c.632-2.024.614-4.2-.051-6.212a9.97 9.97 0 0 0-3.646-4.98"/><path fill="#d9fdff" stroke="#45413c" stroke-linecap="round" stroke-linejoin="round" d="M53.429 57.238a1.66 1.66 0 0 1-1.155.463c-.433 0-.849-.167-1.155-.463a1.57 1.57 0 0 1-.447-.812 1.54 1.54 0 0 1 .094-.916L52.274 52l1.507 3.51c.125.29.158.608.095.916-.063.307-.218.59-.447.812m-11.945 0a1.66 1.66 0 0 1-1.155.463 1.66 1.66 0 0 1-1.155-.463 1.57 1.57 0 0 1-.447-.812 1.54 1.54 0 0 1 .094-.916L40.33 52l1.508 3.51c.124.29.157.608.094.916-.062.307-.218.59-.447.812m-11.945 0a1.66 1.66 0 0 1-1.155.463 1.66 1.66 0 0 1-1.154-.463 1.57 1.57 0 0 1-.448-.812 1.54 1.54 0 0 1 .095-.916L28.384 52l1.508 3.51c.125.29.157.608.095.916a1.57 1.57 0 0 1-.448.812m29.982 6.298a1.6 1.6 0 0 1-.53.343 1.68 1.68 0 0 1-1.78-.343 1.57 1.57 0 0 1-.447-.812 1.54 1.54 0 0 1 .095-.915l1.507-3.511 1.508 3.51c.125.29.158.608.095.916a1.57 1.57 0 0 1-.448.812m-11.944 0a1.6 1.6 0 0 1-.53.343 1.68 1.68 0 0 1-1.78-.343 1.57 1.57 0 0 1-.447-.812 1.54 1.54 0 0 1 .094-.915l1.508-3.511 1.507 3.51c.125.29.158.608.095.916-.062.308-.218.59-.447.812m-11.945 0a1.6 1.6 0 0 1-.53.343 1.68 1.68 0 0 1-1.78-.343 1.57 1.57 0 0 1-.447-.811 1.54 1.54 0 0 1 .094-.916l1.51-3.511 1.507 3.51c.125.29.157.608.094.916s-.22.59-.448.812m-11.844 0a1.6 1.6 0 0 1-.53.343 1.68 1.68 0 0 1-1.78-.343 1.57 1.57 0 0 1-.447-.812 1.54 1.54 0 0 1 .095-.915l1.507-3.511 1.508 3.51c.125.29.158.608.095.916a1.57 1.57 0 0 1-.448.812"/></svg>