<svg xmlns="http://www.w3.org/2000/svg" width="160" height="160" fill="none"><path fill="#c7f0ff" stroke="#c7f0ff" stroke-miterlimit="10" stroke-width="1.6" d="M16 80a64 64 0 1 0 127.999 0A64 64 0 0 0 16 80z"/><path fill="url(#a)" d="M20.856 103.768q-5.248 0-9.024-1.536-3.775-1.6-6.144-4.224l4.352-5.952A18.9 18.9 0 0 0 14.584 95a12.96 12.96 0 0 0 5.376 1.152q3.328 0 5.44-1.216 2.175-1.28 2.176-3.584 0-1.344-.576-2.432t-1.984-1.792q-1.408-.768-3.776-1.152-2.369-.448-5.952-.448v-6.656q6.016 0 8.448-1.472 2.496-1.536 2.496-3.968 0-2.112-1.6-3.264-1.6-1.215-4.416-1.216-2.432 0-4.48.96t-4.16 2.624l-4.736-5.76q3.008-2.432 6.4-3.776 3.456-1.408 7.424-1.408 3.328 0 6.08.768 2.752.705 4.736 2.176 1.985 1.408 3.072 3.456 1.088 2.048 1.088 4.736 0 3.2-2.048 5.44-2.048 2.175-5.696 3.584v.256q3.84 1.024 6.464 3.52 2.624 2.432 2.624 6.4 0 2.816-1.344 5.056-1.28 2.175-3.52 3.712Q29.945 102.167 27 103q-2.944.768-6.144.768M43.743 103l11.008-16.512-10.304-15.232h10.112l3.264 5.12q.705 1.344 1.6 2.752a95 95 0 0 1 1.728 2.688h.256q.64-1.344 1.28-2.752l1.344-2.688 2.816-5.12h9.856l-10.368 16.32L77.343 103H67.231l-3.648-5.248A319 319 0 0 0 61.727 95a154 154 0 0 0-1.792-2.752h-.256q-.705 1.344-1.472 2.752a56 56 0 0 0-1.472 2.752L53.599 103zm51.751-6.016V85.208H84.23v-6.656h11.264V66.776h6.912v11.776h11.264v6.656h-11.264v11.776zM123.181 103v-7.616h10.944V71.896h-9.024v-5.824a89 89 0 0 0 3.648-.64 33 33 0 0 0 3.008-.832 28 28 0 0 0 2.496-.96q1.216-.576 2.368-1.28h6.912v33.024h9.216V103z"/><defs><linearGradient id="a" x1="80" x2="80" y1="40" y2="120" gradientUnits="userSpaceOnUse"><stop stop-color="#20f"/><stop offset="1" stop-color="#9e00ff"/></linearGradient></defs></svg>