<svg xmlns="http://www.w3.org/2000/svg" width="100" height="100" viewBox="0 0 100 100"><desc>Detective 1 4 Streamline Illustration: https://streamlinehq.com</desc><path fill="#b8ecff" d="M90.5 50.663a40 40 0 1 0-76.436 16.5h72.872a39.84 39.84 0 0 0 3.564-16.5"/><path fill="#f0d3a8" d="M14.064 67.163a40 40 0 0 0 72.872 0Z"/><path fill="none" stroke="#45413c" stroke-linecap="round" stroke-linejoin="round" d="M11 67.163h78M6.5 67.163H9M91 67.163h2.5"/><path fill="#614b44" stroke="#45413c" stroke-linecap="round" stroke-linejoin="round" d="M76.8 33.953c-1.423-.359-2.157-2.065-2.7-3.929v-4.377a12.6 12.6 0 1 0-25.2 0v4.377c-.539 1.864-1.273 3.57-2.7 3.929-2.659.671-1.3 4.242.31 5.986a8.1 8.1 0 0 0 5.99 2.453 20.8 20.8 0 0 0 9 2.614 20.8 20.8 0 0 0 9.007-2.614 8.1 8.1 0 0 0 5.979-2.453c1.614-1.739 2.972-5.315.314-5.986"/><path fill="#b89558" d="M61.5 42.653a16.425 16.425 0 0 0-16.273 16.424v8.011h32.55v-8.011A16.424 16.424 0 0 0 61.5 42.653"/><path fill="#debb7e" d="M61.5 42.653a16.425 16.425 0 0 0-16.273 16.424v5.01a16.276 16.276 0 1 1 32.55 0v-5.01A16.424 16.424 0 0 0 61.5 42.653"/><path fill="none" stroke="#45413c" stroke-linecap="round" stroke-linejoin="round" d="M61.5 42.653a16.425 16.425 0 0 0-16.273 16.424v8.011h32.55v-8.011A16.424 16.424 0 0 0 61.5 42.653"/><path fill="#fff" stroke="#45413c" stroke-linecap="round" stroke-linejoin="round" d="M69.82 45a15.91 15.91 0 0 0-16.636 0 8.82 8.82 0 0 0 8.316 7.386A8.82 8.82 0 0 0 69.82 45"/><path fill="#daedf7" stroke="#45413c" stroke-linecap="round" stroke-linejoin="round" d="M56.252 38.738v4.512a2.55 2.55 0 0 0 2.02 2.437 13.3 13.3 0 0 0 6.46 0 2.55 2.55 0 0 0 2.02-2.437v-4.512Z"/><path fill="none" stroke="#45413c" stroke-linecap="round" stroke-linejoin="round" d="M59.402 45.902v-4.225M63.602 45.891v-4.214"/><path fill="#f8f8f8" stroke="#45413c" stroke-linecap="round" stroke-linejoin="round" d="m76.636 59.881.96-2.937 1.679.55-.96 2.936z"/><path fill="#f8f8f8" stroke="#45413c" stroke-linecap="round" stroke-linejoin="round" d="M79.942 58.105a6.622 6.622 0 1 0 .272-13.241 6.622 6.622 0 1 0-.272 13.241"/><path fill="#00b8f0" d="M84.615 52.968a4.773 4.773 0 1 1-3.053-6.02 4.774 4.774 0 0 1 3.053 6.02"/><path fill="#4acfff" d="M84.337 49.331a4.773 4.773 0 1 0-8.513 4.317Z"/><path fill="none" stroke="#45413c" d="M84.615 52.968a4.773 4.773 0 1 1-3.053-6.02 4.774 4.774 0 0 1 3.053 6.02Z"/><path fill="#e09f7e" d="M75.347 66.659a1.324 1.324 0 0 1-.847-1.67l1.716-5.245a.44.44 0 0 1 .556-.283l1.679.549a.44.44 0 0 1 .282.557l-1.715 5.245a1.325 1.325 0 0 1-1.671.847"/><path fill="#f0c2a1" d="m77.612 59.736-.84-.275a.44.44 0 0 0-.556.283L74.5 64.989a1.324 1.324 0 0 0 .847 1.67Z"/><path fill="none" stroke="#45413c" d="M75.347 66.659a1.324 1.324 0 0 1-.847-1.67l1.716-5.245a.44.44 0 0 1 .556-.283l1.679.549a.44.44 0 0 1 .282.557l-1.715 5.245a1.325 1.325 0 0 1-1.671.847Z"/><path fill="#bf8256" d="M79.121 69.542a1.26 1.26 0 0 1-1.355.675l-2.874-.524a3.03 3.03 0 0 1-2.438-3.528l.272-1.491a3.03 3.03 0 0 1 3.527-2.439l2.874.524a1.26 1.26 0 0 1 1.029 1.11 10.2 10.2 0 0 1-1.035 5.673"/><path fill="#e09f7e" d="m73.35 68.221.273-1.491a3.03 3.03 0 0 1 3.527-2.439l2.874.524a1 1 0 0 1 .188.05q0-.5-.056-1a1.26 1.26 0 0 0-1.029-1.11l-2.874-.524a3.03 3.03 0 0 0-3.527 2.439l-.272 1.491a3.03 3.03 0 0 0 .849 2.7 3 3 0 0 1 .047-.64"/><path fill="none" stroke="#45413c" stroke-linecap="round" stroke-linejoin="round" d="M79.121 69.542a1.26 1.26 0 0 1-1.355.675l-2.874-.524a3.03 3.03 0 0 1-2.438-3.528l.272-1.491a3.03 3.03 0 0 1 3.527-2.439l2.874.524a1.26 1.26 0 0 1 1.029 1.11 10.2 10.2 0 0 1-1.035 5.673M72.002 67.088v-6.825M51.002 67.088v-6.825"/><path fill="#45413c" d="M20.462 73.913a20.258 1.575 0 1 0 40.516 0 20.258 1.575 0 1 0-40.516 0" opacity=".15"/><path fill="#daedf7" stroke="#45413c" stroke-linejoin="round" d="M45.7 69.7h2.527L42.189 51a1.265 1.265 0 0 0-1.2-.876h-1.61"/><path fill="#adc4d9" stroke="#45413c" stroke-linejoin="round" d="M21.058 69.7H45.7l-6.321-19.581h-22.9a1.264 1.264 0 0 0-1.2 1.652Z"/><path fill="#adc4d9" d="M22.714 50.119h16.665l6.318 19.585h-3.398z"/><path fill="#adc4d9" stroke="#45413c" stroke-linejoin="round" d="M21.058 69.7h25.9v3.159H23.585a2.527 2.527 0 0 1-2.527-2.527Z"/><path fill="#daedf7" stroke="#45413c" stroke-linejoin="round" d="M46.96 69.7H59.6v.632a2.527 2.527 0 0 1-2.527 2.527H46.96Z"/><path fill="none" stroke="#45413c" stroke-linejoin="round" d="M31.6 59.214a1.4 1.4 0 0 1 .67-1.182 1.45 1.45 0 0 0-1.135-.615c-.483-.049-.943.285-1.188.285s-.624-.277-1.024-.27a1.52 1.52 0 0 0-1.285.778 3.23 3.23 0 0 0 .394 3.128c.26.376.572.8.98.784.393-.015.541-.254 1.016-.254s.609.254 1.025.247.691-.384.95-.763a3.5 3.5 0 0 0 .43-.883 1.37 1.37 0 0 1-.833-1.255Z"/><path fill="none" stroke="#45413c" stroke-linecap="round" stroke-linejoin="round" d="m30.534 55.805.57-.57"/><path fill="none" stroke="#45413c" stroke-linejoin="round" d="M21.058 69.7H45.7l-6.321-19.581h-22.9a1.264 1.264 0 0 0-1.2 1.652Z"/><path fill="#bf8256" stroke="#45413c" stroke-linecap="round" stroke-linejoin="round" d="M72 28.941v-2.8a10.5 10.5 0 1 0-21 0v2.836a1.872 1.872 0 0 0-2.1 1.889 2.1 2.1 0 0 0 2.1 2.1c.044 0 .085-.01.129-.013a10.486 10.486 0 0 0 20.742 0c.044 0 .085.013.129.013a2.1 2.1 0 0 0 2.1-2.1 1.92 1.92 0 0 0-2.1-1.925"/><path fill="#bf8256" d="M54.153 33.225a1.312 1.312 0 1 0 2.624 0 1.312 1.312 0 1 0-2.624 0M66.228 33.225a1.312 1.312 0 1 0 2.624 0 1.312 1.312 0 1 0-2.624 0"/><path fill="none" stroke="#45413c" stroke-linecap="round" stroke-linejoin="round" d="M64.652 35.891a4.54 4.54 0 0 1-6.3 0M58.877 29.812a1.706 1.706 0 0 0-3.15 0M67.277 29.812a1.706 1.706 0 0 0-3.15 0"/><path fill="#614b44" d="M61.5 13.013a12.635 12.635 0 0 0-12.6 12.634v5.2a1.9 1.9 0 0 1 1.9-1.9c3.156.534 5.124-2.87 5.98-8.08 3.9 3.645 14.372 8.259 15.43 8.08a1.9 1.9 0 0 1 1.9 1.895v-5.195A12.635 12.635 0 0 0 61.5 13.013"/><path fill="none" stroke="#45413c" stroke-linecap="round" stroke-linejoin="round" d="M61.5 13.013a12.635 12.635 0 0 0-12.6 12.634v5.2a1.9 1.9 0 0 1 1.9-1.9c3.156.534 5.124-2.87 5.98-8.08 3.9 3.645 14.372 8.259 15.43 8.08a1.9 1.9 0 0 1 1.9 1.895v-5.195A12.635 12.635 0 0 0 61.5 13.013"/><path fill="#debb7e" stroke="#45413c" stroke-linecap="round" stroke-linejoin="round" d="M59.927 10.912a1.575 1.575 0 1 0 3.15 0 1.575 1.575 0 1 0-3.15 0"/><path fill="#b89558" d="M61.5 11.962c-7.483 0-12.075 5.581-12.075 11.55h24.15c.002-5.969-4.59-11.55-12.075-11.55"/><path fill="#debb7e" d="M61.5 14.062c6.595 0 10.944 4.335 11.883 9.45h.192c0-5.969-4.592-11.55-12.075-11.55s-12.075 5.581-12.075 11.55h.192c.942-5.112 5.29-9.45 11.883-9.45"/><path fill="none" stroke="#45413c" stroke-linecap="round" stroke-linejoin="round" d="M61.5 11.962c-7.483 0-12.075 5.581-12.075 11.55h24.15c.002-5.969-4.59-11.55-12.075-11.55"/><path fill="none" stroke="#45413c" stroke-linecap="round" stroke-linejoin="round" d="M61.5 11.978c4.75.285 6.993 4.458 6.816 9.453M61.5 11.978c-4.751.285-6.994 4.459-6.816 9.456"/><path fill="#b89558" stroke="#45413c" stroke-linecap="round" stroke-linejoin="round" d="M61.5 20.088c-5.049.032-12.075 3.424-12.075 3.424.965 1.051 1.456 3.43 4.182 2.462a4 4 0 0 0 .507-.222 15.5 15.5 0 0 1 14.772 0 4 4 0 0 0 .507.222c2.726.968 3.217-1.411 4.182-2.462.002 0-7.024-3.392-12.075-3.424"/></svg>