<svg xmlns="http://www.w3.org/2000/svg" width="100" height="100" viewBox="0 0 100 100"><desc>Scissors 2 Streamline Illustration: https://streamlinehq.com</desc><path fill="#daedf7" stroke="#daedf7" d="M11.59 50a40 40 0 1 0 80 0 40 40 0 1 0-80 0Z"/><path fill="#fff" d="M41.469 49.66a1.467 1.467 0 0 1 .2 2.067L31.39 64.184a1.463 1.463 0 0 1-2.055.191L8.949 47.57a1.47 1.47 0 0 1-.205-2.07l11.213-13.575Z"/><path fill="#f8f8f8" d="m36.463 48.85-10.188.013a.63.63 0 0 0-.625.522.64.64 0 0 0 .41.707l5.78 2.079a75 75 0 0 0 7.587 2.272l1.706-2.068Z"/><path fill="none" stroke="#45413c" stroke-linecap="round" stroke-linejoin="round" d="M41.469 49.66a1.467 1.467 0 0 1 .2 2.067L31.39 64.184a1.463 1.463 0 0 1-2.055.191L8.949 47.57a1.47 1.47 0 0 1-.205-2.07l11.213-13.575Z"/><path fill="#45413c" d="M37.116 77.618a14.332 1.654 0 1 0 28.664 0 14.332 1.654 0 1 0-28.664 0" opacity=".15"/><path fill="#adc4d9" d="m55.466 42.332-5.89 5.354-16.332-21.263a.663.663 0 0 1 .883-.963l5.413 3.458a79.3 79.3 0 0 1 15.923 13.416"/><path fill="#daedf7" d="M37.366 27.529 51.5 45.936l-1.925 1.75-16.331-21.263a.663.663 0 0 1 .883-.963Z"/><path fill="none" stroke="#45413c" stroke-linecap="round" stroke-linejoin="round" d="m55.466 42.332-5.89 5.354-16.332-21.263a.663.663 0 0 1 .883-.963l5.413 3.458a79.3 79.3 0 0 1 15.923 13.416"/><path fill="#ff6242" stroke="#45413c" d="M81.9 55.446c-1.966-.058-2.578.235-4.313-.592a7.9 7.9 0 0 1-3.287-2.735l-.046-.048a7.9 7.9 0 0 0-2.733-1.645 37.5 37.5 0 0 1-6.08-2.555l-9.97-5.539-6.284 5.713S62.879 63.219 63.5 63.8l.069.078c4.919 5.029 8.9 6.637 15.9 7.284A7.952 7.952 0 1 0 81.9 55.446Zm-2.133 11.736c-3.38-.62-4.615-.555-7.085-1.742a24 24 0 0 1-6.25-4.367 3.95 3.95 0 0 1-.682-5.573 3.8 3.8 0 0 1 1.2-1.044 3.97 3.97 0 0 1 3.643-.1 4 4 0 0 1 .734.453c2.12 1.95 2.649 2.526 4.621 3.471s2.8.728 5.644 1.168a3.977 3.977 0 1 1-1.826 7.741Z"/><path fill="#e04122" d="m50.836 46.541-1.654 1.5C63.6 64.018 63.379 63.666 63.567 63.88c4.919 5.029 8.9 6.637 15.9 7.284a7.95 7.95 0 0 0 8.572-4.818 7.97 7.97 0 0 1-7.372 2.8c-7.007-.649-10.988-2.245-15.9-7.279-.723-.716-5.611-6.113-13.936-15.323"/><path fill="#ffaa54" stroke="#45413c" stroke-linecap="round" stroke-linejoin="round" d="M81.9 55.446c-1.966-.058-2.578.235-4.313-.592a7.9 7.9 0 0 1-3.287-2.735l-.046-.048a7.9 7.9 0 0 0-2.733-1.645 37.5 37.5 0 0 1-6.08-2.555l-9.97-5.539-6.284 5.713C63.6 64.018 63.379 63.666 63.567 63.88c4.919 5.029 8.9 6.637 15.9 7.284A7.952 7.952 0 1 0 81.9 55.446m-2.133 11.736c-3.38-.62-4.615-.555-7.085-1.742a24 24 0 0 1-6.25-4.367 3.95 3.95 0 0 1-.682-5.573 3.8 3.8 0 0 1 1.2-1.044 3.97 3.97 0 0 1 3.643-.1 4 4 0 0 1 .734.453c2.12 1.95 2.649 2.526 4.621 3.471s2.8.728 5.644 1.168a3.977 3.977 0 1 1-1.826 7.741Z"/><path fill="#ffaa54" stroke="#45413c" d="M80.555 33.342a11.9 11.9 0 0 0-9.287 3.093c-.22.248-.452.482-.671.717a.13.13 0 0 1-.058.062 98 98 0 0 1-7.907 7.729 5.32 5.32 0 0 1-3.895 1.268l-7.126-.579-.644 7.933 2.922.237a21.1 21.1 0 0 0 8.774-1.031c2.412-.869 7.185-1.626 16.39-.919.132.01.264.021.4.019 5.963.311 11.052-3.362 11.458-8.373.413-5.098-4.221-9.658-10.356-10.156ZM79.3 48.771c-4.085-.331-7.18-3.364-6.9-6.775s3.82-5.905 7.905-5.573 7.18 3.364 6.9 6.775-3.817 5.902-7.905 5.573Z"/><path fill="#ff8a14" d="m51.2 50.7-.232 2.863 2.932.237a21.1 21.1 0 0 0 8.774-1.031c2.413-.869 7.185-1.626 16.39-.919.133.01.265.021.4.019 5.371.28 10.019-2.681 11.19-6.93a11.4 11.4 0 0 1-9.854 4.235 2 2 0 0 1-.392-.016c-9.209-.708-13.981.054-16.392.919a21.2 21.2 0 0 1-8.781 1.029Z"/><path fill="none" stroke="#45413c" stroke-linecap="round" stroke-linejoin="round" d="M80.555 33.342a11.9 11.9 0 0 0-9.287 3.093c-.22.248-.452.482-.671.717a.13.13 0 0 1-.058.062 98 98 0 0 1-7.907 7.729 5.32 5.32 0 0 1-3.895 1.268l-7.126-.579-.644 7.933 2.922.237a21.1 21.1 0 0 0 8.774-1.031c2.412-.869 7.185-1.626 16.39-.919.132.01.264.021.4.019 5.963.311 11.052-3.362 11.458-8.373.413-5.098-4.221-9.658-10.356-10.156M79.3 48.771c-4.085-.331-7.18-3.364-6.9-6.775s3.82-5.905 7.905-5.573 7.18 3.364 6.9 6.775-3.817 5.902-7.905 5.573"/><path fill="#daedf7" d="m50.967 53.565.644-7.933-26.843.155a.664.664 0 0 0-.218 1.289l6.05 2.151a81 81 0 0 0 20.365 4.338"/><path fill="#adc4d9" d="m29.9 48.977.7.25a81 81 0 0 0 20.365 4.338l.382-4.714-21.45.134"/><path fill="none" stroke="#45413c" stroke-linecap="round" stroke-linejoin="round" d="m50.967 53.565.644-7.933-26.843.155a.664.664 0 0 0-.218 1.289l6.05 2.151a81 81 0 0 0 20.365 4.338"/><path fill="#fff5e3" stroke="#45413c" d="M55.881 49.886a1.903 1.903 0 1 0 3.806 0 1.903 1.903 0 1 0-3.806 0Z"/><path fill="#f0d3a8" d="M59.681 49.736a2 2 0 0 1 0 .283 1.9 1.9 0 1 1-2.971-1.7 1.92 1.92 0 0 0 1.765 1.76 1.83 1.83 0 0 0 1.208-.338"/><path fill="none" stroke="#45413c" d="M55.881 49.886a1.903 1.903 0 1 0 3.806 0 1.903 1.903 0 1 0-3.806 0Z"/><path fill="#fff" d="M46.962 25.453h-.015c-.854.156-1.87.3-3.075.436a1.465 1.465 0 0 0-1.306 1.546 5.8 5.8 0 0 1-.477 2.626 11.6 11.6 0 0 1-6.032 5.709 20 20 0 0 1-4.036.44 19 19 0 0 1-12.064-4.285l6.34-8.16a1.46 1.46 0 0 1 1.908-.353A7.35 7.35 0 0 0 39.08 19.1a2.94 2.94 0 0 1 2.833-2.143c2.847 0 7.265.69 9.187 4.579.382 1.583.925 2.977-4.138 3.917"/><path fill="#f8f8f8" d="M33.836 36.115a22 22 0 0 0 2.221-.345 11.6 11.6 0 0 0 6.032-5.709 5.7 5.7 0 0 0 .426-3.107 33 33 0 0 1-4.53 1.326 1.165 1.165 0 0 0-.949 1.279c.28 2.414-1.134 4.778-3.2 6.551"/><path fill="none" stroke="#45413c" stroke-linecap="round" stroke-linejoin="round" d="M46.962 25.453h-.015c-.854.156-1.87.3-3.075.436a1.465 1.465 0 0 0-1.306 1.546 5.8 5.8 0 0 1-.477 2.626 11.6 11.6 0 0 1-6.032 5.709h0a20 20 0 0 1-4.036.44 19 19 0 0 1-12.064-4.285l6.34-8.16a1.46 1.46 0 0 1 1.908-.353A7.35 7.35 0 0 0 39.08 19.1a2.94 2.94 0 0 1 2.833-2.143c2.847 0 7.265.69 9.187 4.579.382 1.583.925 2.977-4.138 3.917"/><path fill="#e0e0e0" stroke="#45413c" stroke-linecap="round" stroke-linejoin="round" d="M36.057 35.77a11.6 11.6 0 0 0 6.032-5.709 5.8 5.8 0 0 0 .477-2.626 1.467 1.467 0 0 1 1.306-1.546c1.2-.131 2.221-.28 3.075-.436h.015c5.063-.94 4.52-2.334 4.138-3.919 2.554 5.181-6.12 12.431-15.043 14.236"/></svg>