<svg xmlns="http://www.w3.org/2000/svg" width="80" height="80" viewBox="62 62 900 900"><defs><clipPath id="c"><circle cx="512" cy="512" r="450"/></clipPath></defs><g clip-path="url(#c)"><path fill="#22231f" d="M525.23 885.88c-10.43 5.27-16.55 4.93-28.36-1.55-2.95-1.62-16.17-9.18-29.37-16.8-43.51-25.12-135.95-77.77-138.5-78.89-1.38-.61-2.73-1.37-3-1.7s-26.83-15.6-59-33.93c-75.15-42.82-76.78-43.78-80.97-47.62l-3.53-3.24V330.16l2.5-2.68c2.77-2.97 9.7-7.12 60-36.01 42.89-24.63 71.82-41.29 101.5-58.46 12.65-7.31 49.55-28.59 82-47.29 32.45-18.69 63.27-36.51 68.5-39.6 8.73-5.16 9.99-5.62 15.5-5.6 5.75.02 6.67.41 22 9.37 14.98 8.75 32.67 18.96 82.5 47.6 21.7 12.47 50.36 29 76 43.82 8.53 4.93 27.42 15.82 42 24.2s31.22 17.98 37 21.34c5.78 3.35 22.13 12.75 36.35 20.87 14.21 8.13 27.49 16.19 29.5 17.92l3.65 3.13.26 186.71.26 186.7-3.26 3.23c-3.94 3.89-11.74 8.49-83.26 49.09-30.44 17.28-82.76 47.13-88.5 50.48-3.58 2.09-11.67 6.71-18 10.28-24.74 13.95-64.04 36.47-98.51 56.45-10.45 6.06-21.82 12.44-25.26 14.17M302 641.1c0 1.26 419.7 1.2 420.48-.06.33-.54-.49-2.67-1.83-4.75-1.33-2.09-17.83-30.34-36.67-62.79s-35.72-61.47-37.5-64.5c-1.79-3.02-13.7-23.5-26.47-45.5s-26.25-45.17-29.95-51.5c-3.69-6.33-10.11-17.35-14.25-24.5-4.13-7.15-11.57-19.98-16.51-28.5s-13.41-23.15-18.81-32.5c-21.69-37.55-27.18-46.71-28.05-46.85-.97-.16-3.08 3.29-18.91 30.85-5.38 9.35-11.48 19.92-13.57 23.5-2.08 3.58-19.86 34.17-39.51 68-19.64 33.83-44.75 77.02-55.78 96-11.04 18.97-22.16 38.1-24.71 42.5-12.52 21.55-23.82 40.97-32.14 55.25C306.66 632.07 302 640.24 302 641.1m-14.48-23.85c2.76 8.7 4.15 11.74 5.35 11.72 1-.01 3.82-3.82 7.25-9.75 6.43-11.11 40.15-69.16 68.39-117.72 10.55-18.15 25.85-44.48 34-58.5 8.14-14.02 20.18-34.73 26.75-46 15.41-26.45 20.48-35.2 37.99-65.5 27.73-48.01 30.06-52.02 31.51-54.25 1.34-2.05 1.31-2.25-.39-2.25-1.72 0-46.2 8.95-134.37 27.02-18.98 3.89-54.08 11.08-78 15.97-65.89 13.48-87.09 17.95-88.13 18.59-.53.32-.67 1.56-.32 2.75 1.28 4.34 20.98 65.29 35.45 109.67 8.17 25.02 18.97 58.33 24.01 74s13.13 40.65 17.98 55.5c4.84 14.85 10.48 32.29 12.53 38.75m437.31 2.15 7.55 12.91 2.81-8.36c1.55-4.6 2.81-9.21 2.81-10.25 0-1.05.59-3.32 1.32-5.05 2.31-5.49 5.82-16.04 6.39-19.15.3-1.65.86-3.45 1.25-4s1.5-3.7 2.45-7c.96-3.3 2.16-6.9 2.68-8 .51-1.1 1.56-4.25 2.33-7 2.12-7.62 4.21-14.16 7.5-23.5 1.65-4.67 3.01-9.37 3.04-10.43.02-1.07.9-3.77 1.94-6 1.05-2.24 3.14-8.57 4.65-14.07s3.58-11.67 4.6-13.71 1.85-4.54 1.85-5.55 1.39-5.64 3.09-10.29 3.65-10.25 4.33-12.45 1.5-4.67 1.82-5.5 1.1-3.75 1.74-6.5 2.26-7.74 3.59-11.08c1.34-3.34 2.43-6.5 2.43-7.01s2.19-7.68 4.87-15.92c2.67-8.24 7.2-22.41 10.06-31.49s6.03-18.3 7.03-20.5c2.59-5.66 11.37-32.51 10.81-33.06-.26-.26-8.07-2-17.37-3.88-15.97-3.22-31.85-6.51-89.4-18.52-13.47-2.81-28.33-5.8-33-6.63-4.67-.84-10.08-1.95-12-2.47-3.28-.88-49.26-10.41-71.5-14.81-17.57-3.49-54.61-11.01-66.98-13.61-6.59-1.39-12.3-2.52-12.7-2.52s2.11 4.84 5.56 10.75c3.46 5.91 10.58 18.17 15.82 27.25 10.36 17.95 44.73 77.19 59.16 101.99 4.96 8.52 10.03 16.97 11.26 18.78 1.22 1.81 3.2 5.3 4.39 7.76s2.55 4.47 3.01 4.47c.47 0 1.16 1.01 1.54 2.25.39 1.24 2.56 5.19 4.82 8.78 2.27 3.6 5.24 8.76 6.62 11.47 1.38 2.72 2.86 5.4 3.29 5.97 1.86 2.41 16.71 28.56 16.71 29.42 0 .52.37 1.09.83 1.28 1.05.42 21.17 35.4 21.17 36.8 0 .57.46 1.03 1.02 1.03.57 0 1.42 1.02 1.89 2.26s2.33 4.73 4.13 7.75c3.77 6.33 13.26 22.93 14.32 25.05.85 1.7 2.24 3.98 5.76 9.44 1.42 2.2 4.51 7.6 6.87 12s7.69 13.81 11.84 20.9M506.41 869.72c3.25 3.45 6 6.28 6.12 6.28.11 0 13.08-14.06 28.81-31.25s31.48-34.17 35-37.75c6.03-6.14 24.14-25.56 66.66-71.51 21.73-23.48 58.29-62.8 68.33-73.49l7.05-7.5-203.44-.26c-111.89-.14-204.02-.03-204.73.24-2.21.84.33 4.25 12.68 17.03 6.39 6.6 13.84 14.7 16.56 18 2.72 3.29 10.16 11.39 16.51 17.99 6.36 6.6 17.18 18.07 24.05 25.49 22.12 23.88 24.33 26.26 39.5 42.51 8.22 8.8 17.2 18.48 19.96 21.5 5.4 5.92 21 22.73 42.68 46 7.43 7.97 14.6 15.84 15.93 17.47s5.08 5.8 8.33 9.25M779 313.89c13.17 2.8 19 3.61 19 2.62 0-.74-5.37-3.98-31.5-18.99-45.88-26.37-84.11-48.38-102.5-59.04-10.17-5.89-29.3-16.9-42.5-24.46-13.2-7.55-31.2-17.92-40-23.03S562.58 180.03 559 178c-9.96-5.67-17.58-10.08-28.15-16.31-5.31-3.13-10.37-5.69-11.25-5.69-1.45 0-1.6 5.01-1.6 51.98v51.98l2.75.62c1.51.34 4.33 1 6.25 1.47 1.92.46 10.25 2.19 18.5 3.85 8.25 1.65 26.03 5.31 39.5 8.12 13.47 2.82 29 5.97 34.5 7 9.35 1.77 32.21 6.46 85 17.45 12.1 2.52 30.78 6.37 41.5 8.56s25.58 5.28 33 6.86M226.5 317c.22.36 13.14-1.96 28.7-5.15 15.57-3.19 41.57-8.5 57.8-11.8 16.23-3.31 39.4-8.06 51.5-10.57 20.75-4.31 49.35-10.14 113.75-23.21l27.75-5.62v-52.33c0-41.19-.27-52.32-1.25-52.32-.69.01-2.83.97-4.75 2.15-3.62 2.22-19.22 11.26-80.25 46.5a5829 5829 0 0 1-27.25 15.62c-7.7 4.38-19.17 11.02-25.5 14.75s-38.27 22.16-71 40.95l-.38.22c-66 37.9-69.44 39.88-69.19 40.68.02.05.05.09.07.13M812 682.84c9.08 4.97 16.84 9.06 17.25 9.1.41 0 .75-71.99.75-160 0-106.45-.33-159.85-1-159.44-.55.34-1 1.25-1 2.03s-2.19 8.06-4.87 16.19c-6.96 21.11-13.58 41.47-24.63 75.78-5.32 16.5-10.93 33.83-12.47 38.5-3.81 11.56-10.11 31.07-20.99 65-5.03 15.67-10 30.97-11.04 34-1.91 5.52-12.12 37.88-12.37 39.21-.13.68 15.78 9.83 41.37 23.78 6.88 3.75 19.92 10.88 29 15.85M195 535.93c0 115.68.29 155.07 1.14 155.07 1.11 0 12.83-6.2 48.86-25.84 9.62-5.25 21.77-11.88 27-14.73 6.78-3.7 9.59-5.78 9.82-7.29.26-1.76-10.09-35.86-19.33-63.64-1.28-3.85-6.21-19.15-10.97-34-4.75-14.85-9.03-28.12-9.52-29.5-.48-1.38-6.57-20.05-13.53-41.5s-14.85-45.75-17.54-54c-2.68-8.25-6.61-20.4-8.73-27-2.7-8.4-4.36-12.1-5.53-12.32-1.55-.3-1.67 10.46-1.67 154.75m351 322.61c0 1.3 4.58-1.14 38.14-20.36 20-11.45 53.69-30.65 74.86-42.66 21.17-12.02 44.12-25.09 51-29.07 10.95-6.32 56.26-32.14 69.1-39.36 25.07-14.11 42.7-24.61 42.32-25.21-.25-.41-10.23-6.01-22.19-12.44-11.95-6.44-25.11-13.61-29.23-15.94-4.12-2.34-12.22-6.73-18-9.77s-11.99-6.36-13.82-7.38l-3.31-1.85-4.19 4.56c-8.85 9.64-59.07 63.57-78.18 83.96-4.4 4.69-19.03 20.43-32.5 34.98-13.47 14.54-33.28 35.87-44 47.39-21.97 23.6-30 32.47-30 33.15m-74-2.33c4.67 2.63 8.7 4.79 8.94 4.79s-.69-1.24-2.07-2.75c-9.27-10.2-30.49-33.07-36.88-39.75-19.11-19.99-28.41-29.86-53.08-56.39-14.53-15.62-32-34.52-38.83-42-20.08-22-59.3-63.26-60.61-63.76-.66-.25-7.22 2.86-14.59 6.93-7.36 4.06-18.33 10-24.38 13.19s-13.93 7.48-17.5 9.52c-3.57 2.05-11.34 6.29-17.25 9.44S205 701.5 205 701.92c0 1.46 3.53 3.84 15.5 10.49 6.6 3.66 12.68 7.09 13.5 7.61.82.53 3.75 2.15 6.5 3.6s6.12 3.41 7.5 4.36c1.38.94 4.98 3.08 8 4.74 8.25 4.53 26.77 15.08 33 18.8 3.02 1.81 7.52 4.39 10 5.75 2.48 1.35 16.65 9.42 31.5 17.93 14.85 8.5 32.85 18.75 40 22.77 7.15 4.03 15.48 8.77 18.5 10.55 3.02 1.77 15.62 8.96 28 15.98 12.38 7.01 27.9 15.94 34.5 19.84s15.83 9.25 20.5 11.87m98.57-267.29c-8.18 1.49-10.62 1.36-20.57-1.1-16.8-4.14-29.46-18.37-35.14-39.48-2.9-10.76-3.16-33.12-.53-45.34 2.64-12.27 8.43-23.51 15.68-30.43 10.02-9.55 20.75-13.17 36.63-12.34 10.66.56 19.18 3.92 26.4 10.41 25.16 22.61 25.36 83.93.36 107.1-5.58 5.17-14.88 9.72-22.83 11.18m-65.95-3.48c-2.66 1.98-4.11 2.07-38.44 2.23-22.12.11-37.14-.22-39.51-.87-8.55-2.32-14.67-12.14-13.22-21.22 2.13-13.32 7.95-19.15 40.43-40.54 7.43-4.88 13.9-10.72 15.65-14.1 2.09-4.04 1.83-9.21-.6-12.31-1.81-2.3-2.8-2.63-7.83-2.63-7.55 0-10 2.38-11.01 10.67-.99 8.06-3.34 12.09-8.41 14.39-9.27 4.21-21.82 1.27-26.17-6.13-4.28-7.3-1.74-23.61 5.4-34.67 8.55-13.23 22.67-20.26 40.69-20.26 24.17 0 40.98 13.59 45.93 37.15 3.45 16.38-3.31 33.11-18.48 45.73-3.36 2.79-6.99 5.55-8.08 6.13-4.18 2.24-1.74 2.99 9.78 3 7.3.01 12.7.49 14.25 1.26 1.38.68 3.54 3.26 4.81 5.73 1.92 3.74 2.26 5.72 1.99 11.7-.36 7.71-1.83 10.74-7.18 14.74m51.18-4.56c14.58 2.04 26.85-2.52 35.62-13.21 9.51-11.61 14.52-35.56 11.67-55.75-2.96-20.96-10.73-34.16-23.93-40.64-5.11-2.51-6.67-2.78-16.16-2.76-8.69.02-11.53.44-16.5 2.42-11.21 4.47-20.29 16.69-24.18 32.56-2.33 9.5-2.37 32.4-.07 41.6 5.08 20.32 17.47 33.53 33.55 35.78m-127.38-2.3c2.37 1.03 10.78 1.35 36.41 1.38l33.32.04 2.93-2.92c2.42-2.43 2.92-3.75 2.92-7.78 0-2.78-.67-5.81-1.56-7.08-1.52-2.17-1.99-2.22-22.31-2.22-16.27 0-21.16-.3-22.68-1.41-1.9-1.39-1.9-1.44.02-3.56 1.07-1.18 5.56-4.34 9.99-7.02 15.37-9.33 23.52-16.8 28.67-26.29 3.19-5.9 3.37-6.74 3.35-16.22-.02-8.81-.36-10.73-2.83-16.11-5.79-12.63-17.31-20.22-32.11-21.14-14.18-.88-24.57 2.8-32.84 11.64-5.35 5.72-8.55 12.27-9.29 19.05-.28 2.51-.7 5.82-.95 7.37-.31 2.03.24 3.48 2.01 5.25 2.08 2.09 3.38 2.44 8.93 2.44 5.57 0 6.71-.31 8.04-2.22.86-1.22 1.56-3.92 1.56-5.98 0-5.9 2.82-11.66 7.3-14.9 3.53-2.56 4.84-2.9 11.2-2.9 8.21 0 12.19 1.96 16.32 8.02 2.06 3.03 2.31 4.34 1.92 10.09-.36 5.32-1.06 7.5-3.58 11.15-3.83 5.57-6.78 7.92-25.16 19.99-20.82 13.68-28.97 22.78-28.99 32.37-.01 2.88 3.67 7.33 7.41 8.96m260.24-113.51c-2.29 1.04-6.13 1.9-8.53 1.91-3.77.02-4.88-.51-8.15-3.88-4.7-4.85-7.56-13.43-5.92-17.77 4.42-11.66 26.37-17.51 53.87-14.34 6.12.71 11.29 1.11 11.5.9.2-.22-2.51-5.55-6.03-11.86-7.07-12.68-7.93-17.01-4.49-22.64 4.6-7.55 17.78-9.65 23.11-3.69 1.42 1.59 8.07 12.83 14.78 24.98 10.61 19.21 12.2 22.69 12.2 26.67 0 8.48-8.39 14.61-22.67 16.57-7.03.97-11.23.92-31.83-.4-12.91-.83-20.27.11-27.84 3.55m-4.16-63.81c-19.1 10.71-27.26 14.77-30.75 15.27-3.2.47-4.75.34-4.75-.4 0-.6-1.14-1.38-2.54-1.73-5.28-1.32-9.91-10.22-8.88-17.06.88-5.87 4.07-9.05 15.42-15.34 17.59-9.76 25-14.19 25-14.94 0-.41-.64-2.06-1.43-3.66-2.01-4.07-.44-11.88 3.13-15.61 5.03-5.25 7.97-5.28 23.74-.22 7.73 2.48 15.81 5.5 17.96 6.72 7.33 4.16 9.88 14.05 5.35 20.74-2.22 3.28-4.89 5.25-11.75 8.71-1.92.97-3.72 2.02-4 2.35-.28.32-12.2 7.14-26.5 15.17m-306.05 9.06c-3.79 1.81-7.06 2.09-9.45.82-.83-.45-9.39-5.16-19.04-10.47-9.64-5.32-18.28-9.67-19.18-9.67-.91 0-1.92.88-2.27 1.96-.93 2.94-6.12 6.88-10.03 7.61-4.83.91-8-.11-12.11-3.87-3.21-2.95-3.62-3.93-4.39-10.72-.47-4.11-1.55-10.4-2.4-13.98-2.09-8.78-1.97-13.31.48-18.12 2.5-4.9 9.3-8.46 14.27-7.46 3.07.61 18.01 8.54 51.67 27.43 20.29 11.39 22.43 13.51 21.77 21.65-.5 6.22-4.45 12.5-9.32 14.82m-31.77 53.61c-.99.38-1.77.68-2.58.82-3.22.54-6.88-1.5-25.44-11.87l-.42-.24c-9.49-5.3-17.59-9.63-18-9.62s-1.41 1.47-2.24 3.25c-2.07 4.44-8.38 7.94-13.29 7.36-8.07-.96-11.5-5.32-12.85-16.35-.53-4.28-1.61-10.32-2.41-13.42-3.09-12.03-.86-19.41 6.95-22.96 7.46-3.38 7.91-3.22 38.13 13.81 8.78 4.95 21.02 11.8 27.2 15.22 6.17 3.43 12.36 7.58 13.75 9.23 5.88 6.99.87 21.11-8.8 24.77m223.34 95.24c-7.63 4.01-17.65 1.11-22.69-6.58-4.71-7.19-5.7-12.14-5.73-28.59-.03-13.87.21-16.11 2.26-21.27 4.31-10.83 9.34-14.73 19.01-14.73 4.98 0 6.49.43 9.07 2.61 7.34 6.17 11.02 17.57 11.05 34.18.02 17.43-4.74 30.04-12.97 34.38M346.79 745.33c-8.36 5.23-34.46-.31-49.7-10.53-14.34-9.63-20.77-21.99-14.51-27.88 2.37-2.22 3.39-2.42 12.25-2.41 7.39.01 11.32.55 16.67 2.32 11.88 3.91 21.1 9.03 28.29 15.68 10.98 10.17 13.6 18.7 7 22.82M680.2 458.24c.71.24 2.88-.23 4.8-1.04 10.11-4.27 24.83-5.29 46-3.21 15.6 1.54 30.18-1.88 31.57-7.39.06-.27.12-.51.16-.75.37-2.14-.97-4.59-15.94-31.8l-.57-1.05c-8.79-15.98-9.83-16.83-15.97-13.04-4.23 2.62-4.14 4.65.6 12.87 8.48 14.71 13.41 25.04 12.77 26.73-.58 1.51-1.73 1.64-9.39 1.12-4.8-.33-12.33-1.11-16.73-1.74-8.96-1.27-22.44-.64-30 1.4-7.75 2.1-13.5 5.38-13.5 7.7 0 2.4 4.37 9.58 6.2 10.2m-11.8 314.34c-2.6.78-5.9 1.42-7.34 1.42-3.52 0-7.06-2.63-7.06-5.24 0-7.67 12.11-20.85 25.64-27.91 9.83-5.12 16.36-6.97 25.34-7.18 5.31-.12 6.32.18 8.74 2.6 2.01 2.01 2.73 3.73 2.73 6.51 0 8.76-12.72 26.22-19.11 26.22-3.44 0-5.93-2.21-4.74-4.21.42-.71 2.5-3.36 4.61-5.88 2.11-2.53 4.21-5.91 4.66-7.5 1.68-5.94-1.27-7.4-4.35-2.16-5.25 8.94-19.66 20.48-29.12 23.33M372 403.24c1.91.64 5.48-2.58 7.04-6.33.98-2.37.92-3.31-.3-5.15-2.22-3.34-62.81-36.76-66.64-36.76-2.17 0-3.54.74-4.73 2.56-1.59 2.42-1.56 3.2.49 13.75 1.2 6.16 2.17 12.45 2.16 13.99-.02 2.67 3.77 7.7 5.8 7.7.5 0 2.1-.93 3.55-2.07 2.26-1.79 2.63-2.83 2.63-7.5 0-4.85.22-5.43 2.11-5.43 1.15 0 12.07 5.57 24.25 12.37s22.81 12.59 23.64 12.87m-41.5 46.86c5.5 3.16 10.97 5.78 12.16 5.82 4.27.15 8.88-7.96 6.57-11.57-.4-.64-14.9-9.07-32.23-18.75-33.84-18.9-36.45-19.89-39.61-15.07-1.55 2.37-1.53 3.17.48 13 1.17 5.75 2.13 11.94 2.13 13.75 0 4.57 2.45 7.72 6 7.72 3.87 0 6-3.24 6-9.12 0-3.27.46-4.84 1.54-5.26 1.43-.54 10.06 4 36.96 19.48m318.55-44.76c2.73 3.46 5.24 3.34 11.95-.56 3.03-1.77 17.19-9.82 31.49-17.91 14.29-8.08 26.62-15.66 27.41-16.84 1.23-1.87 1.21-2.57-.17-5.47-1.34-2.81-2.41-3.52-6.91-4.6-2.93-.7-9.06-2.78-13.63-4.62-9.45-3.8-10.45-3.94-12.62-1.77-2.91 2.91-1.96 7.02 2.43 10.55 2.2 1.77 4 3.77 4 4.44 0 .68-10.09 6.92-22.42 13.88s-22.95 13.3-23.61 14.09c-1.49 1.8-.66 5.33 2.08 8.81M220.08 586.08c-1.68 1.67-4 2.92-5.43 2.92-3.64 0-8.04-4.19-10.75-10.23-2.05-4.58-2.36-6.84-2.38-17.27-.02-10.54.27-12.64 2.37-17.29 4.5-9.96 10.45-11.79 18.47-5.66 2.55 1.95 4.64 2.99 4.64 2.32s-1.67-7.02-3.72-14.11c-3.46-11.98-3.62-13.07-2.22-15.56 1.56-2.78 4.52-4.02 6.01-2.53 1.79 1.79 12.19 36.01 12.31 40.5.09 3.67-.4 5.22-2.3 7.25-1.34 1.42-3.14 2.57-4 2.57-.87-.01-4.87-1.81-8.89-4-8.62-4.7-11.4-5.01-13.03-1.44-1.55 3.39-1.45 12.33.16 15.45 1.29 2.49 1.87 2.61 6.73 1.45 2.09-.5 2.78-.13 3.75 2.02 2.22 4.86 1.52 10.36-1.72 13.61m337.13-34.65c5.74 4.03 12.36.09 15.39-9.14 1.46-4.45 1.9-8.69 1.89-18.29-.01-13.3-1.06-18.57-4.77-24.1-1.96-2.92-2.93-3.44-6.82-3.7-3.78-.25-4.97.14-7.14 2.32-3.63 3.62-5.63 10.19-6.38 20.95-1.05 14.82 2.18 28.01 7.83 31.96m-320.77 76.35c-.7 1.01-1.12 1.63-1.7 1.89-.92.4-2.26-.15-5.86-1.64l-.38-.16c-2.75-1.13-5.99-2.45-7.2-2.92-1.48-.58-2.42-2.07-2.89-4.59-.64-3.41.33-5.74 11.39-27.3 10.42-20.28 12.42-23.56 14.37-23.56 3.15 0 5.04 3.96 4.4 9.21-.45 3.66-3.32 9.76-13.57 28.86l-2.18 4.07 2.59 3.82c2.93 4.32 3.33 9.04 1.03 12.32m112.36 147.6c-.31 2.15-2.21 2.93-4.7 1.92-1.94-.79-22-13.68-25.35-16.3-1.65-1.29-2.75-3.12-2.75-4.58 0-2.16.43-2.42 4.02-2.42 2.21 0 9.52.88 16.25 1.95 6.72 1.08 17.4 2.51 23.73 3.19 10.36 1.11 11.77 1.5 14.25 3.97 3 2.99 3.61 6.62 1.26 7.52-1.32.51-23.27-1.89-29.39-3.22l-2.39-.51 2.69 3.19c1.5 1.78 2.55 4.11 2.38 5.29m372.12-54.46c-12.37 1.69-23.41 3.08-24.54 3.08-4.33 0-4.48-2.67-.41-7.31 2.9-3.31 3.29-3.43 16.25-5.1 24.72-3.18 25.78-3.44 25.78-6.32 0-3.81 6.23-9.27 10.57-9.27H752v7.28c0 7.99-1.23 10.75-5.86 13.15-1.5.78-12.86 2.8-25.22 4.49M319.57 734.4c15.6 3.77 21.09-.22 11.66-8.5-9.73-8.55-33.18-14.15-36.57-8.74-2.77 4.42 10.83 13.83 24.91 17.24m151.97-528.89c-3.43 1.92-6.41 3.46-6.64 3.42-2.22-.37-5.05-2.7-5.51-4.52-.95-3.79.39-5.76 6.2-9.16 8.02-4.68 13.41-4.13 13.41 1.37 0 4-1.15 5.36-7.46 8.89m343.63 442.84c-2.28 2.06-4.1 2.09-6.95.09-1.89-1.32-2.22-2.48-2.22-7.8 0-7.1 1.01-8.64 5.66-8.64 4.13 0 5.34 2.11 5.34 9.28 0 3.97-.49 5.85-1.83 7.07m-144.09 34.73c-3.58 3.58-5.43 3.66-8.69.4-2.73-2.73-2.62-5.01.47-9.38 2.61-3.67 5.55-4.35 8.58-1.97 3.57 2.81 3.43 7.16-.36 10.95m-2.4 78.17c1.47 2.5 9-1.09 14.28-6.82 4.7-5.11 5.01-6.43 1.47-6.43-6.08 0-17.77 9.83-15.75 13.25m-70.15-80.59c-3.44 4.9-10.53 2.57-10.53-3.47 0-6.06 5.46-8.82 9.48-4.8 2.87 2.87 3.17 5.24 1.05 8.27m19.93 2.72c-2.83 1.08-4.3.68-5.9-1.6-5.1-7.28 3.4-14.77 8.68-7.66 1.81 2.43 1.84 2.82.39 5.62-.85 1.66-2.28 3.3-3.17 3.64m33.91 19.55c-1.45 1.14-2.92 2.03-3.25 1.99-5.48-.7-8.05-6.86-4.29-10.27 3.8-3.43 10.17-.86 10.17 4.11 0 1.15-1.19 3.03-2.63 4.17m-15.44 16.44c-2.81 3.57-7.26 3.58-9.6.01-1.53-2.34-1.56-2.89-.24-5.25 1.85-3.3 7.16-4.12 10-1.55 2.44 2.21 2.4 3.52-.16 6.79m177.85-102.93c-1.29.9-1.94 1.37-2.63 1.43-.73.06-1.5-.33-3.09-1.13l-.06-.03c-4.64-2.33-3.53-9.61 1.7-11.16 5.2-1.54 8.66 7.69 4.08 10.89m-444-352c-1.22.86-2.99 1.56-3.93 1.56-1.59 0-5.85-4.37-5.85-6s4.26-6 5.85-6c5.55 0 8.32 7.37 3.93 10.44m315.39 13.91c-2.28 2.06-4.1 2.09-6.95.09-4.25-2.98-1.79-10.44 3.45-10.44 4.68 0 7.08 7.1 3.5 10.35m129 311c-2.28 2.06-4.1 2.09-6.95.09-4.3-3.01-1.78-10.44 3.55-10.44 2.45 0 5.23 3.49 5.23 6.57 0 1.16-.82 2.86-1.83 3.78M424 233c-2.49 2.49-5.19 2.55-7.35.17-3.23-3.57-1.16-10.17 3.2-10.17 2.88 0 6.15 2.96 6.15 5.56 0 1.34-.9 3.34-2 4.44m243.33 32.94c-1.74 2.48-6.5 2.75-8.76.49-4.75-4.75 2.35-12.39 7.61-8.18 2.29 1.83 2.81 5.32 1.15 7.69m-275.12-15.01c-2.33 3.14-4.97 3.65-7.96 1.54-2.42-1.71-2.87-4.45-1.21-7.54.74-1.39 2.1-1.93 4.83-1.93 3.16 0 4.02.46 5.03 2.68 1.04 2.29.94 3.06-.69 5.25"/><path fill="#2f8bb7" d="M555.74 827.39c-2.26 3.14-1.78 3.23 1.02.58-1.34 1.45-2.72 2.95-4.12 4.47.62-.89.86-1.44.56-1.44-.59 0-2.34 1.42-3.89 3.15-1.54 1.73-6.52 7.01-11.06 11.75-4.54 4.73-9.84 10.4-11.78 12.6-7.72 8.76-13.8 14.5-15.37 14.5-.47 0-2.52-2.03-4.55-4.5-2.02-2.47-4.2-4.5-4.84-4.5-.24 0-.07.4.41 1.07-1.77-1.95-3.29-3.68-4.04-4.6-1.33-1.63-8.5-9.5-15.93-17.47-21.68-23.27-37.28-40.08-42.68-46-2.76-3.02-11.74-12.7-19.96-21.5-15.17-16.25-17.38-18.63-39.5-42.51-6.87-7.42-17.69-18.89-24.05-25.49a532 532 0 0 1-4.45-4.68c.32.07.19-.49-.19-1.57-.78-2.21-4.28-6.14-6.57-7.38-1.4-.75-1.91-.79-1.49-.01-1.62-1.79-2.95-3.31-3.81-4.35-2.72-3.3-10.17-11.4-16.56-18-12.35-12.78-14.89-16.19-12.68-17.03.71-.27 92.84-.38 204.73-.24l198.18.25c-.1.35.11.93.49 1.93.51 1.33 1.03 1.77 1.73 1.31l-4.01 4.27c-5.01 5.34-16.65 17.83-29.75 31.91 2.16-2.35 4.69-5.08 7.28-7.83 6.25-6.65 10.85-12.08 10.23-12.08-.63 0-3.04 2.11-5.36 4.68-2.33 2.58-7.45 7.86-11.38 11.75s-7.91 8.31-8.86 9.82c-1.31 2.1-1.13 3-.21 2.6-3.99 4.29-8.02 8.63-11.95 12.86 6.67-7.27 10.16-11.71 9.2-11.71-.93 0-2.66 1.12-3.86 2.48-1.19 1.37-7.04 7.5-12.98 13.62-5.95 6.12-11.92 12.88-13.26 15.02-1.35 2.13-2.8 3.88-3.23 3.88-.42 0-1.57 1.35-2.54 3-.98 1.65-1.52 3-1.21 3 .5 0 4.6-4.22 18.57-19.24l-9.02 9.73c-5.17 5.59-9.98 10.79-14.45 15.62 2.55-2.91 4.31-5.11 4.08-5.11-1.85 0-5.63 2.18-5.63 3.24 0 .7-1.01 2.41-2.25 3.78-1.24 1.38-2.87 3.29-3.62 4.24-.76.96-.98 1.74-.5 1.74.28 0 1.41-.99 2.93-2.51-28.83 31.11-42.2 45.41-47.22 50.51-1.49 1.51-5.17 5.43-10.11 10.74.79-1.08 1.11-1.74.77-1.74-1.36 0-7.67 6.38-11.26 11.39m96.63-124.46c.64-.51 1.23-1.15 1.68-1.82-.41.64-.98 1.26-1.68 1.82-1.45 1.14-2.13 2.07-1.5 2.07 1.91 0 5.13-3.88 5.13-6.19 0-6.01-10.05-9.44-13.44-4.59-2.05 2.92-1.96 4.61.43 8.53 2.03 3.33 3.42 4.02 4.51 2.25.09-.15.13-.3.12-.43.47.17.97.28 1.5.35.33.04 1.8-.85 3.25-1.99m18.71-19.85c3.79-3.79 3.93-8.14.36-10.95-3.03-2.38-5.97-1.7-8.58 1.97-3.09 4.37-3.2 6.65-.47 9.38 3.26 3.26 5.11 3.18 8.69-.4m-43.58 39.15c1.61 1.19 8.99.88 10.3-.43.66-.66 1.2-2.07 1.2-3.13 0-1.69-.26-1.6-2.07.7 2.56-3.27 2.6-4.58.16-6.79-2.84-2.57-8.15-1.75-10 1.55-1.32 2.36-1.29 2.91.24 5.25.61.94 1.37 1.63 2.2 2.07-.62-.28-1.22-.67-1.78-1.17-1.5-1.36-1.83-1.41-1.57-.25.17.81.77 1.8 1.32 2.2m-28.97-41.57c2.12-3.03 1.82-5.4-1.05-8.27-4.02-4.02-9.48-1.26-9.48 4.8 0 6.04 7.09 8.37 10.53 3.47m19.93 2.72c.89-.34 2.32-1.98 3.17-3.64 1.45-2.8 1.42-3.19-.39-5.62-5.28-7.11-13.78.38-8.68 7.66 1.6 2.28 3.07 2.68 5.9 1.6M578 803.08c0 .6.41.94.91.75.51-.18 8.21-8.21 17.13-17.83 8.93-9.62 17.83-19.19 19.79-21.25 1.97-2.06 3.13-3.75 2.58-3.75C617 761 598 779.51 598 780.88c0 .62-.48 1.12-1.06 1.12s-.86.34-.62.75-1.24 2.1-3.3 3.75-5.95 5.81-8.63 9.24c-2.69 3.43-5.23 6.25-5.64 6.25-.41.01-.75.5-.75 1.09m47.03-87.28c.02.38.96-.54 2.09-2.05 2.24-3.01 7.41-3.81 9.74-1.5 1.01 1 1.13.9.59-.51-.79-2.07-4.49-3.2-7.78-2.37-2.01.5-4.74 4.28-4.64 6.43m20.2-21.48c-.14.11-.27.22-.4.33-3.04 2.76-1.95 7.31 1.48 9.32-1.62-.3-3.31-3.07-3.31-5.58 0-1.72.9-3.14 2.23-4.07m72.23-39.82h.92l-2.11 2.24c.16-.22.32-.46.5-.74.46-.74.71-1.2.69-1.5m-62.69 42.66c-.61-1.98-2.32-3.39-4.29-3.89.97.22 1.9.67 2.69 1.38.83.75 1.36 1.61 1.6 2.51M510.56 874.07c1.11 1.1 1.86 1.83 1.98 1.92l-.01.01c-.06 0-.81-.74-1.97-1.93"/><path fill="#2e81a6" d="M546 858.54c0-.68 8.03-9.55 30-33.15 10.72-11.52 30.53-32.85 44-47.39 13.47-14.55 28.1-30.29 32.5-34.98 19.11-20.39 69.33-74.32 78.18-83.96l4.19-4.56 3.31 1.85c1.83 1.02 8.04 4.34 13.82 7.38s13.88 7.43 18 9.77c4.12 2.33 17.28 9.5 29.23 15.94 11.96 6.43 21.94 12.03 22.19 12.44.38.6-17.25 11.1-42.32 25.21-12.84 7.22-58.15 33.04-69.1 39.36-6.88 3.98-29.83 17.05-51 29.07-21.17 12.01-54.86 31.21-74.86 42.66C550.58 857.4 546 859.84 546 858.54m122.4-85.96c9.46-2.85 23.87-14.39 29.12-23.33 3.08-5.24 6.03-3.78 4.35 2.16-.45 1.59-2.55 4.97-4.66 7.5-2.11 2.52-4.19 5.17-4.61 5.88-1.19 2 1.3 4.21 4.74 4.21 6.39 0 19.11-17.46 19.11-26.22 0-2.78-.72-4.5-2.73-6.51-2.42-2.42-3.43-2.72-8.74-2.6-8.98.21-15.51 2.06-25.34 7.18-13.53 7.06-25.64 20.24-25.64 27.91 0 2.61 3.54 5.24 7.06 5.24 1.44 0 4.74-.64 7.34-1.42m52.52-51.66c12.36-1.69 23.72-3.71 25.22-4.49 4.63-2.4 5.86-5.16 5.86-13.15V696h-3.43c-4.34 0-10.57 5.46-10.57 9.27 0 2.88-1.06 3.14-25.78 6.32-12.96 1.67-13.35 1.79-16.25 5.1-4.07 4.64-3.92 7.31.41 7.31 1.13 0 12.17-1.39 24.54-3.08M670.53 704c.96 0-2.53 4.44-9.2 11.71-3.19 3.44-6.32 6.82-9.31 10.05-13.97 15.02-18.07 19.24-18.57 19.24-.31 0 .23-1.35 1.21-3 .97-1.65 2.12-3 2.54-3 .43 0 1.88-1.75 3.23-3.88 1.34-2.14 7.31-8.9 13.26-15.02 5.94-6.12 11.79-12.25 12.98-13.62 1.2-1.36 2.93-2.48 3.86-2.48m-1.85 57.25c-2.02-3.42 9.67-13.25 15.75-13.25 3.54 0 3.23 1.32-1.47 6.43-5.28 5.73-12.81 9.32-14.28 6.82M506.41 869.72c-1.42-1.5-2.93-3.14-4.29-4.65-.48-.67-.65-1.07-.41-1.07.64 0 2.82 2.03 4.84 4.5 2.03 2.47 4.08 4.5 4.55 4.5 1.57 0 7.65-5.74 15.37-14.5 1.94-2.2 7.24-7.87 11.78-12.6 4.54-4.74 9.52-10.02 11.06-11.75 1.55-1.73 3.3-3.15 3.89-3.15.3 0 .06.55-.56 1.44-3.65 3.97-7.48 8.13-11.3 12.31-15.49 16.92-28.3 30.82-28.8 31.24-.12-.09-.87-.82-1.98-1.92-1.1-1.13-2.57-2.67-4.15-4.35M578 803.08c0-.59.34-1.08.75-1.09.41 0 2.95-2.82 5.64-6.25 2.68-3.43 6.57-7.59 8.63-9.24s3.54-3.34 3.3-3.75.04-.75.62-.75 1.06-.5 1.06-1.12c0-1.37 19-19.88 20.41-19.88.55 0-.61 1.69-2.58 3.75-1.96 2.06-10.86 11.63-19.79 21.25-8.92 9.62-16.62 17.65-17.13 17.83-.5.19-.91-.15-.91-.75m110.86-117c-2.59 2.75-5.12 5.48-7.28 7.83-2.72 2.93-5.5 5.92-8.3 8.94-.92.4-1.1-.5.21-2.6.95-1.51 4.93-5.93 8.86-9.82s9.05-9.17 11.38-11.75c2.32-2.57 4.73-4.68 5.36-4.68.62 0-3.98 5.43-10.23 12.08m-36.49 16.85c.64-.51 1.23-1.15 1.68-1.82.58-.84.95-1.71.95-2.35 0-.57-.08-1.1-.23-1.6-.24-.9-.77-1.76-1.6-2.51a6 6 0 0 0-2.69-1.38c-1.74-.43-3.67-.15-5.25 1.05-1.33.93-2.23 2.35-2.23 4.07 0 2.51 1.69 5.28 3.31 5.58.4.24.84.44 1.31.6.01.13-.03.28-.12.43-1.09 1.77-2.48 1.08-4.51-2.25-2.39-3.92-2.48-5.61-.43-8.53 3.39-4.85 13.44-1.42 13.44 4.59 0 2.31-3.22 6.19-5.13 6.19-.63 0 .05-.93 1.5-2.07M632.63 746c.23 0-1.53 2.2-4.08 5.11-1.71 1.84-3.38 3.64-4.99 5.38-1.52 1.52-2.65 2.51-2.93 2.51-.48 0-.26-.78.5-1.74.75-.95 2.38-2.86 3.62-4.24 1.24-1.37 2.25-3.08 2.25-3.78 0-1.06 3.78-3.24 5.63-3.24m-7.6-30.2c-.1-2.15 2.63-5.93 4.64-6.43 3.29-.83 6.99.3 7.78 2.37.54 1.41.42 1.51-.59.51-2.33-2.31-7.5-1.51-9.74 1.5-1.13 1.51-2.07 2.43-2.09 2.05m-69.29 111.59c3.59-5.01 9.9-11.39 11.26-11.39.34 0 .02.66-.77 1.74-2.81 3.02-6.02 6.49-9.47 10.23-2.8 2.65-3.28 2.56-1.02-.58m81.19-108.02c1.81-2.3 2.07-2.39 2.07-.7 0 1.06-.54 2.47-1.2 3.13-1.31 1.31-8.69 1.62-10.3.43-.55-.4-1.15-1.39-1.32-2.2-.26-1.16.07-1.11 1.57.25.56.5 1.16.89 1.78 1.17 2.35 1.25 5.32.55 7.4-2.08m-285.61-18.12c.38 1.08.51 1.64.19 1.57-2.99-3.17-5.92-6.36-8.25-8.96-.42-.78.09-.74 1.49.01 2.29 1.24 5.79 5.17 6.57 7.38m366.14-46.75c.02.3-.23.76-.69 1.5-.18.28-.34.52-.5.74l-.93.99c-.7.46-1.22.02-1.73-1.31-.38-1-.59-1.58-.49-1.93Z"/><path fill="#39a4d7" d="M302 641.1c0-.86 4.66-9.03 25.82-45.35 8.32-14.28 19.62-33.7 32.14-55.25 2.55-4.4 13.67-23.53 24.71-42.5 11.03-18.98 36.14-62.17 55.78-96 19.65-33.83 37.43-64.42 39.51-68 2.09-3.58 8.19-14.15 13.57-23.5 15.83-27.56 17.94-31.01 18.91-30.85.87.14 6.36 9.3 28.05 46.85 5.4 9.35 13.87 23.98 18.81 32.5s12.38 21.35 16.51 28.5c4.14 7.15 10.56 18.17 14.25 24.5 3.7 6.33 17.18 29.5 29.95 51.5s24.68 42.48 26.47 45.5c1.78 3.03 18.66 32.05 37.5 64.5s35.34 60.7 36.67 62.79c1.34 2.08 2.16 4.21 1.83 4.75-.78 1.26-420.48 1.32-420.48.06m268.57-52.18c7.95-1.46 17.25-6.01 22.83-11.18 25-23.17 24.8-84.49-.36-107.1-7.22-6.49-15.74-9.85-26.4-10.41-15.88-.83-26.61 2.79-36.63 12.34-7.25 6.92-13.04 18.16-15.68 30.43-2.63 12.22-2.37 34.58.53 45.34 5.68 21.11 18.34 35.34 35.14 39.48 9.95 2.46 12.39 2.59 20.57 1.1m-65.95-3.48c5.35-4 6.82-7.03 7.18-14.74.27-5.98-.07-7.96-1.99-11.7-1.27-2.47-3.43-5.05-4.81-5.73-1.55-.77-6.95-1.25-14.25-1.26-11.52-.01-13.96-.76-9.78-3 1.09-.58 4.72-3.34 8.08-6.13 15.17-12.62 21.93-29.35 18.48-45.73-4.95-23.56-21.76-37.15-45.93-37.15-18.02 0-32.14 7.03-40.69 20.26-7.14 11.06-9.68 27.37-5.4 34.67 4.35 7.4 16.9 10.34 26.17 6.13 5.07-2.3 7.42-6.33 8.41-14.39 1.01-8.29 3.46-10.67 11.01-10.67 5.03 0 6.02.33 7.83 2.63 2.43 3.1 2.69 8.27.6 12.31-1.75 3.38-8.22 9.22-15.65 14.1-32.48 21.39-38.3 27.22-40.43 40.54-1.45 9.08 4.67 18.9 13.22 21.22 2.37.65 17.39.98 39.51.87 34.33-.16 35.78-.25 38.44-2.23m52.59-34.01c-5.65-3.95-8.88-17.14-7.83-31.96.75-10.76 2.75-17.33 6.38-20.95 2.17-2.18 3.36-2.57 7.14-2.32 3.89.26 4.86.78 6.82 3.7 3.71 5.53 4.76 10.8 4.77 24.1.01 9.6-.43 13.84-1.89 18.29-3.03 9.23-9.65 13.17-15.39 9.14"/><path fill="#878c8e" d="M829.74 410.14c-.18-23.87-.45-34.07-.84-33.94-.73.24-2.51 4.73-8.8 23.74 1.01-3.09 2.02-6.14 3.03-9.22 2.68-8.13 4.87-15.41 4.87-16.19s.45-1.69 1-2.03c.32-.2.57 12.38.74 37.64"/><path fill="#74c42f" d="M812 682.84c-9.08-4.97-22.12-12.1-29-15.85-25.59-13.95-41.5-23.1-41.37-23.78.25-1.33 10.46-33.69 12.37-39.21 1.04-3.03 6.01-18.33 11.04-34 10.88-33.93 17.18-53.44 20.99-65 1.54-4.67 7.15-22 12.47-38.5 9.44-29.31 15.65-48.44 21.6-66.56 6.29-19.01 8.07-23.5 8.8-23.74.39-.13.66 10.07.84 33.92v.02c.15 23.88.24 59.1.26 105.59v17.04c0 87.63-.34 159.17-.75 159.17-.41-.04-8.17-4.13-17.25-9.1m3.17-34.49c1.34-1.22 1.83-3.1 1.83-7.07 0-7.17-1.21-9.28-5.34-9.28-4.65 0-5.66 1.54-5.66 8.64 0 5.32.33 6.48 2.22 7.8 2.85 2 4.67 1.97 6.95-.09m-.39-31.91c4.58-3.2 1.12-12.43-4.08-10.89-5.23 1.55-6.34 8.83-1.7 11.16l.06.03c1.59.8 2.36 1.19 3.09 1.13.69-.06 1.34-.53 2.63-1.43m.39-27.09c1.01-.92 1.83-2.62 1.83-3.78 0-3.08-2.78-6.57-5.23-6.57-5.33 0-7.85 7.43-3.55 10.44 2.85 2 4.67 1.97 6.95-.09"/><path fill="#ab6a26" d="M319.57 734.4c-14.08-3.41-27.68-12.82-24.91-17.24 3.39-5.41 26.84.19 36.57 8.74 9.43 8.28 3.94 12.27-11.66 8.5m-3.07-2.32c6.47 1.95 16.61 2.13 17.21.3.66-1.99-4.52-7.05-9.94-9.71-2.9-1.43-8.49-3.54-12.42-4.7-13.59-4-19.61-.92-11.72 6.01 4.08 3.58 7.76 5.35 16.87 8.1m32.3 43.3c.17-1.18-.88-3.51-2.38-5.29l-2.69-3.19 2.39.51c6.12 1.33 28.07 3.73 29.39 3.22 2.35-.9 1.74-4.53-1.26-7.52-2.48-2.47-3.89-2.86-14.25-3.97-6.33-.68-17.01-2.11-23.73-3.19-6.73-1.07-14.04-1.95-16.25-1.95-1.02 0-1.78.02-2.35.1 4.25-1.07 15.88-.33 34.18 2.19 17 2.34 18.63 2.75 22 5.48 2.9 2.34 3.65 3.65 3.65 6.34v3.39l-5-.01c-2.75-.01-8.91-.37-13.69-.8l-8.68-.78-.32 3.79c-.23 2.81-.9 4.06-2.56 4.79-1.24.54-2.25 1.47-2.25 2.06 0 1.28 4.12 4.44 9 6.91 1.92.98 4.4 2.58 5.5 3.57.97.88 5.77 3.84 13 8.07-.67-.38-1.34-.76-2-1.13-7.15-4.02-25.15-14.27-40-22.77-14.85-8.51-29.02-16.58-31.5-17.93-2.1-1.15-5.64-3.18-8.52-4.87 3.73 2.11 10.81 5.8 16.79 8.73 6.73 3.29 12.9 6.4 13.73 6.91 6.21 3.87 9 4.96 9 3.5 0-.82-1.75-2.39-3.89-3.48-4.72-2.41-11.12-8.28-11.09-10.18 0-.76.44-2.05.96-2.88.1-.16.25-.3.46-.43-.36.36-.44.93-.44 1.85 0 1.46 1.1 3.29 2.75 4.58 3.35 2.62 23.41 15.51 25.35 16.3 2.49 1.01 4.39.23 4.7-1.92M472 856.21c-4.67-2.62-13.9-7.97-20.5-11.87s-22.12-12.83-34.5-19.84c-9.94-5.64-20.03-11.39-25.18-14.35 1.53.86 3.09 1.74 4.68 2.62 4.4 2.46 15.65 8.86 25 14.23 18.37 10.55 26.59 15 27.67 15 .38 0 4.4 2.25 8.93 5 14.69 8.92 14.49 6.66-.9-10.39-6.22-6.88-11.26-12.78-11.2-13.11.08-.46-1.57-2.36-11.26-12.59 2.28 2.39 4.67 4.9 7.25 7.59 6.39 6.68 27.61 29.55 36.88 39.75 1.38 1.51 2.31 2.75 2.07 2.75s-4.27-2.16-8.94-4.79m-155.64-149c23.63 8.16 40.92 28.98 31.69 37.18 4.93-4.39 1.95-12.43-8.26-21.88-7.19-6.65-16.41-11.77-28.29-15.68-5.35-1.77-9.28-2.31-16.67-2.32-8.86-.01-9.88.19-12.25 2.41-2.91 2.74-3.08 6.88-.97 11.5-.85-1.42-1.71-2.67-2.23-3.18-2.86-2.86-.66-8.01 4.59-10.73 7.03-3.63 16.32-2.86 32.39 2.7m-93.04-180.32c2.03 7.04 3.68 13.31 3.68 13.98s-2.09-.37-4.64-2.32q-3.705-2.835-6.84-3.39c1.25.14 2.61.48 4.09 1.02 2.49.9 3.59.9 4.67.01 1.08-.9.98-2.42-.96-9.3m123.47 218.44c-5.06 3.17-15.72 2.74-27.67-.8 11.49 3.21 22.71 3.9 27.67.8m-63.36-23.62c2.29 3.5 5.74 7.14 10.15 10.55-4.51-3.33-7.99-6.92-10.15-10.55M222.5 524.03c-2.72-9.38-2.81-10.38-1.44-12.83-1.28 2.29-1.25 3.4 1.44 12.83m-12.97 12.44c-2.1 1.47-3.97 4.04-5.64 7.74 1.71-3.78 3.51-6.32 5.64-7.74m215.91 264.66-1.03-1.09c-2.39-2.5-6.11-6.45-10.67-11.32 4.07 4.33 7.84 8.33 11.7 12.41m-54.83-58.75c-8.45-9.13-15.88-17.18-20.53-22.27 4.05 4.43 11.83 12.88 20.53 22.27m-98.86-.81c-5.96-3.39-11.95-6.76-15.75-8.85 3.93 2.16 9.85 5.49 15.75 8.85"/><path fill="#abdf2b" d="M724.83 619.4c-4.15-7.09-9.48-16.5-11.84-20.9s-5.45-9.8-6.87-12c-3.52-5.46-4.91-7.74-5.76-9.44-1.06-2.12-10.55-18.72-14.32-25.05-1.8-3.02-3.66-6.51-4.13-7.75s-1.32-2.26-1.89-2.26c-.56 0-1.02-.46-1.02-1.03 0-1.4-20.12-36.38-21.17-36.8-.46-.19-.83-.76-.83-1.28 0-.86-14.85-27.01-16.71-29.42-.43-.57-1.91-3.25-3.29-5.97-1.38-2.71-4.35-7.87-6.62-11.47-2.26-3.59-4.43-7.54-4.82-8.78-.38-1.24-1.07-2.25-1.54-2.25-.46 0-1.82-2.01-3.01-4.47s-3.17-5.95-4.39-7.76c-1.23-1.81-6.3-10.26-11.26-18.78-1.49-2.57-3.2-5.5-5.07-8.72 2.06 3.54 4.45 7.62 5.71 9.73 1.46 2.48 4.18 7.08 6.03 10.22 1.85 3.15 3.53 5.55 3.75 5.34.4-.41-20.02-36.26-27.1-47.56-2.24-3.58-5.72-9.42-7.73-13-2.02-3.58-7.18-12.58-11.46-20s-9.3-16.2-11.14-19.5c-1.85-3.3-3.78-6.67-4.31-7.5-.52-.83-4.42-7.54-8.67-14.91-4.24-7.38-9.23-15.93-11.08-19-1.99-3.31-3.25-6.61-3.08-8.09.25-2.18.8-2.51 4.29-2.59 2.2-.06 6.7.5 10 1.23 4.88 1.08 18.76 3.9 37.5 7.63 1.38.27 8.12 1.67 15 3.11s16.1 3.33 20.5 4.19c4.4.87 9.35 1.97 11 2.45s4.58 1.11 6.5 1.4c7 1.05 29.58 5.64 32.6 6.63 1.7.55 5.64 1.44 8.75 1.98 3.11.53 8.24 1.44 11.4 2.01 12.6 2.29 15.25 2.63 15.25 1.97 0-.22-1.41-.67-3.6-1.19 6.14 1.23 13.56 2.75 20.6 4.22 57.55 12.01 73.43 15.3 89.4 18.52 4.46.9 8.57 1.77 11.68 2.46-2.95-.53-10.68-2.08-17.58-3.53-7.15-1.51-14.8-3.09-17-3.53-2.2-.43-12.78-2.64-23.5-4.9-22.89-4.84-58.13-12.06-58.88-12.06-.29 0-.09.43.44.96.77.77 33.89 7.98 55.44 12.07 10.48 1.98 30.21 5.95 39.5 7.94 5.5 1.18 13.26 2.82 17.25 3.65 5.22 1.09 7.25 1.95 7.25 3.06 0 .85-1.8 7.18-4 14.06s-3.99 13.24-3.97 14.14c.03 1.48.11 1.48.99-.02.03-.05.06-.11.09-.16-.45 1.17-.84 2.13-1.15 2.8-1 2.2-4.17 11.42-7.03 20.5s-7.39 23.25-10.06 31.49c-2.68 8.24-4.87 15.41-4.87 15.92s-1.09 3.67-2.43 7.01c-1.33 3.34-2.95 8.33-3.59 11.08s-1.42 5.67-1.74 6.5-1.14 3.3-1.82 5.5-2.63 7.8-4.33 12.45-3.09 9.28-3.09 10.29-.83 3.51-1.85 5.55-3.09 8.21-4.6 13.71-3.6 11.83-4.65 14.07c-1.04 2.23-1.92 4.93-1.94 6-.03 1.06-1.39 5.76-3.04 10.43-3.29 9.34-5.38 15.88-7.5 23.5-.77 2.75-1.82 5.9-2.33 7-.52 1.1-1.72 4.7-2.68 8-.95 3.3-2.06 6.45-2.45 7s-.95 2.35-1.25 4c-.57 3.11-4.08 13.66-6.39 19.15-.73 1.73-1.32 4-1.32 5.05 0 1.04-1.26 5.65-2.81 10.25l-.6 1.78c1.12-3.79.85-5.27-.71-2.47-2.22 3.96-4.56 1.94-11.36-9.76-3.67-6.33-6.91-11.5-7.2-11.5-.28 0 .48 1.69 1.7 3.75s5.17 8.89 8.79 15.18l4.34 7.56Zm-36.17-154.33c7.57-3.44 14.93-4.38 27.84-3.55 20.6 1.32 24.8 1.37 31.83.4 1.16-.16 2.29-.34 3.37-.56-2.03.46-4.23.86-6.58 1.2l-9.62 1.38 8.5-.49c10.43-.61 18.96-3.63 24.18-8.55 3.59-3.37 3.82-3.94 3.82-9.5-.01-4.88-.53-6.68-3-10.4-1.65-2.48-2.99-4.85-3-5.27 0-.42-1.05-2.45-2.33-4.5s-4.61-8-7.4-13.23c-8.4-15.77-9.72-17.78-13.82-21.05-3.37-2.68-4.56-3.08-8.14-2.68-4.98.56-12.67 4.83-14.94 8.29-.89 1.36-1.84 4.4-2.1 6.76-.43 3.75.15 5.44 4.62 13.49 2.81 5.06 5.11 9.44 5.11 9.73 0 .3-.53 1.11-1.17 1.8-.89.95-2.91 1.04-8.25.36-3.9-.49-12.27-.63-18.62-.31-10.18.5-12.47.97-19.5 3.98-4.38 1.87-9.42 4.82-11.21 6.54-3.36 3.25-4.11 5.09-2.08 5.09.23 0 .41-.03.53-.09-.24.46-.45.93-.64 1.42-1.64 4.34 1.22 12.92 5.92 17.77 3.27 3.37 4.38 3.9 8.15 3.88 2.4-.01 6.24-.87 8.53-1.91m-4.16-63.81c14.3-8.03 26.22-14.85 26.5-15.17.28-.33 2.08-1.38 4-2.35 6.86-3.46 9.53-5.43 11.75-8.71 4.53-6.69 1.98-16.58-5.35-20.74-2.15-1.22-10.23-4.24-17.96-6.72-15.77-5.06-18.71-5.03-23.74.22-3.57 3.73-5.14 11.54-3.13 15.61.79 1.6 1.43 3.25 1.43 3.66 0 .75-7.41 5.18-25 14.94-11.35 6.29-14.54 9.47-15.42 15.34-1.03 6.84 3.6 15.74 8.88 17.06 1.4.35 2.54 1.13 2.54 1.73 0 .74 1.55.87 4.75.4 3.49-.5 11.65-4.56 30.75-15.27m-17.63 42.34a.43.43 0 0 0-.13-.19c-.66-.66 4.61-5.52 7.76-7.16 2.16-1.13 4.64-2.11 7.37-2.93-7.24 2.3-12.51 5.8-15 10.28M550.56 319.55c-1.72-2.97-3.19-5.52-4.36-7.55-5.24-9.08-12.36-21.34-15.82-27.25-1.14-1.95-2.17-3.78-3.04-5.37 1.73 2.87 4.71 7.95 7.37 12.62 3.86 6.74 9.51 16.56 15.85 27.55m215.95 113.37c-1.8-3.47-4.28-8.03-7.71-14.24-6.71-12.15-13.36-23.39-14.78-24.98-1.83-2.05-4.59-3.15-7.6-3.4 2.78.18 5.34 1.06 7.13 2.75 1.33 1.25 8.06 12.5 14.94 25.01 3.59 6.52 6.17 11.27 8.02 14.86m-96.46-129.3c-16.91-3.57-52.57-10.92-65.55-13.49 18.05 3.57 51.75 10.53 65.55 13.49m149.28 59.79.01-.05c.19-1.02.88-3.15 1.52-4.72.44-1.08.97-2.5 1.53-4.1-1.05 3.15-2.12 6.25-3.06 8.87m-54.89 93.08c4.25-2.89 6.56-6.69 6.56-11.13 0 4.56-2.17 8.26-6.56 11.13m62.23-115.41c.72-2.55 1.16-4.39 1.07-4.67l.03.03c.14.14-.31 1.93-1.1 4.64M524.81 274h.01c.4 0 6.11 1.13 12.7 2.52-6.4-1.35-12.01-2.46-12.71-2.52m68.28 118.87c2.89 4.97 5.15 8.86 6.17 10.63.14.23.27.47.41.7-2.03-3.49-4.25-7.31-6.58-11.33"/><path fill="#b8e5f5" d="M620 915.92c-39.38 1.03-178.57 1.03-218 .01-88.75-2.31-171.71-8.99-210.53-16.94-21.69-4.45-27.75-9.82-16.85-14.94 13.5-6.35 49.03-11.42 112.88-16.11 8.8-.65 16.45-1.61 17-2.15 1.21-1.17.94-1.37-16-12.17-7.15-4.55-17.27-11.53-22.5-15.51-5.23-3.97-12.65-9.63-16.5-12.56-17.89-13.64-58.47-56.79-71.56-76.08-8.9-13.12-17.17-25.91-17.72-27.4-.31-.86-1.56-2.92-2.78-4.57-3.38-4.61-19.89-36.89-24.03-47-7.15-17.46-9.66-24.08-12.12-32-3.5-11.24-8.84-30.97-10.15-37.5-7.74-38.6-9.49-55.08-9.48-89.5 0-25.48.89-39.82 3.47-56 1.91-11.92 6.9-37.87 7.79-40.5.47-1.38 2.07-6.77 3.56-12 8.48-29.81 19.54-57.16 33.1-81.86 14.79-26.95 22.48-38.83 39.38-60.83 5.79-7.53 29.4-33.52 35.67-39.27 28.13-25.76 44.54-38.66 64.95-51.04 28.87-17.51 30.99-18.68 46.92-25.76 19.85-8.82 26.05-11.44 29-12.27 1.65-.47 8.4-2.68 15-4.93 38.52-13.09 71.06-18.52 123-20.52 26.07-1.01 71.7 4.32 99.5 11.63 20.15 5.29 39.76 11.38 47 14.58 3.03 1.34 8.65 3.58 12.5 4.98 6.34 2.31 29.31 13.08 35.5 16.64 1.38.79 7 4.03 12.5 7.2 12.22 7.04 22.16 13.12 25.5 15.58 17.15 12.67 31.4 23.9 40 31.52 15.04 13.32 41.7 41.74 51.1 54.45 1.87 2.53 5.89 7.93 8.94 12s8.45 12.02 12 17.67 7.94 12.63 9.74 15.5c1.81 2.88 6.4 11.53 10.21 19.23 30.98 62.59 44.4 119.66 44.2 188-.07 23.05-2.01 45.81-5.15 60.5-.53 2.47-1.89 9.77-3.01 16.21-4.18 23.87-16.99 64.38-26.55 83.95-1.43 2.94-3.63 7.81-4.88 10.84s-4.88 10.22-8.07 16-7.37 13.42-9.29 17c-1.91 3.58-4.23 7.4-5.14 8.5-.92 1.1-3.26 4.47-5.2 7.5-10.55 16.4-17.88 25.92-35.31 45.79-14.14 16.12-34.78 36.11-45.09 43.66-2.2 1.61-5.35 4.17-7 5.68-4.16 3.81-37.81 26.82-45.44 31.07-3.5 1.95-4.01 3.8-1.04 3.8 9.19 0 74.24 5.61 93.48 8.06 16.5 2.1 38.74 7.01 44.39 9.8 9.62 4.75 7.21 8.95-7.57 13.2-6.75 1.94-9.28 2.44-26.82 5.34-33.04 5.45-121.89 11.63-194.5 13.52m-94.77-30.04c3.44-1.73 14.81-8.11 25.26-14.17 34.47-19.98 73.77-42.5 98.51-56.45 6.33-3.57 14.42-8.19 18-10.28 5.74-3.35 58.06-33.2 88.5-50.48 71.52-40.6 79.32-45.2 83.26-49.09l3.26-3.23-.26-186.7-.26-186.71-3.65-3.13c-2.01-1.73-15.29-9.79-29.5-17.92-14.22-8.12-30.57-17.52-36.35-20.87-5.78-3.36-22.42-12.96-37-21.34s-33.47-19.27-42-24.2c-25.64-14.82-54.3-31.35-76-43.82-49.83-28.64-67.52-38.85-82.5-47.6-15.33-8.96-16.25-9.35-22-9.37-5.51-.02-6.77.44-15.5 5.6-5.23 3.09-36.05 20.91-68.5 39.6-32.45 18.7-69.35 39.98-82 47.29-29.68 17.17-58.61 33.83-101.5 58.46-50.3 28.89-57.23 33.04-60 36.01l-2.5 2.68v371.99l3.53 3.24c4.19 3.84 5.82 4.8 80.97 47.62 32.17 18.33 58.73 33.6 59 33.93s1.62 1.09 3 1.7c2.55 1.12 94.99 53.77 138.5 78.89 13.2 7.62 26.42 15.18 29.37 16.8 11.81 6.48 17.93 6.82 28.36 1.55"/><path fill="#b8e84b" d="M779 313.89c-7.42-1.58-22.28-4.67-33-6.86s-29.4-6.04-41.5-8.56c-52.79-10.99-75.65-15.68-85-17.45-5.5-1.03-21.03-4.18-34.5-7-13.47-2.81-31.25-6.47-39.5-8.12-8.25-1.66-16.58-3.39-18.5-3.85-1.92-.47-4.74-1.13-6.25-1.47l-2.75-.62v-51.98c0-46.97.15-51.98 1.6-51.98.88 0 5.94 2.56 11.25 5.69 10.57 6.23 18.19 10.64 28.15 16.31 3.58 2.03 13.7 7.88 22.5 12.99s26.8 15.48 40 23.03c13.2 7.56 32.33 18.57 42.5 24.46 18.39 10.66 56.62 32.67 102.5 59.04 26.13 15.01 31.5 18.25 31.5 18.99 0 .99-5.83.18-19-2.62m-228.44 5.66c-6.34-10.99-11.99-20.81-15.85-27.55-2.66-4.67-5.64-9.75-7.37-12.62-1.71-3.14-2.74-5.29-2.53-5.38.7.06 6.31 1.17 12.71 2.52 12.37 2.6 49.41 10.12 66.98 13.61 12.98 2.57 48.64 9.92 65.55 13.49 3.2.69 5.33 1.16 5.95 1.32 1.92.52 7.33 1.63 12 2.47 2.23.4 6.78 1.29 12.4 2.41 2.19.52 3.6.97 3.6 1.19 0 .66-2.65.32-15.25-1.97-3.16-.57-8.29-1.48-11.4-2.01-3.11-.54-7.05-1.43-8.75-1.98-3.02-.99-25.6-5.58-32.6-6.63-1.92-.29-4.85-.92-6.5-1.4s-6.6-1.58-11-2.45c-4.4-.86-13.62-2.75-20.5-4.19s-13.62-2.84-15-3.11c-18.74-3.73-32.62-6.55-37.5-7.63-3.3-.73-7.8-1.29-10-1.23-3.49.08-4.04.41-4.29 2.59-.17 1.48 1.09 4.78 3.08 8.09 1.85 3.07 6.84 11.62 11.08 19 4.25 7.37 8.15 14.08 8.67 14.91.53.83 2.46 4.2 4.31 7.5 1.84 3.3 6.86 12.08 11.14 19.5s9.44 16.42 11.46 20c2.01 3.58 5.49 9.42 7.73 13 7.08 11.3 27.5 47.15 27.1 47.56-.22.21-1.9-2.19-3.75-5.34-1.85-3.14-4.57-7.74-6.03-10.22-1.26-2.11-3.65-6.19-5.71-9.73l-.62-1.07-.01-.02c-.14-.23-.27-.46-.4-.68-1.02-1.77-3.28-5.66-6.17-10.63-14.03-24.14-32.45-55.9-42.53-73.32M666.87 443.6c-.06.1-.11.2-.17.31-.12.06-.3.09-.53.09-2.03 0-1.28-1.84 2.08-5.09 1.79-1.72 6.83-4.67 11.21-6.54 7.03-3.01 9.32-3.48 19.5-3.98 6.35-.32 14.72-.18 18.62.31 5.34.68 7.36.59 8.25-.36.64-.69 1.17-1.5 1.17-1.8 0-.29-2.3-4.67-5.11-9.73-4.47-8.05-5.05-9.74-4.62-13.49.26-2.36 1.21-5.4 2.1-6.76 2.27-3.46 9.96-7.73 14.94-8.29 3.58-.4 4.77 0 8.14 2.68 4.1 3.27 5.42 5.28 13.82 21.05 2.79 5.23 6.12 11.18 7.4 13.23s2.33 4.08 2.33 4.5c.01.42 1.35 2.79 3 5.27 2.47 3.72 2.99 5.52 3 10.4 0 5.56-.23 6.13-3.82 9.5-5.22 4.92-13.75 7.94-24.18 8.55l-8.5.49 9.62-1.38c2.35-.34 4.55-.74 6.58-1.2 5.25-1.03 9.54-2.7 12.74-4.87 4.39-2.87 6.56-6.57 6.56-11.13v-.01c0-2.69-.73-5.16-4.49-12.43-1.85-3.59-4.43-8.34-8.02-14.86-6.88-12.51-13.61-23.76-14.94-25.01-1.79-1.69-4.35-2.57-7.13-2.75-5.77-.48-12.49 2.13-15.51 7.09-3.44 5.63-2.58 9.96 4.49 22.64 3.52 6.31 6.23 11.64 6.03 11.86-.21.21-5.38-.19-11.5-.9-14.98-1.72-28.31-.78-38.06 2.33-2.73.82-5.21 1.8-7.37 2.93-3.15 1.64-8.42 6.5-7.76 7.16.07.06.11.13.13.19m159.8-102.52c-1.03 3.5-2.63 8.54-4.28 13.46-.56 1.6-1.09 3.02-1.53 4.1-.64 1.57-1.33 3.7-1.52 4.72l-.01.05c-.44 1.22-.85 2.32-1.22 3.29-.03.05-.06.11-.09.16-.88 1.5-.96 1.5-.99.02-.02-.9 1.77-7.26 3.97-14.14s4-13.21 4-14.06c0-1.11-2.03-1.97-7.25-3.06-3.99-.83-11.75-2.47-17.25-3.65-9.29-1.99-29.02-5.96-39.5-7.94-21.55-4.09-54.67-11.3-55.44-12.07-.53-.53-.73-.96-.44-.96.75 0 35.99 7.22 58.88 12.06 10.72 2.26 21.3 4.47 23.5 4.9 2.2.44 9.85 2.02 17 3.53 6.9 1.45 14.63 3 17.58 3.53 3.21.71 5.34 1.23 5.66 1.39.09.28-.35 2.12-1.07 4.67m-140.5-62.73c3.58-3.25 1.18-10.35-3.5-10.35-5.24 0-7.7 7.46-3.45 10.44 2.85 2 4.67 1.97 6.95-.09m-18.84-12.41c1.66-2.37 1.14-5.86-1.15-7.69-5.26-4.21-12.36 3.43-7.61 8.18 2.26 2.26 7.02 1.99 8.76-.49m65.05 366.37-2.23-3.82-4.34-7.56c-3.62-6.29-7.57-13.12-8.79-15.18s-1.98-3.75-1.7-3.75c.29 0 3.53 5.17 7.2 11.5 6.8 11.7 9.14 13.72 11.36 9.76 1.56-2.8 1.83-1.32.71 2.47Z"/><path fill="#d46d07" d="M195 535.93c0-144.29.12-155.05 1.67-154.75 1.17.22 2.83 3.92 5.53 12.32 2.12 6.6 6.05 18.75 8.73 27 2.69 8.25 10.58 32.55 17.54 54S241.52 514.62 242 516c.49 1.38 4.77 14.65 9.52 29.5 4.76 14.85 9.69 30.15 10.97 34 9.24 27.78 19.59 61.88 19.33 63.64-.23 1.51-3.04 3.59-9.82 7.29-5.23 2.85-17.38 9.48-27 14.73C208.97 684.8 197.25 691 196.14 691c-.85 0-1.14-39.39-1.14-155.07m230.44 265.2c2.98 3.15 6.02 6.34 9.3 9.78l.01.01c9.68 10.22 11.33 12.13 11.25 12.58-.06.33 4.98 6.23 11.2 13.11 15.39 17.05 15.59 19.31.9 10.39-4.53-2.75-8.55-5-8.93-5-1.08 0-9.3-4.45-27.67-15-9.35-5.37-20.6-11.77-25-14.23-1.59-.88-3.15-1.76-4.68-2.62-1.26-.72-2.23-1.28-2.82-1.63-2.75-1.61-9.86-5.67-16.5-9.42-7.23-4.23-12.03-7.19-13-8.07-1.1-.99-3.58-2.59-5.5-3.57-4.88-2.47-9-5.63-9-6.91 0-.59 1.01-1.52 2.25-2.06 1.66-.73 2.33-1.98 2.56-4.79l.32-3.79 8.68.78c4.78.43 10.94.79 13.69.8l5 .01v-3.39c0-2.69-.75-4-3.65-6.34-3.37-2.73-5-3.14-22-5.48-18.3-2.52-29.93-3.26-34.18-2.19-.59.08-.98.22-1.23.47-.21.13-.36.27-.46.43-.52.83-.96 2.12-.96 2.88-.03 1.9 6.37 7.77 11.09 10.18 2.14 1.09 3.89 2.66 3.89 3.48 0 1.46-2.79.37-9-3.5-.83-.51-7-3.62-13.73-6.91-5.98-2.93-13.06-6.62-16.79-8.73-.52-.31-1.02-.6-1.48-.88-3.37-2.01-10.31-6-17.29-9.97-5.88-3.35-11.79-6.68-15.71-8.83-3.02-1.66-6.62-3.8-8-4.74-1.38-.95-4.75-2.91-7.5-4.36s-5.68-3.07-6.5-3.6c-.82-.52-6.9-3.95-13.5-7.61-11.97-6.65-15.5-9.03-15.5-10.49 0-.42 4.84-3.34 10.75-6.49s13.68-7.39 17.25-9.44c3.57-2.04 11.45-6.33 17.5-9.52s17.02-9.13 24.38-13.19c7.37-4.07 13.93-7.18 14.59-6.93 1.31.5 40.53 41.76 60.61 63.76 4.04 4.43 11.81 12.85 20.49 22.23l.04.04c5.97 6.46 12.38 13.36 18.3 19.73 10.37 11.15 18.02 19.35 24.83 26.61 4.56 4.87 8.28 8.82 10.67 11.32zm-78.65-55.8c.47-.29.89-.6 1.26-.94 9.23-8.2-8.06-29.02-31.69-37.18-16.07-5.56-25.36-6.33-32.39-2.7-5.25 2.72-7.45 7.87-4.59 10.73.52.51 1.38 1.76 2.23 3.18.48 1.07 1.1 2.17 1.82 3.29 2.16 3.63 5.64 7.22 10.15 10.55 1.11.86 2.28 1.71 3.51 2.54 6.19 4.15 14.18 7.53 22.03 9.73 11.95 3.54 22.61 3.97 27.67.8M220.08 586.08c3.24-3.25 3.94-8.75 1.72-13.61-.97-2.15-1.66-2.52-3.75-2.02-4.86 1.16-5.44 1.04-6.73-1.45-1.61-3.12-1.71-12.06-.16-15.45 1.63-3.57 4.41-3.26 13.03 1.44 4.02 2.19 8.02 3.99 8.89 4 .86 0 2.66-1.15 4-2.57 1.9-2.03 2.39-3.58 2.3-7.25-.12-4.49-10.52-38.71-12.31-40.5-1.49-1.49-4.45-.25-6.01 2.53-1.37 2.45-1.28 3.45 1.44 12.83l.78 2.73.04.13c1.94 6.88 2.04 8.4.96 9.3-1.08.89-2.18.89-4.67-.01-1.48-.54-2.84-.88-4.09-1.02-2.18-.39-4.17.04-5.99 1.31-2.13 1.42-3.93 3.97-5.64 7.74-2.1 4.65-2.39 6.75-2.37 17.29.02 10.43.33 12.69 2.38 17.27 2.71 6.04 7.11 10.23 10.75 10.23 1.43 0 3.75-1.25 5.43-2.92m16.36 41.7c2.3-3.28 1.9-8-1.03-12.32l-2.59-3.82 2.18-4.07c10.25-19.1 13.12-25.2 13.57-28.86.64-5.25-1.25-9.21-4.4-9.21-1.95 0-3.95 3.28-14.37 23.56-11.06 21.56-12.03 23.89-11.39 27.3.47 2.52 1.41 4.01 2.89 4.59 1.21.47 4.45 1.79 7.2 2.92l.38.16c3.6 1.49 4.94 2.04 5.86 1.64.58-.26 1-.88 1.7-1.89m80.06 104.3c-9.11-2.75-12.79-4.52-16.87-8.1-7.89-6.93-1.87-10.01 11.72-6.01 3.93 1.16 9.52 3.27 12.42 4.7 5.42 2.66 10.6 7.72 9.94 9.71-.6 1.83-10.74 1.65-17.21-.3"/><path fill="#fff" d="M0 0h1024v1024H0Zm620 915.92c72.61-1.89 161.46-8.07 194.5-13.52 17.54-2.9 20.07-3.4 26.82-5.34 14.78-4.25 17.19-8.45 7.57-13.2-5.65-2.79-27.89-7.7-44.39-9.8-19.24-2.45-84.29-8.06-93.48-8.06-2.97 0-2.46-1.85 1.04-3.8 7.63-4.25 41.28-27.26 45.44-31.07 1.65-1.51 4.8-4.07 7-5.68 10.31-7.55 30.95-27.54 45.09-43.66 17.43-19.87 24.76-29.39 35.31-45.79 1.94-3.03 4.28-6.4 5.2-7.5.91-1.1 3.23-4.92 5.14-8.5 1.92-3.58 6.1-11.22 9.29-17s6.82-12.97 8.07-16 3.45-7.9 4.88-10.84c9.56-19.57 22.37-60.08 26.55-83.95 1.12-6.44 2.48-13.74 3.01-16.21 3.14-14.69 5.08-37.45 5.15-60.5.2-68.34-13.22-125.41-44.2-188-3.81-7.7-8.4-16.35-10.21-19.23-1.8-2.87-6.19-9.85-9.74-15.5s-8.95-13.6-12-17.67-7.07-9.47-8.94-12c-9.4-12.71-36.06-41.13-51.1-54.45-8.6-7.62-22.85-18.85-40-31.52-3.34-2.46-13.28-8.54-25.5-15.58-5.5-3.17-11.12-6.41-12.5-7.2-6.19-3.56-29.16-14.33-35.5-16.64-3.85-1.4-9.47-3.64-12.5-4.98-7.24-3.2-26.85-9.29-47-14.58-27.8-7.31-73.43-12.64-99.5-11.63-51.94 2-84.48 7.43-123 20.52-6.6 2.25-13.35 4.46-15 4.93-2.95.83-9.15 3.45-29 12.27-15.93 7.08-18.05 8.25-46.92 25.76-20.41 12.38-36.82 25.28-64.95 51.04-6.27 5.75-29.88 31.74-35.67 39.27-16.9 22-24.59 33.88-39.38 60.83-13.56 24.7-24.62 52.05-33.1 81.86-1.49 5.23-3.09 10.62-3.56 12-.89 2.63-5.88 28.58-7.79 40.5-2.58 16.18-3.47 30.52-3.47 56-.01 34.42 1.74 50.9 9.48 89.5 1.31 6.53 6.65 26.26 10.15 37.5 2.46 7.92 4.97 14.54 12.12 32 4.14 10.11 20.65 42.39 24.03 47 1.22 1.65 2.47 3.71 2.78 4.57.55 1.49 8.82 14.28 17.72 27.4 13.09 19.29 53.67 62.44 71.56 76.08 3.85 2.93 11.27 8.59 16.5 12.56 5.23 3.98 15.35 10.96 22.5 15.51 16.94 10.8 17.21 11 16 12.17-.55.54-8.2 1.5-17 2.15-63.85 4.69-99.38 9.76-112.88 16.11-10.9 5.12-4.84 10.49 16.85 14.94 38.82 7.95 121.78 14.63 210.53 16.94 39.43 1.02 178.62 1.02 218-.01m-64.2-335.04c-16.08-2.25-28.47-15.46-33.55-35.78-2.3-9.2-2.26-32.1.07-41.6 3.89-15.87 12.97-28.09 24.18-32.56 4.97-1.98 7.81-2.4 16.5-2.42 9.49-.02 11.05.25 16.16 2.76 13.2 6.48 20.97 19.68 23.93 40.64 2.85 20.19-2.16 44.14-11.67 55.75-8.77 10.69-21.04 15.25-35.62 13.21m-127.38-2.3c-3.74-1.63-7.42-6.08-7.41-8.96.02-9.59 8.17-18.69 28.99-32.37 18.38-12.07 21.33-14.42 25.16-19.99 2.52-3.65 3.22-5.83 3.58-11.15.39-5.75.14-7.06-1.92-10.09-4.13-6.06-8.11-8.02-16.32-8.02-6.36 0-7.67.34-11.2 2.9-4.48 3.24-7.3 9-7.3 14.9 0 2.06-.7 4.76-1.56 5.98-1.33 1.91-2.47 2.22-8.04 2.22-5.55 0-6.85-.35-8.93-2.44-1.77-1.77-2.32-3.22-2.01-5.25.25-1.55.67-4.86.95-7.37.74-6.78 3.94-13.33 9.29-19.05 8.27-8.84 18.66-12.52 32.84-11.64 14.8.92 26.32 8.51 32.11 21.14 2.47 5.38 2.81 7.3 2.83 16.11.02 9.48-.16 10.32-3.35 16.22-5.15 9.49-13.3 16.96-28.67 26.29-4.43 2.68-8.92 5.84-9.99 7.02-1.92 2.12-1.92 2.17-.02 3.56 1.52 1.11 6.41 1.41 22.68 1.41 20.32 0 20.79.05 22.31 2.22.89 1.27 1.56 4.3 1.56 7.08 0 4.03-.5 5.35-2.92 7.78l-2.93 2.92-33.32-.04c-25.63-.03-34.04-.35-36.41-1.38m141.6-19.41c8.23-4.34 12.99-16.95 12.97-34.38-.03-16.61-3.71-28.01-11.05-34.18-2.58-2.18-4.09-2.61-9.07-2.61-9.67 0-14.7 3.9-19.01 14.73-2.05 5.16-2.29 7.4-2.26 21.27.03 16.45 1.02 21.4 5.73 28.59 5.04 7.69 15.06 10.59 22.69 6.58M680.2 458.24c-1.83-.62-6.2-7.8-6.2-10.2 0-2.32 5.75-5.6 13.5-7.7 7.56-2.04 21.04-2.67 30-1.4 4.4.63 11.93 1.41 16.73 1.74 7.66.52 8.81.39 9.39-1.12.64-1.69-4.29-12.02-12.77-26.73-4.74-8.22-4.83-10.25-.6-12.87 6.14-3.79 7.18-2.94 15.97 13.04l.57 1.05c14.97 27.21 16.31 29.66 15.94 31.8-.04.24-.1.48-.16.75-1.39 5.51-15.97 8.93-31.57 7.39-21.17-2.08-35.89-1.06-46 3.21-1.92.81-4.09 1.28-4.8 1.04m-308.2-55c-.83-.28-11.46-6.07-23.64-12.87S325.26 378 324.11 378c-1.89 0-2.11.58-2.11 5.43 0 4.67-.37 5.71-2.63 7.5-1.45 1.14-3.05 2.07-3.55 2.07-2.03 0-5.82-5.03-5.8-7.7.01-1.54-.96-7.83-2.16-13.99-2.05-10.55-2.08-11.33-.49-13.75 1.19-1.82 2.56-2.56 4.73-2.56 3.83 0 64.42 33.42 66.64 36.76 1.22 1.84 1.28 2.78.3 5.15-1.56 3.75-5.13 6.97-7.04 6.33m-41.5 46.86c-26.9-15.48-35.53-20.02-36.96-19.48-1.08.42-1.54 1.99-1.54 5.26 0 5.88-2.13 9.12-6 9.12-3.55 0-6-3.15-6-7.72 0-1.81-.96-8-2.13-13.75-2.01-9.83-2.03-10.63-.48-13 3.16-4.82 5.77-3.83 39.61 15.07 17.33 9.68 31.83 18.11 32.23 18.75 2.31 3.61-2.3 11.72-6.57 11.57-1.19-.04-6.66-2.66-12.16-5.82m318.55-44.76c-2.74-3.48-3.57-7.01-2.08-8.81.66-.79 11.28-7.13 23.61-14.09S693 369.24 693 368.56c0-.67-1.8-2.67-4-4.44-4.39-3.53-5.34-7.64-2.43-10.55 2.17-2.17 3.17-2.03 12.62 1.77 4.57 1.84 10.7 3.92 13.63 4.62 4.5 1.08 5.57 1.79 6.91 4.6 1.38 2.9 1.4 3.6.17 5.47-.79 1.18-13.12 8.76-27.41 16.84-14.3 8.09-28.46 16.14-31.49 17.91-6.71 3.9-9.22 4.02-11.95.56"/><path fill="#ea9107" d="M287.52 617.25c-2.05-6.46-7.69-23.9-12.53-38.75-4.85-14.85-12.94-39.83-17.98-55.5s-15.84-48.98-24.01-74c-14.47-44.38-34.17-105.33-35.45-109.67-.35-1.19-.21-2.43.32-2.75 1.04-.64 22.24-5.11 88.13-18.59 23.92-4.89 59.02-12.08 78-15.97 74.83-15.34 118.19-24.1 130.65-26.4.03.01.06.03.1.04.69.28 1.25 1.4 1.25 2.48 0 1.65.8 1.78 1.82.62-2.05 3.38-7.57 12.93-30.57 52.74-17.51 30.3-22.58 39.05-37.99 65.5-6.57 11.27-18.61 31.98-26.75 46-8.15 14.02-23.45 40.35-34 58.5-28.24 48.56-61.96 106.61-68.39 117.72-3.43 5.93-6.25 9.74-7.25 9.75-1.2.02-2.59-3.02-5.35-11.72m59.16-153.32c9.67-3.66 14.68-17.78 8.8-24.77-1.39-1.65-7.58-5.8-13.75-9.23a4912 4912 0 0 1-27.2-15.22c-30.22-17.03-30.67-17.19-38.13-13.81-7.81 3.55-10.04 10.93-6.95 22.96.8 3.1 1.88 9.14 2.41 13.42 1.35 11.03 4.78 15.39 12.85 16.35 4.91.58 11.22-2.92 13.29-7.36.33-.71.68-1.36 1.02-1.89.15.65 1.46 1.17 3.16 1.24 2.24.08 2.82.04 2.19-.56 3.34 1.77 8.37 4.51 13.87 7.58l.42.24c18.56 10.37 22.22 12.41 25.44 11.87.81-.14 1.59-.44 2.58-.82m31.77-53.61c4.87-2.32 8.82-8.6 9.32-14.82.66-8.14-1.48-10.26-21.77-21.65-33.66-18.89-48.6-26.82-51.67-27.43-4.97-1-11.77 2.56-14.27 7.46-2.45 4.81-2.57 9.34-.48 18.12.85 3.58 1.93 9.87 2.4 13.98.77 6.79 1.18 7.77 4.39 10.72 4.11 3.76 7.28 4.78 12.11 3.87 3.91-.73 9.1-4.67 10.03-7.61.35-1.08 1.36-1.96 2.27-1.96.9 0 9.54 4.35 19.18 9.67 9.65 5.31 18.21 10.02 19.04 10.47 2.39 1.27 5.66.99 9.45-.82m120.87-133.95c.47-1.04.18-1.29-1.53-1.3.3-.05.49-.07.58-.07 1.41 0 1.67.14.95 1.37M300.35 443.05c-.08 0-.16 0-.23.01.04-.03.08-.04.12-.04.02 0 .06.01.11.03"/><path fill="#f7b244" d="M299 444.25c0-1.65 2.15-1.59 4.49.12 1.71 1.25 1.61 1.35-1.31 1.25-1.81-.07-3.18-.66-3.18-1.37M226.5 317c-.51-.83-.63-.75 69.5-41.03 32.73-18.79 64.67-37.22 71-40.95s17.8-10.37 25.5-14.75 19.96-11.41 27.25-15.62c61.03-35.24 76.63-44.28 80.25-46.5 1.92-1.18 4.06-2.14 4.75-2.15.98 0 1.25 11.13 1.25 52.32v52.33l-27.75 5.62c-64.4 13.07-93 18.9-113.75 23.21-12.1 2.51-35.27 7.26-51.5 10.57-16.23 3.3-42.23 8.61-57.8 11.8-15.56 3.19-28.48 5.51-28.7 5.15m144.28-52.56c4.39-3.07 1.62-10.44-3.93-10.44-1.59 0-5.85 4.37-5.85 6s4.26 6 5.85 6c.94 0 2.71-.7 3.93-1.56m21.43-13.51c1.63-2.19 1.73-2.96.69-5.25-1.01-2.22-1.87-2.68-5.03-2.68-2.73 0-4.09.54-4.83 1.93-1.66 3.09-1.21 5.83 1.21 7.54 2.99 2.11 5.63 1.6 7.96-1.54M424 233c1.1-1.1 2-3.1 2-4.44 0-2.6-3.27-5.56-6.15-5.56-4.36 0-6.43 6.6-3.2 10.17 2.16 2.38 4.86 2.32 7.35-.17m47.54-27.49c6.31-3.53 7.46-4.89 7.46-8.89 0-5.5-5.39-6.05-13.41-1.37-5.81 3.4-7.15 5.37-6.2 9.16.46 1.82 3.29 4.15 5.51 4.52.23.04 3.21-1.5 6.64-3.42M496 278.14c0-1.08-.56-2.2-1.25-2.48s.23-.54 2.04-.58c2.95-.07 3.18.12 2.24 1.86-1.53 2.87-3.03 3.46-3.03 1.2"/></g></svg>