<svg xmlns="http://www.w3.org/2000/svg" width="82" height="82" fill="none" viewBox="0 0 82 82"><path fill="#daedf7" stroke="#daedf7" d="M1 41a40 40 0 1 0 80 0 40 40 0 0 0-80 0Z"/><path fill="#ff6242" d="M68.821 60.34a7.49 7.49 0 0 1-7.49 7.49H20.67a7.49 7.49 0 1 1 0-14.98h40.66a7.49 7.49 0 0 1 7.49 7.49"/><path fill="#ff6242" d="M20.67 55.52h40.66a7.49 7.49 0 0 1 7.365 6.155 7.463 7.463 0 0 0-7.365-8.825H20.67a7.46 7.46 0 0 0-7.365 8.825 7.49 7.49 0 0 1 7.365-6.155"/><path stroke="#45413c" stroke-linecap="round" stroke-linejoin="round" d="M68.821 60.34a7.49 7.49 0 0 1-7.49 7.49H20.67a7.49 7.49 0 1 1 0-14.98h40.66a7.49 7.49 0 0 1 7.49 7.49"/><path fill="#87898c" d="M69.891 60.34a2.14 2.14 0 0 1-2.141 2.14h-53.5a2.14 2.14 0 0 1 0-4.28h53.5a2.14 2.14 0 0 1 2.141 2.14"/><path fill="#87898c" d="M12.109 60.34a2.14 2.14 0 0 1 2.141-2.14h53.5a2.14 2.14 0 0 1 2.141 2.14z"/><path stroke="#45413c" stroke-linecap="round" stroke-linejoin="round" d="M69.891 60.34a2.14 2.14 0 0 1-2.141 2.14h-53.5a2.14 2.14 0 0 1 0-4.28h53.5a2.14 2.14 0 0 1 2.141 2.14"/><path fill="#00b8f0" d="M51.7 59.27a3.21 3.21 0 0 1-3.21 3.21H33.51a3.21 3.21 0 0 1-3.21-3.21v-6.42h21.4z"/><path fill="#4acfff" d="m44.435 52.85-9.62 9.63h-1.3a3.207 3.207 0 0 1-3.21-3.21v-6.42z"/><path stroke="#45413c" stroke-linecap="round" stroke-linejoin="round" d="M51.7 59.27a3.21 3.21 0 0 1-3.21 3.21H33.51a3.21 3.21 0 0 1-3.21-3.21v-6.42h21.4z"/><path fill="#fff" stroke="#009fd9" d="M43.675 57.13c0 .71.17 1.39.47 1.892.301.501.71.783 1.135.783s.834-.282 1.135-.783.47-1.183.47-1.892c0-.71-.169-1.39-.47-1.892-.301-.501-.71-.783-1.135-.783s-.834.282-1.135.783c-.3.502-.47 1.182-.47 1.892Z"/><path fill="#45413c" stroke="#45413c" stroke-linecap="round" stroke-linejoin="round" d="M27.09 68.9a2.14 2.14 0 0 1-2.14 2.14h-1.07a2.14 2.14 0 0 1-2.14-2.14v-1.07h5.35zM61.33 68.9a2.14 2.14 0 0 1-2.14 2.14h-1.07a2.14 2.14 0 0 1-2.14-2.14v-1.07h5.35z"/><path fill="#45413c" d="M19.315 71.447c0 .392 2.326.767 6.466 1.044s9.757.433 15.612.433 11.471-.156 15.611-.433 6.467-.652 6.467-1.044-2.326-.767-6.467-1.044c-4.14-.277-9.756-.433-15.611-.433s-11.471.156-15.612.433c-4.14.277-6.466.652-6.466 1.044" opacity=".15"/><path fill="#fff5eb" d="M44.21 52.85a2.141 2.141 0 0 1-.72-4.157l7.879-2.814a8.58 8.58 0 0 0 5.681-8.06V22.888a2.14 2.14 0 1 1 4.28 0v14.931a12.87 12.87 0 0 1-8.522 12.092l-7.878 2.814a2.2 2.2 0 0 1-.72.125"/><path fill="#fc9" d="M54.654 43.752a8.5 8.5 0 0 1-3.285 2.127l-7.879 2.814a2.14 2.14 0 0 0 .713 4.156h.019a2.2 2.2 0 0 0 .708-.124l7.878-2.814a12.8 12.8 0 0 0 2.574-1.265 42 42 0 0 0-.728-4.894"/><path stroke="#45413c" stroke-linecap="round" stroke-linejoin="round" d="M44.21 52.85a2.141 2.141 0 0 1-.72-4.157l7.879-2.814a8.58 8.58 0 0 0 5.681-8.06V22.888a2.14 2.14 0 1 1 4.28 0v14.931a12.87 12.87 0 0 1-8.522 12.092l-7.878 2.814a2.2 2.2 0 0 1-.72.125"/><path fill="#fff5eb" stroke="#45413c" stroke-linecap="round" stroke-linejoin="round" d="M37.6 12.5C34.055 7.051 29.078 4 26.483 5.691s-1.824 7.474 1.721 12.922z"/><path fill="#ffa694" stroke="#45413c" stroke-linecap="round" stroke-linejoin="round" d="M35.467 13.885c-2.439-3.749-5.563-6.042-6.978-5.121s-.586 4.706 1.853 8.455z"/><path fill="#ffaa54" stroke="#45413c" d="M44.4 12.5c3.545-5.449 8.522-8.5 11.117-6.809s1.824 7.474-1.721 12.922z"/><path fill="#ffa694" stroke="#45413c" stroke-linecap="round" stroke-linejoin="round" d="M46.533 13.885c2.439-3.749 5.563-6.042 6.978-5.121s.586 4.706-1.853 8.455z"/><path fill="#fff5eb" d="M30.3 52.849c0-12.41 4.79-22.47 10.7-22.47s10.7 10.06 10.7 22.47z"/><path fill="#fc9" d="M41 30.379c-2.594 0-4.972 1.941-6.825 5.166a8.6 8.6 0 0 0 2.545.385h8.87c.769 0 1.533-.105 2.274-.31-1.858-3.269-4.25-5.241-6.864-5.241"/><path stroke="#45413c" stroke-linecap="round" stroke-linejoin="round" d="M30.3 52.849c0-12.41 4.79-22.47 10.7-22.47s10.7 10.06 10.7 22.47z"/><path fill="#fff5eb" d="M54.151 20.748v3.21a8.55 8.55 0 0 1-8.561 8.561h-8.87a8.557 8.557 0 0 1-8.56-8.561v-3.21a8.56 8.56 0 0 1 8.56-8.56h8.87a8.565 8.565 0 0 1 8.561 8.56"/><path fill="#fc9" d="M54.086 22.083a8.567 8.567 0 0 1-8.5 7.5H36.72a8.557 8.557 0 0 1-8.56-8.56v2.935a8.56 8.56 0 0 0 8.56 8.56h8.87a8.545 8.545 0 0 0 8.56-8.56v-2.933q.001.531-.064 1.058"/><path stroke="#45413c" stroke-linecap="round" stroke-linejoin="round" d="M54.151 20.748v3.21a8.55 8.55 0 0 1-8.561 8.561h-8.87a8.557 8.557 0 0 1-8.56-8.561v-3.21a8.56 8.56 0 0 1 8.56-8.56h8.87a8.565 8.565 0 0 1 8.561 8.56"/><path fill="#ffaa54" stroke="#45413c" d="M54.151 20.748v1.059a1 1 0 0 1-.311.011c-6.051-1.421-7.817-3.883-9.63-9.631h1.38a8.565 8.565 0 0 1 8.561 8.561Z"/><path fill="#45413c" d="M33.51 22.888a1.605 1.605 0 1 0 3.21 0 1.605 1.605 0 0 0-3.21 0M45.28 22.888a1.605 1.605 0 1 0 3.21 0 1.605 1.605 0 0 0-3.21 0"/><path fill="#ffb0ca" stroke="#45413c" stroke-linecap="round" stroke-linejoin="round" d="M39.934 25.828a.673.673 0 0 0-.475 1.148l1.066 1.066a.67.67 0 0 0 .95 0l1.066-1.066a.671.671 0 0 0-.475-1.148z"/><path fill="#fff" d="m30.3 25.03-8.56-1.07Z"/><path stroke="#45413c" stroke-linecap="round" stroke-linejoin="round" d="m30.3 25.03-8.56-1.07"/><path fill="#fff" d="m30.3 28.239-7.49 3.21Z"/><path stroke="#45413c" stroke-linecap="round" stroke-linejoin="round" d="m30.3 28.239-7.49 3.21"/><path fill="#fff" d="m51.7 25.03 8.56-1.07Z"/><path stroke="#45413c" stroke-linecap="round" stroke-linejoin="round" d="m51.7 25.03 8.56-1.07"/><path fill="#fff" d="m51.7 28.239 7.49 3.21Z"/><path stroke="#45413c" stroke-linecap="round" stroke-linejoin="round" d="m51.7 28.239 7.49 3.21M41 28.239a1.605 1.605 0 1 1-3.21 0M41 28.239a1.605 1.605 0 1 0 3.21 0M35.65 47.499l1.07 5.35M46.35 47.499l-1.07 5.35M41 52.849v-5.35"/><path fill="#fc9" stroke="#45413c" stroke-linecap="round" stroke-linejoin="round" d="M27.09 52.849a3.21 3.21 0 0 1 6.42 0zM48.49 52.849a3.21 3.21 0 0 1 6.42 0z"/><path fill="#fff" stroke="#009fd9" d="M35.115 57.13c0 .71.17 1.39.47 1.892.301.501.71.783 1.135.783s.834-.282 1.135-.783c.3-.502.47-1.183.47-1.892 0-.71-.17-1.39-.47-1.892-.301-.501-.71-.783-1.135-.783s-.834.282-1.135.783c-.3.502-.47 1.182-.47 1.892Z"/></svg>