<svg viewBox="0 0 100 100" xmlns="http://www.w3.org/2000/svg" id="Missing-Cat--Streamline-Ux">
  <desc>
    Missing Cat Streamline Illustration: https://streamlinehq.com
  </desc>
  <path d="M10 50a40 40 0 1 0 80 0 40 40 0 1 0 -80 0Z" fill="#daedf7" stroke="#daedf7" stroke-width="1"></path>
  <path d="M26.729 82.524a39.965 39.965 0 0 0 46.865 -0.23V10.486H26.729Z" fill="#adc4d9" stroke-width="1"></path>
  <path d="M26.729 82.524a39.8 39.8 0 0 0 14.929 6.6V10.486H26.729Z" fill="#daedf7" stroke-width="1"></path>
  <path d="m26.729 10.486 0 72.038" fill="none" stroke="#45413c" stroke-linecap="round" stroke-linejoin="round" stroke-width="1"></path>
  <path d="m73.594 82.294 0 -71.808" fill="none" stroke="#45413c" stroke-linecap="round" stroke-linejoin="round" stroke-width="1"></path>
  <path d="m31.454 24.858 37.873 0 0 49.347 -37.873 0Z" fill="#ffffff" stroke="#45413c" stroke-linecap="round" stroke-linejoin="round" stroke-width="1"></path>
  <path d="m62.0557633051 26.4356847761 5.2170338316 -5.2170338316 2.5901321395 2.5901321395 -5.2170338316 5.2170338316Z" fill="#fffacf" stroke="#45413c" stroke-linecap="round" stroke-linejoin="round" stroke-width="1"></path>
  <path d="m30.7931911116 23.8086481707 2.5901321395 -2.5901321395 5.2170338316 5.2170338316 -2.5901321395 2.5901321395Z" fill="#fffacf" stroke="#45413c" stroke-linecap="round" stroke-linejoin="round" stroke-width="1"></path>
  <path d="M37.766 74.205h-5.312a1 1 0 0 1 -1 -1v-8.527h6.312Z" fill="#fffacf" stroke="#45413c" stroke-linecap="round" stroke-linejoin="round" stroke-width="1"></path>
  <path d="M37.766 64.678h6.312v9.527h-6.312z" fill="#fffacf" stroke="#45413c" stroke-linecap="round" stroke-linejoin="round" stroke-width="1"></path>
  <path d="M44.078 64.678h6.312v9.527h-6.312z" fill="#fffacf" stroke="#45413c" stroke-linecap="round" stroke-linejoin="round" stroke-width="1"></path>
  <path d="M50.391 64.678h6.312v9.527h-6.312z" fill="#fffacf" stroke="#45413c" stroke-linecap="round" stroke-linejoin="round" stroke-width="1"></path>
  <path d="M56.703 64.678h6.312v9.527h-6.312z" fill="#fffacf" stroke="#45413c" stroke-linecap="round" stroke-linejoin="round" stroke-width="1"></path>
  <path d="M68.327 74.205h-5.312v-9.527h6.312v8.527a1 1 0 0 1 -1 1Z" fill="#fffacf" stroke="#45413c" stroke-linecap="round" stroke-linejoin="round" stroke-width="1"></path>
  <path d="M40.128 55.456a0.8 0.8 0 1 1 1.595 0v5.337h1.892a0.721 0.721 0 0 1 0.765 0.765 0.744 0.744 0 0 1 -0.765 0.7h-2.658a0.788 0.788 0 0 1 -0.829 -0.872Z" fill="#45413c" stroke-width="1"></path>
  <path d="M44.363 58.476a3.669 3.669 0 0 1 3.657 -3.913 3.719 3.719 0 0 1 3.657 3.913 3.665 3.665 0 1 1 -7.314 0Zm5.656 0c0 -1.286 -0.671 -2.446 -2 -2.446s-2 1.16 -2 2.446 0.649 2.445 2 2.445 2 -1.148 2 -2.445Z" fill="#45413c" stroke-width="1"></path>
  <path d="M56.817 55.626a0.737 0.737 0 0 1 -0.713 0.787c-0.435 0 -0.776 -0.319 -1.413 -0.319 -0.458 0 -0.872 0.244 -0.872 0.691 0 1.1 3.551 0.394 3.551 3.136a2.526 2.526 0 0 1 -2.722 2.467c-0.818 0 -2.583 -0.192 -2.583 -1.19a0.709 0.709 0 0 1 0.712 -0.755c0.5 0 1.095 0.414 1.786 0.414s1.084 -0.394 1.084 -0.914c0 -1.254 -3.551 -0.5 -3.551 -2.967a2.46 2.46 0 0 1 2.637 -2.413c0.595 0 2.084 0.223 2.084 1.063Z" fill="#45413c" stroke-width="1"></path>
  <path d="M59.33 56.159h-1.159a0.688 0.688 0 0 1 -0.723 -0.735 0.712 0.712 0 0 1 0.723 -0.733h3.913a0.712 0.712 0 0 1 0.723 0.733 0.688 0.688 0 0 1 -0.723 0.735h-1.159V61.5a0.8 0.8 0 1 1 -1.595 0Z" fill="#45413c" stroke-width="1"></path>
  <path d="M45.587 33.468a29.2 29.2 0 0 0 -6.3 -3.128 0.878 0.878 0 0 0 -1.115 0.829 39.263 39.263 0 0 0 1.256 7.8 20.735 20.735 0 0 1 6.159 -5.501Z" fill="#87898c" stroke="#45413c" stroke-linecap="round" stroke-linejoin="round" stroke-width="1"></path>
  <path d="M55.194 33.468a29.2 29.2 0 0 1 6.3 -3.128 0.878 0.878 0 0 1 1.115 0.829 39.263 39.263 0 0 1 -1.256 7.8 20.735 20.735 0 0 0 -6.159 -5.501Z" fill="#87898c" stroke="#45413c" stroke-linecap="round" stroke-linejoin="round" stroke-width="1"></path>
  <path d="M50.391 52.481c-6.811 0 -12.332 -4.257 -12.332 -9.508s7.535 -9.509 7.535 -9.509h9.593s7.535 4.257 7.535 9.509 -5.522 9.508 -12.331 9.508Z" fill="#fffef2" stroke="#45413c" stroke-linecap="round" stroke-linejoin="round" stroke-width="1"></path>
  <path d="M50.391 36.087c-4.372 0 -9.721 3.324 -8.723 8.769a9.085 9.085 0 0 0 4.469 6.57c1.274 -0.652 4.133 -2.365 4.254 -4.658 0.12 2.293 2.979 4.006 4.253 4.658a9.085 9.085 0 0 0 4.469 -6.57c0.998 -5.445 -4.351 -8.769 -8.722 -8.769Z" fill="#87898c" stroke-width="1"></path>
  <path d="M55.246 51.714s-4.7 -1.993 -4.855 -4.946c-0.156 2.953 -4.856 4.946 -4.856 4.946" fill="none" stroke="#45413c" stroke-linecap="round" stroke-linejoin="round" stroke-width="1"></path>
  <path d="M49.117 44.253a1.15 1.15 0 0 0 -0.757 2.016l1.164 1.017a1.316 1.316 0 0 0 1.733 0l1.164 -1.017a1.15 1.15 0 0 0 -0.757 -2.016Z" fill="#ffccdd" stroke="#45413c" stroke-linecap="round" stroke-linejoin="round" stroke-width="1"></path>
  <path d="M50.391 52.481c-6.811 0 -12.332 -4.257 -12.332 -9.508s7.535 -9.509 7.535 -9.509h9.593s7.535 4.257 7.535 9.509 -5.522 9.508 -12.331 9.508Z" fill="none" stroke="#45413c" stroke-linecap="round" stroke-linejoin="round" stroke-width="1"></path>
  <path d="M43.948 40.95a1.844 1.844 0 1 0 3.688 0 1.844 1.844 0 1 0 -3.688 0Z" fill="#45413c" stroke-width="1"></path>
  <path d="M53.145 40.95a1.844 1.844 0 1 0 3.688 0 1.844 1.844 0 1 0 -3.688 0Z" fill="#45413c" stroke-width="1"></path>
</svg>
