<svg xmlns="http://www.w3.org/2000/svg" width="100" height="100" viewBox="0 0 100 100"><desc>Plugin Lego Streamline Illustration: https://streamlinehq.com</desc><path fill="#daedf7" stroke="#daedf7" d="M10 50a40 40 0 1 0 80 0 40 40 0 1 0-80 0Z"/><path fill="#fff48c" stroke="#45413c" stroke-linejoin="round" d="M47.745 34.382h-5.988a1 1 0 0 0-1 1v3.792h7.988v-3.792a1 1 0 0 0-1-1Z"/><path fill="#ffe500" d="M19.99 39.174h31.95v12.78H19.99Z"/><path fill="#fff48c" d="M50.94 39.174H20.99a1 1 0 0 0-1 1v2.2h31.95v-2.2a1 1 0 0 0-1-1"/><path fill="#fff48c" stroke="#45413c" stroke-linejoin="round" d="M30.172 34.382h-5.987a1 1 0 0 0-1 1v3.792h7.987v-3.792a1 1 0 0 0-1-1Z"/><path fill="#45413c" d="M34.75 71.228a23.963 1.997 0 1 0 47.926 0 23.963 1.997 0 1 0-47.926 0" opacity=".15"/><path fill="#00b8f0" stroke="#45413c" stroke-linejoin="round" d="M19.99 51.955h31.95v12.78H19.99Z"/><path fill="none" stroke="#45413c" stroke-linejoin="round" d="M19.99 39.174h31.95v12.78H19.99Z"/><path fill="#ff6242" d="m38.628 30.14 7.61-10.268 25.667 19.026-7.61 10.267Z"/><path fill="#ff6242" d="M69.991 41.483 71.31 39.7a1 1 0 0 0-.208-1.4L47.041 20.468a1 1 0 0 0-1.4.208l-1.32 1.78Z"/><path fill="none" stroke="#45413c" stroke-linejoin="round" d="m38.628 30.14 7.61-10.268 25.667 19.026-7.61 10.267Z"/><path fill="#ff6242" stroke="#45413c" stroke-linejoin="round" d="M57.48 23.485a1 1 0 0 0-.208-1.4l-4.81-3.565a1 1 0 0 0-1.4.208l-2.258 3.046 6.417 4.757ZM65.18 29.193a1 1 0 0 1 1.4-.208l4.81 3.566a1 1 0 0 1 .208 1.4L69.339 37l-6.417-4.76Z"/><path fill="#6dd627" stroke="#45413c" stroke-linejoin="round" d="M36.414 46.363h43.932v23.963H36.414Z"/><path fill="#9ceb60" stroke="#45413c" stroke-linejoin="round" d="M50.393 53.352a2.995 2.995 0 1 0 5.99 0 2.995 2.995 0 1 0-5.99 0ZM40.408 53.352a2.995 2.995 0 1 0 5.99 0 2.995 2.995 0 1 0-5.99 0ZM40.408 63.337a2.995 2.995 0 1 0 5.99 0 2.995 2.995 0 1 0-5.99 0ZM60.377 53.352a2.995 2.995 0 1 0 5.99 0 2.995 2.995 0 1 0-5.99 0ZM70.362 53.352a2.995 2.995 0 1 0 5.99 0 2.995 2.995 0 1 0-5.99 0ZM50.393 63.337a2.995 2.995 0 1 0 5.99 0 2.995 2.995 0 1 0-5.99 0ZM60.377 63.337a2.995 2.995 0 1 0 5.99 0 2.995 2.995 0 1 0-5.99 0ZM70.362 63.337a2.995 2.995 0 1 0 5.99 0 2.995 2.995 0 1 0-5.99 0Z"/></svg>