<svg xmlns="http://www.w3.org/2000/svg" width="100" height="100" fill="none" viewBox="0 0 100 100"><desc>Chatbot 1 Streamline Illustration: https://streamlinehq.com</desc><path fill="#daedf7" stroke="#daedf7" stroke-miterlimit="10" d="M51.086 92.87c22.091 0 40-17.909 40-40s-17.909-40-40-40-40 17.909-40 40 17.909 40 40 40Z"/><path fill="#87898c" d="M76.742 61.385a.51.51 0 0 1 .564.508 5.358 5.358 0 1 1-6.478-5.241.51.51 0 0 1 .614.446l.162 1.534a.51.51 0 0 1-.376.547 2.807 2.807 0 1 0 3.524 2.85.51.51 0 0 1 .456-.482z"/><path stroke="#45413c" stroke-linecap="round" stroke-linejoin="round" d="M76.742 61.385a.51.51 0 0 1 .564.508 5.358 5.358 0 1 1-6.478-5.241.51.51 0 0 1 .614.446l.162 1.534a.51.51 0 0 1-.376.547 2.807 2.807 0 1 0 3.524 2.85.51.51 0 0 1 .456-.482z"/><path fill="#fff" d="m48.952 62.078-2.846 2.924 10.967 10.675 2.846-2.924z"/><path fill="#e0e0e0" d="m47.784 63.278 1.168-1.2L54 66.994l-.161.395a3.06 3.06 0 0 1-3.368 1.865l-3.665-3.568z"/><path stroke="#45413c" stroke-linecap="round" stroke-linejoin="round" d="m48.952 62.078-2.846 2.924 10.967 10.675 2.846-2.924z"/><path fill="#fff" d="m66.779 65.462-8.463 7.428 2.692 3.067 8.463-7.428z"/><path fill="#e0e0e0" d="m64.191 67.734 2.589-2.272 2.692 3.067-2.535 2.225a3.06 3.06 0 0 1-2.746-3.02"/><path stroke="#45413c" stroke-linecap="round" stroke-linejoin="round" d="m66.779 65.462-8.463 7.428 2.692 3.067 8.463-7.428z"/><path fill="#fff" stroke="#45413c" stroke-linecap="round" stroke-linejoin="round" d="M69.217 69.102a3.06 3.06 0 1 0 0-6.122 3.06 3.06 0 0 0 0 6.122M59.205 77.89a3.06 3.06 0 1 0 0-6.122 3.06 3.06 0 0 0 0 6.122"/><path fill="#daedf7" d="M39.277 86.718h-6.122v5.84h6.122z"/><path fill="#adc4d9" d="M39.282 86.718H33.16v3.061h6.122z"/><path stroke="#45413c" stroke-linecap="round" stroke-linejoin="round" d="M33.155 92.558v-5.84h6.122v5.84"/><path fill="#daedf7" d="M38.256 54.776h-4.081v4.081h4.081z"/><path fill="#adc4d9" d="M38.256 54.776h-4.081v2.041h4.081z"/><path stroke="#45413c" stroke-linecap="round" stroke-linejoin="round" d="M38.256 54.776h-4.081v4.081h4.081z"/><path fill="#fff" stroke="#45413c" stroke-linecap="round" stroke-linejoin="round" d="M41.318 58.858H31.114a3.06 3.06 0 0 0-3.061 3.061v9.183c0 1.69 1.37 3.061 3.061 3.061h10.204a3.06 3.06 0 0 0 3.061-3.061v-9.183c0-1.69-1.37-3.061-3.061-3.061"/><path fill="#daedf7" d="M39.277 74.163h-6.122v5.197h6.122z"/><path fill="#adc4d9" d="M39.282 74.163H33.16v2.136h6.122z"/><path stroke="#45413c" stroke-linecap="round" stroke-linejoin="round" d="M39.277 74.163h-6.122v5.197h6.122z"/><path fill="#00b8f0" d="M40.3 66a2.04 2.04 0 0 1-2.041 2.041h-4.084A2.04 2.04 0 0 1 32.135 66v-7.142H40.3z"/><path fill="#4acfff" d="m38.936 58.858-6.801 6.795v-6.795z"/><path stroke="#45413c" stroke-linecap="round" stroke-linejoin="round" d="M40.3 66a2.04 2.04 0 0 1-2.041 2.041h-4.084A2.04 2.04 0 0 1 32.135 66v-7.142H40.3z"/><path fill="#fff" stroke="#45413c" stroke-linecap="round" stroke-linejoin="round" d="M42.058 79.36a2.043 2.043 0 0 1 1.924 2.722 8.167 8.167 0 0 1-15.4 0 2.04 2.04 0 0 1 1.928-2.722z"/><path fill="#f8f8f8" d="m24.294 60.945-13.486 7.237 1.93 3.596 13.486-7.237z"/><path fill="#e0e0e0" d="m25.433 63.064.792 1.476-6.21 3.333-.328-.273a3.06 3.06 0 0 1-.763-3.774l4.507-2.419z"/><path fill="#fff" stroke="#45413c" stroke-linecap="round" stroke-linejoin="round" d="m24.294 60.945-13.486 7.237 1.93 3.596 13.486-7.237z"/><path fill="#fff" stroke="#45413c" stroke-linecap="round" stroke-linejoin="round" d="M28.053 66h-4.1a3.06 3.06 0 0 1-3.053-3.061v-1.02a3.06 3.06 0 0 1 3.061-3.061H26a2.064 2.064 0 0 1 2.056 2.04z"/><path fill="#f8f8f8" d="M13.093 70.209 9.357 71.85l4.53 10.308 3.736-1.642z"/><path fill="#e0e0e0" d="m16.237 77.364 1.386 3.154-3.737 1.641-1.357-3.087a3.06 3.06 0 0 1 3.708-1.708"/><path stroke="#45413c" stroke-linecap="round" stroke-linejoin="round" d="M13.093 70.209 9.357 71.85l4.53 10.308 3.736-1.642z"/><path fill="#87898c" d="M18.506 91.246a.51.51 0 0 1-.443.405.5.5 0 0 1-.211-.021 5.357 5.357 0 1 1 6.949-4.6.51.51 0 0 1-.61.451l-1.512-.308a.51.51 0 0 1-.407-.523 2.806 2.806 0 1 0-3.78 2.5.51.51 0 0 1 .322.58z"/><path stroke="#45413c" stroke-linecap="round" stroke-linejoin="round" d="M18.506 91.246a.51.51 0 0 1-.443.405.5.5 0 0 1-.211-.021 5.357 5.357 0 1 1 6.949-4.6.51.51 0 0 1-.61.451l-1.512-.308a.51.51 0 0 1-.407-.523 2.806 2.806 0 1 0-3.78 2.5.51.51 0 0 1 .322.58z"/><path fill="#f8f8f8" stroke="#45413c" stroke-linecap="round" stroke-linejoin="round" d="M16.336 85.728a3.061 3.061 0 1 0 0-6.122 3.061 3.061 0 0 0 0 6.122M10.976 73.532a3.06 3.06 0 1 0 0-6.122 3.06 3.06 0 0 0 0 6.122"/><path fill="#fff" stroke="#45413c" stroke-linecap="round" stroke-linejoin="round" d="M44.379 66h4.1a3.06 3.06 0 0 0 3.061-3.061v-1.02a3.06 3.06 0 0 0-3.061-3.061h-2.04a2.065 2.065 0 0 0-2.057 2.04z"/><path fill="#00b8f0" d="M47.389 33.158H25.043a3.047 3.047 0 0 0-3.047 3.047v16.251a3.047 3.047 0 0 0 3.047 3.047h22.346a3.047 3.047 0 0 0 3.047-3.047V36.205a3.047 3.047 0 0 0-3.047-3.047"/><path fill="#4acfff" d="M25.419 55.5h-.376A3.05 3.05 0 0 1 22 52.455V36.2a3.047 3.047 0 0 1 3.047-3.047h22.342z"/><path fill="#fff" stroke="#009fd9" stroke-linecap="round" stroke-linejoin="round" d="M27.869 47.365a1.5 1.5 0 0 0 1.5-1.5 1.83 1.83 0 0 1 .564-1.55c.361.432.54.988.5 1.55a1.5 1.5 0 1 0 3 0c0-2.549-1.552-4.546-3.532-4.546s-3.531 2-3.531 4.546a1.5 1.5 0 0 0 1.499 1.5M44.564 47.365a1.5 1.5 0 0 1-1.5-1.5 1.83 1.83 0 0 0-.564-1.55 2.17 2.17 0 0 0-.5 1.55 1.5 1.5 0 1 1-3 0c0-2.549 1.551-4.546 3.531-4.546s3.532 2 3.532 4.546a1.5 1.5 0 0 1-1.499 1.5"/><path stroke="#45413c" stroke-linecap="round" stroke-linejoin="round" d="M47.389 33.158H25.043a3.047 3.047 0 0 0-3.047 3.047v16.251a3.047 3.047 0 0 0 3.047 3.047h22.346a3.047 3.047 0 0 0 3.047-3.047V36.205a3.047 3.047 0 0 0-3.047-3.047"/><path fill="#fff" d="M81.187 53.974H65.019a1.73 1.73 0 0 1-1.731-1.731v-5.286l-3.016-4.222a1 1 0 0 1 1.185-1.51l1.831.732V41.6a1.73 1.73 0 0 1 1.731-1.731h16.168a1.73 1.73 0 0 1 1.731 1.731v10.643a1.73 1.73 0 0 1-1.731 1.731M55.355 7.13H36.317a1.73 1.73 0 0 0-1.731 1.731v13.413a1.73 1.73 0 0 0 1.731 1.731h1.769v2.865a1 1 0 0 0 1.64.768l4.36-3.633h11.269a1.73 1.73 0 0 0 1.731-1.731V8.861a1.73 1.73 0 0 0-1.731-1.731"/><path stroke="#45413c" stroke-linecap="round" stroke-linejoin="round" d="M55.355 7.13H36.317a1.73 1.73 0 0 0-1.731 1.731v13.413a1.73 1.73 0 0 0 1.731 1.731h1.769v2.865a1 1 0 0 0 1.64.768l4.36-3.633h11.269a1.73 1.73 0 0 0 1.731-1.731V8.861a1.73 1.73 0 0 0-1.731-1.731"/><path fill="#fff" d="M89.922 11.87h-23.8a2.164 2.164 0 0 0-2.163 2.164v10.071l-3.769 5.278a1.25 1.25 0 0 0 1.482 1.887l2.289-.915v.445a2.16 2.16 0 0 0 2.163 2.164h23.8a2.164 2.164 0 0 0 2.162-2.164V14.034a2.164 2.164 0 0 0-2.164-2.164"/><path stroke="#45413c" stroke-linecap="round" stroke-linejoin="round" d="M89.922 11.87h-23.8a2.164 2.164 0 0 0-2.163 2.164v10.071l-3.769 5.278a1.25 1.25 0 0 0 1.482 1.887l2.289-.915v.445a2.16 2.16 0 0 0 2.163 2.164h23.8a2.164 2.164 0 0 0 2.162-2.164V14.034a2.164 2.164 0 0 0-2.164-2.164M81.187 53.974H65.019a1.73 1.73 0 0 1-1.731-1.731v-5.286l-3.016-4.222a1 1 0 0 1 1.185-1.51l1.831.732V41.6a1.73 1.73 0 0 1 1.731-1.731h16.168a1.73 1.73 0 0 1 1.731 1.731v10.643a1.73 1.73 0 0 1-1.731 1.731M77.549 45.266h-6.63M77.549 48.266h-10.13"/><path fill="#ff6242" d="M45.836 21.887a6.16 6.16 0 1 0 0-12.32 6.16 6.16 0 0 0 0 12.32"/><path fill="#ff6242" d="M41.759 16.952a1 1 0 1 0 0-2 1 1 0 0 0 0 2M49.912 16.952a1 1 0 1 0 0-2 1 1 0 0 0 0 2"/><path stroke="#45413c" stroke-linecap="round" stroke-linejoin="round" d="M45.836 21.887a6.16 6.16 0 1 0 0-12.32 6.16 6.16 0 0 0 0 12.32"/><path fill="#45413c" stroke="#45413c" stroke-linejoin="round" d="M48.264 13.133a.875.875 0 1 1-1.238 1.238z"/><path stroke="#45413c" stroke-linecap="round" stroke-linejoin="round" d="M47.236 17.967a2.525 2.525 0 0 0-2.8 0"/><path fill="#45413c" stroke="#45413c" stroke-linejoin="round" d="M43.945 13.133a.875.875 0 1 0 1.237 1.238z"/><path fill="#ffe500" stroke="#45413c" stroke-linecap="round" stroke-linejoin="round" d="M78.023 30.247a7.875 7.875 0 1 0 0-15.75 7.875 7.875 0 0 0 0 15.75"/><path fill="#45413c" d="M75.338 21.511a1 1 0 1 0 0-2 1 1 0 0 0 0 2"/><path fill="#ffaa54" d="M73.228 23.659a1 1 0 1 0 0-2 1 1 0 0 0 0 2"/><path fill="#45413c" d="M80.708 21.511a1 1 0 1 0 0-2 1 1 0 0 0 0 2"/><path fill="#ffaa54" d="M82.819 23.659a1 1 0 1 0 0-2 1 1 0 0 0 0 2"/><path stroke="#45413c" stroke-linecap="round" stroke-linejoin="round" d="M79.813 24.693a3.23 3.23 0 0 1-3.58 0"/></svg>