<svg xmlns="http://www.w3.org/2000/svg" width="80" height="80" viewBox="62 62 900 900"><defs><clipPath id="c"><circle cx="512" cy="512" r="450"/></clipPath></defs><g clip-path="url(#c)"><path fill="#301a22" d="M719.91 317c-.03 5.23-.39 11.52-.8 14-.47 2.86-.77-2.07-.81-13.5-.04-9.9-.57-20.7-1.17-24-1.7-9.3-4.78-23.78-5.53-26-.37-1.1-.01-.65.79 1 3.58 7.35 7.6 33.34 7.52 48.5m-413.08 0c.02 7.98-.32 15.4-.76 16.5-1.26 3.22-2.34-16.06-1.48-26.63 1.07-13.14 2.2-8.01 2.24 10.13m202.14 334.5c0 8.25-.44 15.67-.97 16.5-.65 1-.97-4.51-.97-16.5s.32-17.5.97-16.5c.53.83.97 8.25.97 16.5M370.42 542.12c-.29.48-1.52.79-2.73.69-1.2-.11-5-.36-8.44-.55-4.88-.28-6.25-.7-6.25-1.94 0-1.35.92-1.47 6.25-.87 9.03 1.02 11.79 1.68 11.17 2.67m342.58-1c0 .49-2.03.88-4.5.88-3.33 0-4.5-.39-4.5-1.5 0-.83.62-1.5 1.38-1.5 2.97 0 7.62 1.3 7.62 2.12M490 300c-1.97 1.28-7 1.28-7 0 0-.55 1.91-.99 4.25-.98 3.11.01 3.85.27 2.75.98m51 0c1.18.76.96.95-1 .87-1.38-.06-3.85-.45-5.5-.87-2.89-.74-2.85-.77 1-.87 2.2-.05 4.67.34 5.5.87M393 546.5c0 .83-.39 1.5-.88 1.5-.48 0-1.44-.67-2.12-1.5-1.04-1.25-.9-1.5.88-1.5 1.22 0 2.12.64 2.12 1.5M492 732c0 .55-.93 1-2.06 1s-1.78-.45-1.44-1 1.27-1 2.06-1 1.44.45 1.44 1M279.98 224.75c0 .41-.45 1.43-.98 2.25-.78 1.21-.97 1.07-.98-.75-.01-1.24.43-2.25.98-2.25s.99.34.98.75M667.5 327c-.34.55-1.29 1-2.12 1-.82 0-1.22-.45-.88-1s1.29-1 2.12-1c.82 0 1.22.45.88 1"/><path fill="#482e37" d="M490 300c.97-.63.51-.91-1.76-.97 4.7-.37 9.98-.57 16.76-.74 27.54-.67 42.48.89 63 6.59 4.12 1.15 7.59 2.09 7.71 2.1.11.01 2.12-3.24 4.46-7.23 16.64-28.28 37.65-50.32 64.83-68 20.99-13.65 54.08-25.75 81.35-29.76 7.29-1.07 13.69-.7 12.28.72-.34.33-.08 1.25.57 2.04 1.4 1.68 4.97 11.09 5.03 13.25.02.82.38 1.95.79 2.5.66.89 2.18 6.66 2.1 7.97-.02.27.6 2.02 1.38 3.88.78 1.87 1.21 3.61.95 3.87s.21 2.12 1.05 4.13 1.24 3.65.89 3.65-.09.66.57 1.46c.67.8.91 1.94.54 2.54s-.23 1.63.31 2.29c.53.67 1.26 3.23 1.61 5.71s.88 5.62 1.17 7c.76 3.63 3.12 20.57 4.11 29.5 1.73 15.59 1.04 47.4-1.31 60-.3 1.65-.7 4.49-.87 6.31-.18 1.82-.67 4.97-1.09 7-.43 2.03-.81 3.99-.85 4.36-.05.36-.42 1-.83 1.41-.41.42-.75 2.59-.75 4.84 0 3.82.3 4.25 4.75 6.76 6.2 3.5 11.9 8.81 13.35 12.43.63 1.59 1.25 5.47 1.36 8.61.42 11.4-5.95 17.25-18.58 17.04-3.93-.06-7.95-.76-9.73-1.68-1.68-.87-3.65-1.58-4.39-1.58-.73 0-3.01 3.21-5.05 7.13l-3.71 7.13 3.5 4.87c1.92 2.68 3.5 5.32 3.5 5.87s.42 1 .93 1c.52 0 1.22.9 1.57 1.99.35 1.1 1.16 2.56 1.82 3.25 2.55 2.72 6.88 8.95 7.07 10.18.1.71.96 2.07 1.9 3.01s1.71 2.29 1.71 2.99.86 2.05 1.91 3 2.49 3.15 3.21 4.9 2.09 4.04 3.06 5.08c.96 1.05 1.55 2.22 1.31 2.62-.24.39.38 1.46 1.4 2.38 1.01.91 2.67 3.56 3.69 5.88 1.03 2.32 2.17 4.45 2.54 4.72 1.35.99 19.77 38.46 22.38 45.53 1.02 2.73 2.17 5.42 2.56 5.97 1.54 2.14 7.94 18.63 7.94 20.44 0 3.06-3.72 5.17-20.34 11.56-8.58 3.3-15.47 6.45-15.3 7s5.19 3.15 11.15 5.78c12.51 5.5 13.49 6.17 13.49 9.19 0 2.35-9.37 15.53-11.03 15.53-.54 0-.97.48-.97 1.06 0 2.04-17.47 21.55-34.93 39.01-18.16 18.15-40.63 37.68-53.41 46.4-25.59 17.46-30.8 20.65-46.46 28.48l-10.22 5.1.46 6.23c.25 3.42.96 10.94 1.58 16.72s.82 13.88.45 18-.62 8.74-.56 10.25c.19 4.43-3.66 27.86-5.38 32.68-2.22 6.27-6.13 10.99-10.91 13.16-7.52 3.41-10.92 2.7-27.29-5.73-25.67-13.21-46.24-23.36-47.37-23.36-.6 0-2.56 1.12-4.35 2.48-6.26 4.78-10.37 5.52-30.68 5.52-12.26 0-19.04-.37-19.47-1.07-.37-.59-1.28-.83-2.03-.54s-3.67-1.03-6.5-2.93c-2.82-1.91-5.52-3.46-6-3.46-1.11 0-10.96 4.87-39.12 19.34-18.83 9.67-23.43 11.65-27 11.62-18.57-.17-25.67-20.34-24.43-69.46.32-12.65.87-24.46 1.21-26.25.6-3.05.39-3.36-3.23-4.85-10.08-4.16-40.05-22.56-55.86-34.3-5.5-4.08-15.17-11.71-21.5-16.95-27.15-22.48-76-75.62-76-82.67 0-2.95.67-3.4 13.18-8.94 10.46-4.63 13.37-6.9 10-7.78-2.62-.69-2.76-.74-9.4-3.44-3.46-1.4-7.85-3.14-9.78-3.85-15.5-5.78-16.47-7.11-12.5-17.11 12.49-31.5 31.42-68.38 49.97-97.36 9.26-14.47 12-18.54 15.73-23.31l3.76-4.82-3.99-7.93c-26.64-52.98-32-113.8-15.9-180.44 1.59-6.56 3.28-12.9 4.95-18.59 0 .11-.01.23 0 .34.01 1.82.2 1.96.98.75.53-.82.98-1.84.98-2.25.01-.41-.43-.75-.98-.75-.18 0-.35.11-.5.31 3.48-11.63 6.77-20.24 8.55-21.85 1.66-1.51 2.75-1.56 10.65-.46 13.82 1.91 23.56 4.27 40.3 9.79 9.3 3.07 26.87 10.78 29.04 12.75.89.8 2.15 1.46 2.8 1.46 1.68 0 16.48 9.36 24.16 15.29 6.31 4.87 15.48 13.25 20.86 19.06 1.45 1.57 5 5.37 7.89 8.46 2.89 3.08 5.26 6.07 5.28 6.64.01.58 1.36 2.36 3 3.97 1.63 1.6 2.97 3.47 2.97 4.14s.67 1.49 1.5 1.8c.83.32 1.5 1.27 1.5 2.11s.35 1.53.79 1.53c.43 0 2.11 2.57 3.75 5.7 3.09 5.95 3.35 6.38 6.21 10.04 1.72 2.21 1.85 2.22 7.56.71 12.63-3.35 20.02-5.05 28.37-5.99-.43.16-.68.34-.68.54 0 1.28 5.03 1.28 7 0m229.91 17c.08-15.16-3.94-41.15-7.52-48.5-.8-1.65-1.16-2.1-.79-1 .75 2.22 3.83 16.7 5.53 26 .43 2.38.83 8.65 1.03 15.68-.66-12.98-2.74-26.93-5.67-36.18-.78-2.48-1.64-5.62-1.91-7s-1.26-4.54-2.2-7.03c-1.08-2.86-1.45-5.56-1.01-7.31.64-2.55 1.03-2.75 4.89-2.47 4.03.3 4.26.5 6.07 5.31 10.28 27.34 13.09 65.53 7.05 95.87-3.42 17.22-15.13 47.54-20.6 53.37-3.92 4.17-5.7 3.12-18.24-10.69-6.46-7.13-12.85-13.68-14.19-14.56-3.69-2.41-6.34-7.48-6.35-12.11 0-3.06 1.67-7.52 6.5-17.3 3.58-7.25 6.5-13.44 6.5-13.76 0-1.65-12.02 1.41-23.5 5.97-17.83 7.09-21.85 6.83-34.25-2.2-5.33-3.89-5.55-7.01-1.18-16.75 14.81-33.01 41.6-65.23 81.27-97.72 5.42-4.43 9.32-8.23 8.67-8.45s-1.69.11-2.3.72-1.95 1.11-2.98 1.11c-3.74 0-23.06 7.06-35.17 12.85-31.91 15.27-57.14 38.2-76.62 69.66-4.09 6.61-8.13 13.36-8.97 15-2.02 3.94-4.28 4.12-14.2 1.14-19.05-5.72-33.54-7.63-57.77-7.64-18.65 0-36.36 2.21-52.5 6.57-.55.15-1.09.29-1.61.43-8.79 2.38-12.51 3.39-14.99 2.07-1.97-1.05-3.17-3.57-5.49-8.02-14.97-28.68-37.88-53.31-65.41-70.32-15.1-9.33-40.79-19.98-53.5-22.19-.23-.04-.44-.08-.65-.12-1.28-.23-2.15-.38-2.3-.12-.32.56 2.6 3 11.76 10.63.69.57 1.42 1.18 2.19 1.82 23.6 19.69 44.32 41.91 57.8 61.98 9.68 14.42 20.71 35.98 20.68 40.44-.02 4.33-.39 4.79-7.55 9.17-10.86 6.64-15.32 6.76-28.76.73-11.63-5.22-25.7-8.69-25.66-6.33.01.41 2.94 6.58 6.5 13.7 8.64 17.25 8.5 22.26-.87 30.1-2.53 2.11-8.93 8.68-14.24 14.61-12.74 14.23-14.88 14.83-19.99 5.57-8.12-14.7-14.6-32.21-18.6-50.23-1.94-8.73-2.22-12.99-2.26-33.5-.04-20.86.22-24.79 2.31-35 2.39-11.66 7.51-28.47 9.37-30.75 1.28-1.57 6.45-1.63 8.09-.09 1.37 1.28 1.02 7.62-.52 9.54-.53.67-1.61 4.04-2.39 7.5-1.52 6.73-1.69 7.32-2.88 10.09-.43.99-.51 2.06-.19 2.38s-.18 1.99-1.11 3.71c-2.41 4.44-3 54.07-.71 59.89.81 2.07 1.48 5.08 1.48 6.69s.46 3.2 1.02 3.55.77 1.02.48 1.49-.13 1.11.37 1.42c.49.3 1.2 2.7 1.57 5.32s1.37 6.34 2.23 8.26c3.3 7.43 5.71 12.66 7.66 16.63l2.04 4.13 10.56-11c5.82-6.05 10.95-11.66 11.42-12.47.57-.99-.85-4.93-4.38-12.13-6.5-13.25-7.97-17.37-7.97-22.29 0-6.53 4.74-9.59 13.23-8.55 10.5 1.29 24.7 5.55 30.27 9.09 3.83 2.43 8.76 2.77 12.73.87 2.05-.98 3.96-2.38 4.25-3.12.7-1.77-8.04-19.13-15.1-30.03-8.9-13.71-23.16-30.71-37.18-44.29-13.98-13.54-47.66-41.19-49.46-40.59-1.47.49-5.07 11.32-9.23 27.75-9.23 36.44-12.24 74.35-8.11 102 4.61 30.83 10.76 50.63 23.26 74.86 2.94 5.69 5.34 11.14 5.34 12.1s-3.51 6.65-7.79 12.64c-15.39 21.52-31.38 48.48-44.74 75.4-9.88 19.93-14.13 29.67-13.31 30.5.44.43 7.49-2.38 16.34-6.53 5.41-2.53 27.19-8.98 36.5-10.81 23.05-4.52 57.44-5.28 81-1.78 37.64 5.59 73.91 23.18 102.67 49.8 5.11 4.73 5.21 4.77 8.5 3.42 10.6-4.36 42.69-4.88 54.16-.88l5.84 2.03 5.5-5.08c17.02-15.7 37.39-28.5 60.76-38.17 33.52-13.87 82.19-17.38 124.17-8.94 11.38 2.28 27.14 6.91 33.9 9.95 7.45 3.36 17.5 7.36 17.5 6.98 0-1.21-4.56-11.65-10.5-24.03-14.8-30.86-34-63.25-51.66-87.17-2.11-2.86-3.84-6.17-3.84-7.34 0-1.18 2.03-5.86 4.5-10.4 5.11-9.37 5.49-11.86 2.15-14.04-1.29-.85-3.6-3.83-5.12-6.62-2.32-4.27-2.69-5.96-2.31-10.53.8-9.59 7.16-15.36 16.95-15.36 5.18 0 5.98-.27 6.72-2.25 1.75-4.7 5.12-24.85 6.65-39.75 1.74-16.95 1.29-26.21-2.64-54.5-3.79-27.35-13.08-63.56-16.27-63.47-1.22.04-16.35 11.88-26.28 20.58-3.39 2.97-6.4 5.39-6.7 5.39-.29 0-2.87 2.47-5.72 5.48-2.85 3.02-5.51 5.28-5.91 5.03-.76-.47-17.81 16.56-19.52 19.51-.92 1.59-8.68 10.79-12.75 15.12-.96 1.02-1.41 1.87-1 1.89s-.24.87-1.46 1.88c-1.21 1.01-1.99 2.05-1.74 2.31.26.26-.66 1.69-2.04 3.17-1.38 1.49-2.51 3.14-2.51 3.66s-.48.95-1.06.95-.8.42-.48.94c.32.51-.21 1.4-1.19 1.97-.97.57-1.45 1.04-1.05 1.06.39.02-.85 2.71-2.77 5.99-3.67 6.26-9.45 18.58-9.45 20.15 0 .5 2 1.89 4.45 3.08l4.46 2.16 7.29-2.78c4.02-1.53 10-3.83 13.3-5.1 12.45-4.78 23.55-5.66 28.06-2.22 2.68 2.05 2.93 2.75 2.8 7.88-.14 5.39-3.84 15.87-5.6 15.87-.42 0-.76.9-.76 2s-.53 2-1.17 2-.86.3-.49.67c.36.37.03 1.38-.74 2.25s-1.89 3.37-2.48 5.55c-.97 3.57-.83 4.34 1.38 7.5 1.36 1.94 5.85 6.85 9.98 10.91 4.14 4.05 7.52 7.76 7.52 8.25 0 2.06 3.08.62 4.49-2.1 1.53-2.96 8.46-19.62 8.95-21.53.14-.55.5-1.67.79-2.5 2.76-7.76 5.63-22.79 6.76-35.35.16-1.87.28-3.87.34-5.96.09 8.41.37 11.79.78 9.31s.77-8.77.8-14M370.42 542.12c.62-.99-2.14-1.65-11.17-2.67-5.33-.6-6.25-.48-6.25.87 0 .73.47 1.17 1.85 1.48-15.36-1.04-42.64-.96-43.39.26-.31.51-2.01.92-3.77.92-4.39-.02-8.9.51-10.69 1.25-2.32.95-11.54 2.91-12.58 2.67-.5-.12-1.59.04-2.42.35-.83.3-2.4.9-3.5 1.32s-2.23.83-2.5.93c-1.25.43-4.71 1.75-6.82 2.59-1.28.52-2.72.7-3.19.41s-1.11-.11-1.43.41c-.33.52-2.27 1.5-4.32 2.17-2.06.67-7.56 3.02-12.24 5.21l-8.5 3.98 5.5 2.47c3.02 1.35 8.65 3.59 12.5 4.97 3.85 1.39 9.25 3.53 12 4.78 2.75 1.24 5.77 2.52 6.72 2.84s2.03 1.8 2.4 3.3c.54 2.15.19 3.08-1.72 4.54a157 157 0 0 0-3.67 2.89c-.7.58-2.95 1.75-5 2.59s-6.43 2.78-9.73 4.31-7.24 3.28-8.75 3.89c-3.43 1.38-3.43 2.1 0 5.88 7.14 7.87 13.75 15.61 13.8 16.16.02.34 2.38 2.95 5.25 5.8 2.86 2.86 5.2 5.42 5.2 5.7 0 .27 6.18 6.48 13.74 13.8s15.8 15.45 18.31 18.06c2.52 2.61 5.08 4.75 5.69 4.75.62 0 2.09 1.35 3.26 3s2.78 3 3.56 3 1.99.9 2.67 2c.69 1.1 1.67 2 2.18 2s1.63.71 2.51 1.58c2.74 2.74 25.16 18.18 40.58 27.95 4.86 3.07 24.24 13.47 25.12 13.47.12 0 .76-1.61 1.41-3.59 1.56-4.74 6.43-10.16 10.74-11.96 1.91-.8 5.69-1.45 8.4-1.45 4.3 0 7.9 1.49 28.13 11.67 12.76 6.42 23.35 12.05 23.53 12.5.19.46.86.84 1.5.86.65.02 3.77 1.33 6.96 2.91l5.78 2.88 4.98-3.35c2.13-1.44 3.91-2.44 6.21-3.12-.33.17-.61.4-.76.65-.34.55.31 1 1.44 1s2.06-.45 2.06-1c0-.54-.64-.99-1.42-1 4.57-1.04 11.36-1.09 25.54-.83 20.49.38 22.91.89 28.52 6.02l2.15 1.96 30.52-15.58c28.73-14.66 30.85-15.57 36.17-15.57 5.76 0 9.39 1.22 10.82 3.65.44.74 1.48 1.35 2.31 1.35s1.23.45.89 1.01c-.35.55.07 1.27.93 1.6s1.34.95 1.08 1.38c-.27.43.18 1.34 1 2.02s1.49 2.05 1.49 3.05.44 2.1.99 2.43c1.36.84 27.04-13.53 40.82-22.85 6.22-4.2 11.7-7.64 12.17-7.64s1-.39 1.19-.87c.18-.48 3.48-3.24 7.33-6.14 29.05-21.86 86.02-80.25 82.47-84.53-.67-.8-1.67-1.46-2.22-1.46-1.06 0-14.59-5.86-21.21-9.19-6.88-3.47-8.19-6.91-4.1-10.76 1.34-1.26 9.7-5.08 18.57-8.49 8.87-3.42 16.15-6.62 16.17-7.13.07-1.34-19.04-9.79-28.18-12.47-2.47-.73-4.95-1.63-5.5-2.01-1.64-1.13-7.53-2.65-15.5-4-4.12-.7-8.04-1.69-8.7-2.19-.66-.51-2.09-.64-3.17-.3s-2.25.16-2.6-.41-2.08-1.03-3.84-1.02c-.68.01-3.04-.03-6.5-.09 1.64-.14 2.81-.45 2.81-.82 0-.82-4.65-2.12-7.62-2.12-.76 0-1.38.67-1.38 1.5 0 .73.5 1.15 1.79 1.35-4.99-.1-11.19-.24-17.63-.39-13.94-.33-26.09-.29-27 .1-.92.38-4.07.85-7.02 1.04-2.95.18-5.87.74-6.5 1.23-.63.5-1.81.95-2.64 1.02-3.14.27-5.57.77-6.52 1.33-.54.33-3.68 1.14-6.98 1.81-6.55 1.33-7.28 1.58-15.78 5.41-3.17 1.43-6.14 2.6-6.58 2.6-1.09 0-22.95 11.75-26.39 14.19-1.51 1.07-2.76 1.58-2.77 1.13 0-.45-.34-.32-.75.3-.93 1.42-14.23 11.48-14.23 10.76 0-.29-1.16.85-2.59 2.54-1.42 1.7-3.15 3.08-3.83 3.08-2.08 0-7.83 7.98-7.82 10.85.03 3.62-4.18 11.99-8.88 17.67-2.13 2.58-3.88 4.41-3.88 4.05 0-.35-1.41.97-3.14 2.93-3.38 3.85-10.27 8.31-13.94 9.02-1.25.24-2.65.81-3.12 1.28s-.73 8.69-.57 18.27l.27 17.43 4.74.3c7.22.47 27.64-4.99 38.26-10.23 9.7-4.78 19.01-12.35 22.58-18.34 2.81-4.71 4.68-6.23 7.68-6.23 2.89 0 5.24 2.16 5.24 4.81 0 2.59-7.2 13.29-11.34 16.87-7.09 6.12-21.07 14.94-25.01 15.77-.63.13-2.5.81-4.15 1.5-5.17 2.16-15.76 4.89-17.05 4.39-.69-.26-1.55.02-1.93.62-.41.67-2.01.85-4.11.46-1.89-.36-3.99-.2-4.67.34-.74.59-7.47.83-16.74.6-18.84-.46-21.14-.63-22.8-1.7-.71-.46-1.89-.61-2.62-.33s-2.45-.07-3.81-.77c-1.36-.71-3.78-1.53-5.37-1.82-4.87-.9-7.09-1.54-9.04-2.59-1.02-.55-4.11-2.03-6.86-3.27-12.59-5.7-24.65-15.99-29.5-25.16-2.34-4.42-2.4-4.91-.97-7.48 2.89-5.16 5.96-4.26 11.47 3.36 2.95 4.09 6.91 8.86 7.63 9.19.34.16 2.94 2.02 5.76 4.13 2.83 2.11 9.08 5.51 13.88 7.56s9.51 4.13 10.47 4.63c.95.49 3 .89 4.55.89 1.54 0 3.24.41 3.76.9.52.5 5 1.06 9.95 1.25l9 .35v-36l-5-2.69c-2.75-1.48-5.9-3.13-7-3.67-3.74-1.83-15.06-14.62-17.79-20.09-1.49-2.99-2.71-6.87-2.71-8.61 0-2.49-1.01-4.11-4.75-7.58-7.57-7.03-21-17.12-30.75-23.1-9.76-5.99-23.5-13.13-23.5-12.22 0 .32-1-.13-2.22-.98-1.22-.86-3.01-1.56-3.97-1.56s-3.42-.94-5.46-2.08c-2.04-1.15-6.43-2.53-9.75-3.06-.32-.05-.64-.11-.95-.16.21-.28.35-.71.35-1.2 0-.86-.9-1.5-2.12-1.5-1.78 0-1.92.25-.88 1.5.26.32.56.61.86.85-2.17-.45-3.92-.95-4.33-1.27-.56-.44-1.82-.87-2.78-.94l-3.5-.28c-.96-.07-2.26-.53-2.88-1.02-.63-.49-2.43-.83-4-.75-1.22.05-5.46-.2-10.34-.6 2.09.13 3.9.25 4.66.32 1.21.1 2.44-.21 2.73-.69m36.35 278.91c3.22 2.54 5.35 2.48 10.52-.27 2.32-1.22 4.66-2.25 5.21-2.28s2.24-.83 3.75-1.77c6.66-4.14 7.77-4.71 9.21-4.71.85 0 1.54-.45 1.54-1s.83-1 1.85-1c1.01 0 2.77-.79 3.9-1.75s8.42-4.9 16.19-8.75c13.87-6.87 14.13-7.05 13.6-9.88-.3-1.58-.54-5.29-.54-8.24V776h-16.67c-18.07 0-20.33-.62-20.33-5.6 0-4.61 3.05-5.4 20.72-5.4H472l.01-6.75c.01-3.71.25-7.65.53-8.75.44-1.75-3.17-3.85-28.77-16.73-16.1-8.1-30.17-14.79-31.27-14.86-4.24-.29-5.43.18-7.43 2.99-2 2.8-4.62 12.44-5.6 20.6-.26 2.2-.69 5.35-.95 7-2.82 18.05-.27 54.92 4.68 67.78.59 1.54 2.2 3.67 3.57 4.75m202.73 1.24c4.41 1.1 6.65.6 9.5-2.12 1.63-1.56 2.74-3.08 2.45-3.36-.28-.29.13-2.5.93-4.91 4.54-13.79 5.9-48.16 2.72-68.95-2.67-17.5-3.54-20.28-7.29-23.43-3.93-3.31-4.65-3.14-20.25 4.8-6.7 3.41-19.7 10.03-28.9 14.7l-16.72 8.5.56 17 16.5.25c18.09.27 21.01.99 20.98 5.17-.03 5.39-.52 5.54-19.69 6.08l-17.79.5-.29 7.59c-.2 5.29.1 7.92 1 8.65.71.58 8.15 4.5 16.54 8.72 8.39 4.21 15.25 8.11 15.25 8.66s.41.74.92.43 1.58.09 2.38.89c.8.81 1.74 1.19 2.08.85s.62-.02.62.71.28 1.05.62.71c.63-.63 14.48 5.94 15.38 7.3.28.42 1.4.98 2.5 1.26m-115.02-23.23c5.17 1.18 35.99.31 38.64-1.09 2.97-1.58 5.82-4.74 6.99-7.77.49-1.27.89-10.17.89-19.78 0-18.96-.61-21.94-5.45-26.4-2.66-2.46-3.02-2.51-21.83-2.81-22.58-.37-25.34.33-28.7 7.27-1.79 3.71-2.02 6.16-2.02 21.95 0 14.17.32 18.47 1.59 21.13 1.77 3.74 5.36 6.46 9.89 7.5m-65.55-281.5c-7.94 4.1-17.04-2.24-20.56-14.34-1.1-3.79-1.44-8.48-1.19-16.5.31-10.05.65-11.81 3.33-17.17 5.48-10.95 13.97-13.71 21.44-6.95 6.05 5.46 8.29 12.39 8.41 25.92.13 15.78-3.47 24.92-11.43 29.04m178.15-.81c-7.05 4.74-14.3 1.38-19.93-9.23-2.49-4.7-2.65-5.82-2.65-18.5 0-13.02.11-13.71 3.01-19.47 8.93-17.7 25.91-12.17 29.44 9.6 1.43 8.8 1.31 13.83-.52 21.88-1.79 7.89-4.51 12.45-9.35 15.72m-15.09 81.28c-2.57 1.37-9.34 1.24-10.79-.21-1.6-1.6-1.52-5.62.14-7.28 3.81-3.82 28.12-8.48 44.16-8.48 9.46 0 27.46 2.06 34.47 3.95 4.09 1.1 4.14 1.16 3.83 5.31l-.3 4.2-5.45.31c-3 .17-6.46-.23-7.69-.88-1.22-.66-2.92-.93-3.76-.61-.84.33-1.83.11-2.2-.47-.38-.62-2.14-.83-4.21-.49-1.96.32-4.14.09-4.85-.49-.83-.69-4.58-.86-10.56-.47-5.11.33-10.6.61-12.21.63-1.61.01-3.52.51-4.24 1.11s-2.04.8-2.94.45c-.91-.34-2.15-.21-2.77.3-.61.5-2.84 1.19-4.95 1.52-2.1.33-4.66 1.05-5.68 1.6m-148.43-1.46c-1.16 1.77-2.51 2.45-4.88 2.45-1.81 0-3.71-.41-4.23-.91s-2.53-1.14-4.45-1.43-4.62-.8-6-1.13c-5.27-1.27-8.64-1.8-12.5-1.95-2.2-.09-4.79-.53-5.75-.98-2.8-1.3-29.27.76-31.3 2.44-.7.59-3.86.93-7.01.76-6.41-.34-8.15-1.84-7.08-6.11.51-2.02 1.61-2.87 4.78-3.73 13.03-3.51 35.31-4.82 50.36-2.96 5.81.72 10.81 1.69 11.1 2.17.3.47.9.64 1.35.36s2.85.11 5.33.86c10.9 3.27 13.26 5.61 10.28 10.16m-49.44-159.59c-2.48 2.3-5.37 4.04-6.69 4.04-2.47 0-5.43-3.34-5.43-6.12 0-2.88 9.17-10.89 16.53-14.42 9.61-4.63 15.87-5.78 28.5-5.26 11.7.48 17.19 2.5 17.78 6.54.47 3.21-3.39 6.6-6.66 5.85-1.46-.33-5.2-1.05-8.31-1.6-11.88-2.11-26.36 2.34-35.72 10.97m246.68 2.84c-2.29 2.29-5.72 1.21-10.96-3.45-6.54-5.8-13.92-9.23-22.5-10.44-6.71-.95-10.33-.7-18.14 1.28-5.91 1.51-9.43-.29-9-4.59.51-5.08 4.9-6.81 18.78-7.38 10.07-.41 12.81-.18 18.77 1.64 7.5 2.27 17.11 8.11 21.52 13.06 2.89 3.24 3.6 7.81 1.53 9.88M395.44 629.03c-5.27 2.73-9.75 4.97-9.96 4.97-.2 0-1.62-1.08-3.15-2.4-2.45-2.1-2.67-2.74-1.79-5.22 1.32-3.77 15.35-10.94 28.99-14.82 13-3.7 31.8-4.86 33.82-2.1 1.23 1.69 1.07 7.48-.21 7.6-.35.03-3.79.26-7.64.52-3.85.25-8.12.75-9.5 1.1-1.38.36-2.88.56-3.36.45-.47-.11-1.43.28-2.14.87s-1.67.98-2.14.88c-.48-.11-1.53.05-2.36.35-1.91.69-9.27 2.68-10.23 2.76-.41.04-5.05 2.31-10.33 5.04m247.2 2.72c-2.48 2.81-3 2.76-9.14-.8-11.81-6.86-31.12-12.95-41.04-12.95-7.66 0-12.46-1.99-12.46-5.17 0-3.46 2.89-4.76 10.62-4.8 14.82-.06 33.33 4.85 46.96 12.48 3.53 1.97 6.49 4.13 6.57 4.79.09.66.23 1.87.32 2.7s-.73 2.51-1.83 3.75m99.67-225.38c11.75 7.13 20.69 6.06 20.69-2.48 0-3.03-.71-4.49-3.55-7.24-1.95-1.9-4.88-4-6.5-4.67S750 390.42 750 390c0-1.13-4.87-2.82-10.25-3.57-6.73-.93-9.75 1.15-9.75 6.71 0 4.84 1.95 6.94 12.31 13.23M306.83 317c-.04-18.14-1.17-23.27-2.24-10.13-.86 10.57.22 29.85 1.48 26.63.44-1.1.78-8.52.76-16.5m202.14 334.5c0-8.25-.44-15.67-.97-16.5-.65-1-.97 4.51-.97 16.5s.32 17.5.97 16.5c.53-.83.97-8.25.97-16.5M541 300c-.83-.53-3.3-.92-5.5-.87-3.85.1-3.89.13-1 .87 1.65.42 4.12.81 5.5.87 1.96.08 2.18-.11 1-.87m126.5 27c.34-.55-.06-1-.88-1-.83 0-1.78.45-2.12 1s.06 1 .88 1c.83 0 1.78-.45 2.12-1"/><path fill="#69348f" d="M494.48 799.04c-4.53-1.04-8.12-3.76-9.89-7.5-1.27-2.66-1.59-6.96-1.59-21.13 0-15.79.23-18.24 2.02-21.95 3.36-6.94 6.12-7.64 28.7-7.27 18.81.3 19.17.35 21.83 2.81 4.84 4.46 5.45 7.44 5.45 26.4 0 9.61-.4 18.51-.89 19.78-1.17 3.03-4.02 6.19-6.99 7.77-2.65 1.4-33.47 2.27-38.64 1.09"/><path fill="#9eda2b" d="M406.77 821.03c-1.37-1.08-2.98-3.21-3.57-4.75-4.95-12.86-7.5-49.73-4.68-67.78.26-1.65.69-4.8.95-7 .98-8.16 3.6-17.8 5.6-20.6 2-2.81 3.19-3.28 7.43-2.99 1.1.07 15.17 6.76 31.27 14.86 25.6 12.88 29.21 14.98 28.77 16.73-.28 1.1-.52 5.04-.53 8.75L472 765h-16.28c-17.67 0-20.72.79-20.72 5.4 0 4.98 2.26 5.6 20.33 5.6H472v5.38c0 2.95.24 6.66.54 8.24.53 2.83.27 3.01-13.6 9.88-7.77 3.85-15.06 7.79-16.19 8.75s-2.89 1.75-3.9 1.75c-1.02 0-1.85.45-1.85 1s-.69 1-1.54 1c-1.44 0-2.55.57-9.21 4.71-1.51.94-3.2 1.74-3.75 1.77s-2.89 1.06-5.21 2.28c-5.17 2.75-7.3 2.81-10.52.27m202.73 1.24c-1.1-.28-2.22-.84-2.5-1.26-.9-1.36-14.75-7.93-15.38-7.3-.34.34-.62.02-.62-.71s-.28-1.05-.62-.71-1.28-.04-2.08-.85c-.8-.8-1.87-1.2-2.38-.89s-.92.12-.92-.43-6.86-4.45-15.25-8.66c-8.39-4.22-15.83-8.14-16.54-8.72-.9-.73-1.2-3.36-1-8.65l.29-7.59 17.79-.5c19.17-.54 19.66-.69 19.69-6.08.03-4.18-2.89-4.9-20.98-5.17l-16.5-.25-.56-17 16.72-8.5c9.2-4.67 22.2-11.29 28.9-14.7 15.6-7.94 16.32-8.11 20.25-4.8 3.75 3.15 4.62 5.93 7.29 23.43 3.18 20.79 1.82 55.16-2.72 68.95-.8 2.41-1.21 4.62-.93 4.91.29.28-.82 1.8-2.45 3.36-2.85 2.72-5.09 3.22-9.5 2.12m132.81-415.9c-10.36-6.29-12.31-8.39-12.31-13.23 0-5.56 3.02-7.64 9.75-6.71 5.38.75 10.25 2.44 10.25 3.57 0 .42 1.33 1.31 2.95 1.98s4.55 2.77 6.5 4.67c2.84 2.75 3.55 4.21 3.55 7.24 0 8.54-8.94 9.61-20.69 2.48"/><path fill="#7b403d" d="M701.34 224.62c-2.57 2.12-5.1 4.23-7.57 6.34 1.47-1.28 2.96-2.56 4.48-3.85 5.36-4.56 9.75-8.66 9.75-9.11 0-.35-.46-.49-1.3-.46.41-.18.77-.41 1.01-.65.61-.61 1.65-.94 2.3-.72s-3.25 4.02-8.67 8.45m-46.55 44.64c-15.18 17.58-26.71 35.21-34.72 53.08 8.16-18.19 19.36-35.43 34.72-53.08m14.77-38.41c1.82-.86 3.79-1.76 5.85-2.66-2.07.91-4.11 1.84-6.08 2.79-31.63 15.1-56.96 38.15-76.39 69.53 19.48-31.46 44.71-54.39 76.62-69.66"/><path fill="#bae9f8" d="M547.82 915.98c-35.69 3.86-84.86 1.7-116.82-5.12-53.01-11.3-98.8-29.06-137-53.12-24.78-15.61-33.2-21.77-53.2-38.92-2.59-2.22-5.97-5.01-7.5-6.19-6.22-4.79-33.63-33.82-39.85-42.21-1.6-2.16-4.76-6.03-7.03-8.62-5.3-6.02-20.16-27.7-28.66-41.8-5.91-9.8-17.63-31.89-20.95-39.5-4.67-10.69-13.53-33.84-15.31-40-.96-3.3-2.35-7.58-3.09-9.5-3.63-9.38-12.63-51.24-13.86-64.5-.36-3.85-1.27-11.5-2.02-17-2.17-15.89-2.82-39.69-1.52-55.13 1.56-18.54 3.82-39.72 4.89-45.87 4-23.14 5.72-30.92 9.7-44 2.51-8.25 4.78-15.9 5.06-17 .66-2.64 4.61-13.37 10.05-27.32 4.64-11.87 18.29-40.46 23.02-48.21 1.52-2.5 4.79-8.07 7.27-12.38s7.36-11.72 10.85-16.46c3.48-4.75 6.82-9.52 7.41-10.62 2.93-5.45 31.15-37.84 44.84-51.45 4.18-4.16 11.09-10.49 15.37-14.06 4.27-3.57 9.85-8.34 12.4-10.6 9.71-8.59 40.37-29.28 58.65-39.58 12.25-6.9 37.36-18.6 50.47-23.52 39.92-14.98 69.25-21.51 118.51-26.39 14.96-1.49 53.07-.65 70.5 1.54 49.68 6.24 87.52 16.8 130.5 36.44 12.78 5.84 48.48 26.63 57.29 33.37 2.91 2.22 7.03 5.21 9.15 6.64 10.23 6.88 23.46 17.78 35.91 29.58 10.98 10.41 36.42 37.8 42.15 45.39 3.03 4.01 8.01 10.51 11.07 14.46 3.06 3.94 6.44 8.6 7.5 10.34 13.01 21.35 20.19 33.75 25.09 43.33 6.7 13.11 13.34 27.59 13.34 29.09 0 .55.7 2.37 1.56 4.02 5.2 10.07 17.3 50.31 20.9 69.56.91 4.86 2.35 12.43 3.2 16.83 6.88 35.61 6.81 96.42-.15 130-.79 3.85-2.39 11.95-3.54 18s-2.96 13.94-4.01 17.53-3 10.79-4.34 16c-1.33 5.21-3.41 11.72-4.62 14.47s-3.24 8.38-4.5 12.5-3.02 8.85-3.89 10.5c-.88 1.65-1.6 3.4-1.6 3.89-.01.84-3.25 7.8-11.45 24.61-2.01 4.12-5.65 10.88-8.08 15-2.44 4.12-5.07 8.91-5.85 10.62-1.6 3.51-5.68 9.75-14.86 22.73-3.45 4.87-7.21 10.39-8.35 12.27s-2.75 3.97-3.58 4.65c-.82.67-4.92 5.55-9.1 10.83-17.25 21.76-56.39 58.46-71.74 67.27-1.92 1.1-5.08 3.4-7.01 5.1-1.94 1.71-6.44 4.83-10 6.95-3.57 2.12-10.09 6.23-14.49 9.13-13.69 9.04-37.29 20.78-58.25 29-3.44 1.35-9.29 3.65-13 5.11-7.71 3.04-18.6 6.4-32.07 9.89-5.13 1.33-9.66 2.63-10.08 2.89-.68.42-5.34 1.39-29.1 6.05-4.12.81-15.91 2.38-26.18 3.49M505 298.29c-6.78.17-12.06.37-16.76.74-.3-.01-.63-.01-.99-.01-1.49-.01-2.81.17-3.57.44-8.35.94-15.74 2.64-28.37 5.99-5.71 1.51-5.84 1.5-7.56-.71-2.86-3.66-3.12-4.09-6.21-10.04-1.64-3.13-3.32-5.7-3.75-5.7-.44 0-.79-.69-.79-1.53s-.67-1.79-1.5-2.11c-.83-.31-1.5-1.13-1.5-1.8s-1.34-2.54-2.97-4.14c-1.64-1.61-2.99-3.39-3-3.97-.02-.57-2.39-3.56-5.28-6.64-2.89-3.09-6.44-6.89-7.89-8.46-5.38-5.81-14.55-14.19-20.86-19.06-7.68-5.93-22.48-15.29-24.16-15.29-.65 0-1.91-.66-2.8-1.46-2.17-1.97-19.74-9.68-29.04-12.75-16.74-5.52-26.48-7.88-40.3-9.79-7.9-1.1-8.99-1.05-10.65.46-1.78 1.61-5.07 10.22-8.55 21.85-.25.33-.43.92-.48 1.6-1.67 5.69-3.36 12.03-4.95 18.59-16.1 66.64-10.74 127.46 15.9 180.44l3.99 7.93-3.76 4.82c-3.73 4.77-6.47 8.84-15.73 23.31-18.55 28.98-37.48 65.86-49.97 97.36-3.97 10-3 11.33 12.5 17.11 1.93.71 6.32 2.45 9.78 3.85 6.64 2.7 6.78 2.75 9.4 3.44 3.37.88.46 3.15-10 7.78-12.51 5.54-13.18 5.99-13.18 8.94 0 7.05 48.85 60.19 76 82.67 6.33 5.24 16 12.87 21.5 16.95 15.81 11.74 45.78 30.14 55.86 34.3 3.62 1.49 3.83 1.8 3.23 4.85-.34 1.79-.89 13.6-1.21 26.25-1.24 49.12 5.86 69.29 24.43 69.46 3.57.03 8.17-1.95 27-11.62 28.16-14.47 38.01-19.34 39.12-19.34.48 0 3.18 1.55 6 3.46 2.83 1.9 5.75 3.22 6.5 2.93s1.66-.05 2.03.54c.43.7 7.21 1.07 19.47 1.07 20.31 0 24.42-.74 30.68-5.52 1.79-1.36 3.75-2.48 4.35-2.48 1.13 0 21.7 10.15 47.37 23.36 16.37 8.43 19.77 9.14 27.29 5.73 4.78-2.17 8.69-6.89 10.91-13.16 1.72-4.82 5.57-28.25 5.38-32.68-.06-1.51.19-6.13.56-10.25s.17-12.22-.45-18-1.33-13.3-1.58-16.72l-.46-6.23 10.22-5.1c15.66-7.83 20.87-11.02 46.46-28.48 12.78-8.72 35.25-28.25 53.41-46.4C763.53 637.61 781 618.1 781 616.06c0-.58.43-1.06.97-1.06 1.66 0 11.03-13.18 11.03-15.53 0-3.02-.98-3.69-13.49-9.19-5.96-2.63-10.98-5.23-11.15-5.78s6.72-3.7 15.3-7c16.62-6.39 20.34-8.5 20.34-11.56 0-1.81-6.4-18.3-7.94-20.44-.39-.55-1.54-3.24-2.56-5.97-2.61-7.07-21.03-44.54-22.38-45.53-.37-.27-1.51-2.4-2.54-4.72-1.02-2.32-2.68-4.97-3.69-5.88-1.02-.92-1.64-1.99-1.4-2.38.24-.4-.35-1.57-1.31-2.62-.97-1.04-2.34-3.33-3.06-5.08s-2.16-3.95-3.21-4.9-1.91-2.3-1.91-3-.77-2.05-1.71-2.99-1.8-2.3-1.9-3.01c-.19-1.23-4.52-7.46-7.07-10.18-.66-.69-1.47-2.15-1.82-3.25-.35-1.09-1.05-1.99-1.57-1.99-.51 0-.93-.45-.93-1s-1.58-3.19-3.5-5.87l-3.5-4.87 3.71-7.13c2.04-3.92 4.32-7.13 5.05-7.13.74 0 2.71.71 4.39 1.58 1.78.92 5.8 1.62 9.73 1.68 12.63.21 19-5.64 18.58-17.04-.11-3.14-.73-7.02-1.36-8.61-1.45-3.62-7.15-8.93-13.35-12.43-4.45-2.51-4.75-2.94-4.75-6.76 0-2.25.34-4.42.75-4.84.41-.41.78-1.05.83-1.41.04-.37.42-2.33.85-4.36.42-2.03.91-5.18 1.09-7 .17-1.82.57-4.66.87-6.31 2.35-12.6 3.04-44.41 1.31-60-.99-8.93-3.35-25.87-4.11-29.5-.29-1.38-.82-4.52-1.17-7s-1.08-5.04-1.61-5.71c-.54-.66-.68-1.69-.31-2.29s.13-1.74-.54-2.54c-.66-.8-.92-1.46-.57-1.46s-.05-1.64-.89-3.65-1.31-3.87-1.05-4.13-.17-2-.95-3.87c-.78-1.86-1.4-3.61-1.38-3.88.08-1.31-1.44-7.08-2.1-7.97-.41-.55-.77-1.68-.79-2.5-.06-2.16-3.63-11.57-5.03-13.25-.65-.79-.91-1.71-.57-2.04 1.41-1.42-4.99-1.79-12.28-.72-27.27 4.01-60.36 16.11-81.35 29.76-27.18 17.68-48.19 39.72-64.83 68-2.34 3.99-4.35 7.24-4.46 7.23-.12-.01-3.59-.95-7.71-2.1-20.52-5.7-35.46-7.26-63-6.59"/><path fill="#fff" d="M0 0h1024v1024H0Zm547.82 915.98c10.27-1.11 22.06-2.68 26.18-3.49 23.76-4.66 28.42-5.63 29.1-6.05.42-.26 4.95-1.56 10.08-2.89 13.47-3.49 24.36-6.85 32.07-9.89 3.71-1.46 9.56-3.76 13-5.11 20.96-8.22 44.56-19.96 58.25-29 4.4-2.9 10.92-7.01 14.49-9.13 3.56-2.12 8.06-5.24 10-6.95 1.93-1.7 5.09-4 7.01-5.1 15.35-8.81 54.49-45.51 71.74-67.27 4.18-5.28 8.28-10.16 9.1-10.83.83-.68 2.44-2.77 3.58-4.65s4.9-7.4 8.35-12.27c9.18-12.98 13.26-19.22 14.86-22.73.78-1.71 3.41-6.5 5.85-10.62 2.43-4.12 6.07-10.88 8.08-15 8.2-16.81 11.44-23.77 11.45-24.61 0-.49.72-2.24 1.6-3.89.87-1.65 2.63-6.38 3.89-10.5s3.29-9.75 4.5-12.5 3.29-9.26 4.62-14.47c1.34-5.21 3.29-12.41 4.34-16s2.86-11.48 4.01-17.53 2.75-14.15 3.54-18c6.96-33.58 7.03-94.39.15-130-.85-4.4-2.29-11.97-3.2-16.83-3.6-19.25-15.7-59.49-20.9-69.56-.86-1.65-1.56-3.47-1.56-4.02 0-1.5-6.64-15.98-13.34-29.09-4.9-9.58-12.08-21.98-25.09-43.33-1.06-1.74-4.44-6.4-7.5-10.34-3.06-3.95-8.04-10.45-11.07-14.46-5.73-7.59-31.17-34.98-42.15-45.39-12.45-11.8-25.68-22.7-35.91-29.58-2.12-1.43-6.24-4.42-9.15-6.64-8.81-6.74-44.51-27.53-57.29-33.37-42.98-19.64-80.82-30.2-130.5-36.44-17.43-2.19-55.54-3.03-70.5-1.54-49.26 4.88-78.59 11.41-118.51 26.39-13.11 4.92-38.22 16.62-50.47 23.52-18.28 10.3-48.94 30.99-58.65 39.58-2.55 2.26-8.13 7.03-12.4 10.6-4.28 3.57-11.19 9.9-15.37 14.06-13.69 13.61-41.91 46-44.84 51.45-.59 1.1-3.93 5.87-7.41 10.62-3.49 4.74-8.37 12.15-10.85 16.46s-5.75 9.88-7.27 12.38c-4.73 7.75-18.38 36.34-23.02 48.21-5.44 13.95-9.39 24.68-10.05 27.32-.28 1.1-2.55 8.75-5.06 17-3.98 13.08-5.7 20.86-9.7 44-1.07 6.15-3.33 27.33-4.89 45.87-1.3 15.44-.65 39.24 1.52 55.13.75 5.5 1.66 13.15 2.02 17 1.23 13.26 10.23 55.12 13.86 64.5.74 1.92 2.13 6.2 3.09 9.5 1.78 6.16 10.64 29.31 15.31 40 3.32 7.61 15.04 29.7 20.95 39.5 8.5 14.1 23.36 35.78 28.66 41.8 2.27 2.59 5.43 6.46 7.03 8.62 6.22 8.39 33.63 37.42 39.85 42.21 1.53 1.18 4.91 3.97 7.5 6.19 20 17.15 28.42 23.31 53.2 38.92 38.2 24.06 83.99 41.82 137 53.12 31.96 6.82 81.13 8.98 116.82 5.12M311.46 542.06c.75-1.22 28.03-1.3 43.39-.26.97.21 2.39.35 4.4.46 1.26.07 2.57.15 3.78.23 4.88.4 9.12.65 10.34.6 1.57-.08 3.37.26 4 .75.62.49 1.92.95 2.88 1.02l3.5.28c.96.07 2.22.5 2.78.94.41.32 2.16.82 4.33 1.27.49.39.96.65 1.26.65.2 0 .38-.11.53-.3.31.05.63.11.95.16 3.32.53 7.71 1.91 9.75 3.06 2.04 1.14 4.5 2.08 5.46 2.08s2.75.7 3.97 1.56c1.22.85 2.22 1.3 2.22.98 0-.91 13.74 6.23 23.5 12.22 9.75 5.98 23.18 16.07 30.75 23.1 3.74 3.47 4.75 5.09 4.75 7.58 0 1.74 1.22 5.62 2.71 8.61 2.73 5.47 14.05 18.26 17.79 20.09 1.1.54 4.25 2.19 7 3.67l5 2.69v36l-9-.35c-4.95-.19-9.43-.75-9.95-1.25-.52-.49-2.22-.9-3.76-.9-1.55 0-3.6-.4-4.55-.89-.96-.5-5.67-2.58-10.47-4.63s-11.05-5.45-13.88-7.56c-2.82-2.11-5.42-3.97-5.76-4.13-.72-.33-4.68-5.1-7.63-9.19-5.51-7.62-8.58-8.52-11.47-3.36-1.43 2.57-1.37 3.06.97 7.48 4.85 9.17 16.91 19.46 29.5 25.16 2.75 1.24 5.84 2.72 6.86 3.27 1.95 1.05 4.17 1.69 9.04 2.59 1.59.29 4.01 1.11 5.37 1.82 1.36.7 3.08 1.05 3.81.77s1.91-.13 2.62.33c1.66 1.07 3.96 1.24 22.8 1.7 9.27.23 16-.01 16.74-.6.68-.54 2.78-.7 4.67-.34 2.1.39 3.7.21 4.11-.46.38-.6 1.24-.88 1.93-.62 1.29.5 11.88-2.23 17.05-4.39 1.65-.69 3.52-1.37 4.15-1.5 3.94-.83 17.92-9.65 25.01-15.77C588.8 653.1 596 642.4 596 639.81c0-2.65-2.35-4.81-5.24-4.81-3 0-4.87 1.52-7.68 6.23-3.57 5.99-12.88 13.56-22.58 18.34-10.62 5.24-31.04 10.7-38.26 10.23l-4.74-.3-.27-17.43c-.16-9.58.1-17.8.57-18.27s1.87-1.04 3.12-1.28c3.67-.71 10.56-5.17 13.94-9.02 1.73-1.96 3.14-3.28 3.14-2.93 0 .36 1.75-1.47 3.88-4.05 4.7-5.68 8.91-14.05 8.88-17.67-.01-2.87 5.74-10.85 7.82-10.85.68 0 2.41-1.38 3.83-3.08 1.43-1.69 2.59-2.83 2.59-2.54 0 .72 13.3-9.34 14.23-10.76.41-.62.75-.75.75-.3.01.45 1.26-.06 2.77-1.13 3.44-2.44 25.3-14.19 26.39-14.19.44 0 3.41-1.17 6.58-2.6 8.5-3.83 9.23-4.08 15.78-5.41 3.3-.67 6.44-1.48 6.98-1.81.95-.56 3.38-1.06 6.52-1.33.83-.07 2.01-.52 2.64-1.02.63-.49 3.55-1.05 6.5-1.23 2.95-.19 6.1-.66 7.02-1.04.91-.39 13.06-.43 27-.1 6.44.15 12.64.29 17.63.39.67.1 1.56.15 2.71.15.6 0 1.17-.02 1.69-.06 3.46.06 5.82.1 6.5.09 1.76-.01 3.49.45 3.84 1.02s1.52.75 2.6.41 2.51-.21 3.17.3c.66.5 4.58 1.49 8.7 2.19 7.97 1.35 13.86 2.87 15.5 4 .55.38 3.03 1.28 5.5 2.01 9.14 2.68 28.25 11.13 28.18 12.47-.02.51-7.3 3.71-16.17 7.13-8.87 3.41-17.23 7.23-18.57 8.49-4.09 3.85-2.78 7.29 4.1 10.76 6.62 3.33 20.15 9.19 21.21 9.19.55 0 1.55.66 2.22 1.46 3.55 4.28-53.42 62.67-82.47 84.53-3.85 2.9-7.15 5.66-7.33 6.14-.19.48-.72.87-1.19.87s-5.95 3.44-12.17 7.64c-13.78 9.32-39.46 23.69-40.82 22.85-.55-.33-.99-1.43-.99-2.43s-.67-2.37-1.49-3.05-1.27-1.59-1-2.02c.26-.43-.22-1.05-1.08-1.38s-1.28-1.05-.93-1.6c.34-.56-.06-1.01-.89-1.01s-1.87-.61-2.31-1.35c-1.43-2.43-5.06-3.65-10.82-3.65-5.32 0-7.44.91-36.17 15.57l-30.52 15.58-2.15-1.96c-5.61-5.13-8.03-5.64-28.52-6.02-14.18-.26-20.97-.21-25.54.83h-.02c-.43 0-.91.13-1.3.35-2.3.68-4.08 1.68-6.21 3.12l-4.98 3.35-5.78-2.88c-3.19-1.58-6.31-2.89-6.96-2.91-.64-.02-1.31-.4-1.5-.86-.18-.45-10.77-6.08-23.53-12.5-20.23-10.18-23.83-11.67-28.13-11.67-2.71 0-6.49.65-8.4 1.45-4.31 1.8-9.18 7.22-10.74 11.96-.65 1.98-1.29 3.59-1.41 3.59-.88 0-20.26-10.4-25.12-13.47-15.42-9.77-37.84-25.21-40.58-27.95-.88-.87-2-1.58-2.51-1.58s-1.49-.9-2.18-2c-.68-1.1-1.89-2-2.67-2s-2.39-1.35-3.56-3-2.64-3-3.26-3c-.61 0-3.17-2.14-5.69-4.75-2.51-2.61-10.75-10.74-18.31-18.06S274 634.66 274 634.39c0-.28-2.34-2.84-5.2-5.7-2.87-2.85-5.23-5.46-5.25-5.8-.05-.55-6.66-8.29-13.8-16.16-3.43-3.78-3.43-4.5 0-5.88 1.51-.61 5.45-2.36 8.75-3.89s7.68-3.47 9.73-4.31 4.3-2.01 5-2.59 2.35-1.88 3.67-2.89c1.91-1.46 2.26-2.39 1.72-4.54-.37-1.5-1.45-2.98-2.4-3.3s-3.97-1.6-6.72-2.84c-2.75-1.25-8.15-3.39-12-4.78-3.85-1.38-9.48-3.62-12.5-4.97l-5.5-2.47 8.5-3.98c4.68-2.19 10.18-4.54 12.24-5.21 2.05-.67 3.99-1.65 4.32-2.17.32-.52.96-.7 1.43-.41s1.91.11 3.19-.41c2.11-.84 5.57-2.16 6.82-2.59.27-.1 1.4-.51 2.5-.93s2.67-1.02 3.5-1.32c.83-.31 1.92-.47 2.42-.35 1.04.24 10.26-1.72 12.58-2.67 1.79-.74 6.3-1.27 10.69-1.25 1.76 0 3.46-.41 3.77-.92M712.49 273c2.93 9.25 5.01 23.2 5.67 36.18.08 2.72.13 5.55.14 8.32 0 1.51.01 2.91.03 4.19-.06 2.09-.18 4.09-.34 5.96-1.13 12.56-4 27.59-6.76 35.35-.29.83-.65 1.95-.79 2.5-.49 1.91-7.42 18.57-8.95 21.53-1.41 2.72-4.49 4.16-4.49 2.1 0-.49-3.38-4.2-7.52-8.25-4.13-4.06-8.62-8.97-9.98-10.91-2.21-3.16-2.35-3.93-1.38-7.5.59-2.18 1.71-4.68 2.48-5.55s1.1-1.88.74-2.25c-.37-.37-.15-.67.49-.67s1.17-.9 1.17-2 .34-2 .76-2c1.76 0 5.46-10.48 5.6-15.87.13-5.13-.12-5.83-2.8-7.88-4.51-3.44-15.61-2.56-28.06 2.22-3.3 1.27-9.28 3.57-13.3 5.1l-7.29 2.78-4.46-2.16C631 333 629 331.61 629 331.11c0-1.57 5.78-13.89 9.45-20.15 1.92-3.28 3.16-5.97 2.77-5.99-.4-.02.08-.49 1.05-1.06.98-.57 1.51-1.46 1.19-1.97-.32-.52-.1-.94.48-.94s1.06-.43 1.06-.95 1.13-2.17 2.51-3.66c1.38-1.48 2.3-2.91 2.04-3.17-.25-.26.53-1.3 1.74-2.31 1.22-1.01 1.87-1.86 1.46-1.88s.04-.87 1-1.89c4.07-4.33 11.83-13.53 12.75-15.12 1.71-2.95 18.76-19.98 19.52-19.51.4.25 3.06-2.01 5.91-5.03 2.85-3.01 5.43-5.48 5.72-5.48.3 0 3.31-2.42 6.7-5.39 1.56-1.36 3.24-2.81 4.99-4.27-.98.83-1.91 1.63-2.79 2.39l-4.31 3.77 2.64 5.5c1.75 3.65 2.36 4.88 3.9 5.29-.79.3-1.06.99-1.41 2.37-.44 1.75-.07 4.45 1.01 7.31.94 2.49 1.93 5.65 2.2 7.03s1.13 4.52 1.91 7m-396.13-22.81c.27-.42.68-1.35 1.13-2.62.77-2.16 2.29-5.14 3.39-6.62l1.78-2.4c7.79 6.6 15.46 13.38 20.54 18.29 14.02 13.58 28.28 30.58 37.18 44.29 7.06 10.9 15.8 28.26 15.1 30.03-.29.74-2.2 2.14-4.25 3.12-3.97 1.9-8.9 1.56-12.73-.87-5.57-3.54-19.77-7.8-30.27-9.09-8.49-1.04-13.23 2.02-13.23 8.55 0 4.92 1.47 9.04 7.97 22.29 3.53 7.2 4.95 11.14 4.38 12.13-.47.81-5.6 6.42-11.42 12.47l-10.56 11-2.04-4.13c-1.95-3.97-4.36-9.2-7.66-16.63-.86-1.92-1.86-5.64-2.23-8.26s-1.08-5.02-1.57-5.32c-.5-.31-.66-.95-.37-1.42s.08-1.14-.48-1.49-1.02-1.94-1.02-3.55-.67-4.62-1.48-6.69c-2.29-5.82-1.7-55.45.71-59.89.93-1.72 1.43-3.39 1.11-3.71s-.24-1.39.19-2.38c1.19-2.77 1.36-3.36 2.88-10.09.78-3.46 1.86-6.83 2.39-7.5 1.53-1.91 1.89-8.14.56-9.51m275.63 347.82c1.02-.55 3.58-1.27 5.68-1.6 2.11-.33 4.34-1.02 4.95-1.52.62-.51 1.86-.64 2.77-.3.9.35 2.22.15 2.94-.45s2.63-1.1 4.24-1.11c1.61-.02 7.1-.3 12.21-.63 5.98-.39 9.73-.22 10.56.47.71.58 2.89.81 4.85.49 2.07-.34 3.83-.13 4.21.49.37.58 1.36.8 2.2.47.84-.32 2.54-.05 3.76.61 1.23.65 4.69 1.05 7.69.88l5.45-.31.3-4.2c.31-4.15.26-4.21-3.83-5.31-7.01-1.89-25.01-3.95-34.47-3.95-16.04 0-40.35 4.66-44.16 8.48-1.66 1.66-1.74 5.68-.14 7.28 1.45 1.45 8.22 1.58 10.79.21m-148.43-1.46c2.98-4.55.62-6.89-10.28-10.16-2.48-.75-4.88-1.14-5.33-.86s-1.05.11-1.35-.36c-.29-.48-5.29-1.45-11.1-2.17-15.05-1.86-37.33-.55-50.36 2.96-3.17.86-4.27 1.71-4.78 3.73-1.07 4.27.67 5.77 7.08 6.11 3.15.17 6.31-.17 7.01-.76 2.03-1.68 28.5-3.74 31.3-2.44.96.45 3.55.89 5.75.98 3.86.15 7.23.68 12.5 1.95 1.38.33 4.08.84 6 1.13s3.93.93 4.45 1.43 2.42.91 4.23.91c2.37 0 3.72-.68 4.88-2.45m-48.12 32.48c5.28-2.73 9.92-5 10.33-5.04.96-.08 8.32-2.07 10.23-2.76.83-.3 1.88-.46 2.36-.35.47.1 1.43-.29 2.14-.88s1.67-.98 2.14-.87c.48.11 1.98-.09 3.36-.45 1.38-.35 5.65-.85 9.5-1.1 3.85-.26 7.29-.49 7.64-.52 1.28-.12 1.44-5.91.21-7.6-2.02-2.76-20.82-1.6-33.82 2.1-13.64 3.88-27.67 11.05-28.99 14.82-.88 2.48-.66 3.12 1.79 5.22 1.53 1.32 2.95 2.4 3.15 2.4.21 0 4.69-2.24 9.96-4.97m247.2 2.72c1.1-1.24 1.92-2.92 1.83-3.75s-.23-2.04-.32-2.7c-.08-.66-3.04-2.82-6.57-4.79-13.63-7.63-32.14-12.54-46.96-12.48-7.73.04-10.62 1.34-10.62 4.8 0 3.18 4.8 5.17 12.46 5.17 9.92 0 29.23 6.09 41.04 12.95 6.14 3.56 6.66 3.61 9.14.8m-348.9-415.5c.59-.19 4.54 2.6 10.1 6.93-4.99-3.8-8.87-6.49-9.52-6.55-1.01-.08-2.3 2.13-3.98 6.92 1.5-4.46 2.7-7.06 3.4-7.3m17.76 32.81c.37-.04.75-.06 1.12-.06 1.59 0 2.78.31 3.23.81-1.05-.61-2.77-.86-4.35-.75m406.84-24.08c6.27-4.99 11.59-8.93 12.29-8.95-.67.02-6.17 4.09-12.29 8.95m-2.3 25.1c.6.44 1.02 1.21 1.57 2.56-.54-1.3-.97-2.08-1.57-2.56"/><path fill="#e06c4e" d="M475.67 582.18c-28.76-26.62-65.03-44.21-102.67-49.8-23.56-3.5-57.95-2.74-81 1.78-9.31 1.83-31.09 8.28-36.5 10.81-8.85 4.15-15.9 6.96-16.34 6.53-.82-.83 3.43-10.57 13.31-30.5 13.36-26.92 29.35-53.88 44.74-75.4 4.28-5.99 7.79-11.68 7.79-12.64s-2.4-6.41-5.34-12.1c-12.5-24.23-18.65-44.03-23.26-74.86-4.13-27.65-1.12-65.56 8.11-102 4.83-19.08 7.86-27.53 9.81-27.37.88.07 7.66 4.97 15.07 10.88l13.49 10.74-2 2.7c-1.1 1.48-2.62 4.46-3.39 6.62s-1.42 3.37-1.45 2.68c-.02-.74-1.41-1.25-3.42-1.25-1.86 0-3.83.56-4.39 1.25-1.86 2.28-6.98 19.09-9.37 30.75-2.09 10.21-2.35 14.14-2.31 35 .04 20.51.32 24.77 2.26 33.5 4 18.02 10.48 35.53 18.6 50.23 5.11 9.26 7.25 8.66 19.99-5.57 5.31-5.93 11.71-12.5 14.24-14.61 9.37-7.84 9.51-12.85.87-30.1-3.56-7.12-6.49-13.29-6.5-13.7-.04-2.36 14.03 1.11 25.66 6.33 13.44 6.03 17.9 5.91 28.76-.73 7.16-4.38 7.53-4.84 7.55-9.17.03-4.46-11-26.02-20.68-40.44-13.48-20.07-34.2-42.29-57.8-61.98-16.41-13.68-15.84-13.05-11-12.21 12.71 2.21 38.4 12.86 53.5 22.19 27.53 17.01 50.44 41.64 65.41 70.32 5.43 10.4 4.68 10.21 22.09 5.52 16.14-4.36 33.85-6.57 52.5-6.57 24.23.01 38.72 1.92 57.77 7.64 9.92 2.98 12.18 2.8 14.2-1.14.84-1.64 4.88-8.39 8.97-15 19.43-31.38 44.76-54.43 76.39-69.53C686.23 222.91 708 215.6 708 218c0 .45-4.39 4.55-9.75 9.11-39.72 33.76-63.73 63.01-78.18 95.23-4.37 9.74-4.15 12.86 1.18 16.75 12.4 9.03 16.42 9.29 34.25 2.2 11.48-4.56 23.5-7.62 23.5-5.97 0 .32-2.92 6.51-6.5 13.76-4.83 9.78-6.5 14.24-6.5 17.3.01 4.63 2.66 9.7 6.35 12.11 1.34.88 7.73 7.43 14.19 14.56 12.54 13.81 14.32 14.86 18.24 10.69 5.47-5.83 17.18-36.15 20.6-53.37 6.04-30.35 3.23-68.61-7.06-95.87-1.87-4.97-1.91-5-6.34-5-4.42 0-4.49-.05-7.1-5.5l-2.64-5.5 4.31-3.77c8.49-7.42 22.97-18.66 24.08-18.7 3.19-.09 12.48 36.12 16.27 63.47 3.93 28.29 4.38 37.55 2.64 54.5-1.53 14.9-4.9 35.05-6.65 39.75-.74 1.98-1.54 2.25-6.72 2.25-9.79 0-16.15 5.77-16.95 15.36-.38 4.57-.01 6.26 2.31 10.53 1.52 2.79 3.83 5.77 5.12 6.62 3.34 2.18 2.96 4.67-2.15 14.04-2.47 4.54-4.5 9.22-4.5 10.4 0 1.17 1.73 4.48 3.84 7.34 17.66 23.92 36.86 56.31 51.66 87.17 5.94 12.38 10.5 22.82 10.5 24.03 0 .38-10.05-3.62-17.5-6.98-6.76-3.04-22.52-7.67-33.9-9.95-41.98-8.44-90.65-4.93-124.17 8.94-23.37 9.67-43.74 22.47-60.76 38.17l-5.5 5.08-5.84-2.03c-11.47-4-43.56-3.48-54.16.88-3.29 1.35-3.39 1.31-8.5-3.42m-46.74-64.64c7.96-4.12 11.56-13.26 11.43-29.04-.12-13.53-2.36-20.46-8.41-25.92-7.47-6.76-15.96-4-21.44 6.95-2.68 5.36-3.02 7.12-3.33 17.17-.25 8.02.09 12.71 1.19 16.5 3.52 12.1 12.62 18.44 20.56 14.34m178.15-.81c4.84-3.27 7.56-7.83 9.35-15.72 1.83-8.05 1.95-13.08.52-21.88-3.53-21.77-20.51-27.3-29.44-9.6-2.9 5.76-3.01 6.45-3.01 19.47 0 12.68.16 13.8 2.65 18.5 5.63 10.61 12.88 13.97 19.93 9.23m-212.96-79.77c9.36-8.63 23.84-13.08 35.72-10.97 3.11.55 6.85 1.27 8.31 1.6 3.27.75 7.13-2.64 6.66-5.85-.59-4.04-6.08-6.06-17.78-6.54-12.63-.52-18.89.63-28.5 5.26C391.17 423.99 382 432 382 434.88c0 2.78 2.96 6.12 5.43 6.12 1.32 0 4.21-1.74 6.69-4.04m246.68 2.84c2.07-2.07 1.36-6.64-1.53-9.88-4.41-4.95-14.02-10.79-21.52-13.06-5.96-1.82-8.7-2.05-18.77-1.64-13.88.57-18.27 2.3-18.78 7.38-.43 4.3 3.09 6.1 9 4.59 7.81-1.98 11.43-2.23 18.14-1.28 8.58 1.21 15.96 4.64 22.5 10.44 5.24 4.66 8.67 5.74 10.96 3.45"/></g></svg>