<svg xmlns="http://www.w3.org/2000/svg" width="80" height="80" viewBox="0 13 932 932"><defs><clipPath id="c"><circle cx="466" cy="479" r="466"/></clipPath></defs><g clip-path="url(#c)"><path fill="#232f1f" d="M479 829c0 .65-17.15 1-49.44 1-31.88 0-49.66-.36-50.06-1-.36-.59-6.34-1-14.56-1-8.63 0-13.94-.38-13.94-1 0-.59-3.67-1-9-1s-9-.41-9-1-3.65-1-8.94-1c-4.92 0-9.22-.45-9.56-1s-3.04-1-6-1-5.66-.45-6-1-3.07-1-6.06-1-5.44-.45-5.44-1c0-.56-2.67-1-6-1s-6-.44-6-1c0-.55-1.8-1-4-1s-4-.45-4-1-2.25-1-5-1-5-.45-5-1-2.25-1-5-1-5-.45-5-1-1.8-1-4-1-4-.45-4-1-1.8-1-4-1-4-.45-4-1-1.35-1-3-1-3-.45-3-1-1.8-1-4-1-4-.45-4-1-1.35-1-3-1-3-.45-3-1-1.35-1-3-1-3-.45-3-1-1.35-1-3-1-3-.45-3-1-1.35-1-3-1-3-.45-3-1-1.35-1-3-1-3-.45-3-1-1.35-1-3-1-3-.45-3-1-.9-1-2-1-2-.45-2-1-.9-1-2-1-2-.45-2-1-1.1-1-2.44-1-2.72-.45-3.06-1-1.49-1-2.56-1-1.94-.45-1.94-1-.9-1-2-1-2-.45-2-1-.9-1-2-1-2-.45-2-1-.9-1-2-1-2-.45-2-1-.9-1-2-1-2-.45-2-1-.9-1-2-1-2-.45-2-1-.8-1-1.78-1-2.43-.9-3.22-2-2.14-2-3-2-2.21-.9-3-2-2.06-2-2.82-2-2.64-1.35-4.18-3-3.31-3-3.92-3c-1.56 0-14.08-12.68-14.08-14.26 0-.71-.9-1.95-2-2.74s-2-2.24-2-3.22-.45-1.78-1-1.78-1-1.35-1-3-.45-3-1-3c-.58 0-1-3.33-1-8s.42-8 1-8c.55 0 1-.9 1-2s.45-2 1-2 1-.7 1-1.55c0-1.88 16.39-18.45 18.25-18.45.72 0 1.96-.9 2.75-2s2.24-2 3.22-2 1.78-.45 1.78-1 .8-1 1.78-1 2.43-.9 3.22-2 2.24-2 3.22-2 1.78-.45 1.78-1 .8-1 1.78-1 2.43-.9 3.22-2 2.14-2 3-2 2.21-.9 3-2 2.06-2 2.82-2 2.64-1.35 4.18-3 3.34-3 4-3 2.46-1.35 4-3 3.42-3 4.18-3 2.03-.9 2.82-2 2.24-2 3.22-2 1.78-.45 1.78-1 .8-1 1.78-1 2.43-.9 3.22-2 2.24-2 3.22-2 1.78-.45 1.78-1 .9-1 2-1 2-.45 2-1 .9-1 2-1 2-.45 2-1 .9-1 2-1 2-.45 2-1 .9-1 2-1 2-.45 2-1 .9-1 2-1 2-.45 2-1 .9-1 2-1 2-.45 2-1 1.35-1 3-1 3-.45 3-1 .9-1 2-1 2-.45 2-1 1.35-1 3-1 3-.45 3-1 .9-1 2-1 2-.45 2-1 1.35-1 3-1 3-.45 3-1 1.35-1 3-1 3-.45 3-1 1.8-1 4-1 4-.45 4-1 1.8-1 4-1 4-.45 4-1 1.8-1 4-1 4-.45 4-1 2.25-1 5-1 5-.45 5-1 2.25-1 5-1h5V385c0-152 .34-229 1-229 .55 0 1-1.35 1-3s.45-3 1-3 1-.69 1-1.53c0-1.99 6.48-8.47 8.47-8.47.84 0 1.53-.45 1.53-1 0-.56 2.67-1 6-1s6 .44 6 1c0 .55.72 1 1.61 1 2.63 0 10.39 8.55 10.39 11.45 0 1.4.45 2.55 1 2.55s1 1.8 1 4c0 3.78.17 4 3 4 1.65 0 3 .45 3 1s1.35 1 3 1 3 .45 3 1 1.35 1 3 1 3 .45 3 1 1.35 1 3 1 3 .45 3 1 1.35 1 3 1 3 .45 3 1 1.35 1 3 1 3 .45 3 1 1.35 1 3 1 3 .45 3 1 1.35 1 3 1 3 .45 3 1 1.35 1 3 1 3 .45 3 1 1.35 1 3 1 3 .45 3 1 1.35 1 3 1 3 .45 3 1 1.35 1 3 1 3 .45 3 1 1.8 1 4 1 4 .45 4 1 1.35 1 3 1 3 .45 3 1 1.35 1 3 1 3 .45 3 1 1.35 1 3 1 3 .45 3 1 1.35 1 3 1 3 .45 3 1 1.35 1 3 1 3 .45 3 1 1.35 1 3 1 3 .45 3 1 .9 1 2 1 2 .45 2 1 1.35 1 3 1 3 .45 3 1 1.32 1 2.94 1 3.22.45 3.56 1 1.72 1 3.06 1 2.44.45 2.44 1 1.35 1 3 1 3 .45 3 1 1.35 1 3 1 3 .45 3 1 1.35 1 3 1 3 .45 3 1 1.35 1 3 1 3 .45 3 1 1.35 1 3 1 3 .45 3 1 1.35 1 3 1 3 .45 3 1 1.35 1 3 1 3 .45 3 1 1.35 1 3 1 3 .45 3 1 1.35 1 3 1 3 .45 3 1 1.35 1 3 1 3 .45 3 1 1.35 1 3 1 3 .45 3 1 1.35 1 3 1 3 .45 3 1 1.35 1 3 1 3 .45 3 1 1.35 1 3 1 3 .45 3 1 1.35 1 3 1 3 .45 3 1 1.35 1 3 1 3 .45 3 1 1.35 1 3 1 3 .45 3 1 1.35 1 3 1 3 .45 3 1 1.35 1 3 1 3 .45 3 1 1.15 1 2.55 1c2.54 0 7.45 3.95 7.45 6s-4.91 6-7.45 6c-1.4 0-2.55.45-2.55 1s-1.35 1-3 1-3 .45-3 1-1.35 1-3 1-3 .45-3 1-1.35 1-3 1-3 .45-3 1-.9 1-2 1-2 .45-2 1-1.35 1-3 1-3 .45-3 1-1.55 1-3.44 1-3.72.45-4.06 1-1.94 1-3.56 1-2.94.45-2.94 1-.9 1-2 1-2 .45-2 1-1.35 1-3 1-3 .45-3 1-1.35 1-3 1-3 .45-3 1-1.35 1-3 1-3 .45-3 1-1.35 1-3 1-3 .45-3 1-1.35 1-3 1-3 .45-3 1-1.35 1-3 1-3 .45-3 1-1.35 1-3 1-3 .45-3 1-1.35 1-3 1-3 .45-3 1-1.35 1-3 1-3 .45-3 1-1.35 1-3 1-3 .45-3 1-1.35 1-3 1-3 .45-3 1-1.35 1-3 1-3 .45-3 1-1.35 1-3 1-3 .45-3 1-1.35 1-3 1-3 .45-3 1-1.35 1-3 1-3 .45-3 1-1.35 1-3 1-3 .35-3 .78-2.14 1.36-4.75 2.07c-2.61.7-5.53 1.7-6.49 2.22-.95.51-2.41.93-3.25.93-.83 0-1.51.45-1.51 1s-1.8 1-4 1-4 .45-4 1-1.35 1-3 1-3 .34-3 .76c0 .91-7.17 3.24-9.98 3.24-1.11 0-2.02.45-2.02 1s-.9 1-2 1-2 .45-2 1-1.35 1-3 1-3 .45-3 1-1.35 1-3 1-3 .45-3 1-1.35 1-3 1-3 .45-3 1-1.35 1-3 1-3 .45-3 1-1.35 1-3 1-3 .45-3 1-1.35 1-3 1-3 .45-3 1-1.35 1-3 1-3 .45-3 1-1.35 1-3 1-3 .45-3 1-1.35 1-3 1-3 .45-3 1-1.35 1-3 1-3 .45-3 1-.9 1-2 1c-1.99 0-2 .67-2 133v133h19.5c12.33 0 19.5.37 19.5 1 0 .59 3.5 1 8.5 1 4.67 0 8.5.41 8.5.92s3.26 1.16 7.25 1.45c11.01.8 16.75 1.74 16.75 2.73 0 .5 2.25.9 5 .9s5 .45 5 1 1.35 1 3 1 3 .45 3 1 1.8 1 4 1 4 .45 4 1 1.35 1 3 1 3 .45 3 1 1.35 1 3 1 3 .45 3 1 1.35 1 3 1 3 .45 3 1 1.35 1 3 1 3 .45 3 1 .9 1 2 1 2 .45 2 1 1.35 1 3 1 3 .45 3 1 1.35 1 3 1 3 .45 3 1 1.35 1 3 1 3 .45 3 1 1.35 1 3 1 3 .45 3 1 1.35 1 3 1 3 .45 3 1 1.8 1 4 1 4 .45 4 1 1.8 1 4 1 4 .45 4 1c0 .56 2.67 1 6 1s6 .44 6 1c0 .57 3 1 7 1s7 .43 7 1c0 1.77 3.51 1.07 5-1 .79-1.1 2.14-2 3-2s2.21-.9 3-2 2.24-2 3.22-2 1.78-.45 1.78-1 .9-1 2-1 2-.45 2-1 1.35-1 3-1 3-.45 3-1c0-.62 5.33-1 14-1s14 .38 14 1c0 .55 1.35 1 3 1s3 .45 3 1 .8 1 1.78 1 2.43.9 3.22 2 2.02 2 2.72 2 3.13 1.8 5.4 4 4.64 4 5.28 4 1.81.9 2.6 2c1.34 1.85 2.59 2 17.22 2 9.85 0 15.78.38 15.78 1 0 .59 3.67 1 9 1s9 .41 9 1c0 .57 3 1 7 1s7 .43 7 1c0 .55 2.25 1 5 1s5 .45 5 1 2.25 1 5 1 5 .45 5 1 1.8 1 4 1 4 .45 4 1 1.8 1 4 1 4 .45 4 1 1.32 1 2.94 1 3.22.45 3.56 1 1.72 1 3.06 1 2.44.45 2.44 1 1.35 1 3 1 3 .45 3 1 .9 1 2 1 2 .45 2 1 1.35 1 3 1 3 .45 3 1 .8 1 1.78 1 2.43.9 3.22 2 2.14 2 3 2 2.21.9 3 2 2.03 2 2.74 2c1.7 0 12.26 10.56 12.26 12.26 0 .71.9 1.95 2 2.74 1.15.83 2 2.59 2 4.14 0 1.48.49 2.86 1.09 3.06.68.22 1.08 3.89 1.08 9.8s-.4 9.58-1.08 9.8c-.6.2-1.09 1.58-1.09 3.06 0 1.55-.85 3.31-2 4.14-1.1.79-2 2.47-2 3.72s-.44 2.28-.99 2.28c-.54 0-4.81 3.83-9.48 8.5-4.68 4.67-9.08 8.5-9.79 8.5-.72 0-1.95.9-2.74 2s-2.24 2-3.22 2-1.78.45-1.78 1-.8 1-1.78 1-2.43.9-3.22 2-2.24 2-3.22 2-1.78.45-1.78 1-.9 1-2 1-2 .45-2 1-.9 1-2 1-2 .45-2 1-.9 1-2 1-2 .45-2 1-.9 1-2 1-2 .45-2 1-.9 1-2 1-2 .45-2 1-1.35 1-3 1-3 .45-3 1-.9 1-2 1-2 .45-2 1-1.35 1-3 1-3 .45-3 1-1.35 1-3 1-3 .45-3 1-1.35 1-3 1-3 .45-3 1-1.35 1-3 1-3 .45-3 1-1.35 1-3 1-3 .45-3 1-1.35 1-3 1-3 .45-3 1-1.8 1-4 1-4 .45-4 1-1.8 1-4 1-4 .45-4 1-1.8 1-4 1-4 .45-4 1-1.76 1-3.92 1c-2.18 0-4.09.54-4.32 1.22-.24.72-1.89 1.11-4.08.97-2.02-.14-3.68.21-3.68.78s-1.8 1.03-4 1.03-4 .45-4 1c0 .56-2.67 1-6 1s-6 .44-6 1c0 .55-2.25 1-5 1s-5 .45-5 1c0 .56-2.67 1-6 1s-6 .44-6 1c0 .55-2.25 1-5 1s-5 .45-5 1c0 .57-3 1-7 1s-7 .43-7 1-3 1-7 1-7 .43-7 1c0 .58-3.33 1-8 1s-8 .42-8 1c0 .61-4.67 1-12 1s-12 .39-12 1c0 .62-5.33 1-14 1s-14 .38-14 1m-77-10c2.05 1.32 56.68 1.32 57.5 0 .37-.6 7.51-1 18.06-1 10.96 0 17.44-.37 17.44-1 0-.61 4.31-1 10.94-1 6.22 0 11.21-.43 11.56-1 .34-.55 4.39-1 9-1s8.66-.45 9-1 4.42-1 9.06-1c4.96 0 8.44-.41 8.44-1 0-.57 3-1 7-1s7-.43 7-1c0-.55 2.65-1 5.94-1 3.27 0 6.22-.45 6.56-1s3.07-1 6.06-1 5.44-.45 5.44-1 2.25-1 5-1 5-.45 5-1 2.25-1 5-1 5-.45 5-1 2.25-1 5-1 5-.45 5-1 1.8-1 4-1 4-.45 4-1 1.8-1 4-1 4-.45 4-1 1.77-1 3.94-1 4.22-.45 4.56-1 2.17-1 4.06-1 3.44-.45 3.44-1 1.8-1 4-1 4-.45 4-1 1.8-1 4-1 4-.45 4-1 1.35-1 3-1 3-.45 3-1 1.35-1 3-1 3-.45 3-1 1.35-1 3-1 3-.45 3-1 1.35-1 3-1 3-.45 3-1 .9-1 2-1 2-.45 2-1 1.35-1 3-1 3-.45 3-1 .9-1 2-1 2-.45 2-1 .9-1 2-1 2-.45 2-1 1.35-1 3-1 3-.45 3-1 .9-1 2-1 2-.45 2-1 .8-1 1.78-1 2.43-.9 3.22-2 2.24-2 3.22-2 1.78-.45 1.78-1 .8-1 1.78-1 2.43-.9 3.22-2 2.24-2 3.22-2 1.78-.42 1.78-.93c0-.52.92-1.23 2.04-1.58 2.8-.89 19.96-18.04 19.96-19.95 0-.85.45-1.54 1-1.54s1-1.35 1-3 .45-3 1-3 1-2 1-4.44-.45-4.72-1-5.06-1-1.49-1-2.56-.45-1.94-1-1.94-1-.68-1-1.52c0-1.98-12.5-14.48-14.48-14.48-.84 0-1.52-.45-1.52-1s-.9-1-2-1-2-.45-2-1-.9-1-2-1-2-.45-2-1-.59-1-1.3-1c-1.84 0-6.68-2.35-6.69-3.25-.01-.41-1.36-.75-3.01-.75s-3-.45-3-1-1.35-1-3-1-3-.45-3-1-1.35-1-3-1-3-.45-3-1-1.8-1-4-1-4-.45-4-1-1.77-1-3.94-1-4.22-.45-4.56-1-3.07-1-6.06-1-5.44-.45-5.44-1c0-.56-2.67-1-6-1s-6-.44-6-1c0-.58-3.15-1-7.44-1-4.09 0-7.72-.45-8.06-1-.34-.56-5.01-1-10.56-1-5.96 0-9.94-.4-9.94-1 0-.57-3-1-7-1-6.33 0-7 .19-7 2 0 1.1.45 2 1 2s1 2.25 1 5 .45 5 1 5c.56 0 1 2.67 1 6s-.44 6-1 6c-.55 0-1 2.25-1 5s-.45 5-1 5-1 1.35-1 3-.45 3-1 3-1 .9-1 2-.45 2-1 2-1 .68-1 1.52c0 1.84-14.44 16.48-16.26 16.48-.72 0-1.95.9-2.74 2s-2.22 2-3.16 2c-.95 0-2 .45-2.34 1s-1.69 1-3 1-2.66.45-3 1c-.36.59-6.18 1-14.06 1-8.29 0-13.44-.38-13.44-1 0-.55-1.35-1-3-1s-3-.45-3-1-.9-1-2-1-2-.45-2-1-.8-1-1.78-1-2.43-.9-3.22-2-2.03-2-2.75-2c-1.7 0-10.25-8.55-10.25-10.25 0-.72-.9-1.96-2-2.75s-2-2.24-2-3.22-.45-1.78-1-1.78-1-1.35-1-3-.45-3-1-3-1-1.1-1-2.44-.45-2.72-1-3.06c-.57-.35-1-5.34-1-11.56 0-6.63.39-10.94 1-10.94.55 0 1-1.49 1-3.3 0-3.45 1.96-8.68 3.25-8.69.41-.01.75-1.36.75-3.01v-3h-6.5c-3.67 0-6.5-.44-6.5-1s-2.83-1-6.5-1-6.5-.44-6.5-1c0-.55-1.8-1-4-1s-4-.45-4-1-1.35-1-3-1-3-.45-3-1-1.8-1-4-1-4-.45-4-1-1.35-1-3-1-3-.45-3-1-.9-1-2-1-2-.45-2-1-1.35-1-3-1-3-.45-3-1-1.35-1-3-1-3-.45-3-1-1.12-1-2.5-1-2.5-.45-2.5-1-1.12-1-2.5-1-2.5-.45-2.5-1-1.8-1-4-1-4-.45-4-1-1.35-1-3-1-3-.45-3-1-1.35-1-3-1-3-.45-3-1-1.8-1-4-1-4-.45-4-1-1.35-1-3-1-3-.45-3-1-2.25-1-5-1-5-.45-5-1-2.25-1-5-1-5-.45-5-1c0-.57-3-1-7-1s-7-.43-7-1c0-.64-9-1-25-1h-25v42h5c2.75 0 5 .45 5 1 0 .56 2.67 1 6 1s6 .44 6 1c0 .55 1.35 1 3 1s3 .45 3 1 1.13 1 2.51 1c1.39 0 3.5.56 4.69 1.25 3.51 2.02 8.8 7.56 8.8 9.22 0 .84.45 1.53 1 1.53s1 2.49 1 5.53c0 5.21-.25 5.78-4.47 10-2.46 2.46-5.16 4.47-6 4.47s-1.53.45-1.53 1-1.35 1-3 1-3 .45-3 1-1.35 1-3 1-3 .45-3 1-2.25 1-5 1-5 .45-5 1c0 .59-3.67 1-9 1s-9 .41-9 1c0 .61-4.81 1-12.44 1-7.22 0-12.7-.42-13.06-1-.34-.55-4.64-1-9.56-1-5.29 0-8.94-.41-8.94-1 0-.55-2-1-4.44-1s-4.72-.45-5.06-1-1.94-1-3.56-1-2.94-.45-2.94-1-1.35-1-3-1-3-.45-3-1-.69-1-1.53-1c-1.98 0-10.47-8.49-10.47-10.47 0-.84-.45-1.53-1-1.53s-1-1.35-1-3 .45-3 1-3 1-.69 1-1.53c0-1.87 6.42-8.47 8.25-8.47.72 0 1.96-.9 2.75-2 .85-1.17 2.59-2 4.22-2 1.53 0 2.78-.45 2.78-1s1.8-1 4-1 4-.45 4-1 1.8-1 4-1 4-.45 4-1 2.25-1 5-1h5v-20c0-19.33-.07-20-2-20-1.1 0-2 .45-2 1s-1.8 1-4 1-4 .45-4 1-2.45 1-5.44 1-5.72.45-6.06 1-1.94 1-3.56 1-2.94.45-2.94 1-1.8 1-4 1-4 .45-4 1-1.35 1-3 1-3 .45-3 1-1.35 1-3 1-3 .45-3 1-1.35 1-3 1-3 .45-3 1-.9 1-2 1-2 .45-2 1-1.35 1-3 1-3 .45-3 1-.9 1-2 1-2 .45-2 1-1.35 1-3 1-3 .45-3 1-.9 1-2 1-2 .45-2 1-.9 1-2 1-2 .45-2 1-.8 1-1.78 1-2.43.9-3.22 2-2.24 2-3.22 2-1.78.34-1.79.75c-.01.84-4.8 3.25-6.47 3.25-.59 0-1.73.9-2.52 2s-2.14 2-3 2-2.21.9-3 2-2.14 2-3 2-2.21.9-3 2-2.06 2-2.82 2-2.64 1.35-4.18 3-3.42 3-4.18 3-2.03.9-2.82 2-2.08 2-2.85 2c-.78 0-2.15.79-3.04 1.75-2.1 2.25-5.67 4.25-7.6 4.25-.83 0-1.51.45-1.51 1s-.8 1-1.78 1-2.43.9-3.22 2-2.14 2-3 2-2.21.9-3 2-2.14 2-3 2-2.21.9-3 2-2.03 2-2.75 2c-1.71 0-8.25 6.54-8.25 8.25 0 .72-.9 1.96-2 2.75-1.68 1.21-2 2.59-2 8.52 0 6.61 1.52 12.45 3.25 12.47.41.01.75.71.75 1.56 0 1.57 13.41 15.45 14.92 15.45.46 0 2.55 1.58 4.65 3.5s4.41 3.5 5.13 3.5c.71 0 1.3.45 1.3 1s.9 1 2 1 2 .45 2 1 .8 1 1.78 1 2.43.9 3.22 2 2.24 2 3.22 2 1.78.45 1.78 1 .9 1 2 1 2 .45 2 1 .79 1 1.75 1c.96.01 3.22.91 5.02 2 1.8 1.1 4.17 2 5.25 2 1.09 0 1.98.45 1.98 1s.9 1 2 1 2 .37 2 .82 2.25 1.43 5 2.18 5 1.73 5 2.18 1.35.82 3 .82 3 .45 3 1 .87 1 1.94 1 2.22.45 2.56 1 1.72 1 3.06 1 2.44.45 2.44 1 1.35 1 3 1 3 .45 3 1 1.35 1 3 1 3 .45 3 1 1.8 1 4 1 4 .45 4 1 1.35 1 3 1 3 .45 3 1 1.8 1 4 1 4 .45 4 1 1.8 1 4 1 4 .45 4 1 1.77 1 3.94 1 4.22.45 4.56 1 2.62 1 5.06 1 4.44.45 4.44 1 1.71 1 3.8 1 4.23.41 4.75.9c.91.87 4.64 1.49 16.2 2.73 2.89.3 5.25.96 5.25 1.46s2.7.91 6 .91c3.33 0 6 .44 6 1 0 .58 3.15 1 7.44 1 4.09 0 7.72.45 8.06 1s4.64 1 9.56 1c5.29 0 8.94.41 8.94 1 0 .61 4.31 1 10.94 1 6.22 0 11.21.43 11.56 1 .37.6 7.44 1.01 17.81 1.02 9.45 0 17.86.45 18.69.98m-75.73-485.71c1.32 2.02 2.6 2.71 5 2.71 5.64 0 15.69-2.61 34.73-9.01 10.17-3.42 19.85-6.58 21.5-7.02 5.07-1.36 23.77-7.99 28-9.93 5.71-2.63 21.87-7.93 41-13.45 2.75-.8 7.7-2.44 11-3.65 10.6-3.88 33.63-11.98 47-16.53 13.8-4.69 15.83-5.4 32.87-11.52 17.21-6.19 21.63-8.85 21.63-13.03 0-2.62-4.72-7.03-9.11-8.49-1.87-.63-9.24-3.22-16.39-5.76-7.15-2.55-16.6-5.8-21-7.22-4.4-1.43-9.8-3.19-12-3.91-6.38-2.08-18.82-6.54-21-7.52-1.1-.49-7.62-2.72-14.5-4.94s-13.4-4.45-14.5-4.96-5.38-1.94-9.5-3.16c-4.12-1.23-7.95-2.53-8.5-2.89s-3.02-1.23-5.5-1.94c-2.48-.72-5.4-1.67-6.5-2.12s-3.58-1.28-5.5-1.85c-7.73-2.29-26.22-8.27-38.5-12.46-50.54-17.25-56.37-18.4-59.53-11.81-1.71 3.56-2.64 43.2-2.55 107.71.07 46.15.22 50.26 1.85 52.75M303 426.43V700h18V428c0-180.67-.34-272-1-272-.55 0-1-.71-1-1.57 0-2.02-2.41-4.43-4.43-4.43-.86 0-1.57-.45-1.57-1s-.9-1-2-1-2 .45-2 1-.71 1-1.57 1c-.24 0-.46-.04-.67-.07-.27-.05-.52-.09-.75-.05-3.02.61-3.02 16.3-3.01 235.05zM567 729c0 .57 3 1 7 1s7-.43 7-1c0-.55 1.75-1 3.89-1 2.52 0 4.1-.52 4.47-1.48.32-.85 1.23-1.23 2.1-.9.85.33 1.54.1 1.54-.51s.68-1.11 1.52-1.11c.83 0 4.43-2.92 8-6.48 3.56-3.57 6.48-7.17 6.48-8 0-.84.45-1.52 1-1.52s1-.9 1-2 .45-2 1-2 1-.9 1-2 .45-2 1-2c.61 0 1-4.33 1-11s-.39-11-1-11c-.55 0-1-1.35-1-3s-.45-3-1-3-1-.8-1-1.78-.9-2.43-2-3.22-2-2.03-2-2.75c0-1.83-6.6-8.25-8.47-8.25-.84 0-1.53-.45-1.53-1s-.9-1-2-1-2-.45-2-1-.9-1-2-1-2-.45-2-1-1.35-1-3-1-3-.45-3-1c0-.59-3.48-1-8.44-1-4.64 0-8.72.45-9.06 1s-1.94 1-3.56 1-2.94.45-2.94 1-.9 1-2 1-2 .45-2 1-.68 1-1.52 1-3.99 2.47-7 5.48-5.48 6.16-5.48 7-.34 1.52-.75 1.53c-.9.01-3.25 4.85-3.25 6.69 0 .71-.4 1.3-.9 1.3-.49 0-.92 2.58-.96 5.74-.04 3.15-.54 5.89-1.11 6.08-1.32.44-1.36 5.18-.03 5.18.55 0 1 2.03 1 4.5s.45 4.5 1 4.5 1 .9 1 2 .45 2 1 2 1 .9 1 2 .45 2 1 2 1 .69 1 1.53c0 1.86 8.43 10.47 10.25 10.47.72 0 1.96.9 2.75 2 .85 1.17 2.59 2 4.22 2 1.53 0 2.78.45 2.78 1s1.35 1 3 1 3 .45 3 1m-236-42c0 12.33.1 13 2 13 1.1 0 2-.45 2-1s2.25-1 5-1 5-.45 5-1 1.8-1 4-1 4-.45 4-1 1.35-1 3-1 3-.45 3-1 .7-1 1.55-1 2.67-1.12 4.04-2.5l2.5-2.5-2.5-2.5c-1.37-1.38-3.19-2.5-4.04-2.5s-1.55-.45-1.55-1-1.35-1-3-1-3-.45-3-1-1.32-1-2.94-1-3.22-.45-3.56-1-2.62-1-5.06-1-4.44-.45-4.44-1-1.35-1-3-1h-3Zm-52 10c0 .56 2.67 1 6 1h6v-12c0-11.33-.11-12-2-12-1.1 0-2 .45-2 1s-1.77 1-3.94 1-4.22.45-4.56 1-2.17 1-4.06 1-3.44.45-3.44 1-1.35 1-3 1-3 .45-3 1-.7 1-1.55 1-2.67 1.12-4.04 2.5l-2.5 2.5 2.5 2.5c1.37 1.38 3.19 2.5 4.04 2.5s1.55.45 1.55 1 1.35 1 3 1 3 .45 3 1 1.8 1 4 1 4 .45 4 1"/><path fill="#452018" d="M326.27 333.29c-1.63-2.49-1.78-6.6-1.85-52.75-.09-64.51.84-104.15 2.55-107.71 3.16-6.59 8.99-5.44 59.53 11.81 12.28 4.19 30.77 10.17 38.5 12.46 1.92.57 4.4 1.4 5.5 1.85s4.02 1.4 6.5 2.12c2.48.71 4.95 1.58 5.5 1.94s4.38 1.66 8.5 2.89c4.12 1.22 8.4 2.65 9.5 3.16s7.62 2.74 14.5 4.96 13.4 4.45 14.5 4.94c2.18.98 14.62 5.44 21 7.52 2.2.72 7.6 2.48 12 3.91 4.4 1.42 13.85 4.67 21 7.22 7.15 2.54 14.52 5.13 16.39 5.76 4.39 1.46 9.11 5.87 9.11 8.49 0 4.18-4.42 6.84-21.63 13.03-17.04 6.12-19.07 6.83-32.87 11.52-13.37 4.55-36.4 12.65-47 16.53-3.3 1.21-8.25 2.85-11 3.65-19.13 5.52-35.29 10.82-41 13.45-4.23 1.94-22.93 8.57-28 9.93-1.65.44-11.33 3.6-21.5 7.02-19.04 6.4-29.09 9.01-34.73 9.01-2.4 0-3.68-.69-5-2.71M331 252c0 79.33.02 80 2 80 1.1 0 2-.45 2-1s1.35-1 3-1 3-.45 3-1 1.35-1 3-1 3-.45 3-1 1.35-1 3-1 3-.45 3-1 1.35-1 3-1 3-.45 3-1 1.35-1 3-1 3-.45 3-1 1.35-1 3-1 3-.45 3-1 1.35-1 3-1 3-.45 3-1 1.35-1 3-1 3-.45 3-1 1.35-1 3-1 3-.45 3-1 1.35-1 3-1 3-.45 3-1 1.35-1 3-1 3-.45 3-1 1.35-1 3-1 3-.45 3-1 1.35-1 3-1 3-.45 3-1 1.35-1 3-1 3-.45 3-1 1.35-1 3-1 3-.45 3-1 1.1-1 2.44-1 2.72-.45 3.06-1 1.69-1 3-1 2.66-.45 3-1 1.49-1 2.56-1 1.94-.45 1.94-1 1.35-1 3-1 3-.45 3-1 1.35-1 3-1 3-.45 3-1 1.35-1 3-1 3-.45 3-1 1.35-1 3-1 3-.45 3-1 1.35-1 3-1 3-.45 3-1 1.35-1 3-1 3-.45 3-1 1.35-1 3-1 3-.45 3-1 1.35-1 3-1 3-.45 3-1 1.35-1 3-1 3-.45 3-1 1.35-1 3-1 3-.45 3-1 1.35-1 3-1 3-.45 3-1 1.35-1 3-1 3-.45 3-1 1.35-1 3-1 3-.45 3-1 1.35-1 3-1 3-.45 3-1 1.35-1 3-1 3-.45 3-1 1.35-1 3-1 3-.45 3-1 1.35-1 3-1 3-.45 3-1 1.1-1 2.44-1 2.72-.45 3.06-1 1.94-1 3.56-1 2.94-.45 2.94-1 1.35-1 3-1 3-.45 3-1 1.35-1 3-1 3-.26 3-.57c0-1.46-3.11-3.43-5.43-3.43-1.41 0-2.57-.45-2.57-1s-1.35-1-3-1-3-.45-3-1-1.35-1-3-1-3-.45-3-1-1.12-1-2.5-1-2.5-.45-2.5-1-1.35-1-3-1-3-.45-3-1-1.1-1-2.44-1-2.72-.45-3.06-1-1.72-1-3.06-1-2.44-.45-2.44-1-1.35-1-3-1-3-.45-3-1-1.35-1-3-1-3-.45-3-1-1.32-1-2.94-1-3.22-.45-3.56-1-1.94-1-3.56-1-2.94-.45-2.94-1-1.12-1-2.5-1-2.5-.45-2.5-1-1.35-1-3-1-3-.45-3-1-1.32-1-2.94-1-3.22-.45-3.56-1-1.72-1-3.06-1-2.44-.45-2.44-1-1.35-1-3-1-3-.45-3-1-1.35-1-3-1-3-.45-3-1-1.35-1-3-1-3-.45-3-1-1.8-1-4-1-4-.45-4-1-.9-1-2-1-2-.45-2-1-1.8-1-4-1-4-.45-4-1-.9-1-2-1-2-.45-2-1-1.35-1-3-1-3-.45-3-1-1.35-1-3-1-3-.45-3-1-1.35-1-3-1-3-.45-3-1-1.35-1-3-1-3-.45-3-1-1.8-1-4-1-4-.45-4-1-1.35-1-3-1-3-.45-3-1-1.35-1-3-1-3-.45-3-1-.87-1-1.94-1-2.22-.45-2.56-1-1.72-1-3.06-1-2.44-.45-2.44-1-1.35-1-3-1-3-.45-3-1-1.35-1-3-1-3-.45-3-1-1.32-1-2.94-1-3.22-.45-3.56-1-2.17-1-4.06-1-3.44-.45-3.44-1-1.35-1-3-1-3-.45-3-1-1.35-1-3-1-3-.45-3-1-.9-1-2-1-2-.45-2-1-1.35-1-3-1-3-.45-3-1-.45-1-1-1c-.66 0-1 27.33-1 80"/><path fill="#4a972c" d="M468 813.96c-47.32 1.95-96.21.2-139.5-4.98-19.33-2.31-39.28-5.1-42.5-5.94-4.31-1.12-10.75-2.58-18-4.08-8.13-1.67-21.54-4.89-29.5-7.08-13.14-3.61-15-4.14-19-5.42-2.2-.7-7.15-2.28-11-3.5-10.04-3.18-32-12-39.5-15.86-8.12-4.18-18.51-10.01-23-12.9-5.33-3.44-19.44-14.87-21.53-17.43-4.63-5.71-8.58-15.04-6.99-16.52.43-.41.99-.19 1.24.5s1 1.25 1.67 1.25c.68 0 2.11.79 3.17 1.75 1.07.96 3.18 2.39 4.69 3.17s2.75 1.79 2.75 2.25.9.83 2 .83 2 .45 2 1 .9 1 2 1 2 .34 2.01.75c0 .41 1.01 1.22 2.25 1.79 4.65 2.17 11.25 5.99 11.57 6.71.19.41 1.2.75 2.25.75 1.06 0 1.92.45 1.92 1s.9 1 2 1 2 .45 2 1 .87 1 1.94 1 2.22.45 2.56 1 1.72 1 3.06 1 2.44.37 2.44.82 2.25 1.43 5 2.18 5 1.63 5 1.96 2.14 1.18 4.75 1.89c2.61.7 5.53 1.7 6.49 2.22.95.51 2.61.93 3.69.93 1.07 0 2.23.45 2.57 1s1.69 1 3 1 2.66.45 3 1 1.94 1 3.56 1 2.94.4 2.94.89 1.57 1.17 3.5 1.5c1.93.34 5.08.88 7.01 1.22s3.76 1.01 4.06 1.5 2.29.89 4.43.89 4.16.45 4.5 1 2.36 1 4.5 1 4.16.45 4.5 1 2.17 1 4.06 1 3.44.45 3.44 1 1.93 1 4.3 1 4.73.41 5.25.91 3.2 1.16 5.95 1.47 7.25.83 10 1.15c2.75.31 5.9.98 7 1.47 1.1.5 4.25 1.14 7 1.42 2.75.29 8.38 1 12.5 1.59 11.56 1.64 24.24 2.97 38.5 4.03 68.8 5.15 112.95 4.31 187.5-3.56 3.03-.32 6.4-.99 7.5-1.49s4.92-1.14 8.5-1.42c11.9-.92 17.48-1.66 19.5-2.57 1.1-.49 4.14-1.14 6.75-1.45 11.89-1.38 14.31-1.8 15.2-2.65.52-.49 3.11-.9 5.75-.9s4.8-.45 4.8-1 1.77-1 3.94-1 4.22-.45 4.56-1 2.36-1 4.5-1 4.16-.45 4.5-1 2.14-1 4-1 3.66-.45 4-1 2.39-1 4.56-1 3.94-.45 3.94-1 1.55-1 3.44-1 3.72-.45 4.06-1 1.91-1 3.5-1 3.16-.45 3.5-1 2.17-1 4.06-1 3.44-.45 3.44-1 1.35-1 3-1 3-.45 3-1 1.1-1 2.44-1 2.72-.45 3.06-1 1.69-1 3-1 2.66-.45 3-1 1.29-1 2.11-1 3.35-.9 5.63-2c2.27-1.1 4.73-2 5.45-2s1.31-.45 1.31-1 .68-1 1.51-1c.84 0 2.52-.52 3.75-1.16 4.7-2.42 5.76-2.84 7.23-2.84.83 0 1.51-.36 1.51-.8s2.24-1.91 4.98-3.25c2.75-1.35 5-2.79 5-3.2.01-.41.92-.75 2.02-.75s2-.42 2-.93c0-.52.91-1.23 2.03-1.58s3.12-1.74 4.46-3.07c1.33-1.33 2.84-2.42 3.35-2.42 1.62 0 14.16-12.78 14.16-14.42 0-.87.34-1.58.76-1.58.91 0 3.24-7.17 3.24-9.98 0-3.26 2.1-2.36 8.78 3.74 14.85 13.57 15.22 25.46 1.23 39.11-5.02 4.9-16.01 13.13-17.52 13.13-.35 0-2.67 1.4-5.16 3.12-6.67 4.59-18.66 10.3-35.33 16.84-9.76 3.83-31.03 10.84-36.5 12.04-2.2.48-5.8 1.38-8 2.01-4.06 1.16-5.4 1.45-20.5 4.42-4.67.92-10.75 2.39-13.5 3.26s-7.25 1.92-10 2.33-9.95 1.72-16 2.91c-13.52 2.67-21.2 3.83-33.5 5.08-5.22.53-13.1 1.38-17.5 1.89-36.2 4.19-47.14 5.14-69.5 6.06m136.83-63.08c-1.07 2.83-71.83.89-71.83-1.97 0-.5-1.32-.91-2.94-.91s-3.22-.45-3.56-1-1.5-1-2.59-1c-3.19 0-8.91-5.88-8.91-9.16 0-2.17.47-2.84 2-2.84 1.1 0 2-.34 2-.76 0-.91 7.17-3.24 9.98-3.24 1.11 0 2.02-.45 2.02-1s1.57-1 3.5-1c2.7 0 4.4.87 7.43 3.81 6.23 6.05 18.49 11.42 28.83 12.63 13.61 1.6 30.62-4.73 38.48-14.32 1.35-1.65 2.86-2.12 6.75-2.12 2.76 0 5.01.45 5.01 1s1.35 1 3 1 3 .45 3 1 .9 1 2 1 2 .4 2 .88c0 .49.9 1.12 2 1.41 5.08 1.33-.45 10.01-7.25 11.4-1.51.31-2.75.95-2.75 1.43 0 .49-1.55.88-3.44.88s-3.72.45-4.06 1-2.8 1-5.48 1c-2.67 0-5 .4-5.19.88"/><path fill="#546465" d="M321 428v272h-2V154.91l-2.45-2.46c-3.25-3.24-7.85-3.24-11.1 0l-.89.89c.39-2.65.86-3.34 1.45-3.46.23-.04.48 0 .75.05.21.03.43.07.67.07.86 0 1.57-.45 1.57-1s.9-1 2-1 2 .45 2 1 .71 1 1.57 1c2.02 0 4.43 2.41 4.43 4.43 0 .86.45 1.57 1 1.57.66 0 1 91.33 1 272m-4-289c0-.56-2.67-1-6-1s-6 .44-6 1c0 .55-.69 1-1.53 1-1.99 0-8.47 6.48-8.47 8.47 0 .84-.45 1.53-1 1.53s-1 1.35-1 3-.45 3-1 3c-.66 0-.99 75.84-1 225.57 0-152.38.34-229.57 1-229.57.55 0 1-.9 1-2s.45-2 1-2 1-.7 1-1.55c0-2 4.45-6.45 6.45-6.45.85 0 1.55-.45 1.55-1 0-.58 3.33-1 8-1s8 .42 8 1c0 .55.69 1 1.53 1 2.52 0 8.47 6.65 8.47 9.47 0 1.39.45 2.53 1 2.53s1 1.8 1 4c0 3.33.33 4 2 4 1.1 0 2 .45 2 1s.9 1 2 1 2 .45 2 1 1.35 1 3 1 3 .45 3 1 1.35 1 3 1 3 .45 3 1 1.35 1 3 1 3 .45 3 1 1.35 1 3 1 3 .45 3 1 1.8 1 4 1 4 .45 4 1 1.35 1 3 1 3 .45 3 1 .9 1 2 1 2 .45 2 1 1.35 1 3 1 3 .45 3 1 1.8 1 4 1 4 .45 4 1 1.35 1 3 1 3 .45 3 1 .9 1 2 1 2 .45 2 1 1.8 1 4 1 4 .45 4 1 1.35 1 3 1 3 .45 3 1 1.35 1 3 1 3 .45 3 1 1.35 1 3 1 3 .45 3 1 1.35 1 3 1 3 .45 3 1 1.35 1 3 1 3 .45 3 1 1.35 1 3 1 3 .45 3 1 .9 1 2 1 2 .45 2 1 1.8 1 4 1 4 .45 4 1 1.35 1 3 1 3 .45 3 1 1.35 1 3 1 3 .45 3 1 .9 1 2 1 2 .45 2 1 1.35 1 3 1 3 .45 3 1 1.35 1 3 1 3 .45 3 1 1.35 1 3 1 3 .45 3 1 1.35 1 3 1 3 .45 3 1 1.35 1 3 1 3 .45 3 1 1.8 1 4 1 4 .45 4 1 .9 1 2 1 2 .45 2 1 1.35 1 3 1 3 .45 3 1 1.35 1 3 1 3 .45 3 1 1.35 1 3 1 3 .45 3 1 1.35 1 3 1 3 .45 3 1 1.35 1 3 1 3 .45 3 1 1.35 1 3 1 3 .45 3 1 1.8 1 4 1 4 .45 4 1 .9 1 2 1 2 .45 2 1 1.35 1 3 1 3 .45 3 1 1.8 1 4 1 4 .45 4 1 .9 1 2 1 2 .45 2 1 1.16 1 2.57 1c3.45 0 5.43 2.19 5.43 6s-1.98 6-5.43 6c-1.41 0-2.57.45-2.57 1s-1.35 1-3 1-3 .45-3 1-1.35 1-3 1-3 .45-3 1-1.35 1-3 1-3 .45-3 1-.9 1-2 1-2 .45-2 1-1.35 1-3 1-3 .45-3 1-1.35 1-3 1-3 .45-3 1-1.35 1-3 1-3 .45-3 1-1.35 1-3 1-3 .45-3 1-1.35 1-3 1-3 .45-3 1-1.35 1-3 1-3 .45-3 1-1.35 1-3 1-3 .45-3 1-1.35 1-3 1-3 .45-3 1-1.35 1-3 1-3 .45-3 1-1.35 1-3 1-3 .45-3 1-1.35 1-3 1-3 .45-3 1-1.35 1-3 1-3 .45-3 1-1.35 1-3 1-3 .45-3 1-1.35 1-3 1-3 .45-3 1-1.35 1-3 1-3 .45-3 1-1.35 1-3 1-3 .45-3 1-1.35 1-3 1-3 .45-3 1-1.35 1-3 1-3 .45-3 1-1.35 1-3 1-3 .45-3 1-1.35 1-3 1-3 .45-3 1-.9 1-2 1-2 .45-2 1-1.35 1-3 1-3 .45-3 1-1.35 1-3 1-3 .45-3 1-1.35 1-3 1-3 .45-3 1-1.35 1-3 1-3 .45-3 1-1.35 1-3 1-3 .45-3 1-1.35 1-3 1-3 .45-3 1-1.35 1-3 1-3 .45-3 1-1.35 1-3 1-3 .45-3 1-1.35 1-3 1-3 .45-3 1-1.35 1-3 1-3 .45-3 1-1.35 1-3 1-3 .45-3 1-1.35 1-3 1-3 .45-3 1-1.35 1-3 1-3 .45-3 1-1.35 1-3 1-3 .45-3 1-1.35 1-3 1-3 .45-3 1-.9 1-2 1-2 .45-2 1-1.8 1-4 1-4 .45-4 1-1.35 1-3 1h-1c1.1 0 2-.45 2-1s1.35-1 3-1 3-.45 3-1 1.35-1 3-1 3-.45 3-1 1.35-1 3-1 3-.45 3-1 1.35-1 3-1 3-.45 3-1 1.35-1 3-1 3-.45 3-1 1.35-1 3-1 3-.45 3-1 1.35-1 3-1 3-.45 3-1 1.35-1 3-1 3-.45 3-1 1.35-1 3-1 3-.45 3-1 1.35-1 3-1 3-.45 3-1 .9-1 2-1 2-.45 2-1 .91-1 2.02-1c2.81 0 9.98-2.33 9.98-3.24 0-.42 1.35-.76 3-.76s3-.45 3-1 1.8-1 4-1 4-.45 4-1 .68-1 1.51-1c.84 0 2.3-.42 3.25-.93.96-.52 3.88-1.52 6.49-2.22 2.61-.71 4.75-1.64 4.75-2.07s1.35-.78 3-.78 3-.45 3-1 1.35-1 3-1 3-.45 3-1 1.35-1 3-1 3-.45 3-1 1.35-1 3-1 3-.45 3-1 1.35-1 3-1 3-.45 3-1 1.35-1 3-1 3-.45 3-1 1.35-1 3-1 3-.45 3-1 1.35-1 3-1 3-.45 3-1 1.35-1 3-1 3-.45 3-1 1.35-1 3-1 3-.45 3-1 1.35-1 3-1 3-.45 3-1 1.35-1 3-1 3-.45 3-1 1.35-1 3-1 3-.45 3-1 1.35-1 3-1 3-.45 3-1 1.35-1 3-1 3-.45 3-1 1.35-1 3-1 3-.45 3-1 .9-1 2-1 2-.45 2-1 1.32-1 2.94-1 3.22-.45 3.56-1 2.17-1 4.06-1 3.44-.45 3.44-1 1.35-1 3-1 3-.45 3-1 .9-1 2-1 2-.45 2-1 1.35-1 3-1 3-.45 3-1 1.35-1 3-1 3-.45 3-1 1.35-1 3-1 3-.45 3-1 1.15-1 2.55-1c2.54 0 7.45-3.95 7.45-6s-4.91-6-7.45-6c-1.4 0-2.55-.45-2.55-1s-1.35-1-3-1-3-.45-3-1-1.35-1-3-1-3-.45-3-1-1.35-1-3-1-3-.45-3-1-1.35-1-3-1-3-.45-3-1-1.35-1-3-1-3-.45-3-1-1.35-1-3-1-3-.45-3-1-1.35-1-3-1-3-.45-3-1-1.35-1-3-1-3-.45-3-1-1.35-1-3-1-3-.45-3-1-1.35-1-3-1-3-.45-3-1-1.35-1-3-1-3-.45-3-1-1.35-1-3-1-3-.45-3-1-1.35-1-3-1-3-.45-3-1-1.35-1-3-1-3-.45-3-1-1.35-1-3-1-3-.45-3-1-1.35-1-3-1-3-.45-3-1-1.35-1-3-1-3-.45-3-1-1.35-1-3-1-3-.45-3-1-1.35-1-3-1-3-.45-3-1-1.1-1-2.44-1-2.72-.45-3.06-1-1.94-1-3.56-1-2.94-.45-2.94-1-1.35-1-3-1-3-.45-3-1-.9-1-2-1-2-.45-2-1-1.35-1-3-1-3-.45-3-1-1.35-1-3-1-3-.45-3-1-1.35-1-3-1-3-.45-3-1-1.35-1-3-1-3-.45-3-1-1.35-1-3-1-3-.45-3-1-1.35-1-3-1-3-.45-3-1-1.8-1-4-1-4-.45-4-1-1.35-1-3-1-3-.45-3-1-1.35-1-3-1-3-.45-3-1-1.35-1-3-1-3-.45-3-1-1.35-1-3-1-3-.45-3-1-1.35-1-3-1-3-.45-3-1-1.35-1-3-1-3-.45-3-1-1.35-1-3-1-3-.45-3-1-1.35-1-3-1-3-.45-3-1-1.35-1-3-1-3-.45-3-1-1.35-1-3-1-3-.45-3-1-1.35-1-3-1-3-.45-3-1-1.35-1-3-1c-2.83 0-3-.22-3-4 0-2.2-.45-4-1-4s-1-1.15-1-2.55c0-2.9-7.76-11.45-10.39-11.45-.89 0-1.61-.45-1.61-1m162 690c0-.62 5.33-1 14-1s14-.38 14-1c0-.61 4.67-1 12-1s12-.39 12-1c0-.58 3.33-1 8-1s8-.42 8-1c0-.57 3-1 7-1s7-.43 7-1 3-1 7-1 7-.43 7-1c0-.55 2.25-1 5-1s5-.45 5-1c0-.56 2.67-1 6-1s6-.44 6-1c0-.55 2.25-1 5-1s5-.45 5-1c0-.56 2.67-1 6-1s6-.44 6-1c0-.55 1.8-1 4-1s4-.46 4-1.03 1.66-.92 3.68-.78c2.19.14 3.84-.25 4.08-.97.23-.68 2.14-1.22 4.32-1.22 2.16 0 3.92-.45 3.92-1s1.8-1 4-1 4-.45 4-1 1.8-1 4-1 4-.45 4-1 1.8-1 4-1 4-.45 4-1 1.35-1 3-1 3-.45 3-1 1.35-1 3-1 3-.45 3-1 1.35-1 3-1 3-.45 3-1 1.35-1 3-1 3-.45 3-1 1.35-1 3-1 3-.45 3-1 1.35-1 3-1 3-.45 3-1 .9-1 2-1 2-.45 2-1 1.35-1 3-1 3-.45 3-1 .9-1 2-1 2-.45 2-1 .9-1 2-1 2-.45 2-1 .9-1 2-1 2-.45 2-1 .9-1 2-1 2-.45 2-1 .9-1 2-1 2-.45 2-1 .8-1 1.78-1c.52 0 1.18-.26 1.8-.67-.21.21-.41.44-.58.67-.79 1.1-2.24 2-3.22 2s-1.78.45-1.78 1-.9 1-2 1-2 .45-2 1-.9 1-2 1-2 .45-2 1-.9 1-2 1-2 .45-2 1-1.35 1-3 1-3 .45-3 1-.9 1-2 1-2 .45-2 1-.9 1-2 1-2 .45-2 1-1.35 1-3 1-3 .45-3 1-1.35 1-3 1-3 .45-3 1-1.35 1-3 1-3 .45-3 1-1.35 1-3 1-3 .45-3 1-1.35 1-3 1-3 .45-3 1-1.35 1-3 1-3 .45-3 1-1.8 1-4 1-4 .45-4 1-1.35 1-3 1-3 .45-3 1-1.8 1-4 1-4 .45-4 1-1.8 1-4 1-4 .45-4 1-1.32 1-2.94 1-3.22.45-3.56 1-3.07 1-6.06 1-5.44.45-5.44 1-2.25 1-5 1-5 .45-5 1-2.25 1-5 1-5 .45-5 1-2.25 1-5 1-5 .45-5 1c0 .56-2.67 1-6 1s-6 .44-6 1-2.67 1-6 1-6 .44-6 1-2.83 1-6.5 1-6.5.44-6.5 1c0 .59-3.5 1-8.5 1s-8.5.41-8.5 1c0 .6-4 1-10 1s-10 .4-10 1c0 .62-5.33 1-14 1s-14 .38-14 1c0 .63-7.17 1-19.5 1s-19.5.37-19.5 1-6.83 1-18.5 1-18.5-.37-18.5-1c0-.64-8.33-1-23-1s-23-.36-23-1c0-.61-4.67-1-12-1s-12-.39-12-1c0-.59-3.67-1-9-1s-9-.41-9-1c0-.58-3.33-1-8-1s-8-.42-8-1c0-.55-2.48-1-5.5-1s-5.5-.45-5.5-1c0-.56-2.67-1-6-1s-6-.44-6-1c0-.55-2.48-1-5.5-1s-5.5-.45-5.5-1-1.8-1-4-1-4-.45-4-1-2.25-1-5-1-5-.45-5-1-1.8-1-4-1-4-.45-4-1-1.8-1-4-1-4-.45-4-1-1.8-1-4-1-4-.45-4-1-1.35-1-3-1-3-.45-3-1-1.8-1-4-1-4-.45-4-1-1.35-1-3-1-3-.45-3-1-1.35-1-3-1-3-.45-3-1-1.35-1-3-1-3-.45-3-1-1.35-1-3-1-3-.45-3-1-1.35-1-3-1-3-.45-3-1-.9-1-2-1-2-.45-2-1-1.35-1-3-1-3-.45-3-1-.9-1-2-1-2-.34-2.01-.75c0-.37-.55-.85-1.38-1.32.31.04.63.07.95.07 1.34 0 2.44.45 2.44 1s.9 1 2 1 2 .45 2 1 .9 1 2 1 2 .45 2 1 1.35 1 3 1 3 .45 3 1 1.35 1 3 1 3 .45 3 1 1.35 1 3 1 3 .45 3 1 1.35 1 3 1 3 .45 3 1 1.35 1 3 1 3 .45 3 1 1.35 1 3 1 3 .45 3 1 1.8 1 4 1 4 .45 4 1 1.35 1 3 1 3 .45 3 1 1.8 1 4 1 4 .45 4 1 1.8 1 4 1 4 .45 4 1 2.25 1 5 1 5 .45 5 1 2.25 1 5 1 5 .45 5 1 1.8 1 4 1 4 .45 4 1c0 .56 2.67 1 6 1s6 .44 6 1c0 .55 2.45 1 5.44 1s5.72.45 6.06 1 3.04 1 6 1 5.66.45 6 1 4.64 1 9.56 1c5.29 0 8.94.41 8.94 1s3.67 1 9 1 9 .41 9 1c0 .62 5.31 1 13.94 1 8.22 0 14.2.41 14.56 1 .4.64 18.18 1 50.06 1 32.29 0 49.44-.35 49.44-1m137-173h8.42c5.05 0 8.58.41 8.58 1 0 .61 4.67 1 12 1s12 .39 12 1c0 .58 3.33 1 8 1s8 .42 8 1c0 .56 2.83 1 6.5 1s6.5.44 6.5 1c0 .55 2.03 1 4.5 1s4.5.45 4.5 1 2.25 1 5 1 5 .45 5 1 1.8 1 4 1 4 .45 4 1 1.35 1 3 1 3 .45 3 1 1.8 1 4 1 4 .45 4 1 .9 1 2 1 2 .45 2 1 1.35 1 3 1 3 .45 3 1 .9 1 2 1 2 .45 2 1 .9 1 2 1 2 .45 2 1c0-.55-1.35-1-3-1s-3-.45-3-1-.9-1-2-1-2-.45-2-1-1.35-1-3-1-3-.45-3-1-1.1-1-2.44-1-2.72-.45-3.06-1-1.94-1-3.56-1-2.94-.45-2.94-1-1.8-1-4-1-4-.45-4-1-1.8-1-4-1-4-.45-4-1-2.25-1-5-1-5-.45-5-1-2.25-1-5-1-5-.45-5-1c0-.57-3-1-7-1s-7-.43-7-1c0-.59-3.67-1-9-1s-9-.41-9-1c0-.62-5.93-1-15.78-1-14.63 0-15.88-.15-17.22-2m-428.58-7.33c.21-.21.41-.44.58-.67.79-1.1 2.24-2 3.22-2s1.78-.45 1.78-1 .9-1 2-1 2-.45 2-1 .9-1 2-1 2-.45 2-1 .9-1 2-1 2-.45 2-1 .9-1 2-1 2-.45 2-1 .9-1 2-1 2-.45 2-1 1.35-1 3-1 3-.45 3-1 .9-1 2-1 2-.45 2-1 1.35-1 3-1 3-.45 3-1 .9-1 2-1 2-.45 2-1 1.35-1 3-1 3-.45 3-1 1.35-1 3-1 3-.45 3-1 1.8-1 4-1 4-.45 4-1 1.8-1 4-1 4-.45 4-1 1.8-1 4-1 4-.45 4-1 1.8-1 4-1 4-.45 4-1 2.51-1 5.57-1c3.5 0 6.11-.53 7-1.43 1.22-1.22 1.43-33 1.43-227.57v229h-5c-2.75 0-5 .45-5 1s-2.25 1-5 1-5 .45-5 1-1.8 1-4 1-4 .45-4 1-1.8 1-4 1-4 .45-4 1-1.8 1-4 1-4 .45-4 1-1.35 1-3 1-3 .45-3 1-1.35 1-3 1-3 .45-3 1-.9 1-2 1-2 .45-2 1-1.35 1-3 1-3 .45-3 1-.9 1-2 1-2 .45-2 1-1.35 1-3 1-3 .45-3 1-.9 1-2 1-2 .45-2 1-.9 1-2 1-2 .45-2 1-.9 1-2 1-2 .45-2 1-.9 1-2 1-2 .45-2 1-.9 1-2 1-2 .45-2 1-.9 1-2 1-2 .45-2 1-.8 1-1.78 1c-.52 0-1.18.26-1.8.67m220.85-32.73c.54.04 1.12.06 1.73.06 2.75 0 5 .45 5 1s1.8 1 4 1 4 .45 4 1 1.8 1 4 1 4 .45 4 1 1.35 1 3 1 3 .45 3 1 1.35 1 3 1 3 .45 3 1 1.58 1 3.5 1 3.5.45 3.5 1 1.12 1 2.5 1 2.5.45 2.5 1 1.35 1 3 1 3 .45 3 1 .9 1 2 1 2 .45 2 1 1.35 1 3 1 3 .45 3 1 1.35 1 3 1 3 .45 3 1 1.35 1 3 1 3 .45 3 1 1.35 1 3 1 3 .45 3 1 1.35 1 3 1 3 .45 3 1 2.25 1 5 1 5 .45 5 1 1.8 1 4 1 4 .45 4 1c0 .56 2.67 1 6 1s6 .44 6 1c0 .58 3.26 1 7.78 1 4.66 0 6.71-.15 7.95-.82-.27.25-.52.53-.73.82-1.49 2.07-5 2.77-5 1 0-.57-3-1-7-1s-7-.43-7-1c0-.56-2.67-1-6-1s-6-.44-6-1c0-.55-1.8-1-4-1s-4-.45-4-1-1.8-1-4-1-4-.45-4-1-1.35-1-3-1-3-.45-3-1-1.35-1-3-1-3-.45-3-1-1.35-1-3-1-3-.45-3-1-1.35-1-3-1-3-.45-3-1-1.35-1-3-1-3-.45-3-1-.9-1-2-1-2-.45-2-1-1.35-1-3-1-3-.45-3-1-1.35-1-3-1-3-.45-3-1-1.35-1-3-1-3-.45-3-1-1.35-1-3-1-3-.45-3-1-1.8-1-4-1-4-.45-4-1-1.35-1-3-1-3-.45-3-1-2.25-1-5-1-5-.4-5-.9c0-.4-.92-.79-2.73-1.16M567 729c0-.55-1.35-1-3-1s-3-.45-3-1-1.25-1-2.78-1c-1.63 0-3.37-.83-4.22-2-.79-1.1-2.03-2-2.75-2-1.82 0-10.25-8.61-10.25-10.47 0-.84-.45-1.53-1-1.53s-1-.9-1-2-.45-2-1-2-1-.9-1-2-.45-2-1-2-1-2.03-1-4.5-.45-4.5-1-4.5c-1.33 0-1.29-4.74.03-5.18.57-.19 1.07-2.93 1.11-6.08.04-3.16.47-5.74.96-5.74.5 0 .9-.59.9-1.3 0-1.84 2.35-6.68 3.25-6.69-2.22 2.63-3.25 5.03-3.25 7.48 0 1.38-.4 2.51-.89 2.51s-.96 4.95-1.04 11c-.1 7.04.22 11 .89 11 .57 0 1.04 1.35 1.04 3s.45 3 1 3 1 .68 1 1.52c0 .83 3.37 4.88 7.48 9 4.12 4.11 8.17 7.48 9 7.48.84 0 1.52.45 1.52 1s.9 1 2 1 2 .45 2 1c0 .62 5 1 13 1 7.15 0 13-.34 13.01-.75.01-.9 4.85-3.25 6.69-3.25.71 0 1.3-.45 1.3-1s.69-1 1.53-1c1.86 0 10.47-8.43 10.47-10.25 0-.72.9-1.96 2-2.75.02-.02.05-.04.07-.05-.04.17-.07.37-.07.57 0 .83-2.92 4.43-6.48 8-3.57 3.56-7.17 6.48-8 6.48-.84 0-1.52.5-1.52 1.11s-.69.84-1.54.51c-.87-.33-1.78.05-2.1.9-.37.96-1.95 1.48-4.47 1.48-2.14 0-3.89.45-3.89 1 0 .57-3 1-7 1s-7-.43-7-1m180.63 35.45c.14-.15.26-.3.37-.45.79-1.1 2.02-2 2.74-2 .71 0 5.11-3.83 9.79-8.5 4.67-4.67 8.94-8.5 9.48-8.5.55 0 .99-1.03.99-2.28s.9-2.93 2-3.72c1.15-.83 2-2.59 2-4.14 0-1.48.49-2.86 1.09-3.06.68-.22 1.08-3.89 1.08-9.8s-.4-9.58-1.08-9.8c-.6-.2-1.09-1.58-1.09-3.06 0-1.07-.41-2.25-1.04-3.14.59 0 1.04.9 1.04 2s.45 2 1 2 1.01 1.24 1.03 2.75.69 3.62 1.5 4.69c1.96 2.59 1.94 9.44-.03 10.2-.86.33-1.5 1.82-1.5 3.47 0 1.59-.45 2.89-1 2.89s-1 1.25-1 2.78c0 1.63-.83 3.37-2 4.22-1.1.79-2 2.03-2 2.74 0 1.58-12.52 14.26-14.08 14.26-.61 0-2.38 1.35-3.92 3s-3.42 3-4.18 3c-.33 0-.75.17-1.19.45M439 209c0 .55 1.8 1 4 1s4 .45 4 1 .9 1 2 1 2 .45 2 1 1.8 1 4 1 4 .45 4 1 1.35 1 3 1 3 .45 3 1 1.35 1 3 1 3 .45 3 1 1.35 1 3 1 3 .45 3 1 1.1 1 2.44 1 2.72.45 3.06 1 1.94 1 3.56 1 2.94.45 2.94 1 1.35 1 3 1 3 .45 3 1 1.12 1 2.5 1 2.5.45 2.5 1c0-.55-1.58-1-3.5-1s-3.5-.45-3.5-1-1.35-1-3-1-3-.45-3-1-.87-1-1.94-1-2.22-.45-2.56-1-2.17-1-4.06-1-3.44-.45-3.44-1-1.35-1-3-1-3-.45-3-1-1.35-1-3-1-3-.45-3-1-1.35-1-3-1-3-.45-3-1-1.35-1-3-1-3-.45-3-1-1.35-1-3-1-3-.45-3-1-1.35-1-3-1-3-.45-3-1-1.35-1-3-1-3-.45-3-1-1.35-1-3-1-3-.45-3-1-1.35-1-3-1-3-.45-3-1-1.35-1-3-1-3-.45-3-1-1.35-1-3-1-3-.45-3-1-1.35-1-3-1-3-.45-3-1c0 .55 1.8 1 4 1s4 .45 4 1 1.35 1 3 1 3 .45 3 1 1.35 1 3 1 3 .45 3 1 1.35 1 3 1 3 .45 3 1 1.35 1 3 1 3 .45 3 1 .9 1 2 1 2 .45 2 1m108.45 435.64c.2-.2.39-.42.55-.64.79-1.1 2.24-2 3.22-2s1.78-.45 1.78-1 1.35-1 3-1 3-.45 3-1 1.8-1 4-1 4-.45 4-1c0-.57 3-1 7-1s7 .43 7 1c0 .55 2.25 1 5 1s5 .45 5 1 .9 1 2 1 2 .45 2 1c0-.55-1.35-1-3-1s-3-.45-3-1c0-.62-5.33-1-14-1s-14 .38-14 1c0 .55-1.35 1-3 1s-3 .45-3 1-.9 1-2 1-2 .45-2 1-.8 1-1.78 1c-.51 0-1.16.25-1.77.64m-439.83 94.87c-.2-.18-.4-.35-.62-.51-1.17-.85-2-2.59-2-4.22 0-1.53-.45-2.78-1-2.78-.6 0-1-4-1-10s.4-10 1-10c.55 0 1-.8 1-1.78s.9-2.43 2-3.22 2-2.03 2-2.74c0-1.7 10.56-12.26 12.26-12.26.71 0 1.95-.9 2.74-2s2.14-2 3-2c.41 0 .94-.21 1.46-.55-.17.18-.32.36-.46.55-.79 1.1-2.03 2-2.75 2-1.86 0-18.25 16.57-18.25 18.45 0 .85-.45 1.55-1 1.55s-1 .9-1 2-.45 2-1 2c-.58 0-1 3.33-1 8s.42 8 1 8c.55 0 1 1.35 1 3s.45 3 1 3 1 .8 1 1.78c0 .5.24 1.13.62 1.73M370 611c0-.63-7.17-1-19.5-1h4c15 0 23.5.36 23.5 1 0 .58 3.17 1 7.5 1s7.5.42 7.5 1c0 .56 2.67 1 6 1s6 .44 6 1c0 .18.24.35.66.49-2.76-.39-6.58-.77-11.41-1.12-3.99-.29-7.25-.94-7.25-1.45s-3.83-.92-8.5-.92c-5 0-8.5-.41-8.5-1m240.03 97c.58-.73.97-1.58.97-2.22 0-.98.45-1.78 1-1.78s1-1.35 1-3 .45-3 1-3c.59 0 1-3.67 1-9s-.41-9-1-9c-.55 0-1-1.35-1-3s-.45-3-1-3-1-.9-1-2-.45-2-1-2-1-.68-1-1.52c0-1.98-12.5-14.48-14.48-14.48-.84 0-1.52-.45-1.52-1 0 .55.9 1 2 1s2 .45 2 1 .69 1 1.53 1c1.87 0 8.47 6.42 8.47 8.25 0 .72.9 1.96 2 2.75s2 2.24 2 3.22.45 1.78 1 1.78 1 1.35 1 3 .45 3 1 3c.61 0 1 4.33 1 11s-.39 11-1 11c-.55 0-1 .9-1 2s-.45 2-1 2-1 .9-1 2c0 1.08-.43 1.96-.97 2M548.5 259c-.34.55-1.72 1-3.06 1s-2.44.45-2.44 1-1.35 1-3 1-3 .45-3 1-1.35 1-3 1-3 .45-3 1-1.35 1-3 1-3 .45-3 1c0-.55.9-1 2-1s2-.45 2-1 1.35-1 3-1 3-.45 3-1 1.35-1 3-1 3-.45 3-1 1.55-1 3.44-1 3.72-.45 4.06-1 1.49-1 2.56-1 1.94-.45 1.94-1 1.35-1 3-1 3-.45 3-1 1.35-1 3-1 3-.26 3-.57c0-1.17-2.91-3.43-4.43-3.43-.86 0-1.57-.45-1.57-1 0 .55 1.16 1 2.57 1 2.32 0 5.43 1.97 5.43 3.43 0 .31-1.35.57-3 .57s-3 .45-3 1-1.35 1-3 1-3 .45-3 1-1.32 1-2.94 1-3.22.45-3.56 1M171.46 784.94c-1.44-.54-3.02-.94-4.16-.94-1.26 0-2.3-.45-2.3-1s-.9-1-2-1-2-.45-2-1-.9-1-2-1-2-.45-2-1-.9-1-2-1-2-.45-2-1-.9-1-2-1-2-.45-2-1-.8-1-1.78-1-2.43-.9-3.22-2a5.5 5.5 0 0 0-.55-.64c.61.39 1.26.64 1.77.64.98 0 1.78.45 1.78 1s.9 1 2 1 2 .45 2 1 .9 1 2 1 2 .45 2 1 .9 1 2 1 2 .45 2 1 .9 1 2 1 2 .45 2 1 .9 1 2 1 2 .45 2 1 .87 1 1.94 1c1.03 0 2.13.42 2.52.94m375.52-125.95c2.85-2.79 5.71-4.99 6.5-4.99.84 0 1.52-.45 1.52-1s.9-1 2-1 2-.45 2-1 1.32-1 2.94-1 3.22-.45 3.56-1 4.42-1 9.06-1h.27c-3.26.02-5.83.45-5.83 1s-1.8 1-4 1-4 .45-4 1-.9 1-2 1-2 .45-2 1-.8 1-1.78 1-2.43.9-3.22 2-2.05 2-2.79 2c-.68 0-1.5.4-2.23.99m-397.44 15.56c.17-.18.32-.36.46-.55.79-1.1 2.06-2 2.82-2s2.64-1.35 4.18-3 3.42-3 4.18-3 2.03-.9 2.82-2 2.06-2 2.82-2 2.64-1.35 4.18-3 3.42-3 4.18-3c.33 0 .75-.17 1.19-.45-.14.15-.26.3-.37.45-.79 1.1-2.06 2-2.82 2s-2.64 1.35-4.18 3-3.34 3-4 3-2.46 1.35-4 3-3.42 3-4.18 3-2.03.9-2.82 2-2.14 2-3 2c-.41 0-.94.21-1.46.55m450.36-30.68c.26.08.56.13.88.13.98 0 2.43.9 3.22 2s2.05 2 2.8 2 3.09 1.8 5.2 4l2.19 2.28c-.3-.18-.58-.28-.79-.28-.64 0-3.01-1.8-5.28-4s-4.7-4-5.4-4-1.93-.9-2.72-2c-.03-.04-.06-.09-.1-.13M383.44 190c1.34 0 2.72.45 3.06 1-.34-.55-2.17-1-4.06-1s-3.44-.45-3.44-1-1.35-1-3-1-3-.45-3-1-1.35-1-3-1-3-.45-3-1-.87-1-1.94-1-2.22-.45-2.56-1c.34.55 1.94 1 3.56 1s2.94.45 2.94 1 1.35 1 3 1 3 .45 3 1 1.35 1 3 1 3 .45 3 1 1.1 1 2.44 1m144 48c1.34 0 2.72.45 3.06 1-.34-.55-2.17-1-4.06-1s-3.44-.45-3.44-1-1.35-1-3-1-3-.45-3-1-1.35-1-3-1-3-.45-3-1-.87-1-1.94-1-2.22-.45-2.56-1c.34.55 1.94 1 3.56 1s2.94.45 2.94 1 1.35 1 3 1 3 .45 3 1 1.35 1 3 1 3 .45 3 1 1.1 1 2.44 1m-391 528.53c-.52-.33-1.03-.53-1.44-.53-.86 0-2.21-.9-3-2s-2.02-2-2.73-2c-.8 0-5.41-4.19-10.03-8.76 2.71 2.62 5.2 4.76 5.84 4.76.61 0 2.38 1.35 3.92 3s3.42 3 4.18 3 2.03.9 2.82 2c.13.18.28.36.44.53m628.03-72.05c-2.52-2.44-4.98-4.48-5.73-4.48-.71 0-1.95-.9-2.74-2s-2.14-2-3-2-2.21-.9-3-2c-.04-.06-.09-.12-.14-.18.33.11.72.18 1.14.18 1.1 0 2 .45 2 1s.68 1 1.51 1c.99 0 5.6 4.11 9.96 8.48m-635.02-7.84c.2-.2.39-.42.55-.64.79-1.1 2.24-2 3.22-2s1.78-.45 1.78-1 .8-1 1.78-1c.52 0 1.18-.26 1.8-.67-.21.21-.41.44-.58.67-.79 1.1-2.24 2-3.22 2s-1.78.45-1.78 1-.8 1-1.78 1c-.51 0-1.16.25-1.77.64m9.97-5.97c.21-.21.41-.44.58-.67.79-1.1 2.24-2 3.22-2s1.78-.45 1.78-1 .8-1 1.78-1c.51 0 1.16-.25 1.77-.64-.2.2-.39.42-.55.64-.79 1.1-2.24 2-3.22 2s-1.78.45-1.78 1-.8 1-1.78 1c-.52 0-1.18.26-1.8.67m38.06-26.04c.19-.2.36-.41.52-.63.79-1.1 2.24-2 3.22-2s1.78-.45 1.78-1 .8-1 1.78-1c.52 0 1.18-.26 1.8-.67-.21.21-.41.44-.58.67-.79 1.1-2.24 2-3.22 2s-1.78.45-1.78 1-.8 1-1.78 1c-.51 0-1.14.24-1.74.63m559.94 116.04c.21-.21.41-.44.58-.67.79-1.1 2.24-2 3.22-2s1.78-.45 1.78-1 .8-1 1.78-1c.51 0 1.14-.24 1.74-.63-.19.2-.36.41-.52.63-.79 1.1-2.24 2-3.22 2s-1.78.45-1.78 1-.8 1-1.78 1c-.52 0-1.18.26-1.8.67M416 304c-1.65 0-3 .45-3 1 0-.55.9-1 2-1s2-.45 2-1 1.35-1 3-1 3-.45 3-1 1.55-1 3.44-1 3.72-.45 4.06-1c-.34.55-1.72 1-3.06 1s-2.44.45-2.44 1-1.35 1-3 1-3 .45-3 1-1.35 1-3 1m-85-52c0 73.35.1 77.87 1.75 78.19.84.17 1.91.2 3.02.14-.48.18-.77.42-.77.67 0 .55-.9 1-2 1-1.98 0-2-.67-2-80m10-76c1.1 0 2 .45 2 1 0-.55-1.35-1-3-1s-3-.45-3-1-1.35-1-3-1h-2.29c.09-1.33.19-2 .29-2 .55 0 1 .45 1 1s1.35 1 3 1 3 .45 3 1 .9 1 2 1m199.89 491.28c.07-.23.11-.51.11-.8 0-.78 2.11-3.54 4.82-6.33-.49.63-.82 1.31-.82 1.88 0 .64-1.24 2.37-2.75 3.85-.49.47-.95.94-1.36 1.4M142.46 770.55c-.52-.34-1.05-.55-1.46-.55-.86 0-2.21-.9-3-2-.13-.18-.28-.36-.44-.53.52.33 1.03.53 1.44.53.86 0 2.21.9 3 2 .14.19.29.37.46.55m399.11-122.02c.15-.16.29-.34.43-.53.79-1.1 2.14-2 3-2 .41 0 .94-.21 1.46-.55-.17.18-.32.36-.46.55-.79 1.1-2.14 2-3 2-.4 0-.92.2-1.43.53m34.27-.52c4.27.06 7.16.45 7.16.99 0 .55 1.35 1 3 1s3 .45 3 1c0-.55-1.8-1-4-1s-4-.45-4-1c0-.51-2.23-.92-5.16-.99M115.71 749.66c-3.71-3.84-6.71-7.25-6.71-7.93 0-.28-.15-.66-.4-1.05.13.12.26.22.4.32 1.1.79 2 2.03 2 2.74 0 .65 2.11 3.17 4.71 5.92m657.36-44.61a.3.3 0 0 1-.07-.05c-1.1-.79-2-2.03-2-2.74 0-.55-1.11-2.04-2.67-3.79 2.68 2.89 4.67 5.33 4.67 6.02 0 .2.03.39.07.56M596.78 642c-.98 0-1.78-.45-1.78-1 0 .55.9 1 2 1 1.08 0 1.96.43 2 .97-.73-.58-1.58-.97-2.22-.97M749 682.97c-.73-.58-1.58-.97-2.22-.97-.98 0-1.78-.45-1.78-1 0 .55.9 1 2 1 1.08 0 1.96.43 2 .97m-410.33-353c1.35-.27 2.33-.67 2.33-1.08 0-.49 1.35-.89 3-.89-1.65 0-3 .45-3 1 0 .47-1 .87-2.33.97M303 426.43V319.51Z"/><path fill="#52863e" d="M402 819c-.83-.53-9.24-.98-18.69-.98-10.37-.01-17.44-.42-17.81-1.02-.35-.57-5.34-1-11.56-1-6.63 0-10.94-.39-10.94-1 0-.59-3.65-1-8.94-1-4.92 0-9.22-.45-9.56-1s-3.97-1-8.06-1c-4.29 0-7.44-.42-7.44-1 0-.56-2.67-1-6-1-3.3 0-6-.41-6-.91s-2.36-1.16-5.25-1.46c-11.56-1.24-15.29-1.86-16.2-2.73-.52-.49-2.66-.9-4.75-.9s-3.8-.45-3.8-1-2-1-4.44-1-4.72-.45-5.06-1-2.39-1-4.56-1-3.94-.45-3.94-1-1.8-1-4-1-4-.45-4-1-1.8-1-4-1-4-.45-4-1-1.35-1-3-1-3-.45-3-1-1.8-1-4-1-4-.45-4-1-1.35-1-3-1-3-.45-3-1-1.35-1-3-1-3-.45-3-1-1.1-1-2.44-1-2.72-.45-3.06-1-1.49-1-2.56-1-1.94-.45-1.94-1-1.35-1-3-1-3-.37-3-.82-2.25-1.43-5-2.18-5-1.73-5-2.18-.9-.82-2-.82-2-.45-2-1-.89-1-1.98-1c-1.08 0-3.45-.9-5.25-2-1.8-1.09-4.06-1.99-5.02-2-.96 0-1.75-.45-1.75-1s-.9-1-2-1-2-.45-2-1-.8-1-1.78-1-2.43-.9-3.22-2-2.24-2-3.22-2-1.78-.45-1.78-1-.9-1-2-1-2-.45-2-1-.59-1-1.3-1c-.72 0-3.03-1.58-5.13-3.5s-4.19-3.5-4.65-3.5c-1.51 0-14.92-13.88-14.92-15.45 0-.85-.34-1.55-.75-1.56-1.73-.02-3.25-5.86-3.25-12.47 0-5.93.32-7.31 2-8.52 1.1-.79 2-2.03 2-2.75 0-1.71 6.54-8.25 8.25-8.25.72 0 1.96-.9 2.75-2s2.14-2 3-2c.41 0 .92-.2 1.44-.53-.16.17-.31.35-.44.53-.79 1.1-2.03 2-2.74 2-1.77 0-14.26 12.61-14.26 14.4 0 .79-.45 1.58-1 1.77-1.17.39 1.82 3.85 4.84 5.91-.17-.05-.32-.08-.45-.08-.67 0-1.42-.56-1.67-1.25s-.81-.91-1.24-.5c-1.59 1.48 2.36 10.81 6.99 16.52 2.09 2.56 16.2 13.99 21.53 17.43 4.49 2.89 14.88 8.72 23 12.9 7.5 3.86 29.46 12.68 39.5 15.86 3.85 1.22 8.8 2.8 11 3.5 4 1.28 5.86 1.81 19 5.42 7.96 2.19 21.37 5.41 29.5 7.08 7.25 1.5 13.69 2.96 18 4.08 3.22.84 23.17 3.63 42.5 5.94 43.29 5.18 92.18 6.93 139.5 4.98 22.36-.92 33.3-1.87 69.5-6.06 4.4-.51 12.28-1.36 17.5-1.89 12.3-1.25 19.98-2.41 33.5-5.08 6.05-1.19 13.25-2.5 16-2.91s7.25-1.46 10-2.33 8.83-2.34 13.5-3.26c15.1-2.97 16.44-3.26 20.5-4.42 2.2-.63 5.8-1.53 8-2.01 5.47-1.2 26.74-8.21 36.5-12.04 16.67-6.54 28.66-12.25 35.33-16.84 2.49-1.72 4.81-3.12 5.16-3.12 1.51 0 12.5-8.23 17.52-13.13 13.99-13.65 13.62-25.54-1.23-39.11-6.68-6.1-8.78-7-8.78-3.74 0 1.44-.61 4.02-1.33 6.2.73-2.46 1.33-5.6 1.33-7.78 0-1.89-.46-3.52-1.25-4.66.34.14.78.22 1.25.22 1.1 0 2 .45 2 1s.9 1 2 1 2 .45 2 1 .68 1 1.52 1c1.98 0 14.48 12.5 14.48 14.48 0 .84.45 1.52 1 1.52s1 .87 1 1.94.45 2.22 1 2.56 1 2.62 1 5.06-.45 4.44-1 4.44-1 1.35-1 3-.45 3-1 3-1 .69-1 1.54c0 1.91-17.16 19.06-19.96 19.95-1.12.35-2.04 1.06-2.04 1.58 0 .51-.8.93-1.78.93s-2.43.9-3.22 2-2.24 2-3.22 2-1.78.45-1.78 1-.8 1-1.78 1-2.43.9-3.22 2-2.24 2-3.22 2-1.78.45-1.78 1-.9 1-2 1-2 .45-2 1-1.35 1-3 1-3 .45-3 1-.9 1-2 1-2 .45-2 1-.9 1-2 1-2 .45-2 1-1.35 1-3 1-3 .45-3 1-.9 1-2 1-2 .45-2 1-1.35 1-3 1-3 .45-3 1-1.35 1-3 1-3 .45-3 1-1.35 1-3 1-3 .45-3 1-1.35 1-3 1-3 .45-3 1-1.8 1-4 1-4 .45-4 1-1.8 1-4 1-4 .45-4 1-1.55 1-3.44 1-3.72.45-4.06 1-2.39 1-4.56 1-3.94.45-3.94 1-1.8 1-4 1-4 .45-4 1-1.8 1-4 1-4 .45-4 1-2.25 1-5 1-5 .45-5 1-2.25 1-5 1-5 .45-5 1-2.25 1-5 1-5 .45-5 1-2.45 1-5.44 1-5.72.45-6.06 1-3.29 1-6.56 1c-3.29 0-5.94.45-5.94 1 0 .57-3 1-7 1s-7 .43-7 1c0 .59-3.48 1-8.44 1-4.64 0-8.72.45-9.06 1s-4.39 1-9 1-8.66.45-9 1c-.35.57-5.34 1-11.56 1-6.63 0-10.94.39-10.94 1 0 .63-6.48 1-17.44 1-10.55 0-17.69.4-18.06 1-.82 1.32-55.45 1.32-57.5 0m-71-132v-13h3c1.65 0 3 .45 3 1s2 1 4.44 1 4.72.45 5.06 1 1.94 1 3.56 1 2.94.45 2.94 1 1.35 1 3 1 3 .45 3 1 .7 1 1.55 1 2.67 1.12 4.04 2.5l2.5 2.5-2.5 2.5c-1.37 1.38-3.19 2.5-4.04 2.5s-1.55.45-1.55 1-1.35 1-3 1-3 .45-3 1-1.8 1-4 1-4 .45-4 1-2.25 1-5 1-5 .45-5 1-.9 1-2 1c-1.9 0-2-.67-2-13m-52 10c0-.55-1.8-1-4-1s-4-.45-4-1-1.35-1-3-1-3-.45-3-1-.7-1-1.55-1-2.67-1.12-4.04-2.5l-2.5-2.5 2.5-2.5c1.37-1.38 3.19-2.5 4.04-2.5s1.55-.45 1.55-1 1.35-1 3-1 3-.45 3-1 1.55-1 3.44-1 3.72-.45 4.06-1 2.39-1 4.56-1 3.94-.45 3.94-1 .9-1 2-1c1.89 0 2 .67 2 12v12h-6c-3.33 0-6-.44-6-1m340 18.52c0-.84.45-1.52 1-1.52-.55 0-1 .74-1 1.63 0 .9-.83 2.36-1.85 3.25-2.34 2.04-5.28 7.66-4.44 8.49.34.35 2.35.63 4.46.63s3.83.45 3.83 1c0-.55-2.25-1-5.01-1-3.89 0-5.4.47-6.75 2.12-7.86 9.59-24.87 15.92-38.48 14.32-10.34-1.21-22.6-6.58-28.83-12.63-2.95-2.85-4.63-3.76-7.2-3.81h.27c2.2 0 4-.26 4-.58 0-.19-.64-.97-1.62-2.02 2.38 2.39 5.01 4.6 5.87 4.6.72 0 1.96.9 2.75 2s2.24 2 3.22 2 1.78.45 1.78 1 .9 1 2 1 2 .45 2 1 1.35 1 3 1 3 .45 3 1c0 .62 5.15 1 13.44 1 7.88 0 13.7-.41 14.06-1 .34-.55 1.69-1 3-1s2.66-.45 3-1 1.39-1 2.34-1c.94 0 2.37-.9 3.16-2s2.02-2 2.74-2c1.82 0 16.26-14.64 16.26-16.48m-92.18-47.99c.11-.56.18-1.09.18-1.52 0-1.1.45-2.01 1-2.01s1-.45 1-1-.9-1-2-1-2-.45-2-1c0-.57-2.98-1-6.94-1-3.82 0-7.22-.45-7.56-1s-2.62-1-5.06-1-4.44-.45-4.44-1-1.8-1-4-1-4-.45-4-1-1.55-1-3.44-1-3.72-.45-4.06-1-1.94-1-3.56-1-2.94-.45-2.94-1-1.35-1-3-1-3-.45-3-1-.9-1-2-1-2-.45-2-1-1.35-1-3-1-3-.45-3-1-1.35-1-3-1-3-.45-3-1-.67-1-1.5-1-1.5-.45-1.5-1-1.55-1-3.44-1-3.72-.45-4.06-1-2.17-1-4.06-1-3.44-.45-3.44-1-1.35-1-3-1-3-.45-3-1-1.35-1-3-1-3-.45-3-1-1.8-1-4-1-4-.45-4-1-1.8-1-4-1-4-.45-4-1-2-1-4.44-1-4.72-.45-5.06-1-2.84-1-5.56-1-4.94-.45-4.94-1c0-.59-3.67-1-9-1s-9-.41-9-1c0-.63-7.67-1-21-1h4c16 0 25 .36 25 1 0 .57 3 1 7 1s7 .43 7 1c0 .55 2.25 1 5 1s5 .45 5 1 2.25 1 5 1 5 .45 5 1 1.35 1 3 1 3 .45 3 1 1.8 1 4 1 4 .45 4 1 1.35 1 3 1 3 .45 3 1 1.35 1 3 1 3 .45 3 1 1.8 1 4 1 4 .45 4 1 1.12 1 2.5 1 2.5.45 2.5 1 1.12 1 2.5 1 2.5.45 2.5 1 1.35 1 3 1 3 .45 3 1 1.35 1 3 1 3 .45 3 1 .9 1 2 1 2 .45 2 1 1.35 1 3 1 3 .45 3 1 1.8 1 4 1 4 .45 4 1 1.35 1 3 1 3 .45 3 1 1.8 1 4 1 4 .45 4 1c0 .56 2.83 1 6.5 1s6.5.44 6.5 1 2.83 1 6.5 1h6.5v3c0 1.65-.34 3-.75 3.01-.44 0-.95.6-1.43 1.52m205.68 20.56c-.34-.06-.7-.09-1.06-.09-1.34 0-2.44-.45-2.44-1s-1.35-1-3-1-3-.45-3-1-1.35-1-3-1-3-.45-3-1-1.32-1-2.94-1-3.22-.45-3.56-1-2.36-1-4.5-1-4.16-.45-4.5-1-2.39-1-4.56-1-3.94-.45-3.94-1-2.45-1-5.44-1-5.72-.45-6.06-1-3.74-1-7.56-1c-3.96 0-6.94-.43-6.94-1 0-.58-3.33-1-8-1s-8-.42-8-1c0-.61-4.67-1-12-1s-12-.39-12-1c0-.41-.5-.76-1.2-.92 1-.06 2.36-.08 4.2-.08 4 0 7 .43 7 1 0 .6 3.98 1 9.94 1 5.55 0 10.22.44 10.56 1 .34.55 3.97 1 8.06 1 4.29 0 7.44.42 7.44 1 0 .56 2.67 1 6 1s6 .44 6 1c0 .55 2.45 1 5.44 1s5.72.45 6.06 1 2.39 1 4.56 1 3.94.45 3.94 1 1.8 1 4 1 4 .45 4 1 1.35 1 3 1 3 .45 3 1 1.35 1 3 1 3 .45 3 1 1.35 1 3 1 3 .34 3.01.75c0 .32.62.82 1.49 1.34m-530.64-33.91c.05-.06.1-.12.14-.18.79-1.1 2.24-2 3.22-2s1.78-.45 1.78-1 .9-1 2-1 2-.45 2-1 .9-1 2-1 2-.45 2-1 1.35-1 3-1 3-.45 3-1 .9-1 2-1 2-.45 2-1 1.35-1 3-1 3-.45 3-1 .9-1 2-1 2-.45 2-1 1.35-1 3-1 3-.45 3-1 1.35-1 3-1 3-.45 3-1 1.35-1 3-1 3-.45 3-1 1.8-1 4-1 4-.45 4-1 1.32-1 2.94-1 3.22-.45 3.56-1 3.07-1 6.06-1 5.44-.45 5.44-1 1.8-1 4-1 4-.45 4-1 .9-1 2-1c.86 0 1.35.13 1.63 2H286c-2.75 0-5 .45-5 1s-2 1-4.44 1-4.72.45-5.06 1-2.39 1-4.56 1-3.94.45-3.94 1-1.8 1-4 1-4 .45-4 1-1.35 1-3 1-3 .45-3 1-1.35 1-3 1-3 .45-3 1-1.35 1-3 1-3 .45-3 1-1.35 1-3 1-3 .45-3 1-.9 1-2 1-2 .45-2 1-1.35 1-3 1-3 .45-3 1-.9 1-2 1-2 .45-2 1-.9 1-2 1-2 .45-2 1-.9 1-2 1-2 .45-2 1-.9 1-2 1-2 .45-2 1-.9 1-2 1c-.42 0-.81.07-1.14.18M362 704c1.65 0 3-.45 3-1s.69-1 1.53-1 3.54-2.01 6-4.47c1.14-1.14 1.99-2.02 2.62-2.79-.09.24-.15.53-.15.83 0 2.02-2.41 4.43-4.43 4.43-.86 0-1.57.45-1.57 1s-.9 1-2 1-2 .45-2 1-.9 1-2 1-2 .45-2 1-1.35 1-3 1-3 .45-3 1-1.8 1-4 1-4 .45-4 1c0 .56-2.67 1-6 1s-6 .44-6 1c0 .64-8 1-22 1 7.37-.02 12-.4 12-1 0-.59 3.67-1 9-1s9-.41 9-1c0-.55 2.25-1 5-1s5-.45 5-1 1.35-1 3-1 3-.45 3-1 1.35-1 3-1m-116-20c-.55 0-1 1.35-1 3 0-2.75.45-5 1-5s1-.7 1-1.55c0-1.77 4.36-6.45 6.03-6.45.61 0 1.81-.7 2.66-1.55s2.85-1.81 4.43-2.12c1.58-.32 2.88-.97 2.88-1.45 0-.49 1.35-.88 3-.88s3-.41 3-.9c0-.5 1.62-.9 3.6-.9s4.1-.49 4.7-1.1 3.93-1.1 7.4-1.1h1.3c-2.75 0-5 .45-5 1s-1.8 1-4 1-4 .45-4 1-1.8 1-4 1-4 .45-4 1-1.25 1-2.78 1c-1.63 0-3.37.83-4.22 2-.79 1.1-2.03 2-2.75 2-1.83 0-8.25 6.6-8.25 8.47 0 .84-.45 1.53-1 1.53m53.5 27c.35.57 5.64.98 12.65 1-13.47-.01-21.15-.38-21.15-1 0-.56-2.67-1-6-1s-6-.44-6-1c0-.55-2.25-1-5-1s-5-.45-5-1-1.35-1-3-1-3-.45-3-1-.9-1-2-1-2-.45-2-1c0 .55 1.35 1 3 1s3 .45 3 1 1.32 1 2.94 1 3.22.45 3.56 1 2.62 1 5.06 1 4.44.45 4.44 1c0 .59 3.65 1 8.94 1 4.92 0 9.22.45 9.56 1m41.5-46c0-.55-2.25-1-5-1h3c4.67 0 8 .42 8 1 0 .55 1.8 1 4 1s4 .45 4 1 1.35 1 3 1 3 .45 3 1 .68 1 1.51 1c.79 0 2.31.5 3.48 1.14-1.22-.64-3.17-1.14-4.48-1.14-1.38 0-2.51-.45-2.51-1s-1.35-1-3-1-3-.45-3-1c0-.56-2.67-1-6-1s-6-.44-6-1m34 15.47c0-.85-1.37-2.7-3.19-4.59 2.75 2.7 5.19 5.64 5.19 6.59 0 .84.45 1.53 1 1.53s1 1.35 1 3-.45 3-1 3-1 .9-1 2-.45 2-1 2c-.13 0-.25.04-.36.1 1.25-1.75 1.36-3.17 1.36-6.57 0-3.04-.45-5.53-1-5.53s-1-.69-1-1.53M257.47 702c.84 0 1.53.45 1.53 1 0-.55-.9-1-2-1s-2-.45-2-1-.7-1-1.55-1c-2 0-6.45-4.45-6.45-6.45 0-.85-.45-1.55-1-1.55s-1-2.25-1-5c0 1.65.45 3 1 3s1 .69 1 1.53c0 1.98 8.49 10.47 10.47 10.47M627 688.32v.68c0 6.67-.39 11-1 11-.55 0-1 1.35-1 3s-.45 3-1 3-1 .9-1 2-.45 2-1 2c.55 0 1-1.35 1-3s.45-3 1-3 1-2.25 1-5 .45-5 1-5c.54 0 .97-2.5 1-5.68m-465.34-7.89c.12-.14.23-.28.34-.43.79-1.1 2.06-2 2.82-2s2.64-1.35 4.18-3 3.42-3 4.18-3c.32 0 .74-.16 1.17-.44-.12.14-.24.29-.35.44-.79 1.1-2.06 2-2.82 2s-2.64 1.35-4.18 3-3.42 3-4.18 3c-.32 0-.73.16-1.16.43m-20.21 12.21c.2-.2.39-.42.55-.64.79-1.1 2.24-2 3.22-2s1.78-.45 1.78-1 .68-1 1.51-1c.68 0 1.56-.25 2.51-.66-.27.2-.54.43-.79.66-1.18 1.1-2.84 2-3.69 2s-1.54.45-1.54 1-.8 1-1.78 1c-.51 0-1.16.25-1.77.64m401.95 58.13c7.66.64 18.52 1.13 28.98 1.36-13.8-.05-27.04-.41-28.3-1.09-.18-.09-.41-.19-.68-.27M523 688.44v-.51c0-6.58.45-12.85 1-13.94l1.57-3.11c-.35 1.29-.57 2.66-.57 3.82 0 1.81-.45 3.3-1 3.3-.59 0-.98 4.1-1 10.44M625 677c0-2.75-.45-5-1-5 .55 0 1 1.35 1 3s.45 3 1 3 .92 3.51.99 9.08c-.07-2.89-.49-5.08-.99-5.08-.55 0-1-2.25-1-5M386.32 788.65c-14.07-.53-28.77-1.41-44.82-2.61-5.74-.43-11.23-.9-16.49-1.42 13.92 1.37 29.37 2.39 47.16 3.14 5.59.23 10.71.57 14.15.89M187.68 662.41c.11-.14.22-.27.32-.41.79-1.1 1.93-2 2.52-2s1.56-.3 2.57-.72c-.3.23-.59.47-.86.72-1.18 1.1-2.74 2-3.47 2-.3 0-.68.15-1.08.41m-52.12 34.12c.16-.17.31-.35.44-.53.79-1.1 2.14-2 3-2 .41 0 .94-.21 1.46-.55-.17.18-.32.36-.46.55-.79 1.1-2.14 2-3 2-.41 0-.92.2-1.44.53m40.01-26.01c.16-.16.3-.34.43-.52.79-1.1 2.14-2 3-2 .41 0 .92-.2 1.44-.53-.16.17-.31.35-.44.53-.79 1.1-2.14 2-3 2-.4 0-.91.2-1.43.52m5.99-3.99c.16-.17.31-.35.44-.53.79-1.1 2.14-2 3-2 .4 0 .91-.2 1.42-.52-.15.17-.29.34-.42.52-.79 1.1-2.14 2-3 2-.41 0-.92.2-1.44.53M527 709c0 1.65.45 3 1 3-.55 0-1-.9-1-2s-.45-2-1-2-1-1.55-1-3.44-.45-3.72-1-4.06c.55.34 1 1.72 1 3.06s.45 2.44 1 2.44 1 1.35 1 3m9.26 15.24c-.4-.4-.82-.82-1.26-1.24-2.2-2.11-4-4.55-4-5.42 0-.23-.03-.45-.09-.64l.09.06c1.1.79 2 2.03 2 2.75 0 .69 1.44 2.54 3.26 4.49m-380.64-40c.17-.16.33-.32.49-.49.89-.96 2.26-1.75 3.04-1.75.33 0 .76-.17 1.21-.45q-.195.225-.36.45c-.79 1.1-2.24 2-3.22 2-.44 0-.85.09-1.16.24m313.02 103.45c23.16-1.6 39.83-3.04 60.36-5.21-22.36 2.36-41.98 4.09-60.36 5.21M739 690.92c-.67-.59-1.48-.92-2.37-.92-.76 0-1.63-.38-2.03-.87 1.18.5 2.37.87 3.1.87.68 0 1.24.41 1.3.92M195.62 658c.81-.49 1.37-.96 1.37-1.25.01-.41.81-.75 1.79-.75.64 0 1.49-.39 2.22-.97-.04.54-.92.97-2 .97-1.1 0-2 .45-2 1s-.59 1-1.31 1zm-64.72 70.9c.96.65 1.96 1.1 2.56 1.1.85 0 1.54.45 1.54 1 0-.55-.9-1-2-1s-2-.37-2-.83c0-.08-.03-.17-.1-.27m22.45-42.85c.59-.39 1.17-.83 1.7-1.29-.03.08-.05.16-.05.24 0 .55-.59 1-1.31 1-.1 0-.22.02-.34.05M529.97 716c-.54-.04-.97-.92-.97-2 0-1.1-.45-2-1-2 .55 0 1 .8 1 1.78 0 .64.39 1.49.97 2.22m3.03 33c0-.55-1.32-1-2.94-1 1.62 0 2.94.41 2.94.91 0 .36 1.16.71 3.17 1.04-1.83-.13-3.17-.51-3.17-.95m71.83 1.88c.19-.48 2.52-.88 5.19-.88-2.67 0-5.01.48-5.21 1.06-.03.1-.33.19-.86.27.52-.13.82-.28.88-.45M126.8 726.09c.59.19 1.37.63 2.13 1.2-.22-.12-.45-.25-.68-.37-.44-.23-.94-.51-1.45-.83m-3.48-2.55c.65.42 1.17.84 1.45 1.18-.47-.34-.89-.68-1.21-.97zm92.06 41-.88-.15c-.53-.09-1.04-.21-1.49-.35.6.15 1.37.31 2.37.5m407.83-95.63c-.14.29-.21.66-.21 1.09 0-.46.04-.82.21-1.09"/><path fill="#71c830" d="M543.4 750.77c.27.08.5.18.68.27 1.26.68 14.5 1.04 28.3 1.09 14.38.31 28.01.13 31.57-.8.53-.08.83-.17.86-.27.2-.58 2.54-1.06 5.21-1.06 2.68 0 5.14-.45 5.48-1s2.17-1 4.06-1 3.44-.39 3.44-.88c0-.48 1.24-1.12 2.75-1.43 6.8-1.39 12.33-10.07 7.25-11.4-1.1-.29-2-.92-2-1.41 0-.48-.9-.88-2-.88s-2-.45-2-1-1.35-1-3-1-3-.45-3-1-1.72-1-3.83-1c-.79 0-1.57-.04-2.25-.11.73-.19 1.48-.66 2.09-1.4 3.34-4.03 9.99-17.55 9.99-20.32 0-.97.53-2.3 1.19-2.96.73-.73 1.32-5.67 1.54-12.95.2-6.47.59-12.81.86-14.1l.49-2.35 14.21.52c7.82.28 16.91 1 20.21 1.6s8.92 1.55 12.5 2.11c14.6 2.3 17.84 2.93 25.5 4.98 4.4 1.18 9.12 2.39 10.5 2.7 1.38.3 2.95.86 3.5 1.23.55.38 3.03 1.28 5.5 2 5.5 1.6 14.75 5.84 15.54 7.11.93 1.5 2.19 1.11 2.42-.55.03.3.04.61.04.93 0 2.18-.6 5.32-1.33 7.78-.68 2.07-1.47 3.78-1.91 3.78-.42 0-.76.71-.76 1.58 0 1.64-12.54 14.42-14.16 14.42-.51 0-2.02 1.09-3.35 2.42-1.34 1.33-3.34 2.72-4.46 3.07s-2.03 1.06-2.03 1.58c0 .51-.9.93-2 .93s-2.01.34-2.02.75c0 .41-2.25 1.85-5 3.2-2.74 1.34-4.98 2.81-4.98 3.25s-.68.8-1.51.8c-1.47 0-2.53.42-7.23 2.84-1.23.64-2.91 1.16-3.75 1.16-.83 0-1.51.45-1.51 1s-.59 1-1.31 1-3.18.9-5.45 2c-2.28 1.1-4.81 2-5.63 2s-1.77.45-2.11 1-1.69 1-3 1-2.66.45-3 1-1.72 1-3.06 1-2.44.45-2.44 1-1.35 1-3 1-3 .45-3 1-1.55 1-3.44 1-3.72.45-4.06 1-1.91 1-3.5 1-3.16.45-3.5 1-2.17 1-4.06 1-3.44.45-3.44 1-1.77 1-3.94 1-4.22.45-4.56 1-2.14 1-4 1-3.66.45-4 1-2.36 1-4.5 1-4.16.45-4.5 1-2.39 1-4.56 1-3.94.45-3.94 1-2.16 1-4.8 1-5.23.41-5.75.9c-.89.85-3.31 1.27-15.2 2.65-2.61.31-5.65.96-6.75 1.45-2.02.91-7.6 1.65-19.5 2.57-3.58.28-7.4.92-8.5 1.42s-4.47 1.17-7.5 1.49c-20.53 2.17-37.2 3.61-60.36 5.21-28.6 1.75-54.17 2.04-82.32.96-3.44-.32-8.56-.66-14.15-.89-17.79-.75-33.24-1.77-47.15-3.14h-.01c-7.8-.76-15.11-1.63-22.01-2.61-4.12-.59-9.75-1.3-12.5-1.59-2.75-.28-5.9-.92-7-1.42-1.1-.49-4.25-1.16-7-1.47-2.75-.32-7.25-.84-10-1.15s-5.43-.97-5.95-1.47-2.88-.91-5.25-.91-4.3-.45-4.3-1-1.55-1-3.44-1-3.72-.45-4.06-1-2.36-1-4.5-1-4.16-.45-4.5-1-2.36-1-4.5-1-4.13-.4-4.43-.89-2.13-1.16-4.06-1.5c-1.66-.29-4.22-.73-6.13-1.07-1-.19-1.77-.35-2.37-.5-1.19-.34-2.01-.8-2.01-1.15 0-.49-1.32-.89-2.94-.89s-3.22-.45-3.56-1-1.69-1-3-1-2.66-.45-3-1-1.5-1-2.57-1c-1.08 0-2.74-.42-3.69-.93-.96-.52-3.88-1.52-6.49-2.22-2.61-.71-4.75-1.56-4.75-1.89s-2.25-1.21-5-1.96-5-1.73-5-2.18-1.1-.82-2.44-.82-2.72-.45-3.06-1-1.49-1-2.56-1-1.94-.45-1.94-1-.9-1-2-1-2-.45-2-1-.86-1-1.92-1c-1.05 0-2.06-.34-2.25-.75-.32-.72-6.92-4.54-11.57-6.71-1.24-.57-2.25-1.38-2.25-1.79-.01-.41-.91-.75-2.01-.75s-2-.45-2-1-.69-1-1.54-1c-.6 0-1.6-.45-2.56-1.1-.26-.42-1.02-1.04-1.97-1.61-.76-.57-1.54-1.01-2.13-1.2-.69-.43-1.4-.91-2.03-1.37-.28-.34-.8-.76-1.45-1.18-.82-.69-1.8-1.26-2.48-1.46-1.17-.8-2.32-1.8-3.24-2.75.71.56 1.53 1 2.29 1.15 1.8.34 2.11-.08 2.11-2.83 0-2.36 1.01-4.31 3.75-7.23 3.78-4.03 14.34-12.42 15.63-12.42.39 0 1.25-.46 1.91-1.01 2.13-1.79 8.71-5.95 12.52-7.91 3.04-1.58 11.7-7.75 16.88-12.06.65-.54 2.9-1.95 5-3.12s4.93-2.92 6.31-3.88c19.08-13.32 48.5-26.69 69.45-31.54 3.58-.83 7.69-1.96 9.12-2.51 1.44-.54 6.03-1.7 10.2-2.56 11.99-2.48 13.23-1.1 13.23 14.68 0 9.65-1.23 11.12-11.16 13.38-8.29 1.88-14.5 4.23-17.72 6.7-1.32 1.01-3.04 1.83-3.83 1.83-2.46 0-9.18 7.89-10.32 12.11-1.85 6.86-.36 12.34 4.73 17.43 2.45 2.45 5.06 4.46 5.8 4.46.73 0 1.48.45 1.67 1 .42 1.25 8.47 4.18 16.33 5.95 3.3.74 8.48 2.03 11.5 2.86 3.67 1 11.97 1.65 25 1.94 19.66.45 28.54-.32 40-3.44 3.02-.82 7.45-1.9 9.84-2.39 8.65-1.78 18.16-8.5 21.71-15.35 1.74-3.36 1.9-10.86.29-13.86-2.31-4.32-9.16-10.63-14.19-13.07-6.41-3.12-13.52-5.6-16.15-5.64-3.22-.05-9.76-2.63-12.23-4.82-2.13-1.9-2.27-2.79-2.27-14.38v-1.25c-.01-7.94-.01-11.83 1.94-13.73 1.86-1.83 5.52-1.82 12.69-1.79h1.18c12.76.03 35.82 2.1 44.19 3.97 2.48.55 6.75 1.45 9.5 2 12.55 2.5 25.16 5.75 32 8.26 2.2.8 7.38 2.45 11.5 3.67 8.41 2.46 16.91 5.5 25.25 9.02 7.31 3.08 27.89 8.64 37.16 10.04 6.79 1.02 9.7 1.45 10.67 3.05.73 1.2.37 3.06-.26 6.34l-.03.13c-1.67 8.72-2.08 23.37-.78 28.35 2.7 10.28 3.25 11.62 8.87 21.39 2.91 5.06 3.58 5.71 6.43 5.75h-.81c-1.93 0-3.5.45-3.5 1s-.91 1-2.02 1c-2.81 0-9.98 2.33-9.98 3.24 0 .42-.9.76-2 .76-1.53 0-2 .67-2 2.84 0 3.28 5.72 9.16 8.91 9.16 1.09 0 2.25.45 2.59 1s1.94 1 3.56 1 2.94.45 2.94 1c0 .44 1.34.82 3.17.95 1.8.29 4.28.57 7.23.82m-20.36-58.54c.12 4.61.5 7.98.96 8.27-.54-.33-.85-3.86-.96-8.27M739 690.92v.03c-.72-.59-1.55-.95-2.37-.95.89 0 1.7.33 2.37.92m-623.24 25.47c.04-.11.12-.18.24-.22.55-.19 1-.98 1-1.77 0 .79-.42 1.58-.93 1.77-.14.05-.24.12-.31.22"/><path fill="#7dba55" d="M526.82 667.53c-.47.89-.92 2.09-1.25 3.35l-1.57 3.11c-.55 1.09-1 7.36-1 13.94v1.01c0 1.15.01 2.25.04 3.29v.06c.11 4.38.42 7.88.96 8.21.55.34 1 2.17 1 4.06s.45 3.44 1 3.44 1 .9 1 2 .45 2 1 2 1 .9 1 2c0 1.08.43 1.96.97 2 .28.35.6.67.94.94.06.19.09.41.09.64 0 .87 1.8 3.31 4 5.42.44.42.86.84 1.25 1.23.37.39.74.78 1.13 1.17.98 1.05 1.62 1.83 1.62 2.02 0 .3-1.63.56-3.69.58-2.85-.04-3.52-.69-6.43-5.75-5.62-9.77-6.17-11.11-8.87-21.39-1.3-4.98-.89-19.63.78-28.35l.03-.13c.63-3.28.99-5.14.26-6.34-.97-1.6-3.88-2.03-10.67-3.05-9.27-1.4-29.85-6.96-37.16-10.04-8.34-3.52-16.84-6.56-25.25-9.02-4.12-1.22-9.3-2.87-11.5-3.67-6.84-2.51-19.45-5.76-32-8.26-2.75-.55-7.02-1.45-9.5-2-8.37-1.87-31.43-3.94-44.19-3.97h-1.18c-7.17-.03-10.83-.04-12.69 1.79-1.95 1.9-1.95 5.79-1.94 13.73v1.25c0 11.59.14 12.48 2.27 14.38 2.47 2.19 9.01 4.77 12.23 4.82 2.63.04 9.74 2.52 16.15 5.64 5.03 2.44 11.88 8.75 14.19 13.07 1.61 3 1.45 10.5-.29 13.86-3.55 6.85-13.06 13.57-21.71 15.35-2.39.49-6.82 1.57-9.84 2.39-11.46 3.12-20.34 3.89-40 3.44-13.03-.29-21.33-.94-25-1.94-3.02-.83-8.2-2.12-11.5-2.86-7.86-1.77-15.91-4.7-16.33-5.95-.19-.55-.94-1-1.67-1-.74 0-3.35-2.01-5.8-4.46-5.09-5.09-6.58-10.57-4.73-17.43 1.14-4.22 7.86-12.11 10.32-12.11.79 0 2.51-.82 3.83-1.83 3.22-2.47 9.43-4.82 17.72-6.7 9.93-2.26 11.16-3.73 11.16-13.38 0-15.78-1.24-17.16-13.23-14.68-4.17.86-8.76 2.02-10.2 2.56-1.43.55-5.54 1.68-9.12 2.51-20.95 4.85-50.37 18.22-69.45 31.54-1.38.96-4.21 2.71-6.31 3.88s-4.35 2.58-5 3.12c-5.18 4.31-13.84 10.48-16.88 12.06-3.81 1.96-10.39 6.12-12.52 7.91-.66.55-1.52 1.01-1.91 1.01-1.29 0-11.85 8.39-15.63 12.42-2.74 2.92-3.75 4.87-3.75 7.23 0 2.75-.31 3.17-2.11 2.83-.76-.15-1.58-.59-2.29-1.15-1.21-1.26-2.01-2.44-1.84-2.94.07-.1.17-.17.31-.22.51-.19.93-.98.93-1.77 0-1.79 12.49-14.4 14.26-14.4.71 0 1.95-.9 2.74-2 .13-.18.28-.36.44-.53.39-.25.78-.57 1.12-.94.52-.33 1.03-.53 1.44-.53.86 0 2.21-.9 3-2 .14-.19.29-.37.46-.55.34-.22.69-.5.99-.81.61-.39 1.26-.64 1.77-.64.98 0 1.78-.45 1.78-1s.69-1 1.54-1 2.51-.9 3.69-2c.25-.23.52-.46.79-.66.75-.34 1.55-.78 2.33-1.29.12-.03.24-.05.34-.05.72 0 1.31-.45 1.31-1 0-.08.02-.16.05-.24.2-.17.39-.34.57-.52.31-.15.72-.24 1.16-.24.98 0 2.43-.9 3.22-2q.165-.225.36-.45c.44-.28.9-.67 1.3-1.12.43-.27.84-.43 1.16-.43.76 0 2.64-1.35 4.18-3s3.42-3 4.18-3 2.03-.9 2.82-2c.11-.15.23-.3.35-.44.42-.26.85-.62 1.22-1.04.52-.32 1.03-.52 1.43-.52.86 0 2.21-.9 3-2 .13-.18.28-.36.44-.53.39-.25.78-.57 1.12-.94.52-.33 1.03-.53 1.44-.53.86 0 2.21-.9 3-2 .13-.18.27-.35.42-.52.44-.28.88-.65 1.26-1.07.4-.26.78-.41 1.08-.41.73 0 2.29-.9 3.47-2 .27-.25.56-.49.86-.72.89-.37 1.81-.83 2.53-1.28h.07c.72 0 1.31-.45 1.31-1s.9-1 2-1c1.08 0 1.96-.43 2-.97.32-.25.62-.54.86-.85.33-.11.72-.18 1.14-.18 1.1 0 2-.45 2-1s.9-1 2-1 2-.45 2-1 .9-1 2-1 2-.45 2-1 .9-1 2-1 2-.45 2-1 .9-1 2-1 2-.45 2-1 1.35-1 3-1 3-.45 3-1 .9-1 2-1 2-.45 2-1 1.35-1 3-1 3-.45 3-1 1.35-1 3-1 3-.45 3-1 1.35-1 3-1 3-.45 3-1 1.35-1 3-1 3-.45 3-1 1.8-1 4-1 4-.45 4-1 1.77-1 3.94-1 4.22-.45 4.56-1 2.62-1 5.06-1 4.44-.45 4.44-1 2.25-1 5-1h4.63c.35 2.32.37 7.3.37 18v20h-6.3c-3.47 0-6.8.49-7.4 1.1s-2.72 1.1-4.7 1.1-3.6.4-3.6.9c0 .49-1.35.9-3 .9s-3 .39-3 .88c0 .48-1.3 1.13-2.88 1.45-1.58.31-3.58 1.27-4.43 2.12s-2.05 1.55-2.66 1.55c-1.67 0-6.03 4.68-6.03 6.45 0 .85-.45 1.55-1 1.55s-1 2.25-1 5 .45 5 1 5 1 .7 1 1.55c0 2 4.45 6.45 6.45 6.45.85 0 1.55.45 1.55 1s.9 1 2 1 2 .45 2 1 .9 1 2 1 2 .45 2 1 1.35 1 3 1 3 .45 3 1 2.25 1 5 1 5 .45 5 1c0 .56 2.67 1 6 1s6 .44 6 1c0 .62 7.68.99 21.15 1h.85c14 0 22-.36 22-1 0-.56 2.67-1 6-1s6-.44 6-1c0-.55 1.8-1 4-1s4-.45 4-1 1.35-1 3-1 3-.45 3-1 .9-1 2-1 2-.45 2-1 .9-1 2-1 2-.45 2-1 .71-1 1.57-1c2.02 0 4.43-2.41 4.43-4.43 0-.3.06-.59.15-.83.18-.22.35-.43.49-.64.11-.06.23-.1.36-.1.55 0 1-.9 1-2s.45-2 1-2 1-1.35 1-3-.45-3-1-3-1-.69-1-1.53c0-.95-2.44-3.89-5.19-6.59-1.74-1.8-3.89-3.64-5.61-4.63-.07-.04-.13-.08-.21-.11-1.17-.64-2.69-1.14-3.48-1.14-.83 0-1.51-.45-1.51-1s-1.35-1-3-1-3-.45-3-1-1.8-1-4-1-4-.45-4-1c0-.58-3.33-1-8-1h-8v-42h21c13.33 0 21 .37 21 1 0 .59 3.67 1 9 1s9 .41 9 1c0 .55 2.22 1 4.94 1s5.22.45 5.56 1 2.62 1 5.06 1 4.44.45 4.44 1 1.8 1 4 1 4 .45 4 1 1.8 1 4 1 4 .45 4 1 1.35 1 3 1 3 .45 3 1 1.35 1 3 1 3 .45 3 1 1.55 1 3.44 1 3.72.45 4.06 1 2.17 1 4.06 1 3.44.45 3.44 1 .67 1 1.5 1 1.5.45 1.5 1 1.35 1 3 1 3 .45 3 1 1.35 1 3 1 3 .45 3 1 .9 1 2 1 2 .45 2 1 1.35 1 3 1 3 .45 3 1 1.32 1 2.94 1 3.22.45 3.56 1 2.17 1 4.06 1 3.44.45 3.44 1 1.8 1 4 1 4 .45 4 1 2 1 4.44 1 4.72.45 5.06 1 3.74 1 7.56 1c3.96 0 6.94.43 6.94 1 0 .55.9 1 2 1s2 .45 2 1-.45 1-1 1-1 .91-1 2.01c0 .43-.07.96-.18 1.52m205.68 20.56c.61.36 1.35.73 2.1 1.04.4.49 1.27.87 2.03.87.82 0 1.65.36 2.37.95v.05c0 .31.29.6.75.78.65.95 1.08 2.23 1.21 3.73-.23 1.66-1.49 2.05-2.42.55-.79-1.27-10.04-5.51-15.54-7.11-2.47-.72-4.95-1.62-5.5-2-.55-.37-2.12-.93-3.5-1.23-1.38-.31-6.1-1.52-10.5-2.7-7.66-2.05-10.9-2.68-25.5-4.98-3.58-.56-9.2-1.51-12.5-2.11s-12.39-1.32-20.21-1.6l-14.21-.52-.49 2.35c-.27 1.29-.66 7.63-.86 14.1-.22 7.28-.81 12.22-1.54 12.95-.66.66-1.19 1.99-1.19 2.96 0 2.77-6.65 16.29-9.99 20.32-.61.74-1.36 1.21-2.09 1.4-1.13-.11-2-.3-2.21-.52-.84-.83 2.1-6.45 4.44-8.49 1.02-.89 1.85-2.35 1.85-3.25 0-.89.45-1.63 1-1.63s1-.9 1-2 .45-2 1-2 1-.9 1-2 .45-2 1-2 1-1.35 1-3 .45-3 1-3c.61 0 1-4.33 1-11v-1c0-.31 0-.62-.01-.92-.07-5.57-.44-9.08-.99-9.08s-1-1.35-1-3-.45-3-1-3-1-.9-1-2c0-.43.07-.8.21-1.09.31-.49 1.01-.72 2.59-.83.7.16 1.2.51 1.2.92 0 .61 4.67 1 12 1s12 .39 12 1c0 .58 3.33 1 8 1s8 .42 8 1c0 .57 2.98 1 6.94 1 3.82 0 7.22.45 7.56 1s3.07 1 6.06 1 5.44.45 5.44 1 1.77 1 3.94 1 4.22.45 4.56 1 2.36 1 4.5 1 4.16.45 4.5 1 1.94 1 3.56 1 2.94.45 2.94 1 1.35 1 3 1 3 .45 3 1 1.35 1 3 1 3 .45 3 1 1.1 1 2.44 1c.36 0 .72.03 1.06.09M591.85 247.9c-.92-1.24-2.38-1.9-4.28-1.9-1.41 0-2.57-.45-2.57-1s-.9-1-2-1-2-.45-2-1-1.8-1-4-1-4-.45-4-1-1.35-1-3-1-3-.45-3-1-.9-1-2-1-2-.45-2-1-1.8-1-4-1-4-.45-4-1-1.35-1-3-1-3-.45-3-1-1.35-1-3-1-3-.45-3-1-1.35-1-3-1-3-.45-3-1-1.35-1-3-1-3-.45-3-1-1.35-1-3-1-3-.45-3-1-1.35-1-3-1-3-.45-3-1-.9-1-2-1-2-.45-2-1-1.8-1-4-1-4-.45-4-1-1.35-1-3-1-3-.45-3-1-1.35-1-3-1-3-.45-3-1-1.35-1-3-1-3-.45-3-1-1.35-1-3-1-3-.45-3-1-1.35-1-3-1-3-.45-3-1-.9-1-2-1-2-.45-2-1c0 .55 1.35 1 3 1s3 .45 3 1 1.35 1 3 1 3 .45 3 1 1.35 1 3 1 3 .45 3 1 1.35 1 3 1 3 .45 3 1 1.35 1 3 1 3 .45 3 1 1.35 1 3 1 3 .45 3 1 1.35 1 3 1 3 .45 3 1 1.35 1 3 1 3 .45 3 1 1.35 1 3 1 3 .45 3 1 1.35 1 3 1 3 .45 3 1 1.35 1 3 1 3 .45 3 1 1.35 1 3 1 3 .45 3 1 1.35 1 3 1 3 .45 3 1 1.35 1 3 1 3 .45 3 1 1.35 1 3 1 3 .45 3 1 1.35 1 3 1 3 .45 3 1 1.35 1 3 1 3 .45 3 1 1.35 1 3 1 3 .45 3 1 1.35 1 3 1 3 .45 3 1 .71 1 1.57 1c1.32 0 2.48.72 3.28 1.9M430.97 832H430c-20.67 0-32-.35-32-1 0-.63-6.5-1-17.5-1s-17.5-.37-17.5-1c0-.61-4.5-1-11.5-1s-11.5-.39-11.5-1c0-.59-3.5-1-8.5-1s-8.5-.41-8.5-1c0-.58-3.33-1-8-1s-8-.42-8-1c0-.56-2.67-1-6-1s-6-.44-6-1c0-.55-2.02-1-4.5-1s-4.5-.45-4.5-1c0 .56 2.67 1 6 1s6 .44 6 1c0 .55 2.48 1 5.5 1s5.5.45 5.5 1c0 .58 3.33 1 8 1s8 .42 8 1c0 .59 3.67 1 9 1s9 .41 9 1c0 .61 4.67 1 12 1s12 .39 12 1c0 .64 8.33 1 23 1s23 .36 23 1c0 .62 6.62.99 17.97 1M219 803c0 .55 1.8 1 4 1s4 .45 4 1 1.35 1 3 1 3 .45 3 1 1.8 1 4 1 4 .45 4 1 1.8 1 4 1 4 .45 4 1 1.8 1 4 1 4 .45 4 1 2.25 1 5 1 5 .45 5 1 1.8 1 4 1 4 .45 4 1c0-.55-2.25-1-5-1s-5-.45-5-1-2.25-1-5-1-5-.45-5-1-1.8-1-4-1-4-.45-4-1-1.8-1-4-1-4-.45-4-1-1.35-1-3-1-3-.45-3-1-1.8-1-4-1-4-.45-4-1-1.35-1-3-1-3-.45-3-1-1.8-1-4-1-4-.45-4-1-1.35-1-3-1-3-.45-3-1-1.35-1-3-1-3-.45-3-1-1.35-1-3-1-3-.45-3-1-.9-1-2-1-2-.45-2-1-1.35-1-3-1-3-.45-3-1-.9-1-2-1-2-.45-2-1-1.35-1-3-1-3-.45-3-1-.9-1-2-1-2-.45-2-1-.9-1-2-1-2-.45-2-1c0 .55 1.04 1 2.3 1 1.14 0 2.72.4 4.16.94.01.02.03.04.04.06.26.42 1.12.78 2.11.93.83.47 1.38.95 1.38 1.32.01.41.91.75 2.01.75s2 .45 2 1 1.35 1 3 1 3 .45 3 1 .9 1 2 1 2 .45 2 1 1.35 1 3 1 3 .45 3 1 1.35 1 3 1 3 .45 3 1 1.35 1 3 1 3 .45 3 1 1.35 1 3 1 3 .45 3 1 1.35 1 3 1 3 .45 3 1m84-376.57c0 215.09.26 270.95 1.25 272.07.84.96 3.46 1.44 8 1.46l6.75.04h-16ZM462 831c0 .61-10.11.96-28.63 1 10.52-.04 16.63-.4 16.63-1 0-.63 7.17-1 19.5-1s19.5-.37 19.5-1c0-.62 5.33-1 14-1s14-.38 14-1c0-.6 4-1 10-1s10-.4 10-1c0-.59 3.5-1 8.5-1s8.5-.41 8.5-1c0 .58-3.17 1-7.5 1s-7.5.42-7.5 1c0 .59-3.67 1-9 1s-9 .41-9 1c0 .62-5 1-13 1s-13 .38-13 1c0 .63-6.17 1-16.5 1s-16.5.37-16.5 1m-53.73-215.06q-1.095-.225-2.61-.45c-.42-.14-.66-.31-.66-.49 0-.56-2.67-1-6-1s-6-.44-6-1c0-.58-3.17-1-7.5-1s-7.5-.42-7.5-1c0-.64-8.5-1-23.5-1H331V477c0 111.46.21 130.35 1.43 131.57 1.15 1.16 5.84 1.43 24.5 1.43 14.71 0 23.07.36 23.07 1 0 .58 3.17 1 7.5 1s7.5.42 7.5 1c0 .56 2.67 1 6 1s6 .44 6 1c0 .55 2.25 1 5 1s5 .45 5 1 1.8 1 4 1 4 .45 4 1 1.35 1 3 1 3 .45 3 1c0-.55-1.8-1-4-1s-4-.45-4-1-1.8-1-4-1-4-.45-4-1-2.25-1-5-1c-.61 0-1.19-.02-1.73-.06M705 787c0 .55-.9 1-2 1s-2 .45-2 1-1.35 1-3 1-3 .45-3 1-1.35 1-3 1-3 .45-3 1-1.35 1-3 1-3 .45-3 1-1.35 1-3 1-3 .45-3 1-1.8 1-4 1-4 .45-4 1-1.35 1-3 1-3 .45-3 1-1.8 1-4 1-4 .45-4 1c0-.55 1.35-1 3-1s3-.45 3-1 1.8-1 4-1 4-.45 4-1 1.35-1 3-1 3-.45 3-1 1.35-1 3-1 3-.45 3-1 1.35-1 3-1 3-.45 3-1 1.35-1 3-1 3-.45 3-1 1.35-1 3-1 3-.45 3-1 1.35-1 3-1 3-.45 3-1 .9-1 2-1 2-.45 2-1 .9-1 2-1 2-.45 2-1 1.35-1 3-1 3-.45 3-1c0 .55-.9 1-2 1s-2 .45-2 1-.9 1-2 1-2 .45-2 1-1.35 1-3 1-3 .45-3 1m44-104.03c-.04-.54-.92-.97-2-.97-1.1 0-2-.45-2-1s-.9-1-2-1-2-.45-2-1-.9-1-2-1-2-.45-2-1-1.35-1-3-1-3-.45-3-1-.9-1-2-1-2-.45-2-1-1.8-1-4-1-4-.45-4-1-1.35-1-3-1-3-.45-3-1-1.8-1-4-1-4-.45-4-1-2.25-1-5-1-5-.45-5-1-2.03-1-4.5-1-4.5-.45-4.5-1c0 .55 2.47 1 5.5 1s5.5.45 5.5 1 2.25 1 5 1 5 .45 5 1 1.8 1 4 1 4 .45 4 1 1.35 1 3 1 3 .45 3 1 1.35 1 3 1 3 .45 3 1 1.35 1 3 1 3 .45 3 1 .9 1 2 1 2 .45 2 1 1.35 1 3 1 3 .45 3 1 .9 1 2 1 2 .45 2 1 .8 1 1.78 1 2.43.9 3.22 2c.04.06.09.12.13.18-.32-.11-.71-.18-1.13-.18s-.81-.07-1.14-.18c-.24-.31-.54-.6-.86-.85m-173.16-34.96c2.93.07 5.16.48 5.16.99 0 .55 1.8 1 4 1s4 .45 4 1 .9 1 2 1 2 .45 2 1v.03c-.9-.63-2.09-1.03-3.22-1.03-1.53 0-2.78-.45-2.78-1 0-.62-5-1-13-1s-13 .38-13 1c0-.55 1.8-1 4-1s4-.45 4-1 2.57-.98 5.83-1c.34 0 .68 0 1.01.01m188.63 46.47c-4.36-4.37-8.97-8.48-9.96-8.48-.78 0-1.44-.4-1.5-.91.64.55 1.33.91 1.81.91.76 0 2.64 1.35 4.18 3s3.31 3 3.93 3c1.58 0 8.07 6.64 8.07 8.25 0 .72.9 1.96 2 2.75s2 2.24 2 3.22.45 1.78 1 1.78 1.01 1.69 1.03 3.75.69 4.62 1.5 5.69c-.81-1.07-1.48-3.18-1.5-4.69S776.55 710 776 710s-1-.9-1-2-.45-2-1-2c-.3-.37-.6-.7-.93-.95-.04-.17-.07-.36-.07-.56 0-.69-1.99-3.13-4.67-6.02a79 79 0 0 0-3.86-3.99m-656.85 45.03c.27.42.61.83.98 1.17.25.39.4.77.4 1.05 0 .68 3 4.09 6.71 7.93 1.13 1.19 2.35 2.43 3.53 3.58 4.62 4.57 9.23 8.76 10.03 8.76.71 0 1.94.9 2.73 2 .11.15.22.29.34.43-.42-.27-.83-.43-1.14-.43-.75 0-3.07-1.78-5.16-3.96-2.1-2.18-4.4-4.09-5.12-4.25-1.8-.4-7.92-6.46-7.92-7.86 0-.62-1.35-2.39-3-3.93s-3-3.52-3-4.4c0-.24-.03-.47-.09-.67.03.02.06.05.09.07.22.16.42.33.62.51M560.5 822c3.67 0 6.5-.44 6.5-1s2.67-1 6-1 6-.44 6-1 2.67-1 6-1 6-.44 6-1c0-.55 2.25-1 5-1s5-.45 5-1 2.25-1 5-1 5-.45 5-1 2.25-1 5-1 5-.45 5-1 2.45-1 5.44-1 5.72-.45 6.06-1c-.34.55-2.62 1-5.06 1s-4.44.45-4.44 1-2.25 1-5 1-5 .45-5 1-2.25 1-5 1-5 .45-5 1-2.25 1-5 1-5 .45-5 1c0 .56-2.67 1-6 1s-6 .44-6 1-2.67 1-6 1-6 .44-6 1c0 .58-3.17 1-7.5 1s-7.49.42-7.5 1c.01-.57 2.84-1 6.5-1M442 308c-1.65 0-3 .45-3 1 0-.55.9-1 2-1s2-.45 2-1 1.35-1 3-1 3-.45 3-1 1.35-1 3-1 3-.45 3-1 1.35-1 3-1 3-.45 3-1 1.35-1 3-1 3-.45 3-1 1.35-1 3-1 3-.45 3-1 1.35-1 3-1 3-.45 3-1c0 .55-.9 1-2 1s-2 .45-2 1-1.35 1-3 1-3 .45-3 1-1.35 1-3 1-3 .45-3 1-1.35 1-3 1-3 .45-3 1-1.35 1-3 1-3 .45-3 1-1.35 1-3 1-3 .45-3 1-1.35 1-3 1m157.9 335.87c-.25-.33-.56-.64-.9-.9-.04-.54-.92-.97-2-.97-1.1 0-2-.45-2-1s-.9-1-2-1-2-.45-2-1-2.25-1-5-1-5-.45-5-1c0-.57-3-1-7-1s-7 .43-7 1c0 .55-1.8 1-4 1s-4 .45-4 1-1.35 1-3 1-3 .45-3 1c0-.55.9-1 2-1s2-.45 2-1 1.8-1 4-1 4-.45 4-1c0-.59 3.67-1 9-1s9 .41 9 1c0 .55 2.25 1 5 1s5 .45 5 1 .9 1 2 1 2 .45 2 1 .8 1 1.78 1 2.43.9 3.22 2c.16.22.33.43.52.62-.6-.38-1.24-.62-1.74-.62-.32 0-.62-.05-.88-.13M105.97 708c-.58.73-.97 1.58-.97 2.22 0 .98-.45 1.78-1 1.78-.6 0-1 4-1 10s.4 10 1 10c.55 0 1 1.25 1 2.78 0 1.13.4 2.32 1.03 3.22H106c-.55 0-1-.9-1-2s-.45-2-1-2-1-1.8-1-4-.45-4-1-4-1-1.8-1-4 .45-4 1-4 1-1.35 1-3 .45-3 1-3 1-.9 1-2c0-1.08.43-1.96.97-2m229.2-364.08c1.07-.15 1.83-.51 1.83-.92 0-.55 1.8-1 4-1s4-.45 4-1 .9-1 2-1 2-.45 2-1 1.35-1 3-1 3-.45 3-1 1.35-1 3-1 3-.45 3-1 1.35-1 3-1 3-.45 3-1 1.35-1 3-1 3-.45 3-1c0 .55-.9 1-2 1s-2 .45-2 1-1.35 1-3 1-3 .45-3 1-1.35 1-3 1-3 .45-3 1-1.35 1-3 1-3 .45-3 1-1.35 1-3 1-3 .45-3 1-1.35 1-3 1-3 .45-3 1-1.16 1-2.57 1c-.46 0-.87-.05-1.26-.08M368 172c1.65 0 3 .45 3 1 0-.55-1.8-1-4-1s-4-.45-4-1-1.35-1-3-1-3-.45-3-1-1.35-1-3-1-3-.45-3-1-1.35-1-3-1-3-.45-3-1-1.35-1-3-1-3-.45-3-1-.9-1-2-1-2-.45-2-1c0 .55 1.35 1 3 1s3 .45 3 1 1.35 1 3 1 3 .45 3 1 1.35 1 3 1 3 .45 3 1 1.35 1 3 1 3 .45 3 1 1.35 1 3 1 3 .45 3 1 1.35 1 3 1m198 94c-1.65 0-3 .45-3 1 0-.55.9-1 2-1s2-.45 2-1 1.35-1 3-1 3-.45 3-1 1.35-1 3-1 3-.45 3-1 1.35-1 3-1 3-.45 3-1 1.16-1 2.57-1c1.9 0 3.36-.66 4.28-1.9-.8 1.18-1.96 1.9-3.28 1.9-.86 0-1.57.45-1.57 1s-1.35 1-3 1-3 .45-3 1-1.35 1-3 1-3 .45-3 1-1.35 1-3 1-3 .45-3 1-1.35 1-3 1m114.5 396c3.02 0 5.5.45 5.5 1 0-.56-2.84-1-6.5-1-3.67 0-6.5-.44-6.5-1 0-.58-3.33-1-8-1s-8-.42-8-1c0-.61-4.67-1-12-1s-12-.39-12-1c0-.59-3.53-1-8.58-1h2.02c6.37 0 10.56.4 10.56 1 0 .61 4.33 1 11 1s11 .39 11 1c0 .58 3.33 1 8 1s8 .42 8 1c0 .55 2.47 1 5.5 1m-70.47 46H610c-.42 0-.78.39-.93.95-.02.01-.05.03-.07.05-.06.04-.12.09-.18.13.11-.32.18-.71.18-1.13 0-1.1.45-2 1-2s1-.9 1-2 .45-2 1-2 1-1.35 1-3 .45-3 1-3c.57 0 1-3 1-7s-.43-7-1-7c-.55 0-1-1.8-1-4s-.45-4-1-4-1-.8-1-1.78c0-.64-.39-1.49-.97-2.22.54.04.97.92.97 2 0 1.1.45 2 1 2s1 1.35 1 3 .45 3 1 3c.59 0 1 3.67 1 9s-.41 9-1 9c-.55 0-1 1.35-1 3s-.45 3-1 3-1 .8-1 1.78c0 .64-.39 1.49-.97 2.22m-69.78-39.99c.27 0 .5-.3.64-.73.41-.46.87-.93 1.36-1.4 1.51-1.48 2.75-3.21 2.75-3.85 0-.57.33-1.25.82-1.88.22-.23.44-.45.66-.67.16-.17.33-.33.5-.49.73-.59 1.55-.99 2.23-.99.74 0 2-.9 2.79-2s2.24-2 3.22-2 1.78-.45 1.78-1c0 .55-.68 1-1.52 1-1.83 0-14.48 12.44-14.48 14.24 0 .7-.9 1.84-2 2.53-.64.4-1.1.88-1.41 1.56.52-1.4 1.4-2.82 2.66-4.32M533.3 650h-.52c-4.52 0-7.78-.42-7.78-1 0-.56-2.67-1-6-1s-6-.44-6-1c0-.55-1.8-1-4-1s-4-.45-4-1-2.25-1-5-1-5-.45-5-1-1.35-1-3-1-3-.45-3-1c0 .55 1.8 1 4 1s4 .45 4 1 1.8 1 4 1 4 .45 4 1 2.25 1 5 1 5 .45 5 1c0 .56 2.83 1 6.5 1s6.5.44 6.5 1c0 .54 2.37.98 5.3 1M272 616c2.75 0 5-.45 5-1 0 .55-1.8 1-4 1s-4 .45-4 1-1.8 1-4 1-4 .45-4 1-1.8 1-4 1-4 .45-4 1-1.8 1-4 1-4 .45-4 1c0-.55 1.35-1 3-1s3-.45 3-1 1.8-1 4-1 4-.45 4-1 1.8-1 4-1 4-.45 4-1 2.25-1 5-1m197 18c1.1 0 2 .45 2 1 0-.55-1.35-1-3-1s-3-.45-3-1-.9-1-2-1-2-.45-2-1-1.35-1-3-1-3-.45-3-1-1.12-1-2.5-1-2.5-.45-2.5-1-1.58-1-3.5-1-3.5-.45-3.5-1-1.35-1-3-1-3-.45-3-1c0 .55 1.8 1 4 1s4 .45 4 1 1.12 1 2.5 1 2.5.45 2.5 1 1.58 1 3.5 1 3.5.45 3.5 1 .9 1 2 1 2 .45 2 1 1.35 1 3 1 3 .45 3 1 .9 1 2 1m66.14 61.7c.17 2.69.47 4.3.86 4.3.55 0 1 .9 1 2s.45 2 1 2 1 .9 1 2 .45 2 1 2 1 .68 1 1.52c0 1.85 10.44 12.48 12.26 12.48.71 0 1.95.9 2.74 2 .02.02.04.05.05.07a2.5 2.5 0 0 0-.57-.07c-.83 0-4.88-3.37-9-7.48-4.11-4.12-7.48-8.17-7.48-9 0-.84-.45-1.52-1-1.52s-1-1.35-1-3-.47-3-1.04-3c-.41 0-.69-1.5-.82-4.3M331.05 393.26c.11-48.92.52-49.26 1.95-49.26h1.1c-2.29.78-2.9 7.15-3.05 49.26M561 727c0-.55-.9-1-2-1s-2-.45-2-1v-.03c.9.63 2.09 1.03 3.22 1.03 1.53 0 2.78.45 2.78 1 0 .61 4.33 1 11 1s11-.39 11-1c0-.55 1.1-1 2.44-1 .36 0 .72-.03 1.06-.09-.87.52-1.49 1.02-1.49 1.34-.01.41-5.86.75-13.01.75-8 0-13-.38-13-1m-331-99c1.65 0 3-.45 3-1 0 .55-.9 1-2 1s-2 .45-2 1-1.35 1-3 1-3 .45-3 1-.9 1-2 1-2 .45-2 1-1.35 1-3 1-3 .45-3 1c0-.55.9-1 2-1s2-.45 2-1 1.35-1 3-1 3-.45 3-1 .9-1 2-1 2-.45 2-1 1.35-1 3-1m162-448c1.65 0 3 .45 3 1 0-.55-1.8-1-4-1s-4-.45-4-1-1.35-1-3-1-3-.45-3-1-.9-1-2-1-2-.45-2-1c0 .55 1.35 1 3 1s3 .45 3 1 1.35 1 3 1 3 .45 3 1 1.35 1 3 1m355.63 584.45c.44-.28.86-.45 1.19-.45.76 0 2.64-1.35 4.18-3s3.31-3 3.92-3c.69 0 3.48-2.44 6.4-5.31-3.76 3.78-7.64 7.31-8.4 7.31-.62 0-2.38 1.35-3.92 3s-3.52 3-4.4 3c-.24 0-.46.03-.67.09a.6.6 0 0 0 .07-.09c.16-.22.33-.43.52-.63.4-.25.79-.57 1.11-.92M331 155c0 3.49.17 4.6 1.15 4.9-.94-.28-1.15-1.24-1.15-3.9 0-2.2-.45-4-1-4s-1-1.14-1-2.53-1.43-3.69-3.19-5.68c1.74 1.79 3.19 3.73 3.19 4.68 0 .84.45 1.53 1 1.53s1 2.25 1 5m444 582.78c0 .98-.9 2.43-2 3.22 1.17-.85 2-2.59 2-4.22 0-1.53.45-2.78 1-2.78s1-1.3 1-2.89c0-1.04.26-2.02.66-2.68-.43.76-.66 2-.66 3.68 0 2.14-.45 3.89-1 3.89s-1 .8-1 1.78m-233.43-89.25c-.29.18-.57.4-.84.65-1.12.61-2.93.79-6.74.82 2.8-.05 5.01-.48 5.01-1 0-.55.8-1 1.78-1 .51 0 1.16-.25 1.77-.64-.2.2-.39.42-.55.64-.14.19-.28.37-.43.53M410 186c1.65 0 3 .45 3 1 0-.55-1.8-1-4-1s-4-.45-4-1-.9-1-2-1-2-.45-2-1c0 .55 1.35 1 3 1s3 .45 3 1 1.35 1 3 1m48 16c1.65 0 3 .45 3 1 0-.55-1.8-1-4-1s-4-.45-4-1-.9-1-2-1-2-.45-2-1c0 .55 1.35 1 3 1s3 .45 3 1 1.35 1 3 1m79.17 471.76c-.12.74-.17 1.64-.17 2.75 0 2.47-.45 4.49-1 4.49-.32 0-.59 1.13-.77 3.06.2-3.59.53-6.06.88-6.06.49 0 .89-1.13.89-2.51 0-.58.06-1.15.17-1.73m73.88-22.7c-1.82-1.75-3.61-3.06-4.25-3.06-.75 0-2.01-.9-2.8-2-.11-.15-.22-.29-.35-.43.42.27.82.43 1.14.43.73 0 3.53 2.25 6.21 5Zm-63.6-6.42c-.35.23-.69.51-.99.81-.52.34-1.05.55-1.46.55s-.94.21-1.46.55c.17-.18.32-.36.46-.55.79-1.1 2.24-2 3.22-2 .32 0 .62-.05.88-.13-.04.04-.07.09-.1.13-.16.22-.35.44-.55.64m-397.91 29.91c-.34.22-.69.5-.99.81-.61.39-1.26.64-1.77.64-.32 0-.62.05-.88.13.04-.04.07-.09.1-.13.79-1.1 2.14-2 3-2 .4 0 .91-.2 1.43-.52-.16.16-.3.34-.43.52-.14.19-.29.37-.46.55m-13.1 91.98c.34.37.73.69 1.12.94.16.17.31.35.44.53.03.04.06.09.1.13-.26-.08-.56-.13-.88-.13-.98 0-2.43-.9-3.22-2a5 5 0 0 0-.42-.52c.51.32 1.02.52 1.42.52.41 0 .92.2 1.44.53m600.14 4.8c.3-.19.58-.42.84-.66.62-.41 1.28-.67 1.8-.67.32 0 .62-.05.88-.13-.04.04-.07.09-.1.13-.79 1.1-2.24 2-3.22 2-.32 0-.62.05-.88.13.04-.04.07-.09.1-.13.17-.23.37-.46.58-.67M188.1 647.87c-.04.04-.07.09-.1.13-.17.23-.37.46-.58.67-.3.19-.58.42-.84.66-.62.41-1.28.67-1.8.67-.32 0-.62.05-.88.13.04-.04.07-.09.1-.13.79-1.1 2.24-2 3.22-2 .32 0 .62-.05.88-.13m-31.32 21.36c-1.5 1.54-3.24 2.77-3.96 2.77-.32 0-.74.16-1.17.44.12-.14.24-.29.35-.44.79-1.1 2.14-2 3-2 .5 0 1.16-.3 1.78-.77m439.16 52.85c.02-.03.04-.05.06-.08.79-1.1 2.03-2 2.75-2 .78 0 2.4-1.21 4-2.73-2.46 2.44-5.26 4.73-6.22 4.73-.21 0-.41.03-.59.08m-481.96-24.07c-2.65 2.7-4.98 5.45-4.98 6.25 0 .71-.9 1.95-2 2.74-.02.02-.05.04-.07.05.04-.17.07-.37.07-.57 0-.97 3.45-4.94 6.98-8.47m495.09-28.96a.3.3 0 0 1-.07-.05c-1.1-.79-2-2.03-2-2.75 0-.69-1.42-2.52-3.21-4.44 2.84 2.95 5.21 5.81 5.21 6.67 0 .2.03.4.07.57m-7.88-9.84c-1.92-1.79-3.75-3.21-4.44-3.21-.72 0-1.96-.9-2.75-2-.02-.03-.04-.05-.06-.07.18.04.38.07.58.07.86 0 3.72 2.37 6.67 5.21m-430.53.14c-1.46 1.49-3.14 2.65-3.84 2.65-.4 0-.94.25-1.48.65 1.46-1.49 3.14-2.65 3.84-2.65.4 0 .94-.25 1.48-.65m-6.63 4.61-.03.04c-.79 1.1-2.06 2-2.82 2-.6 0-1.92.86-3.21 2.04.01-.02.02-.03.03-.04.79-1.1 2.06-2 2.82-2 .6 0 1.92-.86 3.21-2.04m426.57 60.91c.41-.49 1.37-.87 2.24-.87.62 0 1.44-.39 2.16-.96-.03.53-.6.96-1.3.96-.73 0-1.92.37-3.1.87m150.4 44.1c.03-.54.82-.97 1.78-.97.64 0 1.49-.39 2.22-.97-.03.54-.82.97-1.78.97-.64 0-1.49.39-2.22.97M176.46 655.45c-.03.04-.06.07-.09.1-.44.28-.86.45-1.19.45-.6 0-1.92.86-3.21 2.04l.03-.04c.79-1.1 2.14-2 3-2 .41 0 .94-.21 1.46-.55m6.54-4.39c-.06.52-.84.94-1.78.94-.98 0-2.43.9-3.22 2-.16.22-.33.43-.52.63l-.03.01c.2-.2.39-.42.55-.64.79-1.1 2.14-2 3-2 .55 0 1.31-.38 2-.94m-38 26c-.06.52-.84.94-1.78.94-.98 0-2.43.9-3.22 2 .79-1.1 2.14-2 3-2 .55 0 1.31-.38 2-.94M551.22 642c-.64 0-1.49.39-2.22.97.04-.54.92-.97 2-.97 1.1 0 2-.45 2-1 0 .55-.8 1-1.78 1M191 646c1.1 0 2-.45 2-1 0 .55-.8 1-1.78 1-.64 0-1.49.39-2.22.97.04-.54.92-.97 2-.97m542 128c-1.1 0-2 .45-2 1 0-.55.8-1 1.78-1 .64 0 1.49-.39 2.22-.97-.04.54-.92.97-2 .97m-590.54-3.45.12.12c-.62-.41-1.28-.67-1.8-.67-.94 0-1.72-.42-1.78-.94.69.56 1.45.94 2 .94.41 0 .94.21 1.46.55m465.44-60.54c-.54.62-.9 1.28-.9 1.74 0 .49-.63 1.47-1.59 2.63.94-1.18 1.59-2.25 1.59-2.85 0-.79.4-1.45.9-1.52m-464.48 61.32.03.03c.2.2.39.41.55.64-.17-.23-.37-.46-.58-.67M614.2 654.29l-.01-.01-.31-.32Z"/><path fill="#bce8f8" d="M0 0h932v958H0Zm616 656c-.52-.73-1.21-1.36-1.8-1.71l-.31-.33h-.01L612 652c-.31-.33-.63-.64-.95-.94L611 651c-2.68-2.75-5.48-5-6.21-5-.32 0-.72-.16-1.14-.43-.33-.36-.72-.69-1.13-.95-.19-.19-.36-.4-.52-.62-.79-1.1-2.24-2-3.22-2s-1.78-.45-1.78-1-.9-1-2-1-2-.45-2-1-2.25-1-5-1-5-.45-5-1c0-.59-3.67-1-9-1s-9 .41-9 1c0 .55-1.8 1-4 1s-4 .45-4 1-.9 1-2 1-2 .45-2 1-.9 1-2 1c-1.08 0-1.96.43-2 .97-.33.26-.65.57-.9.9-.26.08-.56.13-.88.13-.98 0-2.43.9-3.22 2-.14.19-.29.37-.46.55-.34.22-.69.5-.99.81-.61.39-1.26.64-1.77.64-.98 0-1.78.45-1.78 1 0 .52-2.21.95-5.01 1h-.69c-2.93-.02-5.3-.46-5.3-1 0-.56-2.83-1-6.5-1s-6.5-.44-6.5-1c0-.55-2.25-1-5-1s-5-.45-5-1-1.8-1-4-1-4-.45-4-1-1.8-1-4-1-4-.45-4-1-1.35-1-3-1-3-.45-3-1-1.35-1-3-1-3-.45-3-1-1.35-1-3-1-3-.45-3-1-.9-1-2-1-2-.45-2-1-1.35-1-3-1-3-.45-3-1-.9-1-2-1-2-.45-2-1-1.58-1-3.5-1-3.5-.45-3.5-1-1.12-1-2.5-1-2.5-.45-2.5-1-1.8-1-4-1-4-.45-4-1-1.35-1-3-1-3-.45-3-1-1.35-1-3-1-3-.45-3-1-1.8-1-4-1-4-.45-4-1-2.25-1-5-1-5-.45-5-1c0-.56-2.67-1-6-1s-6-.44-6-1c0-.58-3.17-1-7.5-1s-7.5-.42-7.5-1c0-.64-8.36-1-23.07-1-18.66 0-23.35-.27-24.5-1.43-1.22-1.22-1.43-20.11-1.43-131.57 0-37.48 0-64.4.05-83.74.15-42.11.76-48.48 3.05-49.26.38 0 .74-.03 1.07-.08.39.03.8.08 1.26.08 1.41 0 2.57-.45 2.57-1s1.35-1 3-1 3-.45 3-1 1.35-1 3-1 3-.45 3-1 1.35-1 3-1 3-.45 3-1 1.35-1 3-1 3-.45 3-1 1.35-1 3-1 3-.45 3-1 .9-1 2-1 2-.45 2-1 1.35-1 3-1 3-.45 3-1 1.35-1 3-1 3-.45 3-1 1.35-1 3-1 3-.45 3-1 1.35-1 3-1 3-.45 3-1 1.35-1 3-1 3-.45 3-1 1.35-1 3-1 3-.45 3-1 1.35-1 3-1 3-.45 3-1 1.35-1 3-1 3-.45 3-1 1.35-1 3-1 3-.45 3-1 1.35-1 3-1 3-.45 3-1 1.35-1 3-1 3-.45 3-1 1.35-1 3-1 3-.45 3-1 1.35-1 3-1 3-.45 3-1 1.35-1 3-1 3-.45 3-1 1.35-1 3-1 3-.45 3-1 1.35-1 3-1 3-.45 3-1 1.35-1 3-1 3-.45 3-1 .9-1 2-1 2-.45 2-1 1.35-1 3-1 3-.45 3-1 1.35-1 3-1 3-.45 3-1 1.35-1 3-1 3-.45 3-1 1.35-1 3-1 3-.45 3-1 1.35-1 3-1 3-.45 3-1 1.35-1 3-1 3-.45 3-1 1.35-1 3-1 3-.45 3-1 1.35-1 3-1 3-.45 3-1 1.35-1 3-1 3-.45 3-1 1.35-1 3-1 3-.45 3-1 1.35-1 3-1 3-.45 3-1 1.35-1 3-1 3-.45 3-1 1.35-1 3-1 3-.45 3-1 1.35-1 3-1 3-.45 3-1 1.35-1 3-1 3-.45 3-1 1.35-1 3-1 3-.45 3-1 1.35-1 3-1 3-.45 3-1 1.35-1 3-1 3-.45 3-1 .71-1 1.57-1c1.32 0 2.48-.72 3.28-1.9.75-1 1.15-2.39 1.15-4.1s-.4-3.1-1.15-4.1c-.8-1.18-1.96-1.9-3.28-1.9-.86 0-1.57-.45-1.57-1s-1.35-1-3-1-3-.45-3-1-1.35-1-3-1-3-.45-3-1-1.35-1-3-1-3-.45-3-1-1.35-1-3-1-3-.45-3-1-1.35-1-3-1-3-.45-3-1-1.35-1-3-1-3-.45-3-1-1.35-1-3-1-3-.45-3-1-1.35-1-3-1-3-.45-3-1-1.35-1-3-1-3-.45-3-1-1.35-1-3-1-3-.45-3-1-1.35-1-3-1-3-.45-3-1-1.35-1-3-1-3-.45-3-1-1.35-1-3-1-3-.45-3-1-1.35-1-3-1-3-.45-3-1-1.35-1-3-1-3-.45-3-1-1.35-1-3-1-3-.45-3-1-1.35-1-3-1-3-.45-3-1-1.35-1-3-1-3-.45-3-1-1.35-1-3-1-3-.45-3-1-1.35-1-3-1-3-.45-3-1-1.35-1-3-1-3-.45-3-1-1.35-1-3-1-3-.45-3-1-1.35-1-3-1-3-.45-3-1-1.35-1-3-1-3-.45-3-1-1.35-1-3-1-3-.45-3-1-1.35-1-3-1-3-.45-3-1-1.35-1-3-1-3-.45-3-1-1.35-1-3-1-3-.45-3-1-1.35-1-3-1-3-.45-3-1-1.35-1-3-1-3-.45-3-1-1.35-1-3-1-3-.45-3-1-1.35-1-3-1-3-.45-3-1-1.35-1-3-1-3-.45-3-1-1.35-1-3-1-3-.45-3-1-1.35-1-3-1-3-.45-3-1-1.35-1-3-1-3-.45-3-1-1.35-1-3-1-3-.45-3-1-1.35-1-3-1-3-.45-3-1-1.35-1-3-1-3-.45-3-1-1.35-1-3-1-3-.45-3-1-1.35-1-3-1-3-.45-3-1-1.35-1-3-1-3-.45-3-1-.9-1-2-1c-.34 0-.62-.03-.85-.1-.98-.3-1.15-1.41-1.15-4.9 0-2.75-.45-5-1-5s-1-.69-1-1.53c0-.95-1.45-2.89-3.19-4.68-1.82-2.06-3.99-3.79-5.28-3.79-.84 0-1.53-.45-1.53-1 0-.58-3.33-1-8-1s-8 .42-8 1c0 .55-.7 1-1.55 1-2 0-6.45 4.45-6.45 6.45 0 .85-.45 1.55-1 1.55s-1 .9-1 2-.45 2-1 2c-.66 0-1 77.15-1 229.47V385c0 194.57-.21 226.35-1.43 227.57-.89.9-3.5 1.43-7 1.43-3.06 0-5.57.45-5.57 1s-2.25 1-5 1-5 .45-5 1-1.8 1-4 1-4 .45-4 1-1.8 1-4 1-4 .45-4 1-1.35 1-3 1-3 .45-3 1-1.35 1-3 1-3 .45-3 1-1.35 1-3 1-3 .45-3 1-1.35 1-3 1-3 .45-3 1-.9 1-2 1-2 .45-2 1-1.35 1-3 1-3 .45-3 1-.9 1-2 1-2 .45-2 1-.9 1-2 1-2 .45-2 1-.9 1-2 1-2 .45-2 1-.9 1-2 1-2 .45-2 1-.9 1-2 1-2 .45-2 1-.9 1-2 1-2 .45-2 1-.9 1-2 1c-1.08 0-1.96.43-2 .97-.33.26-.65.57-.9.9-.26.08-.56.13-.88.13-.98 0-2.43.9-3.22 2-.03.04-.06.09-.1.13-.54.17-.9.5-.9.87-.69.62-1.45 1-2 1-.86 0-2.21.9-3 2-.16.22-.35.44-.55.64-.35.23-.69.51-.99.81-.52.34-1.05.55-1.46.55-.86 0-2.21.9-3 2l-.03.04c-.33.3-.66.62-.97.96-.11.12-.22.23-.34.35-.54.4-1.08.65-1.48.65-.7 0-2.38 1.16-3.84 2.65-.47.35-.94.81-1.31 1.31-1.29 1.18-2.61 2.04-3.21 2.04-.76 0-2.03.9-2.82 2-.01.01-.02.02-.03.04-.33.3-.66.62-.97.96-.07.08-.15.16-.22.23-.62.47-1.28.77-1.78.77-.86 0-2.21.9-3 2-.11.15-.23.3-.35.44-.42.26-.85.62-1.22 1.04-.52.32-1.03.52-1.43.52-.86 0-2.21.9-3 2-.03.04-.06.09-.1.13-.54.17-.9.5-.9.87-.69.62-1.45 1-2 1-.86 0-2.21.9-3 2-.17.23-.37.46-.58.67-.3.19-.58.42-.84.66-.62.41-1.28.67-1.8.67-.98 0-1.78.45-1.78 1s-.8 1-1.78 1-2.43.9-3.22 2c-.16.22-.35.44-.55.64-.35.23-.69.51-.99.81-.52.34-1.05.55-1.46.55-.86 0-2.21.9-3 2s-2.03 2-2.74 2c-.9 0-4.29 2.97-7.28 6.01-3.53 3.53-6.98 7.5-6.98 8.47 0 .2-.03.4-.07.57-.35.27-.68.6-.96.95-.54.04-.97.92-.97 2 0 1.1-.45 2-1 2s-1 1.35-1 3-.45 3-1 3-1 1.8-1 4 .45 4 1 4 1 1.8 1 4 .45 4 1 4 1 .9 1 2 .45 2 1 2h.03c.26.36.56.68.88.93.06.2.09.43.09.67 0 .88 1.35 2.86 3 4.4s3 3.31 3 3.93c0 1.4 6.12 7.46 7.92 7.86.72.16 3.02 2.07 5.12 4.25 2.09 2.18 4.41 3.96 5.16 3.96.31 0 .72.16 1.14.43.37.41.8.77 1.24 1.05.15.16.29.34.42.52.79 1.1 2.24 2 3.22 2 .32 0 .62.05.88.13.26.34.57.66.9.93.06.52.84.94 1.78.94.52 0 1.18.26 1.8.67.26.24.54.47.84.66.21.21.41.44.58.67.79 1.1 2.24 2 3.22 2s1.78.45 1.78 1 .9 1 2 1 2 .45 2 1 .9 1 2 1 2 .45 2 1 .9 1 2 1 2 .45 2 1 .9 1 2 1 2 .45 2 1 .9 1 2 1 2 .45 2 1 .9 1 2 1 2 .45 2 1 1.35 1 3 1 3 .45 3 1 .9 1 2 1 2 .45 2 1 1.35 1 3 1 3 .45 3 1 .9 1 2 1 2 .45 2 1 1.35 1 3 1 3 .45 3 1 1.35 1 3 1 3 .45 3 1 1.35 1 3 1 3 .45 3 1 1.8 1 4 1 4 .45 4 1 1.35 1 3 1 3 .45 3 1 1.8 1 4 1 4 .45 4 1 1.35 1 3 1 3 .45 3 1 1.8 1 4 1 4 .45 4 1 1.8 1 4 1 4 .45 4 1 2.25 1 5 1 5 .45 5 1 2.25 1 5 1 5 .45 5 1 2.48 1 5.5 1 5.5.45 5.5 1 2.02 1 4.5 1 4.5.45 4.5 1c0 .56 2.67 1 6 1s6 .44 6 1c0 .58 3.33 1 8 1s8 .42 8 1c0 .59 3.5 1 8.5 1s8.5.41 8.5 1c0 .61 4.5 1 11.5 1s11.5.39 11.5 1c0 .63 6.5 1 17.5 1s17.5.37 17.5 1c0 .65 11.33 1 32 1h3.37c18.53-.04 28.63-.39 28.63-1 0-.63 6.17-1 16.5-1s16.5-.37 16.5-1c0-.62 5-1 13-1s13-.38 13-1c0-.59 3.67-1 9-1s9-.41 9-1c0-.58 3.17-1 7.5-1s7.5-.42 7.5-1c.01-.58 3.17-1 7.5-1s7.5-.42 7.5-1c0-.56 2.67-1 6-1s6-.44 6-1 2.67-1 6-1 6-.44 6-1c0-.55 2.25-1 5-1s5-.45 5-1 2.25-1 5-1 5-.45 5-1 2.25-1 5-1 5-.45 5-1 2-1 4.44-1 4.72-.45 5.06-1 1.94-1 3.56-1 2.94-.45 2.94-1 1.8-1 4-1 4-.45 4-1 1.8-1 4-1 4-.45 4-1 1.8-1 4-1 4-.45 4-1 1.35-1 3-1 3-.45 3-1 1.8-1 4-1 4-.45 4-1 1.35-1 3-1 3-.45 3-1 1.35-1 3-1 3-.45 3-1 1.35-1 3-1 3-.45 3-1 1.35-1 3-1 3-.45 3-1 .9-1 2-1 2-.45 2-1 1.35-1 3-1 3-.45 3-1 .9-1 2-1 2-.45 2-1 .9-1 2-1 2-.45 2-1 .9-1 2-1 2-.45 2-1 .9-1 2-1 2-.45 2-1 .9-1 2-1 2-.45 2-1 .9-1 2-1c1.08 0 1.96-.43 2-.97.33-.26.65-.57.9-.9.26-.08.56-.13.88-.13.98 0 2.43-.9 3.22-2 .03-.04.06-.09.1-.13.54-.17.9-.5.9-.87v-.03c.73-.58 1.58-.97 2.22-.97.96 0 1.75-.43 1.78-.97.35-.28.67-.6.93-.94.21-.06.43-.09.67-.09.88 0 2.86-1.35 4.4-3s3.3-3 3.92-3c.76 0 4.64-3.53 8.4-7.31 3.74-3.68 7.68-8.06 7.68-8.95 0-.71.9-1.95 2-2.74s2-2.24 2-3.22.45-1.78 1-1.78 1-1.75 1-3.89c0-1.68.23-2.92.66-3.68.24-.39.52-.67.84-.79 1.97-.76 1.99-7.61.03-10.2-.81-1.07-1.48-3.63-1.5-5.69S776.55 708 776 708s-1-.8-1-1.78-.9-2.43-2-3.22-2-2.03-2-2.75c0-1.61-6.49-8.25-8.07-8.25-.62 0-2.39-1.35-3.93-3s-3.42-3-4.18-3c-.48 0-1.17-.36-1.81-.91-.01-.03-.01-.06-.01-.09 0-.34-.34-.64-.87-.82-.04-.06-.09-.12-.13-.18-.79-1.1-2.24-2-3.22-2s-1.78-.45-1.78-1-.9-1-2-1-2-.45-2-1-1.35-1-3-1-3-.45-3-1-.9-1-2-1-2-.45-2-1-1.35-1-3-1-3-.45-3-1-1.35-1-3-1-3-.45-3-1-1.35-1-3-1-3-.45-3-1-1.8-1-4-1-4-.45-4-1-2.25-1-5-1-5-.45-5-1-2.47-1-5.5-1-5.5-.45-5.5-1-2.48-1-5.5-1c-3.03 0-5.5-.45-5.5-1 0-.58-3.33-1-8-1s-8-.42-8-1c0-.61-4.33-1-11-1s-11-.39-11-1c0-.6-4.19-1-10.56-1ZM303 426.43V319.51c.02-104.67.16-144.96 1.05-160.33.73 11.97.95 80.32.95 269.02V698h14v2l-6.75-.04c-4.54-.02-7.16-.5-8-1.46-.99-1.12-1.25-56.98-1.25-272.07m304.25 272.05c-2.7 1.08-11.25 1.51-11.25.57 0-.47 1.35-3.57 3-6.89 1.65-3.33 3-6.9 3-7.95s.86-2.89 1.91-4.11l1.91-2.2 1.59 2.27c2.38 3.4 2.26 17.35-.16 18.31M402 832.9c5.75 1.05 50.26 1.22 53.5.21 2.01-.63-6.92-.92-27-.89-16.5.02-28.42.33-26.5.68m-90.43-682.86c1.77.15 3.51.95 4.98 2.41l2.45 2.46V427c0-180-.34-271-1-271-.55 0-1-.9-1-2 0-1.33-.67-2-2-2-1.1 0-2-.45-2-1 0-.45-.6-.83-1.43-.96M612 674c.55 0 1 1.8 1 4s.45 4 1 4c.57 0 1 3 1 7s-.43 7-1 7c-.55 0-1 1.35-1 3s-.45 3-1 3c.62 0 1-5 1-13s-.38-13-1-13c-.55 0-1-.9-1-2s-.45-2-1-2-1-.9-1-2c0-.42-.07-.81-.18-1.13.06.04.12.09.18.13.02.02.05.04.07.05.15.56.51.95.93.95h.03c.58.73.97 1.58.97 2.22 0 .98.45 1.78 1 1.78m-16.06 48.08c-.55.15-.94.5-.94.92v.04c-.72.57-1.54.96-2.16.96-.49 0-1 .12-1.43.31.13-.1.25-.21.36-.31 1.18-1.1 2.62-2 3.21-2 1.65 0 14.02-12.78 14.02-14.48 0-.84.45-1.52 1-1.52-.55 0-1 .9-1 2 0 .42-.07.81-.18 1.13-.33.27-.65.57-.92.88-.5.07-.9.73-.9 1.52 0 .6-.65 1.67-1.59 2.85-.74.9-1.67 1.91-2.66 2.89-1.6 1.52-3.22 2.73-4 2.73-.72 0-1.96.9-2.75 2-.02.03-.04.05-.06.08m-1.81-67.9c-.32-.11-.71-.18-1.13-.18-1.1 0-2-.45-2-1s-1.35-1-3-1-3-.45-3-1c0-.61-4.33-1-11-1s-11 .39-11 1c0 .55-1.25 1-2.78 1-1.13 0-2.32.4-3.22 1.03V653c0-.55.9-1 2-1s2-.45 2-1c0-.62 5-1 13-1s13 .38 13 1c0 .55 1.25 1 2.78 1 1.13 0 2.32.4 3.22 1.03.02.41.41.75.94.9.1.13.15.19.19.25M565 727c0 .58 3.79.98 9.53 1H574c-6.67 0-11-.39-11-1 0-.55-1.25-1-2.78-1-1.13 0-2.32-.4-3.22-1.03-.02-.41-.41-.75-.95-.9a.3.3 0 0 0-.05-.07c-.04-.06-.09-.12-.13-.18.32.11.71.18 1.13.18 1.1 0 2 .45 2 1s1.35 1 3 1 3 .45 3 1m-27.83-53.24c.1-.47.24-.95.42-1.43.31-.68.77-1.16 1.41-1.56.1-.07.21-.14.31-.21-.19.37-.31.88-.31 1.44 0 1.1-.45 2-1 2s-1 1.58-1 3.5-.45 3.5-1 3.5c.55 0 1-2.02 1-4.49 0-1.11.05-2.01.17-2.75M304.29 155.83c.08-.98.18-1.8.27-2.49l.89-.89c1.47-1.46 3.21-2.26 4.98-2.41-.83.13-1.43.51-1.43.96 0 .55-.9 1-2 1-1.33 0-2 .67-2 2 0 .81-.29 1.51-.71 1.83m230.77 536.79c.13 3.28.48 5.38.94 5.38.55 0 1 1.35 1 3s.45 3 1 3c-.55 0-1-.9-1-2s-.45-2-1-2c-.39 0-.69-1.61-.86-4.3-.04-.89-.07-1.92-.08-3.08m5.86 16.32c.03.02.05.04.08.06 1.1.79 2 2.03 2 2.75 0 .78 1.6 2.79 3.56 4.83-2.88-2.92-5.56-6.12-5.56-7.06 0-.2-.03-.4-.08-.58m15.14-55.01c-.02.02-.04.04-.06.07-.79 1.1-2.03 2-2.74 2-.77 0-3.08 1.9-5.49 4.23 3.33-3.25 6.81-6.23 7.71-6.23.2 0 .4-.03.58-.07m-10.08 8.09c-2.65 2.75-4.98 5.58-4.98 6.46 0 .84-.45 1.52-1 1.52.58-.6 1-1.28 1-1.76 0-.76 2.24-3.41 4.98-6.22m57.44-.59c.12.12.24.25.37.38 1.79 1.92 3.21 3.75 3.21 4.44 0 .46.36 1.12.9 1.74-.5-.07-.9-.73-.9-1.52 0-.86-1.61-2.95-3.58-5.04m-2.23-2.22c.13.13.26.25.38.37-2.09-1.97-4.18-3.58-5.04-3.58-.79 0-1.45-.4-1.52-.9.62.54 1.28.9 1.74.9.69 0 2.52 1.42 4.44 3.21m-52.17 59.74c1.91 1.72 3.71 3.05 4.45 3.05.79 0 1.45.4 1.52.9-.62-.54-1.28-.9-1.73-.9-.64 0-2.32-1.29-4.24-3.05M539 705.78c0 .64.39 1.49.97 2.22-.54-.04-.97-.92-.97-2 0-1.1-.45-2-1-2 .55 0 1 .8 1 1.78m49.91 19.9c-.14.08-.28.15-.41.23-.34.06-.7.09-1.06.09-1.34 0-2.44.45-2.44 1 0-.55 1.04-1 2.31-1 .46 0 1.02-.12 1.6-.32"/><path fill="#e9f4f8" d="M311.57 150.04c.83.13 1.43.51 1.43.96 0 .55.9 1 2 1 1.33 0 2 .67 2 2 0 1.1.45 2 1 2 .66 0 1 91 1 271v271h-14V428.2c0-188.7-.22-257.05-.95-269.02.07-1.28.15-2.39.24-3.35.42-.32.71-1.02.71-1.83 0-1.33.67-2 2-2 1.1 0 2-.45 2-1 0-.45.6-.83 1.43-.96q.57-.045 1.14 0M590.6 724.87c-.59.24-1.17.52-1.69.81-.58.2-1.14.32-1.6.32-1.27 0-2.31.45-2.31 1 0 .59-4.11.98-10.47 1-5.74-.02-9.53-.42-9.53-1 0-.55-1.35-1-3-1s-3-.45-3-1-.9-1-2-1c-.42 0-.81-.07-1.13-.18-.27-.34-.57-.65-.88-.92-.07-.5-.73-.9-1.52-.9-.74 0-2.54-1.33-4.45-3.05a88 88 0 0 1-2.46-2.37c-1.96-2.04-3.56-4.05-3.56-4.83 0-.72-.9-1.96-2-2.75-.03-.02-.05-.04-.08-.06-.15-.55-.5-.94-.92-.94h-.03c-.58-.73-.97-1.58-.97-2.22 0-.98-.45-1.78-1-1.78s-1-1.35-1-3-.45-3-1-3c-.46 0-.81-2.1-.94-5.38-.01-1.09-.01-2.3.01-3.62.02-1.77.08-3.45.16-4.94.18-1.93.45-3.06.77-3.06.55 0 1-1.58 1-3.5s.45-3.5 1-3.5 1-.9 1-2c0-.56.12-1.07.31-1.44.23-.17.46-.36.66-.56h.03c.55 0 1-.68 1-1.52 0-.88 2.33-3.71 4.98-6.46.58-.59 1.18-1.2 1.79-1.79l.01-.01c2.4-2.33 4.71-4.22 5.48-4.22.71 0 1.95-.9 2.74-2 .02-.03.04-.05.06-.07.53-.15.92-.49.94-.9.9-.63 2.09-1.03 3.22-1.03 1.53 0 2.78-.45 2.78-1 0-.61 4.33-1 11-1s11 .39 11 1c0 .55 1.35 1 3 1s3 .45 3 1 .9 1 2 1c.42 0 .81.07 1.13.18.27.33.57.65.88.92.07.5.73.9 1.52.9.86 0 2.95 1.61 5.04 3.58.62.61 1.24 1.23 1.85 1.85 1.97 2.09 3.58 4.18 3.58 5.04 0 .79.4 1.45.9 1.52.27.31.59.61.92.88.11.32.18.71.18 1.13 0 1.1.45 2 1 2s1 .9 1 2 .45 2 1 2c.62 0 1 5 1 13s-.38 13-1 13c-.55 0-1 .9-1 2s-.45 2-1 2-1 .68-1 1.52c0 1.7-12.37 14.48-14.02 14.48-.59 0-2.03.9-3.21 2-.11.1-.23.21-.36.31-.34.15-.63.34-.81.56m16.65-26.39c2.42-.96 2.54-14.91.16-18.31l-1.59-2.27-1.91 2.2c-1.05 1.22-1.91 3.06-1.91 4.11s-1.35 4.62-3 7.95c-1.65 3.32-3 6.42-3 6.89 0 .94 8.55.51 11.25-.57M402 832.9c-1.92-.35 10-.66 26.5-.68 20.08-.03 29.01.26 27 .89-3.24 1.01-47.75.84-53.5-.21"/><path fill="#ec6049" d="M332.75 330.19c-1.65-.32-1.75-4.84-1.75-78.26V174h3c1.65 0 3 .45 3 1s1.35 1 3 1 3 .45 3 1 1.35 1 3 1 3 .45 3 1 1.35 1 3 1 3 .45 3 1 1.55 1 3.44 1 3.72.45 4.06 1 1.49 1 2.56 1 1.94.45 1.94 1 1.35 1 3 1 3 .45 3 1 1.35 1 3 1 3 .45 3 1 1.55 1 3.44 1 3.72.45 4.06 1 1.49 1 2.56 1 1.94.45 1.94 1 1.35 1 3 1 3 .45 3 1 1.35 1 3 1 3 .45 3 1 1.35 1 3 1 3 .45 3 1 1.35 1 3 1 3 .45 3 1 1.35 1 3 1 3 .45 3 1 1.35 1 3 1 3 .45 3 1 1.35 1 3 1 3 .45 3 1 1.35 1 3 1 3 .45 3 1 1.35 1 3 1 3 .45 3 1 1.35 1 3 1 3 .45 3 1 1.35 1 3 1 3 .45 3 1 1.35 1 3 1 3 .45 3 1 1.35 1 3 1 3 .45 3 1 1.35 1 3 1 3 .45 3 1 1.55 1 3.44 1 3.72.45 4.06 1 1.49 1 2.56 1 1.94.45 1.94 1 1.35 1 3 1 3 .45 3 1 1.58 1 3.5 1 3.5.45 3.5 1 1.32 1 2.94 1 3.22.45 3.56 1 1.49 1 2.56 1 1.94.45 1.94 1 1.35 1 3 1 3 .45 3 1 1.35 1 3 1 3 .45 3 1 1.55 1 3.44 1 3.72.45 4.06 1 1.72 1 3.06 1 2.44.45 2.44 1 1.35 1 3 1 3 .45 3 1 1.12 1 2.5 1 2.5.45 2.5 1 1.35 1 3 1 3 .45 3 1 1.35 1 3 1 3 .45 3 1 .71 1 1.57 1c1.52 0 4.43 2.26 4.43 3.43 0 .31-1.35.57-3 .57s-3 .45-3 1-1.35 1-3 1-3 .45-3 1-.87 1-1.94 1-2.22.45-2.56 1-2.17 1-4.06 1-3.44.45-3.44 1-1.35 1-3 1-3 .45-3 1-1.35 1-3 1-3 .45-3 1-.9 1-2 1-2 .45-2 1-1.35 1-3 1-3 .45-3 1-1.35 1-3 1-3 .45-3 1-1.35 1-3 1-3 .45-3 1-1.35 1-3 1-3 .45-3 1-1.35 1-3 1-3 .45-3 1-1.35 1-3 1-3 .45-3 1-1.35 1-3 1-3 .45-3 1-1.35 1-3 1-3 .45-3 1-1.35 1-3 1-3 .45-3 1-1.35 1-3 1-3 .45-3 1-1.35 1-3 1-3 .45-3 1-1.35 1-3 1-3 .45-3 1-1.35 1-3 1-3 .45-3 1-1.35 1-3 1-3 .45-3 1-.87 1-1.94 1-2.22.45-2.56 1-1.69 1-3 1-2.66.45-3 1-2.17 1-4.06 1-3.44.45-3.44 1-1.35 1-3 1-3 .45-3 1-.9 1-2 1-2 .45-2 1-1.35 1-3 1-3 .45-3 1-1.35 1-3 1-3 .45-3 1-1.35 1-3 1-3 .45-3 1-1.35 1-3 1-3 .45-3 1-1.35 1-3 1-3 .45-3 1-1.35 1-3 1-3 .45-3 1-1.35 1-3 1-3 .45-3 1-1.35 1-3 1-3 .45-3 1-1.35 1-3 1-3 .45-3 1-1.35 1-3 1-3 .45-3 1-1.35 1-3 1-3 .45-3 1-1.35 1-3 1-3 .4-3 .89c0 .98-5.47 1.84-8.25 1.3"/></g></svg>