<svg xmlns="http://www.w3.org/2000/svg" width="82" height="84" fill="none" viewBox="0 0 82 84"><path fill="#daedf7" stroke="#daedf7" stroke-miterlimit="10" d="M41 81.432c22.091 0 40-17.909 40-40s-17.909-40-40-40-40 17.909-40 40 17.909 40 40 40Z"/><path fill="#87898c" d="M15.241 53.506v25.161h6.71l.766-17.615a1.752 1.752 0 0 1 3.5 0l.766 17.615h6.71V53.506z"/><path fill="#45413c" d="m21.088 59.727 3.38-2.028 3.426 2.056a1.83 1.83 0 0 0 1.6.136l4.2-1.632v-4.753H15.241v4.472l4.166 1.852a1.83 1.83 0 0 0 1.681-.103"/><path stroke="#45413c" stroke-linecap="round" stroke-linejoin="round" d="M15.241 53.506v25.161h6.71l.766-17.615a1.752 1.752 0 0 1 3.5 0l.766 17.615h6.71V53.506z"/><path fill="#87898c" d="M9.372 43.861c.008.678.087 1.354.237 2.015a15.086 15.086 0 0 1 29.606-.6c.227-.871.345-1.768.35-2.668a15.1 15.1 0 1 0-30.193 0z"/><path fill="#87898c" d="M39.565 42.603a15.1 15.1 0 1 0-30.193 0v1.258a9.66 9.66 0 0 0 5.869 8.874v.771h18.453v-1.237a10.9 10.9 0 0 0 5.871-9.666"/><path stroke="#45413c" stroke-linecap="round" stroke-linejoin="round" d="M39.565 42.603a15.1 15.1 0 1 0-30.193 0v1.258a9.66 9.66 0 0 0 5.869 8.874v.771h18.453v-1.237a10.9 10.9 0 0 0 5.871-9.666"/><path fill="#45413c" d="M24.479 83c7.72 0 13.978-.939 13.978-2.097s-6.258-2.097-13.978-2.097-13.978.939-13.978 2.097S16.759 83 24.479 83" opacity=".15"/><path fill="#45413c" stroke="#45413c" stroke-linecap="round" stroke-linejoin="round" d="M14.192 77.339a1.4 1.4 0 0 0 1.168 2.166h5.724a1.4 1.4 0 0 0 1.24-2.043c-1.524-2.927-6.39-2.765-8.132-.123M34.742 77.339a1.4 1.4 0 0 1-1.168 2.166H27.85a1.4 1.4 0 0 1-1.24-2.043c1.527-2.927 6.39-2.765 8.132-.123"/><path fill="#bf8256" stroke="#45413c" stroke-linecap="round" stroke-linejoin="round" d="M73.01 70.036H43.981a1 1 0 0 0-1 1v1.955H74.01v-1.955a1 1 0 0 0-1-1M72.531 67.816a.74.74 0 0 0-.738-.738H45.2a.74.74 0 0 0-.739.738v2.22h28.07z"/><path fill="#fff" stroke="#45413c" stroke-linecap="round" stroke-linejoin="round" d="m33.694 55.183-5.871 1.678-3.355-1.678-3.355 1.678-5.871-1.678v-1.677h18.452z"/><path stroke="#45413c" stroke-linecap="round" stroke-linejoin="round" d="M33.694 52.269V40.925"/><path fill="#fff" stroke="#45413c" stroke-linecap="round" stroke-linejoin="round" d="m24.467 49.316 5.953-20.587a15.1 15.1 0 0 0-11.906 0z"/><path fill="#ffcebf" stroke="#45413c" stroke-linecap="round" stroke-linejoin="round" d="M27.587 28.729a8.93 8.93 0 0 1-6.23 0l.007-3.679h6.23z"/><path stroke="#45413c" stroke-linecap="round" stroke-linejoin="round" d="M24.468 29.052v26.131M24.467 49.316 18.514 28.73a15.1 15.1 0 0 0-4.722 3.2l3.965 3.965v4.194zM24.467 49.316 30.42 28.73a15.1 15.1 0 0 1 4.722 3.2l-3.965 3.965v4.194z"/><path fill="#45413c" stroke="#45413c" stroke-linecap="round" stroke-linejoin="round" d="m24.468 29.051-3.836-1.973a.724.724 0 0 0-1.056.645v2.657a.724.724 0 0 0 1.056.645zM24.468 29.051l3.837-1.973a.725.725 0 0 1 1.056.645v2.657a.725.725 0 0 1-1.056.645z"/><path fill="#fff" stroke="#45413c" stroke-linecap="round" stroke-linejoin="round" d="M27.823 52.667a2.516 2.516 0 0 0 0-5.032h-2.516v5.032z"/><path stroke="#45413c" stroke-linecap="round" stroke-linejoin="round" d="M15.242 52.735a9.6 9.6 0 0 0 3.775.771h6.29v-5.871h-6.29a3.78 3.78 0 0 1-3.775-3.774v-2.936"/><path fill="#fff" stroke="#45413c" stroke-linecap="round" stroke-linejoin="round" d="M26.823 46.796h-6.387a1 1 0 0 0-1 1v11.419a1 1 0 0 0 1 1h6.387a1 1 0 0 0 1-1V47.796a1 1 0 0 0-1-1"/><path fill="#bdbec0" d="M34.676 10.158c-1.169-2.5-3.726-4.463-5.16-3.79-1.144-2.109-3.129-2.516-5.888-2.516-5.018 0-8.89 3.8-9.225 7.549-.495 5.536 2.37 6.919 8.247 6.919l7.688-.21s2.527-1.588 3.574-2.078c1.588-.744 1.933-3.373.764-5.874"/><path fill="#f8f8f8" d="M15.241 13.916c.335-3.749 4.208-7.549 9.226-7.549 2.758 0 4.744.407 5.888 2.516 1.357-.637 3.705 1.1 4.945 3.4a7.4 7.4 0 0 0-.624-2.127c-1.169-2.5-3.726-4.463-5.16-3.79-1.144-2.109-3.129-2.516-5.888-2.516-5.018 0-8.89 3.8-9.225 7.549a6.82 6.82 0 0 0 .836 4.612 11 11 0 0 1 .002-2.095"/><path stroke="#45413c" stroke-linecap="round" stroke-linejoin="round" d="M34.676 10.158c-1.169-2.5-3.726-4.463-5.16-3.79-1.144-2.109-3.129-2.516-5.888-2.516-5.018 0-8.89 3.8-9.225 7.549-.495 5.536 2.37 6.919 8.247 6.919l7.688-.21s2.527-1.588 3.574-2.078c1.588-.744 1.933-3.373.764-5.874"/><path fill="#ffcebf" stroke="#45413c" stroke-linecap="round" stroke-linejoin="round" d="m32.866 16.433-1.689.838-1.219-4.266A1.666 1.666 0 0 0 28 11.825a15.3 15.3 0 0 1-7.064 0 1.666 1.666 0 0 0-1.959 1.18l-1.219 4.266-1.665-.838c-2.393 0-2.232 4.193.42 4.193h.007a8.332 8.332 0 0 0 15.921 0h.007c2.652 0 2.812-4.193.418-4.193"/><path fill="#45413c" d="M21.762 17.69a1.048 1.048 0 1 0 0-2.096 1.048 1.048 0 0 0 0 2.096M27.213 17.69a1.048 1.048 0 1 0 0-2.096 1.048 1.048 0 0 0 0 2.096"/><path fill="#ffb59e" d="M19.455 19.788a.839.839 0 1 0 0-1.678.839.839 0 0 0 0 1.678M29.52 19.788a.839.839 0 1 0 0-1.678.839.839 0 0 0 0 1.678"/><path stroke="#45413c" stroke-linecap="round" stroke-linejoin="round" d="M22.394 21.669a3.78 3.78 0 0 0 4.193 0"/><path fill="#bf8256" stroke="#45413c" stroke-linecap="round" stroke-linejoin="round" d="M72.27 46.396H44.72a1 1 0 0 0-1 1v1.955h29.55v-1.955a1 1 0 0 0-1-1M71.792 49.351H45.198V67.08h26.594z"/><path fill="#915e3a" stroke="#45413c" stroke-linecap="round" stroke-linejoin="round" d="M56.018 52.306h-6.865a1 1 0 0 0-1 1v9.82a1 1 0 0 0 1 1h6.865a1 1 0 0 0 1-1v-9.82a1 1 0 0 0-1-1M67.838 52.306h-6.865a1 1 0 0 0-1 1v9.82a1 1 0 0 0 1 1h6.865a1 1 0 0 0 1-1v-9.82a1 1 0 0 0-1-1"/><path fill="#46b000" stroke="#45413c" stroke-linecap="round" stroke-linejoin="round" d="M67.36 36.054h-8.126a2.955 2.955 0 0 0-2.955 2.955 1.48 1.48 0 0 0 1.478 1.478h11.08a1.48 1.48 0 0 0 1.478-1.478 2.955 2.955 0 0 0-2.955-2.955"/><path stroke="#45413c" stroke-linecap="round" stroke-linejoin="round" d="M58.495 40.487v2.954"/><path fill="#ffe500" stroke="#45413c" stroke-linecap="round" stroke-linejoin="round" d="M66.991 40.487h-2.955v5.91h2.955z"/></svg>