<svg viewBox="-2.5 -2.5 500 500" xmlns="http://www.w3.org/2000/svg" id="Aliens-Welcome--Streamline-Ux" height="500" width="500">
  <desc>
    Aliens Welcome Streamline Illustration: https://streamlinehq.com
  </desc>
  <path d="M49.005 264.11220000000003a198 198 0 1 0 396 0 198 198 0 1 0 -396 0Z" fill="#daedf7" stroke="#daedf7" stroke-width="5"></path>
  <path d="M47.11410000000001 416.2356a193.79745000000003 7.79625 0 1 0 387.59490000000005 0 193.79745000000003 7.79625 0 1 0 -387.59490000000005 0Z" fill="#45413c" opacity=".15" stroke-width="5"></path>
  <path d="M283.5063 380.16c-13.6521 0 -30.388050000000003 47.52 -78.44265 27.67545 -22.7997 -9.405 -66.9141 18.9882 -83.754 -8.415000000000001 -0.9900000000000001 -1.6137000000000001 -2.1681 -3.6877500000000003 -2.1681 -3.6877500000000003 36.5508 3.465 27.13095 -26.235 69.94845000000001 -17.0478a15.260850000000001 15.260850000000001 0 0 0 12.870000000000001 -3.4055999999999997 15.760800000000001 15.760800000000001 0 0 0 5.667750000000001 -12.02355 16.88445 16.88445 0 0 0 -16.869600000000002 -16.95375h-8.2665a55.44 55.44 0 0 1 -55.38555 -55.37565 54.11835 54.11835 0 0 1 16.6716 -38.97135 16.12215 16.12215 0 0 0 4.42035 -15.93405c-1.79685 -6.553800000000001 -1.4553 -40.3623 17.9388 -40.3623l6.8854500000000005 25.94295c5.23215 19.121850000000002 11.137500000000001 43.960950000000004 -3.19275 57.64275a16.20135 16.20135 0 0 0 -4.9995 11.6721 17.6616 17.6616 0 0 0 17.6418 17.6418 25.215300000000003 25.215300000000003 0 0 0 25.215300000000003 -25.215300000000003V176.29425a75.82905000000001 75.82905000000001 0 0 1 151.65315 0v107.0586a25.244999999999997 25.244999999999997 0 0 0 25.22025 25.215300000000003 17.6616 17.6616 0 0 0 17.636850000000003 -17.6418 16.2162 16.2162 0 0 0 -4.994549999999999 -11.6721c-14.355 -13.681799999999999 -8.415000000000001 -38.520900000000005 -3.19275 -57.64275l6.8805 -25.94295c19.3941 0 19.73565 33.8085 17.94375 40.3623a16.11225 16.11225 0 0 0 4.42035 15.93405 54.11835 54.11835 0 0 1 16.6716 38.961450000000006 55.44 55.44 0 0 1 -55.365750000000006 55.365750000000006h-8.2665a16.87455 16.87455 0 0 0 -16.869600000000002 16.95375 15.74595 15.74595 0 0 0 5.667750000000001 12.02355 15.25095 15.25095 0 0 0 12.845250000000002 3.4055999999999997C420.75 369.4977 411.34499999999997 399.17295 447.8859 395.7228c0 0 -1.1781 2.07405 -2.1681 3.6877500000000003 -16.830000000000002 27.413100000000004 -60.9543 -0.9900000000000001 -83.754 8.415000000000001C313.9092 427.68000000000006 297.17325 380.16 283.5261 380.16Z" fill="#00b8f0" stroke-width="5"></path>
  <path d="M283.5162 119.38905a75.8241 75.8241 0 0 1 75.8241 75.82905000000001v-18.92385a75.82905000000001 75.82905000000001 0 1 0 -151.65315 0v18.92385a75.82905000000001 75.82905000000001 0 0 1 75.82905000000001 -75.82905000000001Z" fill="#4acfff" stroke-width="5"></path>
  <path d="M283.5063 380.16c-13.6521 0 -30.388050000000003 47.52 -78.44265 27.67545 -22.7997 -9.405 -66.9141 18.9882 -83.754 -8.415000000000001 -0.9900000000000001 -1.6137000000000001 -2.1681 -3.6877500000000003 -2.1681 -3.6877500000000003 25.522199999999998 17.70615 43.5897 -11.4246 86.9715 -2.9106 61.60275 12.09285 37.917 -23.76 77.43285 -12.6522" fill="#b8ecff" stroke="#45413c" stroke-linecap="round" stroke-linejoin="round" stroke-width="5"></path>
  <path d="M360.93915000000004 392.81219999999996c-61.60275 12.09285 -37.917 -23.76 -77.43285 -12.6522h0c13.647150000000002 0 30.3831 47.52 78.4377 27.67545 22.7997 -9.405 66.91905 18.99315 83.754 -8.415000000000001 0.9900000000000001 -1.6137000000000001 2.1681 -3.6877500000000003 2.1681 -3.6877500000000003 -25.601399999999998 17.97345 -43.451100000000004 -11.4543 -86.92695 -2.9205Z" fill="#b8ecff" stroke="#45413c" stroke-linecap="round" stroke-linejoin="round" stroke-width="5"></path>
  <path d="M283.5063 380.16c-13.6521 0 -30.388050000000003 47.52 -78.44265 27.67545 -22.7997 -9.405 -66.9141 18.9882 -83.754 -8.415000000000001 -0.9900000000000001 -1.6137000000000001 -2.1681 -3.6877500000000003 -2.1681 -3.6877500000000003 36.5508 3.465 27.13095 -26.235 69.94845000000001 -17.0478a15.260850000000001 15.260850000000001 0 0 0 12.870000000000001 -3.4055999999999997 15.760800000000001 15.760800000000001 0 0 0 5.667750000000001 -12.02355 16.88445 16.88445 0 0 0 -16.869600000000002 -16.95375h-8.2665a55.44 55.44 0 0 1 -55.38555 -55.37565 54.11835 54.11835 0 0 1 16.6716 -38.97135 16.12215 16.12215 0 0 0 4.42035 -15.93405c-1.79685 -6.553800000000001 -1.4553 -40.3623 17.9388 -40.3623l6.8854500000000005 25.94295c5.23215 19.121850000000002 11.137500000000001 43.960950000000004 -3.19275 57.64275a16.20135 16.20135 0 0 0 -4.9995 11.6721 17.6616 17.6616 0 0 0 17.6418 17.6418 25.215300000000003 25.215300000000003 0 0 0 25.215300000000003 -25.215300000000003V176.29425a75.82905000000001 75.82905000000001 0 0 1 151.65315 0v107.0586a25.244999999999997 25.244999999999997 0 0 0 25.22025 25.215300000000003 17.6616 17.6616 0 0 0 17.636850000000003 -17.6418 16.2162 16.2162 0 0 0 -4.994549999999999 -11.6721c-14.355 -13.681799999999999 -8.415000000000001 -38.520900000000005 -3.19275 -57.64275l6.8805 -25.94295c19.3941 0 19.73565 33.8085 17.94375 40.3623a16.11225 16.11225 0 0 0 4.42035 15.93405 54.11835 54.11835 0 0 1 16.6716 38.961450000000006 55.44 55.44 0 0 1 -55.365750000000006 55.365750000000006h-8.2665a16.87455 16.87455 0 0 0 -16.869600000000002 16.95375 15.74595 15.74595 0 0 0 5.667750000000001 12.02355 15.25095 15.25095 0 0 0 12.845250000000002 3.4055999999999997C420.75 369.4977 411.34499999999997 399.17295 447.8859 395.7228c0 0 -1.1781 2.07405 -2.1681 3.6877500000000003 -16.830000000000002 27.413100000000004 -60.9543 -0.9900000000000001 -83.754 8.415000000000001C313.9092 427.68000000000006 297.17325 380.16 283.5261 380.16Z" fill="none" stroke="#45413c" stroke-linecap="round" stroke-linejoin="round" stroke-width="5"></path>
  <path d="M246.51 162.86984999999999a37.0062 37.0062 0 1 0 74.0124 0 37.0062 37.0062 0 1 0 -74.0124 0Z" fill="#f8f8f8" stroke-width="5"></path>
  <path d="M268.16625 162.86984999999999a15.34995 15.34995 0 1 0 30.6999 0 15.34995 15.34995 0 1 0 -30.6999 0Z" fill="#ff6242" stroke="#45413c" stroke-linecap="round" stroke-linejoin="round" stroke-width="5"></path>
  <path d="M283.5162 247.995a30.105900000000002 30.105900000000002 0 0 0 30.36825 -25.324199999999998 2.6730000000000005 2.6730000000000005 0 0 0 -0.8712 -2.34135 2.9997 2.9997 0 0 0 -2.5047 -0.7326 170.87400000000002 170.87400000000002 0 0 1 -53.989650000000005 0 2.97 2.97 0 0 0 -2.49975 0.7326 2.6779500000000005 2.6779500000000005 0 0 0 -0.87615 2.34135 30.105900000000002 30.105900000000002 0 0 0 30.3732 25.324199999999998Z" fill="#ffb0ca" stroke="#45413c" stroke-linecap="round" stroke-linejoin="round" stroke-width="5"></path>
  <path d="M398.96999999999997 245.9655a5.5341000000000005 7.7715000000000005 0 1 0 11.068200000000001 0 5.5341000000000005 7.7715000000000005 0 1 0 -11.068200000000001 0Z" fill="#4acfff" stroke="#45413c" stroke-linecap="round" stroke-linejoin="round" stroke-width="5"></path>
  <path d="M413.69868544504504 282.60636354918a7.7715000000000005 5.5341000000000005 73.891 1 0 10.63361356695 -3.07104440742 7.7715000000000005 5.5341000000000005 73.891 1 0 -10.63361356695 3.07104440742Z" fill="#4acfff" stroke="#45413c" stroke-linecap="round" stroke-linejoin="round" stroke-width="5"></path>
  <path d="M401.55710367168 324.11927137590004a7.7715000000000005 5.5341000000000005 -43.413 1 0 11.290726740645 -10.681963240410001 7.7715000000000005 5.5341000000000005 -43.413 1 0 -11.290726740645 10.681963240410001Z" fill="#4acfff" stroke="#45413c" stroke-linecap="round" stroke-linejoin="round" stroke-width="5"></path>
  <path d="M245.04975000000002 282.45195a11.24145 11.24145 0 0 0 -21.8988 -3.59865c-2.9106 7.053750000000001 -11.17215 9.2367 -14.701500000000001 -0.40590000000000004a11.26125 11.26125 0 1 0 -10.5039 15.2757l5.4945 17.2755v25.97265a13.810500000000001 13.810500000000001 0 0 1 -27.61605 0 45.3024 45.3024 0 0 0 -45.29745 -45.29745h-18.92385a45.3024 45.3024 0 0 0 -45.27270000000001 45.3024v36.036a19.58715 19.58715 0 0 0 19.0674 19.57725v38.3724a11.157300000000001 11.157300000000001 0 0 0 -3.0294 -0.46035000000000004 11.34045 11.34045 0 1 0 11.2662 12.078h0.1485a11.31075 11.31075 0 1 0 17.42895 -10.236600000000001v-28.16055a9.2961 9.2961 0 1 1 18.5922 0v27.096300000000003a11.3256 11.3256 0 1 0 15.379650000000002 10.55835 11.34045 11.34045 0 1 0 11.5929 -11.31075v-93.55499999999999a32.877900000000004 32.877900000000004 0 1 0 65.75085 0v-25.97265a132.60555000000002 132.60555000000002 0 0 0 10.028699999999999 -17.399250000000002 10.8306 10.8306 0 0 0 12.5136 -11.1474Z" fill="#6dd627" stroke-width="5"></path>
  <path d="M176.64075000000003 341.65395a13.71645 13.71645 0 0 1 -0.8167500000000001 -4.6827 45.3024 45.3024 0 0 0 -45.29745 -45.29745h-18.92385a45.3024 45.3024 0 0 0 -45.27270000000001 45.3024v16.830000000000002a45.29745 45.29745 0 0 1 45.287549999999996 -45.00045h18.92385a45.3024 45.3024 0 0 1 43.56 32.9472Z" fill="#9ceb60" stroke-width="5"></path>
  <path d="M245.04975000000002 282.45195a11.24145 11.24145 0 0 0 -21.8988 -3.59865c-2.9106 7.053750000000001 -11.17215 9.2367 -14.701500000000001 -0.40590000000000004a11.26125 11.26125 0 1 0 -10.5039 15.2757l5.4945 17.2755v25.97265a13.810500000000001 13.810500000000001 0 0 1 -27.61605 0 45.3024 45.3024 0 0 0 -45.29745 -45.29745h-18.92385a45.3024 45.3024 0 0 0 -45.27270000000001 45.3024v36.036a19.58715 19.58715 0 0 0 19.0674 19.57725v38.3724a11.157300000000001 11.157300000000001 0 0 0 -3.0294 -0.46035000000000004 11.34045 11.34045 0 1 0 11.2662 12.078h0.1485a11.31075 11.31075 0 1 0 17.42895 -10.236600000000001v-28.16055a9.2961 9.2961 0 1 1 18.5922 0v27.096300000000003a11.3256 11.3256 0 1 0 15.379650000000002 10.55835 11.34045 11.34045 0 1 0 11.5929 -11.31075v-93.55499999999999a32.877900000000004 32.877900000000004 0 1 0 65.75085 0v-25.97265a132.60555000000002 132.60555000000002 0 0 0 10.028699999999999 -17.399250000000002 10.8306 10.8306 0 0 0 12.5136 -11.1474Z" fill="none" stroke="#45413c" stroke-linecap="round" stroke-linejoin="round" stroke-width="5"></path>
  <path d="M182.1303 226.6506c0 31.52655 -50.98500000000001 72.5967 -61.06815 72.5967S59.994 258.17715 59.994 226.6506s27.3438 -53.06895 61.06815 -53.06895 61.06815 21.53745 61.06815 53.06895Z" fill="#6dd627" stroke-width="5"></path>
  <path d="M130.93740000000003 271.85400000000004a13.968900000000001 13.968900000000001 0 0 1 -19.750500000000002 0" fill="none" stroke="#45413c" stroke-linecap="round" stroke-linejoin="round" stroke-width="5"></path>
  <path d="m85.37265000000001 392.58945000000006 0 -64.0728" fill="none" stroke="#45413c" stroke-linecap="round" stroke-linejoin="round" stroke-width="5"></path>
  <path d="M181.1106 234.74880000000002a34.53615 34.53615 0 0 0 1.0197 -8.0982c0 -31.5315 -27.3438 -53.06895 -61.06815 -53.06895S59.994 195.1191 59.994 226.6506a34.2045 34.2045 0 0 0 1.02465 8.0883c5.15295 -25.94295 30.05145 -43.00065 60.04350000000001 -43.00065s54.8955 17.0577 60.04845 43.01055Z" fill="#9ceb60" stroke-width="5"></path>
  <path d="M182.1303 226.6506c0 31.52655 -50.98500000000001 72.5967 -61.06815 72.5967S59.994 258.17715 59.994 226.6506s27.3438 -53.06895 61.06815 -53.06895 61.06815 21.53745 61.06815 53.06895Z" fill="none" stroke="#45413c" stroke-linecap="round" stroke-linejoin="round" stroke-width="5"></path>
  <path d="M138.02881794075 248.53638328002a18.715950000000003 14.840100000000001 -62.368 1 0 17.36057505006 -33.16259295558 18.715950000000003 14.840100000000001 -62.368 1 0 -17.360575049565 33.16259295558Z" fill="#87898c" stroke-width="5"></path>
  <path d="M131.6304 230.076a15.77565 15.77565 0 0 0 6.4003499999999995 18.458550000000002c7.2567 3.8016 17.028 -0.53955 21.82455 -9.69705a20.89395 20.89395 0 0 0 1.92555 -15.25095 22.81455 22.81455 0 0 1 -1.92555 5.30145c-4.7916 9.15255 -14.56785 13.49865 -21.829500000000003 9.69705a13.142249999999999 13.142249999999999 0 0 1 -6.3954 -8.50905Z" fill="#45413c" stroke-width="5"></path>
  <path d="M138.02881794075 248.53638328002a18.715950000000003 14.840100000000001 -62.368 1 0 17.36057505006 -33.16259295558 18.715950000000003 14.840100000000001 -62.368 1 0 -17.360575049565 33.16259295558Z" fill="none" stroke="#45413c" stroke-linecap="round" stroke-linejoin="round" stroke-width="5"></path>
  <path d="M82.25849554015501 238.841000529615a18.715950000000003 14.840100000000001 62.368 1 0 26.295015520125002 -13.7654070345 18.715950000000003 14.840100000000001 62.368 1 0 -26.295015520125002 13.7654070345Z" fill="#87898c" stroke-width="5"></path>
  <path d="M110.48400000000001 230.076a15.7707 15.7707 0 0 1 -6.3954 18.458550000000002c-7.26165 3.8016 -17.03295 -0.53955 -21.82455 -9.69705a20.89395 20.89395 0 0 1 -1.9305 -15.25095 23.06205 23.06205 0 0 0 1.9305 5.30145c4.7916 9.15255 14.5629 13.49865 21.82455 9.69705a13.127400000000002 13.127400000000002 0 0 0 6.3954 -8.50905Z" fill="#45413c" stroke-width="5"></path>
  <path d="M82.25849554015501 238.841000529615a18.715950000000003 14.840100000000001 62.368 1 0 26.295015520125002 -13.7654070345 18.715950000000003 14.840100000000001 62.368 1 0 -26.295015520125002 13.7654070345Z" fill="none" stroke="#45413c" stroke-linecap="round" stroke-linejoin="round" stroke-width="5"></path>
  <path d="M210.6423 96.11415000000001c0 5.0589 -13.98375 8.2071 -15.23115 12.870000000000001 -1.2870000000000001 4.8213 9.207 14.5332 6.761700000000001 18.755550000000003s-16.1568 0.0297 -19.631700000000002 3.5046 0.77715 17.1567 -3.5046 19.631700000000002 -13.93425 -8.0487 -18.755550000000003 -6.761700000000001c-4.6629 1.2474 -7.811100000000001 15.23115 -12.870000000000001 15.23115s-8.2071 -13.98375 -12.870000000000001 -15.23115c-4.8213 -1.2919500000000002 -14.5332 9.207 -18.755550000000003 6.761700000000001s-0.0297 -16.1568 -3.5046 -19.631700000000002 -17.1567 0.77715 -19.631700000000002 -3.5046 8.053650000000001 -13.93425 6.761700000000001 -18.755550000000003c-1.2474 -4.6629 -15.2262 -7.811100000000001 -15.2262 -12.870000000000001s13.98375 -8.20215 15.2262 -12.870000000000001c1.2919500000000002 -4.8213 -9.207 -14.5332 -6.761700000000001 -18.755550000000003s16.1568 -0.0297 19.631700000000002 -3.5046 -0.77715 -17.1567 3.5046 -19.63665S129.7197 49.401 134.541 48.114000000000004c4.6629 -1.2474 7.81605 -15.23115 12.870000000000001 -15.23115s8.20215 13.98375 12.870000000000001 15.23115c4.82625 1.2870000000000001 14.5332 -9.207 18.7605 -6.761700000000001s0 16.1568 3.49965 19.631700000000002 17.1567 -0.77715 19.63665 3.5046 -8.053650000000001 13.93425 -6.76665 18.755550000000003c1.2474 4.66785 15.23115 7.83585 15.23115 12.870000000000001Z" fill="#ffe500" stroke-width="5"></path>
  <path d="M117.14670000000001 87.04575000000001a7.0092 7.0092 0 1 0 14.0184 0 7.0092 7.0092 0 1 0 -14.0184 0Z" fill="#45413c" stroke-width="5"></path>
  <path d="M163.66185000000002 87.04575000000001a7.0092 7.0092 0 1 0 14.0184 0 7.0092 7.0092 0 1 0 -14.0184 0Z" fill="#45413c" stroke-width="5"></path>
  <path d="M98.0595 114.36975000000001c-2.475 4.7718 -7.1181 10.395000000000001 -5.4054 13.365000000000002 2.475 4.28175 16.1568 0 19.631700000000002 3.5046s-0.7821 17.15175 3.5046 19.631700000000002 13.93425 -8.053650000000001 18.755550000000003 -6.761700000000001c4.6629 1.2474 7.81605 15.23115 12.870000000000001 15.23115s8.20215 -13.98375 12.870000000000001 -15.23115c4.8213 -1.2870000000000001 14.5332 9.207 18.755550000000003 6.761700000000001s0.0297 -16.1568 3.5046 -19.631700000000002 17.1567 0.7821 19.631700000000002 -3.5046c1.7127 -2.97 -2.9106 -8.5932 -5.4054 -13.365000000000002a71.6067 71.6067 0 0 1 -98.70795 0Z" fill="#ebcb00" stroke-width="5"></path>
  <path d="M210.6423 96.11415000000001c0 5.0589 -13.98375 8.2071 -15.23115 12.870000000000001 -1.2870000000000001 4.8213 9.207 14.5332 6.761700000000001 18.755550000000003s-16.1568 0.0297 -19.631700000000002 3.5046 0.77715 17.1567 -3.5046 19.631700000000002 -13.93425 -8.0487 -18.755550000000003 -6.761700000000001c-4.6629 1.2474 -7.811100000000001 15.23115 -12.870000000000001 15.23115s-8.2071 -13.98375 -12.870000000000001 -15.23115c-4.8213 -1.2919500000000002 -14.5332 9.207 -18.755550000000003 6.761700000000001s-0.0297 -16.1568 -3.5046 -19.631700000000002 -17.1567 0.77715 -19.631700000000002 -3.5046 8.053650000000001 -13.93425 6.761700000000001 -18.755550000000003c-1.2474 -4.6629 -15.2262 -7.811100000000001 -15.2262 -12.870000000000001s13.98375 -8.20215 15.2262 -12.870000000000001c1.2919500000000002 -4.8213 -9.207 -14.5332 -6.761700000000001 -18.755550000000003s16.1568 -0.0297 19.631700000000002 -3.5046 -0.77715 -17.1567 3.5046 -19.63665S129.7197 49.401 134.541 48.114000000000004c4.6629 -1.2474 7.81605 -15.23115 12.870000000000001 -15.23115s8.20215 13.98375 12.870000000000001 15.23115c4.82625 1.2870000000000001 14.5332 -9.207 18.7605 -6.761700000000001s0 16.1568 3.49965 19.631700000000002 17.1567 -0.77715 19.63665 3.5046 -8.053650000000001 13.93425 -6.76665 18.755550000000003c1.2474 4.66785 15.23115 7.83585 15.23115 12.870000000000001Z" fill="none" stroke="#45413c" stroke-linecap="round" stroke-linejoin="round" stroke-width="5"></path>
  <path d="M147.41595 118.6812a14.751000000000001 14.751000000000001 0 0 0 14.8797 -12.409650000000001 1.3068000000000002 1.3068000000000002 0 0 0 -0.43065 -1.14345 1.485 1.485 0 0 0 -1.2276 -0.36135 83.457 83.457 0 0 1 -26.447850000000003 0 1.485 1.485 0 0 0 -1.2276 0.36135 1.3068000000000002 1.3068000000000002 0 0 0 -0.42569999999999997 1.14345 14.751000000000001 14.751000000000001 0 0 0 14.8797 12.409650000000001Z" fill="#ffb0ca" stroke="#45413c" stroke-linecap="round" stroke-linejoin="round" stroke-width="5"></path>
  <path d="M320.06205000000006 168.7059a37.0062 37.0062 0 1 0 -73.09665 0 36.956700000000005 36.956700000000005 0 0 1 73.09665 0Z" fill="#ffffff" stroke-width="5"></path>
  <path d="M246.51 162.86984999999999a37.0062 37.0062 0 1 0 74.0124 0 37.0062 37.0062 0 1 0 -74.0124 0Z" fill="none" stroke="#45413c" stroke-linecap="round" stroke-linejoin="round" stroke-width="5"></path>
</svg>