<svg xmlns="http://www.w3.org/2000/svg" width="160" height="160" viewBox="0 0 160 160"><path fill="#c7f0ff" stroke="#c7f0ff" stroke-miterlimit="10" stroke-width="1.6" d="M16 80a64 64 0 1 0 128 0 64 64 0 1 0-128 0Z"/><path fill="#45413c" d="M55.195 122.627a24.805 3.035 0 1 0 49.61 0 24.805 3.035 0 1 0-49.61 0" opacity=".15"/><path fill="#fff" d="M36.563 53.866h86.874v50.316H36.563Z"/><path fill="none" stroke="#45413c" stroke-linecap="round" stroke-linejoin="round" stroke-width="1.6" d="M36.563 53.866h86.874v50.316H36.563Z"/><path fill="none" stroke="#45413c" stroke-linecap="round" stroke-linejoin="round" stroke-width="3.2" d="M48.443 62.597V95.45M57.597 62.597V82.25M65.432 62.597v9.16M75.466 62.597V82.25M84.534 62.597v11.8M93.248 62.597v12.24M102.843 62.597V82.25M111.997 62.597V95.45M57.597 91.197v4.253M65.432 79.237V95.45M75.466 91.197v4.253M84.534 81.437V95.45M93.248 84.517V95.45M102.843 91.197v4.253"/></svg>