<svg xmlns="http://www.w3.org/2000/svg" width="82" height="82" fill="none" viewBox="0 0 82 82"><path fill="#daedf7" stroke="#daedf7" d="M1 41a40 40 0 1 0 80 0 40 40 0 0 0-80 0Z"/><path fill="#debb7e" d="m25.4 63.238-9.546-9.546a2.45 2.45 0 0 1 0-3.471L52.88 13.2a2.46 2.46 0 0 1 3.472 0l9.548 9.54a2.456 2.456 0 0 1 0 3.472L28.872 63.238a2.45 2.45 0 0 1-3.472 0"/><path fill="#f0d3a8" d="M19.551 55.116 57.2 17.469a2.45 2.45 0 0 1 3.282-.144l-4.13-4.125a2.454 2.454 0 0 0-3.472 0L15.855 50.221a2.455 2.455 0 0 0 0 3.471l3 3c.032-.593.28-1.153.696-1.576"/><path stroke="#45413c" stroke-linecap="round" stroke-linejoin="round" d="m25.4 63.238-9.546-9.546a2.45 2.45 0 0 1 0-3.471L52.88 13.2a2.46 2.46 0 0 1 3.472 0l9.548 9.54a2.456 2.456 0 0 1 0 3.472L28.872 63.238a2.45 2.45 0 0 1-3.472 0M48.832 17.244l5.206 5.207M44.014 22.071l4.34 4.338M39.189 26.887l5.207 5.206M34.368 31.708l4.338 4.339M29.547 36.53l5.207 5.207M24.726 41.351l4.339 4.338M19.904 46.171l5.207 5.207"/><path fill="#45413c" d="M28.175 74.521c0 .466 1.356.912 3.77 1.241s5.687.514 9.1.514 6.687-.185 9.1-.514c2.414-.33 3.77-.775 3.77-1.241s-1.356-.912-3.77-1.241-5.687-.514-9.1-.514-6.687.185-9.1.514c-2.414.33-3.77.775-3.77 1.241" opacity=".15"/></svg>