<svg xmlns="http://www.w3.org/2000/svg" width="82" height="82" fill="none" viewBox="0 0 82 82"><path fill="#daedf7" stroke="#daedf7" d="M1 41a40 40 0 1 0 80 0 40 40 0 0 0-80 0Z"/><path fill="#adc4d9" stroke="#45413c" d="m35.18 37.162-5.623-5.624 8.436-6.562 3.75 3.75z"/><path fill="#4acfff" stroke="#45413c" d="M22.71 27.02a5.3 5.3 0 0 1 6.243.69l8.173 7.528a5.303 5.303 0 0 1-.941 8.492l-12.123 7a5.303 5.303 0 0 1-7.237-1.941l-5.309-9.181a5.304 5.304 0 0 1 1.941-7.244z"/><path fill="#ff6242" d="M22.71 27.02a5.3 5.3 0 0 1 6.243.69l8.173 7.528a5.303 5.303 0 0 1-.941 8.492l-12.123 7a5.303 5.303 0 0 1-7.237-1.941l-5.309-9.181a5.304 5.304 0 0 1 1.941-7.244z"/><path fill="#e04122" d="M11.184 34.98a5.3 5.3 0 0 0 .332 4.62l5.303 9.183a5.303 5.303 0 0 0 7.243 1.941l12.123-7a5.3 5.3 0 0 0 2.27-6.567 5.15 5.15 0 0 1-2.27 2.634l-12.117 7a5.31 5.31 0 0 1-7.252-1.937l-5.302-9.185a4.6 4.6 0 0 1-.33-.688"/><path stroke="#45413c" d="M22.71 27.02a5.3 5.3 0 0 1 6.243.69l8.173 7.528a5.303 5.303 0 0 1-.941 8.492l-12.123 7a5.303 5.303 0 0 1-7.237-1.941l-5.309-9.181a5.304 5.304 0 0 1 1.941-7.244z"/><path fill="#fff" stroke="#45413c" d="M4 42.21a13.254 13.254 0 1 0 26.508 0A13.254 13.254 0 0 0 4 42.21Z"/><path fill="#00b8f0" d="M7.975 42.21a9.28 9.28 0 1 0 18.559 0 9.28 9.28 0 0 0-18.56 0"/><path fill="#4acfff" d="M9.215 46.845a9.28 9.28 0 0 1 16.072-9.28z"/><path stroke="#45413c" d="M7.975 42.21a9.28 9.28 0 1 0 18.559 0 9.28 9.28 0 0 0-18.56 0Z"/><path fill="#adc4d9" stroke="#45413c" d="m47.793 37.162 5.624-5.624-8.436-6.562-3.749 3.75z"/><path fill="#fff" d="M36.185 26.302a5.302 5.302 0 1 0 10.605 0 5.302 5.302 0 0 0-10.605 0"/><path fill="#4acfff" stroke="#45413c" d="M60.265 27.02a5.3 5.3 0 0 0-6.244.69l-8.172 7.528a5.303 5.303 0 0 0 .94 8.492l12.123 7a5.303 5.303 0 0 0 7.238-1.941l5.308-9.181a5.3 5.3 0 0 0-1.941-7.244z"/><path fill="#ff6242" d="M60.265 27.02a5.3 5.3 0 0 0-6.244.69l-8.172 7.528a5.303 5.303 0 0 0 .94 8.492l12.123 7a5.303 5.303 0 0 0 7.238-1.941l5.308-9.181a5.3 5.3 0 0 0-1.941-7.244z"/><path fill="#e04122" d="M71.79 34.98a5.3 5.3 0 0 1-.332 4.62l-5.303 9.183a5.303 5.303 0 0 1-7.237 1.941l-12.123-7a5.3 5.3 0 0 1-2.27-6.567 5.15 5.15 0 0 0 2.27 2.634l12.117 7a5.31 5.31 0 0 0 7.252-1.937l5.302-9.185q.19-.33.324-.688"/><path stroke="#45413c" d="M60.265 27.02a5.3 5.3 0 0 0-6.244.69l-8.172 7.528a5.303 5.303 0 0 0 .94 8.492l12.123 7a5.303 5.303 0 0 0 7.238-1.941l5.308-9.181a5.3 5.3 0 0 0-1.941-7.244z"/><path fill="#daedf7" d="M36.494 24.51a5.302 5.302 0 1 0 9.986 0 5.283 5.283 0 0 1-9.986 0"/><path stroke="#45413c" d="M36.185 26.302a5.302 5.302 0 1 0 10.605 0 5.302 5.302 0 0 0-10.605 0Z"/><path fill="#fff" stroke="#45413c" d="M52.466 42.21a13.254 13.254 0 1 0 26.509 0 13.254 13.254 0 0 0-26.51 0Z"/><path fill="#00b8f0" d="M56.44 42.21a9.28 9.28 0 1 0 18.559 0 9.28 9.28 0 0 0-18.558 0"/><path fill="#4acfff" d="M57.684 46.845A9.28 9.28 0 1 1 73.76 37.57z"/><path stroke="#45413c" d="M56.44 42.21a9.28 9.28 0 1 0 18.559 0 9.28 9.28 0 0 0-18.558 0Z"/></svg>