<svg xmlns="http://www.w3.org/2000/svg" width="82" height="82" fill="none" viewBox="0 0 82 82"><path fill="#daedf7" stroke="#daedf7" d="M1 41a40 40 0 1 0 80 0 40 40 0 0 0-80 0Z"/><path fill="#fff48c" stroke="#45413c" stroke-linecap="round" stroke-linejoin="round" d="M7.938 56.511a15.176 15.176 0 1 0 30.352 0 15.176 15.176 0 0 0-30.352 0"/><path fill="#fff" d="M34.5 56.511a11.382 11.382 0 1 1-22.764 0 11.382 11.382 0 0 1 22.764 0"/><path fill="#f8f8f8" d="M34.332 58.447a11.37 11.37 0 0 0-22.436 0 11.382 11.382 0 1 1 22.436 0"/><path stroke="#45413c" stroke-linecap="round" stroke-linejoin="round" d="M34.5 56.511a11.382 11.382 0 1 1-22.764 0 11.382 11.382 0 0 1 22.764 0"/><path stroke="#45413c" stroke-linecap="round" stroke-linejoin="round" d="m23.084 51.718.03 4.763-.047 3.079M23.084 65.066V63.64M23.084 47.956v1.426M29.134 50.462l-1.009 1.008M31.639 56.511h-1.426M29.134 62.56l-1.009-1.008M17.035 62.56l1.009-1.008M14.53 56.511h1.425M17.035 50.462l1.009 1.008"/><path fill="#4acfff" stroke="#45413c" stroke-linecap="round" stroke-linejoin="round" d="M44.043 56.511a15.176 15.176 0 1 0 30.351 0 15.176 15.176 0 0 0-30.351 0"/><path fill="#fff" d="M70.6 56.511a11.383 11.383 0 1 1-22.767.002A11.383 11.383 0 0 1 70.6 56.51"/><path fill="#f8f8f8" d="M70.437 58.447a11.369 11.369 0 0 0-22.437 0 11.382 11.382 0 0 1 16.672-11.929 11.385 11.385 0 0 1 5.765 11.929"/><path stroke="#45413c" stroke-linecap="round" stroke-linejoin="round" d="M70.6 56.511a11.383 11.383 0 1 1-22.767.002A11.383 11.383 0 0 1 70.6 56.51"/><path stroke="#45413c" stroke-linecap="round" stroke-linejoin="round" d="m59.219 51.718.029 4.763 2.682 1.976M59.219 65.066V63.64M59.219 47.956v1.426M65.268 50.462 64.26 51.47M67.773 56.511h-1.425M65.268 62.56l-1.008-1.008M53.17 62.56l1.008-1.008M50.664 56.511h1.426M53.17 50.462l1.008 1.008"/><path fill="#ff6242" stroke="#45413c" stroke-linecap="round" stroke-linejoin="round" d="M22.792 21.833a18.713 18.713 0 1 0 37.426 0 18.713 18.713 0 0 0-37.426 0"/><path fill="#fff" d="M55.539 21.833a14.035 14.035 0 1 1-28.07.004 14.035 14.035 0 0 1 28.07-.004"/><path fill="#f8f8f8" d="M55.337 24.22a14.019 14.019 0 0 0-27.665 0 14.036 14.036 0 1 1 27.665 0"/><path stroke="#45413c" stroke-linecap="round" stroke-linejoin="round" d="M55.539 21.833a14.035 14.035 0 1 1-28.07.004 14.035 14.035 0 0 1 28.07-.004"/><path stroke="#45413c" stroke-linecap="round" stroke-linejoin="round" d="M47.119 21.833h-5.614V11.541M49.444 13.894l-1.323 1.323M52.732 21.833h-1.871M49.444 29.772l-1.323-1.323M41.505 33.06v-1.87M33.566 29.772l1.323-1.323M30.277 21.833h1.871M33.566 13.894l1.323 1.323"/></svg>