<svg xmlns="http://www.w3.org/2000/svg" fill="none" viewBox="-2.5 -2.5 500 500" id="Picnic-Lunch--Streamline-Ux" height="500" width="500">
  <desc>
    Picnic Lunch Streamline Illustration: https://streamlinehq.com
  </desc>
  <path fill="#daedf7" stroke="#daedf7" stroke-miterlimit="10" d="M247.55445000000003 445.5c109.35243 0 198 -88.64757 198 -198s-88.64757 -198 -198 -198 -198 88.64757 -198 198 88.64757 198 198 198Z" stroke-width="5"></path>
  <path fill="#9ceb60" d="M247.44555 443.02500000000003c107.985735 0 195.525 -87.53976 195.525 -195.525s-87.539265 -195.525 -195.525 -195.525c-107.98524 0 -195.525 87.53976 -195.525 195.525s87.53976 195.525 195.525 195.525Z" stroke-width="5"></path>
  <path stroke="#6dd627" stroke-linecap="round" stroke-linejoin="round" d="M164.31525000000002 104.42619h13.731300000000001" stroke-width="5"></path>
  <path stroke="#6dd627" stroke-linecap="round" stroke-linejoin="round" d="M276.02685 104.42619h13.731300000000001" stroke-width="5"></path>
  <path stroke="#6dd627" stroke-linecap="round" stroke-linejoin="round" d="M219.2652 74.487105h13.73625" stroke-width="5"></path>
  <path stroke="#46b000" stroke-linecap="round" stroke-linejoin="round" d="M164.31525000000002 167.251095h13.731300000000001" stroke-width="5"></path>
  <path stroke="#46b000" stroke-linecap="round" stroke-linejoin="round" d="M276.02685 167.251095h13.731300000000001" stroke-width="5"></path>
  <path stroke="#6dd627" stroke-linecap="round" stroke-linejoin="round" d="M398.6829 167.251095h13.73625" stroke-width="5"></path>
  <path stroke="#46b000" stroke-linecap="round" stroke-linejoin="round" d="M219.2652 137.31399000000002h13.73625" stroke-width="5"></path>
  <path stroke="#46b000" stroke-linecap="round" stroke-linejoin="round" d="M331.0857 137.31399000000002h13.731300000000001" stroke-width="5"></path>
  <path stroke="#46b000" stroke-linecap="round" stroke-linejoin="round" d="M164.31525000000002 230.84919000000002h13.731300000000001" stroke-width="5"></path>
  <path stroke="#46b000" stroke-linecap="round" stroke-linejoin="round" d="M276.02685 230.84919000000002h13.731300000000001" stroke-width="5"></path>
  <path stroke="#6dd627" stroke-linecap="round" stroke-linejoin="round" d="M388.86210000000005 230.84919000000002h13.731300000000001" stroke-width="5"></path>
  <path stroke="#46b000" stroke-linecap="round" stroke-linejoin="round" d="M219.2652 200.905155h13.73625" stroke-width="5"></path>
  <path stroke="#46b000" stroke-linecap="round" stroke-linejoin="round" d="M331.0857 200.905155h13.731300000000001" stroke-width="5"></path>
  <path stroke="#46b000" stroke-linecap="round" stroke-linejoin="round" d="M170.05724999999998 302.40936h13.731300000000001" stroke-width="5"></path>
  <path stroke="#46b000" stroke-linecap="round" stroke-linejoin="round" d="M281.76885000000004 302.40936h13.731300000000001" stroke-width="5"></path>
  <path stroke="#46b000" stroke-linecap="round" stroke-linejoin="round" d="M387.73845000000006 302.40936h13.731300000000001" stroke-width="5"></path>
  <path stroke="#46b000" stroke-linecap="round" stroke-linejoin="round" d="M225.01215000000002 272.472255h13.731300000000001" stroke-width="5"></path>
  <path stroke="#46b000" stroke-linecap="round" stroke-linejoin="round" d="M336.82770000000005 272.472255h13.731300000000001" stroke-width="5"></path>
  <path stroke="#46b000" stroke-linecap="round" stroke-linejoin="round" d="M164.31525000000002 167.251095h13.731300000000001" stroke-width="5"></path>
  <path stroke="#6dd627" stroke-linecap="round" stroke-linejoin="round" d="M113.4045 137.31399000000002h13.731300000000001" stroke-width="5"></path>
  <path stroke="#46b000" stroke-linecap="round" stroke-linejoin="round" d="M58.345650000000006 230.84919000000002h13.731300000000001" stroke-width="5"></path>
  <path stroke="#46b000" stroke-linecap="round" stroke-linejoin="round" d="M164.31525000000002 230.84919000000002h13.731300000000001" stroke-width="5"></path>
  <path stroke="#46b000" stroke-linecap="round" stroke-linejoin="round" d="M113.4045 200.905155h13.731300000000001" stroke-width="5"></path>
  <path fill="#45413c" d="m423.85365 331.907895 -84.19950000000001 -229.185c-0.221265 -0.602415 -0.558855 -1.15533 -0.9939600000000001 -1.627065s-0.9588150000000001 -0.8528850000000001 -1.5409350000000002 -1.12266c-0.582615 -0.26928 -1.212255 -0.421245 -1.85328 -0.446985 -0.6410250000000001 -0.026235 -1.2810599999999999 0.074745 -1.883475 0.29601l-275.8932 101.36115000000001c-11.501028000000002 46.997775000000004 -5.167800000000001 96.59083500000001 17.775450000000003 139.190535 22.942755000000002 42.599205000000005 60.86619 75.17862 106.43688000000002 91.43887500000001 45.570690000000006 16.260255 95.55183000000001 15.046515 140.279535 -3.4065900000000005 44.727705 -18.4536 81.02457000000001 -52.83531 101.87248500000001 -96.49826999999999Z" opacity=".15" stroke-width="5"></path>
  <path fill="#ff6242" d="M322.54695000000004 100.2771c-0.447975 -1.21671 -1.360755 -2.20572 -2.5378650000000005 -2.749725 -1.176615 -0.544005 -2.52153 -0.598455 -3.738735 -0.150975L60.43950000000001 191.367c-13.639675500000001 45.46674 -10.273230000000002 94.34304 9.47133 137.51050500000002 19.74456 43.16746500000001 54.51831 77.67837 97.835265 97.093755 43.31646 19.415385 92.21652 22.40964 137.57832000000002 8.424405C350.686215 420.41043 389.41155 390.40056 414.2754 349.96500000000003L322.54695000000004 100.2771Z" stroke-width="5"></path>
  <g opacity=".88">
    <g opacity=".6">
      <path fill="#ffffff" d="m222.4035 131.86206 107.64269999999999 292.99545c5.4252 -2.521035 10.705365 -5.280165 15.840000000000002 -8.2764L239.0355 125.75376000000001l-16.632 6.1083Z" opacity=".6" stroke-width="5"></path>
      <path fill="#ffffff" d="m374.46750000000003 396.34056 -103.7025 -282.249 -16.632 6.113250000000001 105.63300000000001 287.5059c5.082165 -3.564 9.982665 -7.35372 14.701500000000001 -11.37015Z" opacity=".6" stroke-width="5"></path>
      <path fill="#ffffff" d="m287.0208 108.122355 101.16315000000002 275.3487c4.68468 -4.844565 9.11889 -9.925245 13.285800000000002 -15.221250000000001l-97.81695 -266.23575 -16.632 6.1083Z" opacity=".6" stroke-width="5"></path>
      <path fill="#ffffff" d="m206.62785000000002 137.659995 -16.632 6.1083 107.58330000000001 292.8222c5.758335000000001 -1.5147 11.4048 -3.2754149999999997 16.9389 -5.28165l-107.89020000000001 -293.64885000000004Z" opacity=".6" stroke-width="5"></path>
      <path fill="#ffffff" d="m171.9333 150.40476 -16.632 6.113250000000001 105.09345000000002 286.05555000000004c6.1281 -0.39105 12.186900000000001 -1.0395 18.1467 -1.9800000000000002l-106.60815 -290.1888Z" opacity=".6" stroke-width="5"></path>
      <path fill="#ffffff" d="m238.7781 442.797795 -102.5937 -279.25425 -16.636950000000002 6.1083 99.66825000000001 271.26c6.4849950000000005 0.9558450000000001 13.014045000000001 1.585485 19.5624 1.88595Z" opacity=".6" stroke-width="5"></path>
      <path fill="#ffffff" d="M123.255 398.282445c7.984845 6.583995000000001 16.479045 12.52449 25.403399999999998 17.76555l-83.21445 -226.51695 -5.004449999999999 1.8364500000000001c-2.141865 7.18047 -3.8654550000000003 14.479245 -5.16285 21.8592L123.255 398.282445Z" opacity=".6" stroke-width="5"></path>
      <path fill="#ffffff" d="M53.2125 267.258915c3.27789 32.678415 14.783175 63.993105 33.4422 91.02060000000002l-33.4422 -91.02060000000002Z" opacity=".6" stroke-width="5"></path>
      <path fill="#ffffff" d="M84.7539 182.43720000000002 175.39335 429.165c7.024545000000001 2.808135 14.207984999999999 5.20146 21.512700000000002 7.1676l-95.53500000000001 -259.9839 -16.617150000000002 6.0885Z" opacity=".6" stroke-width="5"></path>
    </g>
    <g opacity=".6">
      <path fill="#ffffff" d="m171.39375 427.55129999999997 239.085 -87.9318 -6.113250000000001 -16.632 -254.6577 93.65895c6.9958350000000005 4.080285 14.238675 7.722495 21.685950000000002 10.90485Z" opacity=".6" stroke-width="5"></path>
      <path fill="#ffffff" d="m359.95905 202.111965 -6.113250000000001 -16.636950000000002 -295.97040000000004 108.7119c1.4157 5.78655 3.10365 11.45925 5.0193 17.03295l297.06435 -109.10790000000001Z" opacity=".6" stroke-width="5"></path>
      <path fill="#ffffff" d="m340.56 149.297445 -288.1395 106.07355c0.24255000000000002 6.1776 0.78705 12.276 1.5939 18.29025l292.64895 -107.7318 -6.103350000000001 -16.632Z" opacity=".6" stroke-width="5"></path>
      <path fill="#ffffff" d="m372.735 236.85156 -6.113250000000001 -16.632 -296.51985 108.95445c2.5047 5.4252 5.24205 10.70487 8.21205 15.840000000000002L372.735 236.85156Z" opacity=".6" stroke-width="5"></path>
      <path fill="#ffffff" d="m132.2343 405.232245 266.4486 -97.713 -6.1083 -16.632 -276.31395 101.3265c5.094539999999999 4.61439 10.426185 8.959995000000001 15.97365 13.0185Z" opacity=".6" stroke-width="5"></path>
      <path fill="#ffffff" d="m340.38675 419.7105 -51.2523 18.88425c17.8893 -3.846645 35.14401 -10.204425 51.2523 -18.88425Z" opacity=".6" stroke-width="5"></path>
      <path fill="#ffffff" d="m229.5909 442.15429500000005 158.0931 -58.15755000000001c8.14176 -8.328375000000001 15.526665 -17.3646 22.0671 -27.00225l-214.3944 78.8733c11.200365000000001 3.11553 22.657635000000003 5.21928 34.2342 6.2865Z" opacity=".6" stroke-width="5"></path>
      <path fill="#ffffff" d="m52.7868 233.342505 280.74915 -103.158 -6.113250000000001 -16.632 -272.2104 100.0197c-1.141965 6.5448900000000005 -1.95129 13.143735000000001 -2.4255 19.770300000000002Z" opacity=".6" stroke-width="5"></path>
      <path fill="#ffffff" d="M89.694 362.5578c3.676365 5.045535000000001 7.5834 9.901485000000001 11.7216 14.56785l284.43195000000003 -104.53905 -6.1083 -16.632L89.694 362.5578Z" opacity=".6" stroke-width="5"></path>
    </g>
  </g>
  <path stroke="#45413c" stroke-linecap="round" stroke-linejoin="round" d="M414.2754 349.96500000000003 322.54695000000004 100.2771c-0.447975 -1.21671 -1.360755 -2.20572 -2.5378650000000005 -2.749725 -1.17711 -0.544005 -2.52153 -0.598455 -3.738735 -0.150975L60.43950000000001 191.367" stroke-width="5"></path>
  <path fill="#45413c" d="M159.75135000000003 368.740845c41.373585 0 74.9133 -33.539715 74.9133 -74.9133s-33.539715 -74.9133 -74.9133 -74.9133 -74.9133 33.539715 -74.9133 74.9133 33.539715 74.9133 74.9133 74.9133Z" opacity=".15" stroke-width="5"></path>
  <path fill="#ffffff" d="M147.39615 357.533055c41.373585 0 74.9133 -33.539715 74.9133 -74.9133 0 -41.373090000000005 -33.539715 -74.9133 -74.9133 -74.9133s-74.9133 33.54021 -74.9133 74.9133c0 41.373585 33.539715 74.9133 74.9133 74.9133Z" stroke-width="5"></path>
  <path stroke="#45413c" stroke-linecap="round" stroke-linejoin="round" d="M147.39615 357.533055c41.373585 0 74.9133 -33.539715 74.9133 -74.9133 0 -41.373090000000005 -33.539715 -74.9133 -74.9133 -74.9133s-74.9133 33.54021 -74.9133 74.9133c0 41.373585 33.539715 74.9133 74.9133 74.9133Z" stroke-width="5"></path>
  <path fill="#f8f8f8" d="M147.39615 336.13074c29.552490000000002 0 53.5095 -23.957010000000004 53.5095 -53.5095s-23.957010000000004 -53.5095 -53.5095 -53.5095 -53.5095 23.957010000000004 -53.5095 53.5095 23.957010000000004 53.5095 53.5095 53.5095Z" stroke-width="5"></path>
  <path fill="#6dd627" stroke="#45413c" stroke-linecap="round" stroke-linejoin="round" d="M145.6488 268.16526c2.40273 -1.91862 4.148595 -4.53717 4.995540000000001 -7.492815 0.8469450000000001 -2.955645 0.75339 -6.101865 -0.26829 -9.00207 -1.022175 -2.8997100000000002 -2.920995 -5.409855 -5.433615 -7.181955 -2.5131150000000004 -1.771605 -5.514795 -2.71755 -8.589735000000001 -2.706165 -0.22275 0 -0.42569999999999997 0.0594 -0.6484500000000001 0.06435 -0.821205 -2.54034 -2.18493 -4.87179 -3.99762 -6.831990000000001 -1.8126900000000001 -1.959705 -4.03029 -3.5021250000000004 -6.49836 -4.518855 -2.468565 -1.0167300000000001 -5.1286950000000004 -1.484505 -7.79625 -1.3696650000000001 -2.6670599999999998 0.114345 -5.277690000000001 0.808335 -7.649730000000001 2.032965 -2.37204 1.225125 -4.44906 2.9516850000000003 -6.087015 5.05989 -1.63746 2.108205 -2.79675 4.5480599999999995 -3.3971850000000003 7.149285 -0.59994 2.601225 -0.62667 5.301945 -0.07821000000000002 7.91505 0.54846 2.6126100000000005 1.65924 5.074739999999999 3.25512 7.214625000000001 -0.33165000000000006 -0.0297 -0.6534000000000001 -0.099 -0.9900000000000001 -0.099 -2.460645 -0.0099 -4.85892 0.777645 -6.834465000000001 2.24433 -1.975545 1.46718 -3.422925 3.53529 -4.124835 5.893965000000001 -0.70191 2.358675 -0.6207300000000001 4.881195 0.23166 7.189875 0.85239 2.308185 2.42946 4.27878 4.49559 5.61528 -2.27106 1.27017 -4.26987 2.97495 -5.88258 5.017320000000001 -1.612215 2.04237 -2.80665 4.382235 -3.514995 6.88644 -1.430055 5.056920000000001 -0.792495 10.474695 1.7721 15.061860000000001 2.564595 4.58667 6.846345 7.967025 11.903265000000001 9.39708 5.056920000000001 1.430055 10.474695 0.7929900000000001 15.061860000000001 -1.771605 1.54638 1.87803 3.4565850000000005 3.42441 5.61627 4.544595 2.16018 1.120185 4.5243 1.7919 6.950295 1.97406 2.425995 0.18216000000000002 4.864365 -0.129195 7.167105 -0.91476 2.30274 -0.7850699999999999 4.42233 -2.0285100000000003 6.231555 -3.65508 1.809225 -1.627065 3.2704649999999997 -3.6031050000000002 4.29561 -5.809815 1.025145 -2.206215 1.5929099999999998 -4.59756 1.6686450000000002 -7.029495 0.07623 -2.431935 -0.34105500000000005 -4.85397 -1.226115 -7.12008 -0.88506 -2.26611 -2.21958 -4.329765 -3.923865 -6.06672 2.65518 -2.871495 4.38768 -6.474105000000001 4.97277 -10.341045000000001 0.58509 -3.867435 -0.00396 -7.821000000000001 -1.6909200000000002 -11.349855h0.01485Z" stroke-width="5"></path>
  <path fill="#6dd627" stroke="#45413c" stroke-linecap="round" stroke-linejoin="round" d="M173.99745000000001 267.893505c2.7041850000000003 -0.37125 5.225715000000001 -1.5750899999999999 7.215120000000001 -3.44421 1.9894049999999999 -1.8691200000000001 3.3471900000000003 -4.310955 3.886245 -6.98643 0.53856 -2.67597 0.231165 -5.453415 -0.8801100000000001 -7.946235 -1.111275 -2.4933150000000004 -2.970495 -4.57875 -5.320755 -5.967225 -0.1683 -0.099 -0.3564 -0.1485 -0.5247 -0.24255000000000002 0.541035 -2.31561 0.569745 -4.72131 0.08514000000000001 -7.049295 -0.48510000000000003 -2.32749 -1.472625 -4.52133 -2.893275 -6.42807 -1.421145 -1.90674 -3.2407649999999997 -3.47985 -5.332635 -4.61043 -2.09187 -1.13058 -4.4055 -1.790415 -6.779025 -1.933965 -2.373525 -0.14355 -4.749525 0.23265 -6.962670000000001 1.102365 -2.213145 0.869715 -4.20948 2.212155 -5.8494150000000005 3.9337649999999997 -1.6404299999999998 1.72161 -2.885355 3.7803150000000003 -3.6476550000000003 6.032565 -0.7623 2.25225 -1.02366 4.643595 -0.765765 7.007715 -0.228195 -0.18909 -0.46629000000000004 -0.365805 -0.7128 -0.52965 -1.8725850000000002 -1.115235 -4.05504 -1.5958800000000002 -6.222645000000001 -1.37016 -2.167605 0.225225 -4.20453 1.14444 -5.80734 2.62053 -1.6033050000000002 1.476585 -2.68686 3.4308450000000006 -3.08979 5.57271 -0.402435 2.14137 -0.10345499999999999 4.356 0.8538749999999999 6.314220000000001 -4.54905 0.045540000000000004 -8.90406 1.851795 -12.149775 5.0391 -3.2462100000000005 3.1878 -5.13117 7.50915 -5.25888 12.056715000000002 -0.128205 4.547565 1.510245 8.967915000000001 4.57182 12.33342s7.30719 5.413815 11.846835 5.715765c0.32373 2.13642 1.07712 4.18572 2.21463 6.023160000000001 1.13751 1.83744 2.63538 3.4258950000000006 4.40352 4.668345 1.76814 1.242945 3.7699200000000004 2.11464 5.8840650000000005 2.5626150000000005 2.114145 0.447975 4.297095 0.46282500000000004 6.417675 0.04356 2.120085 -0.41877 4.13325 -1.26324 5.91822 -2.481435 1.78497 -1.21869 3.30462 -2.786355 4.46688 -4.607955 1.16226 -1.822095 1.943865 -3.8605050000000003 2.2968 -5.992965000000001 0.35244000000000003 -2.131965 0.269775 -4.31343 -0.24354 -6.412725000000001 3.332835 -0.97812 6.2949150000000005 -2.93535 8.50212 -5.617755000000001 2.20671 -2.682405 3.55608 -5.96673 3.87288 -9.425295l0.00495 0.0198Z" stroke-width="5"></path>
  <path fill="#6dd627" stroke="#45413c" stroke-linecap="round" stroke-linejoin="round" d="M198.38115 274.1409c2.049795 -1.677555 3.52836 -3.9496050000000005 4.23126 -6.503310000000001 0.7024050000000001 -2.5537050000000003 0.59499 -5.262345 -0.30789 -7.752195 -0.903375 -2.48985 -2.5576650000000005 -4.63815 -4.733685 -6.147405 -2.176515 -1.509255 -4.768335 -2.305215 -7.416585 -2.27799 -0.1881 0 -0.37125 0.0495 -0.55935 0.0594 -0.73062 -2.1839399999999998 -1.927035 -4.183245 -3.5070750000000004 -5.858325 -1.58004 -1.67508 -3.50559 -2.9868300000000003 -5.643 -3.843675 -2.13741 -0.8568450000000001 -4.435695 -1.2389850000000002 -6.7354650000000005 -1.119195 -2.29977 0.11979000000000001 -4.54608 0.73854 -6.583005000000001 1.813185 -2.03643 1.07415 -3.8154600000000003 2.5789500000000003 -5.212845 4.408965 -1.397385 1.83051 -2.37996 3.94317 -2.8794150000000003 6.190965 -0.49945500000000004 2.247795 -0.504405 4.57776 -0.01386 6.827535 0.490545 2.25027 1.464705 4.366395 2.8546650000000002 6.20235 -0.28363499999999997 -0.041085 -0.569745 -0.06732 -0.85635 -0.07870500000000001 -2.122065 0.014355 -4.1822550000000005 0.715275 -5.873175000000001 1.9968299999999999 -1.6909200000000002 1.2820500000000001 -2.9219850000000003 3.0764250000000004 -3.50955 5.115330000000001 -0.587565 2.0394 -0.49995000000000006 4.21344 0.24997500000000003 6.198885 0.749925 1.9849500000000002 2.12157 3.674385 3.9105000000000003 4.81536 -3.761505 2.33739 -6.470145 6.04197 -7.557165 10.334610000000001 -1.08702 4.293135 -0.467775 8.840205000000001 1.7280450000000003 12.685860000000002 2.19582 3.8456550000000003 5.796945 6.689925 10.04652 7.93584 4.249575 1.2459149999999999 8.81694 0.7954650000000001 12.741299999999999 -1.2563100000000003 1.348875 1.6127099999999999 3.010095 2.935845 4.88367 3.88872 1.8740700000000001 0.952875 3.92139 1.5161850000000001 6.0192 1.6562700000000001 2.09781 0.140085 4.202055 -0.14652 6.18552 -0.84249 1.98396 -0.6954750000000001 3.806055 -1.7859600000000002 5.356890000000001 -3.205125 1.5508350000000002 -1.4196600000000001 2.798235 -3.1383 3.666465 -5.05296 0.8682300000000001 -1.91466 1.339965 -3.9852450000000004 1.3860000000000001 -6.087015 0.046035 -2.10177 -0.33412500000000006 -4.19067 -1.11771 -6.141465 -0.783585 -1.950795 -1.954755 -3.7228950000000003 -3.4417350000000004 -5.2083900000000005 2.27007 -2.49975 3.7382400000000002 -5.622705 4.213935 -8.965935 0.4752 -3.3427350000000002 -0.062865 -6.7513049999999994 -1.5458850000000002 -9.784665l0.0198 -0.00495Z" stroke-width="5"></path>
  <path fill="#ff6242" stroke="#45413c" stroke-linecap="round" stroke-linejoin="round" d="M124.08165000000001 333.19984500000004c12.02355 0 21.7701 -9.747045 21.7701 -21.7701 0 -12.02355 -9.746550000000001 -21.7701 -21.7701 -21.7701 -12.023055000000001 0 -21.7701 9.746550000000001 -21.7701 21.7701 0 12.023055000000001 9.747045 21.7701 21.7701 21.7701Z" stroke-width="5"></path>
  <path fill="#ff6242" d="M124.08165000000001 321.796035c5.724675 0 10.3653 -4.640625 10.3653 -10.3653 0 -5.724675 -4.640625 -10.3653 -10.3653 -10.3653 -5.724675 0 -10.3653 4.640625 -10.3653 10.3653 0 5.724675 4.640625 10.3653 10.3653 10.3653Z" stroke-width="5"></path>
  <path fill="#ff6242" stroke="#45413c" stroke-linecap="round" stroke-linejoin="round" d="M159.75135000000003 343.12905c12.023055000000001 0 21.7701 -9.747045 21.7701 -21.770595000000004 0 -12.023055000000001 -9.747045 -21.7701 -21.7701 -21.7701 -12.023055000000001 0 -21.7701 9.747045 -21.7701 21.7701 0 12.02355 9.747045 21.770595000000004 21.7701 21.770595000000004Z" stroke-width="5"></path>
  <path fill="#ff6242" d="M159.75135000000003 331.72474500000004c5.724675 0 10.3653 -4.640625 10.3653 -10.3653 0 -5.7241800000000005 -4.640625 -10.3653 -10.3653 -10.3653 -5.724675 0 -10.3653 4.64112 -10.3653 10.3653 0 5.724675 4.640625 10.3653 10.3653 10.3653Z" stroke-width="5"></path>
  <path fill="#ff6242" d="m116.55765000000001 262.55295 11.08305 -21.0375 9.4743 7.5141c2.5591500000000003 2.0334600000000003 5.604885 3.3625350000000003 8.835749999999999 3.85605l8.39025 1.2771000000000001c4.0372200000000005 0.612315 7.765065 2.5240050000000003 10.617750000000001 5.445l2.8611 2.9403c2.981385 3.063555 6.919605 5.017815000000001 11.16225 5.5390500000000005 5.94 0.72765 13.731300000000001 1.6731000000000003 13.51845 1.56915 -0.35145 -0.1683 -10.89 22.5621 -10.89 22.5621l-13.25115 -0.93555c-2.717055 -0.19107000000000002 -5.35986 -0.971685 -7.74477 -2.2869 -2.38491 -1.31571 -4.454505 -3.134835 -6.06573 -5.33115 -1.6062750000000001 -2.19087 -3.66894 -4.006530000000001 -6.04593 -5.321745 -2.3764950000000002 -1.315215 -5.010885 -2.0988 -7.720020000000001 -2.296305l-2.3265 -0.17325000000000002c-3.8006100000000003 -0.275715 -7.4264850000000004 -1.7037900000000001 -10.395000000000001 -4.09365l-11.5038 -9.2268Z" stroke-width="5"></path>
  <path stroke="#ffffff" stroke-linecap="round" stroke-linejoin="round" d="m185.28345 284.625 -13.25115 -0.93555c-2.717055 -0.19107000000000002 -5.35986 -0.971685 -7.74477 -2.287395 -2.38491 -1.315215 -4.454505 -3.13434 -6.06573 -5.330655 -1.6062750000000001 -2.19087 -3.66894 -4.006530000000001 -6.04593 -5.321745 -2.3764950000000002 -1.315215 -5.010885 -2.0988 -7.720020000000001 -2.296305l-2.3265 -0.17325000000000002c-3.8006100000000003 -0.27621 -7.4264850000000004 -1.7037900000000001 -10.395000000000001 -4.09365L120.2355 254.925" stroke-width="5"></path>
  <path stroke="#ffffff" stroke-linecap="round" stroke-linejoin="round" d="m189.09000000000003 276.76935 -13.25115 -0.93555c-2.717055 -0.19107000000000002 -5.35986 -0.971685 -7.74477 -2.2869 -2.38491 -1.31571 -4.454505 -3.134835 -6.06573 -5.33115 -1.6062750000000001 -2.19087 -3.66894 -4.006530000000001 -6.04593 -5.321745 -2.3764950000000002 -1.315215 -5.010885 -2.0988 -7.720020000000001 -2.296305l-2.3265 -0.1683c-3.8001150000000004 -0.281655 -7.425000000000001 -1.7107200000000002 -10.395000000000001 -4.0986l-11.498850000000001 -9.2466" stroke-width="5"></path>
  <path stroke="#45413c" stroke-linecap="round" stroke-linejoin="round" d="m116.55765000000001 262.55295 11.08305 -21.0375 9.4743 7.5141c2.5591500000000003 2.0334600000000003 5.604885 3.3625350000000003 8.835749999999999 3.85605l8.39025 1.2771000000000001c4.0372200000000005 0.612315 7.765065 2.5240050000000003 10.617750000000001 5.445l2.8611 2.9403c2.981385 3.063555 6.919605 5.017815000000001 11.16225 5.5390500000000005 5.94 0.72765 13.731300000000001 1.6731000000000003 13.51845 1.56915 -0.35145 -0.1683 -10.89 22.5621 -10.89 22.5621l-13.25115 -0.93555c-2.717055 -0.19107000000000002 -5.35986 -0.971685 -7.74477 -2.2869 -2.38491 -1.31571 -4.454505 -3.134835 -6.06573 -5.33115v0c-1.6062750000000001 -2.19087 -3.66894 -4.006530000000001 -6.04593 -5.321745 -2.3764950000000002 -1.315215 -5.010885 -2.0988 -7.720020000000001 -2.296305l-2.3265 -0.17325000000000002c-3.8006100000000003 -0.275715 -7.4264850000000004 -1.7037900000000001 -10.395000000000001 -4.09365l-11.5038 -9.2268Z" stroke-width="5"></path>
  <path fill="#ff6242" d="m118.5822 237.18915 11.08305 -21.0375 9.4644 7.5141c2.560635 2.0334600000000003 5.608350000000001 3.3625350000000003 8.8407 3.85605l8.3853 1.2820500000000001c4.0372200000000005 0.61182 7.765065 2.5235100000000004 10.617750000000001 5.445l2.86605 2.9403c2.98089 3.064545 6.91911 5.018805 11.16225 5.5390500000000005 5.94 0.7326 13.731300000000001 1.6731000000000003 13.5135 1.56915 -0.34650000000000003 -0.1683 -10.89 22.567050000000002 -10.89 22.567050000000002l-13.246200000000002 -0.9405c-2.71755 -0.19107000000000002 -5.361345 -0.971685 -7.74675 -2.2869 -2.3859 -1.31571 -4.456485 -3.134835 -6.0687 -5.33115 -1.6057800000000002 -2.18988 -3.6679500000000003 -4.005045 -6.043950000000001 -5.32026 -2.375505 -1.315215 -5.0084100000000005 -2.099295 -7.71705 -2.29779l-2.3265 -0.1683c-3.8001150000000004 -0.281655 -7.425000000000001 -1.7112150000000002 -10.395000000000001 -4.0986l-11.498850000000001 -9.23175Z" stroke-width="5"></path>
  <path stroke="#ffffff" stroke-linecap="round" stroke-linejoin="round" d="m187.30305 259.26070500000003 -13.246200000000002 -0.9405c-2.717055 -0.190575 -5.360355 -0.970695 -7.745265 -2.28591 -2.38491 -1.31571 -4.454505 -3.1353299999999997 -6.065235 -5.33214v0c-1.6082550000000002 -2.188395 -3.67191 -4.0020750000000005 -6.048405 -5.317290000000001 -2.376 -1.315215 -5.008905 -2.09979 -7.717545 -2.30076l-2.3265 -0.1683c-3.8001150000000004 -0.281655 -7.425000000000001 -1.7107200000000002 -10.395000000000001 -4.0986l-11.4939 -9.2466" stroke-width="5"></path>
  <path stroke="#ffffff" stroke-linecap="round" stroke-linejoin="round" d="m191.07000000000002 251.4105 -13.221449999999999 -0.9405c-2.71755 -0.19404 -5.360355 -0.976635 -7.74576 -2.29284s-4.456485 -3.134835 -6.06969 -5.33016v0c-1.6062750000000001 -2.189385 -3.668445 -4.004055 -6.0444450000000005 -5.31927 -2.375505 -1.315215 -5.0084100000000005 -2.09979 -7.716555 -2.29878l-2.3265 -0.1683c-3.8006100000000003 -0.278685 -7.4264850000000004 -1.7082450000000002 -10.395000000000001 -4.0986l-11.4939 -9.2466" stroke-width="5"></path>
  <path stroke="#45413c" stroke-linecap="round" stroke-linejoin="round" d="m118.5822 237.18915 11.08305 -21.0375 9.4644 7.5141c2.560635 2.0334600000000003 5.608350000000001 3.3625350000000003 8.8407 3.85605l8.3853 1.2820500000000001c4.0372200000000005 0.61182 7.765065 2.5235100000000004 10.617750000000001 5.445l2.86605 2.9403c2.98089 3.064545 6.91911 5.018805 11.16225 5.5390500000000005 5.94 0.7326 13.731300000000001 1.6731000000000003 13.5135 1.56915 -0.34650000000000003 -0.1683 -10.89 22.567050000000002 -10.89 22.567050000000002l-13.246200000000002 -0.9405c-2.71755 -0.19107000000000002 -5.361345 -0.971685 -7.74675 -2.2869 -2.3859 -1.31571 -4.456485 -3.134835 -6.0687 -5.33115v0c-1.6057800000000002 -2.18988 -3.6679500000000003 -4.005045 -6.043950000000001 -5.32026 -2.375505 -1.315215 -5.0084100000000005 -2.099295 -7.71705 -2.29779l-2.3265 -0.1683c-3.8001150000000004 -0.281655 -7.425000000000001 -1.7112150000000002 -10.395000000000001 -4.0986l-11.498850000000001 -9.23175Z" stroke-width="5"></path>
  <path fill="#45413c" d="m379.7343 267.088635 -37.35765 -31.2147 -8.34075 -6.970095 -27.31905 -22.82445 -0.3168 -0.26235 -17.1765 -14.355 -2.5839000000000003 -2.15325 -22.190849999999998 -18.5328c-1.1295899999999999 -0.939015 -2.355705 -1.75527 -3.6580500000000002 -2.4354l-3.61845 -15.4341c-1.343925 -5.32521 -4.70448 -9.9198 -9.37233 -12.814065 -4.66785 -2.89476 -10.277190000000001 -3.862485 -15.64497 -2.6992350000000003 -2.661615 0.6222150000000001 -5.1742349999999995 1.76319 -7.39431 3.3575850000000003 -2.220075 1.594395 -4.104045 3.6105300000000002 -5.5440000000000005 5.934060000000001 -1.439955 2.323035 -2.40768 4.90743 -2.847735 7.60518 -0.44055 2.697255 -0.344025 5.455395 0.282645 8.115525l34.3134 146.25765c1.3493700000000002 5.321745 4.711905 9.911880000000002 9.37827 12.803669999999999 4.666365 2.8917900000000003 10.273230000000002 3.859515 15.639030000000002 2.69973 2.661615 -0.6217199999999999 5.1742349999999995 -1.7626950000000001 7.39431 -3.3570900000000004 2.220075 -1.594395 4.104045 -3.611025 5.5440000000000005 -5.934060000000001 1.439955 -2.323035 2.40768 -4.90743 2.847735 -7.60518 0.44055 -2.697255 0.344025 -5.455395 -0.282645 -8.11602l-11.117700000000001 -47.3913 -2.475 -10.588049999999999 -1.4454 -6.157305 76.6062 64.007955c4.27383 3.445695 9.71784 5.097015000000001 15.18561 4.60647 5.467275000000001 -0.49005000000000004 10.531125 -3.08385 14.12334 -7.234920000000001 1.75428 -2.09583 3.0774150000000002 -4.51737 3.8951550000000004 -7.125030000000001 0.817245 -2.6081550000000004 1.112265 -5.35194 0.8682300000000001 -8.074440000000001 -0.24453 -2.7220050000000002 -1.02267 -5.369265 -2.291355 -7.790310000000001 -1.26819 -2.421045 -3.0016800000000003 -4.568355 -5.10048 -6.318675Z" opacity=".15" stroke-width="5"></path>
  <path fill="#ffdb94" d="m221.30212500000002 127.60605000000001 -3.174435 0.7717050000000001c-10.291050000000002 2.50173 -16.60527 12.872475 -14.103045 23.163525l36.262215000000005 149.149935c2.50173 10.291050000000002 12.872475 16.60527 23.163525 14.103045l3.17493 -0.7717050000000001c10.290555 -2.5022249999999997 16.604775 -12.87297 14.103045 -23.16402l-36.262215000000005 -149.14944c-2.5022249999999997 -10.291050000000002 -12.87297 -16.60527 -23.16402 -14.103045Z" stroke-width="5"></path>
  <path fill="#fff2d9" d="M240.07500000000002 134.26479c-3.4912350000000005 -1.01772 -7.18938 -1.095435 -10.72071 -0.22572s-6.770115 2.656665 -9.38916 5.179185c-2.61954 2.5230150000000005 -4.52628 5.6925 -5.528160000000001 9.188685000000001 -1.001385 3.496185 -1.06227 7.194825000000001 -0.17622000000000002 10.7217l35.4915 145.9755c0.8642700000000001 3.4615350000000005 2.6126100000000005 6.639435 5.0737499999999995 9.22185 -3.62835 -0.952875 -6.93198 -2.87001 -9.55944 -5.547960000000001 -2.62746 -2.6779500000000005 -4.481235 -6.01722 -5.36481 -9.66339L204.435 153.12429c-0.647955 -2.65518 -0.7662599999999999 -5.411835 -0.34798500000000004 -8.113050000000001 0.41827500000000006 -2.70072 1.36521 -5.293035 2.786355 -7.627455 1.42065 -2.334915 3.288285 -4.366395 5.49549 -5.97861 2.207205 -1.612215 4.71042 -2.77299 7.36659 -3.4169850000000004 3.64122 -0.8811 7.453215 -0.762795 11.033055 0.34155 3.57984 1.10484 6.794865000000001 3.1551299999999998 9.306495000000002 5.93505Z" stroke-width="5"></path>
  <path stroke="#45413c" stroke-linecap="round" stroke-linejoin="round" d="m221.30212500000002 127.60605000000001 -3.174435 0.7717050000000001c-10.291050000000002 2.50173 -16.60527 12.872475 -14.103045 23.163525l36.262215000000005 149.149935c2.50173 10.291050000000002 12.872475 16.60527 23.163525 14.103045l3.17493 -0.7717050000000001c10.290555 -2.5022249999999997 16.604775 -12.87297 14.103045 -23.16402l-36.262215000000005 -149.14944c-2.5022249999999997 -10.291050000000002 -12.87297 -16.60527 -23.16402 -14.103045Z" stroke-width="5"></path>
  <path fill="#b89558" stroke="#45413c" stroke-linecap="round" stroke-linejoin="round" d="M249.9057 164.098935c-4.55004 -0.335115 -9.101565 0.6331050000000001 -13.121459999999999 2.790315 -4.019895 2.15721 -7.34283 5.414805 -9.57924 9.391635l-0.17325000000000002 0.30195c-0.23067000000000001 0.419265 -0.335115 0.89595 -0.300465 1.373625 0.035145 0.47718 0.207405 0.934065 0.496485 1.315215 0.28908 0.381645 0.682605 0.670725 1.13256 0.8330850000000001 0.45045 0.16236000000000003 0.938025 0.190575 1.40382 0.08167500000000001l22.7205 -5.5242 -2.5789500000000003 -10.5633Z" stroke-width="5"></path>
  <path fill="#ffbe3d" stroke="#45413c" stroke-linecap="round" stroke-linejoin="round" d="M257.7663 196.411545c-4.552515 -0.33462 -9.10602 0.634095 -13.128885 2.792295 -4.0223700000000004 2.1582 -7.347285 5.416290000000001 -9.586665 9.39411l-0.1683 0.30195c-0.229185 0.41827500000000006 -0.33264 0.893475 -0.298485 1.368675 0.03465 0.47569500000000003 0.20542500000000002 0.931095 0.49252500000000005 1.3117500000000002 0.2871 0.380655 0.67815 0.67023 1.12563 0.8340750000000001 0.44748 0.163845 0.933075 0.194535 1.39788 0.0891l22.725450000000002 -5.5242 -2.5591500000000003 -10.567755Z" stroke-width="5"></path>
  <path fill="#ffbe3d" stroke="#45413c" stroke-linecap="round" stroke-linejoin="round" d="M266.2704 231.402105c-4.55499 -0.34056000000000003 -9.112455 0.6246900000000001 -13.13829 2.7819000000000003 -4.026330000000001 2.157705 -7.353225 5.4187650000000005 -9.59211 9.40005l-0.17325000000000002 0.30195c-0.23067000000000001 0.419265 -0.335115 0.896445 -0.300465 1.373625 0.03465 0.47718 0.207405 0.934065 0.496485 1.31571 0.28908 0.38115 0.682605 0.67023 1.13256 0.8325899999999999 0.45045 0.16236000000000003 0.938025 0.190575 1.40382 0.08167500000000001l22.7205 -5.5242 -2.5492500000000002 -10.5633Z" stroke-width="5"></path>
  <path fill="#ffdb94" d="m223.22124 162.859455 -2.094345 2.5071749999999997c-6.79041 8.127405 -5.70636 20.22075 2.421045 27.011160000000004l117.79317000000002 98.41392c8.127405 6.79041 20.22075 5.70636 27.011160000000004 -2.421045l2.09484 -2.5071749999999997c6.79041 -8.127405 5.70636 -20.22075 -2.421045 -27.011160000000004L250.2324 160.43841c-8.127405 -6.79041 -20.22075 -5.70636 -27.011160000000004 2.421045Z" stroke-width="5"></path>
  <path fill="#fff2d9" d="M242.28765 157.05360000000002c-3.4125300000000003 1.2563100000000003 -6.432525000000001 3.3912450000000005 -8.756055 6.188985 -2.323035 2.79774 -3.866445 6.15879 -4.4748 9.744075 -0.6078600000000001 3.5852850000000003 -0.25938 7.26759 1.011285 10.674675 1.270665 3.4070850000000004 3.417975 6.418665 6.22512 8.730315000000001l115.29045 96.32205c2.75121 2.26611 6.042960000000001 3.7803150000000003 9.5535 4.3956 -3.48579 1.38798 -7.281945 1.808235 -10.98702 1.2157200000000001 -3.7050750000000003 -0.592515 -7.1809650000000005 -2.175525 -10.06038 -4.58172l-115.2855 -96.32205c-2.09979 -1.7508150000000002 -3.833775 -3.898125 -5.10246 -6.319665 -1.2686849999999998 -2.4215400000000002 -2.04732 -5.069295 -2.29185 -7.79229 -0.244035 -2.7225 0.05148 -5.466780000000001 0.8692200000000001 -8.07543 0.8177400000000001 -2.6086500000000004 2.141865 -5.03019 3.89664 -7.126515 2.40372 -2.881395 5.542515 -5.0584050000000005 9.08325 -6.3003599999999995 3.540735 -1.2414600000000002 7.35174 -1.50183 11.0286 -0.75339Z" stroke-width="5"></path>
  <path stroke="#45413c" stroke-linecap="round" stroke-linejoin="round" d="m223.22124 162.859455 -2.094345 2.5071749999999997c-6.79041 8.127405 -5.70636 20.22075 2.421045 27.011160000000004l117.79317000000002 98.41392c8.127405 6.79041 20.22075 5.70636 27.011160000000004 -2.421045l2.09484 -2.5071749999999997c6.79041 -8.127405 5.70636 -20.22075 -2.421045 -27.011160000000004L250.2324 160.43841c-8.127405 -6.79041 -20.22075 -5.70636 -27.011160000000004 2.421045Z" stroke-width="5"></path>
  <path fill="#ffbe3d" stroke="#45413c" stroke-linecap="round" stroke-linejoin="round" d="M267.91380000000004 175.22950500000002c-3.851595 2.4354 -6.931485 5.915745 -8.880795 10.035135 -1.948815 4.118895 -2.68686 8.70705 -2.128005 13.229865l0.04455 0.34155c0.06336 0.473715 0.262845 0.919215 0.5742 1.2820500000000001 0.311355 0.362835 0.721215 0.6281550000000001 1.179585 0.76329 0.458865 0.135135 0.9464400000000001 0.134145 1.4048100000000001 -0.00198 0.45837 -0.136125 0.86724 -0.402435 1.177605 -0.7662599999999999l14.97375 -17.95365 -8.3457 -6.93Z" stroke-width="5"></path>
  <path fill="#ffbe3d" stroke="#45413c" stroke-linecap="round" stroke-linejoin="round" d="M293.44095 196.51599000000002c-3.861 2.4354 -6.94881 5.9202 -8.901585 10.04652 -1.95327 4.125825 -2.69082 8.72289 -2.127015 13.25313l0.0396 0.34155c0.062865 0.4752 0.261855 0.92169 0.573705 1.285515 0.311355 0.363825 0.7217100000000001 0.6296400000000001 1.181565 0.764775 0.45936 0.13563 0.94842 0.134145 1.40778 -0.00297 0.458865 -0.137115 0.8682300000000001 -0.40491 1.1781 -0.77022l14.99355 -17.94375 -8.3457 -6.974550000000001Z" stroke-width="5"></path>
  <path fill="#ffbe3d" stroke="#45413c" stroke-linecap="round" stroke-linejoin="round" d="M321.07185 219.61764c-3.859515 2.4354 -6.946335 5.919705 -8.899605000000001 10.04454 -1.9527750000000001 4.12533 -2.691315 8.72091 -2.128995 13.250160000000001l0.04455 0.34650000000000003c0.06336 0.473715 0.262845 0.919215 0.5742 1.2820500000000001 0.311355 0.362835 0.721215 0.6281550000000001 1.179585 0.76329 0.458865 0.135135 0.9464400000000001 0.134145 1.4048100000000001 -0.00198 0.45837 -0.13662 0.86724 -0.402435 1.177605 -0.7662599999999999l14.99355 -17.94375 -8.3457 -6.974550000000001Z" stroke-width="5"></path>
  <path fill="#45413c" d="M289.79775 426.555855c22.04532 0 39.9168 -17.87148 39.9168 -39.9168s-17.87148 -39.9168 -39.9168 -39.9168 -39.9168 17.87148 -39.9168 39.9168 17.87148 39.9168 39.9168 39.9168Z" opacity=".15" stroke-width="5"></path>
  <path fill="#ffffff" stroke="#45413c" stroke-linecap="round" stroke-linejoin="round" d="M321.5916 411.870195c1.61172 1.5656850000000002 3.774375 2.43441 6.02118 2.41857 2.246805 -0.01584 4.397085 -0.915255 5.98653 -2.5037100000000003 1.58895 -1.5884550000000002 2.489355 -3.7382400000000002 2.506185 -5.985045 0.01683 -2.2473 -0.850905 -4.41045 -2.416095 -6.022665l-14.1174 -14.1174 -12.09285 12.0978 14.11245 14.11245Z" stroke-width="5"></path>
  <path fill="#ffffff" stroke="#45413c" stroke-linecap="round" stroke-linejoin="round" d="M317.55735000000004 395.7426c-5.18364 5.18364 -11.788425 8.713485 -18.9783 10.14354 -7.189875 1.430055 -14.642595 0.6959700000000001 -21.415185 -2.10969 -6.772590000000001 -2.80566 -12.561119999999999 -7.5561750000000005 -16.63398 -13.651605 -4.07286 -6.09543 -6.246405 -13.261545 -6.246405 -20.592495 0 -7.330455000000001 2.173545 -14.49657 6.246405 -20.592000000000002 4.07286 -6.09543 9.86139 -10.84644 16.63398 -13.651605 6.772590000000001 -2.80566 14.22531 -3.539745 21.415185 -2.10969 7.189875 1.430055 13.79466 4.9599 18.9783 10.143045 6.950295 6.952275000000001 10.855350000000001 16.380045 10.855350000000001 26.210250000000002 0 9.8307 -3.9050550000000004 19.258470000000003 -10.855350000000001 26.210250000000002v0Z" stroke-width="5"></path>
  <path fill="#bf8256" d="M291.3471 395.19414c14.172345000000002 0 25.660800000000002 -11.488455 25.660800000000002 -25.660800000000002 0 -14.171850000000001 -11.488455 -25.660800000000002 -25.660800000000002 -25.660800000000002 -14.171850000000001 0 -25.660800000000002 11.48895 -25.660800000000002 25.660800000000002 0 14.172345000000002 11.48895 25.660800000000002 25.660800000000002 25.660800000000002Z" stroke-width="5"></path>
  <path fill="#915e3a" d="M316.34955 375.34464c-1.26324 -5.688045000000001 -4.4282699999999995 -10.775655 -8.97336 -14.421825 -4.544595 -3.646665 -10.197495 -5.633595 -16.024140000000003 -5.633595 -5.826645 0 -11.479545000000002 1.9869299999999999 -16.024140000000003 5.633595 -4.54509 3.64617 -7.710120000000001 8.73378 -8.97336 14.421825 -0.872685 -3.762495 -0.884565 -7.673985 -0.03465 -11.441925000000001 0.849915 -3.767445 2.5388550000000003 -7.295310000000001 4.94208 -10.319265000000001 2.403225 -3.023955 5.457870000000001 -5.466285 8.936235 -7.145325000000001 3.478365 -1.67904 7.29135 -2.550735 11.153834999999999 -2.550735 3.862485 0 7.67547 0.8716950000000001 11.153834999999999 2.550735 3.478365 1.67904 6.533505000000001 4.12137 8.936235 7.145325000000001 2.403225 3.023955 4.09266 6.551820000000001 4.94208 10.319265000000001 0.849915 3.7679400000000003 0.8380350000000001 7.67943 -0.03465 11.441925000000001Z" stroke-width="5"></path>
  <path stroke="#45413c" stroke-linecap="round" stroke-linejoin="round" d="M291.3471 395.19414c14.172345000000002 0 25.660800000000002 -11.488455 25.660800000000002 -25.660800000000002 0 -14.171850000000001 -11.488455 -25.660800000000002 -25.660800000000002 -25.660800000000002 -14.171850000000001 0 -25.660800000000002 11.48895 -25.660800000000002 25.660800000000002 0 14.172345000000002 11.48895 25.660800000000002 25.660800000000002 25.660800000000002Z" stroke-width="5"></path>
</svg>