<svg width="500" height="500" viewBox="0 0 500 500" fill="none" xmlns="http://www.w3.org/2000/svg">
<path d="M52 250C52 302.513 72.8607 352.875 109.993 390.007C147.125 427.139 197.487 448 250 448C302.513 448 352.875 427.139 390.007 390.007C427.139 352.875 448 302.513 448 250C448 197.487 427.139 147.125 390.007 109.993C352.875 72.8607 302.513 52 250 52C197.487 52 147.125 72.8607 109.993 109.993C72.8607 147.125 52 197.487 52 250Z" fill="#DAEDF7" stroke="#DAEDF7" stroke-width="5"/>
<path d="M52 250C52 302.513 72.8607 352.875 109.993 390.007C147.125 427.139 197.487 448 250 448C302.513 448 352.875 427.139 390.007 390.007C427.139 352.875 448 302.513 448 250C448 197.487 427.139 147.125 390.007 109.993C352.875 72.8607 302.513 52 250 52C197.487 52 147.125 72.8607 109.993 109.993C72.8607 147.125 52 197.487 52 250Z" fill="#DAEDF7" stroke="#DAEDF7" stroke-width="5"/>
<path d="M182.428 175.948L163.375 116.983C163.106 116.149 162.654 115.385 162.051 114.748C161.449 114.11 160.712 113.616 159.894 113.3C159.076 112.984 158.198 112.855 157.324 112.921C156.45 112.988 155.601 113.25 154.841 113.687L140.922 121.661C136.622 124.127 133.453 128.171 132.088 132.936C130.722 137.701 131.269 142.81 133.611 147.178L145.436 169.231L182.428 175.948Z" fill="#87898C"/>
<path d="M157.687 147.381C160.619 146.591 163.704 146.558 166.652 147.286C169.601 148.014 172.315 149.48 174.542 151.544L182.428 175.948L145.436 169.231L135.912 151.495C143.294 150.887 150.592 149.509 157.687 147.381Z" fill="#87898C"/>
<path d="M182.428 175.948L163.375 116.983C163.106 116.149 162.654 115.385 162.051 114.748C161.449 114.11 160.712 113.616 159.894 113.3C159.076 112.984 158.198 112.855 157.324 112.921C156.45 112.988 155.601 113.25 154.841 113.687L140.922 121.661C136.622 124.127 133.453 128.171 132.088 132.936C130.722 137.701 131.269 142.81 133.611 147.178L145.436 169.231L182.428 175.948Z" stroke="#45413C" stroke-width="5" stroke-linecap="round" stroke-linejoin="round"/>
<path opacity="0.15" d="M23.6563 377.854C23.6562 380.863 29.5108 383.843 40.8856 386.624C52.2605 389.405 68.9328 391.931 89.9508 394.059C110.969 396.188 135.921 397.876 163.382 399.027C190.843 400.179 220.276 400.772 250 400.772C279.724 400.772 309.157 400.179 336.618 399.027C364.079 397.876 389.031 396.188 410.049 394.059C431.067 391.931 447.739 389.405 459.114 386.624C470.489 383.843 476.344 380.863 476.344 377.854C476.344 374.844 470.489 371.864 459.114 369.083C447.739 366.302 431.067 363.776 410.049 361.648C389.031 359.52 364.079 357.831 336.618 356.68C309.157 355.528 279.724 354.935 250 354.935C220.276 354.935 190.843 355.528 163.382 356.68C135.921 357.831 110.969 359.52 89.9508 361.648C68.9328 363.776 52.2605 366.302 40.8856 369.083C29.5108 371.864 23.6562 374.844 23.6563 377.854Z" fill="#45413C"/>
<path d="M448.342 290.546C443.357 275.245 393.258 277.572 393.258 277.572C392.601 283.789 393.283 290.074 395.26 296.005C397.237 301.936 400.462 307.375 404.717 311.954L448.342 290.546Z" fill="white" stroke="#45413C" stroke-width="5" stroke-linecap="round" stroke-linejoin="round"/>
<path d="M52.2673 165.266C51.9871 164.187 51.9953 163.054 52.2909 161.98C52.5866 160.905 53.1593 159.927 53.9519 159.143C54.7444 158.36 55.7289 157.798 56.8067 157.515C57.8845 157.232 59.0179 157.237 60.0933 157.529C70.6144 160.616 81.4648 162.444 92.4168 162.974H135.398C142.952 162.423 150.422 161.038 157.673 158.846C161.723 157.751 166.028 158.107 169.843 159.852C173.659 161.598 176.743 164.623 178.562 168.404C194.527 201.416 221.874 227.554 255.574 242.011C301.881 261.88 355.871 277.572 393.258 277.572C392.601 283.789 393.283 290.074 395.26 296.005C397.237 301.936 400.462 307.375 404.717 311.954V332.012H40.8477V319.567C40.8497 300.854 44.0213 282.276 50.2279 264.622C60.6365 234.871 61.97 202.697 54.0592 172.186L52.2673 165.266Z" fill="#FF6242"/>
<path d="M169.142 169.102C160.457 171.733 151.507 173.393 142.456 174.052H91.006C78.0947 173.442 65.3008 171.307 52.891 167.691L52.2673 165.271C51.9871 164.192 51.9952 163.059 52.2909 161.984C52.5865 160.91 53.1593 159.932 53.9518 159.148C54.7444 158.365 55.7288 157.803 56.8067 157.52C57.8845 157.237 59.0179 157.242 60.0932 157.534C70.6144 160.621 81.4648 162.449 92.4167 162.979H135.398C142.952 162.427 150.422 161.043 157.673 158.851C161.723 157.755 166.028 158.111 169.843 159.857C173.659 161.603 176.743 164.628 178.562 168.409C178.631 168.553 178.72 168.681 178.789 168.825C175.594 168.183 172.295 168.278 169.142 169.102Z" fill="#FF6242"/>
<path d="M52.2673 165.266C51.9871 164.187 51.9953 163.054 52.2909 161.98C52.5866 160.905 53.1593 159.927 53.9519 159.143C54.7444 158.36 55.7289 157.798 56.8067 157.515C57.8845 157.232 59.0179 157.237 60.0933 157.529C70.6144 160.616 81.4648 162.444 92.4168 162.974H135.398C142.952 162.423 150.422 161.038 157.673 158.846C161.723 157.751 166.028 158.107 169.843 159.852C173.659 161.598 176.743 164.623 178.562 168.404C194.527 201.416 221.874 227.554 255.574 242.011C301.881 261.88 355.871 277.572 393.258 277.572C392.601 283.789 393.283 290.074 395.26 296.005C397.237 301.936 400.462 307.375 404.717 311.954V332.012H40.8477V319.567C40.8497 300.854 44.0213 282.276 50.2279 264.622C60.6365 234.871 61.97 202.697 54.0592 172.186L52.2673 165.266Z" stroke="#45413C" stroke-width="5" stroke-linecap="round" stroke-linejoin="round"/>
<path d="M267.191 332.012C319.175 332.007 370.67 321.977 418.854 302.47L448.341 290.536C449.729 289.973 451.218 289.701 452.715 289.737C454.212 289.773 455.686 290.115 457.046 290.742C458.406 291.37 459.622 292.27 460.621 293.386C461.619 294.503 462.378 295.812 462.85 297.233L470.112 319.013C471.026 321.758 470.86 324.749 469.648 327.377C468.436 330.005 466.269 332.073 463.587 333.16L432.818 345.614C380.196 366.913 323.96 377.863 267.191 377.863H40.8476C39.3273 377.863 37.8693 377.26 36.7944 376.185C35.7194 375.11 35.1155 373.652 35.1155 372.131V337.739C35.1155 336.986 35.2638 336.241 35.5519 335.546C35.84 334.851 36.2623 334.219 36.7947 333.687C37.327 333.155 37.959 332.734 38.6544 332.446C39.3498 332.159 40.0951 332.011 40.8476 332.012H267.191Z" fill="white"/>
<path d="M267.191 357.796C306.968 357.796 346.528 351.925 384.59 340.372L394.901 358.974C353.486 371.491 310.456 377.852 267.191 377.853H40.8476C39.3273 377.853 37.8693 377.25 36.7944 376.175C35.7194 375.1 35.1155 373.642 35.1155 372.121V357.796H267.191Z" fill="#F8F8F8"/>
<path d="M267.191 332.012C319.175 332.007 370.67 321.977 418.854 302.47L448.341 290.536C449.729 289.973 451.218 289.701 452.715 289.737C454.212 289.773 455.686 290.115 457.046 290.742C458.406 291.37 459.622 292.27 460.621 293.386C461.619 294.503 462.378 295.812 462.85 297.233L470.112 319.013C471.026 321.758 470.86 324.749 469.648 327.377C468.436 330.005 466.269 332.073 463.587 333.16L432.818 345.614C380.196 366.913 323.96 377.863 267.191 377.863H40.8476C39.3273 377.863 37.8693 377.26 36.7944 376.185C35.7194 375.11 35.1155 373.652 35.1155 372.131V337.739C35.1155 336.986 35.2638 336.241 35.5519 335.546C35.84 334.851 36.2623 334.219 36.7947 333.687C37.327 333.155 37.959 332.734 38.6544 332.446C39.3498 332.159 40.0951 332.011 40.8476 332.012H267.191Z" stroke="#45413C" stroke-width="5" stroke-linecap="round" stroke-linejoin="round"/>
<path d="M353.168 334.081C352.61 331.186 353.191 328.188 354.789 325.711C356.387 323.235 358.879 321.47 361.746 320.785C381.21 316.103 400.298 309.981 418.854 302.47L448.342 290.536C449.73 289.973 451.218 289.701 452.715 289.737C454.212 289.773 455.686 290.115 457.046 290.742C458.406 291.37 459.622 292.27 460.621 293.386C461.619 294.503 462.378 295.812 462.85 297.233L470.112 319.013C471.026 321.758 470.86 324.749 469.648 327.377C468.436 330.005 466.269 332.073 463.588 333.16L432.818 345.614C412.856 353.693 392.33 360.3 371.404 365.384C369.892 365.753 368.322 365.81 366.788 365.553C365.254 365.296 363.788 364.73 362.48 363.888C361.171 363.047 360.048 361.949 359.177 360.66C358.306 359.371 357.707 357.918 357.415 356.39L353.168 334.081Z" fill="white"/>
<path d="M429.878 331.972L469.127 316.087L470.117 319.018C471.029 321.763 470.862 324.753 469.649 327.38C468.436 330.007 466.269 332.074 463.588 333.16L432.818 345.614C412.856 353.693 392.33 360.3 371.404 365.384C369.893 365.751 368.323 365.808 366.789 365.55C365.256 365.292 363.79 364.726 362.482 363.885C361.174 363.044 360.051 361.946 359.18 360.657C358.309 359.369 357.708 357.917 357.415 356.39L357.029 354.356C381.912 349.008 406.286 341.519 429.878 331.972Z" fill="#F8F8F8"/>
<path d="M353.168 334.081C352.61 331.186 353.191 328.188 354.789 325.711C356.387 323.235 358.879 321.47 361.746 320.785C381.21 316.103 400.298 309.981 418.854 302.47L448.342 290.536C449.73 289.973 451.218 289.701 452.715 289.737C454.212 289.773 455.686 290.115 457.046 290.742C458.406 291.37 459.622 292.27 460.621 293.386C461.619 294.503 462.378 295.812 462.85 297.233L470.112 319.013C471.026 321.758 470.86 324.749 469.648 327.377C468.436 330.005 466.269 332.073 463.588 333.16L432.818 345.614C412.856 353.693 392.33 360.3 371.404 365.384C369.892 365.753 368.322 365.81 366.788 365.553C365.254 365.296 363.788 364.73 362.48 363.888C361.171 363.047 360.048 361.949 359.177 360.66C358.306 359.371 357.707 357.918 357.415 356.39L353.168 334.081Z" stroke="#45413C" stroke-width="5" stroke-linecap="round" stroke-linejoin="round"/>
<path d="M398.327 303.024L314.766 297.644C282.429 295.561 251.119 285.461 223.661 268.254C196.203 251.048 173.46 227.276 157.485 199.084L136.987 162.915" stroke="#45413C" stroke-width="5" stroke-linecap="round" stroke-linejoin="round"/>
<path d="M339.882 288.174C340.975 288.434 342.12 288.368 343.175 287.984C344.231 287.601 345.151 286.917 345.822 286.016L354.881 273.854C355.788 272.634 356.175 271.104 355.954 269.6C355.734 268.096 354.925 266.74 353.705 265.833C352.485 264.925 350.955 264.539 349.451 264.759C347.946 264.98 346.591 265.789 345.684 267.008L336.625 279.175C335.719 280.394 335.334 281.922 335.554 283.425C335.774 284.928 336.581 286.281 337.798 287.189C338.42 287.654 339.129 287.989 339.882 288.174Z" fill="white" stroke="#45413C" stroke-width="5" stroke-linecap="round" stroke-linejoin="round"/>
<path d="M309.84 282.056C310.657 282.056 311.464 281.881 312.207 281.544C312.951 281.207 313.614 280.715 314.152 280.101L325.146 267.563C325.655 266.999 326.046 266.339 326.298 265.623C326.55 264.906 326.656 264.147 326.612 263.388C326.568 262.63 326.373 261.888 326.04 261.206C325.706 260.524 325.24 259.914 324.669 259.414C324.098 258.913 323.434 258.531 322.714 258.289C321.994 258.047 321.233 257.951 320.475 258.006C319.718 258.061 318.979 258.266 318.301 258.609C317.623 258.952 317.021 259.426 316.528 260.004L305.534 272.547C304.809 273.375 304.337 274.395 304.176 275.484C304.014 276.573 304.17 277.686 304.624 278.689C305.079 279.692 305.812 280.543 306.737 281.14C307.662 281.737 308.739 282.055 309.84 282.056Z" fill="white" stroke="#45413C" stroke-width="5" stroke-linecap="round" stroke-linejoin="round"/>
<path d="M284.417 272.235C285.233 272.236 286.039 272.063 286.782 271.727C287.525 271.39 288.187 270.899 288.724 270.285L299.718 257.747C300.214 257.18 300.594 256.521 300.835 255.807C301.077 255.094 301.176 254.339 301.126 253.588C301.076 252.836 300.879 252.101 300.545 251.426C300.211 250.75 299.748 250.147 299.181 249.651C298.614 249.155 297.955 248.775 297.241 248.533C296.528 248.292 295.773 248.193 295.022 248.243C294.27 248.293 293.535 248.49 292.86 248.824C292.184 249.158 291.581 249.621 291.085 250.188L280.091 262.726C279.363 263.554 278.89 264.575 278.727 265.665C278.565 266.755 278.721 267.869 279.176 268.873C279.631 269.877 280.366 270.728 281.294 271.325C282.221 271.921 283.3 272.237 284.402 272.235H284.417Z" fill="white" stroke="#45413C" stroke-width="5" stroke-linecap="round" stroke-linejoin="round"/>
<path d="M259.514 262.801C260.33 262.801 261.136 262.626 261.879 262.289C262.622 261.952 263.284 261.46 263.82 260.845L274.819 248.307C275.772 247.158 276.238 245.682 276.12 244.194C276.001 242.706 275.307 241.323 274.184 240.339C273.062 239.355 271.599 238.848 270.109 238.925C268.618 239.002 267.216 239.658 266.201 240.753L255.202 253.292C254.477 254.12 254.005 255.14 253.844 256.23C253.683 257.319 253.839 258.432 254.294 259.436C254.749 260.439 255.483 261.29 256.409 261.886C257.334 262.483 258.412 262.801 259.514 262.801Z" fill="white" stroke="#45413C" stroke-width="5" stroke-linecap="round" stroke-linejoin="round"/>
<path d="M235.229 251.663C236.045 251.664 236.852 251.49 237.596 251.154C238.339 250.817 239.002 250.326 239.541 249.713L250.535 237.174C251.055 236.613 251.458 235.952 251.719 235.232C251.98 234.511 252.094 233.746 252.054 232.981C252.015 232.216 251.822 231.467 251.488 230.777C251.154 230.088 250.684 229.473 250.108 228.968C249.532 228.463 248.861 228.079 248.134 227.838C247.406 227.596 246.638 227.504 245.875 227.565C245.111 227.625 244.367 227.839 243.687 228.192C243.008 228.545 242.406 229.031 241.917 229.621L230.923 242.159C230.197 242.987 229.725 244.006 229.563 245.095C229.401 246.184 229.557 247.297 230.011 248.3C230.466 249.303 231.2 250.153 232.125 250.75C233.05 251.346 234.128 251.663 235.229 251.663Z" fill="white" stroke="#45413C" stroke-width="5" stroke-linecap="round" stroke-linejoin="round"/>
<path d="M212.776 235.521C213.594 235.518 214.401 235.339 215.144 234.998C215.886 234.656 216.548 234.16 217.082 233.541L228.076 221.003C228.621 220.445 229.046 219.783 229.326 219.055C229.605 218.328 229.734 217.551 229.703 216.772C229.672 215.993 229.483 215.229 229.147 214.526C228.811 213.823 228.335 213.196 227.748 212.683C227.161 212.17 226.476 211.782 225.734 211.543C224.993 211.304 224.21 211.218 223.434 211.292C222.658 211.365 221.905 211.596 221.222 211.971C220.538 212.345 219.938 212.855 219.458 213.469L208.465 226.012C207.739 226.841 207.267 227.861 207.106 228.951C206.945 230.04 207.101 231.153 207.556 232.156C208.011 233.159 208.745 234.01 209.671 234.607C210.596 235.204 211.675 235.521 212.776 235.521Z" fill="white" stroke="#45413C" stroke-width="5" stroke-linecap="round" stroke-linejoin="round"/>
<path d="M187.234 213.469C188.021 213.684 188.846 213.728 189.652 213.598C190.458 213.468 191.226 213.168 191.907 212.717L205.821 203.52C206.484 203.121 207.059 202.593 207.512 201.966C207.965 201.34 208.286 200.628 208.457 199.874C208.628 199.12 208.644 198.34 208.506 197.579C208.367 196.819 208.076 196.094 207.65 195.449C207.224 194.804 206.672 194.252 206.027 193.826C205.382 193.399 204.658 193.108 203.897 192.969C203.137 192.83 202.356 192.846 201.602 193.017C200.848 193.187 200.137 193.508 199.51 193.961L185.6 203.158C184.683 203.767 183.961 204.627 183.519 205.635C183.077 206.643 182.934 207.757 183.108 208.844C183.282 209.931 183.765 210.945 184.499 211.765C185.233 212.585 186.188 213.177 187.249 213.469H187.234Z" fill="white" stroke="#45413C" stroke-width="5" stroke-linecap="round" stroke-linejoin="round"/>
<path d="M168.622 184.373C169.309 184.813 170.082 185.103 170.889 185.221C171.697 185.34 172.52 185.285 173.305 185.061L189.338 180.467C190.061 180.26 190.736 179.912 191.325 179.444C191.914 178.976 192.405 178.396 192.769 177.738C193.134 177.08 193.366 176.356 193.451 175.609C193.536 174.862 193.473 174.105 193.266 173.381C193.058 172.658 192.71 171.983 192.242 171.394C191.774 170.805 191.194 170.315 190.536 169.95C189.878 169.585 189.155 169.354 188.407 169.269C187.66 169.183 186.903 169.246 186.18 169.454L170.147 174.042C169.087 174.346 168.138 174.948 167.412 175.777C166.686 176.605 166.215 177.626 166.054 178.716C165.893 179.806 166.05 180.919 166.505 181.923C166.961 182.926 167.696 183.777 168.622 184.373Z" fill="white" stroke="#45413C" stroke-width="5" stroke-linecap="round" stroke-linejoin="round"/>
<path d="M35.1155 357.796H267.191C296.854 357.795 326.427 354.53 355.376 348.06" stroke="#45413C" stroke-width="5" stroke-linecap="round" stroke-linejoin="round"/>
<path d="M29.3835 343.471H46.5749V366.389H29.3835V343.471Z" fill="white" stroke="#45413C" stroke-width="5" stroke-linecap="round" stroke-linejoin="round"/>
<path d="M75.2253 243.194C75.2253 253.073 79.1498 262.547 86.1352 269.533C93.1207 276.518 102.595 280.443 112.474 280.443C122.353 280.443 131.827 276.518 138.813 269.533C145.798 262.547 149.723 253.073 149.723 243.194C149.723 233.315 145.798 223.84 138.813 216.855C131.827 209.869 122.353 205.945 112.474 205.945C102.595 205.945 93.1207 209.869 86.1352 216.855C79.1498 223.84 75.2253 233.315 75.2253 243.194Z" fill="white" stroke="#45413C" stroke-width="5" stroke-linecap="round" stroke-linejoin="round"/>
<path d="M222.78 313.385C222.78 315.284 223.535 317.106 224.878 318.45C226.221 319.793 228.043 320.547 229.943 320.547C231.842 320.547 233.664 319.793 235.007 318.45C236.351 317.106 237.105 315.284 237.105 313.385C237.105 311.485 236.351 309.663 235.007 308.32C233.664 306.977 231.842 306.222 229.943 306.222C228.043 306.222 226.221 306.977 224.878 308.32C223.535 309.663 222.78 311.485 222.78 313.385Z" fill="#E04122" stroke="#45413C" stroke-width="5" stroke-linecap="round" stroke-linejoin="round"/>
<path d="M182.67 313.385C182.67 315.284 183.425 317.106 184.768 318.45C186.111 319.793 187.933 320.547 189.833 320.547C191.732 320.547 193.554 319.793 194.898 318.45C196.241 317.106 196.995 315.284 196.995 313.385C196.995 311.485 196.241 309.663 194.898 308.32C193.554 306.977 191.732 306.222 189.833 306.222C187.933 306.222 186.111 306.977 184.768 308.32C183.425 309.663 182.67 311.485 182.67 313.385Z" fill="#E04122" stroke="#45413C" stroke-width="5" stroke-linecap="round" stroke-linejoin="round"/>
<path d="M135.917 235.576L120.874 232.71L112.474 218.543L105.104 231.967L89.0359 235.576L99.52 246.733L97.9855 263.132L111.841 256.608L126.963 263.132L125.037 247.941L135.917 235.576Z" fill="#009FD9" stroke="#45413C" stroke-width="5" stroke-linecap="round" stroke-linejoin="round"/>
</svg>
