<svg width="405" height="405" viewBox="0 0 405 405" fill="none" xmlns="http://www.w3.org/2000/svg">
<path d="M400.5 202.5C400.5 255.013 379.639 305.375 342.507 342.507C305.375 379.639 255.013 400.5 202.5 400.5C149.987 400.5 99.6251 379.639 62.4929 342.507C25.3607 305.375 4.5 255.013 4.5 202.5C4.5 149.987 25.3607 99.6251 62.4929 62.4929C99.6251 25.3607 149.987 4.5 202.5 4.5C255.013 4.5 305.375 25.3607 342.507 62.4929C379.639 99.6251 400.5 149.987 400.5 202.5Z" fill="#DAEDF7" stroke="#DAEDF7" stroke-width="5"/>
<path d="M287.046 72.6121C287.032 80.5502 283.872 88.1591 278.259 93.7723C272.645 99.3854 265.037 102.545 257.098 102.56H235.318C233.874 102.56 232.489 103.133 231.468 104.154C230.447 105.175 229.873 106.56 229.873 108.005V129.785H213.538V108.005C213.538 106.56 212.965 105.175 211.944 104.154C210.922 103.133 209.538 102.56 208.093 102.56H186.313C178.371 102.56 170.754 99.4044 165.137 93.7882C159.521 88.1719 156.366 80.5546 156.366 72.6121C156.366 64.6695 159.521 57.0522 165.137 51.436C170.754 45.8197 178.371 42.6646 186.313 42.6646C191.907 42.6663 197.366 44.3727 201.965 47.5564C206.564 50.7402 210.083 55.2499 212.053 60.4846L216.593 72.6121C216.982 73.65 217.678 74.5445 218.589 75.1759C219.5 75.8074 220.583 76.1457 221.691 76.1457C222.8 76.1457 223.882 75.8074 224.793 75.1759C225.704 74.5445 226.4 73.65 226.79 72.6121L231.329 60.4846C233.293 55.2459 236.811 50.7323 241.411 47.5476C246.011 44.363 251.474 42.6593 257.069 42.6646C265.015 42.6619 272.637 45.8153 278.258 51.4313C283.88 57.0472 287.041 64.666 287.046 72.6121ZM197.203 73.8001C197.209 71.5542 196.549 69.3571 195.306 67.4864C194.063 65.6158 192.294 64.1557 190.221 63.2909C188.148 62.426 185.866 62.1952 183.662 62.6275C181.458 63.0599 179.432 64.1361 177.84 65.72C176.248 67.3039 175.161 69.3244 174.717 71.526C174.273 73.7275 174.492 76.0113 175.346 78.0884C176.2 80.1656 177.651 81.9428 179.515 83.1954C181.379 84.4481 183.573 85.1198 185.818 85.1257C188.826 85.1192 191.709 83.9258 193.841 81.8049C195.973 79.6841 197.181 76.8072 197.203 73.8001ZM268.86 73.8001C268.86 71.5601 268.195 69.3704 266.951 67.5079C265.706 65.6454 263.938 64.1938 261.868 63.3366C259.799 62.4794 257.521 62.2551 255.324 62.6921C253.128 63.1291 251.11 64.2077 249.526 65.7917C247.942 67.3756 246.863 69.3936 246.426 71.5905C245.989 73.7875 246.213 76.0647 247.07 78.1342C247.928 80.2037 249.379 81.9725 251.242 83.217C253.104 84.4614 255.294 85.1257 257.534 85.1257C260.533 85.1101 263.405 83.9118 265.525 81.7912C267.646 79.6706 268.844 76.799 268.86 73.8001Z" fill="#ADC4D9"/>
<path d="M257.099 52.5495C251.504 52.5443 246.041 54.2479 241.441 57.4326C236.841 60.6172 233.323 65.1309 231.359 70.3695C230.624 72.3323 229.307 74.0238 227.585 75.218C225.863 76.4122 223.817 77.0521 221.721 77.0521C219.625 77.0521 217.579 76.4122 215.857 75.218C214.135 74.0238 212.818 72.3323 212.083 70.3695C210.113 65.1349 206.594 60.6251 201.995 57.4414C197.396 54.2577 191.936 52.5512 186.343 52.5495C179.262 52.5494 172.41 55.0614 167.007 59.6388C161.604 64.2162 158 70.5619 156.836 77.547C156.09 73.2571 156.294 68.8556 157.433 64.6529C158.572 60.4501 160.619 56.5483 163.429 53.2224C166.24 49.8965 169.746 47.2274 173.699 45.4032C177.653 43.579 181.959 42.6441 186.314 42.6644C191.907 42.6661 197.367 44.3725 201.965 47.5563C206.564 50.74 210.083 55.2497 212.054 60.4844L216.593 72.6069C216.982 73.6449 217.678 74.5394 218.59 75.1708C219.501 75.8022 220.583 76.1406 221.691 76.1406C222.8 76.1406 223.882 75.8022 224.793 75.1708C225.704 74.5394 226.401 73.6449 226.79 72.6069L231.329 60.4844C233.293 55.2457 236.811 50.7321 241.411 47.5474C246.011 44.3628 251.474 42.6591 257.069 42.6644C265.01 42.6696 272.624 45.8265 278.239 51.4416C283.854 57.0567 287.011 64.6709 287.016 72.6119C287.007 74.2715 286.858 75.9273 286.571 77.5619C285.405 70.5829 281.805 64.2422 276.411 59.6638C271.016 55.0854 264.174 52.5651 257.099 52.5495Z" fill="#DAEDF7"/>
<path d="M287.046 72.6121C287.032 80.5502 283.872 88.1591 278.259 93.7723C272.645 99.3854 265.037 102.545 257.098 102.56H235.318C233.874 102.56 232.489 103.133 231.468 104.154C230.447 105.175 229.873 106.56 229.873 108.005V129.785H213.538V108.005C213.538 106.56 212.965 105.175 211.944 104.154C210.922 103.133 209.538 102.56 208.093 102.56H186.313C178.371 102.56 170.754 99.4044 165.137 93.7882C159.521 88.1719 156.366 80.5546 156.366 72.6121C156.366 64.6695 159.521 57.0522 165.137 51.436C170.754 45.8197 178.371 42.6646 186.313 42.6646C191.907 42.6663 197.366 44.3727 201.965 47.5564C206.564 50.7402 210.083 55.2499 212.053 60.4846L216.593 72.6121C216.982 73.65 217.678 74.5445 218.589 75.1759C219.5 75.8074 220.583 76.1457 221.691 76.1457C222.8 76.1457 223.882 75.8074 224.793 75.1759C225.704 74.5445 226.4 73.65 226.79 72.6121L231.329 60.4846C233.293 55.2459 236.811 50.7323 241.411 47.5476C246.011 44.363 251.474 42.6593 257.069 42.6646C265.015 42.6619 272.637 45.8153 278.258 51.4313C283.88 57.0472 287.041 64.666 287.046 72.6121ZM197.203 73.8001C197.209 71.5542 196.549 69.3571 195.306 67.4864C194.063 65.6158 192.294 64.1557 190.221 63.2909C188.148 62.426 185.866 62.1952 183.662 62.6275C181.458 63.0599 179.432 64.1361 177.84 65.72C176.248 67.3039 175.161 69.3244 174.717 71.526C174.273 73.7275 174.492 76.0113 175.346 78.0884C176.2 80.1656 177.651 81.9428 179.515 83.1954C181.379 84.4481 183.573 85.1198 185.818 85.1257C188.826 85.1192 191.709 83.9258 193.841 81.8049C195.973 79.6841 197.181 76.8072 197.203 73.8001ZM268.86 73.8001C268.86 71.5601 268.195 69.3704 266.951 67.5079C265.706 65.6454 263.938 64.1938 261.868 63.3366C259.799 62.4794 257.521 62.2551 255.324 62.6921C253.128 63.1291 251.11 64.2077 249.526 65.7917C247.942 67.3756 246.863 69.3936 246.426 71.5905C245.989 73.7875 246.213 76.0647 247.07 78.1342C247.928 80.2037 249.379 81.9725 251.242 83.217C253.104 84.4614 255.294 85.1257 257.534 85.1257C260.533 85.1101 263.405 83.9118 265.525 81.7912C267.646 79.6706 268.844 76.799 268.86 73.8001Z" stroke="#45413C" stroke-width="5" stroke-linecap="round" stroke-linejoin="round"/>
<path d="M214.454 285.442C216.571 283.934 219.2 283.326 221.764 283.753C224.328 284.18 226.618 285.606 228.131 287.719L253.228 322.864C253.982 323.919 255.088 324.67 256.346 324.982C257.605 325.294 258.934 325.147 260.093 324.567L274.577 317.34C276.903 316.178 279.595 315.986 282.061 316.809C284.528 317.631 286.567 319.4 287.729 321.726C288.892 324.051 289.083 326.744 288.26 329.21C287.438 331.677 285.669 333.715 283.343 334.878L244.139 354.48C242.988 355.055 241.734 355.399 240.45 355.49C239.166 355.581 237.876 355.418 236.655 355.011C235.434 354.604 234.305 353.96 233.332 353.116C232.36 352.273 231.563 351.246 230.987 350.094C230.412 348.943 230.069 347.689 229.977 346.405C229.886 345.121 230.049 343.831 230.456 342.61C230.864 341.388 231.507 340.259 232.351 339.287C233.195 338.314 234.221 337.518 235.373 336.942C235.721 336.769 236.026 336.523 236.269 336.221C236.513 335.918 236.687 335.567 236.781 335.19C236.876 334.814 236.887 334.422 236.815 334.04C236.742 333.659 236.588 333.298 236.363 332.982L212.187 299.134C211.437 298.086 210.9 296.901 210.608 295.646C210.316 294.39 210.274 293.09 210.484 291.818C210.695 290.547 211.154 289.329 211.835 288.235C212.516 287.141 213.406 286.192 214.454 285.442Z" fill="#FFCC99" stroke="#45413C" stroke-width="5" stroke-linecap="round" stroke-linejoin="round"/>
<path d="M249.649 317.87C244.56 322.006 239.029 325.566 233.155 328.482L212.177 299.119C210.776 297 210.251 294.42 210.714 291.922C211.178 289.424 212.592 287.203 214.66 285.727C216.728 284.252 219.288 283.636 221.801 284.01C224.314 284.385 226.583 285.72 228.131 287.734L249.659 317.874" fill="#FFAA54"/>
<path d="M214.454 285.442C216.571 283.934 219.2 283.326 221.764 283.753C224.328 284.18 226.618 285.606 228.131 287.719L253.228 322.864C253.982 323.919 255.088 324.67 256.346 324.982C257.605 325.294 258.934 325.147 260.093 324.567L274.577 317.34C276.903 316.178 279.595 315.986 282.061 316.809C284.528 317.631 286.567 319.4 287.729 321.726C288.892 324.051 289.083 326.744 288.26 329.21C287.438 331.677 285.669 333.715 283.343 334.878L244.139 354.48C242.988 355.055 241.734 355.399 240.45 355.49C239.166 355.581 237.876 355.418 236.655 355.011C235.434 354.604 234.305 353.96 233.332 353.116C232.36 352.273 231.563 351.246 230.987 350.094C230.412 348.943 230.069 347.689 229.977 346.405C229.886 345.121 230.049 343.831 230.456 342.61C230.864 341.388 231.507 340.259 232.351 339.287C233.195 338.314 234.221 337.518 235.373 336.942C235.721 336.769 236.026 336.523 236.269 336.221C236.513 335.918 236.687 335.567 236.781 335.19C236.876 334.814 236.887 334.422 236.815 334.04C236.742 333.659 236.588 333.298 236.363 332.982L212.187 299.134C211.437 298.086 210.9 296.901 210.608 295.646C210.316 294.39 210.274 293.09 210.484 291.818C210.695 290.547 211.154 289.329 211.835 288.235C212.516 287.141 213.406 286.192 214.454 285.442Z" stroke="#45413C" stroke-width="5" stroke-linecap="round" stroke-linejoin="round"/>
<path opacity="0.15" d="M280.586 360.078C280.586 362.071 271.618 363.982 255.655 365.392C239.692 366.801 218.041 367.592 195.466 367.592C172.891 367.592 151.24 366.801 135.277 365.392C119.314 363.982 110.346 362.071 110.346 360.078C110.346 358.085 119.314 356.174 135.277 354.765C151.24 353.356 172.891 352.564 195.466 352.564C218.041 352.564 239.692 353.356 255.655 354.765C271.618 356.174 280.586 358.085 280.586 360.078Z" fill="#45413C"/>
<path d="M99.6389 233.373C98.7194 233.375 97.8104 233.57 96.9714 233.946C96.1323 234.322 95.3819 234.871 94.7692 235.556C94.1564 236.242 93.695 237.049 93.4151 237.925C93.1351 238.801 93.0429 239.726 93.1445 240.64C98.1688 285.526 148.901 320.805 194.803 320.805C217.988 320.799 240.222 311.585 256.616 295.189C273.009 278.794 282.221 256.559 282.225 233.373V185.611C282.225 177.888 280.704 170.241 277.748 163.107C274.793 155.972 270.461 149.489 265.001 144.029C259.54 138.568 253.057 134.236 245.923 131.281C238.788 128.326 231.141 126.805 223.419 126.805C215.696 126.805 208.049 128.326 200.915 131.281C193.78 134.236 187.297 138.568 181.836 144.029C176.376 149.489 172.044 155.972 169.089 163.107C166.134 170.241 164.613 177.888 164.613 185.611V220.32C164.613 223.786 163.236 227.11 160.785 229.561C158.334 232.011 155.01 233.388 151.545 233.388L99.6389 233.373Z" fill="#FFE500"/>
<path d="M282.225 209.43V233.398C282.214 256.579 273 278.807 256.607 295.198C240.214 311.588 217.984 320.798 194.803 320.805C148.901 320.805 98.1688 285.536 93.1445 240.65C92.9828 239.194 93.3138 237.726 94.0847 236.48C94.8555 235.235 96.0215 234.284 97.3965 233.779C111.38 270.221 154.896 296.862 194.818 296.862C217.994 296.838 240.213 287.617 256.596 271.224C272.979 254.831 282.186 232.606 282.195 209.43" fill="#EBCB00"/>
<path d="M99.6389 233.373C98.7194 233.375 97.8104 233.57 96.9714 233.946C96.1323 234.322 95.3819 234.871 94.7692 235.556C94.1564 236.242 93.695 237.049 93.4151 237.925C93.1351 238.801 93.0429 239.726 93.1445 240.64C98.1688 285.526 148.901 320.805 194.803 320.805C217.988 320.799 240.222 311.585 256.616 295.189C273.009 278.794 282.221 256.559 282.225 233.373V185.611C282.225 177.888 280.704 170.241 277.748 163.107C274.793 155.972 270.461 149.489 265.001 144.029C259.54 138.568 253.057 134.236 245.923 131.281C238.788 128.326 231.141 126.805 223.419 126.805C215.696 126.805 208.049 128.326 200.915 131.281C193.78 134.236 187.297 138.568 181.836 144.029C176.376 149.489 172.044 155.972 169.089 163.107C166.134 170.241 164.613 177.888 164.613 185.611V220.32C164.613 223.786 163.236 227.11 160.785 229.561C158.334 232.011 155.01 233.388 151.545 233.388L99.6389 233.373Z" stroke="#45413C" stroke-width="5" stroke-linecap="round" stroke-linejoin="round"/>
<path d="M260.811 182.344C260.811 186.205 260.05 190.028 258.573 193.596C257.095 197.163 254.929 200.404 252.199 203.135C249.469 205.865 246.227 208.031 242.66 209.509C239.093 210.986 235.269 211.747 231.408 211.747C227.547 211.747 223.723 210.986 220.156 209.509C216.589 208.031 213.347 205.865 210.617 203.135C207.887 200.404 205.721 197.163 204.243 193.596C202.766 190.028 202.005 186.205 202.005 182.344C202.005 178.482 202.766 174.659 204.243 171.092C205.721 167.524 207.887 164.283 210.617 161.553C213.347 158.822 216.589 156.656 220.156 155.179C223.723 153.701 227.547 152.941 231.408 152.941C235.269 152.941 239.093 153.701 242.66 155.179C246.227 156.656 249.469 158.822 252.199 161.553C254.929 164.283 257.095 167.524 258.573 171.092C260.05 174.659 260.811 178.482 260.811 182.344Z" fill="white" stroke="#45413C" stroke-width="5" stroke-linecap="round" stroke-linejoin="round"/>
<path d="M256.504 171.949C256.504 175.848 254.955 179.587 252.198 182.344C249.441 185.101 245.702 186.65 241.803 186.65C237.904 186.65 234.164 185.101 231.407 182.344C228.65 179.587 227.101 175.848 227.101 171.949C227.101 168.049 228.65 164.31 231.407 161.553C234.164 158.796 237.904 157.247 241.803 157.247C245.702 157.247 249.441 158.796 252.198 161.553C254.955 164.31 256.504 168.049 256.504 171.949Z" fill="#4ACFFF" stroke="#45413C" stroke-width="5" stroke-linecap="round" stroke-linejoin="round"/>
<path d="M277.384 182.205C278.069 181.29 279.025 180.614 280.116 180.273C281.207 179.932 282.378 179.943 283.462 180.304L310.945 189.467C311.776 189.744 312.663 189.818 313.529 189.679C314.824 189.471 316.152 189.624 317.367 190.121C318.581 190.619 319.635 191.442 320.412 192.499C321.188 193.557 321.658 194.809 321.77 196.116C321.881 197.424 321.629 198.737 321.043 199.911L318.731 204.529C318.231 205.544 318.058 206.689 318.236 207.806C318.48 209.349 318.338 210.927 317.822 212.401C317.307 213.875 316.434 215.198 315.282 216.252C314.131 217.307 312.736 218.059 311.222 218.442C309.708 218.826 308.123 218.828 306.608 218.449L302.851 217.508C301.985 217.295 301.08 217.295 300.213 217.508L283.259 221.75C282.219 222.01 281.126 221.957 280.116 221.598C279.106 221.238 278.224 220.589 277.582 219.731L265.86 204.123C265.153 203.181 264.771 202.035 264.771 200.856C264.771 199.678 265.153 198.532 265.86 197.589L277.384 182.205Z" fill="#FFAA54" stroke="#45413C" stroke-width="5" stroke-linecap="round" stroke-linejoin="round"/>
<path d="M136.665 233.373C136.645 239.106 137.757 244.787 139.937 250.09C142.117 255.393 145.322 260.213 149.369 264.274C153.416 268.335 158.225 271.557 163.52 273.756C168.815 275.955 174.492 277.087 180.225 277.087" stroke="#45413C" stroke-width="5" stroke-linecap="round" stroke-linejoin="round"/>
<path d="M220.573 298.867C211.201 302.581 201.195 304.312 191.115 304.312C177.349 304.312 160.638 300.817 150.005 291.897" stroke="#45413C" stroke-width="5" stroke-linecap="round" stroke-linejoin="round"/>
<path d="M130.626 320.453C132.389 318.549 134.829 317.413 137.421 317.29C140.014 317.167 142.551 318.066 144.486 319.795C144.774 320.059 145.115 320.258 145.487 320.377C145.859 320.497 146.252 320.534 146.639 320.487C147.027 320.44 147.4 320.31 147.732 320.105C148.065 319.9 148.349 319.625 148.565 319.3L161.999 298.951C168.49 301.524 175.31 303.172 182.26 303.846L164.039 331.447C163.324 332.53 163.02 333.831 163.179 335.118C163.339 336.404 163.953 337.592 164.91 338.467L170.731 343.788C172.642 345.544 173.778 347.988 173.889 350.581C173.999 353.174 173.075 355.706 171.32 357.618C169.573 359.533 167.136 360.676 164.547 360.795C161.957 360.915 159.426 360.002 157.51 358.257L131.275 334.274C129.371 332.519 128.235 330.084 128.113 327.497C127.992 324.91 128.895 322.379 130.626 320.453Z" fill="#FFCC99"/>
<path d="M161.999 298.941C168.49 301.515 175.31 303.163 182.26 303.836L169.939 322.498C163.241 321.13 156.683 319.152 150.347 316.588L161.999 298.951L161.999 298.941Z" fill="#FFAA54"/>
<path d="M130.626 320.453C132.389 318.549 134.829 317.413 137.421 317.29C140.014 317.167 142.551 318.066 144.486 319.795C144.774 320.059 145.115 320.258 145.487 320.377C145.859 320.497 146.252 320.534 146.639 320.487C147.027 320.44 147.4 320.31 147.732 320.105C148.065 319.9 148.349 319.625 148.565 319.3L161.999 298.951C168.49 301.524 175.31 303.172 182.26 303.846L164.039 331.447C163.324 332.53 163.02 333.831 163.179 335.118C163.339 336.404 163.953 337.592 164.91 338.467L170.731 343.788C172.642 345.544 173.778 347.988 173.889 350.581C173.999 353.174 173.075 355.706 171.32 357.618C169.573 359.533 167.136 360.676 164.547 360.795C161.957 360.915 159.426 360.002 157.51 358.257L131.275 334.274C129.371 332.519 128.235 330.084 128.113 327.497C127.992 324.91 128.895 322.379 130.626 320.453Z" stroke="#45413C" stroke-width="5" stroke-linecap="round" stroke-linejoin="round"/>
</svg>
