<svg xmlns="http://www.w3.org/2000/svg" width="88" height="88" fill="none" viewBox="0 0 88 88"><path fill="#b8ecff" d="M84 44.005a39.998 39.998 0 0 0-64.477-31.642A40 40 0 0 0 7.564 60.505h72.872A39.84 39.84 0 0 0 84 44.005"/><path fill="#daedf7" d="M7.564 60.505a40 40 0 0 0 72.872 0z"/><path stroke="#45413c" stroke-linecap="round" stroke-linejoin="round" d="M5 60.505h78M.5 60.505H3M85 60.505h2.5"/><path fill="#bf8256" stroke="#45413c" stroke-linecap="round" stroke-linejoin="round" d="M78.219 20.193H37.5a1 1 0 0 0-1 1v23.872a1 1 0 0 0 1 1h40.719a1 1 0 0 0 1-1V21.193a1 1 0 0 0-1-1"/><path fill="#46b000" stroke="#45413c" stroke-linecap="round" stroke-linejoin="round" d="M75.813 22.599H39.907a1 1 0 0 0-1 1v19.059a1 1 0 0 0 1 1h35.906a1 1 0 0 0 1-1V23.599a1 1 0 0 0-1-1"/><path fill="#fff" d="M47.028 30.168a1 1 0 0 1 .436.099q.212.099.346.382.136.284.136.828v3.528h-.703V31.6q0-.446-.053-.644-.054-.198-.311-.198a.8.8 0 0 0-.423.135 1.4 1.4 0 0 0-.405.432v3.681h-.707V31.6q0-.446-.053-.644-.054-.198-.311-.198a.77.77 0 0 0-.427.135 1.45 1.45 0 0 0-.401.432v3.681h-.697v-4.738h.593l.045.549q.194-.274.432-.46a.95.95 0 0 1 .599-.188q.27 0 .508.13.239.127.352.495.193-.279.436-.45a1 1 0 0 1 .608-.175m4.078 0q.67 0 1.12.306.455.3.68.855.23.554.229 1.305 0 .724-.234 1.282a2 2 0 0 1-.689.878q-.45.315-1.116.315-.665 0-1.12-.306a1.9 1.9 0 0 1-.688-.86q-.23-.558-.23-1.3 0-.735.234-1.292a1.9 1.9 0 0 1 .688-.868q.459-.315 1.126-.315m0 .616q-.613 0-.928.455-.31.45-.31 1.404 0 .936.306 1.39.31.455.922.455t.919-.455q.31-.455.31-1.4t-.306-1.394q-.306-.455-.913-.455m7.542-.517-1.723 4.738h-.877l-1.71-4.738h.8l1.373 4.05 1.354-4.05zm2.04 2.637q.022.549.212.9.189.346.499.513.31.162.675.162t.657-.108q.297-.108.608-.32l.355.5a2.6 2.6 0 0 1-.76.41 2.6 2.6 0 0 1-.869.148q-.688 0-1.174-.31a2 2 0 0 1-.743-.865q-.252-.558-.252-1.291 0-.72.257-1.278.255-.558.72-.878.463-.32 1.093-.32.598 0 1.03.284.432.279.662.801.234.518.234 1.238 0 .12-.005.23-.004.103-.013.184zm1.287-2.115q-.526 0-.882.373-.352.375-.4 1.157h2.47q-.014-.76-.333-1.143-.32-.387-.855-.387m4.523 1.066q0 .702.122 1.26.12.554.36 1.017.238.459.598.873.365.42.846.846l-.396.414a9.3 9.3 0 0 1-1.25-1.224 4.7 4.7 0 0 1-.797-1.395q-.275-.77-.275-1.79 0-1.027.275-1.796.279-.77.796-1.395a9 9 0 0 1 1.251-1.22l.396.414a9.5 9.5 0 0 0-.85.85q-.36.415-.599.874a4 4 0 0 0-.36 1.012 6 6 0 0 0-.117 1.26m6.972 0q0-.705-.122-1.26a3.9 3.9 0 0 0-.355-1.012 4.4 4.4 0 0 0-.603-.873 9 9 0 0 0-.846-.85l.396-.415q.734.594 1.25 1.22.519.626.793 1.395.279.77.279 1.795 0 1.021-.28 1.791a4.6 4.6 0 0 1-.791 1.395 9 9 0 0 1-1.251 1.224l-.396-.414q.48-.427.841-.846a4.4 4.4 0 0 0 .603-.873q.24-.464.36-1.017.122-.558.122-1.26"/><path fill="#daedf7" stroke="#45413c" stroke-linecap="round" stroke-linejoin="round" d="M68.462 60.505H61.1a1.2 1.2 0 0 1-1.2-1.128l-.531-8.5h10.83l-.531 8.5a1.2 1.2 0 0 1-1.206 1.128"/><path fill="#daedf7" stroke="#45413c" stroke-linecap="round" stroke-linejoin="round" d="M67.787 48.471H61.77a2.407 2.407 0 0 0-2.406 2.407h10.83a2.407 2.407 0 0 0-2.407-2.407"/><path stroke="#45413c" stroke-linecap="round" stroke-linejoin="round" d="M64.779 53.285v4.813M67.787 53.285l-.602 4.813M61.77 53.285l.602 4.813M62.974 48.471v-1.2a1.2 1.2 0 0 1 1.2-1.2h1.2a1.2 1.2 0 0 1 1.2 1.2v1.2"/><path fill="#45413c" d="M27.382 82.781c7.352 0 13.312-.894 13.312-1.997s-5.96-1.997-13.312-1.997-13.312.894-13.312 1.997 5.96 1.997 13.312 1.997" opacity=".15"/><path fill="#ffcebf" stroke="#45413c" stroke-linecap="round" stroke-linejoin="round" d="M43.481 54.487a2.406 2.406 0 0 1-2.4 2.4c-5.294 0-11.213-5.138-11.213-12.015v-.809a2.403 2.403 0 0 1 4.806 0v.809c0 4.4 3.8 7.209 6.407 7.209a2.406 2.406 0 0 1 2.4 2.406"/><path fill="#ffcebf" d="M25.059 76.113h-4.806l-.801-9.611h5.607z"/><path fill="#ffb59e" d="M25.059 69.705h-5.34l-.267-3.203h5.607z"/><path stroke="#45413c" stroke-linecap="round" stroke-linejoin="round" d="M25.059 76.113h-4.806l-.801-9.611h5.607z"/><path fill="#ffcebf" d="M25.059 76.113h4.806l.801-9.611h-5.607z"/><path fill="#ffb59e" d="M25.059 69.705h5.34l.267-3.203h-5.607z"/><path stroke="#45413c" stroke-linecap="round" stroke-linejoin="round" d="M25.059 76.113h4.806l.801-9.611h-5.607zM25.059 66.502v12.815"/><path fill="#87898c" stroke="#45413c" stroke-linejoin="round" d="M25.059 76.113h4c3.925 0 4.826 4 4.826 4h-8.826z"/><path fill="#87898c" stroke="#45413c" stroke-linejoin="round" d="M20.253 76.113h4c3.925 0 4.826 4 4.826 4h-7.5a1.33 1.33 0 0 1-1.331-1.331z"/><path fill="#87898c" stroke="#45413c" stroke-linecap="round" stroke-linejoin="round" d="m17.85 52.885.727 12.363a1.33 1.33 0 0 0 1.329 1.257h10.305a1.33 1.33 0 0 0 1.329-1.254l.728-12.363z"/><path fill="#ffcebf" stroke="#45413c" stroke-linecap="round" stroke-linejoin="round" d="M13.044 46.477v12.015a2.403 2.403 0 0 0 4.806 0V46.477z"/><path stroke="#45413c" stroke-linecap="round" stroke-linejoin="round" d="m41.314 52.097 5.371-18.436"/><path fill="#ff6242" d="M35.472 40.87a11.214 11.214 0 0 0-22.428 0v5.607h4.811v6.408h14.413v-6.408h1.872a1.33 1.33 0 0 0 1.332-1.33z"/><path fill="#ff6242" d="M24.258 29.656A11.214 11.214 0 0 0 13.044 40.87v3.79a11.214 11.214 0 0 1 22.428 0v-3.79a11.214 11.214 0 0 0-11.214-11.214"/><path stroke="#45413c" stroke-linecap="round" stroke-linejoin="round" d="M35.472 40.87a11.214 11.214 0 0 0-22.428 0v5.607h4.811v6.408h14.413v-6.408h1.872a1.33 1.33 0 0 0 1.332-1.33z"/><path fill="#ffcebf" stroke="#45413c" stroke-linecap="round" stroke-linejoin="round" d="M27.9 30.263a1 1 0 0 1-.675-.947v-3.095h-4.613v2.725a1 1 0 0 1-.783.975q-.205.045-.409.1l3.642 10.049 3.468-9.571a11 11 0 0 0-.63-.236"/><path stroke="#45413c" stroke-linecap="round" stroke-linejoin="round" d="M17.85 48.88v-7.209M25.059 40.07v12.815"/><path fill="#fff" stroke="#45413c" stroke-linecap="round" stroke-linejoin="round" d="m21.418 30.02-2.027 5.015a1.33 1.33 0 0 0 1.234 1.83H23.9zM28.973 30.693l-.446-.2-2.307 6.372h3.273a1.332 1.332 0 0 0 1.234-1.83z"/><path stroke="#45413c" stroke-linecap="round" stroke-linejoin="round" d="M32.268 46.477a4.8 4.8 0 0 1 .882-2.772c.488-.788.738-1.7.72-2.626"/><path fill="#ffcebf" stroke="#45413c" stroke-linecap="round" stroke-linejoin="round" d="M24.819 9.27a8.01 8.01 0 0 0-8.009 8.01v1.6c-2.288 0-2.131 4.005.4 4.005h.007a7.987 7.987 0 0 0 15.612-2.4v-3.2a8.01 8.01 0 0 0-8.01-8.015"/><path fill="#45413c" d="M23.418 20.083a1.001 1.001 0 1 0 0-2.002 1.001 1.001 0 0 0 0 2.002M29.425 20.083a1.001 1.001 0 1 0 0-2.002 1.001 1.001 0 0 0 0 2.002"/><path fill="#ffb59e" d="M22.416 22.286a.8.8 0 1 1-1.6 0 .8.8 0 0 1 1.6 0"/><path stroke="#45413c" stroke-linecap="round" stroke-linejoin="round" d="M24.419 23.612a3 3 0 0 0 3.534.332q.249-.147.471-.332"/><path fill="#ffc44d" d="M19.2 19.683a3.2 3.2 0 0 1 3.2-3.2h11.249a.664.664 0 0 0 .659-.76 10.146 10.146 0 0 0-8.6-8.769A10.017 10.017 0 0 0 14.4 16.88v11.742a1.348 1.348 0 0 0 1.671 1.3c2-.478 2.89-1.887 3.135-3.827z"/><path fill="#ffdb94" d="M24.008 10.071a13.4 13.4 0 0 1 10.109 4.65 9.965 9.965 0 0 0-19.194-1.053 13.34 13.34 0 0 1 9.085-3.597"/><path stroke="#45413c" stroke-linejoin="round" d="M19.2 19.683a3.2 3.2 0 0 1 3.2-3.2h11.249a.664.664 0 0 0 .659-.76 10.146 10.146 0 0 0-8.6-8.769A10.017 10.017 0 0 0 14.4 16.88v11.742a1.348 1.348 0 0 0 1.671 1.3c2-.478 2.89-1.887 3.135-3.827z"/><path stroke="#45413c" stroke-linecap="round" stroke-linejoin="round" d="M24.809 16.479v-3.204M21.605 16.58v-3.305M28.013 16.479v-3.204"/></svg>