<svg width="440" height="440" viewBox="0 0 440 440" fill="none" xmlns="http://www.w3.org/2000/svg">
<path d="M22 234.959C22 287.472 42.8607 337.834 79.9929 374.966C117.125 412.098 167.487 432.959 220 432.959C272.513 432.959 322.875 412.098 360.007 374.966C397.139 337.834 418 287.472 418 234.959C418 182.446 397.139 132.084 360.007 94.9518C322.875 57.8196 272.513 36.959 220 36.959C167.487 36.959 117.125 57.8196 79.9929 94.9518C42.8607 132.084 22 182.446 22 234.959Z" fill="#DAEDF7" stroke="#DAEDF7" stroke-width="5"/>
<path d="M309.263 394.774H130.722C127.119 394.772 123.578 393.842 120.438 392.075C117.298 390.308 114.666 387.762 112.795 384.684C110.924 381.605 109.876 378.097 109.752 374.496C109.629 370.895 110.434 367.324 112.09 364.124L183.608 225.658C184.726 223.577 186.617 222.02 188.874 221.321C191.13 220.622 193.571 220.837 195.669 221.921C197.768 223.005 199.357 224.87 200.093 227.115C200.83 229.359 200.655 231.803 199.606 233.919L128.064 372.391C127.828 372.847 127.713 373.357 127.731 373.871C127.749 374.384 127.899 374.885 128.165 375.324C128.432 375.763 128.807 376.127 129.255 376.379C129.703 376.632 130.208 376.765 130.722 376.766H309.263C309.778 376.765 310.283 376.632 310.731 376.38C311.179 376.127 311.555 375.765 311.823 375.326C312.091 374.887 312.242 374.387 312.262 373.873C312.282 373.359 312.17 372.849 311.936 372.391L242.181 237.414C241.085 235.292 240.878 232.821 241.604 230.546C242.33 228.271 243.93 226.377 246.052 225.282C248.174 224.186 250.645 223.978 252.92 224.704C255.195 225.43 257.089 227.03 258.184 229.152L327.91 364.124C329.563 367.327 330.365 370.901 330.238 374.503C330.11 378.105 329.059 381.613 327.184 384.691C325.31 387.77 322.675 390.314 319.533 392.08C316.391 393.846 312.848 394.774 309.244 394.774H309.263Z" fill="#ADC4D9"/>
<path d="M302.482 354.096L242.181 237.414C241.085 235.292 240.878 232.821 241.604 230.546C242.33 228.271 243.93 226.377 246.052 225.282C248.174 224.186 250.644 223.978 252.92 224.704C255.195 225.43 257.089 227.03 258.184 229.153L318.361 345.606L302.482 354.096Z" fill="#627B8C"/>
<path d="M121.648 345.581L183.608 225.658C184.726 223.577 186.617 222.02 188.874 221.321C191.13 220.622 193.571 220.837 195.669 221.921C197.768 223.005 199.357 224.87 200.093 227.115C200.83 229.359 200.655 231.803 199.606 233.919L137.523 354.076L121.648 345.581Z" fill="#627B8C"/>
<path opacity="0.15" d="M116.08 402.19C116.08 403.659 118.752 405.114 123.945 406.471C129.138 407.828 136.75 409.062 146.345 410.1C155.94 411.139 167.331 411.963 179.868 412.525C192.405 413.088 205.841 413.377 219.411 413.377C232.981 413.377 246.417 413.088 258.954 412.525C271.491 411.963 282.882 411.139 292.477 410.1C302.072 409.062 309.684 407.828 314.877 406.471C320.069 405.114 322.742 403.659 322.742 402.19C322.742 399.223 311.856 396.378 292.477 394.28C273.099 392.182 246.816 391.003 219.411 391.003C192.006 391.003 165.723 392.182 146.345 394.28C126.966 396.378 116.08 399.223 116.08 402.19Z" fill="#45413C"/>
<path d="M309.263 394.774H130.722C127.119 394.772 123.578 393.842 120.438 392.075C117.298 390.308 114.666 387.762 112.795 384.684C110.924 381.605 109.876 378.097 109.752 374.496C109.629 370.895 110.434 367.324 112.09 364.124L183.608 225.658C184.726 223.577 186.617 222.02 188.874 221.321C191.13 220.622 193.571 220.837 195.669 221.921C197.768 223.005 199.357 224.87 200.093 227.115C200.83 229.359 200.655 231.803 199.606 233.919L128.064 372.391C127.828 372.847 127.713 373.357 127.731 373.871C127.749 374.384 127.899 374.885 128.165 375.324C128.432 375.763 128.807 376.127 129.255 376.379C129.703 376.632 130.208 376.765 130.722 376.766H309.263C309.778 376.765 310.283 376.632 310.731 376.38C311.179 376.127 311.555 375.765 311.823 375.326C312.091 374.887 312.242 374.387 312.262 373.873C312.282 373.359 312.17 372.849 311.936 372.391L242.181 237.414C241.085 235.292 240.878 232.821 241.604 230.546C242.33 228.271 243.93 226.377 246.052 225.282C248.174 224.186 250.645 223.978 252.92 224.704C255.195 225.43 257.089 227.03 258.184 229.152L327.91 364.124C329.563 367.327 330.365 370.901 330.238 374.503C330.11 378.105 329.059 381.613 327.184 384.691C325.31 387.77 322.675 390.314 319.533 392.08C316.391 393.846 312.848 394.774 309.244 394.774H309.263Z" stroke="#45413C" stroke-width="5" stroke-linecap="round" stroke-linejoin="round"/>
<path d="M220.03 23.1831C188.942 23.1831 158.553 32.4012 132.704 49.6719C106.856 66.9425 86.7085 91.4901 74.8105 120.211C62.9125 148.931 59.7979 180.535 65.8606 211.025C71.9233 241.516 86.891 269.524 108.871 291.508C130.851 313.492 158.856 328.465 189.346 334.534C219.835 340.602 251.439 337.494 280.162 325.601C308.885 313.708 333.436 293.566 350.712 267.721C367.987 241.875 377.211 211.487 377.217 180.4C377.221 159.755 373.158 139.312 365.26 120.238C357.363 101.164 345.785 83.832 331.188 69.2327C316.592 54.6334 299.262 43.0524 280.19 35.1511C261.117 27.2499 240.674 23.1831 220.03 23.1831ZM220 290.533C198.218 290.533 176.925 284.073 158.814 271.972C140.702 259.87 126.586 242.67 118.251 222.546C109.915 202.422 107.734 180.278 111.984 158.914C116.233 137.551 126.722 117.927 142.125 102.525C157.527 87.1223 177.151 76.6332 198.514 72.3837C219.878 68.1342 242.022 70.3152 262.146 78.6509C282.27 86.9865 299.47 101.102 311.572 119.214C323.673 137.325 330.133 158.618 330.133 180.4C330.138 194.864 327.293 209.188 321.76 222.552C316.227 235.916 308.115 248.059 297.887 258.287C287.659 268.515 275.516 276.627 262.152 282.16C248.788 287.693 234.464 290.538 220 290.533Z" fill="white"/>
<path d="M220.03 47.2796C259.632 47.2884 297.772 62.2408 326.828 89.1489C355.885 116.057 373.717 152.939 376.762 192.424C377.065 188.464 377.217 184.447 377.217 180.375C377.217 138.687 360.656 98.7054 331.178 69.2271C301.7 39.7487 261.718 23.188 220.03 23.188C178.341 23.188 138.36 39.7487 108.882 69.2271C79.4032 98.7054 62.8425 138.687 62.8425 180.375C62.8425 184.431 62.9943 188.447 63.2979 192.424C66.3346 152.936 84.1645 116.049 113.223 89.1397C142.281 62.23 180.425 47.2803 220.03 47.2796Z" fill="#F8F8F8"/>
<path d="M220.03 23.1831C188.942 23.1831 158.553 32.4012 132.704 49.6719C106.856 66.9425 86.7085 91.4901 74.8105 120.211C62.9125 148.931 59.7979 180.535 65.8606 211.025C71.9233 241.516 86.891 269.524 108.871 291.508C130.851 313.492 158.856 328.465 189.346 334.534C219.835 340.602 251.439 337.494 280.162 325.601C308.885 313.708 333.436 293.566 350.712 267.721C367.987 241.875 377.211 211.487 377.217 180.4C377.221 159.755 373.158 139.312 365.26 120.238C357.363 101.164 345.785 83.832 331.188 69.2327C316.592 54.6334 299.262 43.0524 280.19 35.1511C261.117 27.2499 240.674 23.1831 220.03 23.1831ZM220 290.533C198.218 290.533 176.925 284.073 158.814 271.972C140.702 259.87 126.586 242.67 118.251 222.546C109.915 202.422 107.734 180.278 111.984 158.914C116.233 137.551 126.722 117.927 142.125 102.525C157.527 87.1223 177.151 76.6332 198.514 72.3837C219.878 68.1342 242.022 70.3152 262.146 78.6509C282.27 86.9865 299.47 101.102 311.572 119.214C323.673 137.325 330.133 158.618 330.133 180.4C330.138 194.864 327.293 209.188 321.76 222.552C316.227 235.916 308.115 248.059 297.887 258.287C287.659 268.515 275.516 276.627 262.152 282.16C248.788 287.693 234.464 290.538 220 290.533Z" stroke="#45413C" stroke-width="5" stroke-linecap="round" stroke-linejoin="round"/>
<path d="M220.01 70.2575V23.2078" stroke="#ADC4D9" stroke-width="5" stroke-linecap="round" stroke-linejoin="round"/>
<path d="M262.006 78.5835L279.949 35.0879" stroke="#ADC4D9" stroke-width="5" stroke-linecap="round" stroke-linejoin="round"/>
<path d="M321.698 138.107L365.144 120.04" stroke="#ADC4D9" stroke-width="5" stroke-linecap="round" stroke-linejoin="round"/>
<path d="M321.817 222.406L365.312 240.35" stroke="#ADC4D9" stroke-width="5" stroke-linecap="round" stroke-linejoin="round"/>
<path d="M177.994 78.5835L160.051 35.0879" stroke="#ADC4D9" stroke-width="5" stroke-linecap="round" stroke-linejoin="round"/>
<path d="M118.302 138.107L74.8561 120.04" stroke="#ADC4D9" stroke-width="5" stroke-linecap="round" stroke-linejoin="round"/>
<path d="M118.183 222.406L74.6878 240.35" stroke="#ADC4D9" stroke-width="5" stroke-linecap="round" stroke-linejoin="round"/>
<path d="M177.707 282.098L159.64 325.544" stroke="#ADC4D9" stroke-width="5" stroke-linecap="round" stroke-linejoin="round"/>
<path d="M297.888 102.527L331.157 69.2529" stroke="#ADC4D9" stroke-width="5" stroke-linecap="round" stroke-linejoin="round"/>
<path d="M330.142 180.41H377.192" stroke="#ADC4D9" stroke-width="5" stroke-linecap="round" stroke-linejoin="round"/>
<path d="M297.873 258.288L331.147 291.562" stroke="#ADC4D9" stroke-width="5" stroke-linecap="round" stroke-linejoin="round"/>
<path d="M219.99 290.542V337.597" stroke="#ADC4D9" stroke-width="5" stroke-linecap="round" stroke-linejoin="round"/>
<path d="M142.112 258.278L108.843 291.547" stroke="#ADC4D9" stroke-width="5" stroke-linecap="round" stroke-linejoin="round"/>
<path d="M109.858 180.39H62.8078" stroke="#ADC4D9" stroke-width="5" stroke-linecap="round" stroke-linejoin="round"/>
<path d="M142.127 102.512L108.853 69.2427" stroke="#ADC4D9" stroke-width="5" stroke-linecap="round" stroke-linejoin="round"/>
<path d="M220.01 165.773V70.2676" stroke="#45413C" stroke-width="5" stroke-linecap="round" stroke-linejoin="round"/>
<path d="M234.627 180.41H330.133" stroke="#45413C" stroke-width="5" stroke-linecap="round" stroke-linejoin="round"/>
<path d="M220 290.533C198.218 290.533 176.925 284.074 158.814 271.972C140.702 259.871 126.586 242.67 118.251 222.546C109.915 202.422 107.734 180.278 111.984 158.914C116.233 137.551 126.722 117.927 142.125 102.525C157.527 87.1224 177.151 76.6333 198.514 72.3838C219.878 68.1343 242.022 70.3153 262.146 78.651C282.27 86.9866 299.47 101.103 311.572 119.214C323.673 137.325 330.133 158.618 330.133 180.4C330.138 194.864 327.293 209.188 321.76 222.552C316.227 235.916 308.115 248.059 297.887 258.287C287.659 268.515 275.516 276.627 262.152 282.16C248.788 287.693 234.464 290.538 220 290.533Z" stroke="#45413C" stroke-width="5" stroke-linecap="round" stroke-linejoin="round"/>
<path d="M262.293 282.098L280.36 325.544" stroke="#ADC4D9" stroke-width="5" stroke-linecap="round" stroke-linejoin="round"/>
<path d="M220.03 7.04102C185.74 7.03514 152.219 17.1982 123.705 36.2449C95.1922 55.2915 72.9677 82.3662 59.8429 114.045C46.7181 145.723 43.2825 180.582 49.9707 214.213C56.6588 247.844 73.1702 278.737 97.4167 302.983C121.663 327.23 152.556 343.741 186.187 350.429C219.818 357.117 254.677 353.682 286.355 340.557C318.034 327.432 345.108 305.208 364.155 276.694C383.202 248.181 393.365 214.66 393.359 180.37C393.346 134.404 375.08 90.3251 342.577 57.8225C310.075 25.3198 265.995 7.05414 220.03 7.04102ZM220.03 337.557C188.941 337.557 158.55 328.339 132.701 311.067C106.852 293.795 86.7047 269.245 74.8076 240.523C62.9105 211.801 59.7976 180.196 65.8627 149.705C71.9278 119.213 86.8985 91.2051 108.881 69.222C130.865 47.239 158.873 32.2684 189.364 26.2033C219.855 20.1382 251.46 23.251 280.183 35.1481C308.905 47.0453 333.454 67.1923 350.726 93.0417C367.998 118.891 377.217 149.282 377.217 180.37C377.223 201.014 373.161 221.457 365.264 240.53C357.366 259.604 345.788 276.934 331.191 291.531C316.594 306.129 299.263 317.707 280.19 325.604C261.116 333.502 240.673 337.563 220.03 337.557Z" fill="#4ACFFF" stroke="#45413C" stroke-width="5" stroke-linecap="round" stroke-linejoin="round"/>
<path d="M205.373 180.4C205.373 182.321 205.751 184.223 206.486 185.998C207.221 187.772 208.299 189.385 209.657 190.743C211.015 192.101 212.628 193.179 214.402 193.914C216.177 194.649 218.079 195.027 220 195.027C221.921 195.027 223.823 194.649 225.598 193.914C227.372 193.179 228.985 192.101 230.343 190.743C231.701 189.385 232.779 187.772 233.514 185.998C234.249 184.223 234.627 182.321 234.627 180.4C234.627 176.521 233.086 172.8 230.343 170.057C227.6 167.314 223.879 165.773 220 165.773C216.121 165.773 212.4 167.314 209.657 170.057C206.914 172.8 205.373 176.521 205.373 180.4Z" fill="#ADC4D9" stroke="#45413C" stroke-width="5" stroke-linecap="round" stroke-linejoin="round"/>
<path d="M205.373 180.39H109.867" stroke="#45413C" stroke-width="5" stroke-linecap="round" stroke-linejoin="round"/>
<path d="M178.296 214.263C176.195 209.745 175.6 204.671 176.599 199.789C177.598 194.907 180.137 190.475 183.845 187.145C187.552 183.815 192.23 181.763 197.191 181.292C202.151 180.82 207.132 181.954 211.4 184.526C215.668 187.099 218.998 190.973 220.898 195.58C222.799 200.186 223.17 205.281 221.957 210.114C220.744 214.947 218.012 219.264 214.162 222.427C210.312 225.591 205.548 227.435 200.571 227.688" fill="white"/>
<path d="M178.296 214.263C176.195 209.745 175.6 204.671 176.599 199.789C177.598 194.907 180.137 190.475 183.845 187.145C187.552 183.815 192.23 181.763 197.191 181.292C202.151 180.82 207.132 181.954 211.4 184.526C215.668 187.099 218.998 190.973 220.898 195.58C222.799 200.186 223.17 205.281 221.957 210.114C220.744 214.947 218.012 219.264 214.162 222.427C210.312 225.591 205.548 227.435 200.571 227.688" stroke="#45413C" stroke-width="5" stroke-linecap="round" stroke-linejoin="round"/>
<path d="M253.705 260.738C255.442 273.346 248.156 289.844 238.3 294.552C228.445 299.259 222.797 299.071 218.099 307.917C227.502 307.27 236.842 305.918 246.042 303.873C250.476 302.833 254.542 300.605 257.803 297.426C261.064 294.248 263.397 290.24 264.55 285.835C267.188 276.36 268.51 266.183 270.836 256.6" fill="#FFCABF"/>
<path d="M253.705 260.738C255.442 273.346 248.156 289.844 238.3 294.552C228.445 299.259 222.797 299.071 218.099 307.917C227.502 307.27 236.842 305.918 246.042 303.873C250.476 302.833 254.542 300.605 257.803 297.426C261.064 294.248 263.397 290.24 264.55 285.835C267.188 276.36 268.51 266.183 270.836 256.6" stroke="#45413C" stroke-width="5" stroke-linecap="round" stroke-linejoin="round"/>
<path d="M275.301 241.102C280.406 244.689 284.23 249.814 286.215 255.73C288.199 261.645 288.239 268.04 286.33 273.98C282.172 283.385 277.573 287.686 281.187 296.75C287.167 289.24 293.913 282.251 299.433 274.732C302.168 271.455 303.853 267.429 304.266 263.18C304.679 258.931 303.802 254.656 301.749 250.913C297.443 242.765 292.047 235.667 287.592 227.677" fill="#FFCABF"/>
<path d="M275.301 241.102C280.406 244.689 284.23 249.814 286.215 255.73C288.199 261.645 288.239 268.04 286.33 273.98C282.172 283.385 277.573 287.686 281.187 296.75C287.167 289.24 293.913 282.251 299.433 274.732C302.168 271.455 303.853 267.429 304.266 263.18C304.679 258.931 303.802 254.656 301.749 250.913C297.443 242.765 292.047 235.667 287.592 227.677" stroke="#45413C" stroke-width="5" stroke-linecap="round" stroke-linejoin="round"/>
<path d="M159.462 254.798C166.392 262.273 175.158 281.781 166.565 287.384C157.972 292.988 153.754 293.468 152.962 303.125C161.377 300.71 169.594 299.591 177.92 297.319C181.572 296.576 184.793 294.442 186.9 291.367C189.007 288.293 189.836 284.52 189.211 280.845C184.182 272.534 179.43 264.258 174.98 255.64" fill="#FFCABF"/>
<path d="M159.462 254.798C166.392 262.273 175.158 281.781 166.565 287.384C157.972 292.988 153.754 293.468 152.962 303.125C161.377 300.71 169.594 299.591 177.92 297.319C181.572 296.576 184.793 294.442 186.9 291.367C189.007 288.293 189.836 284.52 189.211 280.845C184.182 272.534 179.43 264.258 174.98 255.64" stroke="#45413C" stroke-width="5" stroke-linecap="round" stroke-linejoin="round"/>
<path d="M158.709 236.281C159.09 246.468 153.017 266.971 142.869 265.619C132.722 264.268 129.187 261.882 122.287 268.688C130.266 272.356 137.211 276.851 145.003 280.568C148.256 282.388 152.089 282.871 155.692 281.915C159.295 280.959 162.385 278.638 164.308 275.445C165.916 265.862 167.708 256.492 169.951 247.052" fill="#FFCABF"/>
<path d="M158.709 236.281C159.09 246.468 153.017 266.971 142.869 265.619C132.722 264.268 129.187 261.882 122.287 268.688C130.266 272.356 137.211 276.851 145.003 280.568C148.256 282.388 152.089 282.871 155.692 281.915C159.295 280.959 162.385 278.638 164.308 275.445C165.916 265.862 167.708 256.492 169.951 247.052" stroke="#45413C" stroke-width="5" stroke-linecap="round" stroke-linejoin="round"/>
<path d="M108.744 239.077C108.744 237.345 108.412 233.885 108.467 232.365C108.665 227.059 112.248 220.896 117.203 220.396C137.167 218.376 136.3 208.962 161.412 212.506C189.76 216.505 207.036 215.293 235.979 199.289C264.921 183.286 289.627 187.533 301.437 211.12C313.248 234.707 297.116 254.507 280.647 269.084C272.336 276.435 264.728 283.934 245.938 279.355C214.362 271.658 207.11 287.741 177.336 277.871C149.938 266.659 138.627 243.76 108.744 239.077Z" fill="#DAEDF7"/>
<path d="M112.234 239.726C113.269 238.955 114.49 238.471 115.773 238.325C136.068 236.276 135.162 226.717 160.659 230.316C189.444 234.375 206.986 233.147 236.394 216.896C265.802 200.646 290.844 204.957 302.858 228.91C303.645 230.472 304.331 232.082 304.912 233.731C306.341 226.019 305.12 218.05 301.447 211.12C289.642 187.533 264.931 183.286 235.993 199.289C207.056 215.293 189.775 216.505 161.432 212.506C136.31 208.962 137.177 218.376 117.218 220.396C112.268 220.891 108.679 227.059 108.481 232.365C108.427 233.885 108.754 237.345 108.759 239.077C109.943 239.265 111.102 239.482 112.234 239.726Z" fill="white"/>
<path d="M108.744 239.077C108.744 237.345 108.412 233.885 108.467 232.365C108.665 227.059 112.248 220.896 117.203 220.396C137.167 218.376 136.3 208.962 161.412 212.506C189.76 216.505 207.036 215.293 235.979 199.289C264.921 183.286 289.627 187.533 301.437 211.12C313.248 234.707 297.116 254.507 280.647 269.084C272.336 276.435 264.728 283.934 245.938 279.355C214.362 271.658 207.11 287.741 177.336 277.871C149.938 266.659 138.627 243.76 108.744 239.077Z" stroke="#45413C" stroke-width="5" stroke-linecap="round" stroke-linejoin="round"/>
<path d="M230.994 247.824C230.994 261.991 241.508 277.746 252.279 280.494" stroke="#45413C" stroke-width="5" stroke-linecap="round" stroke-linejoin="round"/>
<path d="M117.218 220.336C120.198 219.199 123.35 218.58 126.539 218.505C127.722 218.505 127.188 220.183 127.089 221.401C126.783 225.879 124.87 230.097 121.701 233.276C118.532 236.455 114.32 238.382 109.843 238.701C109.462 238.74 109.348 239.443 108.605 238.528C107.863 237.612 108.343 233.8 108.402 232.305C108.603 229.685 109.536 227.173 111.095 225.057C112.653 222.941 114.775 221.305 117.218 220.336Z" fill="#FFCABF" stroke="#45413C" stroke-width="5" stroke-linecap="round" stroke-linejoin="round"/>
<path d="M303.041 240.181C366.896 258.699 347.151 184.459 381.033 169.768" stroke="#45413C" stroke-width="5" stroke-linecap="round" stroke-linejoin="round"/>
<path d="M161.288 212.511C161.253 211.981 161.234 211.447 161.234 210.907C161.223 206.987 162.203 203.127 164.083 199.687C165.962 196.247 168.681 193.337 171.986 191.229C175.291 189.12 179.076 187.881 182.988 187.627C186.9 187.372 190.813 188.11 194.363 189.773C197.914 191.435 200.986 193.967 203.296 197.135C205.606 200.303 207.078 204.002 207.576 207.891C208.073 211.78 207.58 215.731 206.141 219.378C204.703 223.025 202.366 226.249 199.349 228.752" fill="white"/>
<path d="M161.288 212.511C161.253 211.981 161.234 211.447 161.234 210.907C161.223 206.987 162.203 203.127 164.083 199.687C165.962 196.247 168.681 193.337 171.986 191.229C175.291 189.12 179.076 187.881 182.988 187.627C186.9 187.372 190.813 188.11 194.363 189.773C197.914 191.435 200.986 193.967 203.296 197.135C205.606 200.303 207.078 204.002 207.576 207.891C208.073 211.78 207.58 215.731 206.141 219.378C204.703 223.025 202.366 226.249 199.349 228.752" stroke="#45413C" stroke-width="5" stroke-linecap="round" stroke-linejoin="round"/>
<path d="M199.363 228.751C195.557 236.548 157.605 220.302 161.412 212.506C165.218 204.709 180.895 200.997 188.691 204.803C196.488 208.61 203.17 220.955 199.363 228.751Z" fill="#FFCABF" stroke="#45413C" stroke-width="5" stroke-linecap="round" stroke-linejoin="round"/>
</svg>
