<svg xmlns="http://www.w3.org/2000/svg" width="130" height="130" fill="none"><path fill="#c7f0ff" stroke="#c7f0ff" stroke-miterlimit="10" stroke-width="1.6" d="M1 65a64 64 0 1 0 128 0A64 64 0 0 0 1 65z"/><path fill="#00b8f0" stroke="#45413c" stroke-linecap="round" stroke-linejoin="round" stroke-width="1.6" d="M81.712 96.84a2.672 2.672 0 0 1-4.4-.986 25 25 0 0 1 .432-16.76c1.976-5.808 1.986-14.116-3.912-20.014s-14.206-5.888-20.018-3.912a25 25 0 0 1-16.76.432 2.67 2.67 0 0 1-1.608-3.417 2.67 2.67 0 0 1 3.417-1.609 19.82 19.82 0 0 0 13.233-.462c7.33-2.493 17.882-2.438 25.512 5.192s7.68 18.182 5.194 25.514a19.82 19.82 0 0 0-.464 13.232c.17.476.203.992.092 1.486a2.67 2.67 0 0 1-.718 1.304"/><path fill="#009fd9" d="M48.053 56.576a32 32 0 0 0 5.76-1.41 22.6 22.6 0 0 1 5.033-1.081c.16-.683.354-1.344.569-1.975a34 34 0 0 0 .983-3.464 28 28 0 0 0-8.304 1.461 29 29 0 0 1-2.89.823 28 28 0 0 0-1.153 5.64"/><path stroke="#45413c" stroke-linecap="round" stroke-linejoin="round" stroke-width="1.6" d="m40.531 51.066 5.1-5.098m43.403 40.14 5.776-5.775"/><path fill="#4acfff" stroke="#45413c" stroke-linecap="round" stroke-linejoin="round" stroke-width="1.6" d="M44.538 43.872a2.555 2.555 0 0 0 4.362 1.807 2.555 2.555 0 0 0-3.614-3.614 2.56 2.56 0 0 0-.748 1.807"/><path fill="#00f5bc" stroke="#45413c" stroke-linecap="round" stroke-linejoin="round" stroke-width="1.6" d="M84.672 87.915a2.555 2.555 0 1 0 5.11 0 2.555 2.555 0 0 0-5.11 0"/><path stroke="#45413c" stroke-linecap="round" stroke-linejoin="round" stroke-width="1.6" d="M81.712 96.84a2.672 2.672 0 0 1-4.4-.986 25 25 0 0 1 .432-16.76c1.976-5.808 1.986-14.116-3.912-20.014s-14.206-5.888-20.018-3.912a25 25 0 0 1-16.76.432 2.67 2.67 0 0 1-1.608-3.417 2.67 2.67 0 0 1 3.417-1.609 19.82 19.82 0 0 0 13.233-.462c7.33-2.493 17.882-2.438 25.512 5.192s7.68 18.182 5.194 25.514a19.82 19.82 0 0 0-.464 13.232c.17.476.203.992.092 1.486a2.67 2.67 0 0 1-.718 1.304"/><path fill="#00f5bc" stroke="#45413c" stroke-linecap="round" stroke-linejoin="round" stroke-width="1.6" d="M98.543 80.011a2.67 2.67 0 0 1-2.792.626 19.84 19.84 0 0 0-13.234.462C75.186 83.592 64.634 83.538 57 75.907c-7.633-7.63-7.68-18.182-5.192-25.513a19.82 19.82 0 0 0 .463-13.232 2.67 2.67 0 0 1 .716-2.88 2.67 2.67 0 0 1 1.923-.692 2.67 2.67 0 0 1 2.386 1.764 25 25 0 0 1-.432 16.76c-1.974 5.81-1.985 14.118 3.912 20.017 5.898 5.9 14.208 5.888 20.018 3.912a25 25 0 0 1 16.758-.433 2.67 2.67 0 0 1 1.662 3.257 2.7 2.7 0 0 1-.675 1.144z"/><path fill="#00dba8" d="M87.4 74.525a28 28 0 0 1-1.109 5.571 28 28 0 0 0-3.779 1.006 27.9 27.9 0 0 1-8.93 1.468 34 34 0 0 1 .986-3.47q.313-.922.555-1.92a22.6 22.6 0 0 0 5.67-1.135 31.7 31.7 0 0 1 6.413-1.496"/><path stroke="#45413c" stroke-linecap="round" stroke-linejoin="round" stroke-width="1.6" d="M60.78 72.131c5.898 5.898 14.207 5.888 20.017 3.912a25 25 0 0 1 16.758-.433 2.67 2.67 0 0 1 1.765 2.385 2.67 2.67 0 0 1-.69 1.924 2.67 2.67 0 0 1-1.849.872 2.7 2.7 0 0 1-1.03-.154 19.84 19.84 0 0 0-13.234.462C75.186 83.592 64.634 83.538 57 75.907"/><path fill="#00b8f0" d="M84.051 68.542a27.64 27.64 0 0 1-1.25 12.274 19.82 19.82 0 0 0-.463 13.232 2.67 2.67 0 0 1-1.61 3.417 2.67 2.67 0 0 1-3.416-1.609 25 25 0 0 1 .432-16.76 22 22 0 0 0 .909-10.56"/><path stroke="#45413c" stroke-linecap="round" stroke-linejoin="round" stroke-width="1.6" d="M84.051 68.542a27.64 27.64 0 0 1-1.25 12.274 19.82 19.82 0 0 0-.463 13.232 2.67 2.67 0 0 1-1.61 3.417 2.67 2.67 0 0 1-3.416-1.609 25 25 0 0 1 .432-16.76 22 22 0 0 0 .909-10.56"/></svg>