<svg width="430" height="430" viewBox="0 0 430 430" fill="none" xmlns="http://www.w3.org/2000/svg">
<g clip-path="url(#clip0_242_27)">
<path d="M215 413C249.734 412.997 283.854 403.846 313.927 386.467C344 369.087 368.965 344.093 386.31 314H43.6904C61.0347 344.093 85.9996 369.087 116.073 386.467C146.146 403.846 180.266 412.997 215 413Z" fill="#CCF7AD"/>
<path d="M34.6418 296.675C37.3445 302.615 40.4333 308.372 43.6904 314H386.31C389.567 308.372 392.656 302.615 395.358 296.675H34.6418Z" fill="#CCF7AD"/>
<path d="M413 215C413.004 185.449 406.393 156.272 393.653 129.609C380.912 102.946 362.365 79.4728 339.372 60.9108C316.378 42.3489 289.521 29.169 260.771 22.3379C232.021 15.5067 202.106 15.1975 173.221 21.4329C144.335 27.6683 117.212 40.2901 93.8397 58.3728C70.4675 76.4555 51.4392 99.5404 38.1503 125.935C24.8614 152.329 17.6489 181.363 17.0418 210.907C16.4347 240.452 22.4484 269.757 34.6418 296.675H395.358C407.005 271.022 413.02 243.173 413 215Z" fill="#B8ECFF"/>
<path d="M21.95 296.675H408.05" stroke="#45413C" stroke-width="5" stroke-linecap="round" stroke-linejoin="round"/>
<path d="M-0.324951 296.675H12.05" stroke="#45413C" stroke-width="5" stroke-linecap="round" stroke-linejoin="round"/>
<path d="M417.95 296.675H430.325" stroke="#45413C" stroke-width="5" stroke-linecap="round" stroke-linejoin="round"/>
<path opacity="0.15" d="M184.048 361.584C184.048 363.455 190.488 365.249 201.953 366.572C213.417 367.895 228.967 368.638 245.18 368.638C261.393 368.638 276.943 367.895 288.407 366.572C299.872 365.249 306.313 363.455 306.313 361.584C306.313 359.714 299.872 357.919 288.407 356.597C276.943 355.274 261.393 354.531 245.18 354.531C228.967 354.531 213.417 355.274 201.953 356.597C190.488 357.919 184.048 359.714 184.048 361.584Z" fill="#45413C"/>
<path d="M402.714 293.398H216.965V142.918H402.714" fill="#FFF48C"/>
<path d="M402.714 293.398H216.965V142.918H402.714" stroke="#45413C" stroke-width="5" stroke-linecap="round" stroke-linejoin="round"/>
<path d="M231.073 171.133H327.474V244.022H231.073V171.133Z" fill="#00B8F0"/>
<path d="M235.79 171.133C234.543 171.133 233.347 171.629 232.465 172.51C231.583 173.392 231.087 174.588 231.087 175.836V239.319C231.087 240.567 231.583 241.763 232.465 242.645C233.347 243.526 234.543 244.022 235.79 244.022H236.23L309.104 171.133H235.79Z" fill="#4ACFFF"/>
<path d="M231.073 171.133H327.474V244.022H231.073V171.133Z" stroke="#45413C" stroke-width="5" stroke-linecap="round" stroke-linejoin="round"/>
<path d="M402.729 95.9178V142.943H198.17L214.629 95.9178H402.729Z" fill="#00DBA8"/>
<path d="M402.729 95.9178V114.728H208.045L214.629 95.9178H402.729Z" fill="#00DBA8"/>
<path d="M402.729 142.943H198.17L214.629 95.9178H402.729" stroke="#45413C" stroke-width="5" stroke-linecap="round" stroke-linejoin="round"/>
<path d="M311.03 293.398H207.575V244.269C207.575 242.957 208.096 241.697 209.025 240.769C209.953 239.841 211.212 239.319 212.525 239.319H306.08C307.393 239.319 308.652 239.841 309.58 240.769C310.508 241.697 311.03 242.957 311.03 244.269V293.398Z" fill="#627B8C"/>
<path d="M306.313 239.319H212.263C211.015 239.319 209.819 239.815 208.937 240.697C208.056 241.579 207.56 242.775 207.56 244.022V255.778H311.03V244.022C311.03 243.403 310.908 242.79 310.671 242.219C310.433 241.647 310.086 241.128 309.647 240.691C309.209 240.255 308.689 239.909 308.117 239.673C307.544 239.438 306.931 239.317 306.313 239.319Z" fill="#8CA4B8"/>
<path d="M311.03 293.398H207.575V244.269C207.575 242.957 208.096 241.697 209.025 240.769C209.953 239.841 211.212 239.319 212.525 239.319H306.08C307.393 239.319 308.652 239.841 309.58 240.769C310.508 241.697 311.03 242.957 311.03 244.269V293.398Z" stroke="#45413C" stroke-width="5" stroke-linecap="round" stroke-linejoin="round"/>
<path d="M393.309 293.398H336.879V176.083C336.879 174.77 337.4 173.511 338.329 172.583C339.257 171.655 340.516 171.133 341.829 171.133H388.359C389.672 171.133 390.931 171.655 391.859 172.583C392.787 173.511 393.309 174.77 393.309 176.083V293.398Z" fill="#00DBA8" stroke="#45413C" stroke-width="5" stroke-linecap="round" stroke-linejoin="round"/>
<path d="M346.284 180.538H383.904V215.807H346.284V180.538Z" fill="#00B8F0"/>
<path d="M379.201 180.538H350.986C349.739 180.538 348.543 181.034 347.661 181.915C346.779 182.797 346.284 183.993 346.284 185.241V211.104C346.285 212.299 346.74 213.448 347.558 214.32C348.375 215.191 349.492 215.719 350.684 215.797L383.384 183.092C382.989 182.323 382.39 181.678 381.652 181.227C380.914 180.777 380.066 180.538 379.201 180.538Z" fill="#4ACFFF"/>
<path d="M346.284 227.563H383.904V283.993H346.284V227.563Z" fill="#00B8F0"/>
<path d="M383.582 230.553C383.234 229.676 382.63 228.924 381.849 228.394C381.068 227.864 380.145 227.582 379.201 227.583H350.986C349.739 227.583 348.543 228.078 347.661 228.96C346.779 229.842 346.284 231.038 346.284 232.285V267.866L383.582 230.553Z" fill="#4ACFFF"/>
<path d="M346.284 227.563H383.904V283.993H346.284V227.563Z" stroke="#45413C" stroke-width="5" stroke-linecap="round" stroke-linejoin="round"/>
<path d="M346.284 180.538H383.904V215.807H346.284V180.538Z" stroke="#45413C" stroke-width="5" stroke-linecap="round" stroke-linejoin="round"/>
<path d="M402.714 67.6781H219.564C218.251 67.6781 216.992 68.1996 216.064 69.1279C215.136 70.0562 214.614 71.3153 214.614 72.6281V95.8931H402.714V67.6781Z" fill="#ADC4D9"/>
<path d="M219.317 67.6781C218.069 67.6781 216.873 68.1735 215.991 69.0554C215.109 69.9373 214.614 71.1334 214.614 72.3806V81.7856C214.614 80.5384 215.109 79.3423 215.991 78.4604C216.873 77.5785 218.069 77.0831 219.317 77.0831H402.714V67.6781H219.317Z" fill="#DAEDF7"/>
<path d="M402.714 67.6781H219.317C218.069 67.6781 216.873 68.1735 215.991 69.0554C215.109 69.9373 214.614 71.1334 214.614 72.3806V95.8931H402.714" stroke="#45413C" stroke-width="5" stroke-linecap="round" stroke-linejoin="round"/>
<path d="M264.005 239.319H240.492V216.054C240.492 214.742 241.014 213.482 241.942 212.554C242.871 211.626 244.13 211.104 245.442 211.104H259.055C260.368 211.104 261.627 211.626 262.555 212.554C263.483 213.482 264.005 214.742 264.005 216.054V239.319Z" fill="#ADC4D9"/>
<path d="M259.288 211.104H245.195C243.948 211.104 242.752 211.6 241.87 212.482C240.988 213.364 240.492 214.56 240.492 215.807V222.861C240.492 221.613 240.988 220.417 241.87 219.535C242.752 218.654 243.948 218.158 245.195 218.158H259.302C260.55 218.158 261.746 218.654 262.628 219.535C263.509 220.417 264.005 221.613 264.005 222.861V215.807C264.005 215.188 263.883 214.575 263.646 214.004C263.408 213.432 263.061 212.913 262.622 212.476C262.184 212.04 261.664 211.693 261.092 211.458C260.519 211.223 259.906 211.102 259.288 211.104Z" fill="#DAEDF7"/>
<path d="M238.126 187.592C238.126 189.463 238.87 191.257 240.192 192.58C241.515 193.902 243.309 194.646 245.18 194.646C247.051 194.646 248.845 193.902 250.168 192.58C251.491 191.257 252.234 189.463 252.234 187.592C252.234 185.721 251.491 183.927 250.168 182.604C248.845 181.281 247.051 180.538 245.18 180.538C243.309 180.538 241.515 181.281 240.192 182.604C238.87 183.927 238.126 185.721 238.126 187.592Z" fill="#FFE500"/>
<path d="M252.234 194.646C252.234 196.516 252.977 198.311 254.3 199.633C255.623 200.956 257.417 201.699 259.288 201.699C261.158 201.699 262.953 200.956 264.275 199.633C265.598 198.311 266.341 196.516 266.341 194.646C266.341 192.775 265.598 190.981 264.275 189.658C262.953 188.335 261.158 187.592 259.288 187.592C257.417 187.592 255.623 188.335 254.3 189.658C252.977 190.981 252.234 192.775 252.234 194.646Z" fill="#FFE500"/>
<path d="M245.195 185.241C246.653 185.241 248.075 185.694 249.266 186.536C250.456 187.378 251.357 188.568 251.843 189.943C252.186 188.974 252.314 187.942 252.217 186.919C252.12 185.896 251.801 184.906 251.281 184.019C250.761 183.132 250.054 182.37 249.209 181.785C248.364 181.2 247.401 180.807 246.388 180.633C245.375 180.459 244.336 180.509 243.344 180.778C242.352 181.048 241.431 181.531 240.646 182.194C239.86 182.857 239.229 183.683 238.796 184.616C238.364 185.548 238.14 186.564 238.141 187.592C238.141 188.393 238.277 189.188 238.542 189.943C239.029 188.568 239.93 187.377 241.122 186.535C242.313 185.693 243.736 185.241 245.195 185.241Z" fill="#FFF48C"/>
<path d="M259.288 192.294C260.746 192.295 262.168 192.747 263.359 193.589C264.549 194.432 265.449 195.622 265.935 196.997C266.279 196.028 266.407 194.996 266.31 193.973C266.213 192.949 265.893 191.96 265.374 191.073C264.854 190.186 264.147 189.423 263.302 188.838C262.457 188.253 261.494 187.86 260.481 187.686C259.468 187.513 258.429 187.562 257.437 187.832C256.445 188.102 255.524 188.585 254.739 189.248C253.953 189.911 253.322 190.737 252.889 191.67C252.457 192.602 252.233 193.618 252.234 194.646C252.234 195.446 252.37 196.241 252.635 196.997C253.122 195.622 254.023 194.431 255.214 193.589C256.406 192.747 257.829 192.295 259.288 192.294Z" fill="#FFF48C"/>
<path d="M238.126 187.592C238.126 189.463 238.87 191.257 240.192 192.58C241.515 193.902 243.309 194.646 245.18 194.646C247.051 194.646 248.845 193.902 250.168 192.58C251.491 191.257 252.234 189.463 252.234 187.592C252.234 185.721 251.491 183.927 250.168 182.604C248.845 181.281 247.051 180.538 245.18 180.538C243.309 180.538 241.515 181.281 240.192 182.604C238.87 183.927 238.126 185.721 238.126 187.592Z" stroke="#45413C" stroke-width="5" stroke-linecap="round" stroke-linejoin="round"/>
<path d="M252.234 194.646C252.234 196.516 252.977 198.311 254.3 199.633C255.623 200.956 257.417 201.699 259.288 201.699C261.158 201.699 262.953 200.956 264.275 199.633C265.598 198.311 266.341 196.516 266.341 194.646C266.341 192.775 265.598 190.981 264.275 189.658C262.953 188.335 261.158 187.592 259.288 187.592C257.417 187.592 255.623 188.335 254.3 189.658C252.977 190.981 252.234 192.775 252.234 194.646Z" stroke="#45413C" stroke-width="5" stroke-linecap="round" stroke-linejoin="round"/>
<path d="M247.096 194.383L249.883 211.104" stroke="#45413C" stroke-width="5" stroke-linecap="round" stroke-linejoin="round"/>
<path d="M257.031 201.328L254.585 211.104" stroke="#45413C" stroke-width="5" stroke-linecap="round" stroke-linejoin="round"/>
<path d="M303.961 239.319H275.746V216.054C275.746 214.742 276.268 213.482 277.196 212.554C278.124 211.626 279.384 211.104 280.696 211.104H299.011C300.324 211.104 301.583 211.626 302.512 212.554C303.44 213.482 303.961 214.742 303.961 216.054V239.319Z" fill="#ADC4D9"/>
<path d="M299.259 211.104H280.449C279.202 211.104 278.006 211.6 277.124 212.482C276.242 213.364 275.746 214.56 275.746 215.807V222.861C275.746 221.613 276.242 220.417 277.124 219.535C278.006 218.654 279.202 218.158 280.449 218.158H299.259C300.506 218.158 301.702 218.654 302.584 219.535C303.466 220.417 303.961 221.613 303.961 222.861V215.807C303.961 214.56 303.466 213.364 302.584 212.482C301.702 211.6 300.506 211.104 299.259 211.104Z" fill="#DAEDF7"/>
<path d="M264.005 239.319H240.492V216.054C240.492 214.742 241.014 213.482 241.942 212.554C242.871 211.626 244.13 211.104 245.442 211.104H259.055C260.368 211.104 261.627 211.626 262.555 212.554C263.483 213.482 264.005 214.742 264.005 216.054V239.319Z" stroke="#45413C" stroke-width="5" stroke-linecap="round" stroke-linejoin="round"/>
<path d="M303.961 239.319H275.746V216.054C275.746 214.742 276.268 213.482 277.196 212.554C278.124 211.626 279.384 211.104 280.696 211.104H299.011C300.324 211.104 301.583 211.626 302.512 212.554C303.44 213.482 303.961 214.742 303.961 216.054V239.319Z" stroke="#45413C" stroke-width="5" stroke-linecap="round" stroke-linejoin="round"/>
<path d="M280.449 211.104L278.246 184.706C278.252 184.609 278.286 184.515 278.345 184.438C278.404 184.36 278.484 184.301 278.576 184.269C278.668 184.237 278.768 184.232 278.862 184.256C278.957 184.28 279.042 184.332 279.107 184.404L296.927 211.104H280.449Z" fill="#6DD627" stroke="#45413C" stroke-width="5" stroke-linecap="round" stroke-linejoin="round"/>
<path d="M299.259 211.104L305.694 189.602C305.706 189.504 305.689 189.406 305.645 189.318C305.601 189.23 305.532 189.158 305.446 189.109C305.361 189.061 305.263 189.039 305.165 189.047C305.067 189.054 304.974 189.091 304.897 189.151L285.136 211.104H299.259Z" fill="#6DD627" stroke="#45413C" stroke-width="5" stroke-linecap="round" stroke-linejoin="round"/>
<path d="M214.614 81.7856H402.714" stroke="#45413C" stroke-width="5" stroke-linecap="round" stroke-linejoin="round"/>
<path d="M266.341 293.398H322.771V260.728C322.771 259.415 322.25 258.156 321.321 257.228C320.393 256.3 319.134 255.778 317.821 255.778H271.291C269.978 255.778 268.719 256.3 267.791 257.228C266.863 258.156 266.341 259.415 266.341 260.728V293.398Z" fill="#ADC4D9"/>
<path d="M318.069 255.778H271.044C269.797 255.778 268.601 256.274 267.719 257.155C266.837 258.037 266.341 259.233 266.341 260.481V265.183H322.771V260.481C322.771 259.233 322.276 258.037 321.394 257.155C320.512 256.274 319.316 255.778 318.069 255.778Z" fill="#ADC4D9"/>
<path d="M266.341 293.398H322.771V260.728C322.771 259.415 322.25 258.156 321.321 257.228C320.393 256.3 319.134 255.778 317.821 255.778H271.291C269.978 255.778 268.719 256.3 267.791 257.228C266.863 258.156 266.341 259.415 266.341 260.728V293.398Z" stroke="#45413C" stroke-width="5" stroke-linecap="round" stroke-linejoin="round"/>
<path d="M285.706 246.373C286.614 245.358 287.208 244.102 287.418 242.757C287.628 241.411 287.444 240.034 286.888 238.791C286.332 237.547 285.428 236.492 284.286 235.751C283.143 235.01 281.811 234.616 280.449 234.616C279.087 234.616 277.754 235.01 276.612 235.751C275.469 236.492 274.565 237.547 274.009 238.791C273.454 240.034 273.269 241.411 273.479 242.757C273.689 244.102 274.284 245.358 275.192 246.373H285.706Z" fill="#9CEB60"/>
<path d="M280.449 239.319C281.908 239.32 283.33 239.773 284.521 240.615C285.713 241.457 286.614 242.647 287.102 244.022C287.476 242.958 287.591 241.82 287.435 240.703C287.279 239.586 286.858 238.523 286.206 237.602C285.554 236.682 284.691 235.931 283.69 235.412C282.688 234.894 281.577 234.624 280.449 234.624C279.321 234.624 278.21 234.894 277.208 235.412C276.206 235.931 275.343 236.682 274.692 237.602C274.04 238.523 273.618 239.586 273.463 240.703C273.307 241.82 273.421 242.958 273.796 244.022C274.284 242.647 275.185 241.457 276.376 240.615C277.567 239.773 278.99 239.32 280.449 239.319Z" fill="#C8FFA1"/>
<path d="M285.706 246.373C286.614 245.358 287.208 244.102 287.418 242.757C287.628 241.411 287.444 240.034 286.888 238.791C286.332 237.547 285.428 236.492 284.286 235.751C283.143 235.01 281.811 234.616 280.449 234.616C279.087 234.616 277.754 235.01 276.612 235.751C275.469 236.492 274.565 237.547 274.009 238.791C273.454 240.034 273.269 241.411 273.479 242.757C273.689 244.102 274.284 245.358 275.192 246.373H285.706Z" stroke="#45413C" stroke-width="5" stroke-linecap="round" stroke-linejoin="round"/>
<path d="M299.813 246.373C300.721 245.358 301.316 244.102 301.526 242.757C301.736 241.411 301.552 240.034 300.996 238.791C300.44 237.547 299.536 236.492 298.394 235.751C297.251 235.01 295.918 234.616 294.556 234.616C293.195 234.616 291.862 235.01 290.719 235.751C289.577 236.492 288.673 237.547 288.117 238.791C287.561 240.034 287.377 241.411 287.587 242.757C287.797 244.102 288.392 245.358 289.3 246.373H299.813Z" fill="#9CEB60"/>
<path d="M294.556 239.319C296.015 239.32 297.437 239.772 298.627 240.614C299.818 241.457 300.718 242.647 301.204 244.022C301.548 243.053 301.676 242.021 301.579 240.998C301.482 239.974 301.162 238.985 300.643 238.098C300.123 237.211 299.416 236.448 298.571 235.863C297.725 235.278 296.763 234.885 295.749 234.711C294.736 234.538 293.698 234.587 292.706 234.857C291.714 235.127 290.793 235.61 290.007 236.273C289.222 236.936 288.591 237.762 288.158 238.695C287.725 239.627 287.502 240.643 287.503 241.671C287.503 242.471 287.638 243.266 287.904 244.022C288.391 242.647 289.292 241.456 290.483 240.614C291.674 239.772 293.098 239.32 294.556 239.319Z" fill="#C8FFA1"/>
<path d="M299.813 246.373C300.721 245.358 301.316 244.102 301.526 242.757C301.736 241.411 301.552 240.034 300.996 238.791C300.44 237.547 299.536 236.492 298.394 235.751C297.251 235.01 295.918 234.616 294.556 234.616C293.195 234.616 291.862 235.01 290.719 235.751C289.577 236.492 288.673 237.547 288.117 238.791C287.561 240.034 287.377 241.411 287.587 242.757C287.797 244.102 288.392 245.358 289.3 246.373H299.813Z" stroke="#45413C" stroke-width="5" stroke-linecap="round" stroke-linejoin="round"/>
<path d="M313.921 246.373C314.829 245.358 315.424 244.102 315.633 242.757C315.843 241.411 315.659 240.034 315.103 238.791C314.547 237.547 313.644 236.492 312.501 235.751C311.358 235.01 310.026 234.616 308.664 234.616C307.302 234.616 305.969 235.01 304.827 235.751C303.684 236.492 302.78 237.547 302.225 238.791C301.669 240.034 301.485 241.411 301.694 242.757C301.904 244.102 302.499 245.358 303.407 246.373H313.921Z" fill="#9CEB60"/>
<path d="M308.664 239.319C310.122 239.32 311.544 239.772 312.735 240.614C313.925 241.457 314.826 242.647 315.312 244.022C315.655 243.053 315.783 242.021 315.686 240.998C315.589 239.974 315.27 238.985 314.75 238.098C314.23 237.211 313.523 236.448 312.678 235.863C311.833 235.278 310.87 234.885 309.857 234.711C308.844 234.538 307.805 234.587 306.813 234.857C305.821 235.127 304.9 235.61 304.115 236.273C303.329 236.936 302.698 237.762 302.265 238.695C301.833 239.627 301.609 240.643 301.61 241.671C301.61 242.471 301.746 243.266 302.011 244.022C302.498 242.647 303.399 241.456 304.591 240.614C305.782 239.772 307.205 239.32 308.664 239.319Z" fill="#C8FFA1"/>
<path d="M313.921 246.373C314.829 245.358 315.424 244.102 315.633 242.757C315.843 241.411 315.659 240.034 315.103 238.791C314.547 237.547 313.644 236.492 312.501 235.751C311.358 235.01 310.026 234.616 308.664 234.616C307.302 234.616 305.969 235.01 304.827 235.751C303.684 236.492 302.78 237.547 302.225 238.791C301.669 240.034 301.485 241.411 301.694 242.757C301.904 244.102 302.499 245.358 303.407 246.373H313.921Z" stroke="#45413C" stroke-width="5" stroke-linecap="round" stroke-linejoin="round"/>
<path d="M315.713 246.373H273.41C272.696 246.373 271.99 246.535 271.348 246.848C270.706 247.162 270.144 247.617 269.704 248.18C269.265 248.744 268.959 249.4 268.811 250.099C268.664 250.798 268.677 251.521 268.851 252.214L269.742 255.778H319.386L320.277 252.214C320.45 251.521 320.462 250.797 320.314 250.098C320.165 249.399 319.859 248.743 319.419 248.18C318.98 247.617 318.417 247.162 317.775 246.849C317.132 246.536 316.427 246.373 315.713 246.373Z" fill="#FFAA54" stroke="#45413C" stroke-width="5" stroke-linecap="round" stroke-linejoin="round"/>
<path d="M296.908 326.316H256.936C256.206 326.317 255.486 326.147 254.833 325.821L258.743 355.154C258.894 356.284 259.45 357.32 260.308 358.07C261.166 358.82 262.266 359.234 263.406 359.233H290.438C291.577 359.234 292.678 358.82 293.536 358.07C294.394 357.32 294.95 356.284 295.101 355.154L299.011 325.821C298.358 326.147 297.638 326.317 296.908 326.316Z" fill="#FF8A14"/>
<path d="M256.936 326.316C256.206 326.317 255.486 326.147 254.833 325.821L256.466 338.072H297.378L299.011 325.821C298.358 326.147 297.638 326.317 296.908 326.316H256.936Z" fill="#EB6D00"/>
<path d="M296.908 326.316H256.936C256.206 326.317 255.486 326.147 254.833 325.821L258.743 355.154C258.894 356.284 259.45 357.32 260.308 358.07C261.166 358.82 262.266 359.234 263.406 359.233H290.438C291.577 359.234 292.678 358.82 293.536 358.07C294.394 357.32 294.95 356.284 295.101 355.154L299.011 325.821C298.358 326.147 297.638 326.317 296.908 326.316Z" stroke="#45413C" stroke-width="5" stroke-linecap="round" stroke-linejoin="round"/>
<path d="M296.908 326.316H256.936C255.689 326.316 254.493 325.82 253.611 324.938C252.729 324.056 252.234 322.86 252.234 321.613C252.234 320.366 252.729 319.17 253.611 318.288C254.493 317.406 255.689 316.911 256.936 316.911H296.908C298.155 316.911 299.351 317.406 300.233 318.288C301.115 319.17 301.61 320.366 301.61 321.613C301.61 322.86 301.115 324.056 300.233 324.938C299.351 325.82 298.155 326.316 296.908 326.316Z" fill="#FFAA54" stroke="#45413C" stroke-width="5" stroke-linecap="round" stroke-linejoin="round"/>
<path d="M270.024 302.372C272.628 306.782 274.043 311.791 274.133 316.911" stroke="#45413C" stroke-width="5" stroke-linecap="round" stroke-linejoin="round"/>
<path d="M288.057 301.902C286.154 306.678 285.168 311.77 285.151 316.911" stroke="#45413C" stroke-width="5" stroke-linecap="round" stroke-linejoin="round"/>
<path d="M274.4 290.359C273.633 289.604 272.704 289.035 271.683 288.696C272.705 288.358 273.635 287.789 274.4 287.032C275.723 285.709 276.466 283.915 276.465 282.044C276.465 280.173 275.721 278.378 274.398 277.056C273.074 275.733 271.28 274.99 269.409 274.991C267.538 274.991 265.744 275.735 264.421 277.058C263.665 277.822 263.096 278.75 262.758 279.771C262.421 278.751 261.854 277.822 261.099 277.058C260.453 276.365 259.674 275.81 258.809 275.425C257.943 275.04 257.009 274.833 256.062 274.817C255.115 274.8 254.174 274.975 253.296 275.33C252.418 275.686 251.62 276.214 250.951 276.884C250.282 277.554 249.754 278.352 249.4 279.231C249.045 280.109 248.871 281.05 248.889 281.997C248.906 282.944 249.114 283.878 249.5 284.743C249.885 285.608 250.442 286.387 251.135 287.032C251.9 287.789 252.83 288.358 253.853 288.696C252.709 289.073 251.682 289.737 250.868 290.624C250.054 291.511 249.48 292.592 249.202 293.763C248.924 294.935 248.95 296.158 249.278 297.316C249.606 298.475 250.226 299.53 251.077 300.381C251.928 301.233 252.983 301.852 254.142 302.18C255.3 302.508 256.523 302.535 257.695 302.256C258.866 301.978 259.947 301.405 260.834 300.591C261.721 299.776 262.385 298.749 262.763 297.606C263.101 298.626 263.67 299.554 264.426 300.318C265.069 301.019 265.848 301.582 266.714 301.974C267.581 302.366 268.518 302.578 269.468 302.599C270.419 302.619 271.364 302.447 272.247 302.093C273.13 301.739 273.932 301.21 274.605 300.538C275.278 299.866 275.808 299.065 276.163 298.183C276.519 297.301 276.692 296.356 276.673 295.405C276.654 294.454 276.443 293.517 276.052 292.65C275.662 291.782 275.1 291.003 274.4 290.359Z" fill="#FFB0CA"/>
<path d="M251.947 283.706C253.271 282.384 255.066 281.642 256.936 281.642C258.807 281.642 260.602 282.384 261.926 283.706C262.143 283.926 262.402 284.1 262.687 284.219C262.972 284.338 263.278 284.399 263.587 284.399C263.896 284.399 264.201 284.338 264.487 284.219C264.772 284.1 265.03 283.926 265.247 283.706C266.572 282.384 268.366 281.642 270.237 281.642C272.108 281.642 273.902 282.384 275.227 283.706C275.507 283.99 275.763 284.296 275.994 284.622C276.585 283.113 276.639 281.447 276.147 279.904C275.654 278.36 274.646 277.033 273.29 276.146C271.935 275.259 270.315 274.865 268.703 275.031C267.092 275.197 265.587 275.913 264.441 277.058C263.685 277.822 263.115 278.75 262.777 279.771C262.441 278.751 261.874 277.822 261.119 277.058C259.871 275.804 258.197 275.066 256.429 274.988C254.661 274.911 252.929 275.501 251.576 276.641C250.223 277.781 249.348 279.388 249.124 281.143C248.9 282.898 249.344 284.673 250.368 286.117C250.725 285.214 251.262 284.394 251.947 283.706Z" fill="#FFCCDD"/>
<path d="M274.4 290.359C273.633 289.604 272.704 289.035 271.683 288.696C272.705 288.358 273.635 287.789 274.4 287.032C275.723 285.709 276.466 283.915 276.465 282.044C276.465 280.173 275.721 278.378 274.398 277.056C273.074 275.733 271.28 274.99 269.409 274.991C267.538 274.991 265.744 275.735 264.421 277.058C263.665 277.822 263.096 278.75 262.758 279.771C262.421 278.751 261.854 277.822 261.099 277.058C260.453 276.365 259.674 275.81 258.809 275.425C257.943 275.04 257.009 274.833 256.062 274.817C255.115 274.8 254.174 274.975 253.296 275.33C252.418 275.686 251.62 276.214 250.951 276.884C250.282 277.554 249.754 278.352 249.4 279.231C249.045 280.109 248.871 281.05 248.889 281.997C248.906 282.944 249.114 283.878 249.5 284.743C249.885 285.608 250.442 286.387 251.135 287.032C251.9 287.789 252.83 288.358 253.853 288.696C252.709 289.073 251.682 289.737 250.868 290.624C250.054 291.511 249.48 292.592 249.202 293.763C248.924 294.935 248.95 296.158 249.278 297.316C249.606 298.475 250.226 299.53 251.077 300.381C251.928 301.233 252.983 301.852 254.142 302.18C255.3 302.508 256.523 302.535 257.695 302.256C258.866 301.978 259.947 301.405 260.834 300.591C261.721 299.776 262.385 298.749 262.763 297.606C263.101 298.626 263.67 299.554 264.426 300.318C265.069 301.019 265.848 301.582 266.714 301.974C267.581 302.366 268.518 302.578 269.468 302.599C270.419 302.619 271.364 302.447 272.247 302.093C273.13 301.739 273.932 301.21 274.605 300.538C275.278 299.866 275.808 299.065 276.163 298.183C276.519 297.301 276.692 296.356 276.673 295.405C276.654 294.454 276.443 293.517 276.052 292.65C275.662 291.782 275.1 291.003 274.4 290.359Z" stroke="#45413C" stroke-width="5" stroke-linecap="round" stroke-linejoin="round"/>
<path d="M308.951 290.359C308.184 289.604 307.255 289.035 306.234 288.696C307.256 288.358 308.186 287.789 308.951 287.032C309.71 286.284 310.289 285.373 310.645 284.369C311.001 283.365 311.125 282.293 311.008 281.233C310.891 280.174 310.535 279.155 309.967 278.253C309.399 277.351 308.634 276.59 307.73 276.026C306.826 275.462 305.806 275.11 304.746 274.997C303.686 274.884 302.615 275.012 301.612 275.373C300.609 275.733 299.701 276.316 298.955 277.078C298.21 277.84 297.647 278.76 297.309 279.771C296.972 278.751 296.405 277.822 295.65 277.058C294.328 275.735 292.534 274.991 290.663 274.991C288.792 274.99 286.997 275.733 285.674 277.056C284.35 278.378 283.607 280.173 283.606 282.044C283.606 283.915 284.349 285.709 285.671 287.032C286.437 287.789 287.367 288.358 288.389 288.696C287.246 289.073 286.218 289.737 285.404 290.624C284.59 291.511 284.016 292.592 283.738 293.763C283.46 294.935 283.486 296.158 283.814 297.316C284.142 298.475 284.762 299.53 285.613 300.381C286.464 301.233 287.52 301.852 288.678 302.18C289.836 302.508 291.06 302.535 292.231 302.256C293.402 301.978 294.483 301.405 295.37 300.591C296.257 299.776 296.921 298.749 297.299 297.606C297.642 298.609 298.207 299.523 298.952 300.277C299.697 301.032 300.603 301.609 301.602 301.965C302.602 302.32 303.668 302.446 304.723 302.332C305.777 302.218 306.792 301.867 307.692 301.305C308.592 300.744 309.354 299.987 309.92 299.09C310.486 298.193 310.843 297.18 310.963 296.126C311.083 295.072 310.964 294.005 310.614 293.004C310.263 292.003 309.692 291.093 308.941 290.344L308.951 290.359Z" fill="#FFB0CA"/>
<path d="M286.478 283.706C287.802 282.385 289.595 281.643 291.465 281.643C293.335 281.643 295.129 282.385 296.452 283.706C297.209 284.471 297.778 285.401 298.116 286.424C298.493 285.285 299.157 284.262 300.042 283.453C300.928 282.644 302.007 282.076 303.175 281.803C304.344 281.531 305.563 281.562 306.715 281.895C307.868 282.229 308.915 282.852 309.758 283.706C310.038 283.99 310.295 284.296 310.525 284.622C311.116 283.113 311.17 281.447 310.678 279.904C310.186 278.36 309.177 277.033 307.821 276.146C306.466 275.259 304.846 274.865 303.235 275.031C301.623 275.197 300.118 275.913 298.972 277.058C298.216 277.822 297.647 278.75 297.309 279.771C296.972 278.751 296.405 277.822 295.65 277.058C294.402 275.804 292.728 275.066 290.96 274.988C289.192 274.911 287.46 275.501 286.107 276.641C284.754 277.781 283.879 279.388 283.655 281.143C283.431 282.898 283.875 284.673 284.899 286.117C285.256 285.214 285.793 284.394 286.478 283.706Z" fill="#FFCCDD"/>
<path d="M308.951 290.359C308.184 289.604 307.255 289.035 306.234 288.696C307.256 288.358 308.186 287.789 308.951 287.032C309.71 286.284 310.289 285.373 310.645 284.369C311.001 283.365 311.125 282.293 311.008 281.233C310.891 280.174 310.535 279.155 309.967 278.253C309.399 277.351 308.634 276.59 307.73 276.026C306.826 275.462 305.806 275.11 304.746 274.997C303.686 274.884 302.615 275.012 301.612 275.373C300.609 275.733 299.701 276.316 298.955 277.078C298.21 277.84 297.647 278.76 297.309 279.771C296.972 278.751 296.405 277.822 295.65 277.058C294.328 275.735 292.534 274.991 290.663 274.991C288.792 274.99 286.997 275.733 285.674 277.056C284.35 278.378 283.607 280.173 283.606 282.044C283.606 283.915 284.349 285.709 285.671 287.032C286.437 287.789 287.367 288.358 288.389 288.696C287.246 289.073 286.218 289.737 285.404 290.624C284.59 291.511 284.016 292.592 283.738 293.763C283.46 294.935 283.486 296.158 283.814 297.316C284.142 298.475 284.762 299.53 285.613 300.381C286.464 301.233 287.52 301.852 288.678 302.18C289.836 302.508 291.06 302.535 292.231 302.256C293.402 301.978 294.483 301.405 295.37 300.591C296.257 299.776 296.921 298.749 297.299 297.606C297.642 298.609 298.207 299.523 298.952 300.277C299.697 301.032 300.603 301.609 301.602 301.965C302.602 302.32 303.668 302.446 304.723 302.332C305.777 302.218 306.792 301.867 307.692 301.305C308.592 300.744 309.354 299.987 309.92 299.09C310.486 298.193 310.843 297.18 310.963 296.126C311.083 295.072 310.964 294.005 310.614 293.004C310.263 292.003 309.692 291.093 308.941 290.344L308.951 290.359Z" stroke="#45413C" stroke-width="5" stroke-linecap="round" stroke-linejoin="round"/>
<path d="M240.478 281.642H195.804C195.019 281.642 194.247 281.446 193.557 281.073L197.893 354.828C197.965 356.025 198.491 357.15 199.364 357.972C200.237 358.794 201.391 359.253 202.59 359.253H233.691C234.891 359.253 236.045 358.794 236.918 357.972C237.791 357.15 238.317 356.025 238.389 354.828L242.725 281.073C242.035 281.446 241.262 281.642 240.478 281.642Z" fill="#DAEDF7"/>
<path d="M195.804 281.642C195.019 281.642 194.247 281.446 193.557 281.073L194.423 295.749H241.859L242.725 281.073C242.035 281.446 241.262 281.642 240.478 281.642H195.804Z" fill="#ADC4D9"/>
<path d="M240.478 281.642H195.804C195.019 281.642 194.247 281.446 193.557 281.073L197.893 354.828C197.965 356.025 198.491 357.15 199.364 357.972C200.237 358.794 201.391 359.253 202.59 359.253H233.691C234.891 359.253 236.045 358.794 236.918 357.972C237.791 357.15 238.317 356.025 238.389 354.828L242.725 281.073C242.035 281.446 241.262 281.642 240.478 281.642Z" stroke="#45413C" stroke-width="5" stroke-linecap="round" stroke-linejoin="round"/>
<path d="M214.238 272.237C209.149 259.713 194.853 244.403 189.557 238.983C189.481 238.901 189.378 238.849 189.266 238.836C189.155 238.824 189.043 238.853 188.951 238.916C188.858 238.98 188.792 239.075 188.765 239.184C188.737 239.292 188.749 239.407 188.8 239.507C194.092 249.936 198.23 260.91 201.14 272.237H214.238Z" fill="#6DD627" stroke="#45413C" stroke-width="5" stroke-linecap="round" stroke-linejoin="round"/>
<path d="M248.378 232.399C239.636 240.785 233.122 258.634 229.756 272.237H239.656C241.946 258.933 245.12 245.796 249.155 232.914C249.179 232.815 249.173 232.711 249.135 232.616C249.098 232.521 249.033 232.439 248.948 232.383C248.863 232.327 248.762 232.298 248.66 232.301C248.558 232.304 248.459 232.338 248.378 232.399Z" fill="#6DD627" stroke="#45413C" stroke-width="5" stroke-linecap="round" stroke-linejoin="round"/>
<path d="M199.937 227.212C199.366 227.446 198.754 227.566 198.136 227.564C197.519 227.562 196.908 227.438 196.338 227.199C195.768 226.96 195.251 226.612 194.816 226.173C194.382 225.734 194.038 225.214 193.804 224.643L187.562 209.416C187.089 208.262 187.094 206.968 187.574 205.817C188.055 204.666 188.973 203.753 190.126 203.278C191.281 202.806 192.576 202.811 193.727 203.293C194.878 203.774 195.791 204.693 196.264 205.847L202.506 221.074C202.979 222.228 202.974 223.523 202.492 224.674C202.01 225.825 201.091 226.738 199.937 227.212Z" fill="#FFA694"/>
<path d="M189.755 214.703C189.425 213.545 189.552 212.304 190.111 211.237C190.669 210.17 191.616 209.359 192.756 208.97C193.896 208.581 195.141 208.645 196.235 209.148C197.33 209.651 198.189 210.555 198.635 211.674L198.695 211.723L196.289 205.847C196.055 205.276 195.71 204.756 195.275 204.318C194.84 203.88 194.322 203.532 193.753 203.293C193.183 203.055 192.572 202.931 191.954 202.929C191.337 202.927 190.725 203.047 190.153 203.281C189.582 203.515 189.062 203.86 188.624 204.295C188.186 204.73 187.838 205.247 187.599 205.817C187.361 206.387 187.237 206.998 187.235 207.615C187.233 208.233 187.352 208.845 187.587 209.416L189.755 214.703Z" fill="#FFCABF"/>
<path d="M217.435 215.787C216.82 215.733 216.221 215.558 215.673 215.272C215.125 214.986 214.639 214.595 214.243 214.121C213.847 213.647 213.548 213.099 213.363 212.509C213.179 211.919 213.113 211.299 213.169 210.684L214.654 194.294C214.708 193.679 214.883 193.081 215.168 192.533C215.454 191.986 215.845 191.5 216.318 191.104C216.792 190.707 217.339 190.408 217.928 190.224C218.517 190.039 219.137 189.972 219.752 190.027C220.367 190.082 220.966 190.258 221.513 190.544C222.061 190.83 222.547 191.221 222.943 191.695C223.339 192.169 223.638 192.716 223.823 193.306C224.007 193.895 224.074 194.515 224.019 195.131L222.534 211.52C222.48 212.135 222.305 212.734 222.019 213.281C221.734 213.829 221.343 214.314 220.869 214.711C220.396 215.107 219.849 215.406 219.26 215.591C218.67 215.775 218.051 215.842 217.435 215.787Z" fill="#FFA694"/>
<path d="M219.732 190.027C219.117 189.972 218.497 190.039 217.908 190.224C217.319 190.408 216.772 190.707 216.298 191.104C215.825 191.5 215.434 191.986 215.148 192.533C214.863 193.081 214.688 193.679 214.634 194.294L214.099 200.284C214.45 199.301 215.102 198.454 215.963 197.864C216.823 197.275 217.848 196.972 218.891 196.999C219.934 197.027 220.942 197.383 221.77 198.017C222.599 198.652 223.206 199.531 223.504 200.531L223.999 195.131C224.054 194.515 223.988 193.895 223.803 193.306C223.618 192.716 223.319 192.169 222.923 191.695C222.527 191.221 222.041 190.83 221.494 190.544C220.946 190.258 220.348 190.082 219.732 190.027Z" fill="#FFCABF"/>
<path d="M228.42 241.557C227.808 241.466 227.221 241.256 226.691 240.938C226.161 240.62 225.7 240.201 225.332 239.704C224.964 239.208 224.698 238.644 224.548 238.044C224.398 237.445 224.368 236.822 224.46 236.211L226.915 219.95C227.005 219.338 227.216 218.751 227.534 218.22C227.852 217.69 228.272 217.228 228.769 216.86C229.266 216.492 229.831 216.226 230.431 216.077C231.031 215.928 231.654 215.898 232.266 215.99C232.877 216.08 233.465 216.29 233.995 216.608C234.525 216.925 234.987 217.345 235.355 217.841C235.723 218.338 235.989 218.902 236.139 219.502C236.288 220.102 236.318 220.725 236.226 221.336L233.751 237.612C233.564 238.84 232.898 239.945 231.899 240.684C230.9 241.423 229.649 241.737 228.42 241.557Z" fill="#FFA694"/>
<path d="M232.266 215.99C231.654 215.898 231.031 215.928 230.43 216.077C229.83 216.226 229.266 216.492 228.769 216.86C228.272 217.228 227.852 217.69 227.534 218.22C227.216 218.751 227.005 219.338 226.915 219.95L226.103 225.336C226.662 224.539 227.43 223.912 228.323 223.525C229.216 223.137 230.198 223.004 231.162 223.14C232.126 223.276 233.034 223.675 233.785 224.294C234.536 224.913 235.101 225.727 235.419 226.647L236.216 221.346C236.309 220.735 236.281 220.111 236.133 219.511C235.985 218.911 235.72 218.345 235.353 217.848C234.986 217.35 234.524 216.93 233.994 216.611C233.465 216.292 232.877 216.081 232.266 215.99Z" fill="#FFCABF"/>
<path d="M199.937 227.212C199.366 227.446 198.754 227.566 198.136 227.564C197.519 227.562 196.908 227.438 196.338 227.199C195.768 226.96 195.251 226.612 194.816 226.173C194.382 225.734 194.038 225.214 193.804 224.643L187.562 209.416C187.089 208.262 187.094 206.968 187.574 205.817C188.055 204.666 188.973 203.753 190.126 203.278C191.281 202.806 192.576 202.811 193.727 203.293C194.878 203.774 195.791 204.693 196.264 205.847L202.506 221.074C202.979 222.228 202.974 223.523 202.492 224.674C202.01 225.825 201.091 226.738 199.937 227.212Z" stroke="#45413C" stroke-width="5" stroke-linecap="round" stroke-linejoin="round"/>
<path d="M217.435 215.787C216.82 215.733 216.221 215.558 215.673 215.272C215.125 214.986 214.639 214.595 214.243 214.121C213.847 213.647 213.548 213.099 213.363 212.509C213.179 211.919 213.113 211.299 213.169 210.684L214.654 194.294C214.708 193.679 214.883 193.081 215.168 192.533C215.454 191.986 215.845 191.5 216.318 191.104C216.792 190.707 217.339 190.408 217.928 190.224C218.517 190.039 219.137 189.972 219.752 190.027C220.367 190.082 220.966 190.258 221.513 190.544C222.061 190.83 222.547 191.221 222.943 191.695C223.339 192.169 223.638 192.716 223.823 193.306C224.007 193.895 224.074 194.515 224.019 195.131L222.534 211.52C222.48 212.135 222.305 212.734 222.019 213.281C221.734 213.829 221.343 214.314 220.869 214.711C220.396 215.107 219.849 215.406 219.26 215.591C218.67 215.775 218.051 215.842 217.435 215.787Z" stroke="#45413C" stroke-width="5" stroke-linecap="round" stroke-linejoin="round"/>
<path d="M228.42 241.557C227.808 241.466 227.221 241.256 226.691 240.938C226.161 240.62 225.7 240.201 225.332 239.704C224.964 239.208 224.698 238.644 224.548 238.044C224.398 237.445 224.368 236.822 224.46 236.211L226.915 219.95C227.005 219.338 227.216 218.751 227.534 218.22C227.852 217.69 228.272 217.228 228.769 216.86C229.266 216.492 229.831 216.226 230.431 216.077C231.031 215.928 231.654 215.898 232.266 215.99C232.877 216.08 233.465 216.29 233.995 216.608C234.525 216.925 234.987 217.345 235.355 217.841C235.723 218.338 235.989 218.902 236.139 219.502C236.288 220.102 236.318 220.725 236.226 221.336L233.751 237.612C233.564 238.84 232.898 239.945 231.899 240.684C230.9 241.423 229.649 241.737 228.42 241.557Z" stroke="#45413C" stroke-width="5" stroke-linecap="round" stroke-linejoin="round"/>
<path d="M199.937 227.212C207.43 241.221 212.278 256.491 214.238 272.257" stroke="#45413C" stroke-width="5" stroke-linecap="round" stroke-linejoin="round"/>
<path d="M228.419 241.557C226.44 251.697 225.053 261.945 224.266 272.247" stroke="#45413C" stroke-width="5" stroke-linecap="round" stroke-linejoin="round"/>
<path d="M217.435 215.787C217.435 215.787 215.51 242.517 215.49 272.217" stroke="#45413C" stroke-width="5" stroke-linecap="round" stroke-linejoin="round"/>
<path d="M240.478 281.642H195.804C194.557 281.642 193.361 281.146 192.479 280.264C191.597 279.383 191.101 278.187 191.101 276.939C191.101 275.692 191.597 274.496 192.479 273.614C193.361 272.732 194.557 272.237 195.804 272.237H240.478C241.725 272.237 242.921 272.732 243.803 273.614C244.685 274.496 245.18 275.692 245.18 276.939C245.18 278.187 244.685 279.383 243.803 280.264C242.921 281.146 241.725 281.642 240.478 281.642Z" fill="#DAEDF7" stroke="#45413C" stroke-width="5" stroke-linecap="round" stroke-linejoin="round"/>
<path d="M402.714 142.918H198.17V152.323C198.17 154.817 199.161 157.21 200.925 158.973C202.688 160.737 205.081 161.728 207.575 161.728C210.069 161.728 212.461 160.737 214.225 158.973C215.989 157.21 216.98 154.817 216.98 152.323C216.98 154.817 217.971 157.21 219.735 158.973C221.498 160.737 223.891 161.728 226.385 161.728C228.879 161.728 231.271 160.737 233.035 158.973C234.799 157.21 235.79 154.817 235.79 152.323C235.79 154.817 236.781 157.21 238.545 158.973C240.308 160.737 242.701 161.728 245.195 161.728C247.689 161.728 250.081 160.737 251.845 158.973C253.609 157.21 254.6 154.817 254.6 152.323C254.6 154.817 255.591 157.21 257.355 158.973C259.118 160.737 261.511 161.728 264.005 161.728C266.499 161.728 268.891 160.737 270.655 158.973C272.419 157.21 273.41 154.817 273.41 152.323C273.41 154.817 274.401 157.21 276.165 158.973C277.928 160.737 280.321 161.728 282.815 161.728C285.309 161.728 287.701 160.737 289.465 158.973C291.229 157.21 292.22 154.817 292.22 152.323C292.22 154.817 293.211 157.21 294.975 158.973C296.738 160.737 299.131 161.728 301.625 161.728C304.119 161.728 306.511 160.737 308.275 158.973C310.039 157.21 311.03 154.817 311.03 152.323C311.03 154.817 312.021 157.21 313.785 158.973C315.548 160.737 317.941 161.728 320.435 161.728C322.929 161.728 325.321 160.737 327.085 158.973C328.849 157.21 329.84 154.817 329.84 152.323C329.84 154.817 330.831 157.21 332.595 158.973C334.358 160.737 336.751 161.728 339.245 161.728C341.739 161.728 344.131 160.737 345.895 158.973C347.659 157.21 348.65 154.817 348.65 152.323C348.65 154.817 349.641 157.21 351.405 158.973C353.168 160.737 355.561 161.728 358.055 161.728C360.549 161.728 362.941 160.737 364.705 158.973C366.469 157.21 367.46 154.817 367.46 152.323C367.46 154.817 368.451 157.21 370.215 158.973C371.978 160.737 374.371 161.728 376.865 161.728C379.359 161.728 381.751 160.737 383.515 158.973C385.279 157.21 386.27 154.817 386.27 152.323C386.263 154.237 386.842 156.108 387.93 157.683C389.018 159.258 390.562 160.462 392.354 161.133C394.147 161.804 396.102 161.91 397.957 161.437C399.812 160.964 401.477 159.934 402.729 158.486" fill="#00AD85"/>
<path d="M402.714 142.918H198.17V152.323C198.17 154.817 199.161 157.21 200.925 158.973C202.688 160.737 205.081 161.728 207.575 161.728C210.069 161.728 212.461 160.737 214.225 158.973C215.989 157.21 216.98 154.817 216.98 152.323C216.98 154.817 217.971 157.21 219.735 158.973C221.498 160.737 223.891 161.728 226.385 161.728C228.879 161.728 231.271 160.737 233.035 158.973C234.799 157.21 235.79 154.817 235.79 152.323C235.79 154.817 236.781 157.21 238.545 158.973C240.308 160.737 242.701 161.728 245.195 161.728C247.689 161.728 250.081 160.737 251.845 158.973C253.609 157.21 254.6 154.817 254.6 152.323C254.6 154.817 255.591 157.21 257.355 158.973C259.118 160.737 261.511 161.728 264.005 161.728C266.499 161.728 268.891 160.737 270.655 158.973C272.419 157.21 273.41 154.817 273.41 152.323C273.41 154.817 274.401 157.21 276.165 158.973C277.928 160.737 280.321 161.728 282.815 161.728C285.309 161.728 287.701 160.737 289.465 158.973C291.229 157.21 292.22 154.817 292.22 152.323C292.22 154.817 293.211 157.21 294.975 158.973C296.738 160.737 299.131 161.728 301.625 161.728C304.119 161.728 306.511 160.737 308.275 158.973C310.039 157.21 311.03 154.817 311.03 152.323C311.03 154.817 312.021 157.21 313.785 158.973C315.548 160.737 317.941 161.728 320.435 161.728C322.929 161.728 325.321 160.737 327.085 158.973C328.849 157.21 329.84 154.817 329.84 152.323C329.84 154.817 330.831 157.21 332.595 158.973C334.358 160.737 336.751 161.728 339.245 161.728C341.739 161.728 344.131 160.737 345.895 158.973C347.659 157.21 348.65 154.817 348.65 152.323C348.65 154.817 349.641 157.21 351.405 158.973C353.168 160.737 355.561 161.728 358.055 161.728C360.549 161.728 362.941 160.737 364.705 158.973C366.469 157.21 367.46 154.817 367.46 152.323C367.46 154.817 368.451 157.21 370.215 158.973C371.978 160.737 374.371 161.728 376.865 161.728C379.359 161.728 381.751 160.737 383.515 158.973C385.279 157.21 386.27 154.817 386.27 152.323C386.263 154.237 386.842 156.108 387.93 157.683C389.018 159.258 390.562 160.462 392.354 161.133C394.147 161.804 396.102 161.91 397.957 161.437C399.812 160.964 401.477 159.934 402.729 158.486" stroke="#45413C" stroke-width="5" stroke-linecap="round" stroke-linejoin="round"/>
<path d="M152.912 394.596C154.859 373.37 155.833 352.052 155.833 330.642V329.781C154.411 330.604 152.798 331.04 151.155 331.043H80.5679C78.9249 331.04 77.3117 330.604 75.8901 329.781V330.642C75.8901 352.016 76.8636 373.334 78.8106 394.596" fill="#FFF48C"/>
<path d="M155.57 349.828C155.745 343.439 155.833 337.044 155.833 330.642V329.781C154.411 330.604 152.798 331.04 151.155 331.043H80.5679C78.9249 331.04 77.3117 330.604 75.8901 329.781V330.642C75.8901 337.044 75.9776 343.439 76.1525 349.828H155.57Z" fill="#FFE500"/>
<path d="M152.912 394.596C154.859 373.37 155.833 352.052 155.833 330.642V329.781C154.411 330.604 152.798 331.04 151.155 331.043H80.5679C78.9249 331.04 77.3117 330.604 75.8901 329.781V330.642C75.8901 352.016 76.8636 373.334 78.8106 394.596" stroke="#45413C" stroke-width="5" stroke-linecap="round" stroke-linejoin="round"/>
<path d="M115.861 208.753C96.5305 208.754 77.9917 216.434 64.3227 230.103C50.6537 243.772 42.974 262.311 42.9727 281.642C42.9727 284.136 43.9635 286.528 45.7273 288.292C47.4911 290.056 49.8833 291.047 52.3777 291.047H71.1877V321.638C71.1877 324.128 72.1751 326.516 73.9336 328.279C75.692 330.043 78.0778 331.036 80.5679 331.043H151.145C153.639 331.043 156.032 330.052 157.795 328.288C159.559 326.524 160.55 324.132 160.55 321.638V291.047H179.36C181.854 291.047 184.247 290.056 186.01 288.292C187.774 286.528 188.765 284.136 188.765 281.642C188.764 272.069 186.878 262.59 183.214 253.746C179.55 244.902 174.179 236.866 167.41 230.098C160.64 223.33 152.603 217.961 143.759 214.299C134.914 210.636 125.434 208.752 115.861 208.753Z" fill="#FF8A14"/>
<path d="M188.636 277.553C187.553 258.988 179.415 241.54 165.888 228.779C152.361 216.018 134.468 208.91 115.871 208.91C97.2749 208.91 79.3818 216.018 65.8546 228.779C52.3275 241.54 44.1894 258.988 43.1062 277.553C49.2903 263.4 59.4677 251.358 72.3919 242.901C85.316 234.444 100.426 229.939 115.871 229.939C131.316 229.939 146.426 234.444 159.351 242.901C172.275 251.358 182.452 263.4 188.636 277.553Z" fill="#FFAA54"/>
<path d="M115.861 208.753C96.5305 208.754 77.9917 216.434 64.3227 230.103C50.6537 243.772 42.974 262.311 42.9727 281.642C42.9727 284.136 43.9635 286.528 45.7273 288.292C47.4911 290.056 49.8833 291.047 52.3777 291.047H71.1877V321.638C71.1877 324.128 72.1751 326.516 73.9336 328.279C75.692 330.043 78.0778 331.036 80.5679 331.043H151.145C153.639 331.043 156.032 330.052 157.795 328.288C159.559 326.524 160.55 324.132 160.55 321.638V291.047H179.36C181.854 291.047 184.247 290.056 186.01 288.292C187.774 286.528 188.765 284.136 188.765 281.642C188.764 272.069 186.878 262.59 183.214 253.746C179.55 244.902 174.179 236.866 167.41 230.098C160.64 223.33 152.603 217.961 143.759 214.299C134.914 210.636 125.434 208.752 115.861 208.753Z" stroke="#45413C" stroke-width="5" stroke-linecap="round" stroke-linejoin="round"/>
<path d="M99.4027 217.97V204.526C86.8743 209.025 78.2415 218.267 78.2415 227.563C78.2415 236.201 85.6961 246.947 96.8039 252.11C97.708 252.538 98.7231 252.673 99.7074 252.495C100.692 252.318 101.596 251.837 102.294 251.12L115.861 236.963L105.308 229.429C103.483 228.126 101.996 226.407 100.969 224.414C99.9418 222.421 99.4049 220.212 99.4027 217.97Z" fill="white" stroke="#45413C" stroke-width="5" stroke-linecap="round" stroke-linejoin="round"/>
<path d="M132.335 204.526V217.97C132.328 220.215 131.785 222.426 130.752 224.419C129.719 226.412 128.225 228.129 126.395 229.429L115.842 236.968L129.41 251.125C130.107 251.842 131.011 252.323 131.996 252.5C132.98 252.678 133.995 252.543 134.899 252.115C146.007 246.952 153.462 236.206 153.462 227.568C153.481 218.267 144.849 209.025 132.335 204.526Z" fill="white" stroke="#45413C" stroke-width="5" stroke-linecap="round" stroke-linejoin="round"/>
<path d="M126.395 229.429L115.842 236.968L105.308 229.429C103.483 228.126 101.996 226.407 100.969 224.414C99.9417 222.421 99.4048 220.212 99.4026 217.97V194.646H132.335V217.97C132.328 220.215 131.785 222.426 130.752 224.419C129.719 226.412 128.225 228.129 126.395 229.429Z" fill="#BF8256"/>
<path d="M99.4026 211.04C110.139 214.261 121.584 214.261 132.32 211.04V194.646H99.4026V211.04Z" fill="#BF8256"/>
<path d="M126.395 229.429L115.842 236.968L105.308 229.429C103.483 228.126 101.996 226.407 100.969 224.414C99.9417 222.421 99.4048 220.212 99.4026 217.97V194.646H132.335V217.97C132.328 220.215 131.785 222.426 130.752 224.419C129.719 226.412 128.225 228.129 126.395 229.429Z" stroke="#45413C" stroke-width="5" stroke-linecap="round" stroke-linejoin="round"/>
<path d="M184.048 302.803H160.55V375.692C160.55 378.81 161.789 381.8 163.993 384.005C166.198 386.209 169.188 387.448 172.306 387.448C175.424 387.448 178.414 386.209 180.619 384.005C182.824 381.8 184.063 378.81 184.063 375.692L184.048 302.803Z" fill="#BF8256" stroke="#45413C" stroke-width="5" stroke-linecap="round" stroke-linejoin="round"/>
<path d="M160.535 274.588V291.047" stroke="#45413C" stroke-width="5" stroke-linecap="round" stroke-linejoin="round"/>
<path d="M184.048 289.785C182.619 290.614 180.997 291.049 179.345 291.047H160.55V302.803H184.063L184.048 289.785Z" fill="white" stroke="#45413C" stroke-width="5" stroke-linecap="round" stroke-linejoin="round"/>
<path d="M71.1876 291.047H52.3775C50.726 291.049 49.1034 290.614 47.675 289.785V302.803H71.1876V291.047Z" fill="white" stroke="#45413C" stroke-width="5" stroke-linecap="round" stroke-linejoin="round"/>
<path d="M47.6899 302.803V307.506C47.7017 318.103 51.9168 328.263 59.4103 335.757C66.9038 343.25 77.0638 347.465 87.6612 347.477H104.12C107.238 347.477 110.228 346.238 112.433 344.034C114.638 341.829 115.876 338.839 115.876 335.721C115.876 332.603 114.638 329.612 112.433 327.408C110.228 325.203 107.238 323.964 104.12 323.964H87.6463C83.2828 323.959 79.0995 322.223 76.014 319.138C72.9286 316.052 71.1928 311.869 71.1876 307.506V302.803H47.6899Z" fill="#BF8256" stroke="#45413C" stroke-width="5" stroke-linecap="round" stroke-linejoin="round"/>
<path d="M34.0577 210.931C33.6465 211.392 33.1485 211.767 32.5922 212.035C32.0359 212.303 31.4322 212.458 30.8157 212.493C30.1992 212.527 29.5819 212.44 28.9992 212.236C28.4165 212.031 27.8798 211.714 27.4198 211.302L13.3915 198.769C12.9322 198.356 12.5588 197.857 12.2925 197.3C12.0263 196.743 11.8725 196.139 11.8398 195.523C11.8072 194.906 11.8964 194.289 12.1023 193.707C12.3083 193.125 12.6269 192.59 13.04 192.131C13.4512 191.67 13.9492 191.295 14.5055 191.027C15.0618 190.759 15.6655 190.604 16.282 190.569C16.8985 190.535 17.5158 190.622 18.0985 190.826C18.6812 191.031 19.2179 191.348 19.678 191.76L33.7063 204.293C34.1655 204.706 34.5389 205.205 34.8052 205.762C35.0714 206.319 35.2252 206.923 35.2579 207.539C35.2905 208.156 35.2013 208.773 34.9954 209.355C34.7895 209.937 34.4708 210.472 34.0577 210.931Z" fill="#FFB0CA"/>
<path d="M20.4106 198.561C21.0248 197.871 21.8091 197.354 22.6854 197.061C23.5618 196.768 24.4995 196.71 25.4052 196.893L19.6582 191.76C19.201 191.33 18.6625 190.997 18.0744 190.778C17.4863 190.56 16.8605 190.462 16.2338 190.489C15.6071 190.516 14.9922 190.669 14.4253 190.937C13.8584 191.206 13.351 191.585 12.9329 192.053C12.5148 192.521 12.1945 193.067 11.9908 193.66C11.7872 194.254 11.7043 194.882 11.747 195.508C11.7897 196.133 11.9573 196.744 12.2397 197.304C12.5221 197.865 12.9138 198.362 13.3915 198.769L19.5196 204.244C19.1062 203.311 18.9704 202.279 19.1284 201.271C19.2864 200.263 19.7316 199.322 20.4106 198.561Z" fill="#FFCCDD"/>
<path d="M57.3425 209.194C56.2146 209.725 54.9218 209.788 53.7478 209.368C52.5738 208.947 51.6146 208.078 51.0807 206.951L43.0469 189.943C42.783 189.385 42.6317 188.781 42.6015 188.164C42.5714 187.547 42.6631 186.931 42.8714 186.35C43.0796 185.769 43.4003 185.235 43.8152 184.778C44.2301 184.32 44.731 183.95 45.2892 183.686C45.8475 183.422 46.4525 183.27 47.0695 183.239C47.6866 183.209 48.3036 183.3 48.8853 183.508C49.4669 183.717 50.0018 184.038 50.4592 184.453C50.9166 184.868 51.2876 185.37 51.551 185.929L59.57 202.932C60.1041 204.058 60.1696 205.35 59.7519 206.524C59.3343 207.698 58.4677 208.658 57.3425 209.194Z" fill="#FFB0CA"/>
<path d="M48.6057 190.493C49.4178 190.109 50.3085 189.922 51.2061 189.946C52.1038 189.97 52.9832 190.205 53.7735 190.631L51.551 185.929C51.2931 185.361 50.925 184.851 50.468 184.427C50.0111 184.003 49.4745 183.674 48.8893 183.46C48.3042 183.245 47.6822 183.149 47.0596 183.177C46.437 183.204 45.8261 183.356 45.2624 183.622C44.6988 183.888 44.1937 184.263 43.7765 184.726C43.3593 185.189 43.0382 185.731 42.8321 186.319C42.6259 186.907 42.5387 187.53 42.5756 188.153C42.6125 188.775 42.7727 189.383 43.0469 189.943L45.3783 194.893C45.5086 193.949 45.8718 193.053 46.4353 192.285C46.9987 191.516 47.7447 190.9 48.6057 190.493Z" fill="#FFCCDD"/>
<path d="M34.0577 210.931C33.6465 211.392 33.1485 211.767 32.5922 212.035C32.0359 212.303 31.4322 212.458 30.8157 212.493C30.1992 212.527 29.5819 212.44 28.9992 212.236C28.4165 212.031 27.8798 211.714 27.4198 211.302L13.3915 198.769C12.9322 198.356 12.5588 197.857 12.2925 197.3C12.0263 196.743 11.8725 196.139 11.8398 195.523C11.8072 194.906 11.8964 194.289 12.1023 193.707C12.3083 193.125 12.6269 192.59 13.04 192.131C13.4512 191.67 13.9492 191.295 14.5055 191.027C15.0618 190.759 15.6655 190.604 16.282 190.569C16.8985 190.535 17.5158 190.622 18.0985 190.826C18.6812 191.031 19.2179 191.348 19.678 191.76L33.7063 204.293C34.1655 204.706 34.5389 205.205 34.8052 205.762C35.0714 206.319 35.2252 206.923 35.2579 207.539C35.2905 208.156 35.2013 208.773 34.9954 209.355C34.7895 209.937 34.4708 210.472 34.0577 210.931Z" stroke="#45413C" stroke-width="5" stroke-linecap="round" stroke-linejoin="round"/>
<path d="M57.3425 209.194C56.2146 209.725 54.9218 209.788 53.7478 209.368C52.5738 208.947 51.6146 208.078 51.0807 206.951L43.0469 189.943C42.783 189.385 42.6317 188.781 42.6015 188.164C42.5714 187.547 42.6631 186.931 42.8714 186.35C43.0796 185.769 43.4003 185.235 43.8152 184.778C44.2301 184.32 44.731 183.95 45.2892 183.686C45.8475 183.422 46.4525 183.27 47.0695 183.239C47.6866 183.209 48.3036 183.3 48.8853 183.508C49.4669 183.717 50.0018 184.038 50.4592 184.453C50.9166 184.868 51.2876 185.37 51.551 185.929L59.57 202.932C60.1041 204.058 60.1696 205.35 59.7519 206.524C59.3343 207.698 58.4677 208.658 57.3425 209.194Z" stroke="#45413C" stroke-width="5" stroke-linecap="round" stroke-linejoin="round"/>
<path d="M57.3425 209.194C63.9369 222.448 69.6983 236.1 74.5933 250.071" stroke="#45413C" stroke-width="5" stroke-linecap="round" stroke-linejoin="round"/>
<path d="M34.0576 210.931C34.0576 210.931 40.0323 213.48 73.7071 263.792" stroke="#45413C" stroke-width="5" stroke-linecap="round" stroke-linejoin="round"/>
<path d="M53.7784 258.718L50.3134 253.823C45.2347 246.586 25.1822 232.647 19.4897 228.771C19.411 228.704 19.3552 228.614 19.3303 228.513C19.3053 228.413 19.3125 228.307 19.3507 228.211C19.389 228.115 19.4563 228.033 19.5434 227.977C19.6305 227.922 19.7329 227.894 19.8362 227.9C39.4821 229.704 57.9126 238.2 72.0439 251.967L75.103 254.937L53.7784 258.718Z" fill="#46B000"/>
<path d="M30.1225 236.285C44.5898 239.405 58.0076 246.204 69.079 256.026L75.1279 254.956L72.0688 251.986C57.9375 238.22 39.507 229.724 19.8611 227.919C19.7578 227.914 19.6554 227.941 19.5683 227.997C19.4813 228.053 19.4139 228.135 19.3756 228.231C19.3374 228.327 19.3302 228.433 19.3552 228.533C19.3801 228.634 19.4359 228.724 19.5146 228.791C21.6035 230.192 25.6229 232.968 30.1225 236.285Z" fill="#6DD627"/>
<path d="M53.7784 258.718L50.3134 253.823C45.2347 246.586 25.1822 232.647 19.4897 228.771C19.411 228.704 19.3552 228.614 19.3303 228.513C19.3053 228.413 19.3125 228.307 19.3507 228.211C19.389 228.115 19.4563 228.033 19.5434 227.977C19.6305 227.922 19.7329 227.894 19.8362 227.9C39.4821 229.704 57.9126 238.2 72.0439 251.967L75.103 254.937L53.7784 258.718Z" stroke="#45413C" stroke-width="5" stroke-linecap="round" stroke-linejoin="round"/>
<path d="M100.412 274.682L88.1761 233.716C88.11 233.492 87.9895 233.288 87.8253 233.122C87.6611 232.956 87.4583 232.834 87.2351 232.766C87.0119 232.698 86.7753 232.686 86.5464 232.732C86.3176 232.777 86.1037 232.879 85.9238 233.028L59.1245 255.174L100.412 274.682Z" fill="#F7E5C6"/>
<path d="M90.2254 240.577L88.1761 233.716C88.109 233.493 87.9879 233.29 87.8236 233.125C87.6592 232.96 87.4567 232.838 87.2339 232.77C87.0112 232.702 86.7751 232.69 86.5465 232.735C86.318 232.78 86.1041 232.88 85.9238 233.028L59.1245 255.174L67.6682 259.213L90.2254 240.577Z" fill="#FFF5E3"/>
<path d="M100.412 274.682L88.1761 233.716C88.11 233.492 87.9895 233.288 87.8253 233.122C87.6611 232.956 87.4583 232.834 87.2351 232.766C87.0119 232.698 86.7753 232.686 86.5464 232.732C86.3176 232.777 86.1037 232.879 85.9238 233.028L59.1245 255.174L100.412 274.682Z" stroke="#45413C" stroke-width="5" stroke-linecap="round" stroke-linejoin="round"/>
<path d="M110.501 336.998L93.7746 343.928C92.6997 344.374 91.4973 344.407 90.4001 344.018C89.3028 343.629 88.3887 342.848 87.8346 341.824L36.8496 247.467C36.7091 247.206 36.6546 246.907 36.6937 246.613C36.7329 246.319 36.8637 246.045 37.0676 245.829C37.2715 245.614 37.5381 245.468 37.8295 245.413C38.121 245.358 38.4224 245.396 38.691 245.522L100.774 274.85C101.393 275.145 101.941 275.571 102.38 276.098C102.818 276.625 103.137 277.242 103.313 277.905L115.985 325.92C116.564 328.117 116.327 330.45 115.319 332.486C114.31 334.523 112.599 336.125 110.501 336.998Z" fill="#FFF5E3"/>
<path d="M42.1461 257.273L105.798 287.349L103.323 277.9C103.147 277.237 102.829 276.621 102.39 276.094C101.952 275.568 101.403 275.143 100.784 274.85L38.6959 245.522C38.4271 245.394 38.1249 245.355 37.8324 245.409C37.5399 245.463 37.272 245.609 37.0672 245.825C36.8624 246.041 36.731 246.316 36.6919 246.611C36.6528 246.906 36.708 247.205 36.8496 247.467L42.1461 257.273Z" fill="white"/>
<path d="M110.501 336.998L93.7746 343.928C92.6997 344.374 91.4973 344.407 90.4001 344.018C89.3028 343.629 88.3887 342.848 87.8346 341.824L36.8496 247.467C36.7091 247.206 36.6546 246.907 36.6937 246.613C36.7329 246.319 36.8637 246.045 37.0676 245.829C37.2715 245.614 37.5381 245.468 37.8295 245.413C38.121 245.358 38.4224 245.396 38.691 245.522L100.774 274.85C101.393 275.145 101.941 275.571 102.38 276.098C102.818 276.625 103.137 277.242 103.313 277.905L115.985 325.92C116.564 328.117 116.327 330.45 115.319 332.486C114.31 334.523 112.599 336.125 110.501 336.998Z" stroke="#45413C" stroke-width="5" stroke-linecap="round" stroke-linejoin="round"/>
<path d="M66.5 341.413C72.8375 345.384 80.1674 347.486 87.6464 347.477H104.12C107.238 347.477 110.228 346.238 112.433 344.034C114.638 341.829 115.876 338.839 115.876 335.721C115.876 332.603 114.638 329.612 112.433 327.408C110.228 325.203 107.238 323.964 104.12 323.964H87.6464C84.8075 323.962 82.0174 323.226 79.5471 321.827C77.0769 320.428 75.0105 318.414 73.5488 315.98" fill="#BF8256"/>
<path d="M66.5 341.413C72.8375 345.384 80.1674 347.486 87.6464 347.477H104.12C107.238 347.477 110.228 346.238 112.433 344.034C114.638 341.829 115.876 338.839 115.876 335.721C115.876 332.603 114.638 329.612 112.433 327.408C110.228 325.203 107.238 323.964 104.12 323.964H87.6464C84.8075 323.962 82.0174 323.226 79.5471 321.827C77.0769 320.428 75.0105 318.414 73.5488 315.98" stroke="#45413C" stroke-width="5" stroke-linecap="round" stroke-linejoin="round"/>
<path d="M162.886 145.269V133.513C162.886 121.041 157.932 109.08 149.113 100.261C140.294 91.4425 128.333 86.4881 115.861 86.4881C103.39 86.4881 91.4286 91.4425 82.6097 100.261C73.7908 109.08 68.8364 121.041 68.8364 133.513V145.269C66.342 145.269 63.9498 146.26 62.1861 148.024C60.4223 149.788 59.4314 152.18 59.4314 154.674C59.4314 157.169 60.4223 159.561 62.1861 161.325C63.9498 163.088 66.342 164.079 68.8364 164.079C69.0344 164.079 69.2175 164.035 69.4106 164.02C71.0724 175.151 76.676 185.315 85.2014 192.662C93.7268 200.009 104.607 204.051 115.861 204.051C127.116 204.051 137.996 200.009 146.521 192.662C155.047 185.315 160.65 175.151 162.312 164.02C162.505 164.02 162.688 164.079 162.886 164.079C165.381 164.079 167.773 163.088 169.537 161.325C171.301 159.561 172.291 157.169 172.291 154.674C172.291 152.18 171.301 149.788 169.537 148.024C167.773 146.26 165.381 145.269 162.886 145.269Z" fill="#BF8256" stroke="#45413C" stroke-width="5" stroke-linecap="round" stroke-linejoin="round"/>
<path d="M82.939 162.906C82.939 164.466 83.5585 165.962 84.6614 167.064C85.7642 168.167 87.2599 168.787 88.8196 168.787C90.3792 168.787 91.8749 168.167 92.9778 167.064C94.0806 165.962 94.7002 164.466 94.7002 162.906C94.7002 161.347 94.0806 159.851 92.9778 158.748C91.8749 157.645 90.3792 157.026 88.8196 157.026C87.2599 157.026 85.7642 157.645 84.6614 158.748C83.5585 159.851 82.939 161.347 82.939 162.906Z" fill="#BF8256"/>
<path d="M137.018 162.906C137.018 164.466 137.637 165.962 138.74 167.064C139.843 168.167 141.339 168.787 142.898 168.787C144.458 168.787 145.954 168.167 147.056 167.064C148.159 165.962 148.779 164.466 148.779 162.906C148.779 161.347 148.159 159.851 147.056 158.748C145.954 157.645 144.458 157.026 142.898 157.026C141.339 157.026 139.843 157.645 138.74 158.748C137.637 159.851 137.018 161.347 137.018 162.906Z" fill="#BF8256"/>
<path d="M129.969 174.846C126.18 178.497 121.123 180.537 115.861 180.537C110.6 180.537 105.543 178.497 101.754 174.846" stroke="#45413C" stroke-width="5" stroke-linecap="round" stroke-linejoin="round"/>
<path d="M104.12 147.621C103.539 146.228 102.56 145.039 101.304 144.203C100.049 143.366 98.5746 142.92 97.0662 142.92C95.5578 142.92 94.0832 143.366 92.828 144.203C91.5728 145.039 90.5931 146.228 90.0125 147.621" stroke="#45413C" stroke-width="5" stroke-linecap="round" stroke-linejoin="round"/>
<path d="M141.74 147.621C141.159 146.228 140.18 145.039 138.925 144.203C137.669 143.366 136.195 142.92 134.686 142.92C133.178 142.92 131.703 143.366 130.448 144.203C129.193 145.039 128.213 146.228 127.633 147.621" stroke="#45413C" stroke-width="5" stroke-linecap="round" stroke-linejoin="round"/>
<path d="M162.312 164.015C161.063 172.3 157.627 180.103 152.358 186.617C147.088 193.132 140.176 198.123 132.335 201.076C136.557 207.016 142.775 215.807 143.388 223.549C144.317 232.42 142.376 241.355 137.849 249.041C137.368 249.875 137.155 250.837 137.238 251.796C137.322 252.755 137.698 253.665 138.316 254.404C138.933 255.142 139.763 255.673 140.693 255.924C141.622 256.175 142.606 256.135 143.512 255.808C153.682 252.164 162.478 245.467 168.697 236.633C174.917 227.799 178.255 217.26 178.256 206.456V142.507C178.256 118.361 167.911 77.395 135.934 80.9491L127.385 77.9246C96.9128 67.1336 57.1198 83.3696 50.5709 132.182C48.6243 145.981 51.5984 160.025 58.9715 171.85C66.3447 183.676 77.6462 192.528 90.8936 196.853C85.1625 193.246 80.2767 188.445 76.5694 182.778C72.862 177.111 70.4203 170.711 69.4106 164.015C69.2176 164.015 69.0344 164.074 68.8364 164.074C66.3421 164.074 63.9499 163.084 62.1861 161.32C60.4223 159.556 59.4314 157.164 59.4314 154.669C59.4314 152.175 60.4223 149.783 62.1861 148.019C63.9499 146.255 66.3421 145.264 68.8364 145.264C70.7954 145.098 72.6902 144.485 74.3754 143.473C76.0607 142.46 77.4915 141.075 78.5582 139.423C79.5976 138.036 80.914 136.879 82.4239 136.027C83.9339 135.175 85.6044 134.646 87.3296 134.473L95.2001 133.691C102.076 132.63 108.641 130.098 114.45 126.27C120.259 122.441 125.174 117.405 128.86 111.505C131.208 119.55 135.559 126.867 141.507 132.771C147.455 138.675 154.804 142.972 162.867 145.259C165.361 145.259 167.753 146.25 169.517 148.014C171.281 149.778 172.272 152.17 172.272 154.664C172.272 157.159 171.281 159.551 169.517 161.315C167.753 163.079 165.361 164.069 162.867 164.069C162.688 164.079 162.53 164.015 162.312 164.015Z" fill="#614B44"/>
<path d="M50.6104 148.64C57.9166 100.719 97.3483 85.1219 127.385 95.7545L135.943 98.7839C166.054 95.4377 178.266 132.474 178.266 160.337V142.517C178.266 118.371 167.92 77.4049 135.943 80.959L127.385 77.9246C96.9127 67.1336 57.1197 83.3696 50.5708 132.182C49.8338 137.644 49.8471 143.182 50.6104 148.64Z" fill="#A86C4D"/>
<path d="M162.312 164.015C161.063 172.3 157.627 180.103 152.358 186.617C147.088 193.132 140.176 198.123 132.335 201.076C136.557 207.016 142.775 215.807 143.388 223.549C144.317 232.42 142.376 241.355 137.849 249.041C137.368 249.875 137.155 250.837 137.238 251.796C137.322 252.755 137.698 253.665 138.316 254.404C138.933 255.142 139.763 255.673 140.693 255.924C141.622 256.175 142.606 256.135 143.512 255.808C153.682 252.164 162.478 245.467 168.697 236.633C174.917 227.799 178.255 217.26 178.256 206.456V142.507C178.256 118.361 167.911 77.395 135.934 80.9491L127.385 77.9246C96.9128 67.1336 57.1198 83.3696 50.5709 132.182C48.6243 145.981 51.5984 160.025 58.9715 171.85C66.3447 183.676 77.6462 192.528 90.8936 196.853C85.1625 193.246 80.2767 188.445 76.5694 182.778C72.862 177.111 70.4203 170.711 69.4106 164.015C69.2176 164.015 69.0344 164.074 68.8364 164.074C66.3421 164.074 63.9499 163.084 62.1861 161.32C60.4223 159.556 59.4314 157.164 59.4314 154.669C59.4314 152.175 60.4223 149.783 62.1861 148.019C63.9499 146.255 66.3421 145.264 68.8364 145.264C70.7954 145.098 72.6902 144.485 74.3754 143.473C76.0607 142.46 77.4915 141.075 78.5582 139.423C79.5976 138.036 80.914 136.879 82.4239 136.027C83.9339 135.175 85.6044 134.646 87.3296 134.473L95.2001 133.691C102.076 132.63 108.641 130.098 114.45 126.27C120.259 122.441 125.174 117.405 128.86 111.505C131.208 119.55 135.559 126.867 141.507 132.771C147.455 138.675 154.804 142.972 162.867 145.259C165.361 145.259 167.753 146.25 169.517 148.014C171.281 149.778 172.272 152.17 172.272 154.664C172.272 157.159 171.281 159.551 169.517 161.315C167.753 163.079 165.361 164.069 162.867 164.069C162.688 164.079 162.53 164.015 162.312 164.015Z" stroke="#45413C" stroke-width="5" stroke-linecap="round" stroke-linejoin="round"/>
</g>
<defs>
<clipPath id="clip0_242_27">
<rect width="430" height="430" fill="white"/>
</clipPath>
</defs>
</svg>
