<svg xmlns="http://www.w3.org/2000/svg" width="82" height="82" fill="none" viewBox="0 0 82 82"><path fill="#b8ecff" stroke="#b8ecff" stroke-miterlimit="10" d="M1 41.244a40 40 0 1 0 80 0 40 40 0 0 0-80 0Z"/><path fill="#000" d="M63.49 11.464C58.194.884 41.715-1.321 35.908 16.39c-2.52 7.686-7.422 14.694-10.317 22.57-3.936 10.706-5.805 25.27-13.398 34.068-.975 1.132.657 2.395 1.769 1.896 10.371-4.655 31.533.796 31.068-2.855-1.926-14.981-.504-32.596 11.215-41.144 3.24-2.363 2.756-2.575 2.6-4.595-.117-1.491-.07-3.087 1.358-3.911 2.776-1.602.386-2.837 2.52-6.652.968-1.722 2.23-1.377.767-4.304"/><path fill="#fbdd50" d="M65.765 16.223a1.033 1.033 0 0 0-1.77.042c-1.008 2.183-2.585 4.336-.925 4.8 1.175.335 4.66.863 5.305-.168.413-1.12-2.442-4.59-2.61-4.674M51.994 71.763c-1.521-2.284-2.566-.773-3.916.126-.55.415-2.687 1.397-1.093 2.36 3.99 2.411 7.305.575 5.01-2.486M52.456 67.679a1.07 1.07 0 0 0 1.343 1.642c1.215.202 3.223-2.33 2.948-3.159-1.097-1.65-1.691-.618-4.291 1.517"/><path fill="#fff" d="M58.73 16.77c-.702-6.939-7.664-7.41-7.916-3.874-.583 8.197 8.433 8.985 7.916 3.874M59.026 30.205c-1.36-4.336-16.742 13.791-13.897 40.088a1.09 1.09 0 0 0 1.6.926c11.296-7.148 17.787-23.515 12.297-41.014"/><path fill="#000" d="M65.72 13.36C63.988.984 45.423-3.448 36.287 11.212c-3.2 5.13-1.908 6.459-9.095 21.432-6.988 14.557-8.28 29.923-17.054 41.984a1.077 1.077 0 0 0 .631 1.558c3.85.75 6.97-.902 13.012-1.22 6.867-.363 12.525.671 19.622-.716.41 1.021 6.732 3.372 9.433 2.52 1.847-.58 2.772-2.57.631-5.686 4.172-.403 5.589-4.912 2.99-7.031 4.08-6.123 6.742-15.712 5.136-28.255-.686-5.374-2.431-9.66-.21-12.675a41.3 41.3 0 0 0 8.001-.717c2.771-.686-3.664-8.014-3.664-9.046m-1.008 2.61c.967 1.51 1.894 3.022 2.736 4.589q-2.39.315-4.8.38a47 47 0 0 1 2.062-4.97zM52.498 74.54c-.084.126-.504.217-.757.254a13.6 13.6 0 0 1-5.433-1.222 25 25 0 0 0 4.17-2.822c.658.697 2.648 3.06 2.02 3.79m-.042-5.6a29 29 0 0 0 2.78-3.241c1.068 1.002.038 3.5-2.78 3.243zm7.453-23.58c-.504 10.531-4.882 20.448-13.811 25.896-1.108-12.018.037-24.99 6.484-35.075a13.5 13.5 0 0 1 6.022-5.56 63 63 0 0 1 1.305 14.74zm-1.558-16.928c-5.683 2.015-8.901 8.249-10.99 13.517-3.717 9.342-4.267 20.14-3.243 30.073a.7.7 0 0 0-.42 0c-8.338 1.936-17.018-.123-25.392 1.472a29 29 0 0 1-5.347.801c7.498-11.293 9.356-24.87 14.4-36.803 1.477-3.493 3.285-6.863 4.844-10.358 3.234-7.257 3.716-13.736 9.305-18.78 8.66-7.82 20.368-3.855 22.191 5.263 0 .119-3.242 6.46-3.242 7.62-.51-.208-2.595 2.384-2.106 7.197z"/><path fill="#000" d="M55.615 15.801a1.055 1.055 0 0 0 0 2.106 1.055 1.055 0 0 0 0-2.106M46.436 36.73a25.32 25.32 0 0 1-11.202 14.19l-.631-8.296a1.053 1.053 0 0 0-2.106 0c.245 3.327.457 6.7.757 10.023a1.102 1.102 0 0 0 1.6.925 26.57 26.57 0 0 0 13.604-16.21 1.058 1.058 0 1 0-2.022-.632"/><path fill="#000" d="M54.984 9.653c-2.706-1.073-6.7.121-5.954 5.248.704 4.84 5.86 8.23 9.11 6.46 4.41-2.396 2.107-9.62-3.157-11.708m2.183 9.77c-1.806 1.072-5.35-1.163-6.046-4.617-.608-3.033 1.083-4.133 3.3-3.158 2.922 1.282 5.634 6.06 2.75 7.774z"/></svg>