<svg xmlns="http://www.w3.org/2000/svg" width="80" height="80" viewBox="62 62 900 900"><defs><clipPath id="c"><circle cx="512" cy="512" r="450"/></clipPath></defs><g clip-path="url(#c)"><path fill="#49433d" d="M366.31 675c-.17 107.53-.42 200.24-.56 206.03l-.25 10.52-5.5-1.94.02-200.55c.01-127.09.38-203.07 1.01-207.41 2.5-17.33 12.01-36.9 23.78-48.99 12.7-13.03 30.82-23.01 45.75-25.21 9.22-1.35 9.44-1.56 9.44-8.89 0-8.94 2.9-16.29 8.43-21.39 5.73-5.28 9.4-6.16 25.77-6.16l13.69-.01 3.8-5.75c4.99-7.56 18.09-21.17 26.28-27.32 9.06-6.79 24.65-14.32 36.53-17.64 9.46-2.64 11.09-2.79 30-2.74 18.92.04 20.49.2 29 2.8 17.72 5.43 38 17.1 47.95 27.57l2.95 3.1 47.55-.03c26.15-.01 48.93.38 50.61.87 13.25 3.87 17.44 11.71 17.44 32.66v12.15l9.54 3.29c5.24 1.81 10.98 4.26 12.75 5.45 2.81 1.88 3.27 2.84 3.71 7.62.48 5.27.64 5.52 4.76 7.47 5.87 2.77 12.09 9.04 14.88 15 1.97 4.21 2.34 6.61 2.35 15.18.01 9.87-.07 10.24-2.7 12.3-3.29 2.6-6.81 2.04-10.04-1.57-1.92-2.15-2.25-3.65-2.25-10.22-.01-8.17-2.33-14.19-5.49-14.19-1.27 0-1.51 1.98-1.51 12.33v12.33l5.05 2.36c5.86 2.75 12.28 9.29 15 15.29 1.46 3.21 1.91 6.53 1.93 14.25.02 8.76-.24 10.35-2.02 12.25-2.48 2.67-6.61 2.8-9.85.31-2.12-1.63-2.45-2.88-3-11.41-.48-7.44-1.08-10.19-2.67-12.33-4.01-5.36-4.44-4.43-4.44 9.45v12.99l6.25 3.42c6.89 3.77 12.75 10.46 14.62 16.72.62 2.08 1.13 8.3 1.13 13.83 0 9.68-.1 10.14-2.63 12.14-3.41 2.67-5.63 2.61-8.95-.24-2.46-2.12-2.74-3.11-3.31-11.93-.48-7.49-1.07-10.24-2.67-12.38-4.43-5.93-4.44-5.84-4.44 36.81 0 34.96-.21 40.66-1.56 42.59-2.83 4.04-6.66 5.22-16.89 5.22H778v21.82c0 24.09-.67 27.89-6.03 34.4-1.63 1.98-5.31 4.77-8.16 6.19l-5.2 2.59h-99.6l-.26 106.09-.25 106.08-3.25 1.37-3.25 1.36V784.07c0-86.05-.25-107.03-1.29-107.9-.85-.7-12.86-1.17-34.75-1.37l-33.46-.3-6.5-3.57c-5.3-2.91-7-4.49-9.24-8.61-2.72-5.01-2.74-5.17-2.85-25.73-.13-24.5-.39-25.98-4.63-26.4-3.32-.33-6.28 2.53-6.28 6.07 0 2.34-4.38 10.98-6.42 12.68-.87.72-1.58 1.89-1.58 2.6 0 1.56-8.78 9.46-10.52 9.46-.68 0-1.73.6-2.35 1.34-.61.73-3.02 1.91-5.37 2.61-2.34.7-4.52 1.68-4.83 2.18-.32.5-5.04 1.01-10.5 1.14-16.93.39-23.92-1.93-36.08-11.99-4.43-3.65-10.08-13.2-11.43-19.28-1.3-5.86-1.46-6.07-5.38-7.11-3.94-1.05-9.76-4.76-12.31-7.85-.7-.85-2.22-3.34-3.38-5.54-1.15-2.2-2.23-4.15-2.39-4.34-.17-.18-4.38-.51-9.38-.72-10.45-.45-13.39-1.65-18.42-7.53-4.39-5.13-4.96-8.95-4.3-29.16.41-12.8.76-15.2 2.61-18.2 3.63-5.87 8.04-7.85 18.95-8.49l9.58-.56.27-17.43c.21-13.27-.03-17.61-1-18.23-1.94-1.24-5.18-.99-7.28.54-1.85 1.35-1.85 1.54-.01 8.91 1.76 7.06 1.77 7.68.2 10.07-3.12 4.77-17.8 4.98-22.47.31l-2.44-2.45 2.61-7.28c1.44-4 2.62-9.02 2.62-11.14 0-5.25 2.09-9.86 5.94-13.1 2.89-2.42 4-2.7 10.95-2.7h.97c4.24.01 6.72.01 8.16-1.21 2.03-1.74 1.96-5.95 1.78-16.14-.01-.54-.01-1.09-.02-1.66l-.28-16.49-4.25-.31c-4.13-.3-4.25-.22-4.25 2.7 0 1.66.5 5.34 1.11 8.18 1.41 6.59.25 9.33-4.65 10.94-5.18 1.71-14.85.85-17.51-1.55-2.39-2.17-2.31-5.1.42-14.46.88-3.02 1.61-7.17 1.62-9.2.03-9.08 5.7-13.48 18.77-14.57l8.74-.73V417c0-3.45-.06-3.5-4.5-3.71-11.77-.54-26.98 6.08-40.17 17.47-12.17 10.51-21.99 25.94-26.1 41.01-2.1 7.72-2.11 7.97-2.42 203.23M574 503.36c2.47.2 9.45.17 15.5-.06 44.98-1.7 80.62-18.54 93.22-44.05l3.78-7.65-.26-15.05c-.52-29.9-2.28-39.67-9.86-54.84-10.79-21.58-26.06-36.96-46.85-47.21-15.15-7.46-23.74-9.6-41.03-10.22-31.37-1.11-55.18 7.82-76.51 28.72-14.57 14.28-22.95 28.5-28.19 47.82-1.79 6.63-2.09 10.75-2.19 30.18l-.11 22.5 2.94 6c1.8 3.68 5.77 8.9 10.27 13.49l7.33 7.49 2.45-3.99c2.24-3.65 2.45-5.03 2.48-16.18.02-7.21-.39-12.45-.99-12.82-3.24-2-4.92-11.88-2.92-17.17 2.11-5.57 9.28-11.31 14.14-11.33 3.12-.01 48.51-31.9 51-35.83 2.99-4.73 9.67-7.48 16.87-6.96 7.45.54 10.55 2.69 14.21 9.85 3.43 6.7 5.77 10.32 16.2 24.95 4.51 6.33 8.74 12.51 9.4 13.75 1.15 2.17 1.04 2.25-3.09 2.21l-4.29-.05-6.77-10.2c-3.73-5.62-7.63-11.32-8.66-12.67l-1.89-2.46-4.53 4.18c-2.49 2.29-5.68 4.46-7.09 4.81-1.41.36-2.56.94-2.56 1.29s3.57 5.99 7.92 12.52l7.92 11.89-1.59 3.32c-.87 1.83-1.86 3.15-2.21 2.94-.34-.22-4.86-6.72-10.03-14.46s-10-14.07-10.72-14.07c-.73 0-9.83 5.95-20.22 13.21-12.57 8.79-19.43 14.24-20.47 16.25-.87 1.67-2.48 4.16-3.59 5.54-1.61 2-2.14 4.61-2.66 13.16-.62 10.25-.53 10.93 2.23 17.25 2.68 6.17 3.07 6.59 6.1 6.59 2.7 0 3.8.78 6.72 4.75 7.78 10.59 6.86 9.94 15.84 11.14 4.54.61 10.29 1.27 12.76 1.47m-17.33 99.97c.36.37 1.94.67 3.5.67 2.26 0 2.83-.45 2.85-2.25.07-6.67 8.46-16.68 15.66-18.68 2.56-.71 33.14-1.06 92.75-1.06 88.01-.01 88.98.01 93.23 2.07 6.42 3.11 11.18 9.48 12.8 17.17l.58 2.75h9.28c5.88 0 9.72-.44 10.48-1.2s1.2-4.57 1.2-10.35v-9.15l-18.25-8.58c-10.04-4.71-30.78-14.45-46.1-21.65L706.8 540H553.95l-.98 2.75c-.53 1.51-1.37 3.46-1.87 4.32-.49.86-.67 2.72-.4 4.12.72 3.79-2.29 8.74-6.34 10.43-5.36 2.24-3.81 4.1 4.92 5.87 1.7.34 3.55 1.82 4.75 3.79 1.7 2.8 1.96 5.07 1.97 17.3 0 7.75.3 14.39.67 14.75m-33.6 288.26c-8.49 2.58-27.93 1.1-35.36-2.69-12.19-6.22-19.65-14.79-23.28-26.75-2.62-8.63-1.65-15.6 3.74-26.82 2.83-5.89 2.89-6.31 1.4-9.2-1.99-3.84-2.01-9.06-.05-11.85.84-1.2 3.32-3.19 5.53-4.43 2.85-1.6 3.82-2.7 3.36-3.8-1.41-3.35-1.65-11.24-.41-13.55 1.95-3.64 6.12-4.96 11.44-3.62 6.62 1.67 7.08 1.51 9.66-3.36 2.73-5.15 6.27-7.05 11.54-6.19 3.8.62 7.36 3.14 7.36 5.21 0 .68.79 2.21 1.75 3.39 1.63 2.01 2.1 2.08 6.76 1 6.36-1.47 11.57.4 13.96 5.01 1.55 2.99 1.24 6.43-1.11 12.56-.33.87.95 2.13 3.54 3.45 2.24 1.14 4.85 3.26 5.79 4.7 2.02 3.08 2.04 9.62.04 12.63-1.22 1.84-.98 2.84 2.2 9.14 3.35 6.64 3.57 7.67 3.57 16.6 0 8.75-.27 10.07-3.28 16.19-4.97 10.1-15.65 18.59-28.15 22.38m3.84-123.44c-7.16 2.75-24.14 3.49-31.62 1.38-8.07-2.28-11.36-3.9-17.1-8.45-14.78-11.74-19.03-30.21-10.71-46.6 3.54-6.98 3.62-7.38 2.14-10.24-3.07-5.95.01-13.6 6.57-16.32 2.53-1.05 2.89-1.63 2.35-3.83-1.86-7.69-1.75-11.57.4-14.3 2.64-3.34 7.63-4.42 12.69-2.75 3.51 1.16 3.87 1.09 5.32-1.04 4.08-6 7.84-9 11.3-9 4.52 0 9.98 3.74 11.28 7.74 1.44 4.4 2.05 4.76 4.9 2.9 3.52-2.31 8.68-2.04 12.67.65 3.18 2.14 3.4 2.64 3.37 7.75-.01 3-.38 6.6-.8 7.99-.69 2.26-.4 2.67 2.75 3.8 6.95 2.52 9.13 8.21 6.02 15.66-1.54 3.7-1.52 3.84 2.18 10.86 3.12 5.95 3.81 8.38 4.18 14.72.58 10.08-1.44 16.77-7.29 24.18-5.07 6.42-12.48 11.78-20.6 14.9m30.16-235.89c-.04.41 32.67.64 72.68.5l72.75-.26.51-154.5h-20.06l1.49 2.89c2.9 5.6 7.4 20.7 8.47 28.43.6 4.3 1.09 19.65 1.09 34.1 0 29.05-.58 32.58-7.01 42.6-9.49 14.79-30.86 28.66-54.49 35.37-17.44 4.96-25.41 5.92-50.42 6.08-22.16.15-23.46.26-24.18 2.09-.42 1.07-.79 2.28-.83 2.7M495.02 641.4c9.41 2.52 26.19 1.7 32.98-1.62 1.38-.67 5.29-3.39 8.7-6.04 11.3-8.8 15.59-23.08 10.48-34.88-1.11-2.55-2.53-4.96-3.16-5.35-.67-.41-3.58 1.8-7.05 5.36-4.85 4.97-6.95 6.35-11.69 7.71-7.58 2.18-8.28 2.86-8.28 8.04 0 3.71-.3 4.38-2 4.38-1.45 0-2-.67-2-2.43 0-5.26-1.6-7.16-8.04-9.5-7.5-2.74-13.87-8.7-15.9-14.86-1.25-3.82-1.23-4.47.21-5.91 1.42-1.42 2.48-1.47 8.92-.41 4.02.67 7.74 1.64 8.26 2.16 1.04 1.04 4.55 1.31 4.55.36 0-.33-.92-1.79-2.04-3.25-1.13-1.46-2.87-3.77-3.89-5.12-1.65-2.22-2.11-2.34-4.5-1.25-1.47.66-4.93 1.21-7.69 1.21-8.66 0-16.15 5.68-21.54 16.32-3.6 7.1-3.86 19.13-.56 25.76 4.56 9.17 13.77 16.5 24.24 19.32M462 378v155h6.33c3.49 0 6.58-.24 6.88-.54.29-.3-.53-4.21-1.84-8.7-1.3-4.49-2.37-8.92-2.37-9.86s3.39-6.05 7.54-11.36l7.54-9.65-2.91-3.69c-8.43-10.71-10.14-18.98-10.13-49.2 0-26.06 2.86-42.61 10.42-60.25.69-1.61-.16-1.75-10.35-1.75Zm154 278.65c0 .16 24.54.31 54.53.33l54.54.05-1.72-3.26c-1.07-2.03-1.75-5.65-1.79-9.51l-.06-6.25h-51.76l-51.76-.01.6 3.81c.37 2.31-.01 5.91-.98 9.18-.88 2.95-1.6 5.5-1.6 5.66m146.5-98.29c19.25 9.07 35.34 16.53 35.75 16.57s.75-12.31.75-27.43V520h-6v19.38c0 21.11-.36 22.5-5.49 21.21-2.87-.72-65.82-29.98-69.26-32.19l-2.25-1.45v-66.61c0-67.57.23-72.33 3.73-76.48 1.23-1.46.87-1.81-3.35-3.25-2.61-.88-5.11-1.61-5.56-1.61-.46 0-.72 34.9-.58 77.55l.26 77.55 8.5 3.88c4.67 2.14 24.25 11.3 43.5 20.38M456 601.02l.04.02c2.35 1.27 3.78 2.04 4.64 1.63 1.32-.63 1.32-4.02 1.32-12.62v-.08c0-20.22 2.06-22.97 17.21-22.97 7.08 0 8.48-.28 9.5-1.9 1.03-1.65.81-2.06-1.66-3.08-5.21-2.16-7.33-5.35-6.79-10.2.31-2.76-.1-5.66-1.14-8.04l-1.62-3.73h-8c-9.7-.01-14.96 2.06-19.12 7.51l-2.88 3.78v20.16c0 19.83.04 20.21 2.5 23.89 1.38 2.06 4.08 4.59 6 5.63m-9-134.91v75.24l2.25-2.05c1.24-1.13 3.26-2.57 4.5-3.21l2.25-1.16v-76.97c0-42.33-.37-76.96-.81-76.96-1.1 0-5.68 4.98-7.07 7.68-.8 1.56-1.12 23.77-1.12 77.43m328.25 81.82c4.54 2.14 8.59 3.94 9 3.98.41.05.75-4.41.75-9.91v-10h-2.87c-1.57 0-4.05-.93-5.5-2.07l-2.63-2.08.03-15.17c.02-10.35.42-15.68 1.25-16.77 1.64-2.13 5.12-3.91 7.65-3.91 3.29 0 2.39-2.69-1.13-3.39-1.76-.35-4.24-1.61-5.5-2.8-2.2-2.07-2.3-2.79-2.3-17.41v-15.25l2.63-2.08c1.45-1.14 3.96-2.07 5.58-2.07 4.17 0 3.39-3.19-1.01-4.09-6.52-1.34-7.2-2.85-7.2-15.97V417.2l-3.15-1.1c-1.73-.61-3.31-1.1-3.5-1.1s-.35 29.03-.35 64.51v64.52Zm-207.71-27.84c19.25 2.3 50.47-1 68.83-7.27 22.52-7.69 40.83-21.45 47.35-35.57 3.6-7.79 2.55-9.31-2.22-3.22-5.53 7.04-19.24 17.33-30 22.49-21.54 10.33-53.03 15.62-80.5 13.54-6.33-.48-11.68-.7-11.89-.49-.22.21.18 1.07.88 1.91.69.84 1.56 2.99 1.92 4.78.62 3.02 1 3.28 5.63 3.83m163.15-9.12c6.17 1.55 21.42.63 25.93-1.57l3.88-1.9.28-12.66.28-12.67-3.78-1.32c-5.69-2-25.76-1.75-30.53.37L723 482.9v13.44c0 7.58 0 10.63 1.52 12.25 1.09 1.15 2.96 1.57 6.17 2.38m-58.02 119.36c.36.37 5.09.67 10.5.67H693v-20.89c0-18.13-.21-20.98-1.58-21.5-2.06-.79-15.78-.79-17.84 0-1.37.52-1.58 3.31-1.58 20.83 0 11.12.3 20.53.67 20.89M617 589.17v41.9l20.5-.57v-42l-3-.34c-1.65-.19-6.26-.04-10.25.33Zm110.7 41.2c.39.38 5 .57 10.25.41l9.55-.28v-42l-8.98-.29c-7.59-.25-9.18-.02-10.25 1.44-1.38 1.88-1.9 39.39-.57 40.72M590 610.11V631h20v-20.88c0-1.8.01-3.45.01-4.96.03-10.67.05-14.74-1.92-16.27-1.21-.95-3.18-.93-6.36-.89-.74.01-1.53.02-2.4.01-.66 0-1.28-.01-1.86-.01-2.71-.04-4.44-.07-5.55.75-1.96 1.46-1.95 5.57-1.93 16.95.01 1.37.01 2.83.01 4.41m110.67 20.22c.36.37 4.86.67 10 .67 8.99 0 9.33-.08 9.41-2.25.48-13.72-.42-39.34-1.41-39.97-1.4-.9-13.24-1-16.42-.15-2.24.6-2.25.7-2.25 20.82 0 11.12.3 20.52.67 20.88m-55.22-.61c.35.92 3.2 1.28 10.02 1.28H665v-20.98c0-1.88.01-3.61.01-5.19.04-10.34.06-14.49-1.94-16.04-1.33-1.04-3.57-.92-7.29-.72-.85.04-1.78.09-2.79.13l-7.49.3-.27 19.97c-.15 10.99-.05 20.55.22 21.25m-61.36 38.55c1.33.25 40.47.41 86.99.34l84.58-.11 4.82-3c5.8-3.6 8.82-7.4 8.36-10.5-.32-2.13-.51-2.05-2.9 1.33-1.41 1.99-4.56 5.07-7 6.85-5.48 3.99-13.68 4.91-22.06 2.47-4.6-1.33-14.4-1.58-67.38-1.69-54.58-.12-62.45.06-65.72 1.45-5.03 2.15-13.32 1.98-18.51-.37-2.32-1.06-6.15-3.77-8.5-6.04-3.37-3.24-4.34-3.76-4.62-2.42-.8 3.86 6.07 10.59 11.94 11.69m153.14-10.38c4.92 2.43 11.67 2.74 15.57.7 4.46-2.33 8.4-7.2 9.11-11.27 1.58-8.97-.96-10.32-19.32-10.32h-13.5l-.66 3.5c-1.47 7.84 1.54 13.79 8.8 17.39M513.54 763.65c1.93 1.42 2.87 1.35 10.46-.71 8.36-2.28 17.47-10.38 22.63-20.11 2.04-3.85 2.82-16.62 1.34-21.98-1.01-3.64-7.44-10.71-8.65-9.5-.4.39-.22 2.59.4 4.88 2.59 9.71-4.65 16.08-14.24 12.53-4.87-1.81-5.44-1.49-7.3 4.04-1.32 3.91-.07 4.87 4.21 3.24 1.51-.57 5.17-1.04 8.14-1.04 4.39 0 5.6.38 6.48 2.01 3.77 7.06-7.11 19.83-18.32 21.51-5.8.87-7.99 3.06-5.15 5.13M766 634.97c1.38 1.09 2.95 1.84 3.5 1.67.62-.2 1-7.16 1-18.23 0-17.84-.01-17.93-2.74-22.13-2.84-4.36-7.13-7.28-10.71-7.28-2 0-2.05.5-2.05 20.88v20.88l4.25 1.12c2.34.61 5.37 2 6.75 3.09M489.5 760.54c4.08 1.99 8.54 3.43 10.69 3.44 7.12.04 5.69-4.43-1.78-5.55-7.83-1.17-16.92-9.63-18.09-16.83-.97-5.97.68-6.97 10.38-6.28 4.54.32 8.45.25 8.7-.16.73-1.19-2.53-7.16-3.9-7.16-.69 0-2.82.65-4.73 1.45-7.36 3.08-13.77-2.33-13.77-11.6 0-5.2-.75-5.89-3.31-3.06-2.96 3.28-4.88 9.52-4.95 16.16-.06 5.51.46 7.64 3.3 13.4 3.89 7.89 7.65 11.38 17.46 16.19M419.06 582.4c1.54 1.29 3.95 2.35 5.37 2.35H427v-51l-3.25.65c-1.79.35-4.6 1.99-6.25 3.64l-3 2.99-.32 16.61c-.35 18.13.18 20.8 4.88 24.76M512.5 885c1.06 1.71 7.75 1.06 13.52-1.32 18.23-7.5 26.65-23.18 21.54-40.14-1.39-4.64-4.92-9.54-6.86-9.54-.55 0-.74 1.98-.44 4.61.79 7.01-.74 11.18-4.83 13.13-3.24 1.54-3.78 1.53-8.46-.15-5.39-1.94-7.27-1.39-8.26 2.41-.76 2.9 1.67 4.33 6.03 3.53 6.6-1.22 11.34-1.02 12.31.52 1.78 2.81.99 7.6-1.91 11.55-4.62 6.28-7.21 8.09-14.89 10.41-7.35 2.22-8.86 3.19-7.75 4.99M537 430.58c0 .78.23 1.42.52 1.42.28 0 8.16-5.36 17.51-11.91l17-11.9-2.45-2.91c-1.35-1.6-2.75-4.13-3.13-5.61-.37-1.48-.97-2.87-1.33-3.1-.57-.35-12.09 7.43-29.74 20.1l-5.11 3.67 3.36 4.4c1.86 2.43 3.37 5.05 3.37 5.84m-47.7 451.93c7.42 3.71 14.05 4.62 15.03 2.06.74-1.92-1.05-3.17-5.78-4.02-8.21-1.48-15.05-6.72-18-13.77-3.52-8.43-1.24-10.35 11.12-9.35 4.58.37 8.33.49 8.33.27s-.5-1.83-1.11-3.57c-1.48-4.27-4.24-5.7-7.13-3.67-1.21.84-3.86 1.54-5.89 1.54-5.54 0-8.87-4.36-8.87-11.61 0-5.23-.09-5.41-2.09-4.34-5.36 2.87-7.83 17.71-4.57 27.47 2.25 6.77 9.96 14.49 18.96 18.99m252.45-350.27c10.31 4.81 18.86 8.75 19 8.75.14.01.25-5.65.25-12.58v-12.59l-4.25.84c-2.34.46-10.89.82-19 .8l-14.75-.04v3.04c0 2.97.44 3.25 18.75 11.78m-44.76 19.27c-1.86 2.24-94.12 2.24-95.98 0-.68-.82-.97-2.17-.65-3 .5-1.32 6.66-1.51 48.64-1.51s48.14.19 48.64 1.51c.32.83.03 2.18-.65 3m0 11c-1.86 2.24-94.12 2.24-95.98 0-.68-.82-.97-2.17-.65-3 .5-1.32 6.66-1.51 48.64-1.51s48.14.19 48.64 1.51c.32.83.03 2.18-.65 3M570 617.94v18.65l6.48-3.04 6.48-3.05.02-20.19c.01-11.11-.35-20.42-.81-20.71-1.57-.96-7.62 2.89-9.9 6.3-2.16 3.23-2.27 4.32-2.27 22.04m127.5-48.44v5l-47.62.26c-41.28.22-47.78.06-48.86-1.24-.68-.82-.98-2.18-.66-3.02.51-1.34 6.4-1.49 48.86-1.26ZM723 467.23c0 4.64 0 6.69.98 7.4.77.57 2.17.29 4.67-.21l.13-.03c2.44-.48 3.35-1.45 4.7-4.99 3.25-8.5 10.2-10.95 14.98-5.26 1.46 1.73 2.91 4.44 3.22 6.02.68 3.37.68 3.37 5.57 4.25l3.75.68v-16.77l-3.75-1.1c-6.86-2.02-15.77-2.48-23.36-1.22-5.85.98-8.56 1.4-9.81 2.98-1.08 1.36-1.08 3.58-1.08 7.75zm0-71.11v.09c0 4.67 0 6.72.98 7.43.77.56 2.14.29 4.6-.21l.07-.01c2.26-.45 3.29-1.55 4.72-5.01 2.19-5.29 5.83-8.41 9.81-8.41 3.58 0 7.63 3.81 8.46 7.95.72 3.6 1.82 4.6 6.11 5.51l3.25.7v-7.96c0-5.75-.4-8.29-1.46-9.17-2.85-2.36-15.07-3.49-24.71-2.28-4.94.63-9.63 1.67-10.41 2.32-1.01.83-1.42 3.47-1.42 9.05m0 23.53c0 7.4.22 8.48 1.58 7.96.87-.34 2.86-.61 4.42-.61 2.3 0 2.96-.53 3.46-2.82.34-1.55 1.98-4.48 3.65-6.5 2.36-2.86 3.76-3.68 6.28-3.68 3.79 0 8.27 4.07 9.47 8.6.56 2.11 1.71 3.21 4.21 4.04 1.88.63 3.77.94 4.18.69s.75-3.97.75-8.27v-7.82l-3.25-1.37c-4.17-1.75-24.64-1.79-30.5-.05l-4.25 1.26Zm.55 31.56c.3.31 2.3.11 4.44-.43 2.86-.73 4.13-1.7 4.81-3.65.51-1.46 2.16-4.11 3.65-5.89 2.18-2.59 3.48-3.24 6.48-3.24 4.37 0 6.63 2.02 8.57 7.68 1.27 3.7 3.16 4.96 7.79 5.22 1.61.09 1.76-.75 1.5-8.15l-.29-8.25-5-1.3c-5.92-1.55-24.33-1.05-29.25.78L723 435.2v7.73c0 4.26.25 7.98.55 8.28M587.24 657.89c13.07 6.47 27.72-3.95 24.36-17.33-.6-2.39-1.03-2.56-6.69-2.56h-6.06l2.08 2.63c2.65 3.38 2.62 6.15-.1 9.06-2.76 2.93-7.64 3.03-11.2.24-2.93-2.31-3.38-5.56-1.16-8.49.81-1.07 1.48-2.28 1.5-2.69.06-1.43-7.53-.74-9.86.89-2 1.39-2.27 2.26-1.86 5.91.63 5.52 3.67 9.71 8.99 12.34m-85.57-132.02c2.5 1.46 3.33 1.38 3.33-.29 0-2.47 4.93-7.41 8.09-8.1 4.57-1 8.57 1.12 10.63 5.64 1.46 3.21 2.14 3.78 3.78 3.2 1.1-.39 4.59-.7 7.75-.7 4.55 0 5.75-.32 5.74-1.56 0-1.1-2.42-2.23-8.25-3.84-4.53-1.25-13.34-4.76-19.57-7.8l-11.33-5.53-5.42 4.63c-5.43 4.65-5.92 5.75-4.84 11.12.53 2.68.87 2.87 4.41 2.53 2.11-.2 4.67.12 5.68.7m228.58-148.02c.69.69 2.15 1.01 3.25.71 1.1-.29 5.26-.54 9.25-.55L750 378v-20h-9.89c-8.1 0-10.01.29-10.5 1.58-1.15 2.99-.66 16.97.64 18.27m39 15.08c1.24.47 2.63.51 3.09.08s.69-5.94.5-12.23c-.3-10.23-.6-11.82-2.82-15.05-2.53-3.69-8.49-7.73-11.41-7.73-1.38 0-1.61 1.53-1.61 10.88v10.88l3.12 1.29c3.27 1.35 6.87 6.19 6.88 9.23 0 .98 1.01 2.17 2.25 2.65m-252.83 53.65c1.69.74 3.53 1.36 4.08 1.38 1.86.06 7.38-3.85 9.07-6.43 2.05-3.13 1.45-9.74-1.14-12.6-3.86-4.28-13.02-4.26-16.9.04-.97 1.07-1.98 3.88-2.25 6.24-.56 5.02 2.03 9.15 7.14 11.37m61.95-43.5c3.98 2.43 6.31 2.41 10.4-.08 5.99-3.65 7.11-11.78 2.33-16.89-2.45-2.63-3.63-3.11-7.6-3.11-4.01 0-5.2.5-8.1 3.4-5.53 5.53-4.33 12.23 2.97 16.68M432.93 534l.25 51H440v-51Zm314.79-30.21c-6.74 6.34-16.81 1.39-15.38-7.56.79-4.96 7.27-11.23 11.62-11.23 3.49 0 6.69 2.75 7.65 6.57.88 3.51-1.04 9.55-3.89 12.22m-233.33-7.77c3.25 1.32 4.85 1.13 8.26-.95 8.48-5.17 5.11-18.07-4.73-18.07-8.27 0-12.82 9.04-7.78 15.45 1.17 1.49 3.09 3.1 4.25 3.57M713.5 372.48c3.3 1.31 6.56 2.41 7.25 2.45.91.05 1.25-2.26 1.25-8.43V358h-20v6c0 5.87.06 6 2.75 6.05 1.51.03 5.45 1.12 8.75 2.43M503.37 803.34c1.26 3.02 1.7 3.27 5.75 3.17 4.06-.1 4.47-.36 5.57-3.56 1.74-5.03 1.53-9.88-.66-14.7-2.01-4.43-4.17-5.31-7.99-3.27-3.8 2.03-5.27 12.14-2.67 18.36m3.29 52.53c1.14.66 1.66 1 2.19 1.01.5.01.99-.26 2-.8.09-.05.19-.1.3-.16 4.26-2.28 5.95-10.86 3.54-17.92-1.12-3.28-1.48-3.51-5.86-3.7-4.39-.18-4.73-.01-5.75 2.9-2.31 6.63-.46 16.32 3.58 18.67m-23.6-323.62c.56 2.06 1.28 3.75 1.61 3.75.66 0-.56-17.54-1.37-19.66-.32-.83 3.46-5.15 9.64-11.02 11.06-10.52 12.45-13.54 6.49-14.12-2.82-.28-3.73.55-11.5 10.43-4.63 5.91-8.73 11.23-9.11 11.83-.37.61.2 4.24 1.27 8.07s2.4 8.66 2.97 10.72m23.77 201.19c2.2 1.17 3.02 1.2 4.67.13 2.81-1.81 4.77-8.22 4.09-13.36-.91-6.9-2.02-8.21-7.02-8.21-4.87 0-5.15.36-6.15 7.88-.84 6.32.91 11.7 4.41 13.56m-3.89-53.68 1.14 4.24h9.68l1.12-4.44c1.49-5.92 1.42-7.78-.49-12.55-2.12-5.29-5.53-6.33-9.09-2.76-3.04 3.04-4.01 9.4-2.36 15.51m-26.69 145.25c3.6 2.2 11.5 2.67 16.36.98 2.71-.95 2.88-1.31 2.54-5.52-.45-5.76-2.3-6.8-11.21-6.3-4.84.28-7.39.93-8.87 2.26-3.12 2.83-2.65 6.24 1.18 8.58m70.13-289.76c-.28.96-.15 1.75.3 1.74.45 0 2.49-4.54 4.54-10.09l3.72-10.08-8.08-11.91c-7.12-10.49-8.42-11.91-10.9-11.91-1.96 0-3.02.62-3.47 2.04-.51 1.59 1.2 4.08 7.93 11.51 6.47 7.15 8.58 10.17 8.58 12.28 0 2.78-1.64 13.07-2.62 16.42m132.53-165.47c1.48 1.22 13.14.93 15.27-.39.45-.28.82-2.72.82-5.41 0-3.69-.44-5.12-1.75-5.75-1.41-.68-11.84-.88-18-.34-2.97.26-.43 8.52 3.66 11.89M477.28 703.59c3.59 1.63 14.87 1.36 16.99-.4.78-.65 1.12-2.76.89-5.59-.34-4.29-.55-4.58-3.8-5.19-5.99-1.13-14.26.04-16.55 2.34-2.89 2.89-1.76 6.91 2.47 8.84m48.97.29c8.4 2.43 17.17.28 18.37-4.49 1.07-4.27-3.17-7.39-10.05-7.39-2.93 0-6.73.28-8.45.62-2.98.6-3.12.85-3.12 5.48 0 4.61.16 4.89 3.25 5.78m-.5 122.01c1.51.58 5.54.94 8.94.79 9.28-.4 13.43-5.55 8.25-10.23-2.46-2.23-12.99-3.18-17.19-1.56-2.43.94-2.75 1.58-2.75 5.5s.32 4.57 2.75 5.5M505.5 705.85c7.99 4.36 15.67-6.78 9.33-13.54-4.77-5.07-13.83-1.42-13.83 5.57 0 3.97 1.25 6.19 4.5 7.97m0 122c3.25 1.77 6.43 1.31 9.05-1.3 7.62-7.63-2.45-19.14-10.92-12.48-2 1.58-2.63 2.97-2.63 5.81 0 3.97 1.25 6.19 4.5 7.97m20.2 17.17c5.44 3.46 6.02 3.55 8.47 1.33 4.92-4.46-.32-13-9.26-15.1-6.35-1.49-7.67-.63-5.5 3.59.88 1.68 1.59 3.99 1.59 5.13 0 1.38 1.57 3.07 4.7 5.05m-6.21-35.03c.39.63 1.45.84 2.36.46.91-.37 3.13-1.03 4.93-1.47 3.98-.95 5.9-2.46 7.79-6.11 3.4-6.58.43-11.01-5.97-8.9-1.82.6-4.2 2.09-5.3 3.31-2.32 2.57-4.85 11.02-3.81 12.71m-26.95-.89c5.65 1.51 5.98 1.5 6.27-.2.17-.99-.16-2.69-.75-3.78-.58-1.09-1.06-2.84-1.06-3.88 0-2.41-3.68-5.88-7.72-7.29-6.79-2.37-9.59 3.33-4.99 10.15 1.83 2.73 3.47 3.72 8.25 5M495 687.44c1.92.72 3.79 1.13 4.14.93.9-.5-2.37-10.74-4.09-12.81-1.68-2.02-6.37-4.56-8.43-4.56-2.71 0-4.85 3.12-4.24 6.17.81 4.01 4.61 8.82 7.06 8.91 1.13.04 3.64.65 5.56 1.36m24-.15c0 1.38.68 1.36 6.25-.2 5.6-1.57 6.49-2.19 8.6-5.96 2.8-5.02 2.31-8.8-1.26-9.7-2.63-.66-7.23 1.35-9.67 4.22-1.59 1.87-3.92 8.78-3.92 11.64m-34.76 159.17c2.48 1.73 3.72 1.48 8.5-1.76 2.38-1.61 3.65-3.58 4.75-7.35 1.96-6.7 1.92-7.73-.24-6.87-.96.38-3.33.94-5.25 1.24-7.83 1.23-13 11.06-7.76 14.74m42.26-123.3c4.22 2.58 7.31 2.36 8.66-.61 1.34-2.95-.13-7.28-3.49-10.3-2.38-2.14-11.33-4.92-12.4-3.86-.85.86 1.45 9.56 3.03 11.48.66.8 2.55 2.28 4.2 3.29m-43.3.64c4.1 4.1 12.59-1.54 14.7-9.78.72-2.83 1.07-5.38.78-5.67-.29-.3-3.14.29-6.33 1.31-4.4 1.4-6.34 2.66-8.07 5.24-2.52 3.75-2.92 7.06-1.08 8.9m309.45-266.5c.56 3.39.92 3.77 3.24 3.5l2.61-.3.28-13.75.28-13.75h-2.89c-2.74 0-2.92.27-3.52 5.25-.8 6.68-.8 14.19 0 19.05m-.12 39.23c.7 7.4.73 7.47 3.59 7.47H799v-13.39c0-13.91-.21-14.61-4.47-14.61-1.79 0-2.88 11.11-2 20.53M751 650c-2.87 2.87-8.44 2.66-11.55-.45-2.87-2.88-2.96-3.66-.92-7.6 1.37-2.66 2.01-2.95 6.42-2.95 3.13 0 5.48.57 6.48 1.57 2.18 2.19 1.96 7.04-.43 9.43M511.04 539.07c1.31 2.45 7.45 2.71 8.35.35 1.37-3.57.62-13.18-1.2-15.44-2.26-2.79-5.87-1.96-7.25 1.67-1.25 3.3-1.2 11 .1 13.42m1.4 42.47c4.4 4.39 7.56 1.09 7.56-7.89 0-7.72-.54-8.65-5-8.65s-5 .93-5 8.63c0 4.46.45 5.91 2.44 7.91m-15.3 170.97c6.02 1.87 7.86 1.81 7.86-.26-.02-5.52-7.27-11.08-15.71-12.03-4.74-.53-4.91-.32-2.89 3.58 2.16 4.14 5.94 7.21 10.74 8.71M530 557.11c10.08 2.78 19.19-1.92 13.93-7.18-1.5-1.5-3.33-1.93-8.18-1.91-7.75.01-8.99.74-8.57 5.05.25 2.59.89 3.51 2.82 4.04m-41.75-.6c3.59 1.56 6.91 1.81 11.63.87 2.83-.57 3.12-.98 3.12-4.4 0-4.44-.94-4.98-8.65-4.98-6.75 0-9.35 1.27-9.35 4.58 0 1.88.82 2.87 3.25 3.93m24.43 196.78c.68 1.11 6.78.03 10.95-1.93 3.68-1.73 6.51-4.74 8.22-8.74l1.23-2.89-4.48.51c-6.44.72-11.74 3.8-14.28 8.3-1.21 2.12-1.94 4.26-1.64 4.75m-.1 121.83c1.32 2.15 10.12-.15 14.42-3.78 3.09-2.6 6.56-8.11 5.67-9.01-1.07-1.06-9.92 1.04-12.92 3.06-3.6 2.43-8 8.4-7.17 9.73m-1.93-317.57c3.23 2.99 5.28 3.08 8.72.38 5.41-4.26 2.53-11.93-4.47-11.93-6.68 0-9.24 6.93-4.25 11.55m-13.01 317.22c8.02 2.13 9.1 1.11 5.11-4.82-2.88-4.27-7.2-6.78-13.09-7.58-4.06-.56-4.66-.41-4.66 1.17 0 2.74 8.23 10.06 12.64 11.23M525 441c-1.11 1.11-3.33 2-5 2-6.03 0-9.15-6.85-5-11 2.8-2.8 8.41-2.68 10.44.22 2.13 3.03 1.96 6.38-.44 8.78m63.53-43.35c-2.96 4.23-8.57 3.31-11.48-1.87-1.39-2.48-1.35-2.91.57-5.48 5.53-7.45 16.23-.24 10.91 7.35M514 461.88V470h9v-7.5c0-7.11-.12-7.5-2.25-7.51-1.24-.01-3.26-.29-4.5-.62-2.2-.59-2.25-.42-2.25 7.51m301.89 19.41c1.86 3.14 3.75 5.71 4.19 5.71 3.56 0-.08-9.03-5.59-13.88-5.23-4.59-9.34-6.12-16.43-6.12-7.69 0-7.53 2.43.22 3.35 8.29.98 13.68 4.33 17.61 10.94m1.31-41.39c1.67 3.03 2.83 3.73 4.09 2.47 1.14-1.14-2.33-7.81-6.05-11.63-6.35-6.51-22.24-10.62-22.24-5.74 0 1.68.67 2 4.25 2.01 8.16.02 15.47 4.74 19.95 12.89M530.5 574.16c3.52 2.15 4.67 2.27 6.3.64 1.79-1.79 1.46-4.63-.92-7.97-2.05-2.88-4.22-4.12-9.54-5.46-2.53-.63-2.55-.59-1.84 3.74.83 5.02 1.8 6.48 6 9.05m-36.93.27c.84.84 1.3 1.31 1.84 1.42.69.15 1.49-.26 3.33-1.22l.06-.03c4.11-2.12 5.91-4.67 6.7-9.45.64-3.94.53-4.3-1.15-3.8-1.02.31-3.09.85-4.6 1.21-3.19.76-7.75 5.74-7.75 8.45 0 1.01.71 2.55 1.57 3.42m30.91-34.68c-.74 4.76-.44 4.92 5.82 3.18 5.85-1.62 9.71-9.02 6.21-11.92-3.72-3.09-11.01 2.21-12.03 8.74m-23.84 3.22c4.91 1.47 6.67 1.25 5.83-.72-.42-.96-.97-2.99-1.23-4.51-.95-5.57-9.27-9.82-12.24-6.24-2.5 3.01 2.01 9.78 7.64 11.47m280.03-103.64c.83.83 2.68.86 4.75.06 1.28-.49 1.58-2.31 1.58-9.5V421h-7v8.83c0 4.86.3 9.14.67 9.5m36.03 86.41c2.44 3.81 3.81 5.15 4.54 4.42s.25-2.68-1.58-6.42c-2.94-6.02-8.63-10.75-15.32-12.76-4.06-1.21-11.34-.66-11.34.86 0 .41 3.15 1.48 7 2.39 8.63 2.02 12.2 4.48 16.7 11.51M418 435.07c0 2.67.31 2.93 3.42 2.93 2.56 0 3.91-.68 5.39-2.71 1.6-2.2 3-2.82 7.32-3.25 4.04-.41 5.43-.97 5.68-2.29.3-1.55-.6-1.75-8.1-1.75-9.91 0-13.71 1.96-13.71 7.07m51 145.91c0 7.46 1.32 7.77 6.45 1.52 2.02-2.47 4.5-4.5 5.49-4.5 2.2 0 4.48-2.51 3.59-3.96-.82-1.31-9.56-1.36-12.96-.06-2.37.89-2.57 1.45-2.57 7m50.08 18.3c-1 2.65-.93 2.72 2.56 2.72 6.15 0 14.36-6.23 14.36-10.9 0-1.68-5.03-1.27-9.5.76-4.48 2.04-5.92 3.48-7.42 7.42m261.58-117.02c.29.47 1.72.72 3.18.55 2.64-.31 2.66-.39 2.95-9.4l.28-9.09-3.69.13-3.69.13.23 8.41c.12 4.64.45 8.81.74 9.27M527.5 511.08c10.8 4.2 11.44 3.83 5.32-3.1-5.1-5.77-5.47-5.99-8.82-5.27-1.92.41-5.75.68-8.5.6l-5-.16 5 2.6c2.75 1.43 8.15 3.83 12 5.33m-109.1-23.32c-.65 3.23-.64 3.24 3.48 3.24 2.26 0 4.12-.45 4.12-1 0-2.69 4.12-5 8.91-5 4.49 0 4.86-.18 4.35-2.1-.51-1.95-1.11-2.07-8.87-1.75-9.23.39-10.94 1.33-11.99 6.61m362.85 38.58c4.57 1.84 5.9-.54 5.54-10l-.29-7.84-6.5-.63v8.98c0 6.25.38 9.14 1.25 9.49m-274.56 75.69c2.09.41 3.92.79 4.06.86.14.06.25-.77.25-1.86 0-5.05-9.84-11.79-15.87-10.88l-2.29.35 2.33 3.41c3.12 4.56 6.9 7.23 11.52 8.12m37.44-16.57c3.71 3.12 4.47 3.16 5.24.29 1.91-7.13.02-12.75-4.28-12.75-2.2 0-3.12.66-4.06 2.93-1.54 3.73-.7 6.33 3.1 9.53M417.5 455.13c2.53.55 8.38.18 9.26-.59.14-.12-.52-2.32-1.47-4.88-1.54-4.18-2.04-4.66-4.85-4.66-2.78 0-3.27.46-4.52 4.25q-.15.435-.27.81c-.84 2.52-1.19 3.59-.81 4.15.32.47 1.16.6 2.66.92m-2.5 51.19c0 1.37 1.02 1.68 5.5 1.68 6.02 0 6.13-.16 4.34-6.13-1.02-3.43-1.52-3.87-4.3-3.87-2.65 0-3.33.52-4.34 3.32-.66 1.83-1.2 4.08-1.2 5m354.75-97.89c3.69 2 3.85 1.97 7.76-1.15l3.4-2.71-6.08-2.29c-3.34-1.25-6.47-2.28-6.95-2.28s-.88 1.56-.88 3.47c0 2.75.57 3.77 2.75 4.96M520 587.96c0 1.42.44 1.35 7.15-1.09 6.47-2.37 7.64-4.73 3.3-6.71-4.46-2.03-6.27-1.43-8.43 2.8-1.11 2.18-2.02 4.43-2.02 5m-32.33-104.2c2.4 3.19 2.48 3.22 4.79 1.5l2.35-1.76-6.1-6.5c-3.35-3.58-6.49-6.95-6.97-7.5-1.24-1.4.21 4.33 2.02 8 .81 1.65 2.57 4.46 3.91 6.26m250.39 15.81c1.74 2.1 4.61 1.74 6.38-.79 1.74-2.49 2.08-7.34.58-8.27-2.97-1.83-9.24 6.32-6.96 9.06m82.19-41.29c1.69.6 2.1.11 2.52-3.06.57-4.23-.69-9.22-2.32-9.22-1.91 0-2.1 11.6-.2 12.28m-27.5-45.03c.42 3.36.77 3.75 3.36 3.75 2.41 0 2.89-.41 2.89-2.47 0-1.76-.9-2.94-3.09-4.08-1.7-.88-3.22-1.45-3.36-1.27-.15.17-.06 2.01.2 4.07m-54.18 11.87c.73 1.17 7.16 1.13 7.89-.05.31-.51-.48-2.15-1.76-3.64l-2.34-2.71-2.16 2.76c-1.2 1.51-1.93 3.15-1.63 3.64m1.12 24.05c1.61.65 6.25.22 7.14-.66.53-.53-2.97-5.51-3.87-5.51-.45 0-1.78 1.22-2.95 2.71-2.02 2.57-2.04 2.76-.32 3.46m-.81 21.63c-.76 2.06-.53 2.2 3.56 2.2 3.86 0 4.31-.23 3.86-1.97-1.28-4.87-5.65-5.01-7.42-.23m.12-69.87c0 .59 1.8 1.07 4 1.07s4-.2 4-.45c0-1.96-2.67-5.55-4.13-5.55-1.73 0-3.87 2.72-3.87 4.93m80.67 100.4c1.71 1.72 2.33.16 2.33-5.83 0-5.11-.32-6.5-1.5-6.5-1.16 0-1.5 1.31-1.5 5.83 0 3.21.3 6.14.67 6.5m0 45c1.79 1.8 2.4.09 2.13-6-.19-4.22-.76-6.82-1.55-7.08-.91-.31-1.25 1.31-1.25 6 0 3.53.3 6.72.67 7.08m-39.13-88.27c1 1.62 4.9.66 5.27-1.31.25-1.29-.32-1.75-2.18-1.75-2.73 0-4.13 1.38-3.09 3.06m-.11-44.17c.38.61 1.53 1.11 2.57 1.11 2.45 0 3.65-1.98 1.88-3.1-.76-.48-1.6-.87-1.88-.87-1.46 0-3.16 1.9-2.57 2.86m.05 87.08c1 1.61 5.02.84 5.02-.96 0-1.78-3.3-2.61-4.72-1.19-.55.55-.69 1.52-.3 2.15"/><path fill="#5a412e" d="M495.02 641.4c-10.47-2.82-19.68-10.15-24.24-19.32-3.3-6.63-3.04-18.66.56-25.76 5.39-10.64 12.88-16.32 21.54-16.32 2.76 0 6.22-.55 7.69-1.21 2.39-1.09 2.85-.97 4.5 1.25 1.02 1.35 2.76 3.66 3.89 5.12 1.12 1.46 2.04 2.92 2.04 3.25 0 .95-3.51.68-4.55-.36-.52-.52-4.24-1.49-8.26-2.16-6.44-1.06-7.5-1.01-8.92.41-1.44 1.44-1.46 2.09-.21 5.91 2.03 6.16 8.4 12.12 15.9 14.86 6.44 2.34 8.04 4.24 8.04 9.5 0 1.76.55 2.43 2 2.43 1.7 0 2-.67 2-4.38 0-5.18.7-5.86 8.28-8.04 4.74-1.36 6.84-2.74 11.69-7.71 3.47-3.56 6.38-5.77 7.05-5.36.63.39 2.05 2.8 3.16 5.35 5.11 11.8.82 26.08-10.48 34.88-3.41 2.65-7.32 5.37-8.7 6.04-6.79 3.32-23.57 4.14-32.98 1.62M366.31 675c.31-195.26.32-195.51 2.42-203.23 4.11-15.07 13.93-30.5 26.1-41.01 13.19-11.39 28.4-18.01 40.17-17.47.35.02.67.03.96.05-1.5.13-3.52.54-6.21 1.18-14.5 3.48-27.84 11.6-39.94 24.34-9.75 10.26-15.77 21.28-19.45 35.62l-2.32 9.02-.02 204.25c-.02 162.78-.27 204.23-1.27 204.14-.69-.05-2.49-.59-4-1.19l-2.75-1.09 5.5 1.94.25-10.52c.14-5.79.39-98.5.56-206.03M652 890.74c-.54.16-.94.26-1.12.26-.49 0-.98-46.76-1.13-106.75l-.25-106.75-68-1-5.5-2.86c-7.54-3.92-9.65-6.09-11.99-12.34-1.78-4.77-2.01-7.79-2.01-26.8 0-20.15-.12-21.49-1.93-22.46-2.48-1.33-5.07 1.04-5.07 4.64 0 4.14-5.86 13.9-11.62 19.34-7.21 6.82-16.27 10.96-26.68 12.17-9.47 1.1-19.97.18-26.61-2.34-.63-.24-1.59-.74-2.73-1.39 6.6 3.22 13.33 4.06 24.07 3.81 5.46-.13 10.18-.64 10.5-1.14.31-.5 2.49-1.48 4.83-2.18 2.35-.7 4.76-1.88 5.37-2.61.62-.74 1.67-1.34 2.35-1.34 1.74 0 10.52-7.9 10.52-9.46 0-.71.71-1.88 1.58-2.6 2.04-1.7 6.42-10.34 6.42-12.68 0-3.54 2.96-6.4 6.28-6.07 4.24.42 4.5 1.9 4.63 26.4.11 20.56.13 20.72 2.85 25.73 2.24 4.12 3.94 5.7 9.24 8.61l6.5 3.57 33.46.3c21.89.2 33.9.67 34.75 1.37 1.04.87 1.29 21.85 1.29 107.9ZM513.54 763.65c-2.84-2.07-.65-4.26 5.15-5.13 11.21-1.68 22.09-14.45 18.32-21.51-.88-1.63-2.09-2.01-6.48-2.01-2.97 0-6.63.47-8.14 1.04-4.28 1.63-5.53.67-4.21-3.24 1.86-5.53 2.43-5.85 7.3-4.04 9.59 3.55 16.83-2.82 14.24-12.53-.62-2.29-.8-4.49-.4-4.88 1.21-1.21 7.64 5.86 8.65 9.5 1.48 5.36.7 18.13-1.34 21.98-5.16 9.73-14.27 17.83-22.63 20.11-7.59 2.06-8.53 2.13-10.46.71m-24.04-3.11c-9.81-4.81-13.57-8.3-17.46-16.19-2.84-5.76-3.36-7.89-3.3-13.4.07-6.64 1.99-12.88 4.95-16.16 2.56-2.83 3.31-2.14 3.31 3.06 0 9.27 6.41 14.68 13.77 11.6 1.91-.8 4.04-1.45 4.73-1.45 1.37 0 4.63 5.97 3.9 7.16-.25.41-4.16.48-8.7.16-9.7-.69-11.35.31-10.38 6.28 1.17 7.2 10.26 15.66 18.09 16.83 7.47 1.12 8.9 5.59 1.78 5.55-2.15-.01-6.61-1.45-10.69-3.44m23 124.46c-1.11-1.8.4-2.77 7.75-4.99 7.68-2.32 10.27-4.13 14.89-10.41 2.9-3.95 3.69-8.74 1.91-11.55-.97-1.54-5.71-1.74-12.31-.52-4.36.8-6.79-.63-6.03-3.53.99-3.8 2.87-4.35 8.26-2.41 4.68 1.68 5.22 1.69 8.46.15 4.09-1.95 5.62-6.12 4.83-13.13-.3-2.63-.11-4.61.44-4.61 1.94 0 5.47 4.9 6.86 9.54 5.11 16.96-3.31 32.64-21.54 40.14-5.77 2.38-12.46 3.03-13.52 1.32m-23.2-2.49c-9-4.5-16.71-12.22-18.96-18.99-3.26-9.76-.79-24.6 4.57-27.47 2-1.07 2.09-.89 2.09 4.34 0 7.25 3.33 11.61 8.87 11.61 2.03 0 4.68-.7 5.89-1.54 2.89-2.03 5.65-.6 7.13 3.67.61 1.74 1.11 3.35 1.11 3.57s-3.75.1-8.33-.27c-12.36-1-14.64.92-11.12 9.35 2.95 7.05 9.79 12.29 18 13.77 4.73.85 6.52 2.1 5.78 4.02-.98 2.56-7.61 1.65-15.03-2.06M471 607.53c0 2.46.36 4.47.8 4.47.45 0 2.36-1.61 4.25-3.59 1.9-1.97 5.11-4.44 7.13-5.48 2.03-1.05 3.99-2.39 4.36-2.99.76-1.24-2.64-13.94-3.74-13.94-.4 0-2.4 1.46-4.43 3.25-4.57 4.01-8.37 12.31-8.37 18.28m73.13-22.07c-3.8-3.2-4.64-5.8-3.1-9.53.94-2.27 1.86-2.93 4.06-2.93 4.3 0 6.19 5.62 4.28 12.75-.77 2.87-1.53 2.83-5.24-.29m-3.38 23.55c5.28 5.61 6.61 5.3 6.05-1.42-.25-2.97-1.27-6.66-2.28-8.2l-1.83-2.79-2.84 3.41c-1.57 1.88-2.85 3.77-2.85 4.22 0 .44 1.69 2.59 3.75 4.78M520 587.96c0-.57.91-2.82 2.02-5 2.16-4.23 3.97-4.83 8.43-2.8 4.34 1.98 3.17 4.34-3.3 6.71-6.71 2.44-7.15 2.51-7.15 1.09m24.29-4.24c2.79 3.09 3.71 2.03 3.71-4.28 0-5.15-.13-5.44-2.52-5.44-1.8 0-2.81.75-3.51 2.58-1.06 2.79-.76 3.71 2.32 7.14M659 679.79v208.18l-3.62 1.52c-.14.05-.28.11-.41.17l.28-.12 3.25-1.37.25-106.08Zm-115.43 48.68c.91 1.38 2.08 2.25 2.61 1.92 1.25-.78.01-8.49-1.65-10.23-2.17-2.27-3.02 5.16-.96 8.31m.5 122.21c.94 2.48 1.19 2.61 2.04 1.08 1.12-1.99-.59-9.76-2.15-9.76-1.29 0-1.22 5.18.11 8.68m-72.69-.13c.52 1.36.92 1.44 2.13.44 1.69-1.4 2-5.56.49-6.49-1.35-.83-3.42 3.96-2.62 6.05m6.15-163.26c-.36.2-.8.41-1.34.63-6.41 2.66-9.49 10.02-6.77 15.9l-.4-.79c-2.54-4.96-2.06-8.71 1.56-12.33 1.35-1.35 3.84-2.73 5.55-3.08.57-.11 1.03-.21 1.4-.33M472 725.56c0 1.89.44 3.44.98 3.44 1.28 0 2.41-4.54 1.63-6.56-.97-2.55-2.61-.6-2.61 3.12m28.54-142.49c.75 1.21 3.46 1.21 3.46-.01 0-1.35-1.82-2.29-3.02-1.55-.56.35-.75 1.05-.44 1.56M526 583c0 .55.45 1 1 1s1-.45 1-1-.45-1-1-1-1 .45-1 1m-47.42 101.25-.04-.16zm186.43-79.15c0-.75.01-1.47.01-2.16 0 .61 0 1.24-.01 1.89z"/><path fill="#764a28" d="M391.56 890.75c-.52 5.64-1.28 9.23-1.95 9.2-.61-.03-6.73-2.09-13.61-4.57-3.96-1.43-7.76-2.79-10.46-3.74.51.14.94.23 1.21.25 1 .09 1.25-41.36 1.27-204.14l.02-204.25 2.32-9.02c3.68-14.34 9.7-25.36 19.45-35.62 11.8-12.42 24.78-20.46 38.87-24.07-3.92 1.29-7.6 3.8-12.75 8.33-11.67 10.28-19.71 22.86-24.53 38.38-1.5 4.86-1.83 8.86-1.71 21 .09 8.25.7 17.92 1.35 21.5 2.49 13.58 2.39 20.03-.38 26.63-2.51 5.96-2.53 6.22-1.52 19.46.57 7.37.8 15.88.5 18.91-.29 3.03.11 9.1.9 13.5 1.83 10.28 1.82 17.79-.03 30.09-1.9 12.61-1.91 23.64-.01 34.41 1.98 11.25 1.89 15.57-.49 23.16-2.51 8.03-2.72 21.27-.4 26.62 2.43 5.63 3.22 39.5 1.1 47.72-4.13 16.1-4.23 37.86-.22 50.91 1.91 6.21 1.91 10.97 0 17.18-.83 2.7-2.04 13.09-2.69 23.09l-1.17 18.18 2.68 6.82c3.04 7.73 3.61 15.31 2.25 30.07m260.44-.01v.12c-7.51 2.93-17.96 6.44-20.63 6.85l-3.14.48.85-4.34c1.03-5.25.18-15.1-1.71-19.72-1.83-4.51-1.73-7.8.47-14.86 1.91-6.13 1.81-9.15-.77-23.77-1.51-8.57-1.32-18.09.6-29.63 1.4-8.44 1.46-10.82.41-14.94-1.06-4.14-.98-6.6.53-16.04 1.7-10.68 1.7-11.41.01-17.27-2.93-10.09-3.01-12.93-.6-20.17 1.74-5.24 2.05-7.66 1.43-11.31-.43-2.55-.68-10.49-.54-17.64.13-7.31-.22-14.2-.81-15.75l-1.05-2.75-31.28-.04c-36.36-.05-39.18-.53-43.98-7.46-3.79-5.46-4.79-11.96-4.79-31.14 0-11.39-.34-16.36-1.12-16.36-.61 0-2.73 1.42-4.7 3.15-5.28 4.63-12.19 7.79-20.11 9.34 8.58-1.75 16.13-5.62 22.31-11.47 5.76-5.44 11.62-15.2 11.62-19.34 0-3.6 2.59-5.97 5.07-4.64 1.81.97 1.93 2.31 1.93 22.46 0 19.01.23 22.03 2.01 26.8 2.34 6.25 4.45 8.42 11.99 12.34l5.5 2.86 68 1 .25 106.75c.15 59.99.64 106.75 1.13 106.75.18 0 .58-.1 1.12-.26M471 607.53c0-5.97 3.8-14.27 8.37-18.28 2.03-1.79 4.03-3.25 4.43-3.25 1.1 0 4.5 12.7 3.74 13.94-.37.6-2.33 1.94-4.36 2.99-2.02 1.04-5.23 3.51-7.13 5.48-1.89 1.98-3.8 3.59-4.25 3.59-.44 0-.8-2.01-.8-4.47m69.75 1.48c-2.06-2.19-3.75-4.34-3.75-4.78 0-.45 1.28-2.34 2.85-4.22l2.84-3.41 1.83 2.79c1.01 1.54 2.03 5.23 2.28 8.2.56 6.72-.77 7.03-6.05 1.42m51.21 192.06c-1.35 2.52-5.4 2.49-7.96-.07-2.41-2.41-2.5-3.84-.44-6.78 1.71-2.45 6.25-3.01 8.24-1.02 1.47 1.47 1.55 5.27.16 7.87m-153.79-3.72c-3.64 3.29-9.17 1.02-9.17-3.77 0-2.76 2.9-5.58 5.76-5.58 4.72 0 6.96 6.13 3.41 9.35m106.12-213.63c-3.08-3.43-3.38-4.35-2.32-7.14.7-1.83 1.71-2.58 3.51-2.58 2.39 0 2.52.29 2.52 5.44 0 6.31-.92 7.37-3.71 4.28M604.5 786.5c0 2.53-.43 3.05-2.76 3.32-1.87.21-2.96-.23-3.4-1.39-.94-2.43.97-4.93 3.77-4.93 1.99 0 2.39.5 2.39 3M414.8 641.41c-.35 2.41-3.71 3.28-5.56 1.43-1.82-1.82-1.52-3.62.82-4.87 2.63-1.41 5.17.44 4.74 3.44m128.77 87.06c-2.06-3.15-1.21-10.58.96-8.31 1.66 1.74 2.9 9.45 1.65 10.23-.53.33-1.7-.54-2.61-1.92m-120.58 54.04c-1.74 2.1-3.73 1.85-5.05-.63-.9-1.67-.82-2.43.38-3.63 2.87-2.87 7.26 1.15 4.67 4.26M437 878.5c-.68.83-2.04 1.5-3.02 1.5-.97 0-2.03-.67-2.34-1.5-1.46-3.81 2.74-6.16 5.36-3 .99 1.2.99 1.8 0 3m152.96-142.95c-1.52 1.83-2.4 1.83-3.92 0-1.75-2.11-.86-5 1.63-5.36 2.61-.37 4.12 3.16 2.29 5.36m-45.89 115.13c-1.33-3.5-1.4-8.68-.11-8.68 1.56 0 3.27 7.77 2.15 9.76-.85 1.53-1.1 1.4-2.04-1.08m60.75-108.43c-.2 1.4-1.12 2.36-2.44 2.55-2.7.39-4-2.61-1.99-4.61 2.03-2.04 4.83-.74 4.43 2.06m-133.44 108.3c-.8-2.09 1.27-6.88 2.62-6.05 1.51.93 1.2 5.09-.49 6.49-1.21 1-1.61.92-2.13-.44m.62-124.99c0-3.72 1.64-5.67 2.61-3.12.78 2.02-.35 6.56-1.63 6.56-.54 0-.98-1.55-.98-3.44m-43.78-304.07c-6.76.87-11.24 2.79-13.75 6.02.14-.23.29-.47.44-.71l2.92-4.6 9.83-.67ZM469 580.98c0-5.55.2-6.11 2.57-7 .3-.12.65-.23 1.03-.32-.07.03-.13.07-.19.11-.94.63-2.82 6.72-3.3 10.26-.08-.83-.11-1.85-.11-3.05m31.54 2.09c-.31-.51-.12-1.21.44-1.56 1.2-.74 3.02.2 3.02 1.55 0 1.22-2.71 1.22-3.46.01M526 583c0-.55.45-1 1-1s1 .45 1 1-.45 1-1 1-1-.45-1-1m-93.63-169.07c1.44-.31 2.63-.51 3.59-.59 1.65.09 2.53.2 3 .63-.51-.38-1.39-.41-2.96-.35-1.29.04-2.49.14-3.63.31m7.13 5.79v.78l-2.51.21c1.35-.23 2.11-.53 2.51-.99m30.91 167.18c1.15-.32 2.93-1.83 5.04-4.4-2.47 3.01-4.06 4.5-5.04 4.4m8-13.87c2.96-.03 5.68.31 6.12 1.01-.39-.62-3.24-.97-6.12-1.01M412.06 434.2c-.05.52-.07 1.05-.07 1.6-.01 2.03-.74 6.18-1.62 9.2.88-3.02 1.61-7.32 1.62-9.55 0-.42.02-.83.07-1.25m242.91 455.46v-.01c.14-.05.27-.11.41-.16l3.62-1.52-3.75 1.58c-.5.21-1.02.43-1.57.65Zm-293.34.6.31.12c-.08-.03-.14-.05-.19-.06a.3.3 0 0 1-.12-.06"/><path fill="#6e5e49" d="M672.67 630.33c-.37-.36-.67-9.77-.67-20.89 0-17.52.21-20.31 1.58-20.83 2.06-.79 15.78-.79 17.84 0 1.37.52 1.58 3.37 1.58 21.5V631h-9.83c-5.41 0-10.14-.3-10.5-.67M617 589.17l7.25-.68c3.99-.37 8.6-.52 10.25-.33l3 .34v42l-20.5.57Zm110.7 41.2c-1.33-1.33-.81-38.84.57-40.72 1.07-1.46 2.66-1.69 10.25-1.44l8.98.29v42l-9.55.28c-5.25.16-9.86-.03-10.25-.41M590 610.11c0-1.58 0-3.04-.01-4.41-.02-11.38-.03-15.49 1.93-16.95 1.09-.8 2.79-.79 5.43-.76l.12.01h.19c.52.01 1.08.01 1.67.01.87.01 1.66 0 2.4-.01 3.18-.04 5.15-.06 6.36.89 1.97 1.53 1.95 5.6 1.92 16.27 0 1.51-.01 3.16-.01 4.96V631h-20Zm110.67 20.22c-.37-.36-.67-9.76-.67-20.88 0-20.12.01-20.22 2.25-20.82 3.18-.85 15.02-.75 16.42.15.99.63 1.89 26.25 1.41 39.97-.08 2.17-.42 2.25-9.41 2.25-5.14 0-9.64-.3-10-.67m-55.22-.61c-.27-.7-.37-10.26-.22-21.25l.27-19.97 7.49-.3c1.01-.04 1.94-.09 2.79-.13 3.72-.2 5.96-.32 7.29.72 1.87 1.45 1.98 5.18 1.95 14.15v.74c0 .38-.01.76-.01 1.15v.27c0 1.51-.01 3.14-.01 4.92V631h-9.53c-6.82 0-9.67-.36-10.02-1.28m-61.36 38.55c-5.87-1.1-12.74-7.83-11.94-11.69.28-1.34 1.25-.82 4.62 2.42 2.35 2.27 6.18 4.98 8.5 6.04 5.19 2.35 13.48 2.52 18.51.37 3.27-1.39 11.14-1.57 65.72-1.45 52.98.11 62.78.36 67.38 1.69 8.38 2.44 16.58 1.52 22.06-2.47 2.44-1.78 5.59-4.86 7-6.85 2.39-3.38 2.58-3.46 2.9-1.33.46 3.1-2.56 6.9-8.36 10.5l-4.82 3-84.58.11c-46.52.07-85.66-.09-86.99-.34M766 634.97c-1.38-1.09-4.41-2.48-6.75-3.09l-4.25-1.12v-20.88c0-20.38.05-20.88 2.05-20.88 3.58 0 7.87 2.92 10.71 7.28 2.73 4.2 2.74 4.29 2.74 22.13 0 11.07-.38 18.03-1 18.23-.55.17-2.12-.58-3.5-1.67m-196-17.03c0-17.72.11-18.81 2.27-22.04 2.28-3.41 8.33-7.26 9.9-6.3.46.29.82 9.6.81 20.71l-.02 20.19-6.48 3.05-6.48 3.04Zm160.25-240.09c-1.3-1.3-1.79-15.28-.64-18.27.49-1.29 2.4-1.58 10.5-1.58H750v20l-7.25.01c-3.99.01-8.15.26-9.25.55-1.1.3-2.56-.02-3.25-.71m39 15.08c-1.24-.48-2.25-1.67-2.25-2.65-.01-3.04-3.61-7.88-6.88-9.23l-3.12-1.29v-10.88c0-9.35.23-10.88 1.61-10.88 2.92 0 8.88 4.04 11.41 7.73 2.22 3.23 2.52 4.82 2.82 15.05.19 6.29-.04 11.8-.5 12.23s-1.85.39-3.09-.08m-55.75-20.45c-3.3-1.31-7.24-2.4-8.75-2.43-2.69-.05-2.75-.18-2.75-6.05v-6h20v8.5c0 6.17-.34 8.48-1.25 8.43-.69-.04-3.95-1.14-7.25-2.45m-34.59-2.7c-4.09-3.37-6.63-11.63-3.66-11.89 6.16-.54 16.59-.34 18 .34 1.31.63 1.75 2.06 1.75 5.75 0 2.69-.37 5.13-.82 5.41-2.13 1.32-13.79 1.61-15.27.39m-208.4 212.24c1.1 1.78 3.94.97 7.32-2.11 4.35-3.95 3.63-5.91-2.19-5.91-1.92 0-3.01.03-3.69.36.17-.29.33-.5.46-.59.06-.04.12-.08.19-.11 1.59-.39 3.76-.6 5.82-.63 2.87.04 5.72.39 6.11 1.01.89 1.45-1.39 3.96-3.59 3.96-.99 0-3.47 2.03-5.49 4.5-2.11 2.57-3.89 4.08-5.04 4.4-.73-.07-1.12-1.02-1.3-2.87.22-1.62.74-3.78 1.32-5.71-.23 1.66-.21 3.23.08 3.7m42.02 75.94c2.93 1.18 5.64 3.32 6.65 5.54.43.94.72 1.57 1.19 1.98.94.8 2.61.74 7.59.57h.04c4.34-.16 6.24.3 9 2.17.51.34.95.64 1.32.93-.34-.26-.75-.54-1.22-.86-3.99-2.69-9.15-2.96-12.67-.65-2.85 1.86-3.46 1.5-4.9-2.9-.9-2.77-3.8-5.42-7-6.78m-35 29.33c-.37.12-.83.22-1.4.33-1.12.23-2.59.91-3.85 1.73.78-.69 1.67-1.41 2.65-2.17 2.18-1.7 2.42-2.58 2.26-8.41-.12-4.11.09-6.1.98-7.78-1.23 2.4-1.25 5.7-.07 11.15.14.67.3 1.37.48 2.11.03.13.06.26.08.38.26 1.35.03 2-1.13 2.66m-9.54 7.14c-1.01 2.54-.66 5.31 1.03 8.6-1.78-3.48-2.25-6.02-1.03-8.6m11.2-24.94c1.1-1.31 2.64-2.25 4.42-2.76-1.75.52-3.28 1.45-4.42 2.76"/><path fill="#528eab" d="M600.86 433.78c1.33 1.06 1.8 1.04 2.64-.12 1.67-2.28 8.63-6.66 10.58-6.66.99 0 2.02-.36 2.29-.8.15-.24-1.47-3.02-3.73-6.62l4.86 7.33 4.29.05c4.13.04 4.24-.04 3.09-2.21-.66-1.24-4.89-7.42-9.4-13.75-4.11-5.77-6.96-9.82-9.12-13.03 2.35 3.43 5.67 8.14 10.39 14.78 7.08 9.97 10.68 14.1 14.58 16.71 5.36 3.59 9.09 8.21 10.16 12.57.37 1.53 2.39 3.65 5.1 5.36 6.37 4.03 9.61 8.69 10.18 14.6.65 6.72-.2 9.38-4.55 14.19-9.84 10.92-34.83 15.11-51.66 8.67-6.62-2.53-14.28-8.92-16.2-13.52-3.69-8.85.19-18.31 9.95-24.25 2.69-1.64 3.64-2.8 3.21-3.95-1.37-3.72-19.02-29.13-20.23-29.13.72 0 5.55 6.33 10.72 14.07s9.69 14.24 10.03 14.46c.35.21 1.34-1.11 2.21-2.94l1.59-3.32-6.93-10.41c2.74 3.96 5.26 7.38 5.95 7.92m10.64 32.79c1.59.63 19.81-.26 21.75-1.06 1.51-.63 1.75-2.17 1.75-11.37-.01-12-1.32-15.49-7.24-19.2-4.62-2.91-13.66-2.32-17.34 1.12-4.61 4.3-5.42 7.07-5.42 18.37v10.53l2.75.61c1.51.33 3.2.78 3.75 1m74.04-49.18c.36 5.38.57 11.63.7 19.16l.05 3.06c-.27-3.58-1.18-5.64-4.07-11.14-8.26-15.74-23.51-27.41-46.72-35.73-8.42-3.03-25.79-6.74-31.51-6.74-3.82 0-4.07.17-3.42 2.25.08.25.17.51.29.8-.52-.96-1.04-1.94-1.58-3-2.77-5.42-5.22-7.97-9.48-9.12 18.33 1.12 43.54 6.6 57.71 12.78 14.6 6.37 31.75 18.8 35.43 25.68 1.34 2.5 2.23 3.14 2.6 2m-203.76-.06 6.6-6.71c10.76-10.93 24.26-18.84 42.78-25.04 11.71-3.93 32.19-7.67 46.1-8.63-3.93 1.1-7.21 3.28-9.06 6.21-.37.57-1.64 1.74-3.55 3.31.15-.57-1.09-.5-4.99-.07-8.63.95-25.09 5.04-33.82 8.4-18.98 7.32-35.65 20.76-41.74 33.64-1.28 2.71-2.06 4.46-2.51 6.18l.02-3.62c.03-5.74.08-10.15.17-13.67m125.95 62.64c2.08.51 8.27.8 13.77.64 11.84-.34 19.56-2.87 24.83-8.14 5.29-5.29 5.44-10.87.43-16.22-3.78-4.03-4.76-2.97-4.76 5.13 0 4.89-.45 7.74-1.32 8.47-.72.6-4.44 1.83-8.25 2.73-8.34 1.97-20.32 1.43-28.46-1.27l-5.47-1.81-.29-7.75c-.16-4.26-.69-7.75-1.18-7.75-.48 0-2.26 1.38-3.95 3.08-7.64 7.63-.25 19.16 14.65 22.89m63.2-108.02c1.93 3.1 3.75 6.36 5.45 9.76 3.37 6.74 5.59 12.42 7.06 19.27-2.52-9.74-6.89-19.84-12.51-29.03m-188.72 37.46c.32-3.34.82-5.73 1.59-8.59 1.35-4.97 2.91-9.61 4.73-14-2.7 6.76-5.19 15.73-6.32 22.59m146.57-75.28c9.48 4.67 17.23 9.88 24.09 16.07-6.95-6.03-15.44-11.67-24.09-16.07M511.99 353c13.58-13.3 28.17-21.76 45.07-25.86-17.03 4.35-31.76 12.82-45.07 25.86m-30.47 96.23c.41 3.38 1.15 6.33 2.37 9.15l-2.39-4.88Zm204.87-4.22.11 6.59-3.71 7.51c3.02-6.14 3.53-8.03 3.6-14.1M539.43 405c-10.8 7.49-20.82 13.99-22.23 13.99-.95.01-1.98.23-3.05.62 1.07-.39 2.1-.62 3.05-.62 1.02 0 11.45-6.71 22.23-13.99m61.53-2.39-.01-.02c-.51-.54-2.69.76-5.3 3.17l4.53-4.18Zm-14.47 10.2c-.31-.54-.49-.87-.49-.95 0-.32.97-.84 2.21-1.19-1.45.42-2.12 1.13-1.81 1.93zm-86.44-46.29c3.44-4.6 7.39-9.06 11.94-13.52-4.53 4.44-8.5 8.93-11.94 13.52m182.67 92.73c-.02.05-.05.1-.07.15-12.53 25.35-48.29 42.2-93.15 43.9 44.98-1.7 80.62-18.54 93.22-44.05m-89.79-51.24c.91-.68 1.83-1.43 2.67-2.21-.84.77-1.76 1.53-2.67 2.21"/><path fill="#6caccb" d="M574 503.36c-2.47-.2-8.22-.86-12.76-1.47-8.98-1.2-8.06-.55-15.84-11.14-2.92-3.97-4.02-4.75-6.72-4.75-3.03 0-3.42-.42-6.1-6.59-2.76-6.32-2.85-7-2.23-17.25.52-8.55 1.05-11.16 2.66-13.16 1.11-1.38 2.72-3.87 3.59-5.54 1.04-2.01 7.9-7.46 20.47-16.25 10.39-7.26 19.49-13.21 20.22-13.21 1.21 0 18.86 25.41 20.23 29.13.43 1.15-.52 2.31-3.21 3.95-9.76 5.94-13.64 15.4-9.95 24.25 1.92 4.6 9.58 10.99 16.2 13.52 16.83 6.44 41.82 2.25 51.66-8.67 4.35-4.81 5.2-7.47 4.55-14.19-.57-5.91-3.81-10.57-10.18-14.6-2.71-1.71-4.73-3.83-5.1-5.36-1.07-4.36-4.8-8.98-10.16-12.57-3.9-2.61-7.5-6.74-14.58-16.71-4.72-6.64-8.04-11.35-10.39-14.78-2.46-3.65-4.02-6.2-5.5-8.92-.12-.29-.21-.55-.29-.8-.65-2.08-.4-2.25 3.42-2.25 5.72 0 23.09 3.71 31.51 6.74 23.21 8.32 38.46 19.99 46.72 35.73 2.89 5.5 3.8 7.56 4.07 11.14l.1 5.4c-.07 6.07-.58 7.96-3.6 14.1l-.07.14c-12.6 25.51-48.24 42.35-93.22 44.05-6.05.23-13.03.26-15.5.06M539.43 405c-10.78 7.28-21.21 13.99-22.23 13.99-.95 0-1.98.23-3.05.62-.3.11-.61.24-.92.38-4.16 1.88-8.59 6.15-10.17 10.33-2 5.29-.32 15.17 2.92 17.17.6.37 1.01 5.61.99 12.82-.03 11.15-.24 12.53-2.48 16.18l-2.45 3.99-7.33-7.49c-4.5-4.59-8.47-9.81-10.27-13.49l-.55-1.12c-1.22-2.82-1.96-5.77-2.37-9.15l.07-14.61c.45-1.72 1.23-3.47 2.51-6.18 6.09-12.88 22.76-26.32 41.74-33.64 8.73-3.36 25.19-7.45 33.82-8.4 3.9-.43 5.14-.5 4.99.07-5.31 4.35-15.58 11.83-25.22 18.53m72.07 61.57c-.55-.22-2.24-.67-3.75-1l-2.75-.61v-10.53c0-11.3.81-14.07 5.42-18.37 3.68-3.44 12.72-4.03 17.34-1.12 5.92 3.71 7.23 7.2 7.24 19.2 0 9.2-.24 10.74-1.75 11.37-1.94.8-20.16 1.69-21.75 1.06"/><path fill="#817d82" d="m775.25 547.93-8.25-3.9v-64.52c0-35.48.16-64.51.35-64.51s1.77.49 3.5 1.1l3.15 1.1v11.74c0 13.12.68 14.63 7.2 15.97 4.4.9 5.18 4.09 1.01 4.09-1.62 0-4.13.93-5.58 2.07l-2.63 2.08v15.25c0 14.62.1 15.34 2.3 17.41 1.26 1.19 3.74 2.45 5.5 2.8 3.52.7 4.42 3.39 1.13 3.39-2.53 0-6.01 1.78-7.65 3.91-.83 1.09-1.23 6.42-1.25 16.77l-.03 15.17 2.63 2.08c1.45 1.14 3.93 2.07 5.5 2.07H785v10c0 5.5-.34 9.96-.75 9.91-.41-.04-4.46-1.84-9-3.98M616.38 655.2c.29-1.05.73-2.57 1.22-4.21.97-3.27 1.35-6.87.98-9.18l-.6-3.81 51.76.01h51.76l.06 6.25c.04 3.86.72 7.48 1.79 9.51l1.72 3.26-54.54-.05c-4.29 0-8.48-.01-12.49-.02 15.32-.02 31.59-.21 42.66-.58 13.79-.47 20.14-1.03 20-1.78-.11-.61.35-.99 1.02-.86 2.15.42-.78-4.62-3.12-5.39-1.16-.37-12.22-.53-24.6-.34l-1.54.03c-22.19.33-28.05.42-33.89.28-2.22-.06-4.45-.15-7.57-.27-5.78-.23-15.39-.34-21.36-.24-8.91.16-10.76.44-10.31 1.61.3.78-.33 2.42-1.39 3.65-.64.74-1.21 1.52-1.56 2.13m125.37-122.96c-18.31-8.53-18.75-8.81-18.75-11.78v-3.04l14.75.04c8.11.02 16.66-.34 19-.8l4.25-.84v12.59c0 6.93-.11 12.59-.25 12.58-.14 0-8.69-3.94-19-8.75m20.39 113.61c.11-6.35-1.51-7.85-7.83-7.85-4.64 0-5.07.36-2.88 2.57l.07.07c1.12 1.12 1.58 3.01 1.41 4.89.16-1.89-.32-3.8-1.48-4.96-1-1-3.35-1.57-6.48-1.57-3.78 0-4.79.21-5.86 1.94 1.46-2.76.73-2.94-4.57-2.94-4.78 0-5.47.18-6.03 2.2l.6-3.2h13.5c17.31 0 20.55 1.2 19.55 8.85M616 656.65c0-.04.04-.2.11-.47 1.11.37 10.5.61 23.07.72-14-.06-23.18-.16-23.18-.25m112.08-13.09c.03 2.56.65 5.44 1.69 7.63-1.22-2.23-1.79-4.78-1.69-7.63m9.15 14.33c-1.98-.98-3.64-2.14-4.99-3.46 1.31 1.15 3.12 2.42 4.75 3.28 1.23.65 2.56 1.16 3.94 1.53a19.2 19.2 0 0 1-3.7-1.35m-54.51-198.64c-.02.05-.05.1-.07.15-5.04 10.2-13.85 19.02-25.49 26.04 11.66-7.04 20.48-15.91 25.56-26.19m-25.56 26.19c-17.18 10.37-40.54 16.77-67.2 17.84 26.62-1.07 50.01-7.48 67.2-17.84m80.01 159.89c.08-.91.54-1.94 1.33-3.33-.75 1.45-1.21 2.48-1.33 3.33m18.84 11.09c1.05-.9 2.03-1.93 2.9-3-.85 1.08-1.83 2.1-2.9 3"/><path fill="#82d0f2" d="M685.54 417.39c-.37 1.14-1.26.5-2.6-2-3.68-6.88-20.83-19.31-35.43-25.68-14.17-6.18-39.38-11.66-57.71-12.78-1.37-.37-2.92-.6-4.73-.73-2.74-.2-5.4.08-7.81.75-13.91.96-34.39 4.7-46.1 8.63-18.52 6.2-32.02 14.11-42.78 25.04l-6.6 6.71c.09-3.27.23-5.79.43-7.92 1.13-6.86 3.62-15.83 6.31-22.59h.01c3.03-7.33 6.79-13.96 11.52-20.3h.01c3.43-4.59 7.4-9.08 11.93-13.52 13.58-13.3 28.17-21.76 45.07-25.86 9.64-2.34 20.04-3.26 31.44-2.86 17 .61 25.59 2.69 40.28 9.85 8.65 4.4 17.14 10.04 24.09 16.07 6.9 6.23 12.9 13.45 18.06 21.75 5.62 9.19 9.99 19.29 12.51 29.03 1.01 4.68 1.66 9.91 2.1 16.41m-160.09-48.84c2.1 2.09 3.4 2.45 8.87 2.45 8.35 0 18.65-4.89 24.64-11.69 7.58-8.61 7.69-15.87.29-19-3.2-1.35-4.63-1.4-9.75-.36-17.78 3.61-32.06 20.58-24.05 28.6m82.28 111.42c-14.9-3.73-22.29-15.26-14.65-22.89 1.69-1.7 3.47-3.08 3.95-3.08.49 0 1.02 3.49 1.18 7.75l.29 7.75 5.47 1.81c8.14 2.7 20.12 3.24 28.46 1.27 3.81-.9 7.53-2.13 8.25-2.73.87-.73 1.32-3.58 1.32-8.47 0-8.1.98-9.16 4.76-5.13 5.01 5.35 4.86 10.93-.43 16.22-5.27 5.27-12.99 7.8-24.83 8.14-5.5.16-11.69-.13-13.77-.64m-100.05-95.01c1.48 1.16 3.31 1.87 4.08 1.58.77-.3 1.84-.54 2.37-.54 2.19 0 5.87-5.38 5.87-8.57 0-6.96-6.08-8.55-11.6-3.03-4.19 4.19-4.43 7.65-.72 10.56m-90.18 70.17c-1.5-.32-2.34-.45-2.66-.92-.38-.56-.03-1.63.81-4.15q.12-.375.27-.81c1.25-3.79 1.74-4.25 4.52-4.25 2.81 0 3.31.48 4.85 4.66.95 2.56 1.61 4.76 1.47 4.88-.88.77-6.73 1.14-9.26.59m-2.5 51.19c0-.92.54-3.17 1.2-5 1.01-2.8 1.69-3.32 4.34-3.32 2.78 0 3.28.44 4.3 3.87 1.79 5.97 1.68 6.13-4.34 6.13-4.48 0-5.5-.31-5.5-1.68"/><path fill="#8b5b34" d="M391.56 890.75c1.36-14.76.79-22.34-2.25-30.07l-2.68-6.82 1.17-18.18c.65-10 1.86-20.39 2.69-23.09 1.91-6.21 1.91-10.97 0-17.18-4.01-13.05-3.91-34.81.22-50.91 2.12-8.22 1.33-42.09-1.1-47.72-2.32-5.35-2.11-18.59.4-26.62 2.38-7.59 2.47-11.91.49-23.16-1.9-10.77-1.89-21.8.01-34.41 1.85-12.3 1.86-19.81.03-30.09-.79-4.4-1.19-10.47-.9-13.5.3-3.03.07-11.54-.5-18.91-1.01-13.24-.99-13.5 1.52-19.46 2.77-6.6 2.87-13.05.38-26.63-.65-3.58-1.26-13.25-1.35-21.5-.12-12.14.21-16.14 1.71-21 4.82-15.52 12.86-28.1 24.53-38.38 5.15-4.53 8.83-7.04 12.75-8.33a77.504 77.504 0 0 1 3.69-.86c1.14-.17 2.34-.27 3.63-.31 1.57-.06 2.45-.03 2.96.35.53.48.54 1.36.54 3.03v2.72c-.4.46-1.16.76-2.51.99l-6.23.52c-.88.07-1.73.16-2.54.26l-.56.04-9.83.67-2.92 4.6c-.15.24-.3.48-.44.71-1.4 1.81-2.19 4.03-2.41 6.69-.05.42-.07.83-.07 1.25-.01 2.23-.74 6.53-1.62 9.55-2.73 9.36-2.81 12.29-.42 14.46 2.66 2.4 12.33 3.26 17.51 1.55 4.9-1.61 6.06-4.35 4.65-10.94-.61-2.84-1.11-6.52-1.11-8.18 0-2.92.12-3 4.25-2.7l4.25.31.28 16.49c.01.57.01 1.12.02 1.66.18 10.19.25 14.4-1.78 16.14-1.44 1.22-3.92 1.22-8.16 1.21h-.97c-6.95 0-8.06.28-10.95 2.7-3.85 3.24-5.94 7.85-5.94 13.1 0 2.12-1.18 7.14-2.62 11.14l-2.61 7.28 2.44 2.45c4.67 4.67 19.35 4.46 22.47-.31 1.57-2.39 1.56-3.01-.2-10.07-1.84-7.37-1.84-7.56.01-8.91 2.1-1.53 5.34-1.78 7.28-.54.97.62 1.21 4.96 1 18.23l-.27 17.43-9.58.56c-10.91.64-15.32 2.62-18.95 8.49-1.85 3-2.2 5.4-2.61 18.2-.66 20.21-.09 24.03 4.3 29.16 5.03 5.88 7.97 7.08 18.42 7.53 5 .21 9.21.54 9.38.72.16.19 1.24 2.14 2.39 4.34 1.16 2.2 2.68 4.69 3.38 5.54 2.55 3.09 8.37 6.8 12.31 7.85 3.92 1.04 4.08 1.25 5.38 7.11 1.35 6.08 7 15.63 11.43 19.28 4.45 3.68 8.21 6.33 12.01 8.18 1.14.65 2.1 1.15 2.73 1.39 6.64 2.52 17.14 3.44 26.61 2.34 1.48-.17 2.94-.41 4.37-.7 7.92-1.55 14.83-4.71 20.11-9.34 1.97-1.73 4.09-3.15 4.7-3.15.78 0 1.12 4.97 1.12 16.36 0 19.18 1 25.68 4.79 31.14 4.8 6.93 7.62 7.41 43.98 7.46l31.28.04 1.05 2.75c.59 1.55.94 8.44.81 15.75-.14 7.15.11 15.09.54 17.64.62 3.65.31 6.07-1.43 11.31-2.41 7.24-2.33 10.08.6 20.17 1.69 5.86 1.69 6.59-.01 17.27-1.51 9.44-1.59 11.9-.53 16.04 1.05 4.12.99 6.5-.41 14.94-1.92 11.54-2.11 21.06-.6 29.63 2.58 14.62 2.68 17.64.77 23.77-2.2 7.06-2.3 10.35-.47 14.86 1.89 4.62 2.74 14.47 1.71 19.72l-.85 4.34 3.14-.48c2.67-.41 13.12-3.92 20.63-6.85v.03c-27.1 10.88-65.44 20.23-99.5 24.18-16.22 1.88-51.14 3.14-64 2.32-35.7-2.29-68.78-8.13-99.52-17.59.32.09.54.14.63.15.67.03 1.43-3.56 1.95-9.2m135.35-122.6c8.12-3.12 15.53-8.48 20.6-14.9 5.85-7.41 7.87-14.1 7.29-24.18-.37-6.34-1.06-8.77-4.18-14.72-3.7-7.02-3.72-7.16-2.18-10.86 3.11-7.45.93-13.14-6.02-15.66-3.15-1.13-3.44-1.54-2.75-3.8.42-1.39.79-4.99.8-7.99.02-4.35-.13-5.36-2.15-6.89-.37-.29-.81-.59-1.32-.93-2.76-1.87-4.66-2.33-9-2.17h-.04c-4.98.17-6.65.23-7.59-.57-.47-.41-.76-1.04-1.19-1.98-1.01-2.22-3.72-4.36-6.65-5.54-1.41-.61-2.89-.96-4.28-.96-3.46 0-7.22 3-11.3 9-1.45 2.13-1.81 2.2-5.32 1.04-2.83-.93-5.63-1-8.02-.31-.01.01-.03.01-.05.02-1.76.51-3.28 1.44-4.37 2.74-.08.1-.17.2-.25.3-.29.37-.55.77-.77 1.2-.89 1.68-1.1 3.67-.98 7.78.16 5.83-.08 6.71-2.26 8.41-.98.76-1.87 1.48-2.65 2.17-.65.42-1.24.89-1.7 1.35-1.22 1.21-2.08 2.44-2.59 3.73-1.22 2.58-.75 5.12 1.03 8.6l.4.79c.06.14.13.28.2.42 1.48 2.86 1.4 3.26-2.14 10.24-8.32 16.39-4.07 34.86 10.71 46.6 5.74 4.55 9.03 6.17 17.1 8.45 7.48 2.11 24.46 1.37 31.62-1.38m-3.84 123.44c12.5-3.79 23.18-12.28 28.15-22.38 3.01-6.12 3.28-7.44 3.28-16.19 0-8.93-.22-9.96-3.57-16.6-3.18-6.3-3.42-7.3-2.2-9.14 2-3.01 1.98-9.55-.04-12.63-.94-1.44-3.55-3.56-5.79-4.7-2.59-1.32-3.87-2.58-3.54-3.45 2.35-6.13 2.66-9.57 1.11-12.56-2.39-4.61-7.6-6.48-13.96-5.01-4.66 1.08-5.13 1.01-6.76-1-.96-1.18-1.75-2.71-1.75-3.39 0-2.07-3.56-4.59-7.36-5.21-5.27-.86-8.81 1.04-11.54 6.19-2.58 4.87-3.04 5.03-9.66 3.36-5.32-1.34-9.49-.02-11.44 3.62-1.24 2.31-1 10.2.41 13.55.46 1.1-.51 2.2-3.36 3.8-2.21 1.24-4.69 3.23-5.53 4.43-1.96 2.79-1.94 8.01.05 11.85 1.49 2.89 1.43 3.31-1.4 9.2-5.39 11.22-6.36 18.19-3.74 26.82 3.63 11.96 11.09 20.53 23.28 26.75 7.43 3.79 26.87 5.27 35.36 2.69m68.89-90.52c1.39-2.6 1.31-6.4-.16-7.87-1.99-1.99-6.53-1.43-8.24 1.02-2.06 2.94-1.97 4.37.44 6.78 2.56 2.56 6.61 2.59 7.96.07m-153.79-3.72c3.55-3.22 1.31-9.35-3.41-9.35-2.86 0-5.76 2.82-5.76 5.58 0 4.79 5.53 7.06 9.17 3.77m32.34-215.33c-.29-.47-.31-2.04-.08-3.7.5-1.66 1.06-3.14 1.52-3.96.68-.33 1.77-.36 3.69-.36 5.82 0 6.54 1.96 2.19 5.91-3.38 3.08-6.22 3.89-7.32 2.11M604.5 786.5c0-2.5-.4-3-2.39-3-2.8 0-4.71 2.5-3.77 4.93.44 1.16 1.53 1.6 3.4 1.39 2.33-.27 2.76-.79 2.76-3.32M414.8 641.41c.43-3-2.11-4.85-4.74-3.44-2.34 1.25-2.64 3.05-.82 4.87 1.85 1.85 5.21.98 5.56-1.43m8.19 141.1c2.59-3.11-1.8-7.13-4.67-4.26-1.2 1.2-1.28 1.96-.38 3.63 1.32 2.48 3.31 2.73 5.05.63M437 878.5c.99-1.2.99-1.8 0-3-2.62-3.16-6.82-.81-5.36 3 .31.83 1.37 1.5 2.34 1.5.98 0 2.34-.67 3.02-1.5m152.96-142.95c1.83-2.2.32-5.73-2.29-5.36-2.49.36-3.38 3.25-1.63 5.36 1.52 1.83 2.4 1.83 3.92 0m14.86 6.7c.4-2.8-2.4-4.1-4.43-2.06-2.01 2-.71 5 1.99 4.61 1.32-.19 2.24-1.15 2.44-2.55m-240.24 149.1c.34.11.66.21.96.29 2.7.95 6.5 2.31 10.46 3.74 4.12 1.49 7.97 2.82 10.52 3.66-7.45-2.35-14.76-4.91-21.94-7.69m288.48-.89.62-.26c.55-.22 1.07-.44 1.57-.65-.72.3-1.45.61-2.19.91"/><path fill="#97a3a9" d="M556.67 603.33c-.37-.36-.67-7-.67-14.75-.01-12.23-.27-14.5-1.97-17.3-1.2-1.97-3.05-3.45-4.75-3.79-8.73-1.77-10.28-3.63-4.92-5.87 4.05-1.69 7.06-6.64 6.34-10.43-.27-1.4-.09-3.26.4-4.12.5-.86 1.34-2.81 1.87-4.32l.98-2.75H706.8l27.85 13.07c15.32 7.2 36.06 16.94 46.1 21.65L799 583.3v9.15c0 5.78-.44 9.59-1.2 10.35s-4.6 1.2-10.48 1.2h-9.28l-.58-2.75c-1.62-7.69-6.38-14.06-12.8-17.17-4.25-2.06-5.22-2.08-93.23-2.07-59.61 0-90.19.35-92.75 1.06-7.2 2-15.59 12.01-15.66 18.68-.02 1.8-.59 2.25-2.85 2.25-1.56 0-3.14-.3-3.5-.67M456 601.02c-1.92-1.04-4.62-3.57-6-5.63-2.46-3.68-2.5-4.06-2.5-23.89v-20.16l2.88-3.78c4.16-5.45 9.42-7.52 19.12-7.51h8l1.62 3.73c1.04 2.38 1.45 5.28 1.14 8.04-.54 4.85 1.58 8.04 6.79 10.2 2.47 1.02 2.69 1.43 1.66 3.08-1.02 1.62-2.42 1.9-9.5 1.9-15.15 0-17.21 2.75-17.21 22.97v.08c0 8.6 0 11.99-1.32 12.62-.86.41-2.29-.36-4.64-1.63Zm160.38 54.18c.35-.61.92-1.39 1.56-2.13 1.06-1.23 1.69-2.87 1.39-3.65-.45-1.17 1.4-1.45 10.31-1.61 5.97-.1 15.58.01 21.36.24 3.12.12 5.35.21 7.57.27 5.84.14 11.69.05 33.88-.28h.01l1.54-.03c12.38-.19 23.44-.03 24.6.34 2.34.77 5.27 5.81 3.12 5.39-.67-.13-1.13.25-1.02.86.14.75-6.21 1.31-20 1.78-11.07.37-27.34.56-42.66.58-6.87-.01-13.25-.03-18.86-.06-12.57-.11-21.96-.35-23.07-.72.06-.25.15-.58.27-.98m80.61-103.69c.68-.82.97-2.17.65-3-.5-1.32-6.66-1.51-48.64-1.51s-48.14.19-48.64 1.51c-.32.83-.03 2.18.65 3 1.86 2.24 94.12 2.24 95.98 0m0 11c.68-.82.97-2.17.65-3-.5-1.32-6.66-1.51-48.64-1.51s-48.14.19-48.64 1.51c-.32.83-.03 2.18.65 3 1.86 2.24 94.12 2.24 95.98 0m.51 6.99-48.28-.26c-42.46-.23-48.35-.08-48.86 1.26-.32.84-.02 2.2.66 3.02 1.08 1.3 7.58 1.46 48.86 1.24l47.62-.26ZM516.42 446.58c-5.11-2.22-7.7-6.35-7.14-11.37.27-2.36 1.28-5.17 2.25-6.24 3.88-4.3 13.04-4.32 16.9-.04 2.59 2.86 3.19 9.47 1.14 12.6-1.69 2.58-7.21 6.49-9.07 6.43-.55-.02-2.39-.64-4.08-1.38m61.95-43.5c-7.3-4.45-8.5-11.15-2.97-16.68 2.9-2.9 4.09-3.4 8.1-3.4 3.97 0 5.15.48 7.6 3.11 4.78 5.11 3.66 13.24-2.33 16.89-4.09 2.49-6.42 2.51-10.4.08M432.93 534H440v51h-6.82Zm81.46-37.98c-1.16-.47-3.08-2.08-4.25-3.57-5.04-6.41-.49-15.45 7.78-15.45 9.84 0 13.21 12.9 4.73 18.07-3.41 2.08-5.01 2.27-8.26.95M537 430.58c0-.79-1.51-3.41-3.37-5.84l-2.05-2.69.64.68c1.17 1.25 2.39 2.26 2.7 2.24.47-.02 20.68-13.88 29.91-20.51 1.82-1.31 2.19-2.25 1.68-4.32-.36-1.45-.96-2.95-1.33-3.33-.38-.38-4.6 2.21-12.67 7.77 7.66-5.3 12.26-8.22 12.61-8.01.36.23.96 1.62 1.33 3.1.38 1.48 1.78 4.01 3.13 5.61l2.45 2.91-17 11.9c-9.35 6.55-17.23 11.91-17.51 11.91-.29 0-.52-.64-.52-1.42m63.86 3.2c-.69-.54-3.21-3.96-5.95-7.92l-.99-1.48c-3.39-5.09-6.31-9.64-7.43-11.57l-.09-.21c-.31-.8.36-1.51 1.81-1.93.11-.03.23-.07.35-.1.92-.23 2.62-1.24 4.37-2.56l.02-.01c.07-.06.15-.12.23-.18.82-.63 1.65-1.31 2.42-2.02l.05-.04c.95-.88 1.85-1.61 2.63-2.16-.38.44-.78.94-1.18 1.47l-2.27 3.08 2.72 4.17c1.5 2.3 4.67 6.94 7.06 10.32l4.34 6.14 2.56-.9c-2.84 1.39-6.8 4.14-8.01 5.78-.84 1.16-1.31 1.18-2.64.12m-117.8 98.47c-.57-2.06-1.9-6.89-2.97-10.72s-1.64-7.46-1.27-8.07c.38-.6 4.48-5.92 9.11-11.83 7.77-9.88 8.68-10.71 11.5-10.43 5.96.58 4.57 3.6-6.49 14.12-6.18 5.87-9.96 10.19-9.64 11.02.81 2.12 2.03 19.66 1.37 19.66-.33 0-1.05-1.69-1.61-3.75m63.32 3c.98-3.35 2.62-13.64 2.62-16.42 0-2.11-2.11-5.13-8.58-12.28-6.73-7.43-8.44-9.92-7.93-11.51.45-1.42 1.51-2.04 3.47-2.04 2.48 0 3.78 1.42 10.9 11.91l8.08 11.91-3.72 10.08c-2.05 5.55-4.09 10.09-4.54 10.09-.45.01-.58-.78-.3-1.74M525 441c2.4-2.4 2.57-5.75.44-8.78-2.03-2.9-7.64-3.02-10.44-.22-4.15 4.15-1.03 11 5 11 1.67 0 3.89-.89 5-2m63.53-43.35c5.32-7.59-5.38-14.8-10.91-7.35-1.92 2.57-1.96 3-.57 5.48 2.91 5.18 8.52 6.1 11.48 1.87M817.2 439.9c-4.48-8.15-11.79-12.87-19.95-12.89-3.58-.01-4.25-.33-4.25-2.01 0-4.88 15.89-.77 22.24 5.74 3.72 3.82 7.19 10.49 6.05 11.63-1.26 1.26-2.42.56-4.09-2.47m-36.53-.57c-.37-.36-.67-4.64-.67-9.5V421h7v8.89c0 7.19-.3 9.01-1.58 9.5-2.07.8-3.92.77-4.75-.06m36.03 86.41c-4.5-7.03-8.07-9.49-16.7-11.51-3.85-.91-7-1.98-7-2.39 0-1.52 7.28-2.07 11.34-.86 6.69 2.01 12.38 6.74 15.32 12.76 1.83 3.74 2.31 5.69 1.58 6.42s-2.1-.61-4.54-4.42m-36.04-43.48c-.29-.46-.62-4.63-.74-9.27l-.23-8.41 3.69-.13 3.69-.13-.28 9.09c-.29 9.01-.31 9.09-2.95 9.4-1.46.17-2.89-.08-3.18-.55m.59 44.08c-.87-.35-1.25-3.24-1.25-9.49v-8.98l6.5.63.29 7.84c.36 9.46-.97 11.84-5.54 10m34.64-45.05c-3.93-6.61-9.32-9.96-17.61-10.94-7.75-.92-7.91-3.35-.22-3.35 7.09 0 11.2 1.53 16.43 6.12 2.48 2.18 4.58 5.21 5.82 7.88h-.06c-1.37 0-2.06 1.98-1.47 4.25.07.29.18.57.3.81-.82-1.02-2.01-2.78-3.19-4.77m3.78 65.04c-.37-.36-.67-3.55-.67-7.08 0-4.69.34-6.31 1.25-6 .79.26 1.36 2.86 1.55 7.08.27 6.09-.34 7.8-2.13 6m2.28-53.72c-.12-2.22-.47-2.23-1.45-1.25-.77.77-1.31 3.06-1.47 5.28-.02-.58-.03-1.19-.03-1.81 0-4.52.34-5.83 1.5-5.83.92 0 1.31.84 1.45 3.61m-220.99-90 1.11 1.43c.67.88 2.56 3.61 4.83 6.96-2.73-3.86-5.26-7.31-6.33-8.53.17-.01.29.03.38.12Zm15.21 22.96c.17.35.24.57.2.63-.27.44-1.3.8-2.29.8-.08 0-.17.01-.26.02 1.14-.49 2.02-1.04 2.35-1.45m204.45 56.15c.34.82.59 1.59.74 2.28-.08-.13-.16-.26-.27-.39-.56-.67-.76-1.5-.47-1.89m-290.35-61.38 5.02-3.61ZM822 495.66c0-.67 0-1.27-.01-1.79.01.5.01 1.04.01 1.63Z"/><path fill="#a3c1cc" d="M361.63 890.26h.01c-6.84-2.57-13.23-5.15-18.64-7.56l-9.5-4.24V675.98c0-164.08.25-203.81 1.33-209.48 4.76-25.14 15.34-44.8 33.39-62.11 21.67-20.76 50.1-32.07 78.76-31.34 3.59.09 8.09-.33 10.01-.94.57-.18 1.62-.35 3.03-.5-5.35.74-8.08 2.33-11.59 5.56-5.53 5.1-8.43 12.45-8.43 21.39 0 7.33-.22 7.54-9.44 8.89-14.93 2.2-33.05 12.18-45.75 25.21-11.77 12.09-21.28 31.66-23.78 48.99-.63 4.34-1 80.32-1.01 207.41L360 889.61ZM659 679.79l.01-3.79h99.6l5.2-2.59c2.85-1.42 6.53-4.21 8.16-6.19 5.36-6.51 6.03-10.31 6.03-34.4V611h9.55c10.23 0 14.06-1.18 16.89-5.22 1.35-1.93 1.56-7.63 1.56-42.59 0-42.65.01-42.74 4.44-36.81 1.6 2.14 2.19 4.89 2.67 12.38.57 8.82.85 9.81 3.31 11.93 1.86 1.59 3.37 2.32 4.93 2.18-.36.08-.7.13-.98.13H818v26.98c0 29.15-.35 31.51-5.78 38.75-3.13 4.17-11.2 8.05-18.47 8.88-3.16.37-5.79 1.17-5.84 1.78-.06.61-.4 10.33-.76 21.61-.65 20.12-.71 20.59-3.47 25.29-3.1 5.28-8.99 10.07-14.57 11.84-3.1.99-49.3 2.01-85.36 1.9L676 690l-.01 95.25-.01 95.25-4.24 1.93c-2.33 1.06-5.82 2.54-7.74 3.27-1.27.49-3.19 1.29-5 2.08Zm-91.46-159.7c-4.63-.55-5.01-.81-5.63-3.83-.36-1.79-1.23-3.94-1.92-4.78-.7-.84-1.1-1.7-.88-1.91.21-.21 5.56.01 11.89.49 27.47 2.08 58.96-3.21 80.5-13.54 10.76-5.16 24.47-15.45 30-22.49 4.77-6.09 5.82-4.57 2.22 3.22-6.52 14.12-24.83 27.88-47.35 35.57-18.36 6.27-49.58 9.57-68.83 7.27m143.6-116.84c.08 13.34.42 22.45.76 20.25.56-3.66.72-3.83 1.83-2 .98 1.62 1.21-.96 1.24-13.75.02-8.91.43-15.75.95-15.75.46 0 1.1-1.2 1.49-2.75-1.29 6.97-1.41 23.37-1.41 71.09v66.07c-.59-.84-1-1.87-1-2.62 0-3.78-2-.57-2.2 3.52-.11 2.3-.47-1.43-.8-8.31l-.59-12.5-.19 14-.18 13.85-.54-.25-.26-77.55c-.14-42.65.12-77.55.58-77.55.08 0 .25.03.48.08-.16.99-.23 11.49-.16 24.17m95.97 14.91c-.69-.98-.86-2.36-1.11-5.13-.44-4.78-.9-5.74-3.71-7.62-1.77-1.19-7.51-3.64-12.75-5.45l-9.54-3.29v-12.15c0-13.52-1.74-21.58-6.54-26.64 1.38 1.11 3.31 2.17 4.54 2.47 11.12 2.71 17 13.84 17 32.21v9.14l3.97 1.79c5.56 2.5 6.85 4.3 7.22 10.01.15 2.47.28 3.74.92 4.66M751 650c1.12-1.12 1.77-2.79 1.91-4.47.16-1.88-.29-3.77-1.41-4.89l-.07-.07c-2.19-2.21-1.76-2.57 2.88-2.57 6.32 0 7.94 1.5 7.83 7.85-.06.46-.14.95-.23 1.47-.34 1.97-1.45 4.13-3 6.1-.87 1.07-1.85 2.1-2.9 3-1.01.84-2.09 1.59-3.21 2.17-2.99 1.56-7.65 1.75-11.87.65-1.38-.37-2.71-.88-3.94-1.53-1.63-.86-3.44-2.13-4.75-3.28-1-.99-1.82-2.07-2.47-3.24-1.04-2.19-1.66-5.07-1.69-7.63.04-.99.16-2.01.35-3.06l.06-.3c.56-2.02 1.25-2.2 6.03-2.2 5.3 0 6.03.18 4.57 2.94-.18.29-.37.63-.56 1.01-.01.02-.02.03-.03.05-.79 1.39-1.25 2.42-1.33 3.33-.22 1.44.49 2.42 2.28 4.22 3.11 3.11 8.68 3.32 11.55.45m-163.76 7.89c-5.32-2.63-8.36-6.82-8.99-12.34-.41-3.65-.14-4.52 1.86-5.91 2.33-1.63 9.92-2.32 9.86-.89-.02.41-.69 1.62-1.5 2.69-2.22 2.93-1.77 6.18 1.16 8.49 3.56 2.79 8.44 2.69 11.2-.24 2.72-2.91 2.75-5.68.1-9.06l-2.08-2.63h6.06c5.66 0 6.09.17 6.69 2.56 3.36 13.38-11.29 23.8-24.36 17.33m238.5-135.83c-2.56-5.34-7.65-10.63-13.49-13.82l-6.25-3.42v-12.99c0-13.88.43-14.81 4.44-9.45 1.59 2.14 2.19 4.89 2.67 12.33.55 8.53.88 9.78 3 11.41 2.27 1.74 4.97 2.2 7.24 1.4-.77.31-1.58.48-2.31.48-4.09 0-4.23 1.92-.45 6.36 2.48 2.91 4.09 5.14 5.15 7.7m-5-50.7c2.49 2.78 4.17 5.16 5.27 7.86-2.74-5.97-9.13-12.46-14.96-15.2l-5.05-2.36v-12.33c0-10.35.24-12.33 1.51-12.33 3.16 0 5.48 6.02 5.49 14.19 0 6.57.33 8.07 2.25 10.22 2.71 3.03 5.62 3.91 8.43 2.59-1.17.6-2.41 1-3.23 1-3.57 0-3.47 2.16.29 6.36M477.57 496c-.78 0-1.61.79-1.84 1.75-.32 1.37-.67 1.14-1.57-1.07-.64-1.54-1.17-3.57-1.18-4.5-.02-2.86-1.66-4.47-4.63-4.58-2.72-.1-2.86-.32-2.97-5.1-.06-2.75.09-5.99.35-7.21.43-2.05.62-2.1 2.74-.72 1.38.91 2.51 2.9 2.86 5.07.37 2.27 1.86 4.82 4.12 7.01 3.75 3.64 5.04 9.35 2.12 9.35m49.93 15.08c-3.85-1.5-9.25-3.9-12-5.33l-5-2.6 5 .16c2.75.08 6.58-.19 8.5-.6 3.35-.72 3.72-.5 8.82 5.27 6.12 6.93 5.48 7.3-5.32 3.1m-109.1-23.32c1.05-5.28 2.76-6.22 11.99-6.61 7.76-.32 8.36-.2 8.87 1.75.51 1.92.14 2.1-4.35 2.1-4.79 0-8.91 2.31-8.91 5 0 .55-1.86 1-4.12 1-4.12 0-4.13-.01-3.48-3.24m93.59 30.1c-2.44 1.08-5.37 3.88-6.51 6.1.08-.6.04-1.1-.15-1.3-.26-.25-3.24-.3-6.65-.1-4.59.27-5.41.15-3.18-.48 1.65-.46 2.21-.9 1.25-.96-2.7-.18-2.09-2.78 1.6-6.8 3.25-3.55 3.41-3.6 5.72-1.99 1.31.92 1.8 1.67 1.09 1.67s-1.16.79-1 1.75-.03 2.26-.42 2.89c-.4.62-.03 1.7.8 2.39 1.25 1.04 1.91.9 3.74-.81 1.17-1.09 2.42-1.87 3.71-2.36m-24.32-34.1c-1.34-1.8-3.1-4.61-3.91-6.26-1.81-3.67-3.26-9.4-2.02-8 .48.55 3.62 3.92 6.97 7.5l6.1 6.5-2.35 1.76c-2.31 1.72-2.39 1.69-4.79-1.5M418 435.07c0-2.54.94-4.3 3.1-5.43-.73.52-1.2 1.18-1.53 2.03-.61 1.59-.52 1.6 1.14.09 1.09-.98 2.38-1.32 3.29-.85.83.43 4.64.73 8.48.68 4.33-.06 6.12-.24 6.86-.94-.71.71-2.25 1.09-5.21 1.39-4.32.43-5.72 1.05-7.32 3.25-1.48 2.03-2.83 2.71-5.39 2.71-3.11 0-3.42-.26-3.42-2.93m293.08 56.39c.04 3.87.3 6.5.56 5.85.27-.66 1.07-.97 1.78-.7.92.35 1.48-1.13 1.95-5.13.75-6.37.41-7.41-2.39-7.2-1.78.13-1.97.86-1.9 7.18m.19-19.96c.07 8.96.08 8.97.73 2.5.45-4.48.74-5.41.93-3 .76 9.75 1.87 7.4 1.9-4 .02-7.83-.29-11.75-.83-10.5-.47 1.1-.94 4.02-1.03 6.5-.14 3.79-.3 4.1-.97 2-.52-1.62-.77.67-.73 6.5m81.38-14.2c-.8-4.86-.8-12.37 0-19.05.13-1.11.24-1.98.37-2.67-.02.41-.02.88-.02 1.42 0 2.2.45 4 1 4 .58 0 .99 3.24.98 7.75-.01 5.37-.31 7.29-.98 6.25-.72-1.11-.97-.52-.98 2.32-.01.83 0 1.48.04 1.99-.14-.51-.27-1.17-.41-2.01m27.6.98c-1.9-.68-1.71-12.28.2-12.28 1.63 0 2.89 4.99 2.32 9.22-.42 3.17-.83 3.66-2.52 3.06m-27.72 38.25c-.61-6.53-.27-13.87.59-17.76-.05.68-.06 1.5-.05 2.48.05 3.86.3 4.72.93 3.25.55-1.28.83 1.6.79 8-.05 7.26-.27 8.9-.79 6l-.72-4-.14 4.75c-.03.96-.05 1.72-.03 2.34-.2-1.11-.36-2.72-.58-5.06M448.12 388.68c.78-1.52 2.57-3.75 4.18-5.42-2.28 2.61-4.72 6.66-3.97 7.4.27.27.79-.45 1.15-1.6.91-2.87 2.14-1.83 1.89 1.62-.12 1.55-.31 4.17-.42 5.82-.21 2.82-.25 2.85-.74.5l-.52-2.5-.81 2.5c-.69 2.1-.78 1.92-.56-1.18.14-2.02-.09-3.46-.53-3.19-.43.27-.78 33.22-.79 73.48 0-53.66.32-75.87 1.12-77.43M762.5 558.36c-12.05-5.68-24.23-11.4-32.8-15.4 6.47 2.99 14.75 6.85 22.63 10.54 13.65 6.41 25.46 11.41 26.25 11.11.78-.3 1.42-1.24 1.42-2.08 0-1.98 3.68-2 5.64-.03.83.83 1.36 1.54 1.18 1.58-2.8.73-4.83.38-4.4-.74.71-1.85.2-1.68-1.9.64-1.47 1.62-1.6 1.97 3.83 4.61-6.08-2.82-13.68-6.38-21.85-10.23m57.17-57.03c-.3-.29-.55-2.26-.64-4.69.16-2.22.7-4.51 1.47-5.28.98-.98 1.33-.97 1.45 1.25.01.38.03.8.04 1.26v.01c.01.52.01 1.11.01 1.77v.01c-.01 5.86-.64 7.37-2.33 5.67M422 566.46c0 .18-.69.59-1.54.92-2.01.77-2.65-1.11-2.27-6.73.25-3.72.58-4.42 1.76-3.69 1.24.77 1.26 1.29.12 3.41-1.16 2.16-1.12 2.73.3 4.14.89.9 1.63 1.78 1.63 1.95m398.62-84.74c-.29.39-.09 1.22.47 1.89.11.13.19.26.27.39.37 1.78.03 3-1.28 3-.16 0-.52-.35-1-.94a4 4 0 0 1-.3-.81c-.59-2.27.1-4.25 1.47-4.25h.06c.11.24.22.48.31.72M422 436.34c-.83.33-.25.5 1.28.38s2.81-.67 2.84-1.22.56-1.67 1.18-2.5c.63-.83.03-.54-1.33.62-1.36 1.17-3.14 2.39-3.97 2.72m75.56 77.49c-3.16 3.42-3.56 3.67-3.56 2.24 0-.51 1.46-1.94 3.25-3.17l3.25-2.24Zm-5.46 10.6c-.22-.4-.36-.98-.52-1.79-1.08-5.37-.59-6.47 4.84-11.12l3.96-3.38-4.14 4.14c-5.21 5.21-5.43 5.64-4.8 9.36.23 1.35.39 2.23.66 2.79m60.4 390.64c19.98-2.32 41.44-6.49 61.23-11.75-20.06 5.55-39.44 9.22-61.23 11.75m-151.72-11.85c25.03 6.83 51.59 11.35 79.8 13.6-25.81-2.06-50.62-6-71.85-11.44-2.53-.65-5.2-1.37-7.95-2.16m351.77-551.86c-9.39-.23-24.34-.38-40.6-.37 19.75-.01 32.28.01 40.6.37m75.42 191.93c.06 5.54-.41 5.91-2.52 7.57 1.99-1.57 2.43-2.24 2.52-7.57m-57.48-187.91c-1.22-.83-2.59-1.55-4.1-2.18 1.65.57 2.9 1.28 4.1 2.18M455.19 381c.39 0 .71 26.15.79 60.78-.08-34.58-.41-60.7-.8-60.78Zm340.35 95.02c.87.05 1.51.21 2 .64a.6.6 0 0 0-.12-.05c-.74-.29-1.36-.49-1.88-.59m-290.55 49.85c-.04.6-.23.94-.63 1.02.22-.16.44-.55.63-1.02M719.08 384.7c.2-.34.4-.62.58-.84.51-.57.77-.97.65-1.32.13.36-.11.76-.58 1.32-.23.27-.45.55-.65.84M474.19 371h13.7l-13.69.01h-1.99c.66-.01 1.32-.01 1.98-.01m324.72 111.81c.08 1.97.09 4.52.09 7.8 0-3.33-.02-5.87-.09-7.8m-359.28-52.55c.08-.15.14-.32.17-.51.07-.36.08-.65-.04-.87.13.22.12.51.05.87q-.045.285-.18.51m62.04 95.61c.53.32 1.1.6 1.56.8-.42-.17-.94-.44-1.56-.8m14.74-8.57a9.7 9.7 0 0 0-1.87-.04c.63-.05 1.25-.04 1.87.04m279.15-56.46c.06-.01.13-.02.19-.02l2.75-.32-2.61.3c-.11.02-.22.03-.33.04m31.6.23c-.39.71-.96 1.2-1.79 1.86.83-.66 1.4-1.15 1.79-1.86M364.58 891.35c.14.06.29.11.43.17-.2-.08-.4-.15-.6-.22.06.02.12.03.17.05M808 419.02c.63.45 1.51.89 2.76 1.48-1.24-.59-2.12-1.02-2.76-1.48m-9.87 155.87c.06.02.1.02.12.03.09.01.17-.52.25-1.49-.08.98-.16 1.5-.25 1.5a1 1 0 0 0-.12-.04M430.71 428.01c.33-.01.66-.01 1-.01-.34 0-.67 0-1 .01"/><path fill="#baeaf9" d="M807.11 418.16c-.64-.92-.77-2.19-.92-4.66-.37-5.71-1.66-7.51-7.22-10.01L795 401.7v-9.14c0-18.37-5.88-29.5-17-32.21-1.23-.3-3.16-1.36-4.54-2.47-.89-.93-1.87-1.76-2.97-2.5-1.2-.9-2.45-1.61-4.1-2.18-1.18-.5-2.46-.94-3.83-1.34-.64-.19-4.29-.36-10.01-.5-8.32-.36-20.85-.38-40.6-.37l-47.55.03-2.95-3.1c-9.95-10.47-30.23-22.14-47.95-27.57-8.51-2.6-10.08-2.76-29-2.8-18.91-.05-20.54.1-30 2.74-11.88 3.32-27.47 10.85-36.53 17.64-8.19 6.15-21.29 19.76-26.28 27.32l-3.8 5.75h-13.7c-.66 0-1.32 0-1.98.01-5.31.03-9.17.18-12.19.6-1.41.15-2.46.32-3.03.5-1.92.61-6.42 1.03-10.01.94-28.66-.73-57.09 10.58-78.76 31.34-18.05 17.31-28.63 36.97-33.39 62.11-1.08 5.67-1.33 45.4-1.33 209.48v202.48l9.5 4.24c5.41 2.41 11.8 4.99 18.64 7.56.03.03.07.05.11.06.05.01.11.03.19.06l.81.32.05.02c-14.71-5.49-28.94-11.63-41.8-18.12-3.07-1.55-23.07-12.44-24.62-13.4-5.45-3.39-22.98-15.34-27.3-18.6a950 950 0 0 0-10.15-7.6c-17.1-12.62-47.64-42.01-65.36-62.9-15.42-18.17-34.51-46.67-44.11-65.84-1.86-3.72-4.04-7.88-4.85-9.26-1.68-2.86-11.5-24.51-13.83-30.5-.86-2.2-2.72-6.92-4.14-10.5-2.79-7.05-4.01-10.74-8.11-24.5-1.47-4.95-3.1-10.37-3.61-12.04-.52-1.67-1.57-5.95-2.34-9.5s-2.15-9.84-3.06-13.96c-4.99-22.61-7.15-41.88-8.12-72.5-.94-29.25 2.34-64.96 8.57-93.5.55-2.48 1.67-7.65 2.51-11.5 2.52-11.63 10.84-38.46 15.04-48.5 1.27-3.02 3.75-9.1 5.52-13.49 8.35-20.73 23.78-49.04 38.37-70.39 3.9-5.7 7.77-11.36 8.59-12.56 8.23-12.04 32.77-39.6 48.57-54.56 14.23-13.47 37.13-32.31 44.99-37 2.3-1.38 7.59-4.75 11.77-7.5 16.03-10.56 24.09-15.18 42.67-24.42 5.77-2.88 11.62-5.82 13-6.54 9.18-4.82 51.71-19.64 63-21.94 4.12-.85 9.75-2.19 12.5-2.98 2.75-.8 9.59-2.2 15.2-3.12 5.61-.91 10.78-1.77 11.5-1.9 1.4-.25 14.69-2.06 26.88-3.66 18.63-2.44 57.91-2.15 79.42.59 6.35.8 24.4 3.45 31.5 4.61 7.86 1.29 42.91 10.15 48.5 12.26 2.2.83 4.72 1.53 5.61 1.56 2.4.06 37.32 14.3 48.59 19.81 24.8 12.12 44.74 24.41 66.93 41.25 7.63 5.79 14.99 11.25 16.37 12.14 10.18 6.57 58.94 58.2 63.94 67.69.68 1.29 3.56 5.41 6.4 9.15s6.74 9.4 8.66 12.58c1.92 3.17 5.11 8.28 7.07 11.35 5.6 8.74 13.29 22.74 17.89 32.57 2.32 4.95 5.06 10.8 6.09 13 2.78 5.91 6.05 13.65 6.98 16.5.45 1.38 1.78 4.98 2.94 8 7.47 19.35 14 42.81 18.39 66 5.02 26.59 6.44 38.9 7.07 61.5.87 30.75-.54 49.26-6.49 85.5-3.82 23.23-9.92 44.29-23.42 80.91-3.71 10.08-11.77 26.84-20.71 43.09-11.74 21.35-18.09 30.94-34.81 52.59-4.12 5.34-9.03 11.78-10.89 14.31-4.36 5.91-41.36 42.7-48.31 48.03-2.92 2.24-8.04 6.21-11.4 8.82-8.91 6.95-24.44 18.12-27.88 20.07-1.64.92-6.59 3.88-11 6.57-9.84 5.99-30.42 16.82-36.52 19.21-2.47.97-4.72 2.02-5 2.33-.01.01-.01.02-.02.02l.01-94.7L676 690l7.75.03c36.06.11 82.26-.91 85.36-1.9 5.58-1.77 11.47-6.56 14.57-11.84 2.76-4.7 2.82-5.17 3.47-25.29.36-11.28.7-21 .76-21.61.05-.61 2.68-1.41 5.84-1.78 7.27-.83 15.34-4.71 18.47-8.88 5.43-7.24 5.78-9.6 5.78-38.75V553h2.37c.28 0 .62-.05.98-.13 1.24-.11 2.51-.76 4.02-1.94l.05-.04.03-.03c2.11-1.66 2.58-2.03 2.52-7.57.03-1.23.03-2.71.03-4.5 0-5.53-.51-11.75-1.13-13.83-.29-.96-.67-1.93-1.13-2.9-1.06-2.56-2.67-4.79-5.15-7.7-3.78-4.44-3.64-6.36.45-6.36.73 0 1.54-.17 2.31-.48.97-.34 1.87-.91 2.61-1.71 1.78-1.9 2.04-3.49 2.02-12.25-.02-7.72-.47-11.04-1.93-14.25l-.04-.09c-1.1-2.7-2.78-5.08-5.27-7.86-3.76-4.2-3.86-6.36-.29-6.36.82 0 2.06-.4 3.23-1 .54-.26 1.08-.6 1.61-1.02.03-.02.05-.03.08-.05.05-.05.11-.09.16-.13.75-.6 1.27-1.07 1.63-1.73.8-1.45.84-3.8.83-10.39-.01-8.57-.38-10.97-2.35-15.18-2.79-5.96-9.01-12.23-14.88-15-.13-.07-.26-.12-.38-.18-1.04-.5-1.81-.89-2.38-1.3-.37-.27-.66-.54-.89-.86m-281.66-49.61c-8.01-8.02 6.27-24.99 24.05-28.6 5.12-1.04 6.55-.99 9.75.36 7.4 3.13 7.29 10.39-.29 19-5.99 6.8-16.29 11.69-24.64 11.69-5.47 0-6.77-.36-8.87-2.45m1.98-4.98c.51 2.05 1.21 2.43 4.52 2.43 3.29 0 3.96-.36 4.23-2.24.18-1.26 1.52-2.81 3.07-3.56 2.73-1.3 3.14-2.1 2.8-5.45-.11-1.1.51-1.75 1.69-1.75 2.65 0 4.26-1.96 4.26-5.2 0-2.28-.44-2.8-2.38-2.8-1.69 0-2.73.85-3.6 2.95-1.04 2.51-1.48 2.78-3.04 1.81-2.18-1.37-4.98.45-4.98 3.24 0 1.01-1.27 2.28-2.97 2.99-3.3 1.36-4.52 3.93-3.6 7.58m-19.75 21.39c-3.71-2.91-3.47-6.37.72-10.56 5.52-5.52 11.6-3.93 11.6 3.03 0 3.19-3.68 8.57-5.87 8.57-.53 0-1.6.24-2.37.54-.77.29-2.6-.42-4.08-1.58m43.89-26.85c.73 1.18 2.16 1.13 2.93-.11 1.08-1.74-.52-3.23-2.08-1.94-.77.64-1.15 1.57-.85 2.05M422.8 908.66c9.13 1.93 18.75 3.6 28.69 4.99-5.71-.75-10.92-1.53-14.99-2.25-4.47-.8-9.04-1.71-13.7-2.74M663.59 886c-.28 0-1.69.54-3.53 1.33 1.47-.64 2.92-1.24 3.94-1.63 1.42-.54 3.7-1.49 5.73-2.38-2.86 1.4-5.7 2.68-6.14 2.68m-16.41 6.76c-9.73 3.73-21.2 7.33-33.45 10.56 11.99-3.18 23.37-6.76 33.45-10.56m-283.48-1.7c.24.08.48.16.71.24.2.07.4.14.6.22.43.16.85.33 1.28.49-.86-.32-1.73-.63-2.59-.95"/><path fill="#b8a169" d="M730.69 510.97c-3.21-.81-5.08-1.23-6.17-2.38-1.52-1.62-1.52-4.67-1.52-12.25V482.9l3.75-1.68c4.77-2.12 24.84-2.37 30.53-.37l3.78 1.32-.28 12.67-.28 12.66-3.88 1.9c-4.51 2.2-19.76 3.12-25.93 1.57M723 467.23v-.5c0-4.17 0-6.39 1.08-7.75 1.25-1.58 3.96-2 9.81-2.98 7.59-1.26 16.5-.8 23.36 1.22l3.75 1.1v16.77l-3.75-.68c-4.89-.88-4.89-.88-5.57-4.25-.31-1.58-1.76-4.29-3.22-6.02-4.78-5.69-11.73-3.24-14.98 5.26-1.35 3.54-2.26 4.51-4.7 4.99l-.13.03c-2.5.5-3.9.78-4.67.21-.98-.71-.98-2.76-.98-7.4m0-71.11c0-5.58.41-8.22 1.42-9.05.78-.65 5.47-1.69 10.41-2.32 9.64-1.21 21.86-.08 24.71 2.28 1.06.88 1.46 3.42 1.46 9.17v7.96l-3.25-.7c-4.29-.91-5.39-1.91-6.11-5.51-.83-4.14-4.88-7.95-8.46-7.95-3.98 0-7.62 3.12-9.81 8.41-1.43 3.46-2.46 4.56-4.72 5.01l-.07.01c-2.46.5-3.83.77-4.6.21-.98-.71-.98-2.76-.98-7.43Zm0 23.53v-8.57l4.25-1.26c5.86-1.74 26.33-1.7 30.5.05l3.25 1.37v7.82c0 4.3-.34 8.02-.75 8.27s-2.3-.06-4.18-.69c-2.5-.83-3.65-1.93-4.21-4.04-1.2-4.53-5.68-8.6-9.47-8.6-2.52 0-3.92.82-6.28 3.68-1.67 2.02-3.31 4.95-3.65 6.5-.5 2.29-1.16 2.82-3.46 2.82-1.56 0-3.55.27-4.42.61-1.36.52-1.58-.56-1.58-7.96m.55 31.56c-.3-.3-.55-4.02-.55-8.28v-7.73l3.25-1.22c4.92-1.83 23.33-2.33 29.25-.78l5 1.3.29 8.25c.26 7.4.11 8.24-1.5 8.15-4.63-.26-6.52-1.52-7.79-5.22-1.94-5.66-4.2-7.68-8.57-7.68-3 0-4.3.65-6.48 3.24-1.49 1.78-3.14 4.43-3.65 5.89-.68 1.95-1.95 2.92-4.81 3.65-2.14.54-4.14.74-4.44.43m24.17 52.58c2.85-2.67 4.77-8.71 3.89-12.22-.96-3.82-4.16-6.57-7.65-6.57-4.35 0-10.83 6.27-11.62 11.23-1.43 8.95 8.64 13.9 15.38 7.56M497.14 752.51c-4.8-1.5-8.58-4.57-10.74-8.71-2.02-3.9-1.85-4.11 2.89-3.58 8.44.95 15.69 6.51 15.71 12.03 0 2.07-1.84 2.13-7.86.26m15.54.78c-.3-.49.43-2.63 1.64-4.75 2.54-4.5 7.84-7.58 14.28-8.3l4.48-.51-1.23 2.89c-1.71 4-4.54 7.01-8.22 8.74-4.17 1.96-10.27 3.04-10.95 1.93m-.1 121.83c-.83-1.33 3.57-7.3 7.17-9.73 3-2.02 11.85-4.12 12.92-3.06.89.9-2.58 6.41-5.67 9.01-4.3 3.63-13.1 5.93-14.42 3.78m-14.94-.35c-4.41-1.17-12.64-8.49-12.64-11.23 0-1.58.6-1.73 4.66-1.17 5.89.8 10.21 3.31 13.09 7.58 3.99 5.93 2.91 6.95-5.11 4.82m21.44-275.49c1.5-3.94 2.94-5.38 7.42-7.42 4.47-2.03 9.5-2.44 9.5-.76 0 4.67-8.21 10.9-14.36 10.9-3.49 0-3.56-.07-2.56-2.72m-12.39 2.75c-4.62-.89-8.4-3.56-11.52-8.12l-2.33-3.41 2.29-.35c6.03-.91 15.87 5.83 15.87 10.88 0 1.09-.11 1.92-.25 1.86-.14-.07-1.97-.45-4.06-.86m231.37-102.46c-2.28-2.74 3.99-10.89 6.96-9.06 1.5.93 1.16 5.78-.58 8.27-1.77 2.53-4.64 2.89-6.38.79m.51-74.45c-.3-.49.43-2.13 1.63-3.64l2.16-2.76 2.34 2.71c1.28 1.49 2.07 3.13 1.76 3.64-.73 1.18-7.16 1.22-7.89.05m1.12 24.05c-1.72-.7-1.7-.89.32-3.46 1.17-1.49 2.5-2.71 2.95-2.71.9 0 4.4 4.98 3.87 5.51-.89.88-5.53 1.31-7.14.66m-.81 21.63c1.77-4.78 6.14-4.64 7.42.23.45 1.74 0 1.97-3.86 1.97-4.09 0-4.32-.14-3.56-2.2m.12-69.87c0-2.21 2.14-4.93 3.87-4.93 1.46 0 4.13 3.59 4.13 5.55 0 .25-1.8.45-4 .45s-4-.48-4-1.07"/><path fill="#fff" d="M0 0h1024v1024H0Zm653.06 890.46c.74-.3 1.47-.61 2.19-.91l3.75-1.58v-.19c.35-.15.7-.3 1.06-.45 1.84-.79 3.25-1.33 3.53-1.33.44 0 3.28-1.28 6.14-2.68.72-.31 1.4-.61 2.01-.89l4.24-1.93v-.55c.01 0 .01-.01.02-.02.28-.31 2.53-1.36 5-2.33 6.1-2.39 26.68-13.22 36.52-19.21 4.41-2.69 9.36-5.65 11-6.57 3.44-1.95 18.97-13.12 27.88-20.07 3.36-2.61 8.48-6.58 11.4-8.82 6.95-5.33 43.95-42.12 48.31-48.03 1.86-2.53 6.77-8.97 10.89-14.31 16.72-21.65 23.07-31.24 34.81-52.59 8.94-16.25 17-33.01 20.71-43.09 13.5-36.62 19.6-57.68 23.42-80.91 5.95-36.24 7.36-54.75 6.49-85.5-.63-22.6-2.05-34.91-7.07-61.5-4.39-23.19-10.92-46.65-18.39-66-1.16-3.02-2.49-6.62-2.94-8-.93-2.85-4.2-10.59-6.98-16.5-1.03-2.2-3.77-8.05-6.09-13-4.6-9.83-12.29-23.83-17.89-32.57-1.96-3.07-5.15-8.18-7.07-11.35-1.92-3.18-5.82-8.84-8.66-12.58s-5.72-7.86-6.4-9.15c-5-9.49-53.76-61.12-63.94-67.69-1.38-.89-8.74-6.35-16.37-12.14-22.19-16.84-42.13-29.13-66.93-41.25-11.27-5.51-46.19-19.75-48.59-19.81-.89-.03-3.41-.73-5.61-1.56-5.59-2.11-40.64-10.97-48.5-12.26-7.1-1.16-25.15-3.81-31.5-4.61-21.51-2.74-60.79-3.03-79.42-.59-12.19 1.6-25.48 3.41-26.88 3.66-.72.13-5.89.99-11.5 1.9-5.61.92-12.45 2.32-15.2 3.12-2.75.79-8.38 2.13-12.5 2.98-11.29 2.3-53.82 17.12-63 21.94-1.38.72-7.23 3.66-13 6.54-18.58 9.24-26.64 13.86-42.67 24.42-4.18 2.75-9.47 6.12-11.77 7.5-7.86 4.69-30.76 23.53-44.99 37-15.8 14.96-40.34 42.52-48.57 54.56-.82 1.2-4.69 6.86-8.59 12.56-14.59 21.35-30.02 49.66-38.37 70.39-1.77 4.39-4.25 10.47-5.52 13.49-4.2 10.04-12.52 36.87-15.04 48.5-.84 3.85-1.96 9.02-2.51 11.5-6.23 28.54-9.51 64.25-8.57 93.5.97 30.62 3.13 49.89 8.12 72.5.91 4.12 2.29 10.41 3.06 13.96s1.82 7.83 2.34 9.5c.51 1.67 2.14 7.09 3.61 12.04 4.1 13.76 5.32 17.45 8.11 24.5 1.42 3.58 3.28 8.3 4.14 10.5 2.33 5.99 12.15 27.64 13.83 30.5.81 1.38 2.99 5.54 4.85 9.26 9.6 19.17 28.69 47.67 44.11 65.84 17.72 20.89 48.26 50.28 65.36 62.9 2.61 1.92 7.18 5.34 10.15 7.6 4.32 3.26 21.85 15.21 27.3 18.6 1.55.96 21.55 11.85 24.62 13.4 12.86 6.49 27.09 12.63 41.8 18.12.3.12.6.23.9.34.86.32 1.73.63 2.59.95 6.63 2.52 13.37 4.87 20.23 7.03 1.08.35 1.92.61 2.46.76 3.9 1.2 7.83 2.34 11.8 3.42 2.75.79 5.42 1.51 7.95 2.16 4.54 1.16 9.24 2.26 14.07 3.28 4.66 1.03 9.23 1.94 13.7 2.74 4.07.72 9.28 1.5 14.99 2.25 9.46 1.32 19.2 2.38 29.09 3.17q3.945.315 7.92.57c12.86.82 47.78-.44 64-2.32 21.77-2.53 41.14-6.2 61.18-11.73l.05-.02c12.25-3.23 23.72-6.83 33.45-10.56 1.64-.62 3.25-1.24 4.82-1.87v.01Zm-95.99-358.2c.04-.42.41-1.63.83-2.7.72-1.83 2.02-1.94 24.18-2.09 25.01-.16 32.98-1.12 50.42-6.08 23.63-6.71 45-20.58 54.49-35.37 6.43-10.02 7.01-13.55 7.01-42.6 0-14.45-.49-29.8-1.09-34.1-1.07-7.73-5.57-22.83-8.47-28.43l-1.49-2.89h20.06l-.51 154.5-72.75.26c-40.01.14-72.72-.09-72.68-.5M462 378h11.11c10.19 0 11.04.14 10.35 1.75-7.56 17.64-10.42 34.19-10.42 60.25-.01 30.22 1.7 38.49 10.13 49.2l2.91 3.69-7.54 9.65c-4.15 5.31-7.54 10.42-7.54 11.36s1.07 5.37 2.37 9.86c1.31 4.49 2.13 8.4 1.84 8.7-.3.3-3.39.54-6.88.54H462Zm-15 88.11c.01-40.26.36-73.21.79-73.48.44-.27.67 1.17.53 3.19-.22 3.1-.13 3.28.56 1.18l.81-2.5.52 2.5c.49 2.35.53 2.32.74-.5.11-1.65.3-4.27.42-5.82.25-3.45-.98-4.49-1.89-1.62-.36 1.15-.88 1.87-1.15 1.6-.75-.74 1.69-4.79 3.97-7.4 1.25-1.29 2.39-2.25 2.88-2.26.39.08.72 26.2.8 60.78.01 2.63.01 5.31.02 8.02v85.13l-2.25 1.16c-1.24.64-3.26 2.08-4.5 3.21l-2.25 2.05Zm351.13 108.78c-.85-.32-6.09-2.72-13.78-6.3-5.43-2.64-5.3-2.99-3.83-4.61 2.1-2.32 2.61-2.49 1.9-.64-.43 1.12 1.6 1.47 4.4.74.18-.04-.35-.75-1.18-1.58-1.96-1.97-5.64-1.95-5.64.03 0 .84-.64 1.78-1.42 2.08-.79.3-12.6-4.7-26.25-11.11-7.88-3.69-16.16-7.55-22.63-10.54-5.12-2.4-8.95-4.18-10.7-4.98l-7.96-3.63.18-13.85.19-14L712 519c.33 6.88.69 10.61.8 8.31.2-4.09 2.2-7.3 2.2-3.52 0 .75.41 1.78 1 2.62v.54l2.25 1.45c3.44 2.21 66.39 31.47 69.26 32.19 5.13 1.29 5.49-.1 5.49-21.21V520h6v27.5c0 11.98-.21 22.22-.5 25.93l-.01.01v.05l-.01.15-.03.25c-.06.68-.13 1.04-.2 1.03-.02-.01-.06-.01-.12-.03m-379.07 7.51c-4.7-3.96-5.23-6.63-4.88-24.76l.32-16.61 3-2.99c1.65-1.65 4.46-3.29 6.25-3.64l3.25-.65v51h-2.57c-1.42 0-3.83-1.06-5.37-2.35m82.61-56.53c-1.01-.58-3.57-.9-5.68-.7-2.48.24-3.39.22-3.89-.74-.27-.56-.43-1.44-.66-2.79-.63-3.72-.41-4.15 4.8-9.36l4.14-4.14 1.46-1.25 11.33 5.53c6.23 3.04 15.04 6.55 19.57 7.8 5.83 1.61 8.25 2.74 8.25 3.84.01 1.24-1.19 1.56-5.74 1.56-3.16 0-6.65.31-7.75.7-1.64.58-2.32.01-3.78-3.2-1.54-3.38-4.17-5.42-7.31-5.82-.62-.08-1.24-.09-1.87-.04-.47.04-.96.11-1.45.22-.35.08-.72.21-1.1.38-1.29.49-2.54 1.27-3.71 2.36-1.83 1.71-2.49 1.85-3.74.81-.83-.69-1.2-1.77-.8-2.39.39-.63.58-1.93.42-2.89s.29-1.75 1-1.75.22-.75-1.09-1.67c-2.31-1.61-2.47-1.56-5.72 1.99-3.69 4.02-4.3 6.62-1.6 6.8.96.06.4.5-1.25.96-2.23.63-1.41.75 3.18.48 3.41-.2 6.39-.15 6.65.1.19.2.23.7.15 1.3-.3.6-.48 1.15-.48 1.62 0 .1 0 .2-.01.29-.19.47-.41.86-.63 1.02-.27.05-.64-.02-1.13-.22-.46-.2-1.03-.48-1.56-.8m28.6-105.53 5.02-3.61.09-.06c6.67-4.79 12.47-8.88 17.13-12.09v-.01c8.07-5.55 12.29-8.14 12.67-7.76.37.38.97 1.88 1.33 3.33.51 2.07.14 3.01-1.68 4.32-9.23 6.63-29.44 20.49-29.91 20.51-.31.02-1.53-.99-2.7-2.24l-.64-.68Zm80.46-3.63 1.91 2.87c1.69 2.69 3.03 4.93 3.53 5.99-.33.41-1.21.96-2.35 1.45-.56.08-1.37.4-2.31.86l-2.56.9-4.34-6.14c-2.39-3.38-5.56-8.02-7.06-10.32l-2.72-4.17 2.27-3.08c.4-.53.8-1.03 1.18-1.47 1-.71 1.81-1.11 2.29-1.13 1.07 1.22 3.6 4.67 6.33 8.53 1.21 1.79 2.53 3.75 3.83 5.71m-83.3-53.14c-.92-3.65.3-6.22 3.6-7.58 1.7-.71 2.97-1.98 2.97-2.99 0-2.79 2.8-4.61 4.98-3.24 1.56.97 2 .7 3.04-1.81.87-2.1 1.91-2.95 3.6-2.95 1.94 0 2.38.52 2.38 2.8 0 3.24-1.61 5.2-4.26 5.2-1.18 0-1.8.65-1.69 1.75.34 3.35-.07 4.15-2.8 5.45-1.55.75-2.89 2.3-3.07 3.56-.27 1.88-.94 2.24-4.23 2.24-3.31 0-4.01-.38-4.52-2.43m183.71 39.68c-.07-12.68 0-23.18.16-24.17.94.21 2.98.82 5.08 1.53 2.58.88 3.72 1.36 3.93 1.93.12.35-.14.75-.65 1.32-.18.22-.38.5-.58.84-.7 1.02-1.25 2.29-1.67 4.55-.39 1.55-1.03 2.75-1.49 2.75-.52 0-.93 6.84-.95 15.75-.03 12.79-.26 15.37-1.24 13.75-1.11-1.83-1.27-1.66-1.83 2-.34 2.2-.68-6.91-.76-20.25M477.57 496c2.92 0 1.63-5.71-2.12-9.35-2.26-2.19-3.75-4.74-4.12-7.01-.35-2.17-1.48-4.16-2.86-5.07-2.12-1.38-2.31-1.33-2.74.72-.26 1.22-.41 4.46-.35 7.21.11 4.78.25 5 2.97 5.1 2.97.11 4.61 1.72 4.63 4.58.01.93.54 2.96 1.18 4.5.9 2.21 1.25 2.44 1.57 1.07.23-.96 1.06-1.75 1.84-1.75m317.97-19.98c.52.1 1.14.3 1.88.59.04.01.08.03.12.05.89.78 1.24 2.48 1.37 6.15.07 1.94.09 4.47.09 7.8V504h-2.88c-1.96 0-2.59-.03-3.01-2.41-.02-.62 0-1.38.03-2.34l.14-4.75.72 4c.52 2.9.74 1.26.79-6 .04-6.4-.24-9.28-.79-8-.63 1.47-.88.61-.93-3.25-.01-.98 0-1.8.05-2.48.38-1.72.86-2.77 1.41-2.77.37 0 .71.01 1.01.02M514 461.88c0-7.93.05-8.1 2.25-7.51 1.24.33 3.26.61 4.5.62 2.13.01 2.25.4 2.25 7.51v7.5h-9Zm281.56-1.04c-1.5.14-2.08-.1-2.5-1.53-.04-.51-.05-1.16-.04-1.99.01-2.84.26-3.43.98-2.32.67 1.04.97-.88.98-6.25.01-4.51-.4-7.75-.98-7.75-.55 0-1-1.8-1-4 0-.54 0-1.01.02-1.42.43-2.41 1.02-2.58 3.15-2.58h2.89l-.28 13.75-.28 13.75-2.75.32c-.06 0-.13.01-.19.02m-25.81-52.41c-2.18-1.19-2.75-2.21-2.75-4.96 0-1.91.4-3.47.88-3.47s3.61 1.03 6.95 2.28l6.08 2.29-3.4 2.71c-3.91 3.12-4.07 3.15-7.76 1.15M431.9 428c5.62 0 7.45.12 7.86.88.12.22.11.51.04.87a1.6 1.6 0 0 1-.46.9c-.74.7-2.53.88-6.86.94-3.84.05-7.65-.25-8.48-.68-.91-.47-2.2-.13-3.29.85-1.66 1.51-1.75 1.5-1.14-.09.33-.85.8-1.51 1.53-2.03 2.04-1.07 5.16-1.57 9.61-1.63.33-.01.66-.01 1-.01h.17Zm279.18 63.46c-.07-6.32.12-7.05 1.9-7.18 2.8-.21 3.14.83 2.39 7.2-.47 4-1.03 5.48-1.95 5.13-.71-.27-1.51.04-1.78.7-.26.65-.52-1.98-.56-5.85m.19-19.96c-.04-5.83.21-8.12.73-6.5.67 2.1.83 1.79.97-2 .09-2.48.56-5.4 1.03-6.5.54-1.25.85 2.67.83 10.5-.03 11.4-1.14 13.75-1.9 4-.19-2.41-.48-1.48-.93 3-.65 6.47-.66 6.46-.73-2.5m81.48-58.25c-.26-2.06-.35-3.9-.2-4.07.14-.18 1.66.39 3.36 1.27 2.19 1.14 3.09 2.32 3.09 4.08 0 2.06-.48 2.47-2.89 2.47-2.59 0-2.94-.39-3.36-3.75M422 566.46c0-.17-.74-1.05-1.63-1.95-1.42-1.41-1.46-1.98-.3-4.14 1.14-2.12 1.12-2.64-.12-3.41-1.18-.73-1.51-.03-1.76 3.69-.38 5.62.26 7.5 2.27 6.73.85-.33 1.54-.74 1.54-.92m358.54-108.4c-1.04-1.68.36-3.06 3.09-3.06 1.86 0 2.43.46 2.18 1.75-.37 1.97-4.27 2.93-5.27 1.31m-.11-44.17c-.59-.96 1.11-2.86 2.57-2.86.28 0 1.12.39 1.88.87 1.77 1.12.57 3.1-1.88 3.1-1.04 0-2.19-.5-2.57-1.11m.05 87.08c-.39-.63-.25-1.6.3-2.15 1.42-1.42 4.72-.59 4.72 1.19 0 1.8-4.02 2.57-5.02.96M551.57 358.11c-.3-.48.08-1.41.85-2.05 1.56-1.29 3.16.2 2.08 1.94-.77 1.24-2.2 1.29-2.93.11M422 436.34c.83-.33 2.61-1.55 3.97-2.72 1.36-1.16 1.96-1.45 1.33-.62-.62.83-1.15 1.95-1.18 2.5s-1.31 1.1-2.84 1.22-2.11-.05-1.28-.38m75.56 77.49 2.94-3.17-3.25 2.24c-1.79 1.23-3.25 2.66-3.25 3.17 0 1.43.4 1.18 3.56-2.24"/><path fill="#eba5bd" d="M505.5 705.85c-3.25-1.78-4.5-4-4.5-7.97 0-6.99 9.06-10.64 13.83-5.57 6.34 6.76-1.34 17.9-9.33 13.54m0 122c-3.25-1.78-4.5-4-4.5-7.97 0-2.84.63-4.23 2.63-5.81 8.47-6.66 18.54 4.85 10.92 12.48-2.62 2.61-5.8 3.07-9.05 1.3m5.15-270.3c-4.99-4.62-2.43-11.55 4.25-11.55 7 0 9.88 7.67 4.47 11.93-3.44 2.7-5.49 2.61-8.72-.38"/><path fill="#ec77a2" d="M506.66 855.87c-4.04-2.35-5.89-12.04-3.58-18.67 1.02-2.91 1.36-3.08 5.75-2.9 4.38.19 4.74.42 5.86 3.7 2.41 7.06.72 15.64-3.54 17.92-2.4 1.29-2.19 1.29-4.49-.05m-22.42-9.41c-5.24-3.68-.07-13.51 7.76-14.74 1.92-.3 4.29-.86 5.25-1.24 2.16-.86 2.2.17.24 6.87-1.1 3.77-2.37 5.74-4.75 7.35-4.78 3.24-6.02 3.49-8.5 1.76m41.46-1.44c-3.13-1.98-4.7-3.67-4.7-5.05 0-1.14-.71-3.45-1.59-5.13-2.17-4.22-.85-5.08 5.5-3.59 8.94 2.1 14.18 10.64 9.26 15.1-2.45 2.22-3.03 2.13-8.47-1.33m-49.45-20.01c-3.83-2.34-4.3-5.75-1.18-8.58 1.48-1.33 4.03-1.98 8.87-2.26 8.91-.5 10.76.54 11.21 6.3.34 4.21.17 4.57-2.54 5.52-4.86 1.69-12.76 1.22-16.36-.98m49.5.88c-2.43-.93-2.75-1.58-2.75-5.5s.32-4.56 2.75-5.5c4.2-1.62 14.73-.67 17.19 1.56 5.18 4.68 1.03 9.83-8.25 10.23-3.4.15-7.43-.21-8.94-.79m-33.21-16.79c-4.78-1.28-6.42-2.27-8.25-5-4.6-6.82-1.8-12.52 4.99-10.15 4.04 1.41 7.72 4.88 7.72 7.29 0 1.04.48 2.79 1.06 3.88.59 1.09.92 2.79.75 3.78-.29 1.7-.62 1.71-6.27.2m26.95.89c-1.04-1.69 1.49-10.14 3.81-12.71 1.1-1.22 3.48-2.71 5.3-3.31 6.4-2.11 9.37 2.32 5.97 8.9-1.89 3.65-3.81 5.16-7.79 6.11-1.8.44-4.02 1.1-4.93 1.47-.91.38-1.97.17-2.36-.46m-16.12-6.65c-2.6-6.22-1.13-16.33 2.67-18.36 3.82-2.04 5.98-1.16 7.99 3.27 2.19 4.82 2.4 9.67.66 14.7-1.1 3.2-1.51 3.46-5.57 3.56-4.05.1-4.49-.15-5.75-3.17m3.46-69.9c-3.5-1.86-5.25-7.24-4.41-13.56 1-7.52 1.28-7.88 6.15-7.88 5 0 6.11 1.31 7.02 8.21.68 5.14-1.28 11.55-4.09 13.36-1.65 1.07-2.47 1.04-4.67-.13m-23.63-9.64c-1.84-1.84-1.44-5.15 1.08-8.9 1.73-2.58 3.67-3.84 8.07-5.24 3.19-1.02 6.04-1.61 6.33-1.31.29.29-.06 2.84-.78 5.67-2.11 8.24-10.6 13.88-14.7 9.78m43.3-.64c-1.65-1.01-3.54-2.49-4.2-3.29-1.58-1.92-3.88-10.62-3.03-11.48 1.07-1.06 10.02 1.72 12.4 3.86 3.36 3.02 4.83 7.35 3.49 10.3-1.35 2.97-4.44 3.19-8.66.61m-49.22-19.57c-4.23-1.93-5.36-5.95-2.47-8.84 2.29-2.3 10.56-3.47 16.55-2.34 3.25.61 3.46.9 3.8 5.19.23 2.83-.11 4.94-.89 5.59-2.12 1.76-13.4 2.03-16.99.4m48.97.29c-3.09-.89-3.25-1.17-3.25-5.78 0-4.63.14-4.88 3.12-5.48 1.72-.34 5.52-.62 8.45-.62 6.88 0 11.12 3.12 10.05 7.39-1.2 4.77-9.97 6.92-18.37 4.49M495 687.44c-1.92-.71-4.43-1.32-5.56-1.36-2.45-.09-6.25-4.9-7.06-8.91-.61-3.05 1.53-6.17 4.24-6.17 2.06 0 6.75 2.54 8.43 4.56 1.72 2.07 4.99 12.31 4.09 12.81-.35.2-2.22-.21-4.14-.93m24-.15c0-2.86 2.33-9.77 3.92-11.64 2.44-2.87 7.04-4.88 9.67-4.22 3.57.9 4.06 4.68 1.26 9.7-2.11 3.77-3 4.39-8.6 5.96-5.57 1.56-6.25 1.58-6.25.2m-16.06-7.53c-1.65-6.11-.68-12.47 2.36-15.51 3.56-3.57 6.97-2.53 9.09 2.76 1.91 4.77 1.98 6.63.49 12.55l-1.12 4.44h-9.68zm9.5-98.22c-1.99-2-2.44-3.45-2.44-7.91 0-7.7.54-8.63 5-8.63s5 .93 5 8.65c0 8.98-3.16 12.28-7.56 7.89m-18.87-7.11c-.86-.87-1.57-2.41-1.57-3.42 0-2.71 4.56-7.69 7.75-8.45 1.51-.36 3.58-.9 4.6-1.21 1.68-.5 1.79-.14 1.15 3.8-.79 4.78-2.59 7.33-6.7 9.45-3.35 1.74-3.32 1.74-5.23-.17m36.93-.27c-4.2-2.57-5.17-4.03-6-9.05-.71-4.33-.69-4.37 1.84-3.74 5.32 1.34 7.49 2.58 9.54 5.46 2.38 3.34 2.71 6.18.92 7.97-1.63 1.63-2.78 1.51-6.3-.64m-42.25-17.65c-2.43-1.06-3.25-2.05-3.25-3.93 0-3.31 2.6-4.58 9.35-4.58 7.71 0 8.65.54 8.65 4.98 0 3.42-.29 3.83-3.12 4.4-4.72.94-8.04.69-11.63-.87m41.75.6c-1.93-.53-2.57-1.45-2.82-4.04-.42-4.31.82-5.04 8.57-5.05 4.85-.02 6.68.41 8.18 1.91 5.26 5.26-3.85 9.96-13.93 7.18m-29.36-14.14c-5.63-1.69-10.14-8.46-7.64-11.47 2.97-3.58 11.29.67 12.24 6.24.26 1.52.81 3.55 1.23 4.51.84 1.97-.92 2.19-5.83.72m23.84-3.22c1.02-6.53 8.31-11.83 12.03-8.74 3.5 2.9-.36 10.3-6.21 11.92-6.26 1.74-6.56 1.58-5.82-3.18m-13.44-.68c-1.3-2.42-1.35-10.12-.1-13.42 1.38-3.63 4.99-4.46 7.25-1.67 1.82 2.26 2.57 11.87 1.2 15.44-.9 2.36-7.04 2.1-8.35-.35"/></g></svg>