<svg xmlns="http://www.w3.org/2000/svg" width="100" height="100" viewBox="0 0 100 100"><desc>Railway Station 1 Streamline Illustration: https://streamlinehq.com</desc><path fill="#ccf7ad" d="M49.708 92.45a39.95 39.95 0 0 0 34.608-20H15.1a39.95 39.95 0 0 0 34.608 20M13.272 68.95a41 41 0 0 0 1.829 3.5h69.215a41 41 0 0 0 1.828-3.5Z"/><path fill="#b8ecff" d="M89.708 52.45a40 40 0 1 0-76.436 16.5h72.872a39.8 39.8 0 0 0 3.564-16.5"/><path fill="none" stroke="#45413c" stroke-linecap="round" stroke-linejoin="round" d="M10.708 68.95h78M6.208 68.95h2.5M90.708 68.95h2.5"/><path fill="#adc4d9" d="M56.14 32.929H17.663l-4.094 10.779h46.664z"/><path fill="#daedf7" d="m57.694 37.022-1.554-4.093H17.663l-1.555 4.093z"/><path fill="none" stroke="#45413c" stroke-linecap="round" stroke-linejoin="round" d="M56.14 32.929H17.663l-4.094 10.779h46.664z"/><path fill="#ffaa54" d="M13.569 43.708h46.664v18.693H13.569z"/><path fill="#ffaa54" d="M14.388 48.483h45.845V62.4H14.388z"/><path fill="#ff8a14" d="M13.569 43.708h46.664v8.869H13.569z"/><path fill="none" stroke="#45413c" stroke-linecap="round" stroke-linejoin="round" d="M13.569 43.708h46.664v18.693H13.569z"/><path fill="#adc4d9" stroke="#45413c" stroke-linecap="round" stroke-linejoin="round" d="M94.161 48.483H5.02a.681.681 0 0 1-.567-1.06l2.162-3.108a1.37 1.37 0 0 1 1.135-.607h83.681a1.37 1.37 0 0 1 1.135.607l2.163 3.108a.682.682 0 0 1-.568 1.06"/><path fill="#fc9" stroke="#45413c" stroke-linecap="round" stroke-linejoin="round" d="M20.756 28.017h-2.093a1 1 0 0 0-1 1v3.912h4.093v-3.912a1 1 0 0 0-1-1M55.14 28.017h-2.093a1 1 0 0 0-1 1v3.912h4.093v-3.912a1 1 0 0 0-1-1"/><path fill="#e09f7e" stroke="#45413c" stroke-linecap="round" stroke-linejoin="round" d="m82.337 48.483 4.094 4.912h3.274l4.094-4.912zM56.14 48.483l4.093 4.912h3.275l4.093-4.912zM7.02 48.483l4.093 4.912h3.275l4.093-4.912z"/><path fill="#00b8f0" d="M25.035 54.9v7.5h-4.912v-7.5a.675.675 0 0 1 .682-.682h3.548a.684.684 0 0 1 .682.682"/><path fill="#4acfff" d="M25.035 54.9v.287L20.682 62.4h-.559v-7.5a.675.675 0 0 1 .682-.682h3.548a.684.684 0 0 1 .682.682"/><path fill="#00b8f0" d="M56.963 54.9v7.5h-4.912v-7.5a.675.675 0 0 1 .682-.682h3.547a.684.684 0 0 1 .683.682"/><path fill="#4acfff" d="M56.963 54.9v.287L52.61 62.4h-.559v-7.5a.675.675 0 0 1 .682-.682h3.547a.684.684 0 0 1 .683.682"/><path fill="#fc9" d="M86.431 48.483h3.275V62.4h-3.275z"/><path fill="#ffaa54" d="M86.431 48.483h3.275v4.093h-3.275z"/><path fill="none" stroke="#45413c" stroke-linecap="round" stroke-linejoin="round" d="M86.431 48.483h3.275V62.4h-3.275z"/><path fill="#fc9" d="M60.233 48.483h3.275V62.4h-3.275z"/><path fill="#ffaa54" d="M60.233 48.483h3.275v4.093h-3.275z"/><path fill="none" stroke="#45413c" stroke-linecap="round" stroke-linejoin="round" d="M60.233 48.483h3.275V62.4h-3.275z"/><path fill="#fc9" d="M11.113 48.483h3.275V62.4h-3.275z"/><path fill="#ffaa54" d="M11.113 48.483h3.275v4.093h-3.275z"/><path fill="none" stroke="#45413c" stroke-linecap="round" stroke-linejoin="round" d="M11.113 48.483h3.275V62.4h-3.275z"/><path fill="#ffaa54" d="M30.761 25.561h18.011v36.84H30.761z"/><path fill="#ff8a14" d="M30.761 25.561h18.011v5.185H30.761z"/><path fill="none" stroke="#45413c" stroke-linecap="round" stroke-linejoin="round" d="M30.761 25.561h18.011v36.84H30.761z"/><path fill="#adc4d9" d="M42.223 18.193h-4.912l-6.9 6.9a.273.273 0 0 0 .193.466h18.33a.273.273 0 0 0 .193-.466Z"/><path fill="#adc4d9" d="M34.036 21.467 30.409 25.1a.273.273 0 0 0 .193.466h18.33a.273.273 0 0 0 .193-.466L45.5 21.467Z"/><path fill="none" stroke="#45413c" stroke-linecap="round" stroke-linejoin="round" d="M42.223 18.193h-4.912l-6.9 6.9a.273.273 0 0 0 .193.466h18.33a.273.273 0 0 0 .193-.466Z"/><path fill="#ffe500" stroke="#45413c" stroke-linecap="round" stroke-linejoin="round" d="M40.248 13.281h-.963a1.365 1.365 0 0 0-1.346 1.14l-.628 3.772h4.912l-.629-3.772a1.365 1.365 0 0 0-1.346-1.14"/><path fill="none" stroke="#45413c" stroke-linecap="round" stroke-linejoin="round" d="M39.767 13.281V7.55"/><path fill="#00b8f0" d="M42.227 31.972V38.8a.684.684 0 0 1-.683.682H38a.3.3 0 0 1-.109-.014.664.664 0 0 1-.573-.668v-6.828A.675.675 0 0 1 38 31.29h3.547a.684.684 0 0 1 .68.682"/><path fill="#4acfff" d="M42.227 31.972v.287l-4.339 7.2a.664.664 0 0 1-.573-.668v-6.819A.675.675 0 0 1 38 31.29h3.547a.684.684 0 0 1 .68.682"/><path fill="#00b8f0" d="M42.227 49.983v6.822a.684.684 0 0 1-.683.682H38a.3.3 0 0 1-.109-.013.665.665 0 0 1-.573-.669v-6.822A.675.675 0 0 1 38 49.3h3.547a.684.684 0 0 1 .68.683"/><path fill="#4acfff" d="M42.227 49.983v.287l-4.339 7.2a.665.665 0 0 1-.573-.669v-6.818A.675.675 0 0 1 38 49.3h3.547a.684.684 0 0 1 .68.683"/><path fill="none" stroke="#45413c" stroke-linecap="round" stroke-linejoin="round" d="M25.035 54.9v7.5h-4.912v-7.5a.675.675 0 0 1 .682-.682h3.548a.684.684 0 0 1 .682.682M56.963 54.9v7.5h-4.912v-7.5a.675.675 0 0 1 .682-.682h3.547a.684.684 0 0 1 .683.682M42.227 31.972V38.8a.684.684 0 0 1-.683.682H38a.3.3 0 0 1-.109-.014.664.664 0 0 1-.573-.668v-6.828A.675.675 0 0 1 38 31.29h3.547a.684.684 0 0 1 .68.682M42.227 49.983v6.822a.684.684 0 0 1-.683.682H38a.3.3 0 0 1-.109-.013.665.665 0 0 1-.573-.669v-6.822A.675.675 0 0 1 38 49.3h3.547a.684.684 0 0 1 .68.683M30.761 29.654h2.456M30.761 35.385h2.456M30.761 41.115h2.456M30.761 46.846h2.456M30.761 52.577h2.456M30.761 58.307h2.456M46.316 29.654h2.456M46.316 35.385h2.456M46.316 41.115h2.456M46.316 46.846h2.456M46.316 52.577h2.456M46.316 58.307h2.456"/><path fill="#bdbec0" stroke="#45413c" stroke-linecap="round" stroke-linejoin="round" d="M2.927 62.401h94.146v6.549H2.927Z"/><path fill="#f8f8f8" stroke="#45413c" stroke-linecap="round" stroke-linejoin="round" d="M11.932 68.95H7.839v-2.775a.5.5 0 0 1 .5-.5h3.093a.5.5 0 0 1 .5.5ZM20.937 68.95h-4.093v-2.775a.5.5 0 0 1 .5-.5h3.093a.5.5 0 0 1 .5.5ZM29.943 68.95h-4.094v-2.775a.5.5 0 0 1 .5-.5h3.094a.5.5 0 0 1 .5.5ZM38.948 68.95h-4.093v-2.775a.5.5 0 0 1 .5-.5h3.093a.5.5 0 0 1 .5.5ZM47.953 68.95H43.86v-2.775a.5.5 0 0 1 .5-.5h3.093a.5.5 0 0 1 .5.5ZM56.959 68.95h-4.094v-2.775a.5.5 0 0 1 .5-.5h3.094a.5.5 0 0 1 .5.5ZM65.964 68.95h-4.093v-2.775a.5.5 0 0 1 .5-.5h3.093a.5.5 0 0 1 .5.5ZM74.969 68.95h-4.093v-2.775a.5.5 0 0 1 .5-.5h3.093a.5.5 0 0 1 .5.5ZM83.975 68.95h-4.094v-2.775a.5.5 0 0 1 .5-.5h3.094a.5.5 0 0 1 .5.5ZM92.98 68.95h-4.093v-2.775a.5.5 0 0 1 .5-.5h3.093a.5.5 0 0 1 .5.5Z"/></svg>