<svg xmlns="http://www.w3.org/2000/svg" width="160" height="160" viewBox="0 0 160 160"><path fill="#c7f0ff" d="M16 84.002a64 64 0 1 0 128 0 64 64 0 1 0-128 0"/><path fill="#4acfff" d="M15.2 84a64.8 64.8 0 0 0 129.6 0 65.5 65.5 0 0 0-.62-9.005H15.82A65 65 0 0 0 15.2 84"/><path fill="none" stroke="#45413c" stroke-linecap="round" stroke-linejoin="round" stroke-width="1.6" d="M144.18 74.998H15.82"/><path fill="none" stroke="#4aeff7" stroke-linecap="round" stroke-linejoin="round" stroke-width="1.6" d="M59.717 105.5a20.34 7.218 0 1 0 40.681 0 20.34 7.218 0 1 0-40.681 0"/><path fill="none" stroke="#4aeff7" stroke-linecap="round" stroke-linejoin="round" stroke-width="1.6" d="M47.237 105.5a32.82 14.474 0 1 0 65.641 0 32.82 14.474 0 1 0-65.641 0"/><path fill="none" stroke="#4aeff7" stroke-linecap="round" stroke-linejoin="round" stroke-width="1.6" d="M37.144 105.562a42.856 21.478 0 1 0 85.712 0 42.856 21.478 0 1 0-85.712 0"/><path fill="#d9fdff" d="M110.15 63.626a30.15 30.15 0 0 1-60.3 0c0-13.136 18.76-39.941 26.683-50.679a4.307 4.307 0 0 1 6.933 0C91.39 23.68 110.15 50.49 110.15 63.626"/><path fill="#b8ecff" d="M51.106 56.594a24.6 24.6 0 0 0-1.256 7.032 30.15 30.15 0 0 0 60.3 0 24.6 24.6 0 0 0-1.257-7.032 30.138 30.138 0 0 1-57.787 0"/><path fill="none" stroke="#45413c" stroke-linecap="round" stroke-linejoin="round" stroke-width="1.6" d="M110.15 63.626a30.15 30.15 0 0 1-60.3 0c0-13.136 18.76-39.941 26.683-50.679a4.307 4.307 0 0 1 6.933 0C91.39 23.68 110.15 50.49 110.15 63.626"/></svg>