<svg xmlns="http://www.w3.org/2000/svg" width="100" height="100" viewBox="0 0 100 100"><desc>Pride Heart Streamline Illustration: https://streamlinehq.com</desc><path fill="#daedf7" stroke="#daedf7" d="M10 50a40 40 0 1 0 80 0 40 40 0 1 0-80 0Z"/><path fill="#ff6242" d="M68.4 27.331c-7.953-5.947-14.135.895-17.324 4.669h21.445a14.95 14.95 0 0 0-4.121-4.669M31.6 27.331A15 15 0 0 0 27.477 32H48.96c-2.828-3.448-9.312-10.686-17.36-4.669"/><path fill="#ff8a14" d="M50 33.265c-.254-.289-.6-.732-1.041-1.265H27.477a12.6 12.6 0 0 0-1.677 6.134q0 .564.019 1.116h48.35q.02-.552.019-1.116A12.6 12.6 0 0 0 72.522 32H51.075c-.408.483-.767.916-1.075 1.265"/><path fill="#ffe500" d="M27.237 46.25H72.76a20.1 20.1 0 0 0 1.413-7h-48.35a20.1 20.1 0 0 0 1.414 7"/><path fill="#6dd627" d="M31.954 53.5h36.091a25.2 25.2 0 0 0 4.715-7.25H27.237a25.2 25.2 0 0 0 4.717 7.25"/><path fill="#00b8f0" d="M39.818 60.75h20.365a63.5 63.5 0 0 0 7.862-7.25H31.954a63.5 63.5 0 0 0 7.864 7.25"/><path fill="#9f5ae5" d="M49.035 67.505a1.71 1.71 0 0 0 1.93 0c3.579-2.453 6.626-4.686 9.218-6.755H39.818c2.591 2.069 5.639 4.302 9.217 6.755"/><path fill="#ffaa54" d="M50 33.265c-.255-.289-.605-.732-1.042-1.265H27.477a12.6 12.6 0 0 0-1.677 6.134q0 .564.022 1.116h1.716a14.9 14.9 0 0 1 4.062-4.579c6.579-4.919 12.114-.978 15.459 2.508a4.074 4.074 0 0 0 5.893.052c3.462-3.619 8.845-7.5 15.447-2.56a14.9 14.9 0 0 1 4.057 4.579h1.714q.022-.552.021-1.116A12.6 12.6 0 0 0 72.521 32H51.076c-.408.483-.767.916-1.076 1.265"/><path fill="#fff48c" d="M73.807 42.581a23.5 23.5 0 0 0 .364-3.331h-1.714a13.4 13.4 0 0 1 1.35 3.331M26.188 42.583a13.4 13.4 0 0 1 1.354-3.333h-1.716a24 24 0 0 0 .362 3.333"/><path fill="none" stroke="#45413c" stroke-linecap="round" stroke-linejoin="round" d="M49.035 67.505a1.71 1.71 0 0 0 1.93 0C70.464 54.143 74.2 47.283 74.192 38.134h0A13.89 13.89 0 0 0 68.4 27.33h0c-8.97-6.707-15.688 2.856-18.4 5.935-1.9-2.159-9.108-12.88-18.4-5.935h0a13.89 13.89 0 0 0-5.8 10.8h0c-.006 9.153 3.738 16.013 23.235 29.375"/><path fill="#45413c" d="M34.473 76.925a15.525 1.725 0 1 0 31.05 0 15.525 1.725 0 1 0-31.05 0"/></svg>