<svg xmlns="http://www.w3.org/2000/svg" width="80" height="80" viewBox="62 62 900 900"><defs><clipPath id="c"><circle cx="512" cy="512" r="450"/></clipPath></defs><g clip-path="url(#c)"><path fill="#0daddf" d="M606.47 578.54c-6.88 1.58-15.67 2.76-23.58 3.14l-12.61.61-.61-3.4c-.34-1.86-.91-7.48-1.27-12.48l-.66-9.1 6.46-.6c10.76-1 26.63-4.58 39.16-8.82 6.52-2.2 12-3.86 12.18-3.68.29.29 3.34 15.13 4.82 23.47.55 3.13.46 3.21-6.18 5.75-3.7 1.41-11.67 3.71-17.71 5.11m-24.81-82.06c-5.29 1.35-13.67 2.75-18.61 3.12l-8.99.68-1.03-2.64c-.57-1.45-1.51-3.88-2.09-5.39-.59-1.51-2.48-4.95-4.19-7.63l-3.13-4.89 3.03-2.71c2.33-2.08 5.1-3.09 11.94-4.34 4.9-.9 12.93-2.99 17.85-4.66 16.01-5.41 21.35-3.72 27.81 8.84 2.06 4 3.75 8.09 3.75 9.08 0 2.16-11.59 6.8-26.34 10.54m-103.77 44.77c-.67 2.58-1.5 3.71-2.68 3.63-3.02-.2-20.54-3.88-21.08-4.42-.29-.29.03-2.42.72-4.74 5.65-19.15 6.77-24.87 8.03-41.04.51-6.5 1.14-12.04 1.41-12.31.27-.26 3.13.17 6.35.98 3.22.8 7.55 1.74 9.61 2.1l3.75.64-.01 8.71c-.01 13.42-2.52 32.55-6.1 46.45m79.63 20 .71 6.75H542v-12.8l7.06-.71c3.88-.39 7.21-.54 7.4-.35.19.2.66 3.4 1.06 7.11"/><path fill="#38322c" d="M819.48 904.02c-1.78 1.97-3.92 1.98-305.44 1.98-234.83 0-303.91-.27-304.84-1.2-1.69-1.69-1.49-10.44.39-16.87 3.57-12.24 14.24-25.74 25.41-32.17 5.52-3.17 17.01-6.76 21.65-6.76 2.87 0 3.73-.54 5.15-3.25 2.83-5.41 13.28-15.17 19.21-17.95 6-2.81 14.12-4.8 19.59-4.8 2.93 0 3.77-.53 5.2-3.25.93-1.79 4.64-6.22 8.23-9.85 6.74-6.81 13.67-10.44 22.22-11.64 2.06-.29 3.75-.96 3.75-1.49s-2.44-4.9-5.41-9.71c-20.76-33.57-30.96-69.92-30.87-110.06.09-41.42 11.16-79.94 32.55-113.31 2.75-4.3 4.6-8.16 4.12-8.58-.49-.43-6.97-4.65-14.41-9.4l-13.51-8.63-8.99 1.39c-4.94.77-16.18 2.56-24.98 3.98-1.89.3-3.63.59-5.23.85-15.5 2.51-18.2 2.95-19.88 1.84-.53-.35-.95-.85-1.64-1.49-3.34-3.1-3.5-5.99-.49-9 1.91-1.91 5.36-2.78 21.67-5.46 18.22-2.99 21.02-3.63 19.99-4.57-1.59-1.44-30.83-19.62-31.53-19.6-.49.01-16.74 27.8-36.12 61.75s-36.17 63.25-37.31 65.1c-1.9 3.08-2.4 3.32-5.7 2.79-5.41-.88-24.36-10.55-36.26-18.5-41.68-27.85-69.79-71.77-76.44-119.41-2.98-21.36-2.85-34.35.54-56.25 3.45-22.34 15.68-51.87 29.6-71.5 10.1-14.24 30.26-33.92 44.3-43.25 18.81-12.49 39.44-21.17 61.62-25.92 9.71-2.08 13.51-2.33 35.38-2.33 22.05 0 25.55.23 35 2.34 22.52 5.03 43.74 13.81 60.5 25.02 11.89 7.95 17.5 12.85 17.5 15.28 0 1.1-14.4 27.2-32 58s-32 56.2-32 56.43c0 .24.83.43 1.85.43 3.36 0 4.94 3.34 10.66 22.5 3.12 10.45 7.09 23.49 8.83 28.97l3.16 9.97 10 6.27c5.5 3.45 14.12 8.78 19.16 11.84l9.15 5.56 12.72-12.81 12.71-12.8-.19-5.63c-.21-6.42 1.42-10.99 6.57-18.47 3.09-4.5 3.57-6.05 4.03-13 .74-11.23 2.7-16.69 7.44-20.75l3.94-3.37-4.02-6.03c-5.85-8.76-12.67-24.84-16.18-38.14-2.57-9.77-3.14-14.08-3.57-27.14-.63-19.25 1.11-31.57 6.84-48.24l4.04-11.77-2.61-3.1c-5.17-6.15-5.91-9.22-5.83-24.36.07-12 .4-14.85 2.34-19.95 2.62-6.93 9.17-14.44 14.79-16.97 3.43-1.55 4.19-2.62 7.12-9.91 10.25-25.54 27.28-48.27 46.25-61.73 6.01-4.26 21.05-12.46 26.07-14.22.89-.31.77-.95-.46-2.34-2.43-2.74-4.23-10.35-3.44-14.55.37-1.98 2.01-5.56 3.64-7.96 1.62-2.41 2.97-5.27 2.99-6.37.07-3.45 3.58-9.97 6.85-12.72 1.81-1.53 5.54-3.15 8.89-3.87 3.17-.68 6.45-1.82 7.3-2.53 2.64-2.24 8.74-4.38 12.46-4.38 3.75 0 9.87 2.16 12.46 4.4.85.73 3.26 1.59 5.37 1.91 8.94 1.37 15.48 7.83 17.2 17 .38 2.04 1.1 3.96 1.6 4.27.49.31 1.79 2.31 2.88 4.45 2.63 5.15 2.63 13.29.01 18.44-1.1 2.14-1.88 3.97-1.75 4.06.12.09 4.83 2.55 10.46 5.47 26.13 13.55 46.05 36.4 59.72 68.5 4.02 9.44 4.51 10.12 8.77 12.18 2.48 1.19 6.2 4.12 8.26 6.5 6.01 6.94 7.63 12.36 8.25 27.57.6 14.9-.34 20.03-4.73 25.91l-2.74 3.68 2.99 8.08c6.32 17.08 8.74 30.56 8.75 48.65 0 14.72-2.02 27.82-6.23 40.43-3.08 9.22-12.89 29.84-14.74 30.98-1.78 1.1-1.15 2.18 2.85 4.82 5.82 3.86 8.28 9.82 9.09 22.08.65 9.68.86 10.39 4.83 16.49 4.64 7.12 5.73 11.1 4.77 17.48l-.65 4.34 8.64 8.4c4.75 4.63 11.56 11.9 15.13 16.16 3.56 4.26 6.92 7.75 7.45 7.75.54 0 5.34-2.75 10.67-6.11 5.33-3.37 17.62-11.06 27.31-17.11l17.62-10.99 8.38-28.58c4.61-15.71 9.2-29.62 10.2-30.89 3.75-4.76 11.75-1.91 11.65 4.15-.02 1.12-2.67 11.26-5.88 22.53s-5.69 20.67-5.5 20.88c.25.29 32.83-19.56 35.27-21.48.32-.26-11.82-24.1-24.9-48.9-5.35-10.14-20.84-39.95-46.68-89.81-16.96-32.73-17.51-33.97-17.05-38.71.84-8.8 2.02-9.66 40.27-29.48 19.11-9.9 36.27-18.39 38.15-18.86 9.6-2.41 14.77 1.83 23.85 19.59 3.74 7.3 16.79 32.62 29 56.27s27.05 52.45 32.98 64c5.94 11.55 12.7 24.6 15.03 29s8.06 15.42 12.74 24.5c8 15.5 20.56 39.75 50.03 96.61 6.87 13.26 12.8 25.48 13.17 27.16 1 4.53-.98 10.39-4.68 13.89-1.8 1.7-18.57 11.13-37.27 20.96-32.26 16.95-34.29 17.87-39.59 17.87-.6 0-1.16.02-1.67.04-1.04.04-1.93.08-2.8-.06-6.29-1.02-11.1-11.15-54.18-94.34-9.22-17.8-17.28-32.57-17.92-32.82s-9.64 4.83-20 11.29c-18.8 11.72-22.66 14.4-20.76 14.4.55 0 9.75 1.55 20.44 3.45 20.97 3.73 21.98 4.19 21.98 10.09 0 3.81-2.64 6.46-6.43 6.46-1.52 0-8.24-.88-14.92-1.96-26.5-4.27-38.22-6.05-39.81-6.05-1.18.01-44.55 26.88-47.64 29.52-.16.14 2.24 4.77 5.33 10.29 28.45 50.72 34.32 115.58 15.45 170.72-4.67 13.67-13.79 33.2-20.6 44.12-2.55 4.09-4.47 7.54-4.26 7.66.21.13 2.98 1.46 6.15 2.96 6.78 3.22 13.56 9.18 17.45 15.34 2.68 4.24 2.96 4.4 7.78 4.41 7.16.01 20.85 3.53 27.48 7.06 6.79 3.62 14.05 10.48 18.69 17.68 2.65 4.1 3.96 5.25 5.97 5.25 1.41 0 5.34.71 8.72 1.58 20.99 5.42 36.66 23.71 39.26 45.85.54 4.6.34 5.96-1.14 7.59m-316.76-58.5c2.91 2.68 5.37 4.19 6.28 3.84 17.13-6.43 30.8-8.86 45.61-8.11 9.9.51 10.35.44 10.99-1.61 1.39-4.46 6.94-10.75 12.81-14.54 9.07-5.84 14.52-7.42 25.59-7.43 11.54 0 18.47 2.33 26.63 8.98l5.44 4.43 5.62-1.77c4.66-1.47 6.99-3.15 13.71-9.89 17.27-17.31 27.73-31.7 37.95-52.18 16.25-32.55 22.9-66.13 20.53-103.74-.83-13.2-1.08-15.65-2.21-21-.35-1.65-.89-4.58-1.2-6.5-1.03-6.31-4.42-18.7-7.57-27.62-3.5-9.91-15.16-34-17.71-36.59-1.59-1.62-1.97-1.54-6.57 1.33-2.69 1.68-6.39 3.29-8.23 3.59-2.85.46-3.85.03-6.86-2.98-2.59-2.59-3.53-4.39-3.53-6.79 0-4.09 3.73-9.11 8.44-11.35 1.96-.92 3.56-2.1 3.56-2.6 0-.78-2.11-3.48-7.5-9.63-2.18-2.48-14.39-15-16.82-17.24l-2.58-2.38-2.92 2.45c-1.6 1.35-4.34 3.05-6.07 3.77-2.17.89-3.01 1.81-2.67 2.92 5.96 19.69 12.1 65 13.13 96.82.66 20.27-.65 45.72-2.53 49.23-1.17 2.18-8.77 4.86-24.04 8.5-15.93 3.8-30.33 5.57-45.22 5.57h-2.3c-7.3.02-11.09.03-12.9-1.86-1.95-2.03-1.6-6.27-.88-15.06.06-.82.13-1.68.2-2.57.68-8.51.96-15.93.61-16.49-.34-.56-1.9-1.02-3.46-1.02-4.48 0-29.26-5.1-32.3-6.65-3.44-1.75-3.46-3.08-.33-18.75 5.02-25.15 8.64-59.3 7.68-72.45-.08-1.1-2.41-1.22-12.35-.65-18.68 1.06-48.45-2.36-71.25-8.21-5.5-1.41-10.67-2.66-11.5-2.79-.83-.12-2.17-.48-3-.8-.83-.33-7.8-2.92-15.5-5.76-14.09-5.21-30.8-13-31.98-14.91-.35-.57-1.06-1.03-1.58-1.03-1.53 0-8.72 6.88-17.72 16.97-28.13 31.55-45.29 68.57-50.75 109.49-2.52 18.92-1.63 48.25 2 65.46 6.67 31.69 18.82 58.5 37.77 83.4 7.37 9.67 24.22 27.37 26.87 28.21 1.06.34 5.41-.5 9.66-1.87 10.11-3.25 15.79-3.86 24.47-2.63 12.6 1.79 22.26 6.02 30.34 13.28l4.99 4.49 6.96-2.35c3.84-1.3 9.24-2.64 12.01-2.99 10.32-1.3 24.73 3.2 32.18 10.06M168 617.46c6.88 3.57 12.57 6.5 12.66 6.51.09.02 1.25-1.88 2.57-4.22 3.07-5.43 101.76-177.66 134.23-234.25 17.59-30.64 24.42-43.41 23.79-44.43-.88-1.43-14.2-10.99-15.38-11.04-.34-.02-2.98 4.05-5.86 9.04-5.27 9.13-7.25 11.09-9.21 9.13-.74-.74.26-3.36 3.43-8.88.6-1.05 1.15-2 1.66-2.88 3.62-6.29 4.81-8.35 4.22-9.5-.37-.73-1.44-1.09-3.05-1.91-2.19-1.12-4.2-2.03-4.47-2.03s-1.39 2.02-2.49 4.5c-2.07 4.68-3.13 5.38-4.92 3.22-.76-.92-.51-2.49.9-5.65 1.08-2.4 1.84-4.43 1.69-4.52-1.91-1.06-6.18-2.55-7.3-2.55-1.55 0-2.98 2.94-6.5 13.38-1.64 4.85-2.72 6.62-4.02 6.62-2.95 0-2.83-2.06.69-11.87 1.85-5.15 3.36-9.69 3.36-10.09 0-.81-7.98-3.4-8.59-2.78-.22.21-1.01 2.16-1.75 4.32-.94 2.71-1.95 3.92-3.26 3.92-2.04 0-2.28-1.64-1.02-7.12.7-3.01.58-3.15-3.55-4.2-5-1.26-5.37-.93-6.28 5.74-1.01 7.34-2.83 15.13-3.64 15.63-.41.26-1.4-.18-2.19-.97-1.22-1.22-1.25-2.48-.19-8.26.68-3.75 1.54-8.51 1.9-10.57l.66-3.75H256v3.8c0 4.14-1.45 6.35-3.62 5.51-.91-.34-1.38-2.18-1.38-5.42V307h-9v10.38c0 7.22-.39 10.7-1.28 11.44-2.71 2.25-3.64-.34-3.93-10.86l-.29-10.46-4.83-.31-4.82-.31.32 5.31c.3 4.74.12 5.31-1.66 5.31-1.59 0-2.17-.96-2.86-4.75-.82-4.48-1.05-4.75-4.01-4.73-5.89.02-6.09.61-4.1 11.91 1.36 7.73 1.5 10.43.61 11.32-2.11 2.11-3.81-1.33-5.68-11.5-.98-5.36-2.28-9.75-2.88-9.74-.6 0-2.81.48-4.92 1.06-2.57.72-3.66 1.52-3.31 2.43 1.38 3.59 1.74 8.32.69 8.97-1.75 1.08-3.77-1.17-4.49-5.01-.36-1.9-1.24-3.46-1.96-3.46-1.08 0-7.57 1.91-8.33 2.46-.12.09 1.35 4.19 3.29 9.1 3.6 9.16 4.04 12.94 1.5 12.94-.88 0-2.95-3.76-5.36-9.75-2.16-5.36-4.34-9.75-4.84-9.75-.51 0-2.53.67-4.5 1.49-2.8 1.17-3.42 1.88-2.85 3.25 2.41 5.78 2.76 7.13 2.19 8.6-.98 2.56-3.64.84-5.37-3.47-.85-2.13-1.93-3.87-2.4-3.87-1.49 0-7.93 3.34-7.93 4.11 0 .41 2.3 4.59 5.11 9.29 4.88 8.17 5.66 11.6 2.62 11.6-.73 0-3.45-3.49-6.04-7.75s-5.1-8.36-5.57-9.1c-.69-1.08-1.69-.8-4.97 1.37l-4.1 2.72 3.08 4.3c4.75 6.61 1.37 9.43-3.56 2.96-1.47-1.92-3.09-3.5-3.61-3.5-.51 0-2.37 1.28-4.12 2.85l-3.19 2.86 4.89 5.39c.91 1.01 1.74 1.92 2.49 2.75 5.78 6.36 7.09 7.8 6.78 8.68-.13.37-.55.64-1.05 1.14-1.53 1.53-1.89 1.4-4.97-1.76-1.83-1.88-5.24-5.62-7.58-8.33l-4.26-4.92-3.48 3.37-3.48 3.37 3.64 3.73c2.31 2.37 3.42 4.3 3.04 5.3-.88 2.28-2.16 1.96-6.2-1.59l-3.61-3.17-3.5 3.5-3.5 3.5 8.57 6.22c5.68 4.13 8.57 6.88 8.57 8.17 0 3.17-2.66 2.27-10.62-3.62-4.14-3.06-8.19-5.42-9-5.25s-2.38 1.75-3.49 3.5l-2.02 3.2 4.07 2.69c6.48 4.29 4.54 8.51-2.07 4.48-1.85-1.13-3.84-2.05-4.4-2.06-1.13 0-4.47 5.15-4.47 6.89 0 .6 4.05 3.12 9 5.61 6.67 3.35 9 5.02 9 6.45 0 1.06-.36 2.16-.81 2.43-.44.28-4.61-1.48-9.25-3.9s-9.16-4.42-10.04-4.44c-.95-.02-2.23 1.56-3.15 3.91l-1.55 3.96 4.43 1.69c5.1 1.95 6 2.94 4.4 4.86-.97 1.17-1.84 1.14-5.67-.16-4.98-1.7-5.55-1.41-7.24 3.63l-.07.22c-.45 1.35-.74 2.23-.5 2.92.45 1.31 2.84 1.95 9.71 3.89 8.57 2.41 11.45 4.08 10.3 5.94-1.03 1.68-4.31 1.31-12.85-1.41-4.28-1.37-8.2-2.49-8.71-2.49-1.11 0-3.31 7.68-2.56 8.91.3.47 2.59 1.17 5.11 1.54 3.96.6 4.53.98 4.26 2.87-.33 2.32-1.73 2.58-7.55 1.39-3.44-.7-3.89-.08-4.52 6.24-.23 2.38.08 2.5 10.26 4 9.32 1.38 10.5 1.78 10.5 3.55 0 1.84-.52 1.96-6.5 1.55-3.57-.25-8.53-.48-11-.5l-4.5-.05-.3 4.12c-.33 4.45.83 5.34 6.99 5.37 3.28.01 4.43 1.56 2.7 3.64-.96 1.16-2.33 1.38-5.58.89l-4.31-.64v10.34l10.88-.71c8.02-.53 11.07-.4 11.62.48 1.57 2.55-2.03 3.9-12.25 4.6-6.42.44-9.01.53-9.78 1.77-.52.83-.23 2.16.26 4.45.05.21.09.42.14.64.61 2.87.79 2.95 5.88 2.68 4.65-.25 5.25-.05 5.25 1.69 0 2.31-1.83 3.18-6.67 3.18h-3.51l.7 4.25c.37 2.34 1.03 4.61 1.44 5.06.42.44 4.38-.12 8.81-1.25 10.39-2.65 13.23-2.68 13.23-.1v.09c0 .37 0 .67-.09.93-.41 1.14-2.55 1.67-13.91 4.55-3.57.91-6.64 1.79-6.82 1.96-.17.17.24 2.19.93 4.48 1.11 3.71 1.51 4.09 3.68 3.55 7.01-1.76 8.18-1.77 8.84-.04.77 2.01-.62 3.1-5.82 4.54l-3.7 1.03 1.66 4.47c.91 2.47 2.07 4.48 2.56 4.48s4.99-1.81 9.98-4.03c9.14-4.06 11.69-4.37 11.69-1.45 0 1.49-2.25 2.71-15.79 8.58l-4.28 1.86 1.66 3.27c2.88 5.66 3.19 5.83 6.94 3.62 1.87-1.11 4.21-1.85 5.19-1.67 2.97.58 2 3.13-2.05 5.4-2.1 1.18-3.9 2.42-4 2.76-.09.34.91 2.37 2.23 4.51l2.41 3.89 9.05-6.39c4.98-3.51 9.52-6.22 10.1-6.03.57.19 1.04 1.2 1.04 2.25 0 1.72-2.59 3.8-15.98 12.86-1.99 1.34-1.98 1.41.92 4.47 3.42 3.61 4.2 3.73 7.56 1.1 1.38-1.08 3.26-1.97 4.19-1.98 3.29-.04 2.99 2.21-.79 6.08l-3.83 3.93 3.21 3.21 3.22 3.22 7.91-7.87c5.44-5.41 8.41-7.68 9.5-7.26.88.33 1.59 1 1.59 1.47 0 .48-3.45 4.58-7.66 9.11l-7.65 8.24 3.14 3.14 3.14 3.14 3.81-3.71c2.09-2.05 4.35-3.72 5.01-3.72 1.98 0 1.38 3.09-1.29 6.59-1.38 1.8-2.5 3.73-2.5 4.28 0 1.07 5.26 5.13 6.65 5.13.47 0 3.05-3.36 5.73-7.46 5.48-8.39 8-11.04 9.56-10.08 1.93 1.2 1.12 3.14-5.07 12.07l-6.14 8.85 2.89 2.3c1.58 1.26 8.5 5.22 15.38 8.78m317.64-141.03c4.9.76 17.13 1.42 27.4 1.47l18.54.1 4.96-5.1c5.91-6.08 10.58-8.3 22.07-10.45 4.72-.88 10.45-2.27 12.74-3.08 15.34-5.46 20.58-5.77 29.76-1.77 3.4 1.49 3.84 1.46 7.5-.49 5.74-3.05 7.76-5.07 12.68-12.71 13.01-20.17 18.19-37.17 19.33-63.4.65-15.06-.74-25.93-5.07-39.64-4.49-14.24-5.35-15.41-12.66-17.36-3.51-.94-12.01-3.37-18.89-5.4-14.15-4.19-38.36-9.28-47.83-10.06-3.49-.29-6.69-.75-7.13-1.02-1.51-.93-24.58-1.89-41.37-1.72-32.99.34-60.05 4.83-99.55 16.55-10.53 3.13-11.49 3.61-12.71 6.53-.73 1.74-1.32 3.26-1.3 3.39.02.27-.91 3.15-2.19 6.73-4.91 13.79-7.21 38.66-4.99 54.1 2.54 17.67 9.58 36.72 18.64 50.4 5.14 7.78 6.55 8.9 16.98 13.47 22.23 9.75 44.16 16.51 63.09 19.46M218.61 892.75l-.56 3.25h295.98c281.21 0 295.97-.09 295.96-1.75-.02-1.93-2.51-9.48-4.12-12.49-1.97-3.69-6.65-8.77-14.39-15.64-2.97-2.65-12.12-6.46-13.47-5.62-.48.29-1.12.13-1.42-.36s-2.6-.93-5.11-.98c-5.88-.12-9.52-2.36-11.83-7.28-2.1-4.5-11.89-14.88-14.02-14.88-.78 0-1.67-.65-1.97-1.44-.3-.8-3.62-2.41-7.36-3.59-6.28-1.97-10.97-2.58-22-2.86-3.9-.1-4.44-.47-7.71-5.36-3.12-4.65-6.67-8.65-11.64-13.1-2.07-1.86-6.84-4.22-10.08-5-2.34-.56-3.31.21-9 7.09-3.5 4.25-7.7 8.92-9.34 10.38-3.61 3.24-2.69 4.93 3.71 6.81 10.08 2.96 21.76 13.52 21.76 19.68 0 2.25-.62 3.65-1.93 4.35-2.72 1.46-4.3.58-8.96-4.95-2.59-3.06-6.35-5.98-10.26-7.93-5.47-2.73-7.14-3.08-14.76-3.06-6.81.02-9.83.54-14.59 2.5-3.3 1.36-6.34 2.47-6.76 2.48-.42 0-3.5-2.52-6.85-5.6-8.74-8.04-13.32-9.89-24.39-9.89-7.9.01-9.65.35-14.28 2.78-6.78 3.56-12.49 9.47-15.69 16.23-2.84 6.02-4.32 6.82-10.03 5.47-12.36-2.92-36.22.23-48.79 6.44-3.97 1.96-7.69 3.57-8.25 3.57-.57 0-3.41-2.41-6.32-5.36-6.35-6.42-11.94-9.4-20.18-10.72-7.61-1.23-15.35.06-22.96 3.81-3.02 1.49-6.16 2.57-6.97 2.4-.82-.18-4.21-2.87-7.54-5.98-9.83-9.17-19.73-13.1-32.99-13.1-14.02 0-25.44 4.73-35.27 14.61-3.47 3.49-6.56 6.34-6.87 6.34-.3 0-3.06-.73-6.13-1.62-8.5-2.47-16.77-1.46-25.88 3.16-6.37 3.24-7.74 3.6-9.87 2.63-2.49-1.13-3.28-4.36-1.7-6.85 1.63-2.56 12.43-8.09 18.2-9.32 3.85-.81 9.12-1.07 14.31-.69l8.21.59 4.33-3.9 4.32-3.91-10.35-10.79c-5.7-5.94-11.36-12.1-12.58-13.69-2.13-2.76-2.47-2.86-7.97-2.23-13.44 1.54-22.45 7.54-28.49 18.95l-3.26 6.17-9 .53c-6.82.4-10.37 1.16-14.68 3.16-7.36 3.41-13.95 9.56-16.89 15.75-2.8 5.9-4.36 6.77-13.13 7.37-8.96.6-18.12 4.94-25.7 12.17-5.95 5.68-11.4 14.96-12.49 21.27M176.06 552c-8.57 14.88-8.97 14.97-19.8 4.63-18.45-17.64-30.86-41.47-34.93-67.11-2.31-14.56-1.38-36.6 2.12-50.02 3.56-13.7 13.46-33.6 21.95-44.14 20.91-25.94 47.78-41.39 79.1-45.46 17.46-2.27 42.31.35 56.72 5.97 3.8 1.48 4.66 5.54 2.13 10.09-1.08 1.95-9.09 15.92-17.81 31.04-8.71 15.12-21.8 37.85-29.09 50.5-13.49 23.43-21.01 36.45-34.95 60.5-12.43 21.45-18.35 31.68-25.44 44m-16.61-6.25c2.61 2.89 5.07 5.25 5.48 5.25s1.21-1.01 1.78-2.25 9.17-16.37 19.11-33.62l18.08-31.37-2.91-3.63c-6.78-8.45-7.91-19.97-2.93-29.92 5.11-10.24 15.4-15.78 27.95-15.05l5.87.34 20.47-35.75c11.26-19.66 20.17-35.92 19.81-36.14-.36-.21-4.26-1.22-8.66-2.25-6.21-1.44-11.7-1.84-24.5-1.77-14.52.07-17.7.4-26.5 2.74-20.72 5.51-41.51 18.55-55.46 34.78-16.82 19.56-25.76 42.26-26.75 67.89-.58 14.99.36 23.13 4.25 36.54 4.54 15.68 13.46 31.51 24.91 44.21m762.75 40.03c.75 1.23 1.22 2.08 1.94 2.44 1.47.75 3.99-.55 12.13-4.77l.97-.5c11.68-6.04 12.42-7.42 8.41-15.6l-2.64-5.38-3.76 1.64c-2.06.9-4.76 1.86-6 2.13s-2.25.79-2.25 1.16-1.46 1.52-3.25 2.56c-1.79 1.03-3.57 2.41-3.96 3.05s-1.73 1.09-2.98.99c-2-.14-2.27-.7-2.26-4.58l.01-4.42 5.27.35c4.47.29 5.6-.01 7.52-2 1.24-1.29 3.54-3.27 5.11-4.39 2.38-1.7 2.75-2.5 2.17-4.79-.93-3.69-2.96-4.27-7.63-2.17-7.57 3.41-9.91-1.11-2.45-4.74 4.03-1.95 4.48-2.5 3.94-4.73-.34-1.39-1.26-3.18-2.05-3.98-1.24-1.27-1.98-1.19-5.83.68-3.88 1.89-4.62 1.97-6.26.71-2.03-1.58-1.83-1.85 5.1-6.74 3.02-2.12 3.19-3.69.74-6.71l-1.8-2.23-4.14 2.11c-2.27 1.16-4.84 1.84-5.69 1.51-2.19-.84-1.95-4.12.36-4.85 6.25-1.99 8.06-6.43 4.08-10.03-1.68-1.52-2.11-1.48-6.03.52-3.74 1.91-4.4 1.98-5.72.66-1.92-1.92-1.04-3.24 3.82-5.71 4.46-2.28 4.8-3.6 1.87-7.32l-2.07-2.63-4.03 2.06c-2.22 1.13-4.67 1.82-5.44 1.52-2.63-1.01-1.46-4.07 2.34-6.1 4.28-2.29 5.1-4.57 2.85-8l-1.57-2.4-5.06 2.1c-3.63 1.52-5.36 1.8-6.14 1.02-1.69-1.69-.23-4.02 3.51-5.59 4.53-1.89 5.06-2.98 3.19-6.6-1.8-3.46-3.07-3.69-7.9-1.39-6.76 3.23-9.35-1.21-2.69-4.61 2.16-1.1 4.21-2.44 4.54-2.99.56-.89-1.99-7.04-2.91-7.04-.22 0-2.34.83-4.73 1.84-4.91 2.1-6.83 1.84-6.83-.9 0-1.21 1.46-2.64 4-3.94 4.45-2.27 5.05-4.48 2.19-8.01l-1.8-2.23-4.14 2.11c-2.27 1.16-4.84 1.84-5.69 1.51-2.19-.84-1.95-4.12.36-4.85 1.05-.34 3.06-1.51 4.45-2.61 2.65-2.08 2.62-3.91-.11-7.1-1.34-1.56-1.75-1.54-6.07.31-4.34 1.86-4.71 1.88-5.88.28-1.6-2.19-1.04-3 3.76-5.44 4.31-2.21 4.87-4.2 2.16-7.68l-1.73-2.22-4.36 1.97c-2.4 1.08-4.81 1.96-5.36 1.96-.54 0-1.88 1.12-2.96 2.5-1.41 1.8-2.93 2.5-5.39 2.5-2.38 0-3.43.46-3.43 1.5 0 2.75-1.94 1.54-4-2.5l-2.04-4h2.47c1.36 0 3.59.51 4.96 1.13s3.3.82 4.3.43c1.68-.66 1.65-.84-.44-2.54-1.24-1.01-2.25-2.11-2.25-2.43 0-1.05 3.57-.62 4.77.58.89.89 1.31.8 1.76-.38.32-.85 2.36-2.34 4.53-3.32 4.28-1.93 5.05-4.42 2.44-7.87-1.39-1.83-1.59-1.84-6-.15-7.77 2.97-10.77-.74-3.57-4.42 5.09-2.59 5.47-3.35 3.56-7.05-1.7-3.28-2.82-3.34-8.61-.4-2.21 1.13-2.91 1.11-4.5-.12-2.07-1.61-1.88-1.85 5.07-6.76 3.01-2.12 3.14-3.38.69-6.56l-1.81-2.35-4.18 2.13c-3.21 1.64-4.63 1.89-6.13 1.09-2.65-1.42-1.75-3.01 3.49-6.2 4.23-2.57 4.38-2.83 3.39-5.67-1.4-4.02-3.27-4.5-8.03-2.07-3.16 1.61-4.33 1.79-5.45.87-2.19-1.82-1.78-2.54 3.08-5.39 4.89-2.87 5.06-3.22 3.34-7-1.36-2.98-3.42-3.19-8.32-.86-2.62 1.25-3.83 1.4-4.66.57-1.77-1.77-.31-3.99 4.09-6.24 2.23-1.13 4.05-2.3 4.05-2.59 0-1.4-3.17-6.43-4.06-6.43-.55 0-2.62.67-4.59 1.5-5 2.09-7.35 1.93-7.35-.48 0-1.3 1.36-2.67 3.93-3.99 5.09-2.59 5.47-3.35 3.56-7.05-1.71-3.31-2.81-3.35-8.86-.26-2.58 1.31-3.05 1.29-4.5-.19-1.77-1.8-1.73-1.85 5.32-6.83 3.02-2.12 3.19-3.69.75-6.7l-1.8-2.23-4.73 2.15c-2.61 1.19-5.17 1.89-5.7 1.56-1.68-1.04-1.05-4.32.95-4.95 1.05-.34 3.05-1.51 4.44-2.6 2.2-1.73 2.39-2.34 1.51-4.87-1.35-3.89-2.77-4.23-7.9-1.93-7.5 3.35-9.91-.25-3.05-4.58 4.97-3.14 5.36-3.83 3.93-6.98-1.37-3-3.42-3.22-8.34-.88-3.29 1.57-3.67 1.58-5.19.06-1.51-1.51-1.29-1.84 2.99-4.44 2.72-1.65 4.64-3.56 4.66-4.63.04-2.54-1.79-5.68-3.33-5.68-.71 0-5.45 2.02-10.53 4.5-9.61 4.68-11.55 5.21-12.64 3.46-1.05-1.71.95-3.3 10.46-8.31 4.96-2.62 9.28-5.19 9.61-5.71.32-.52-.64-3.19-2.14-5.94-3.58-6.59-5.37-6.54-19.48.54l-11.04 5.54 12.7 24.71c6.99 13.59 17.98 34.83 24.42 47.21 6.45 12.38 17.86 34.27 25.36 48.67 7.5 14.39 13.64 26.54 13.65 27 0 .45 2.07 4.43 4.59 8.83 4.41 7.67 19.82 37 31.4 59.72 3.03 5.94 13.57 26.21 23.43 45.04s19.24 36.94 20.85 40.24 3.82 7.48 4.92 9.28M605 248.85c3.58 1.07 6.64 1.81 6.81 1.65.55-.51-4.52-11.81-8.3-18.5-15.1-26.76-39.6-46.54-66.91-54.04-40.49-11.1-84.87 7.45-110.11 46.04-4.93 7.53-13.89 24.93-13.2 25.63.26.26 7.17-1.34 15.34-3.55 47.37-12.81 89.19-15.15 134.36-7.52 14.98 2.53 30.01 5.87 33.51 7.45 1.1.49 4.92 1.77 8.5 2.84m269.74 364.06c.97.57 2.21 1.04 2.76 1.05 1.83.03 15.6-8.07 16.15-9.5.49-1.26-21.04-43.36-76.43-149.46-9.61-18.42-27.38-52.62-39.47-76-31.3-60.51-44.85-86.38-45.73-87.32-1.24-1.34-16.95 7.06-18.15 9.7-.85 1.88-.57 3.29 1.52 7.4 1.41 2.79 3.02 5.35 3.56 5.69.54.33 2.78-.31 4.98-1.43 2.19-1.12 4.94-2.04 6.1-2.04 3.65 0 1.84 3.3-3.28 6-2.61 1.38-4.75 3.07-4.75 3.76s4.33 9.46 9.62 19.5c5.29 10.03 10.01 18.99 10.49 19.91.73 1.4 1.34 1.49 3.87.53 2.32-.88 3.27-.84 4.26.16 1.02 1.04.69 1.75-1.72 3.68l-2.97 2.4 3.6 6.78c1.98 3.73 6.57 12.4 10.21 19.28 5.88 11.12 7.36 14.47 9.23 14.71.77.1 1.61-.32 2.85-.94.42-.22.89-.46 1.42-.7 8.73-4.09 11.7.09 3.14 4.43-2.75 1.39-5 3.2-5 4.01 0 1.28 11.57 23.75 18.62 36.16 2.28 4.01 2.47 4.12 5.36 3.03 2.32-.87 3.28-.84 4.26.16 1.02 1.03.73 1.74-1.49 3.66-3.07 2.66-3.37 4.12-1.42 7.01.73 1.08 5.06 9.17 9.61 17.97s8.84 16.6 9.54 17.34c1.05 1.11 1.95.98 5.35-.75 5.27-2.69 8.17-2.73 8.17-.11 0 1.38-1.53 2.76-5 4.52-2.75 1.39-5 3.04-5 3.66 0 1.04 2.84 6.59 16.15 31.5l4.89 9.15 2.96-1.12c2.3-.86 3.26-.83 4.24.17 1.02 1.03.69 1.77-1.7 3.84l-2.96 2.57 9.85 19.11c5.41 10.52 10.45 19.78 11.2 20.58 1.19 1.27 2.09 1.11 7.01-1.31 3.73-1.83 5.98-2.43 6.63-1.78 1.61 1.61.1 3.9-3.97 6.05-3.51 1.85-5.2 2.65-5.58 3.86-.33 1.07.38 2.47 1.78 5.23.13.26.26.52.4.79 1.69 3.35 3.86 6.55 4.84 7.11m19.7-31.68 9.7 18.73 4.93-2.5c2.71-1.37 4.93-2.95 4.93-3.51s-2.42-5.62-5.38-11.23c-2.96-5.62-11.57-22.14-19.14-36.72s-16.11-31-18.99-36.5c-2.87-5.5-8.84-16.98-13.25-25.5s-25.56-49.25-46.99-90.5-43.38-83.55-48.77-94-9.91-19.14-10.04-19.32c-.37-.49-10.44 4.77-10.44 5.46 0 .33 10.08 20.01 22.4 43.73 12.31 23.72 28.11 54.15 35.11 67.63 6.99 13.48 14.86 28.55 17.49 33.5 2.62 4.95 14.55 27.9 26.5 51 11.94 23.1 23.86 46.05 26.48 51 7.81 14.78 15.2 28.92 25.46 48.73M519.35 410.66c-5.16 3.12-9.89 2.94-30.85-1.2-9.35-1.84-26.9-5.27-39-7.61-19.98-3.87-22.26-4.52-24.87-7.1-2.37-2.35-2.76-3.38-2.24-6.04.34-1.77 1.45-3.9 2.46-4.75 1.81-1.51 76.64-21.68 84.18-22.69 2.12-.28 5.01-.23 6.43.13 3.62.91 10.29 7.19 12.77 12.03 2.51 4.9 3.48 16.27 1.88 22.16-1.56 5.78-6.24 12.33-10.76 15.07m48.98 270.09c-.54 2.21-.38 2.25 8.51 2.25 12.3 0 29.04-2.35 44.59-6.25 12.22-3.07 12.97-3.4 13.68-6.06 1.17-4.39 2.28-37.33 1.28-37.92-.49-.29-6.02.77-12.28 2.36-14.06 3.55-31.22 5.87-43.5 5.87h-9.29l-1.22 18.75c-.67 10.31-1.46 19.76-1.77 21m3.84-50.25c.78 1.21 24.1.23 34.33-1.45 8.65-1.42 21.79-4.73 26.32-6.62l3.39-1.42-.69-9.25c-.8-10.81-3.11-29.68-3.69-30.26-.22-.23-3.31.65-6.87 1.94-12.11 4.39-36.79 8.51-51.32 8.55l-2.86.01.38 18.75c.2 10.31.65 19.2 1.01 19.75m-8.61-93.12 1.86 9.89 8.56-.61c9.82-.69 29.63-5.43 41.18-9.84l7.89-3.02-.67-3.65c-1.32-7.08-10-33.65-10.93-33.44-.52.12-4.1 1.51-7.95 3.1-8.4 3.47-24.9 7.87-32.5 8.69-3.03.32-7.35.81-9.6 1.08l-4.11.5 2.21 8.71c1.21 4.79 3.04 13.16 4.06 18.59m-73.31 8.9c1.79.22 10.79.47 20 .56L527 547l-.03-15.75c-.02-14.4-1.03-30.28-2.5-39.32l-.58-3.57-29.6-.3-.69 12.47c-.67 11.9-2.38 25.16-4.66 35.97-.58 2.75-1.26 5.98-1.5 7.19-.37 1.83.07 2.25 2.81 2.59m-6.59-381.27c2.11 2.5 3.2 3.05 5.25 2.61 14.17-3.04 35.04-3.31 45.5-.58 4.91 1.28 4.92 1.28 7.75-1.9 4.16-4.65 3.93-9.69-.66-14.71-2.81-3.07-3.5-4.63-3.5-7.94 0-3.76-2.52-8.29-4.79-8.58-.39-.05-2.8-.18-5.35-.28-3.81-.15-5.17-.75-7.65-3.4-4.24-4.54-9.68-4.55-14.09-.04-2.7 2.76-3.71 3.15-7.65 2.95-3.85-.2-4.97.21-7.5 2.74-2.27 2.27-2.97 3.88-2.97 6.85 0 3.04-.76 4.71-3.5 7.7-4.5 4.91-4.78 9.89-.84 14.58M496.12 294c.52 1.25 3.35 1.5 16.73 1.5h16.1l.78-4.5c.99-5.77.71-34.96-.4-41.5l-.85-5-15.68-.28-15.67-.27-.81 4.77c-.96 5.57-1.11 43.07-.2 45.28m110.35 284.54c6.04-1.4 14.01-3.7 17.71-5.11 6.64-2.54 6.73-2.62 6.18-5.75-1.48-8.34-4.53-23.18-4.82-23.47-.18-.18-5.66 1.48-12.18 3.68-12.53 4.24-28.4 7.82-39.16 8.82l-6.46.6.66 9.1c.36 5 .93 10.62 1.27 12.48l.61 3.4 12.61-.61c7.91-.38 16.7-1.56 23.58-3.14M429 533.72c6.88 2.35 12.99 4.27 13.59 4.27 2.53.02 8.97-26.18 10.44-42.48.14-1.51.27-2.89.39-4.13.63-6.47.91-9.39-.38-11.2-1.31-1.83-4.25-2.5-10.13-4.55-7.33-2.56-11.41-3.53-12.07-2.87-.54.54-1.45 4.31-2.02 8.36-2.32 16.71-3.86 23.08-7.87 32.49-2.31 5.44-4.26 11.23-4.33 12.87-.12 2.94.04 3.04 12.38 7.24m27.52-234.69c.4.65 1.87.92 3.35.62 1.45-.3 7.88-1.1 14.29-1.8l11.66-1.26-.5-17.04c-.28-9.38-.11-20.96.38-25.73l.88-8.69-2.54.39c-1.4.21-7.86 1.14-14.36 2.05-14.01 1.98-13.13.88-14.89 18.52-1.16 11.6-.21 29.81 1.73 32.94m125.14 197.45c14.75-3.74 26.34-8.38 26.34-10.54 0-.99-1.69-5.08-3.75-9.08-6.46-12.56-11.8-14.25-27.81-8.84-4.92 1.67-12.95 3.76-17.85 4.66-6.84 1.25-9.61 2.26-11.94 4.34l-3.03 2.71 3.13 4.89c1.71 2.68 3.6 6.12 4.19 7.63.58 1.51 1.52 3.94 2.09 5.39l1.03 2.64 8.99-.68c4.94-.37 13.32-1.77 18.61-3.12M557.5 298.43l.86.13c7.35 1.2 9.48 1.54 10.33.66.38-.4.5-1.04.71-1.97 2.17-9.36 1.51-40.11-.99-46.64-.47-1.2-8-2.71-25.3-5.08l-4.39-.6.65 5.55c1.48 12.63 1.79 26.59.77 35.48-1.23 10.69-1.1 10.96 5.36 11.09 2.2.04 7.6.66 12 1.38m-139.54 2.32c.67 3.99 1.59 7.25 2.05 7.25s5.7-1.14 11.66-2.53c5.96-1.4 11.87-2.76 13.14-3.04 1.62-.35 2.15-1 1.77-2.21-1.59-5.07-2.42-25.09-1.49-35.82.56-6.4.8-11.84.54-12.1s-6 1.03-12.76 2.86l-12.29 3.34-1.37 4.5c-1.98 6.55-2.73 29-1.25 37.75m173.16 4.18c6.26 1.57 12.14 2.91 13.06 2.96 2.36.15 4.12-8.78 4.21-21.39.09-10.95-1.97-25.92-3.76-27.37-1.28-1.03-22.12-7.13-24.39-7.13-1.06 0-1.29.63-.81 2.25 1.43 4.82 1.86 31.67.63 39.29-.68 4.19-1.03 7.83-.78 8.07.25.25 5.58 1.74 11.84 3.32M477.89 541.25c3.58-13.9 6.09-33.03 6.1-46.45l.01-8.71-3.75-.64c-2.06-.36-6.39-1.3-9.61-2.1-3.22-.81-6.08-1.24-6.35-.98-.27.27-.9 5.81-1.41 12.31-1.26 16.17-2.38 21.89-8.03 41.04-.69 2.32-1.01 4.45-.72 4.74.54.54 18.06 4.22 21.08 4.42 1.18.08 2.01-1.05 2.68-3.63m29.57-143.47c-.05 5.18-.02 5.22 3.06 5.22 10.31 0 14.25-19.18 6.05-29.42-1.52-1.89-3.75-2.2-11.32-1.55-1.79.15-3.25.69-3.25 1.19s-.9.63-2 .28c-1.12-.36-2-.18-2 .4 0 .57-.67.78-1.5.46-.83-.31-1.56-.08-1.62.53-.07.61-.24 1.56-.38 2.11s-.31 2.61-.38 4.57c-.1 3.07-.42 3.52-2.31 3.25-1.51-.22-2.45-1.32-3.01-3.51-.89-3.42-4.47-5.46-5.81-3.29-.42.68-1.32.9-1.99.48s-1.55-.22-1.96.43c-.4.66-2.15 1.24-3.89 1.28-1.73.05-3.15.51-3.15 1.01s-.9.63-2 .28-2-.24-2 .23c0 .48-1.46.92-3.25.98s-4.6.82-6.25 1.69-4.04 1.59-5.31 1.59c-3.44.01-11.19 2.13-11.19 3.06 0 .45.79 1.06 1.75 1.35 1.92.59 27.33 5.59 28.43 5.6.38 0 .83-1.24 1-2.75.23-1.98.88-2.75 2.32-2.75 1.52 0 2.07.77 2.31 3.2.35 3.67.13 3.57 13.53 6.13l9.83 1.88.85-2.1c.46-1.16 1.11-3.38 1.45-4.93.42-1.96 1.12-2.71 2.32-2.47 1.36.27 1.7 1.41 1.67 5.57M400.5 522.55c2.75 1.22 5.29 2.06 5.64 1.85s.95-1.62 1.33-3.12c.38-1.51 2.45-6.9 4.62-11.98 2.44-5.74 4.34-12.19 5.01-17.02 1.31-9.47 3.5-21.23 4.33-23.3.45-1.13-1-2.22-5.66-4.25-13.05-5.68-16.67-2.74-17.75 14.42-.55 8.65-.94 10.16-3.81 14.5-6.19 9.39-7.57 13.2-6.31 17.43 1.34 4.44 5.65 8.37 12.6 11.47M535 444.03c-9.66 2.78-29.72 3.58-38.5 1.55-15.22-3.53-32.55-12.01-34.02-16.65-1.7-5.36 5.01-7.85 10.54-3.92 1.55 1.11 6.12 3.57 10.15 5.48 20.84 9.87 48.19 8.21 66.44-4.03 9-6.03 13.39-5.89 13.39.43 0 4.25-14.92 13.38-28 17.14m17.5 201.48c.55.18 2.62.37 4.6.41l3.6.08.54-13.25c.3-7.29.31-15.57.03-18.41l-.51-5.16-10.63-.81c-5.85-.44-11.05-.82-11.57-.84-.8-.03-3.93 15.24-6.17 30.04l-.61 4.07 9.86 1.77c5.42.98 10.31 1.92 10.86 2.1m76.51-128.76c.61 2.44 1.66 4.25 2.45 4.25 2.33 0 7.53-5.03 9.15-8.87 2.1-4.96 1.29-8.67-3.5-16.07-4.31-6.67-4.66-7.95-5.68-20.56-1.16-14.35-4.43-16.9-15.02-11.68l-6.3 3.11 4.85 10.3c4.44 9.4 11.39 28.96 14.05 39.52m-7.83-203.6c7.46 2.32 8.6 2.22 11.81-.99 3.5-3.5 4.45-8.91 3.79-21.54-.49-9.32-2.81-16.74-6.57-20.98-1.34-1.52-11.06-6.64-12.6-6.64-.18 0-.11 7.31.16 16.25.32 10.46.06 18.83-.73 23.49-.67 3.97-1.21 7.57-1.2 8 .01.42 2.41 1.5 5.34 2.41m-226.88.84c1.21.48 2.46.91 2.77.95 1.08.12 11.43-3.12 12.07-3.78.35-.36.03-4.04-.71-8.16-1.51-8.38-1.79-27.2-.51-33.83 1.05-5.39.03-5.93-6.12-3.3-10.46 4.49-13.48 11.86-13.17 32.2.14 9.42 1.92 14.41 5.67 15.92m142.31 211.34.71 20.83 3.09-.54c1.7-.3 5.45-.85 8.34-1.21 2.27-.29 3.73-.47 4.5-1.3 1.39-1.48.57-5.03-1.72-14.98l-.02-.07c-5.38-23.37-12.69-41.06-16.97-41.06-.86 0-.83 2.21.11 8.75.69 4.81 1.57 18.12 1.96 29.58m31.66-165.15c-4.94 2.92-9.34 3.11-13.68.59-5.76-3.35-7.97-6.86-7.97-12.65 0-5.63 1.99-9.27 6.68-12.22 4.46-2.8 12.66-2.2 16.34 1.18 2.93 2.71 5.36 7.72 5.36 11.07 0 3.59-3.73 10.26-6.73 12.03m-98.54.86c-5.41 2.45-6.39 2.43-11.69-.29-5.75-2.95-8.31-7.58-7.75-14.03.64-7.31 6.68-12.72 14.21-12.72 14.77 0 18.81 20.87 5.23 27.04M545 598.26c2.47.22 7.13.47 10.35.57l5.85.17-.58-5.75c-.32-3.16-.86-9.63-1.21-14.36-.34-4.74-.95-9.15-1.35-9.8-.49-.79-3.35-1.08-8.64-.88l-7.92.29-1.2 14c-.66 7.7-.88 14.31-.5 14.69.39.37 2.73.86 5.2 1.07m-258-98.51c3.58 2.27 7.01 4.16 7.64 4.19.68.04-.6-5.73-3.27-14.69-2.42-8.11-4.89-16.66-5.5-19S284.42 466 284 466s-3.72 5.19-7.33 11.54l-6.57 11.55 5.2 3.26c2.86 1.8 8.12 5.13 11.7 7.4m270.52 61.5c-.4-3.71-.87-6.91-1.06-7.11-.19-.19-3.52-.04-7.4.35l-7.06.71V568h16.23ZM254.8 473.8c-3.88 3.88-16.8-2.87-16.8-8.78 0-2.39 3.19-5.02 6.08-5.02 2.68.01 8.72 3.28 10.67 5.78 1.59 2.03 1.61 6.46.05 8.02m-7.33 12.23c-.98 1.08-2.8 1.97-4.05 1.97-2.29 0-5.42-2.35-5.42-4.07 0-.51-1.04-.93-2.3-.93-4.76 0-6.36-5.34-2.7-9 2.68-2.68 5.8-2.54 7.1.32.81 1.78 1.68 2.22 3.78 1.91 4.96-.73 7.31 5.69 3.59 9.8m-41.33-11.36c.61.73 1.39 1.32 1.73 1.31.8-.02 8.13-12.51 8.13-13.84 0-.55-2.54-2.45-5.65-4.22-5.4-3.09-5.71-3.15-7-1.39-2.56 3.5-1.01 13.56 2.79 18.14m7.06-20.8c2.91 1.7 5.54 3.1 5.84 3.11.55.02 7.96-12.47 7.96-13.44 0-.3-2.36-.53-5.25-.52-5.75.01-13 3.3-13.54 6.14-.21 1.06 1.53 2.69 4.99 4.71m28.52 41.46c-.64 1.93-2.99 1.64-7.22-.9-4.69-2.81-5.5-2.95-5.5-.93 0 1.56-1.56 2.06-2.31.75-.23-.41-.73-2.44-1.1-4.5-.56-3.07-.39-3.75.94-3.75 2.56 0 15.63 8.02 15.19 9.33m648.09 2.66c-1.27.54-3.23 1.66-4.36 2.49-1.82 1.33-2.29 1.32-4.25-.05-2.42-1.7-3.25-7.95-.95-7.18.69.23 1.26 1.06 1.28 1.84.01.77.39 1.99.84 2.71 1.07 1.72 3.96-.51 3.2-2.47-.38-1 .12-1.19 1.96-.73 2.94.74 3.36-1.17.72-3.27-1.61-1.27-1.54-1.37.75-1.11 2.02.23 2.56.91 2.81 3.53.25 2.61-.14 3.45-2 4.24M466 346c1.1 1.1 2.3 2 2.67 2 1.45 0 4.33-3.41 4.33-5.12 0-3.54-6.07-4.61-8.23-1.45-1.14 1.65-.93 2.41 1.23 4.57m97.15.4c2.99 2.09 5.85.45 5.85-3.37 0-3.36-2.75-4.77-5.96-3.05-2.66 1.42-2.6 4.51.11 6.42M249.8 456.8c-1.45 1.45-2.72 1.48-5.05.12-2.55-1.49-2.16-4.77.72-6.09 4.15-1.89 7.53 2.77 4.33 5.97m564.23-102.32c-2.73 1.39-5.43 2.52-6 2.52-2.11 0-.92-1.87 2.45-3.86 2.52-1.48 3.31-2.52 2.85-3.73-.47-1.21-.25-1.5.76-1.05.78.35 2.2.92 3.16 1.26 2.84 1 2.05 2.19-3.22 4.86M247.5 469.78c4.55 2.34 6.87 1.4 4.1-1.67-2.32-2.56-7.46-4.65-8.61-3.5-1.33 1.33 0 2.86 4.51 5.17m-5.29 14.03c.94.94 1.51.9 2.62-.21 1.72-1.72.74-3.6-1.89-3.6-2.18 0-2.56 1.98-.73 3.81M245.5 455c1.09 1.76 3.5 1.07 3.5-1 0-1.1-.65-2-1.44-2-1.77 0-2.9 1.65-2.06 3m-10.81 24.35c1.07 1.08 2.78.16 3.13-1.68.22-1.13-.35-1.67-1.75-1.67-2 0-2.8 1.94-1.38 3.35"/><path fill="#777876" d="M605 248.85c-3.58-1.07-7.4-2.35-8.5-2.84-3.5-1.58-18.53-4.92-33.51-7.45-5.63-.95-11.2-1.75-16.75-2.39 13.64 1.5 27.37 3.92 41.26 7.25 5.5 1.32 12.11 2.68 14.69 3.04 4.13.57 4.82.39 5.84-1.52.71-1.32.71-2.42-.53-5.2 2.56 5.34 4.67 10.43 4.31 10.76-.17.16-3.23-.58-6.81-1.65m-.33-14.74c-5.73-10.53-14.31-21.62-23.28-30.45 8.59 8.11 16.1 17.67 22.12 28.34.38.66.76 1.37 1.16 2.11m-180.16 13.06c.72-.2 1.49-.42 2.3-.65 14.32-4.01 28.5-7.04 42.62-9.07-13.27 1.97-26.79 4.84-40.8 8.63-1.42.38-2.81.75-4.12 1.09m134.18-60.16c-7.3-3.86-15.41-7.21-22.09-9.05 7.63 2.1 15.04 5.15 22.09 9.05M426.49 224c-1.95 2.97-5.28 8.91-8.15 14.31 2.66-5.12 5.85-10.79 8.15-14.31"/><path fill="#70c534" d="M572.17 630.5c-.36-.55-.81-9.44-1.01-19.75l-.38-18.75 2.86-.01c14.53-.04 39.21-4.16 51.32-8.55 3.56-1.29 6.65-2.17 6.87-1.94.58.58 2.89 19.45 3.69 30.26l.69 9.25-3.39 1.42c-4.53 1.89-17.67 5.2-26.32 6.62-10.23 1.68-33.55 2.66-34.33 1.45M429 533.72c-12.34-4.2-12.5-4.3-12.38-7.24.07-1.64 2.02-7.43 4.33-12.87 4.01-9.41 5.55-15.78 7.87-32.49.57-4.05 1.48-7.82 2.02-8.36.66-.66 4.74.31 12.07 2.87 5.88 2.05 8.82 2.72 10.13 4.55 1.29 1.81 1.01 4.73.38 11.2-.12 1.24-.25 2.62-.39 4.13-1.47 16.3-7.91 42.5-10.44 42.48-.6 0-6.71-1.92-13.59-4.27m107.61-8.39c-.39-11.46-1.27-24.77-1.96-29.58-.94-6.54-.97-8.75-.11-8.75 4.28 0 11.59 17.69 16.97 41.06l.02.07c2.29 9.95 3.11 13.5 1.72 14.98-.77.83-2.23 1.01-4.5 1.3-2.89.36-6.64.91-8.34 1.21l-3.09.54Zm8.39 72.93c-2.47-.21-4.81-.7-5.2-1.07-.38-.38-.16-6.99.5-14.69l1.2-14 7.92-.29c5.29-.2 8.15.09 8.64.88.4.65 1.01 5.06 1.35 9.8.35 4.73.89 11.2 1.21 14.36l.58 5.75-5.85-.17c-3.22-.1-7.88-.35-10.35-.57"/><path fill="#7ec9e8" d="M168 617.46c-6.88-3.56-13.8-7.52-15.38-8.78l-2.89-2.3 6.14-8.85c6.19-8.93 7-10.87 5.07-12.07-1.56-.96-4.08 1.69-9.56 10.08-2.68 4.1-5.26 7.46-5.73 7.46-1.39 0-6.65-4.06-6.65-5.13 0-.55 1.12-2.48 2.5-4.28 2.67-3.5 3.27-6.59 1.29-6.59-.66 0-2.92 1.67-5.01 3.72l-3.81 3.71-3.14-3.14-3.14-3.14 7.65-8.24c4.21-4.53 7.66-8.63 7.66-9.11 0-.47-.71-1.14-1.59-1.47-1.09-.42-4.06 1.85-9.5 7.26l-7.91 7.87-3.22-3.22-3.21-3.21 3.83-3.93c3.78-3.87 4.08-6.12.79-6.08-.93.01-2.81.9-4.19 1.98-3.36 2.63-4.14 2.51-7.56-1.1-.15-.16-.3-.31-.43-.46.44.15.64-.35.84-1.63.19-1.27.86-2.95 1.5-3.73.44-.55.39-.71-.1-.5 11.02-7.51 13.25-9.42 13.25-11.01 0-1.05-.47-2.06-1.04-2.25-.58-.19-5.12 2.52-10.1 6.03l-4.68 3.3c2.4-1.76 3.35-2.48 3.26-2.66-.07-.13-.66.02-1.64.26-3.07.75-5.75-1.42-5.05-4.1.62-2.36.53-2.57-2.49-1.04l.91-.53c4.05-2.27 5.02-4.82 2.05-5.4-.98-.18-3.32.56-5.19 1.67-.12.07-.25.14-.36.21 1.32-.82 2.46-1.52 2.58-1.6.41-.22-1.95-6.88-2.75-7.78-.41-.45-2.39-.13-4.41.72l-1.68.7 2.3-1c13.54-5.87 15.79-7.09 15.79-8.58 0-2.92-2.55-2.61-11.69 1.45-1.72.76-3.39 1.48-4.85 2.09 1.81-.96 3.17-1.94 2.29-1.98-1.32-.06-1.75-.94-1.75-3.58 0-3.84-.51-4.04-6.19-2.46l-3.69 1.02-.01-.01 3.7-1.03c5.2-1.44 6.59-2.53 5.82-4.54-.51-1.34-1.33-1.64-4.94-.88l3.1-.78-.54-4.16c-.29-2.29-.66-4.32-.83-4.52-.18-.21-1.88.06-3.86.5.15-.04.29-.07.44-.11 11.36-2.88 13.5-3.41 13.91-4.55.09-.26.09-.56.09-.93v-.09c0-2.48-2.62-2.55-12.05-.2.69-.38.83-.88.55-1.62-.34-.88-.87-5.88-1.19-11.12l-.58-9.52-5.24.28c.83-.06 1.75-.12 2.76-.19 10.22-.7 13.82-2.05 12.25-4.6-.54-.86-3.49-1-11.21-.51 1.93-.58 2.29-1.79 2.28-4.29-.02-2.03.34-6.91.79-10.85l.83-7.16-3.73-.4c1.57.08 3.16.17 4.54.27 5.98.41 6.5.29 6.5-1.55 0-1.4-.73-1.94-5.58-2.78.03-.19.01-.55-.06-.97-.59-3.13 3.98-18.75 5.48-18.75.66 0 .71-.34.11-.91-.37-.35-2.65-1.23-5.37-2.17 7.53 2.33 10.5 2.56 11.48.98 1-1.62-1.05-3.09-7.22-5.03 3.04.7 3.66.26 3.66-1.24 0-.7 1.8-4.8 4-9.13s4-8.01 4-8.17-.92-.72-2.31-1.46c3.44 1.66 6.15 2.73 6.5 2.51.45-.27.81-1.37.81-2.43 0-1.3-1.95-2.81-7.36-5.61l4.86 2.44 4-6.14c2.2-3.38 4.79-7.01 5.75-8.08.96-1.06 1.75-2.42 1.75-3.01s-1.87-2.28-4.28-4.12c6.92 4.99 9.28 5.62 9.28 2.63 0-1.29-2.89-4.04-8.57-8.17l-2.85-2.07 2.09 1.52c4.3 3.11 8.08 5.55 8.39 5.41.32-.14 3.54-3.41 7.16-7.27l6.58-7.01-2.55-2.99c-.68-.79-1.71-1.98-2.83-3.28 1.64 1.82 3.28 3.6 4.37 4.71 3.08 3.16 3.44 3.29 4.97 1.76.5-.5.92-.77 1.05-1.14.24-.68-.49-1.7-3.51-5.07 1.43 1.55 2.41 2.54 2.53 2.54.22 0 2.48-1.7 5.03-3.79 2.55-2.08 6.26-4.85 8.24-6.16l3.6-2.38-2.38-3.85c2.02 3.01 3.83 5.18 4.41 5.18 3.04 0 2.26-3.43-2.62-11.6-.49-.82-.97-1.63-1.42-2.41.29.48.58.98.88 1.47 2.52 4.15 5.13 7.54 5.81 7.54s3.23-1.25 5.67-2.77c5.9-3.67 10.17-5.63 11.7-5.36.89.16.71-1.17-.64-4.58-.42-1.04-.8-2.01-1.16-2.91 2.31 5.62 4.26 9.12 5.11 9.12 2.26 0 2.16-2.99-.43-10.11.46 1.15.93 2.29 1.38 3.36.48 1.14.73 1.78 1.2 2.01.6.3 1.55-.12 3.78-1.1l.23-.1c1.8-.79 5.98-2.22 9.28-3.17s6.12-1.81 6.26-1.9c.14-.1.12-.75-.02-1.76 1.4 5.48 2.79 7.14 4.41 5.52.81-.81.76-3.11-.27-9.32.3 1.54.55 2.73.68 3.17.43 1.42 1.04 1.45 5.68.25 2.86-.74 7.59-1.35 10.52-1.35h5.32l-.01-.42c.48 5.78 1.51 7.01 3.65 5.24.89-.74 1.28-4.22 1.28-11.44V307v16.5l10.74-.12 10.62-.12c-.88 4.98-.79 6.17.36 7.32.79.79 1.78 1.23 2.19.97.73-.45 2.27-6.8 3.31-13.42-.12.98-.19 1.88-.2 2.57-.02 2.94.3 3.26 3.73 3.83 2.06.34 6.45 1.44 9.75 2.44s6.25 1.87 6.57 1.92c.27.06 1.71-3.35 2.96-6.7-.43 1.23-.9 2.56-1.39 3.94-3.52 9.81-3.64 11.87-.69 11.87 1.3 0 2.38-1.77 4.02-6.62 1.04-3.09 1.9-5.52 2.63-7.41l-.08.2c-1.76 4.75-1.48 6.83.94 6.83.74 0 4.88 1.53 9.19 3.4l.49.21c4.24 1.84 6.27 2.72 7.75 2.15.58-.22 1.08-.65 1.58-1.34-.18.33-.38.67-.58 1.02-.51.88-1.06 1.83-1.66 2.88-3.17 5.52-4.17 8.14-3.43 8.88 1.96 1.96 3.94 0 9.21-9.13.53-.92 1.06-1.8 1.56-2.64l-2.23 3.88 6.92 3.59c3.8 1.98 7.66 4.36 8.57 5.29.81.82 1.66 1.52 2.04 1.71-3.77 7.1-10.07 18.33-19.41 34.6-32.47 56.59-131.16 228.82-134.23 234.25-1.32 2.34-2.48 4.24-2.57 4.22-.09-.01-5.78-2.94-12.66-6.51m8.06-65.46c7.09-12.32 13.01-22.55 25.44-44 13.94-24.05 21.46-37.07 34.95-60.5 7.29-12.65 20.38-35.38 29.09-50.5 8.72-15.12 16.73-29.09 17.81-31.04 2.53-4.55 1.67-8.61-2.13-10.09-14.41-5.62-39.26-8.24-56.72-5.97-31.32 4.07-58.19 19.52-79.1 45.46-8.49 10.54-18.39 30.44-21.95 44.14-3.5 13.42-4.43 35.46-2.12 50.02 4.07 25.64 16.48 49.47 34.93 67.11 10.83 10.34 11.23 10.25 19.8-4.63m78.74-78.2c1.56-1.56 1.54-5.99-.05-8.02-1.51-1.94-5.51-4.36-8.47-5.33.78.23 1.37.41 1.47.45.14.06.25-.53.25-1.29 0-.78-.52-1.42-1.2-1.79 1.16.27 2.04-.06 3-1.02 3.2-3.2-.18-7.86-4.33-5.97-2.88 1.32-3.27 4.6-.72 6.09.39.23.75.42 1.09.57-.78-.13-1.57.07-1.98.73-.54.86-.07 1.49 1.42 1.93.08.03.17.05.25.07-.54-.14-1.04-.22-1.45-.22-2.89 0-6.08 2.63-6.08 5.02 0 2.02 1.5 4.13 3.64 5.89-3.02-2.19-3-2.11-1.14.05 1.36 1.58 1.62 2.47.81 2.75-.58.2-.91.79-.81 1.37-.14-.22-.27-.48-.4-.76-1.3-2.86-4.42-3-7.1-.32-3.66 3.66-2.06 9 2.7 9 1.26 0 2.3.42 2.3.93 0 1.72 3.13 4.07 5.42 4.07 1.25 0 3.07-.89 4.05-1.97 3.15-3.48 1.95-8.61-1.5-9.66 1.23-.07 2.29-.3 2.69-.7.34-.34-.23-.93-1.27-1.29-.6-.22-1.66-.79-2.82-1.5 3.81 2.09 8.23 2.92 10.23.92m-48.66.87c-3.8-4.58-5.35-14.64-2.79-18.14 1.29-1.76 1.6-1.7 7 1.39 3.11 1.77 5.65 3.67 5.65 4.22 0 1.33-7.33 13.82-8.13 13.84-.34.01-1.12-.58-1.73-1.31m7.06-20.8c-3.46-2.02-5.2-3.65-4.99-4.71.54-2.84 7.79-6.13 13.54-6.14 2.89-.01 5.25.22 5.25.52 0 .97-7.41 13.46-7.96 13.44-.3-.01-2.93-1.41-5.84-3.11m28.52 41.46c.44-1.31-12.63-9.33-15.19-9.33-1.33 0-1.5.68-.94 3.75.37 2.06.87 4.09 1.1 4.5.75 1.31 2.31.81 2.31-.75 0-2.02.81-1.88 5.5.93 4.23 2.54 6.58 2.83 7.22.9m5.78-25.55c-4.51-2.31-5.84-3.84-4.51-5.17 1.15-1.15 6.29.94 8.61 3.5.14.15.26.3.37.43-.04-.04-.09-.08-.13-.13-1.43-1.43-1.55-1.36-1.34.76.07.66.15 1.31.22 1.83-.86-.17-1.95-.57-3.22-1.22m-5.29 14.03c-1.83-1.83-1.45-3.81.73-3.81 2.63 0 3.61 1.88 1.89 3.6-1.11 1.11-1.68 1.15-2.62.21M333.64 335c-3.54-2.33-7.17-4.47-8.13-4.64.18-.22.31-.34.36-.33.59.02 4.19 2.41 7.77 4.97M140.1 353.8c.33.38.66.75.98 1.11l-.05-.06c-.75-.83-1.58-1.74-2.49-2.75l-4.89-5.39.12-.11Zm159.04-35c.47-.57.89-.8 1.33-.8.78 0 3.1.73 5.07 1.53-.48-.17-1.01-.36-1.57-.54-2.54-.84-3.81-1.14-4.83-.19m-90.15-1.49c-.96-3.83-2-7.28-2.41-7.3h.01c.51-.01 1.51 3.11 2.4 7.3m-104.01 84.68c-3.65-1.78-7.83-3.66-9.05-3.95.87.05 4.81 1.77 9.05 3.95m-23.48 76-3.5.23V478Zm188.1-162.43c.32-2.32.58-3.83 1.03-4.75-.35 1.18-.73 2.96-1.03 4.75M243.34 476.3c-1.03.09-1.73-.06-2.28-.54.51.25 1.34.43 2.28.54M79.01 454.51c-.23.19-.43.61-.6 1.17l.09-1.18ZM91.5 421.6c-3.29-.99-4.62-1.59-4.95-2.53-.17-.49-.08-1.07.15-1.84-.22.84-.25 1.45-.02 1.95.44.98 1.88 1.5 4.82 2.42m-13.1 40.13c.73 1.76 2.6 2.24 6.79 2.26-4.32-.03-6.18-.47-6.79-2.26m101.02-142.12c-.26-.24-.53-.39-.81-.46-.12-.02-.24-.04-.36-.04.27-.07.48-.11.61-.11.11 0 .3.22.56.61M91.5 534.97c-.08.02-.13.03-.17.03-.49 0-1.62-1.96-2.52-4.38.9 2.42 2.09 4.37 2.66 4.35zm4.17-122.24c2.73.86 3.51.75 4.35-.25-.9 1.07-1.61 1.17-4.35.25m1.17 134.46c-.6-.77-1.27-2.03-2.21-3.88.73 1.43 1.62 2.98 2.21 3.88m192.97-233.12c-2.05-.62-4.13-1.09-4.4-.81.3-.3 2.37.16 4.4.81m-75.44-5.36c.81-.6 2.19-.68 4.27-.69-2.07.01-3.44.13-4.27.69M158 329.13v-.02c0-.4 1.72-1.49 3.59-2.44-1.84.95-3.53 2.03-3.59 2.46m106.95-14.68c.21-1.24.41-2.39.56-3.2l.58-3.25-.66 3.75c-.11.66-.28 1.6-.48 2.7M80.8 502.78c-.1-.49-.2-1.01-.28-1.53l-.7-4.25.71 4.25c.08.52.18 1.04.27 1.53m238.58-176.57-2.32-1.18c.99.5 1.77.83 2.32 1.18m-163.67 9.52c-.75-1.21-1.37-2.19-1.76-2.81.06.07.11.14.17.23.2.32.79 1.27 1.59 2.58m-72.73 93.42c-.56 2.04-.89 4.18-.54 4.76-.37-.6-.03-2.73.54-4.76m1.08 83.01c-.42.15-.74.29-.91.41.01-.04.02-.06.03-.08.05-.05.37-.17.88-.33m24.43 53.04c-.2.23-.32.45-.36.67 0-.24.12-.45.36-.67m-4.46-5.54 1.28 2.07v.01l-1.86-3.01c.21.34.41.65.58.93M78.21 486c.1.86.35 1.99.66 3.45-.05-.22-.09-.43-.14-.64-.25-1.16-.45-2.08-.52-2.81m106.06-169.53v-.01c.39-.28 2.25-.91 4.13-1.46-1.87.55-3.72 1.18-4.13 1.47m-96.93 98.84c.21-.61.4-1.14.6-1.6-.23.59-.43 1.12-.6 1.6m165.17 55.54c.13-.17.23-.33.28-.49a.67.67 0 0 1-.28.49m53.55-145.74c-1.4 3.13-1.64 4.69-.88 5.61-.76-.92-.52-2.48.88-5.61m-190.78 50.5c-2.31-1.47-4.28-2.51-4.91-2.42h.01c.54-.11 2.46.87 4.9 2.42M79.7 446.64c0-.21.02-.43.04-.69.16-1.58.31-2.8.49-3.74-.18.95-.33 2.18-.49 3.77-.02.24-.04.46-.04.66m194.15-136.91c.57.11 1.22.26 1.98.45-.7-.17-1.37-.32-1.98-.45m-123.36 23.93c-.43.27-.88.55-1.34.86.5-.33.94-.61 1.34-.86m-65.36 91.35c-.05 0-.11-.01-.15-.01H85c.03 0 .08 0 .13.01"/><path fill="#9757d0" d="M424.51 247.17c-6.26 1.62-11 2.67-11.22 2.46-.37-.37 2-5.48 5.05-11.32 2.87-5.4 6.2-11.34 8.15-14.31 25.24-38.59 69.62-57.14 110.11-46.04 7.63 2.1 15.04 5.15 22.09 9.05 8.12 4.49 15.76 10.1 22.7 16.65 8.97 8.83 17.55 19.92 23.28 30.45.94 1.77 1.91 3.72 2.83 5.63 1.24 2.78 1.24 3.88.53 5.2-1.02 1.91-1.71 2.09-5.84 1.52-2.58-.36-9.19-1.72-14.69-3.04-13.89-3.33-27.62-5.75-41.25-7.25h-.01c-25.78-2.98-50.81-2.58-76.81 1.28h-.01c-14.11 2.03-28.29 5.06-42.61 9.07-.81.23-1.58.45-2.3.65M496.12 294c-.82-1.98-.78-32.14-.08-42.5h33.05l-.3-3.5-.27-3.24.81 4.74c1.11 6.54 1.39 35.73.4 41.5l-.78 4.5h-16.1c-13.38 0-16.21-.25-16.73-1.5m-39.6 5.03c-1.94-3.13-2.89-21.34-1.73-32.94.49-4.89.77-8.33 1.22-10.81 0 .12-.01.22-.01.3 0 1.01.7 1.29 2.25.91 1.24-.31 7.87-1.36 14.74-2.34l12.5-1.79.59-3.62c.53-3.25.47-3.58-1.59-3.29l2.09-.32-.88 8.69c-.49 4.77-.66 16.35-.38 25.73l.5 17.04-11.66 1.26c-6.41.7-12.84 1.5-14.29 1.8-1.48.3-2.95.03-3.35-.62m100.98-.6c-4.4-.72-9.8-1.34-12-1.38-6.46-.13-6.59-.4-5.36-11.09 1.02-8.89.71-22.85-.77-35.48l-.03-.26c.23.68.55 1.17.91 1.31.69.25 7.33 1.54 14.75 2.85s13.79 2.44 14.14 2.5c.51.09-.22-4.48-.89-6.48.08.07.13.14.16.21 2.5 6.53 3.16 37.28.99 46.64-.21.93-.33 1.57-.71 1.97-.85.88-2.98.54-10.33-.66Zm33.62 6.5c-6.26-1.58-11.59-3.07-11.84-3.32-.25-.24.1-3.88.78-8.07 1.09-6.75.88-28.6-.18-36.84.34 1.19.72 2.16.98 2.39.35.32 5.4 1.82 11.22 3.33 5.81 1.51 11.21 3.15 12 3.64 1.32.83 2.06-1.78 1.78-4.07 1.38 5.17 2.6 16.04 2.53 24.51-.09 12.61-1.85 21.54-4.21 21.39-.92-.05-6.8-1.39-13.06-2.96m-173.16-4.18c-1.44-8.5-.77-29.9 1.08-37.14-.03.47-.04.97-.04 1.52 0 1.63.42 1.87 2.25 1.26 1.24-.41 7.2-2.19 13.25-3.96l10.99-3.21c-.1 1.58-.24 3.34-.4 5.18-.93 10.73-.1 30.75 1.49 35.82.38 1.21-.15 1.86-1.77 2.21-1.27.28-7.18 1.64-13.14 3.04-5.96 1.39-11.2 2.53-11.66 2.53s-1.38-3.26-2.05-7.25m203.22 12.4c-2.93-.91-5.33-1.99-5.34-2.41-.01-.43.53-4.03 1.2-8 .79-4.66 1.05-13.03.73-23.49-.1-3.37-.17-6.51-.22-9.11.07.16.14.3.22.41.4.58 2.86 1.85 5.47 2.83s6.21 3.22 8 4.97c1.79 1.76 3.59 3.05 4 2.87.12-.05.18-.2.19-.44.71 2.95 1.16 6.26 1.35 9.84.66 12.63-.29 18.04-3.79 21.54-3.21 3.21-4.35 3.31-11.81.99m-226.88.84c-3.75-1.51-5.53-6.5-5.67-15.92-.12-7.87.26-13.79 1.37-18.36v.04c0 2.29.09 2.27 4.53-1.12 2.49-1.9 6.51-4.27 8.92-5.27 2.6-1.08 3.72-1.75 4.28-3.01-1.05 7.45-.73 24.72.7 32.65.74 4.12 1.06 7.8.71 8.16-.64.66-10.99 3.9-12.07 3.78-.31-.04-1.56-.47-2.77-.95m102.12-65.37-.25 1.29c.04-.48.09-.88.15-1.19l.81-4.77 15.62.27c-8.88-.15-15.75.12-15.75.63 0 .49-.26 2.19-.58 3.77m-76.41 11.75.57-1.87 6.37-1.73c-3.91 1.2-5.92 2.18-6.94 3.6m-11.77 5.35c-.41-2.03-2.41-1.7-7.4.66-3.41 1.62-6.58 4.48-8.61 7.45 2.08-3.67 5.16-6.07 9.57-7.96 4.4-1.89 6.18-2.14 6.44-.15m225.75 10.42c-.79-1.8-1.81-3.72-2.81-5.14-.94-1.33-5.01-4.03-8.51-5.92 3.18 1.6 6.76 3.68 7.54 4.56 1.5 1.69 2.77 3.88 3.78 6.5M539 247.37l-.28-2.44 3.81.52c-3.19-.41-3.5-.28-3.53 1.92m66.05 12.34c-.07-.09-.14-.18-.23-.26-.61-.59-5.51-2.29-10.8-3.92 5.21 1.55 10.02 3.12 10.61 3.6.14.11.28.31.42.58m-135.37-12.14c-3.81.54-6.41.93-8.21 1.3 1.93-.48 4.57-.78 8.21-1.3m76.99-1.54c4.52.63 8.26 1.21 11.3 1.72-3.63-.58-7.72-1.21-11.3-1.72m32.59 7.51c-.21-1.1.09-1.54.98-1.54-.76.01-1.06.42-.98 1.54m38.74 9.52c-.09-.02-.17-.02-.25-.03-.06 0-.12.02-.17.07.01-.07.02-.1.03-.1q.15 0 .39.06"/><path fill="#c3e0ec" d="M502.72 845.52c-7.45-6.86-21.86-11.36-32.18-10.06-2.77.35-8.17 1.69-12.01 2.99l-6.96 2.35-4.99-4.49c-8.08-7.26-17.74-11.49-30.34-13.28-8.68-1.23-14.36-.62-24.47 2.63-4.25 1.37-8.6 2.21-9.66 1.87-2.65-.84-19.5-18.54-26.87-28.21-13.78-18.1-23.96-37.22-31.05-58.48 1.32 3.86 2.45 6.46 3.11 6.88.68.43 3.82 4.2 7 8.39 7.21 9.52 21.86 24.55 31.71 32.53 26.86 21.79 60.91 36.32 96.75 41.31 3.71.51 15.29.77 25.74.57 31.9-.62 55.81-6.45 83-20.23 12-6.09 32.6-19.85 37-24.73.55-.61 2.35-2.15 4-3.42 4.73-3.63 11.7-10.43 16.03-15.62 2.18-2.62 5.01-5.95 6.29-7.39 4.68-5.31 17.34-25.26 22.28-35.14 5.47-10.93 10.95-25.92 13.87-37.99 3.94-16.24 4.53-22.23 4.48-45.5-.05-25.21-1.28-34.19-7.28-53.21-1.66-5.25-2.49-9.35-1.93-9.54.54-.18-.69-2-2.73-4.04-2.5-2.5-3.32-3.62-3.42-5.58.28 1.84 1.28 3.44 3.42 5.58l.02.02c3.01 3.01 4.01 3.44 6.86 2.98 1.84-.3 5.54-1.91 8.23-3.59 4.6-2.87 4.98-2.95 6.57-1.33 2.55 2.59 14.21 26.68 17.71 36.59 3.15 8.92 6.54 21.31 7.57 27.62.31 1.92.85 4.85 1.2 6.5 1.13 5.35 1.38 7.8 2.21 21 2.37 37.61-4.28 71.19-20.53 103.74-10.22 20.48-20.68 34.87-37.95 52.18-6.72 6.74-9.05 8.42-13.71 9.89l-5.62 1.77-5.44-4.43c-8.16-6.65-15.09-8.98-26.63-8.98-11.07.01-16.52 1.59-25.59 7.43-5.87 3.79-11.42 10.08-12.81 14.54-.64 2.05-1.09 2.12-10.99 1.61-14.81-.75-28.48 1.68-45.61 8.11-.91.35-3.37-1.16-6.28-3.84m-284.11 47.23c1.05-6.09 6.17-14.95 11.87-20.66-4.92 5.08-10.51 14.13-10.46 17.13.01.7.9-.66 1.98-3.02 1.73-3.81 2.82-4.71 9.54-7.81 10.66-4.93 20.76-6.72 30.41-5.39 8.44 1.16 12.25 2.13 29.55 7.53 16.91 5.27 21.83 6.38 31.52 7.1 9.62.72 16.15-.37 24.13-4.01 2.94-1.34 9.18-3.7 13.85-5.23 12.33-4.06 17.28-3.78 35.5 2.03 11.29 3.6 17.1 4.9 23.5 5.28 14.68.87 28.09-3.51 38.41-12.54 4.91-4.3 6.54-5.16 9.75-5.16 3.19 0 4.52.7 7.84 4.12 2.2 2.27 4 4.51 4 4.98 0 1.61 7.58 4.73 15.42 6.35 16.9 3.49 50.46 4.61 61.35 2.04 7.71-1.81 13.92-4.91 24.29-12.09 12.45-8.63 17.95-10.8 27.44-10.86 4.4-.02 9.21.3 10.7.72 1.48.41 5.76 3.43 9.5 6.7 9.38 8.21 15.98 11.34 24.93 11.85 6.33.35 8.49-.07 19-3.67 15.39-5.28 24.9-6.78 32.34-5.13 6.68 1.48 11.82 3.99 16.38 8 1.88 1.64 3.89 2.99 4.46 2.99.58 0 4.8-1.88 9.37-4.18 12.41-6.23 15.5-6.03 28.65 1.93 5.68 3.44 10.74 6.25 11.25 6.25 1.65 0 .97-3.42-1.7-8.51-3.58-6.83-5.85-9.08-12.32-12.25-5.01-2.45-6.5-2.7-15.06-2.49-11.52.27-12.37.03-14.43-4.04-3.36-6.64-6.78-10.69-12.84-15.18-3.03-2.25-5.15-2.9-10.74-3.3-4.15-.3-8.79.02-11.5.77-4.09 1.15-4.75 1.09-6.71-.61l-2.18-1.89 2.2 2.88c1.25 1.65 1.97 3.65 2.15 5.5-.85-6.23-12.02-16.11-21.71-18.95-6.4-1.88-7.32-3.57-3.71-6.81 1.64-1.46 5.84-6.13 9.34-10.38 5.69-6.88 6.66-7.65 9-7.09 3.24.78 8.01 3.14 10.08 5 4.97 4.45 8.52 8.45 11.64 13.1 3.27 4.89 3.81 5.26 7.71 5.36 11.03.28 15.72.89 22 2.86 3.74 1.18 7.06 2.79 7.36 3.59.3.79 1.19 1.44 1.97 1.44 2.13 0 11.92 10.38 14.02 14.88 2.31 4.92 5.95 7.16 11.83 7.28 2.51.05 4.81.49 5.11.98s.94.65 1.42.36c1.35-.84 10.5 2.97 13.47 5.62 7.74 6.87 12.42 11.95 14.39 15.64 1.61 3.01 4.1 10.56 4.12 12.49.01 1.66-14.75 1.75-295.96 1.75H218.05Zm267.03-416.32c-18.93-2.95-40.86-9.71-63.09-19.46-10.43-4.57-11.84-5.69-16.98-13.47-4.1-6.18-7.78-13.46-10.82-21.22.37.94.76 1.88 1.15 2.83 3.06 7.36 7.02 14.18 5.45 9.39-.57-1.73-.27-1.65 2.25.62 4.39 3.96 16.21 12.24 22.4 15.69 11.71 6.52 26.95 11.68 43.5 14.72 8.55 1.57 26.53 1.79 36 .43 63.98-9.18 110.14-63.12 107.67-125.79l-.33-8.34-3.51-1.47c-6.24-2.6-34.33-9.34-47.26-11.33-53.54-8.25-103.18-3.79-155.41 13.95-6.51 2.22-12.2 3.81-12.63 3.54-.63-.39-1.4.68-2.21 2.77.03-.1.07-.19.1-.29 1.28-3.58 2.21-6.46 2.19-6.73-.02-.13.57-1.65 1.3-3.39 1.22-2.92 2.18-3.4 12.71-6.53 39.5-11.72 66.56-16.21 99.55-16.55 16.79-.17 39.86.79 41.37 1.72.44.27 3.64.73 7.13 1.02 9.47.78 33.68 5.87 47.83 10.06 6.88 2.03 15.38 4.46 18.89 5.4 7.31 1.95 8.17 3.12 12.66 17.36 4.33 13.71 5.72 24.58 5.07 39.64-1.14 26.23-6.32 43.23-19.33 63.4-4.92 7.64-6.94 9.66-12.68 12.71-3.66 1.95-4.1 1.98-7.5.49-9.18-4-14.42-3.69-29.76 1.77-2.29.81-8.02 2.2-12.74 3.08-11.49 2.15-16.16 4.37-22.07 10.45l-4.96 5.1-18.54-.1c-10.27-.05-22.5-.71-27.4-1.47m174.61 88.6c.11-2.02-.16-2.9-.82-2.64-.61.23-2.13-1.67-3.35-4.23-3.07-6.39-10.11-17.16-11.23-17.16-1.72 0-2.03 2.92-.87 8.21 11.25 51.32 13.39 67.72 13.44 103.29.04 31.4-.77 35.05-8.73 39.16-8.4 4.34-62.29 12.01-87.43 12.44-8.34.14-8.74.04-11.09-2.69-.53-.61-.95-1.05-1.27-1.55-1.21-1.89-.97-4.72.45-21.6.09-1.06.18-2.18.28-3.36l.64-7.6-9.39-1.17c-15.1-1.88-19.56-3.14-23.65-6.68-3.54-3.05-3.73-3.53-3.67-9.09.04-3.22 1.05-12.83 2.25-21.36 1.86-13.12 4.59-55.77 3.64-56.84-.17-.19-6.95-.52-15.07-.72-33.02-.85-59.44-5.87-87.38-16.61-18.79-7.22-40.63-19.72-40.36-23.1.08-1.1-.05-1.54-1.06-.77 4.33-4.35 7.42-6.96 8.36-6.96.52 0 1.23.46 1.58 1.03 1.18 1.91 17.89 9.7 31.98 14.91 7.7 2.84 14.67 5.43 15.5 5.76.83.32 2.17.68 3 .8.83.13 6 1.38 11.5 2.79 22.8 5.85 52.57 9.27 71.25 8.21 9.94-.57 12.27-.45 12.35.65.96 13.15-2.66 47.3-7.68 72.45-3.13 15.67-3.11 17 .33 18.75 3.04 1.55 27.82 6.65 32.3 6.65 1.56 0 3.12.46 3.46 1.02.35.56.07 7.98-.61 16.49-.07.89-.14 1.75-.2 2.57-.72 8.79-1.07 13.03.88 15.06 1.81 1.89 5.6 1.88 12.9 1.86h2.3c14.89 0 29.29-1.77 45.22-5.57 15.27-3.64 22.87-6.32 24.04-8.5 1.88-3.51 3.19-28.96 2.53-49.23-1.03-31.82-7.17-77.13-13.13-96.82-.34-1.11.5-2.03 2.67-2.92 1.73-.72 4.47-2.42 6.07-3.77l2.92-2.45 2.58 2.38c2.43 2.24 14.64 14.76 16.82 17.24 5.39 6.15 7.5 8.85 7.5 9.63 0 .5-1.6 1.68-3.56 2.6-3.99 1.9-7.29 5.8-8.19 9.44M325.22 849.89c.74-.87 1.31-1.83 1.33-2.32.13-2.55 3.73-7.64 8.34-11.78 5.87-5.28 12.49-7.6 22.61-7.94 3.85-.13 7.37-.42 7.82-.64.45-.23-2.27-3.63-6.04-7.56s-7.86-8.45-9.07-10.04c-.93-1.21-1.52-1.91-2.35-2.26.83.35 1.42 1.05 2.36 2.26 1.22 1.59 6.88 7.75 12.58 13.69l10.35 10.79-4.32 3.91-4.33 3.9-8.21-.59c-5.19-.38-10.46-.12-14.31.69-4.84 1.03-13.23 5.09-16.76 7.89M140.1 353.8l-6.33-7.2 3.07-2.75c1.75-1.57 3.61-2.85 4.12-2.85.52 0 2.14 1.58 3.61 3.5 4.93 6.47 8.31 3.65 3.56-2.96l-3.08-4.3 4.1-2.72c.46-.31.91-.59 1.34-.86 2.02-1.23 2.88-1.4 3.46-.74.39.62 1.01 1.6 1.76 2.81 1.06 1.73 2.51 4.1 3.98 6.52.54.9 1.1 1.76 1.63 2.57l2.38 3.85-3.6 2.38c-1.98 1.31-5.69 4.08-8.24 6.16-2.55 2.09-4.81 3.79-5.03 3.79-.12 0-1.1-.99-2.53-2.54-.87-.97-1.93-2.14-3.22-3.55-.32-.36-.65-.73-.98-1.11m-5.89.78c.95 1.1 2.08 2.37 3.21 3.62 1.12 1.3 2.15 2.49 2.83 3.28l2.55 2.99-6.58 7.01c-3.62 3.86-6.84 7.13-7.16 7.27-.31.14-4.09-2.3-8.39-5.41l-2.08-1.51-.01-.01-5.72-4.15 3.5-3.5 3.5-3.5 3.61 3.17c4.04 3.55 5.32 3.87 6.2 1.59.38-1-.73-2.93-3.04-5.3l-3.64-3.73 3.48-3.37 3.48-3.37Zm45.21-34.97c.91 1.39 2.6 4.97 4.28 9.14.09.21.17.42.25.63.36.9.74 1.87 1.16 2.91 1.35 3.41 1.53 4.74.64 4.58-1.53-.27-5.8 1.69-11.7 5.36-2.44 1.52-4.99 2.77-5.67 2.77s-3.29-3.39-5.81-7.54c-.3-.49-.59-.99-.88-1.47-2.09-3.58-3.64-6.45-3.69-6.86.06-.43 1.75-1.51 3.59-2.46 1.75-.89 3.62-1.67 4.34-1.67.47 0 1.55 1.74 2.4 3.87 1.73 4.31 4.39 6.03 5.37 3.47.57-1.47.22-2.82-2.19-8.6-.57-1.37.05-2.08 2.85-3.25 1.49-.62 3.02-1.16 3.89-1.38.12 0 .24.02.36.04.28.07.55.22.81.46m29.57-2.3c.17.78.33 1.6.48 2.44.43 2.35.85 4.33 1.27 5.98.14 1.01.16 1.66.02 1.76-.14.09-2.96.95-6.26 1.9s-7.48 2.38-9.28 3.17l-.23.1c-2.23.98-3.18 1.4-3.78 1.1-.47-.23-.72-.87-1.2-2.01-.45-1.07-.92-2.21-1.38-3.36-.32-.88-.68-1.82-1.07-2.83-1.9-4.82-3.36-8.85-3.29-9.09.41-.29 2.25-.91 4.12-1.46l.01-.01c1.82-.53 3.67-1 4.2-1 .72 0 1.6 1.56 1.96 3.46.72 3.84 2.74 6.09 4.49 5.01 1.05-.65.69-5.38-.69-8.97-.35-.91.74-1.71 3.31-2.43 2.09-.58 4.29-1.05 4.91-1.06.41.02 1.45 3.47 2.41 7.3m-89.61 61.13c.46.35.91.68 1.34.99 2.41 1.84 4.28 3.53 4.28 4.12s-.79 1.95-1.75 3.01c-.96 1.07-3.55 4.7-5.75 8.08l-4 6.14-4.86-2.44c-.51-.27-1.06-.55-1.64-.84-4.95-2.49-9-5.01-9-5.61 0-1.74 3.34-6.89 4.47-6.89.56.01 2.55.93 4.4 2.06 6.61 4.03 8.55-.19 2.07-4.48l-4.07-2.69 2.02-3.2c1.1-1.74 2.66-3.31 3.48-3.5.63-.09 2.6.95 4.9 2.42h.01c1.27.81 2.68 1.78 4.1 2.83m-14.4 23.55c.32.16.64.32.96.49.95.49 1.87.96 2.75 1.39 1.39.74 2.31 1.3 2.31 1.46s-1.8 3.84-4 8.17-4 8.43-4 9.13c0 1.5-.62 1.94-3.66 1.24-.93-.29-1.96-.6-3.08-.91-1.91-.54-3.48-.98-4.76-1.36-2.94-.92-4.38-1.44-4.82-2.42-.23-.5-.2-1.11.02-1.95.1-.32.22-.68.35-1.08l.07-.22c.08-.21.15-.42.22-.62.17-.48.37-1.01.6-1.6 1.21-2.86 2.31-2.81 6.42-1.41.48.16.92.31 1.31.43 2.74.92 3.45.82 4.35-.25l.01-.02c1.6-1.92.7-2.91-4.4-4.86l-4.43-1.69 1.55-3.96c.29-.72.61-1.38.94-1.94.74-1.24 1.56-1.99 2.21-1.97h.03c1.22.29 5.4 2.17 9.05 3.95m109.39-93.28c.83-.56 2.2-.68 4.27-.69 2.96-.02 3.19.25 4.01 4.73.69 3.79 1.27 4.75 2.86 4.75 1.78 0 1.96-.57 1.66-5.31l-.32-5.31 4.82.31 4.83.31.29 10.46c.06 2.22.15 4.08.28 5.62l.01.42h-5.32c-2.93 0-7.66.61-10.52 1.35-4.64 1.2-5.25 1.17-5.68-.25-.13-.44-.38-1.63-.68-3.17-.11-.63-.22-1.3-.34-2-1.29-7.3-1.66-10.13-.17-11.22m50.58 5.74c-.41 2.31-.96 5.32-1.42 7.87-.06.33-.12.64-.17.94l-10.62.12-10.74.12V307h9v4.89c0 3.24.47 5.08 1.38 5.42 2.17.84 3.62-1.37 3.62-5.51V308h10.09l-.58 3.25c-.15.81-.35 1.96-.56 3.2M82.98 429.15c.59-2.11 1.43-4.1 2-4.15.04 0 .1.01.15.01.86.13 4.56 1.19 8.58 2.48.47.15.93.29 1.37.43 2.72.94 5 1.82 5.37 2.17.6.57.55.91-.11.91-1.5 0-6.07 15.62-5.48 18.75.07.42.09.78.06.97-1.32-.22-2.93-.47-4.92-.77-9.1-1.34-10.32-1.57-10.3-3.31 0-.2.02-.42.04-.66.16-1.59.31-2.82.49-3.77.55-2.8 1.45-3.02 4.03-2.5 5.82 1.19 7.22.93 7.55-1.39.27-1.89-.3-2.27-4.26-2.87-2.52-.37-4.81-1.07-5.11-1.54-.35-.58-.02-2.72.54-4.76m190.87-119.42c.61.13 1.28.28 1.98.45 4.13 1.05 4.25 1.19 3.55 4.2-1.26 5.48-1.02 7.12 1.02 7.12 1.31 0 2.32-1.21 3.26-3.92.74-2.16 1.53-4.11 1.75-4.32.3-.3 2.37.16 4.4.81 2.12.68 4.19 1.55 4.19 1.97 0 .29-.81 2.8-1.97 6.15-1.25 3.35-2.69 6.76-2.96 6.7-.32-.05-3.27-.92-6.57-1.92s-7.69-2.1-9.75-2.44c-3.43-.57-3.75-.89-3.73-3.83.01-.69.08-1.59.2-2.57.12-.74.23-1.48.33-2.21.01-.12.03-.24.05-.36.3-1.79.68-3.57 1.03-4.75.59-1.2 1.48-1.39 3.22-1.08M81.5 477.99 78 478v-10.12l4.31.64c3.25.49 4.62.27 5.58-.89 1.73-2.08.58-3.63-2.7-3.64-4.32-.03-6.18-.47-6.79-2.26-.26-.76-.3-1.78-.2-3.11l.21-2.94c.17-.56.37-.98.6-1.17l3.99.04c1.52.01 3.97.1 6.46.23l3.73.4-.83 7.16c-.45 3.94-.81 8.82-.79 10.85.01 2.5-.35 3.71-2.28 4.29l-.41.03ZM299.14 318.8c1.02-.95 2.29-.65 4.83.19.56.18 1.09.37 1.57.54.86.34 1.65.7 2.23 1.02.15.09-.61 2.12-1.69 4.52-.09.2-.17.39-.25.58-1.19 2.77-1.36 4.2-.65 5.07 1.79 2.16 2.85 1.46 4.92-3.22 1.1-2.48 2.22-4.5 2.49-4.5s2.28.91 4.47 2.03l2.32 1.18c.34.22.59.45.73.73.56 1.08-.47 2.98-3.64 8.48-.5.69-1 1.12-1.58 1.34-1.48.57-3.51-.31-7.75-2.15l-.49-.21c-4.31-1.87-8.45-3.4-9.19-3.4-2.42 0-2.7-2.08-.94-6.83l.08-.2c1.05-2.71 1.84-4.32 2.54-5.17m34.5 16.2c3.6 2.59 7.17 5.35 7.61 6.07.3.48-1.05 3.54-4.38 9.83-.38-.19-1.23-.89-2.04-1.71-.91-.93-4.77-3.31-8.57-5.29l-6.92-3.59 2.23-3.88c1.75-2.93 3.25-5.24 3.94-6.07.96.17 4.59 2.31 8.13 4.64M80.8 502.78c-.09-.49-.19-1.01-.27-1.53l-.71-4.25h3.51c4.84 0 6.67-.87 6.67-3.18 0-1.74-.6-1.94-5.25-1.69-5.09.27-5.27.19-5.88-2.68-.31-1.46-.56-2.59-.66-3.45-.06-.71 0-1.23.26-1.64.65-1.04 2.59-1.28 7.02-1.58l5.24-.28.58 9.52c.32 5.24.85 10.24 1.19 11.12.28.74.14 1.24-.55 1.62-.38.1-.77.19-1.18.3-4.43 1.13-8.39 1.69-8.81 1.25-.32-.35-.79-1.8-1.16-3.53m3.21 13.85c-.57-1.96-.93-3.66-.86-4.06.17-.12.49-.26.91-.41 1.12-.35 3.18-.93 5.5-1.52 1.98-.44 3.68-.71 3.86-.5.17.2.54 2.23.83 4.52l.54 4.16-3.1.78c-1.04.21-2.32.52-3.9.92-2.16.54-2.57.16-3.66-3.48l-.02-.07c-.04-.12-.07-.23-.1-.34m7.49 18.34h-.03c-.56.02-1.75-1.92-2.66-4.33v-.02c-.01-.03-.03-.06-.04-.1l-1.65-4.46 3.69-1.02c5.68-1.58 6.19-1.38 6.19 2.46 0 2.64.43 3.52 1.75 3.58.88.04-.48 1.02-2.29 1.98-2.47 1.04-4.35 1.77-4.96 1.91m1.43 4.99 1.98-.86 1.68-.7c2.02-.85 4-1.17 4.41-.72.8.9 3.16 7.56 2.75 7.78-.12.08-1.26.78-2.58 1.6-2.23 1.3-3.17 1.6-4.33.13-.59-.9-1.48-2.45-2.21-3.88l-.04-.08Zm11.1 19.7c-.17-.28-.37-.59-.58-.93l-.55-.88c-1.32-2.14-2.32-4.17-2.23-4.51.09-.29 1.4-1.23 3.09-2.23 3.02-1.53 3.11-1.32 2.49 1.04-.7 2.68 1.98 4.85 5.05 4.1.98-.24 1.57-.39 1.64-.26.09.18-.86.9-3.26 2.66l-4.37 3.08ZM327 846.61c0 .21.67.39 1.5.39s1.5-.44 1.5-.97-.67-.71-1.5-.39c-.83.31-1.5.75-1.5.97m59.3-474.93c-.44 10.09.1 19.12 1.78 28.04-.45-2.22-.83-4.43-1.15-6.62-.87-6.09-1.05-13.65-.63-21.42m3.34-24.74c-.96 4.24-1.84 9.34-2.47 14.51.6-5.11 1.43-10.07 2.47-14.51m-67.51 387.41c-1.78-5.96-3.33-12.1-4.66-18.43-.05-.24-.1-.49-.16-.74.05.2.09.4.13.6 1.32 6.28 3.04 12.95 4.69 18.57m.96 120.85c.3 1.28 1.13 2.4 2.38 2.97-1.32-.6-2.13-1.7-2.38-2.97"/><path fill="#a0bcca" d="M819.48 904.02c1.48-1.63 1.68-2.99 1.14-7.59-1.18-10.01-5.02-19.23-10.82-26.83 3.41 4.38 6.13 9.15 7.71 13.81 1.39 4.07 2.5 5.76 3.96 6.02 27.7 4.88 39.23 8.03 43.28 11.82 4.65 4.34 2.43 7.21-8.61 11.16-30.53 10.9-115.94 18.58-246.14 22.11-174.28 4.72-370.69-3.99-432-19.17-20.63-5.1-25.87-10.9-14.64-16.18 5.56-2.61 21.62-6.71 35.32-9.02l10.47-1.76 2.23-5.45c1.23-2.99 3.39-7.24 4.8-9.44 1.35-2.11 3.74-4.85 6.48-7.6-6.02 6.54-10.88 14.52-13.07 22.03-1.88 6.43-2.08 15.18-.39 16.87.93.93 70.01 1.2 304.84 1.2 301.52 0 303.66-.01 305.44-1.98M685.8 245.8c-1.43 1.43-1.78 1.44-4.05.12-1.16-.67-1.75-2.25-1.75-4.64v-3.63l-2.41 2.27c-1.33 1.24-3.24 2.1-4.25 1.91-3.34-.64-2.51-4.13 2.16-9.14 4.37-4.67 4.5-5.01 4.5-11.25 0-3.54-.28-6.44-.63-6.44-.34 0-2.95 1.33-5.79 2.95-4.86 2.79-5.29 3.36-7.44 10.06-1.99 6.18-2.58 7.07-4.47 6.8-1.85-.26-2.16-.93-2.09-4.5l.08-4.19-2.88 1.49c-1.58.82-3.76 1.21-4.83.87-2.95-.93-2.38-4.21 1.05-5.98 1.65-.85 3-1.76 3-2.01 0-.26-1.58-1.12-3.5-1.93-3.68-1.53-4.63-4.19-1.87-5.25.9-.34 4.56-.04 8.15.67 6.41 1.27 6.59 1.25 11.86-1.59 2.94-1.59 5.21-3.33 5.03-3.86-.17-.54-2.48-2.25-5.13-3.8l-4.81-2.83-6.54 1.49c-4.59 1.05-7.1 1.19-8.43.48-2.76-1.48-1.74-4.23 1.99-5.33 1.79-.52 3.25-1.21 3.25-1.53s-1.35-1.38-3-2.35c-3.33-1.97-3.79-3.76-1.45-5.7 1.27-1.05 2.14-1 4.83.28l3.28 1.56-.08-4.15c-.07-3.53.25-4.2 2.09-4.46 1.89-.27 2.48.63 4.49 6.86 2.16 6.73 2.62 7.35 7.32 10.05 2.76 1.59 5.36 2.89 5.77 2.89.41.01.75-2.75.75-6.13 0-5.83-.23-6.41-4.5-11.41-2.47-2.9-4.5-5.94-4.5-6.75 0-3 5.25-3.1 6.39-.12.94 2.44 2.61 1.55 2.61-1.38 0-3.17 1.6-5.2 4.09-5.2 2 0 2.91 1.97 2.91 6.32v3.16l2.59-2.8c1.43-1.53 3.33-2.65 4.24-2.47 3.16.6 2.36 3.85-2.29 9.3-4.59 5.36-4.63 5.48-4.34 11.87l.3 6.45 5.36-3.17c5.08-3 5.48-3.52 7.54-10.16 1.93-6.18 2.47-7 4.64-7 2.26 0 2.44.35 2.27 4.25-.17 3.87-.02 4.17 1.68 3.25 1.04-.55 3.03-1 4.44-1 3.42 0 3.37 2.56-.12 6.2-2.49 2.6-2.54 2.8-.65 2.8 1.12 0 2.86.91 3.87 2.03 1.67 1.85 1.69 2.17.26 3.61-1.43 1.43-2.2 1.43-8.39.02l-6.83-1.56-4.94 2.7c-2.73 1.49-4.95 3.15-4.95 3.7s2.09 2.3 4.66 3.89l4.65 2.89 7.56-1.29c7.86-1.34 10.07-.78 8.9 2.27-.33.88-1.98 2.08-3.65 2.66l-3.04 1.06 3.28 3.06c3.03 2.83 3.16 3.19 1.66 4.69-1.34 1.34-2.08 1.42-4.21.45-3.89-1.77-4.41-1.48-3.83 2.12.36 2.23.05 3.69-.96 4.53-2.24 1.86-4.43-.88-6.41-8.01-1.54-5.54-2.05-6.21-6.73-8.9-2.78-1.59-5.4-2.91-5.81-2.91-.41-.01-.75 2.93-.75 6.53 0 6.38.12 6.67 4.5 11.36 2.47 2.64 4.5 5.56 4.5 6.49 0 2.7-2.91 3.05-6.07.71l-2.93-2.16v3.33c0 1.83-.54 3.87-1.2 4.53M244 763.14c-.76 5.05-5 5.21-5 .19 0-2.77-.7-2.91-3.2-.65-1.72 1.55-1.99 1.56-3.48.07s-1.29-2.01 2.53-6.57c3.68-4.39 4.15-5.54 4.15-10.07 0-2.81-.17-5.11-.37-5.11-.21 0-2.4 1.13-4.87 2.51-3.89 2.17-4.8 3.34-6.71 8.56-1.64 4.52-2.62 5.96-3.88 5.7-1.18-.24-1.63-1.28-1.52-3.56.16-3.53.03-3.64-2.58-2.25-1.26.68-2.35.53-3.68-.5-1.82-1.41-1.78-1.56 1.04-3.9l2.94-2.43-2.61-.65c-3.01-.76-4.19-2.87-2.43-4.34.8-.66 2.79-.66 6 .02 5.44 1.17 7.75.76 12.57-2.22l3.41-2.1-4.22-2.51c-3.82-2.28-4.86-2.46-11.04-1.84-4.68.48-7.04.33-7.52-.44-.95-1.54 1.28-4.05 3.59-4.05 1.04 0 1.88-.45 1.88-1s-.42-1-.93-1c-1.17 0-4.07-2.85-4.07-4 0-1.5 3.84-2.15 5.97-1.02 1.89 1.01 2.03.84 1.79-2.19-.21-2.61.12-3.29 1.56-3.29 1.26 0 2.47 1.65 4 5.46 1.48 3.71 3.27 6.2 5.58 7.75 5.1 3.43 6.1 3.04 6.1-2.4 0-4.02-.58-5.36-4.09-9.53-3.97-4.71-4.59-7.78-1.56-7.78.77 0 1.97.67 2.65 1.5 1.84 2.22 2.83 1.83 3.18-1.25.23-1.98.88-2.75 2.32-2.75 1.5 0 2.12.83 2.5 3.36l.5 3.37 1.9-2.12c1.05-1.16 2.53-2.11 3.29-2.11 2.99 0 2.36 3.09-1.6 7.78-3.64 4.31-4.09 5.42-4.09 10.03 0 2.86.17 5.19.37 5.19.21 0 2.43-1.15 4.94-2.55 3.96-2.21 4.8-3.29 6.46-8.25 1.43-4.29 2.37-5.7 3.81-5.7 1.54 0 1.89.66 1.76 3.32-.12 2.73.14 3.2 1.5 2.64 3.98-1.65 5.16-1.63 5.81.08.46 1.18-.03 2.35-1.48 3.53-2.5 2.02-2.75 2.93-.79 2.93.76 0 1.95.7 2.66 1.55 1.06 1.27 1.03 1.8-.13 2.91-1.13 1.09-2.45 1.14-6.66.25-4.7-.99-5.73-.88-9.75 1.08-2.48 1.2-4.5 2.58-4.5 3.06s1.93 1.9 4.29 3.15c3.9 2.07 4.83 2.18 10.25 1.22 3.28-.57 6.31-.71 6.74-.3 1.34 1.28-.31 3.87-2.88 4.52l-2.45.61 2.74 2.36c2.32 2 2.54 2.6 1.45 3.92-.98 1.19-1.89 1.33-3.78.62-1.37-.52-2.64-.95-2.82-.95-.19 0-.27 1.45-.19 3.21.21 4.57-2.67 4.96-4.29.59-3.06-8.24-4.1-9.78-7.99-11.76-2.19-1.12-4.23-2.04-4.53-2.04s-.54 2.31-.54 5.14c0 4.6.42 5.59 4 9.48 2.2 2.38 4 4.98 4 5.77 0 2.31-2.3 2.47-5 .36l-2.5-1.95Zm91-484.18c0 2.66-3.02 2.69-3.71.04-.6-2.3-1.39-2.5-3.09-.8-.82.82-1.52.88-2.23.17-.7-.7-.07-2.23 2-4.84 2.02-2.53 3.03-4.93 3.03-7.17 0-3.87-.19-3.95-4.08-1.65-1.8 1.06-3.4 3.23-4.24 5.75-1.44 4.32-4.23 5.56-4.1 1.81.06-1.81-.34-2.12-2.14-1.66-3 .75-4.27-1.53-1.85-3.3 1.64-1.2 1.69-1.52.41-2.33-.83-.52-1.93-.96-2.46-.96-.53-.01-.31-.68.5-1.48 1.12-1.11 2.37-1.24 5.39-.56 3.88.88 9.57-.81 9.57-2.84 0-1.75-4.98-3.31-9.52-2.99-3.31.24-4.92-.06-5.24-.97-.25-.73.48-1.55 1.63-1.86l2.08-.54-2.13-1.73c-2.64-2.13-1.59-4.28 1.67-3.46 2.03.51 2.29.29 1.82-1.5-.41-1.59-.08-2.09 1.42-2.09 1.41 0 2.28 1.1 3.15 3.99.82 2.73 2.12 4.48 4.11 5.5 3.96 2.05 4.01 2.03 4.01-2.3 0-2.93-.69-4.48-3-6.69-3.78-3.62-3.81-4.91-.1-4.17 2.31.46 2.99.18 3.4-1.38.28-1.07 1.05-1.95 1.7-1.95s1.42.88 1.7 1.95c.41 1.56 1.09 1.84 3.4 1.38 3.71-.74 3.68.55-.1 4.17-2.31 2.21-3 3.76-3 6.69 0 4.33.05 4.35 4.01 2.3 1.99-1.02 3.29-2.77 4.11-5.5.87-2.89 1.74-3.99 3.15-3.99 1.47 0 1.83.5 1.44 2-.43 1.66-.14 1.9 1.78 1.41 3.06-.76 4.13 1.24 1.95 3.65-1.59 1.77-1.6 1.94-.09 1.94.98 0 1.65.81 1.65 2 0 2.26-.09 2.28-5.32 1.06-2.96-.68-4.49-.51-6.75.78-3.66 2.08-3.66 2.73.04 4.65 2.26 1.17 3.94 1.32 7.01.63 4.56-1.03 6.06.06 3.71 2.69-1.3 1.46-1.31 1.87-.07 3 1.93 1.77.68 3.48-2.06 2.8-1.8-.46-2.2-.15-2.14 1.66.13 3.75-2.63 2.51-4.24-1.9-1.28-3.51-5.25-7.37-7.58-7.37-.33 0-.6 1.63-.6 3.62 0 2.61.85 4.59 3.08 7.12 3.37 3.84 2.81 6.34-.97 4.32-1.82-.98-2.11-.86-2.11.9m447.82 381.23c-.57 3.84-3.82 3.4-3.82-.51 0-1.92-.07-1.93-1.98-.2-1.84 1.67-2.02 1.68-2.63.1-.42-1.1.28-2.67 1.98-4.44 1.87-1.96 2.63-3.82 2.63-6.44 0-4.19-.07-4.23-3.87-2.27-1.79.93-3.24 2.87-4.11 5.5-1.4 4.26-4.02 5.56-4.02 2 0-1.61-.44-1.93-2-1.43-2.82.89-3.96-2.33-1.47-4.14 1.59-1.17 1.62-1.36.22-1.36-.9 0-1.93-.49-2.3-1.09-1.24-2 1.09-2.97 5.12-2.13 2.92.61 4.64.42 6.67-.73 3.39-1.91 3.43-2.57.25-4.65-2.01-1.32-3.27-1.45-6.4-.65-5.15 1.31-7.5-.06-4.34-2.51 2.25-1.75 2.25-1.76.21-3.03-2.56-1.6-1.5-3.55 1.62-2.95 1.9.36 2.3.05 2.13-1.66-.38-3.81 2.72-2.31 4.23 2.05 1.04 3.02 2.34 4.59 4.75 5.74l3.31 1.58v-3.55c0-2.25-.92-4.76-2.5-6.83-1.38-1.8-2.5-3.8-2.5-4.43 0-1.51 2.67-1.5 3.61.01.48.78.99.44 1.52-1 1.01-2.74 3.87-2.86 3.87-.17 0 2.27 1.04 2.56 2.8.8.93-.93 1.47-.93 2.4 0s.48 1.93-2 4.5c-2.43 2.5-3.2 4.19-3.2 7 0 4.21.37 4.37 4.42 1.92 1.91-1.16 3.3-3.14 4.03-5.74.7-2.52 1.79-4.09 2.97-4.32 1.51-.29 1.76.12 1.36 2.22-.44 2.27-.22 2.52 1.75 2.02 2.92-.73 4.35 1.49 2.04 3.17-1.62 1.19-1.6 1.35.38 2.4 3.38 1.81 1.29 3.32-3.82 2.74-4.11-.46-10.13 1.22-10.13 2.83 0 .27 1.38 1.33 3.07 2.35 2.41 1.47 3.84 1.69 6.75 1.01 2.02-.47 4.02-.86 4.43-.88 1.42-.04.75 3.04-.79 3.63-1.38.53-1.37.8.09 2.41 2.11 2.32 1.01 4.12-2.04 3.35-2.03-.51-2.29-.29-1.82 1.5.84 3.22-2.51 2.64-3.82-.66-1.95-4.94-2.54-5.73-5.73-7.59l-3.14-1.84.02 3.84c.01 2.82.8 4.73 3 7.23 1.64 1.86 2.98 3.7 2.98 4.08 0 1.69-1.51 1.92-3.6.55-2.1-1.37-2.29-1.32-2.58.67M705 450c0 1.11-.67 2-1.5 2s-1.5-.89-1.5-1.98c0-1.66-.48-1.87-3-1.37-1.65.33-3 .18-3-.34 0-.51 1.35-2.23 3-3.81 2.31-2.21 3-3.76 3-6.69 0-4.31-.06-4.35-3.93-2.35-1.69.88-3.47 3.07-4.44 5.5-1.72 4.29-5.36 5.93-4.31 1.94.44-1.68.17-2-1.35-1.6-3.04.79-4.49-1.83-1.98-3.58l2.09-1.47-2.04-.53c-1.12-.29-2.04-1.08-2.04-1.76 0-.86 1.38-1.06 4.75-.68s5.55.06 7.5-1.09c1.51-.89 2.75-1.9 2.75-2.24 0-1.58-5.21-3.12-9.53-2.8-5.06.37-7.37-1.41-3.44-2.66l2.14-.68-2.09-2.23c-2.42-2.57-1.79-3.8 1.5-2.97 1.93.48 2.2.25 1.73-1.52-1.04-3.98 2.61-2.34 4.32 1.95.97 2.43 2.75 4.62 4.44 5.5 3.81 1.97 3.93 1.92 3.93-1.65 0-1.97-1.14-4.55-3.14-7.06-2.33-2.95-2.84-4.25-2-5.09.85-.85 1.44-.84 2.34.06 1.76 1.76 2.8 1.47 2.8-.8 0-2.89 2.85-2.46 3.6.55.6 2.37.76 2.43 2.42.93 3-2.72 3.42.25.57 4-1.67 2.18-2.59 4.66-2.59 6.95v.1c0 1.97 0 2.94.44 3.22.42.27 1.26-.11 2.9-.86l.09-.04c1.56-.71 3.15-2.8 4.18-5.5 1.71-4.47 4.39-5.91 4.39-2.35 0 1.47.67 2 2.5 2 2.85 0 3.21 1.16.94 3.05-1.42 1.18-1.42 1.38 0 2.17.86.49 1.56 1.51 1.56 2.28 0 1.09-1.08 1.28-4.84.83-4.76-.56-9.16.72-9.16 2.68 0 1.97 5.61 3.85 9.81 3.29 3.44-.46 4.19-.27 4.19 1.07 0 .9-.74 1.63-1.65 1.63-1.51 0-1.5.17.09 1.94 2.1 2.31 1.34 4.08-1.44 3.35-1.53-.4-2-.03-2 1.59 0 3.55-2.91 2.39-4.59-1.82-1.88-4.68-6.16-8.06-7.52-5.92-1.56 2.46-.93 5.02 2.18 8.95 3.26 4.11 3.22 6.67-.06 4.91-2.63-1.4-3.01-1.27-3.01 1M277.41 644.92c-2.05 2.44-3.35 3.07-6.25 3.02-5.54-.1-8.1-1.54-9.75-5.51-4.17-9.96 8.03-18.14 15.67-10.51 3.83 3.83 3.95 8.7.33 13m73.79-186.97c-7.23 7.23-19.33.05-16.15-9.59 1.41-4.27 4.4-6.36 9.12-6.36 5.18 0 8.79 3.3 9.52 8.7.5 3.73.21 4.55-2.49 7.25m45.55-283.5c-5.58 6.34-16.63 2.29-16.72-6.12-.04-3.98 3.97-8.95 7.92-9.82 3.37-.74 8.46 1.51 10.02 4.43 1.78 3.33 1.21 8.75-1.22 11.51m435.33 528.63c-2.09 2.08-3.88 2.91-6.25 2.89-6.35-.06-9.75-3.4-9.8-9.63-.02-3.44.5-4.61 3.05-6.75 4.3-3.62 9.17-3.5 13 .33 2.16 2.17 2.92 3.87 2.92 6.58s-.76 4.41-2.92 6.58M496.42 248.62c.32-1.58.58-3.28.58-3.77 0-.51 6.86-.78 15.73-.63h.07l15.68.28.04.26.27 3.24.3 3.5h-33.05c.04-.6.08-1.13.13-1.59Zm-26.74-1.05c6.5-.91 12.96-1.84 14.36-2.05l.45-.07c2.06-.29 2.12.04 1.59 3.29l-.59 3.62-12.5 1.79c-6.87.98-13.5 2.03-14.74 2.34-1.55.38-2.25.1-2.25-.91 0-.08.01-.18.01-.3.77-4.14 2-5.55 5.46-6.41 1.8-.37 4.4-.76 8.21-1.3m76.99-1.54c3.58.51 7.67 1.14 11.3 1.72 6.28 1.08 9.53 1.92 10.28 2.65.67 2 1.4 6.57.89 6.48-.35-.06-6.72-1.19-14.14-2.5s-14.06-2.6-14.75-2.85c-.36-.14-.68-.63-.91-1.31l-.34-2.85c.03-2.2.34-2.33 3.53-1.92l.58.08c1.24.17 2.42.34 3.56.5m-126.66 14.34c1.02-1.42 3.03-2.4 6.94-3.6l5.92-1.61c6.76-1.83 12.5-3.12 12.76-2.86.18.18.12 3-.14 6.92l-10.99 3.21c-6.05 1.77-12.01 3.55-13.25 3.96-1.83.61-2.25.37-2.25-1.26 0-.55.01-1.05.04-1.52.06-.21.11-.42.17-.61ZM580.26 252c1.25.02 7.77 1.76 13.76 3.53v.01c5.29 1.62 10.19 3.32 10.8 3.91.09.08.16.17.23.26.27.51.54 1.29.81 2.28.28 2.29-.46 4.9-1.78 4.07-.79-.49-6.19-2.13-12-3.64-5.82-1.51-10.87-3.01-11.22-3.33-.26-.23-.64-1.2-.98-2.39-.13-1.06-.28-1.9-.45-2.45-.07-.26-.13-.5-.17-.71-.08-1.12.22-1.53.98-1.54Zm-172.02 13.72c.11.78-.02 1.92-.32 3.45-.07.36-.13.75-.19 1.18-.56 1.26-1.68 1.93-4.28 3.01-2.41 1-6.43 3.37-8.92 5.27-4.44 3.39-4.53 3.41-4.53 1.12v-.04c.55-2.27 1.29-4.21 2.23-5.88 2.03-2.97 5.2-5.83 8.61-7.45 4.99-2.36 6.99-2.69 7.4-.66M618 263.06c.9.22 2.71 1.03 4.67 2.02 3.5 1.89 7.57 4.59 8.51 5.92 1 1.42 2.02 3.34 2.81 5.14.56 1.42 1.04 2.98 1.44 4.64-.01.24-.07.39-.19.44-.41.18-2.21-1.11-4-2.87-1.79-1.75-5.39-3.99-8-4.97s-5.07-2.25-5.47-2.83c-.08-.11-.15-.25-.22-.41-.06-3.84-.05-6.51.03-7.04.05-.05.11-.07.17-.07.08.01.16.01.25.03M243.34 476.3c-.94-.11-1.77-.29-2.28-.54-.2-.18-.38-.41-.56-.68-.1-.58.23-1.17.81-1.37.81-.28.55-1.17-.81-2.75-1.86-2.16-1.88-2.24 1.14-.05.89.73 1.89 1.4 2.93 1.97 1.16.71 2.22 1.28 2.82 1.5 1.04.36 1.61.95 1.27 1.29-.4.4-1.46.63-2.69.7-.62-.19-1.32-.25-2.09-.14-.19.03-.37.05-.54.07m2.16-21.3c-.84-1.35.29-3 2.06-3 .79 0 1.44.9 1.44 2 0 2.07-2.41 2.76-3.5 1m-10.81 24.35c-1.42-1.41-.62-3.35 1.38-3.35 1.4 0 1.97.54 1.75 1.67-.35 1.84-2.06 2.76-3.13 1.68m-126.2 85.85c.23-.23.58-.47 1.03-.77.97-.66 1.87-1.27 2.73-1.85.49-.21.54-.05.1.5-.64.78-1.31 2.46-1.5 3.73-.2 1.28-.4 1.78-.84 1.63-1.28-1.35-1.87-2.04-1.88-2.57.04-.22.16-.44.36-.67m139.26-104.3c-.1-.04-.69-.22-1.47-.45-.26-.09-.51-.16-.75-.23-.08-.02-.17-.04-.25-.07-1.49-.44-1.96-1.07-1.42-1.93.41-.66 1.2-.86 1.98-.73q.51.225.96.33c.68.37 1.2 1.01 1.2 1.79 0 .76-.11 1.35-.25 1.29m4.76 9.95c-.33.26-.95.31-1.79.15-.07-.52-.15-1.17-.22-1.83-.21-2.12-.09-2.19 1.34-.76.04.05.09.09.13.13.62.78.87 1.39.82 1.82-.05.16-.15.32-.28.49m113.71 70.12c-28.13 31.55-45.29 68.57-50.75 109.49 5.47-41 22.57-77.85 50.89-109.66 5.32-5.97 7.96-8.87 9.22-9.84-2.7 2.72-5.9 6.13-9.36 10.01m435.23 319.92a51.8 51.8 0 0 0-11.42-7.21c1.08.46 2.08.94 2.97 1.41 2.9 1.55 5.75 3.52 8.45 5.8m-21.39-10.63c-3.03-.71-6.18-1.26-7.42-1.26 1.77 0 4.47.49 7.42 1.26"/><path fill="#fff" d="M0 0h1024v1024H0Zm801.45 860.89c-2.7-2.28-5.55-4.25-8.45-5.8-.89-.47-1.89-.95-2.97-1.41a51 51 0 0 0-8.67-3.1c-.43-.11-.86-.21-1.3-.32-2.95-.77-5.65-1.26-7.42-1.26-2.01 0-3.32-1.15-5.97-5.25-4.64-7.2-11.9-14.06-18.69-17.68-6.63-3.53-20.32-7.05-27.48-7.06-4.82-.01-5.1-.17-7.78-4.41-3.89-6.16-10.67-12.12-17.45-15.34-3.17-1.5-5.94-2.83-6.15-2.96-.21-.12 1.71-3.57 4.26-7.66 6.81-10.92 15.93-30.45 20.6-44.12 18.87-55.14 13-120-15.45-170.72-3.09-5.52-5.49-10.15-5.33-10.29 3.09-2.64 46.46-29.51 47.64-29.52 1.59 0 13.31 1.78 39.81 6.05 6.68 1.08 13.4 1.96 14.92 1.96 3.79 0 6.43-2.65 6.43-6.46 0-5.9-1.01-6.36-21.98-10.09-10.69-1.9-19.89-3.45-20.44-3.45-1.9 0 1.96-2.68 20.76-14.4 10.36-6.46 19.36-11.54 20-11.29s8.7 15.02 17.92 32.82c43.08 83.19 47.89 93.32 54.18 94.34.87.14 1.76.1 2.8.06.51-.02 1.07-.04 1.67-.04 5.3 0 7.33-.92 39.59-17.87 18.7-9.83 35.47-19.26 37.27-20.96 3.7-3.5 5.68-9.36 4.68-13.89-.37-1.68-6.3-13.9-13.17-27.16-29.47-56.86-42.03-81.11-50.03-96.61-4.68-9.08-10.41-20.1-12.74-24.5s-9.09-17.45-15.03-29c-5.93-11.55-20.77-40.35-32.98-64s-25.26-48.97-29-56.27c-9.08-17.76-14.25-22-23.85-19.59-1.88.47-19.04 8.96-38.15 18.86-38.25 19.82-39.43 20.68-40.27 29.48-.46 4.74.09 5.98 17.05 38.71 25.84 49.86 41.33 79.67 46.68 89.81 13.08 24.8 25.22 48.64 24.9 48.9-2.44 1.92-35.02 21.77-35.27 21.48-.19-.21 2.29-9.61 5.5-20.88s5.86-21.41 5.88-22.53c.1-6.06-7.9-8.91-11.65-4.15-1 1.27-5.59 15.18-10.2 30.89l-8.38 28.58-17.62 10.99c-9.69 6.05-21.98 13.74-27.31 17.11-5.33 3.36-10.13 6.11-10.67 6.11-.53 0-3.89-3.49-7.45-7.75-3.57-4.26-10.38-11.53-15.13-16.16l-8.64-8.4.65-4.34c.96-6.38-.13-10.36-4.77-17.48-3.97-6.1-4.18-6.81-4.83-16.49-.81-12.26-3.27-18.22-9.09-22.08-4-2.64-4.63-3.72-2.85-4.82 1.85-1.14 11.66-21.76 14.74-30.98 4.21-12.61 6.23-25.71 6.23-40.43-.01-18.09-2.43-31.57-8.75-48.65l-2.99-8.08 2.74-3.68c4.39-5.88 5.33-11.01 4.73-25.91-.62-15.21-2.24-20.63-8.25-27.57-2.06-2.38-5.78-5.31-8.26-6.5-4.26-2.06-4.75-2.74-8.77-12.18-13.67-32.1-33.59-54.95-59.72-68.5-5.63-2.92-10.34-5.38-10.46-5.47-.13-.09.65-1.92 1.75-4.06 2.62-5.15 2.62-13.29-.01-18.44-1.09-2.14-2.39-4.14-2.88-4.45-.5-.31-1.22-2.23-1.6-4.27-1.72-9.17-8.26-15.63-17.2-17-2.11-.32-4.52-1.18-5.37-1.91-2.59-2.24-8.71-4.4-12.46-4.4-3.72 0-9.82 2.14-12.46 4.38-.85.71-4.13 1.85-7.3 2.53-3.35.72-7.08 2.34-8.89 3.87-3.27 2.75-6.78 9.27-6.85 12.72-.02 1.1-1.37 3.96-2.99 6.37-1.63 2.4-3.27 5.98-3.64 7.96-.79 4.2 1.01 11.81 3.44 14.55 1.23 1.39 1.35 2.03.46 2.34-5.02 1.76-20.06 9.96-26.07 14.22-18.97 13.46-36 36.19-46.25 61.73-2.93 7.29-3.69 8.36-7.12 9.91-5.62 2.53-12.17 10.04-14.79 16.97-1.94 5.1-2.27 7.95-2.34 19.95-.08 15.14.66 18.21 5.83 24.36l2.61 3.1-4.04 11.77c-5.73 16.67-7.47 28.99-6.84 48.24.43 13.06 1 17.37 3.57 27.14 3.51 13.3 10.33 29.38 16.18 38.14l4.02 6.03-3.94 3.37c-4.74 4.06-6.7 9.52-7.44 20.75-.46 6.95-.94 8.5-4.03 13-5.15 7.48-6.78 12.05-6.57 18.47l.19 5.63-12.71 12.8-12.72 12.81-9.15-5.56c-5.04-3.06-13.66-8.39-19.16-11.84l-10-6.27-3.16-9.97c-1.74-5.48-5.71-18.52-8.83-28.97-5.72-19.16-7.3-22.5-10.66-22.5-1.02 0-1.85-.19-1.85-.43 0-.23 14.4-25.63 32-56.43s32-56.9 32-58c0-2.43-5.61-7.33-17.5-15.28-16.76-11.21-37.98-19.99-60.5-25.02-9.45-2.11-12.95-2.34-35-2.34-21.87 0-25.67.25-35.38 2.33-22.18 4.75-42.81 13.43-61.62 25.92-14.04 9.33-34.2 29.01-44.3 43.25-13.92 19.63-26.15 49.16-29.6 71.5-3.39 21.9-3.52 34.89-.54 56.25 6.65 47.64 34.76 91.56 76.44 119.41 11.9 7.95 30.85 17.62 36.26 18.5 3.3.53 3.8.29 5.7-2.79 1.14-1.85 17.93-31.15 37.31-65.1s35.63-61.74 36.12-61.75c.7-.02 29.94 18.16 31.53 19.6 1.03.94-1.77 1.58-19.99 4.57-16.31 2.68-19.76 3.55-21.67 5.46-3.01 3.01-2.85 5.9.49 9 .69.64 1.11 1.14 1.64 1.49 1.68 1.11 4.38.67 19.88-1.84 1.6-.26 3.34-.55 5.23-.85 8.8-1.42 20.04-3.21 24.98-3.98l8.99-1.39 13.51 8.63c7.44 4.75 13.92 8.97 14.41 9.4.48.42-1.37 4.28-4.12 8.58-21.39 33.37-32.46 71.89-32.55 113.31-.09 40.14 10.11 76.49 30.87 110.06 2.97 4.81 5.41 9.18 5.41 9.71s-1.69 1.2-3.75 1.49c-8.55 1.2-15.48 4.83-22.22 11.64-3.59 3.63-7.3 8.06-8.23 9.85-1.43 2.72-2.27 3.25-5.2 3.25-5.47 0-13.59 1.99-19.59 4.8-5.93 2.78-16.38 12.54-19.21 17.95-1.42 2.71-2.28 3.25-5.15 3.25-4.64 0-16.13 3.59-21.65 6.76-4.32 2.49-8.56 6.03-12.34 10.14-2.74 2.75-5.13 5.49-6.48 7.6-1.41 2.2-3.57 6.45-4.8 9.44l-2.23 5.45-10.47 1.76c-13.7 2.31-29.76 6.41-35.32 9.02-11.23 5.28-5.99 11.08 14.64 16.18 61.31 15.18 257.72 23.89 432 19.17 130.2-3.53 215.61-11.21 246.14-22.11 11.04-3.95 13.26-6.82 8.61-11.16-4.05-3.79-15.58-6.94-43.28-11.82-1.46-.26-2.57-1.95-3.96-6.02-1.58-4.66-4.3-9.43-7.71-13.81a53.8 53.8 0 0 0-8.35-8.71m-141.2-295.86c-.16.65-.25 1.29-.25 1.91 0 .41.03.81.09 1.19.1 1.96.92 3.08 3.42 5.58 2.04 2.04 3.27 3.86 2.73 4.04-.56.19.27 4.29 1.93 9.54 6 19.02 7.23 28 7.28 53.21.05 23.27-.54 29.26-4.48 45.5-2.92 12.07-8.4 27.06-13.87 37.99-4.94 9.88-17.6 29.83-22.28 35.14-1.28 1.44-4.11 4.77-6.29 7.39-4.33 5.19-11.3 11.99-16.03 15.62-1.65 1.27-3.45 2.81-4 3.42-4.4 4.88-25 18.64-37 24.73-27.19 13.78-51.1 19.61-83 20.23-10.45.2-22.03-.06-25.74-.57-35.84-4.99-69.89-19.52-96.75-41.31-9.85-7.98-24.5-23.01-31.71-32.53-3.18-4.19-6.32-7.96-7-8.39-.66-.42-1.79-3.02-3.11-6.88-.72-2.14-1.4-4.3-2.06-6.49-1.65-5.62-3.37-12.29-4.69-18.57-.04-.2-.08-.4-.13-.6-3.49-17.14-4.32-46.05-1.85-64.68l.01-.02v-.02c5.46-40.92 22.62-77.94 50.75-109.49 3.46-3.88 6.66-7.29 9.36-10.01 1.01-.77 1.14-.33 1.06.77-.27 3.38 21.57 15.88 40.36 23.1 27.94 10.74 54.36 15.76 87.38 16.61 8.12.2 14.9.53 15.07.72.95 1.07-1.78 43.72-3.64 56.84-1.2 8.53-2.21 18.14-2.25 21.36-.06 5.56.13 6.04 3.67 9.09 4.09 3.54 8.55 4.8 23.65 6.68l9.39 1.17-.64 7.6c-.1 1.18-.19 2.3-.28 3.36v.01c-1.42 16.87-1.66 19.7-.45 21.59.32.5.74.94 1.27 1.55 2.35 2.73 2.75 2.83 11.09 2.69 25.14-.43 79.03-8.1 87.43-12.44 7.96-4.11 8.77-7.76 8.73-39.16-.05-35.57-2.19-51.97-13.44-103.29-1.16-5.29-.85-8.21.87-8.21 1.12 0 8.16 10.77 11.23 17.16 1.22 2.56 2.74 4.46 3.35 4.23.66-.26.93.62.82 2.64M386.3 371.68c.18-3.41.47-6.85.87-10.23v-.05c.63-5.15 1.51-10.24 2.47-14.46.65-2.78 1.38-5.36 2.18-7.65.81-2.09 1.58-3.16 2.21-2.77.43.27 6.12-1.32 12.63-3.54 52.23-17.74 101.87-22.2 155.41-13.95 12.93 1.99 41.02 8.73 47.26 11.33l3.51 1.47.33 8.34c2.47 62.67-43.69 116.61-107.67 125.79-9.47 1.36-27.45 1.14-36-.43-16.55-3.04-31.79-8.2-43.5-14.72-6.19-3.45-18.01-11.73-22.4-15.69-2.52-2.27-2.82-2.35-2.25-.62 1.57 4.79-2.39-2.03-5.45-9.39-.39-.95-.78-1.89-1.15-2.83-2.85-7.27-5.14-14.97-6.67-22.56-1.68-8.91-2.22-17.95-1.78-28.04m-61.08 478.21c-.68.53-1.18 1.02-1.44 1.43-.78 1.23-.98 2.63-.69 3.88.25 1.27 1.06 2.37 2.38 2.97h.01c2.13.97 3.5.61 9.87-2.63 9.11-4.62 17.38-5.63 25.88-3.16 3.07.89 5.83 1.62 6.13 1.62.31 0 3.4-2.85 6.87-6.34 9.83-9.88 21.25-14.61 35.27-14.61 13.26 0 23.16 3.93 32.99 13.1 3.33 3.11 6.72 5.8 7.54 5.98.81.17 3.95-.91 6.97-2.4 7.61-3.75 15.35-5.04 22.96-3.81 8.24 1.32 13.83 4.3 20.18 10.72 2.91 2.95 5.75 5.36 6.32 5.36.56 0 4.28-1.61 8.25-3.57 12.57-6.21 36.43-9.36 48.79-6.44 5.71 1.35 7.19.55 10.03-5.47 3.2-6.76 8.91-12.67 15.69-16.23 4.63-2.43 6.38-2.77 14.28-2.78 11.07 0 15.65 1.85 24.39 9.89 3.35 3.08 6.43 5.6 6.85 5.6.42-.01 3.46-1.12 6.76-2.48 4.76-1.96 7.78-2.48 14.59-2.5 7.62-.02 9.29.33 14.76 3.06 3.91 1.95 7.67 4.87 10.26 7.93 4.66 5.53 6.24 6.41 8.96 4.95 1.31-.7 1.93-2.1 1.93-4.35 0-.24-.02-.49-.05-.73-.18-1.85-.9-3.85-2.15-5.5l-2.2-2.88 2.18 1.89c1.96 1.7 2.62 1.76 6.71.61 2.71-.75 7.35-1.07 11.5-.77 5.59.4 7.71 1.05 10.74 3.3 6.06 4.49 9.48 8.54 12.84 15.18 2.06 4.07 2.91 4.31 14.43 4.04 8.56-.21 10.05.04 15.06 2.49 6.47 3.17 8.74 5.42 12.32 12.25 2.67 5.09 3.35 8.51 1.7 8.51-.51 0-5.57-2.81-11.25-6.25-13.15-7.96-16.24-8.16-28.65-1.93-4.57 2.3-8.79 4.18-9.37 4.18-.57 0-2.58-1.35-4.46-2.99-4.56-4.01-9.7-6.52-16.38-8-7.44-1.65-16.95-.15-32.34 5.13-10.51 3.6-12.67 4.02-19 3.67-8.95-.51-15.55-3.64-24.93-11.85-3.74-3.27-8.02-6.29-9.5-6.7-1.49-.42-6.3-.74-10.7-.72-9.49.06-14.99 2.23-27.44 10.86-10.37 7.18-16.58 10.28-24.29 12.09-10.89 2.57-44.45 1.45-61.35-2.04-7.84-1.62-15.42-4.74-15.42-6.35 0-.47-1.8-2.71-4-4.98-3.32-3.42-4.65-4.12-7.84-4.12-3.21 0-4.84.86-9.75 5.16-10.32 9.03-23.73 13.41-38.41 12.54-6.4-.38-12.21-1.68-23.5-5.28-18.22-5.81-23.17-6.09-35.5-2.03-4.67 1.53-10.91 3.89-13.85 5.23-7.98 3.64-14.51 4.73-24.13 4.01-9.69-.72-14.61-1.83-31.52-7.1-17.3-5.4-21.11-6.37-29.55-7.53-9.65-1.33-19.75.46-30.41 5.39-6.72 3.1-7.81 4-9.54 7.81-1.08 2.36-1.97 3.72-1.98 3.02-.05-3 5.54-12.05 10.46-17.13.21-.21.42-.41.62-.61 7.58-7.23 16.74-11.57 25.7-12.17 8.77-.6 10.33-1.47 13.13-7.37 2.94-6.19 9.53-12.34 16.89-15.75 4.31-2 7.86-2.76 14.68-3.16l9-.53 3.26-6.17c6.04-11.41 15.05-17.41 28.49-18.95 3.08-.35 4.54-.47 5.61-.03.83.35 1.42 1.05 2.35 2.26 1.21 1.59 5.3 6.11 9.07 10.04s6.49 7.33 6.04 7.56c-.45.22-3.97.51-7.82.64-10.12.34-16.74 2.66-22.61 7.94-4.61 4.14-8.21 9.23-8.34 11.78-.02.49-.59 1.45-1.33 2.32M159.45 545.75c-11.45-12.7-20.37-28.53-24.91-44.21-3.89-13.41-4.83-21.55-4.25-36.54.99-25.63 9.93-48.33 26.75-67.89 13.95-16.23 34.74-29.27 55.46-34.78 8.8-2.34 11.98-2.67 26.5-2.74 12.8-.07 18.29.33 24.5 1.77 4.4 1.03 8.3 2.04 8.66 2.25.36.22-8.55 16.48-19.81 36.14l-20.47 35.75-5.87-.34c-12.55-.73-22.84 4.81-27.95 15.05-4.98 9.95-3.85 21.47 2.93 29.92l2.91 3.63-18.08 31.37c-9.94 17.25-18.54 32.38-19.11 33.62s-1.37 2.25-1.78 2.25-2.87-2.36-5.48-5.25m359.9-135.09c4.52-2.74 9.2-9.29 10.76-15.07 1.6-5.89.63-17.26-1.88-22.16-2.48-4.84-9.15-11.12-12.77-12.03-1.42-.36-4.31-.41-6.43-.13-7.54 1.01-82.37 21.18-84.18 22.69-1.01.85-2.12 2.98-2.46 4.75-.52 2.66-.13 3.69 2.24 6.04 2.61 2.58 4.89 3.23 24.87 7.1 12.1 2.34 29.65 5.77 39 7.61 20.96 4.14 25.69 4.32 30.85 1.2M685.8 245.8c.66-.66 1.2-2.7 1.2-4.53v-3.33l2.93 2.16c3.16 2.34 6.07 1.99 6.07-.71 0-.93-2.03-3.85-4.5-6.49-4.38-4.69-4.5-4.98-4.5-11.36 0-3.6.34-6.54.75-6.53.41 0 3.03 1.32 5.81 2.91 4.68 2.69 5.19 3.36 6.73 8.9 1.98 7.13 4.17 9.87 6.41 8.01 1.01-.84 1.32-2.3.96-4.53-.58-3.6-.06-3.89 3.83-2.12 2.13.97 2.87.89 4.21-.45 1.5-1.5 1.37-1.86-1.66-4.69l-3.28-3.06 3.04-1.06c1.67-.58 3.32-1.78 3.65-2.66 1.17-3.05-1.04-3.61-8.9-2.27l-7.56 1.29-4.65-2.89c-2.57-1.59-4.66-3.34-4.66-3.89s2.22-2.21 4.95-3.7l4.94-2.7 6.83 1.56c6.19 1.41 6.96 1.41 8.39-.02 1.43-1.44 1.41-1.76-.26-3.61-1.01-1.12-2.75-2.03-3.87-2.03-1.89 0-1.84-.2.65-2.8 3.49-3.64 3.54-6.2.12-6.2-1.41 0-3.4.45-4.44 1-1.7.92-1.85.62-1.68-3.25.17-3.9-.01-4.25-2.27-4.25-2.17 0-2.71.82-4.64 7-2.06 6.64-2.46 7.16-7.54 10.16l-5.36 3.17-.3-6.45c-.29-6.39-.25-6.51 4.34-11.87 4.65-5.45 5.45-8.7 2.29-9.3-.91-.18-2.81.94-4.24 2.47l-2.59 2.8v-3.16c0-4.35-.91-6.32-2.91-6.32-2.49 0-4.09 2.03-4.09 5.2 0 2.93-1.67 3.82-2.61 1.38-1.14-2.98-6.39-2.88-6.39.12 0 .81 2.03 3.85 4.5 6.75 4.27 5 4.5 5.58 4.5 11.41 0 3.38-.34 6.14-.75 6.13-.41 0-3.01-1.3-5.77-2.89-4.7-2.7-5.16-3.32-7.32-10.05-2.01-6.23-2.6-7.13-4.49-6.86-1.84.26-2.16.93-2.09 4.46l.08 4.15-3.28-1.56c-2.69-1.28-3.56-1.33-4.83-.28-2.34 1.94-1.88 3.73 1.45 5.7 1.65.97 3 2.03 3 2.35s-1.46 1.01-3.25 1.53c-3.73 1.1-4.75 3.85-1.99 5.33 1.33.71 3.84.57 8.43-.48l6.54-1.49 4.81 2.83c2.65 1.55 4.96 3.26 5.13 3.8.18.53-2.09 2.27-5.03 3.86-5.27 2.84-5.45 2.86-11.86 1.59-3.59-.71-7.25-1.01-8.15-.67-2.76 1.06-1.81 3.72 1.87 5.25 1.92.81 3.5 1.67 3.5 1.93 0 .25-1.35 1.16-3 2.01-3.43 1.77-4 5.05-1.05 5.98 1.07.34 3.25-.05 4.83-.87l2.88-1.49-.08 4.19c-.07 3.57.24 4.24 2.09 4.5 1.89.27 2.48-.62 4.47-6.8 2.15-6.7 2.58-7.27 7.44-10.06 2.84-1.62 5.45-2.95 5.79-2.95.35 0 .63 2.9.63 6.44 0 6.24-.13 6.58-4.5 11.25-4.67 5.01-5.5 8.5-2.16 9.14 1.01.19 2.92-.67 4.25-1.91l2.41-2.27v3.63c0 2.39.59 3.97 1.75 4.64 2.27 1.32 2.62 1.31 4.05-.12M244 763.14l.5-3.34 2.5 1.95c2.7 2.11 5 1.95 5-.36 0-.79-1.8-3.39-4-5.77-3.58-3.89-4-4.88-4-9.48 0-2.83.24-5.14.54-5.14s2.34.92 4.53 2.04c3.89 1.98 4.93 3.52 7.99 11.76 1.62 4.37 4.5 3.98 4.29-.59-.08-1.76 0-3.21.19-3.21.18 0 1.45.43 2.82.95 1.89.71 2.8.57 3.78-.62 1.09-1.32.87-1.92-1.45-3.92l-2.74-2.36 2.45-.61c2.57-.65 4.22-3.24 2.88-4.52-.43-.41-3.46-.27-6.74.3-5.42.96-6.35.85-10.25-1.22-2.36-1.25-4.29-2.67-4.29-3.15s2.02-1.86 4.5-3.06c4.02-1.96 5.05-2.07 9.75-1.08 4.21.89 5.53.84 6.66-.25 1.16-1.11 1.19-1.64.13-2.91-.71-.85-1.9-1.55-2.66-1.55-1.96 0-1.71-.91.79-2.93 1.45-1.18 1.94-2.35 1.48-3.53-.65-1.71-1.83-1.73-5.81-.08-1.36.56-1.62.09-1.5-2.64.13-2.66-.22-3.32-1.76-3.32-1.44 0-2.38 1.41-3.81 5.7-1.66 4.96-2.5 6.04-6.46 8.25-2.51 1.4-4.73 2.55-4.94 2.55-.2 0-.37-2.33-.37-5.19 0-4.61.45-5.72 4.09-10.03 3.96-4.69 4.59-7.78 1.6-7.78-.76 0-2.24.95-3.29 2.11l-1.9 2.12-.5-3.37c-.38-2.53-1-3.36-2.5-3.36-1.44 0-2.09.77-2.32 2.75-.35 3.08-1.34 3.47-3.18 1.25-.68-.83-1.88-1.5-2.65-1.5-3.03 0-2.41 3.07 1.56 7.78 3.51 4.17 4.09 5.51 4.09 9.53 0 5.44-1 5.83-6.1 2.4-2.31-1.55-4.1-4.04-5.58-7.75-1.53-3.81-2.74-5.46-4-5.46-1.44 0-1.77.68-1.56 3.29.24 3.03.1 3.2-1.79 2.19-2.13-1.13-5.97-.48-5.97 1.02 0 1.15 2.9 4 4.07 4 .51 0 .93.45.93 1s-.84 1-1.88 1c-2.31 0-4.54 2.51-3.59 4.05.48.77 2.84.92 7.52.44 6.18-.62 7.22-.44 11.04 1.84l4.22 2.51-3.41 2.1c-4.82 2.98-7.13 3.39-12.57 2.22-3.21-.68-5.2-.68-6-.02-1.76 1.47-.58 3.58 2.43 4.34l2.61.65-2.94 2.43c-2.82 2.34-2.86 2.49-1.04 3.9 1.33 1.03 2.42 1.18 3.68.5 2.61-1.39 2.74-1.28 2.58 2.25-.11 2.28.34 3.32 1.52 3.56 1.26.26 2.24-1.18 3.88-5.7 1.91-5.22 2.82-6.39 6.71-8.56 2.47-1.38 4.66-2.51 4.87-2.51.2 0 .37 2.3.37 5.11 0 4.53-.47 5.68-4.15 10.07-3.82 4.56-4.02 5.08-2.53 6.57s1.76 1.48 3.48-.07c2.5-2.26 3.2-2.12 3.2.65 0 5.02 4.24 4.86 5-.19m291-319.11c13.08-3.76 28-12.89 28-17.14 0-6.32-4.39-6.46-13.39-.43-18.25 12.24-45.6 13.9-66.44 4.03-4.03-1.91-8.6-4.37-10.15-5.48-5.53-3.93-12.24-1.44-10.54 3.92 1.47 4.64 18.8 13.12 34.02 16.65 8.78 2.03 28.84 1.23 38.5-1.55M335 278.96c0-1.76.29-1.88 2.11-.9 3.78 2.02 4.34-.48.97-4.32-2.23-2.53-3.08-4.51-3.08-7.12 0-1.99.27-3.62.6-3.62 2.33 0 6.3 3.86 7.58 7.37 1.61 4.41 4.37 5.65 4.24 1.9-.06-1.81.34-2.12 2.14-1.66 2.74.68 3.99-1.03 2.06-2.8-1.24-1.13-1.23-1.54.07-3 2.35-2.63.85-3.72-3.71-2.69-3.07.69-4.75.54-7.01-.63-3.7-1.92-3.7-2.57-.04-4.65 2.26-1.29 3.79-1.46 6.75-.78 5.23 1.22 5.32 1.2 5.32-1.06 0-1.19-.67-2-1.65-2-1.51 0-1.5-.17.09-1.94 2.18-2.41 1.11-4.41-1.95-3.65-1.92.49-2.21.25-1.78-1.41.39-1.5.03-2-1.44-2-1.41 0-2.28 1.1-3.15 3.99-.82 2.73-2.12 4.48-4.11 5.5-3.96 2.05-4.01 2.03-4.01-2.3 0-2.93.69-4.48 3-6.69 3.78-3.62 3.81-4.91.1-4.17-2.31.46-2.99.18-3.4-1.38-.28-1.07-1.05-1.95-1.7-1.95s-1.42.88-1.7 1.95c-.41 1.56-1.09 1.84-3.4 1.38-3.71-.74-3.68.55.1 4.17 2.31 2.21 3 3.76 3 6.69 0 4.33-.05 4.35-4.01 2.3-1.99-1.02-3.29-2.77-4.11-5.5-.87-2.89-1.74-3.99-3.15-3.99-1.5 0-1.83.5-1.42 2.09.47 1.79.21 2.01-1.82 1.5-3.26-.82-4.31 1.33-1.67 3.46l2.13 1.73-2.08.54c-1.15.31-1.88 1.13-1.63 1.86.32.91 1.93 1.21 5.24.97 4.54-.32 9.52 1.24 9.52 2.99 0 2.03-5.69 3.72-9.57 2.84-3.02-.68-4.27-.55-5.39.56-.81.8-1.03 1.47-.5 1.48.53 0 1.63.44 2.46.96 1.28.81 1.23 1.13-.41 2.33-2.42 1.77-1.15 4.05 1.85 3.3 1.8-.46 2.2-.15 2.14 1.66-.13 3.75 2.66 2.51 4.1-1.81.84-2.52 2.44-4.69 4.24-5.75 3.89-2.3 4.08-2.22 4.08 1.65 0 2.24-1.01 4.64-3.03 7.17-2.07 2.61-2.7 4.14-2 4.84.71.71 1.41.65 2.23-.17 1.7-1.7 2.49-1.5 3.09.8.69 2.65 3.71 2.62 3.71-.04m447.82 381.23c.29-1.99.48-2.04 2.58-.67 2.09 1.37 3.6 1.14 3.6-.55 0-.38-1.34-2.22-2.98-4.08-2.2-2.5-2.99-4.41-3-7.23l-.02-3.84 3.14 1.84c3.19 1.86 3.78 2.65 5.73 7.59 1.31 3.3 4.66 3.88 3.82.66-.47-1.79-.21-2.01 1.82-1.5 3.05.77 4.15-1.03 2.04-3.35-1.46-1.61-1.47-1.88-.09-2.41 1.54-.59 2.21-3.67.79-3.63-.41.02-2.41.41-4.43.88-2.91.68-4.34.46-6.75-1.01-1.69-1.02-3.07-2.08-3.07-2.35 0-1.61 6.02-3.29 10.13-2.83 5.11.58 7.2-.93 3.82-2.74-1.98-1.05-2-1.21-.38-2.4 2.31-1.68.88-3.9-2.04-3.17-1.97.5-2.19.25-1.75-2.02.4-2.1.15-2.51-1.36-2.22-1.18.23-2.27 1.8-2.97 4.32-.73 2.6-2.12 4.58-4.03 5.74-4.05 2.45-4.42 2.29-4.42-1.92 0-2.81.77-4.5 3.2-7 2.48-2.57 2.93-3.57 2-4.5s-1.47-.93-2.4 0c-1.76 1.76-2.8 1.47-2.8-.8 0-2.69-2.86-2.57-3.87.17-.53 1.44-1.04 1.78-1.52 1-.94-1.51-3.61-1.52-3.61-.01 0 .63 1.12 2.63 2.5 4.43 1.58 2.07 2.5 4.58 2.5 6.83v3.55l-3.31-1.58c-2.41-1.15-3.71-2.72-4.75-5.74-1.51-4.36-4.61-5.86-4.23-2.05.17 1.71-.23 2.02-2.13 1.66-3.12-.6-4.18 1.35-1.62 2.95 2.04 1.27 2.04 1.28-.21 3.03-3.16 2.45-.81 3.82 4.34 2.51 3.13-.8 4.39-.67 6.4.65 3.18 2.08 3.14 2.74-.25 4.65-2.03 1.15-3.75 1.34-6.67.73-4.03-.84-6.36.13-5.12 2.13.37.6 1.4 1.09 2.3 1.09 1.4 0 1.37.19-.22 1.36-2.49 1.81-1.35 5.03 1.47 4.14 1.56-.5 2-.18 2 1.43 0 3.56 2.62 2.26 4.02-2 .87-2.63 2.32-4.57 4.11-5.5 3.8-1.96 3.87-1.92 3.87 2.27 0 2.62-.76 4.48-2.63 6.44-1.7 1.77-2.4 3.34-1.98 4.44.61 1.58.79 1.57 2.63-.1 1.91-1.73 1.98-1.72 1.98.2 0 3.91 3.25 4.35 3.82.51M705 450c0-2.27.38-2.4 3.01-1 3.28 1.76 3.32-.8.06-4.91-3.11-3.93-3.74-6.49-2.18-8.95 1.36-2.14 5.64 1.24 7.52 5.92 1.68 4.21 4.59 5.37 4.59 1.82 0-1.62.47-1.99 2-1.59 2.78.73 3.54-1.04 1.44-3.35-1.59-1.77-1.6-1.94-.09-1.94.91 0 1.65-.73 1.65-1.63 0-1.34-.75-1.53-4.19-1.07-4.2.56-9.81-1.32-9.81-3.29 0-1.96 4.4-3.24 9.16-2.68 3.76.45 4.84.26 4.84-.83 0-.77-.7-1.79-1.56-2.28-1.42-.79-1.42-.99 0-2.17 2.27-1.89 1.91-3.05-.94-3.05-1.83 0-2.5-.53-2.5-2 0-3.56-2.68-2.12-4.39 2.35-1.03 2.7-2.62 4.79-4.18 5.5l-.09.04c-1.64.75-2.48 1.13-2.9.86-.44-.28-.44-1.25-.44-3.22v-.1c0-2.29.92-4.77 2.59-6.95 2.85-3.75 2.43-6.72-.57-4-1.66 1.5-1.82 1.44-2.42-.93-.75-3.01-3.6-3.44-3.6-.55 0 2.27-1.04 2.56-2.8.8-.9-.9-1.49-.91-2.34-.06-.84.84-.33 2.14 2 5.09 2 2.51 3.14 5.09 3.14 7.06 0 3.57-.12 3.62-3.93 1.65-1.69-.88-3.47-3.07-4.44-5.5-1.71-4.29-5.36-5.93-4.32-1.95.47 1.77.2 2-1.73 1.52-3.29-.83-3.92.4-1.5 2.97l2.09 2.23-2.14.68c-3.93 1.25-1.62 3.03 3.44 2.66 4.32-.32 9.53 1.22 9.53 2.8 0 .34-1.24 1.35-2.75 2.24-1.95 1.15-4.13 1.47-7.5 1.09s-4.75-.18-4.75.68c0 .68.92 1.47 2.04 1.76l2.04.53-2.09 1.47c-2.51 1.75-1.06 4.37 1.98 3.58 1.52-.4 1.79-.08 1.35 1.6-1.05 3.99 2.59 2.35 4.31-1.94.97-2.43 2.75-4.62 4.44-5.5 3.87-2 3.93-1.96 3.93 2.35 0 2.93-.69 4.48-3 6.69-1.65 1.58-3 3.3-3 3.81 0 .52 1.35.67 3 .34 2.52-.5 3-.29 3 1.37 0 1.09.67 1.98 1.5 1.98s1.5-.89 1.5-2m-136.73-89.82c3-1.77 6.73-8.44 6.73-12.03 0-3.35-2.43-8.36-5.36-11.07-3.68-3.38-11.88-3.98-16.34-1.18-4.69 2.95-6.68 6.59-6.68 12.22 0 5.79 2.21 9.3 7.97 12.65 4.34 2.52 8.74 2.33 13.68-.59m-98.54.86c13.58-6.17 9.54-27.04-5.23-27.04-7.53 0-13.57 5.41-14.21 12.72-.56 6.45 2 11.08 7.75 14.03 5.3 2.72 6.28 2.74 11.69.29M287 499.75c-3.58-2.27-8.84-5.6-11.7-7.4l-5.2-3.26 6.57-11.55c3.61-6.35 6.91-11.54 7.33-11.54s1.26 1.91 1.87 4.25 3.08 10.89 5.5 19c2.67 8.96 3.95 14.73 3.27 14.69-.63-.03-4.06-1.92-7.64-4.19m-9.59 145.17c3.62-4.3 3.5-9.17-.33-13-7.64-7.63-19.84.55-15.67 10.51 1.65 3.97 4.21 5.41 9.75 5.51 2.9.05 4.2-.58 6.25-3.02m73.79-186.97c2.7-2.7 2.99-3.52 2.49-7.25-.73-5.4-4.34-8.7-9.52-8.7-4.72 0-7.71 2.09-9.12 6.36-3.18 9.64 8.92 16.82 16.15 9.59m45.55-283.5c2.43-2.76 3-8.18 1.22-11.51-1.56-2.92-6.65-5.17-10.02-4.43-3.95.87-7.96 5.84-7.92 9.82.09 8.41 11.14 12.46 16.72 6.12m435.33 528.63c2.16-2.17 2.92-3.87 2.92-6.58s-.76-4.41-2.92-6.58c-3.83-3.83-8.7-3.95-13-.33-2.55 2.14-3.07 3.31-3.05 6.75.05 6.23 3.45 9.57 9.8 9.63 2.37.02 4.16-.81 6.25-2.89M466 346c-2.16-2.16-2.37-2.92-1.23-4.57 2.16-3.16 8.23-2.09 8.23 1.45 0 1.71-2.88 5.12-4.33 5.12-.37 0-1.57-.9-2.67-2m97.15.4c-2.71-1.91-2.77-5-.11-6.42 3.21-1.72 5.96-.31 5.96 3.05 0 3.82-2.86 5.46-5.85 3.37M327 846.61c0-.22.67-.66 1.5-.97.83-.32 1.5-.14 1.5.39s-.67.97-1.5.97-1.5-.18-1.5-.39"/><path fill="#f0b13e" d="M894.44 581.23c-10.26-19.81-17.65-33.95-25.46-48.73-2.62-4.95-14.54-27.9-26.48-51-11.95-23.1-23.88-46.05-26.5-51-2.63-4.95-10.5-20.02-17.49-33.5-7-13.48-22.8-43.91-35.11-67.63-12.32-23.72-22.4-43.4-22.4-43.73 0-.69 10.07-5.95 10.44-5.46.13.18 4.65 8.87 10.04 19.32s27.34 52.75 48.77 94 42.58 81.98 46.99 90.5 10.38 20 13.25 25.5c2.88 5.5 11.42 21.92 18.99 36.5s16.18 31.1 19.14 36.72c2.96 5.61 5.38 10.67 5.38 11.23s-2.22 2.14-4.93 3.51l-4.93 2.5ZM483.66 165.01c-3.94-4.69-3.66-9.67.84-14.58 2.74-2.99 3.5-4.66 3.5-7.7 0-2.97.7-4.58 2.97-6.85 2.53-2.53 3.65-2.94 7.5-2.74 3.94.2 4.95-.19 7.65-2.95 4.41-4.51 9.85-4.5 14.09.04 2.48 2.65 3.84 3.25 7.65 3.4 2.55.1 4.96.23 5.35.28 2.27.29 4.79 4.82 4.79 8.58 0 3.31.69 4.87 3.5 7.94 4.59 5.02 4.82 10.06.66 14.71-2.83 3.18-2.84 3.18-7.75 1.9-2.12-.56-4.68-.99-7.52-1.3.17-.04.38-.09.61-.15 1.1-.3 2.58-.18 3.29.27 1.04.65 5.88.34 10.97-.7 1.48-.3.9-6.4-.76-8-.95-.91-1.63-2.68-1.53-3.93.11-1.24-.4-2.76-1.14-3.37-.73-.61-1.33-2.59-1.33-4.41 0-2.41-.96-4.32-3.52-7.04-3.38-3.59-3.58-3.66-4.97-1.82-.83 1.09-1.46 4.18-1.48 7.21-.03 5.66-1.58 9.5-6.17 15.34-3.23 4.12-2.64 4.85 3.97 4.88 2.85.01 3.34.24 2.17 1.06-.39.28-.65.47-.76.6-11.09-1.12-26.26-.44-37.33 1.94-2.05.44-3.14-.11-5.25-2.61m385.02 317.74c3.56 6.74 7.06 12.25 7.77 12.25.72 0 1.87-.69 2.57-1.53 1.11-1.33 1.47-1.34 2.87-.08 1.41 1.27 1.88 1.23 3.82-.35 1.21-.98 1.92-2.07 1.58-2.42-.09-.09-.13-.18-.11-.26.12.19.48.5 1.07.97 2.64 2.1 2.22 4.01-.72 3.27-1.84-.46-2.34-.27-1.96.73.76 1.96-2.13 4.19-3.2 2.47-.45-.72-.83-1.94-.84-2.71-.02-.78-.59-1.61-1.28-1.84-2.3-.77-1.47 5.48.95 7.18.66.46 1.15.77 1.59.92-.2.03-.39.04-.57.05-1.86.07-2.62.57-2.4 1.6.17.83 8.01 16.35 17.43 34.5 9.41 18.15 18.43 35.7 20.03 39 1.5 3.07 3.51 6.89 4.68 8.87-1.17-1.98-3.19-5.8-4.68-8.87-1.61-3.3-10.99-21.41-20.85-40.24s-20.4-39.1-23.43-45.04c-1.65-3.23-3.37-6.59-5.13-10 .27.5.54 1.02.81 1.53M838.56 424c.63.73 1.67 1.11 3.51 1.21L844 429c1.15 2.25 2.26 3.62 3.01 3.92-.14.05-.29.08-.45.08-.79 0-1.71.43-2.03.96-.36.58 3.4 8.64 10.56 22.67-6.06-11.54-11.23-21.19-13.49-25.13-2.52-4.4-4.59-8.38-4.59-8.83-.01-.36-3.72-7.79-8.9-17.84 5.54 10.52 9.89 18.52 10.45 19.17m59.4 63.2 1.47-.61-1.43.71c-3.8 1.85-4.58 2.74-5 5.67-.21 1.44-.67 2.62-1.35 3.47.26-.62.28-1.46.16-2.69-.25-2.62-.79-3.3-2.81-3.53-.7-.08-1.19-.12-1.49-.11.2-.07.48-.11.82-.11 1.09 0 1.67-.83 1.67-2.39 0-1.63.79-2.62 3.33-3.93-2.21 1.45-2.86 3.19-1.51 4.54.78.78 2.51.5 6.14-1.02m-52.1-62.07c4.32-.28 5.14-.67 5.14-2.22q0-.525.21-.9c.36.49 1.14 1.27 2.04 2.01 2.09 1.7 2.12 1.88.44 2.54-1 .39-2.93.19-4.3-.43-.95-.43-2.32-.81-3.53-1M818 346.02c0 2.31 2.16 2.55 6.73.73-2.87 1.36-5.73 3.13-5.73 3.86 0 .09-.05.2-.13.33.04-.52-.52-.94-1.62-1.32-.96-.34-2.38-.91-3.16-1.26-.25-.11-.45-.18-.6-.19.28-.02.71.08 1.33.27 1.7.54 2.24.17 2.77-1.92.11-.46.31-.91.6-1.36-.13.29-.19.58-.19.86m86.99 142.14a8 8 0 0 0-.69-.95l-1.66-1.95.38-.16 1.57 2.4c.15.23.28.44.4.66m-91.23-133.54c-2.3 1.3-4.71 2.38-5.73 2.38.55 0 3.09-1.06 5.73-2.38m71.26 146.16c.14-.09.28-.19.43-.3.68-.5 1.67-1.1 2.62-1.62-.58.38-1.11.76-1.5 1.08-.37.31-.92.6-1.55.84m17.65-5.81c2.24-1.41 3.28-3.02 3.09-4.75.28 1.81-.72 3.29-3.09 4.75m-49.87-73.95c.94-.11 2.07.25 2.97 1.15-.63-.63-1.9-1.05-2.97-1.15m43.69 61.11c1.79-.94 2.71-1.67 2.98-2.55-.24.97-1.18 1.71-2.98 2.55M829.94 345c.47 0 1.57 1.39 2.51 2.92-.94-1.51-2.04-2.9-2.53-2.92Z"/><path fill="#f47224" d="M568.33 680.75c.31-1.24 1.1-10.69 1.77-21l1.22-18.75h9.29c12.28 0 29.44-2.32 43.5-5.87 6.26-1.59 11.79-2.65 12.28-2.36 1 .59-.11 33.53-1.28 37.92-.71 2.66-1.46 2.99-13.68 6.06-15.55 3.9-32.29 6.25-44.59 6.25-8.89 0-9.05-.04-8.51-2.25m-4.77-143.37c-1.02-5.43-2.85-13.8-4.06-18.59l-2.21-8.71 4.11-.5c2.25-.27 6.57-.76 9.6-1.08 7.6-.82 24.1-5.22 32.5-8.69 3.85-1.59 7.43-2.98 7.95-3.1.93-.21 9.61 26.36 10.93 33.44l.67 3.65-7.89 3.02c-11.55 4.41-31.36 9.15-41.18 9.84l-8.56.61Zm-73.31 8.9c-2.74-.34-3.18-.76-2.81-2.59.24-1.21.92-4.44 1.5-7.19 2.28-10.81 3.99-24.07 4.66-35.97l.69-12.47 29.6.3.58 3.57c1.47 9.04 2.48 24.92 2.5 39.32L527 547l-16.75-.16c-9.21-.09-18.21-.34-20-.56m17.21-148.5c.03-4.16-.31-5.3-1.67-5.57-1.2-.24-1.9.51-2.32 2.47-.34 1.55-.99 3.77-1.45 4.93l-.85 2.1-9.83-1.88c-13.4-2.56-13.18-2.46-13.53-6.13-.24-2.43-.79-3.2-2.31-3.2-1.44 0-2.09.77-2.32 2.75-.17 1.51-.62 2.75-1 2.75-1.1-.01-26.51-5.01-28.43-5.6-.96-.29-1.75-.9-1.75-1.35 0-.93 7.75-3.05 11.19-3.06 1.27 0 3.66-.72 5.31-1.59s4.46-1.63 6.25-1.69 3.25-.5 3.25-.98c0-.47.9-.58 2-.23s2 .22 2-.28 1.42-.96 3.15-1.01c1.74-.04 3.49-.62 3.89-1.28.41-.65 1.29-.85 1.96-.43s1.57.2 1.99-.48c1.34-2.17 4.92-.13 5.81 3.29.56 2.19 1.5 3.29 3.01 3.51 1.89.27 2.21-.18 2.31-3.25.07-1.96.24-4.02.38-4.57s.31-1.5.38-2.11c.06-.61.79-.84 1.62-.53.83.32 1.5.11 1.5-.46 0-.58.88-.76 2-.4 1.1.35 2 .22 2-.28s1.46-1.04 3.25-1.19c7.57-.65 9.8-.34 11.32 1.55 8.2 10.24 4.26 29.42-6.05 29.42-3.08 0-3.11-.04-3.06-5.22M400.5 522.55c-6.95-3.1-11.26-7.03-12.6-11.47-1.26-4.23.12-8.04 6.31-17.43 2.87-4.34 3.26-5.85 3.81-14.5 1.08-17.16 4.7-20.1 17.75-14.42 4.66 2.03 6.11 3.12 5.66 4.25-.83 2.07-3.02 13.83-4.33 23.3-.67 4.83-2.57 11.28-5.01 17.02-2.17 5.08-4.24 10.47-4.62 11.98-.38 1.5-.98 2.91-1.33 3.12s-2.89-.63-5.64-1.85m152 122.96c-.55-.18-5.44-1.12-10.86-2.1l-9.86-1.77.61-4.07c2.24-14.8 5.37-30.07 6.17-30.04.52.02 5.72.4 11.57.84l10.63.81.51 5.16c.28 2.84.27 11.12-.03 18.41L560.7 646l-3.6-.08c-1.98-.04-4.05-.23-4.6-.41m76.51-128.76c-2.66-10.56-9.61-30.12-14.05-39.52l-4.85-10.3 6.3-3.11c10.59-5.22 13.86-2.67 15.02 11.68 1.02 12.61 1.37 13.89 5.68 20.56 4.79 7.4 5.6 11.11 3.5 16.07-1.62 3.84-6.82 8.87-9.15 8.87-.79 0-1.84-1.81-2.45-4.25M527.5 165.59c-.23.06-.44.11-.61.15l-.65-.06c.11-.13.37-.32.76-.6 1.17-.82.68-1.05-2.17-1.06-6.61-.03-7.2-.76-3.97-4.88 4.59-5.84 6.14-9.68 6.17-15.34.02-3.03.65-6.12 1.48-7.21 1.39-1.84 1.59-1.77 4.97 1.82 2.56 2.72 3.52 4.63 3.52 7.04 0 1.82.6 3.8 1.33 4.41.74.61 1.25 2.13 1.14 3.37-.1 1.25.58 3.02 1.53 3.93 1.66 1.6 2.24 7.7.76 8-5.09 1.04-9.93 1.35-10.97.7-.71-.45-2.19-.57-3.29-.27"/><path fill="#f8d910" d="M874.74 612.91c-.98-.56-3.15-3.76-4.84-7.11-3.37-6.67-3.52-6.23 3.4-9.88 4.07-2.15 5.58-4.44 3.97-6.05-.65-.65-2.9-.05-6.63 1.78-4.92 2.42-5.82 2.58-7.01 1.31-.75-.8-5.79-10.06-11.2-20.58l-9.85-19.11 2.96-2.57c2.39-2.07 2.72-2.81 1.7-3.84-.98-1-1.94-1.03-4.24-.17l-2.96 1.12-4.89-9.15C821.84 513.75 819 508.2 819 507.16c0-.62 2.25-2.27 5-3.66 3.47-1.76 5-3.14 5-4.52 0-2.62-2.9-2.58-8.17.11-3.4 1.73-4.3 1.86-5.35.75-.7-.74-4.99-8.54-9.54-17.34s-8.88-16.89-9.61-17.97c-1.95-2.89-1.65-4.35 1.42-7.01 2.22-1.92 2.51-2.63 1.49-3.66-.98-1-1.94-1.03-4.26-.16-2.89 1.09-3.08.98-5.36-3.03-7.05-12.41-18.62-34.88-18.62-36.16 0-.81 2.25-2.62 5-4.01 8.56-4.34 5.59-8.52-3.14-4.43-5.85 2.74-4.38 4.17-13.5-13.07-3.64-6.88-8.23-15.55-10.21-19.28l-3.6-6.78 2.97-2.4c2.41-1.93 2.74-2.64 1.72-3.68-.99-1-1.94-1.04-4.26-.16-2.53.96-3.14.87-3.87-.53-.48-.92-5.2-9.88-10.49-19.91-5.29-10.04-9.62-18.81-9.62-19.5s2.14-2.38 4.75-3.76c5.12-2.7 6.93-6 3.28-6-1.16 0-3.91.92-6.1 2.04-2.2 1.12-4.44 1.76-4.98 1.43-.54-.34-2.15-2.9-3.56-5.69-2.09-4.11-2.37-5.52-1.52-7.4 1.2-2.64 16.91-11.04 18.15-9.7.88.94 14.43 26.81 45.73 87.32 12.09 23.38 29.86 57.58 39.47 76 55.39 106.1 76.92 148.2 76.43 149.46-.55 1.43-14.32 9.53-16.15 9.5-.55-.01-1.79-.48-2.76-1.05m47.46-27.13c-1.1-1.8-3.31-5.98-4.92-9.28-1.6-3.3-10.62-20.85-20.03-39-9.42-18.15-17.26-33.67-17.43-34.5-.22-1.03.54-1.53 2.4-1.6 1.49-.06 3.45-.71 4.35-1.46.91-.75 2.61-1.84 3.79-2.43 1.37-.68 2.32-2.31 2.64-4.54.42-2.93 1.2-3.82 5-5.67l4.5-2.21 1.8 2.12c2.64 3.12 1.75 5.99-2.55 8.29-3.81 2.03-4.98 5.09-2.35 6.1.77.3 3.22-.39 5.44-1.52l4.03-2.06 2.07 2.63c2.93 3.72 2.59 5.04-1.87 7.32-4.86 2.47-5.74 3.79-3.82 5.71 1.32 1.32 1.98 1.25 5.72-.66 3.92-2 4.35-2.04 6.03-.52 3.98 3.6 2.17 8.04-4.08 10.03-2.31.73-2.55 4.01-.36 4.85.85.33 3.42-.35 5.69-1.51l4.14-2.11 1.8 2.23c2.45 3.02 2.28 4.59-.74 6.71-6.93 4.89-7.13 5.16-5.1 6.74 1.64 1.26 2.38 1.18 6.26-.71 3.85-1.87 4.59-1.95 5.83-.68.79.8 1.71 2.59 2.05 3.98.54 2.23.09 2.78-3.94 4.73-7.46 3.63-5.12 8.15 2.45 4.74 4.67-2.1 6.7-1.52 7.63 2.17.58 2.29.21 3.09-2.17 4.79-1.57 1.12-3.87 3.1-5.11 4.39-1.92 1.99-3.05 2.29-7.52 2l-5.27-.35-.01 4.42c-.01 3.88.26 4.44 2.26 4.58 1.25.1 2.59-.35 2.98-.99s2.17-2.02 3.96-3.05c1.79-1.04 3.25-2.19 3.25-2.56s1.01-.89 2.25-1.16 3.94-1.23 6-2.13l3.76-1.64 2.64 5.38c4.01 8.18 3.27 9.56-8.41 15.6-13.08 6.77-12.68 6.7-15.04 2.83m-53.52-103.03c-15.79-29.91-24.7-47.91-24.15-48.79.32-.53 1.24-.96 2.03-.96s1.44-.67 1.44-1.5c0-1.04 1.05-1.5 3.43-1.5 2.46 0 3.98-.7 5.39-2.5 1.08-1.38 2.42-2.5 2.96-2.5.55 0 2.96-.88 5.36-1.96l4.36-1.97 1.73 2.22c2.71 3.48 2.15 5.47-2.16 7.68-4.8 2.44-5.36 3.25-3.76 5.44 1.17 1.6 1.54 1.58 5.88-.28 4.32-1.85 4.73-1.87 6.07-.31 2.73 3.19 2.76 5.02.11 7.1-1.39 1.1-3.4 2.27-4.45 2.61-2.31.73-2.55 4.01-.36 4.85.85.33 3.42-.35 5.69-1.51l4.14-2.11 1.8 2.23c2.86 3.53 2.26 5.74-2.19 8.01-2.54 1.3-4 2.73-4 3.94 0 2.74 1.92 3 6.83.9 2.39-1.01 4.51-1.84 4.73-1.84.92 0 3.47 6.15 2.91 7.04-.33.55-2.38 1.89-4.54 2.99-6.66 3.4-4.07 7.84 2.69 4.61 4.83-2.3 6.1-2.07 7.9 1.39 1.92 3.73 1.48 4.49-4.1 7.11-3.41 1.61-4.42 2.62-4.42 4.47 0 1.56-.58 2.39-1.67 2.39-.91 0-1.38.28-1.04.62.34.35-.37 1.44-1.58 2.42-1.94 1.58-2.41 1.62-3.82.35-1.4-1.26-1.76-1.25-2.87.08-.7.84-1.85 1.53-2.57 1.53-.71 0-4.21-5.51-7.77-12.25M838.56 424c-.71-.83-7.49-13.42-15.06-28-7.58-14.58-19.05-36.62-25.5-49-6.44-12.38-17.43-33.62-24.42-47.21l-12.7-24.71 11.04-5.54c14.11-7.08 15.9-7.13 19.48-.54 1.5 2.75 2.46 5.42 2.14 5.94-.33.52-4.65 3.09-9.61 5.71-9.51 5.01-11.51 6.6-10.46 8.31 1.09 1.75 3.03 1.22 12.64-3.46 5.08-2.48 9.82-4.5 10.53-4.5 1.54 0 3.37 3.14 3.33 5.68-.02 1.07-1.94 2.98-4.66 4.63-4.28 2.6-4.5 2.93-2.99 4.44 1.52 1.52 1.9 1.51 5.19-.06 4.92-2.34 6.97-2.12 8.34.88 1.43 3.15 1.04 3.84-3.93 6.98-6.86 4.33-4.45 7.93 3.05 4.58 5.13-2.3 6.55-1.96 7.9 1.93.88 2.53.69 3.14-1.51 4.87-1.39 1.09-3.39 2.26-4.44 2.6-2 .63-2.63 3.91-.95 4.95.53.33 3.09-.37 5.7-1.56l4.73-2.15 1.8 2.23c2.44 3.01 2.27 4.58-.75 6.7-7.05 4.98-7.09 5.03-5.32 6.83 1.45 1.48 1.92 1.5 4.5.19 6.05-3.09 7.15-3.05 8.86.26 1.91 3.69 1.53 4.46-3.44 6.99-2.43 1.25-4.05 2.89-4.46 4.55-.53 2.09-1.07 2.46-2.77 1.92s-2-.34-1.49.99c.46 1.18-.35 2.24-2.85 3.71-3.37 1.99-4.56 3.86-2.45 3.86 2.21 0 10.97-5.11 10.97-6.39 0-1.25 8.48-5.61 10.91-5.61.91 0 4.09 5 4.09 6.43 0 .29-1.82 1.46-4.05 2.59-4.4 2.25-5.86 4.47-4.09 6.24.83.83 2.04.68 4.66-.57 4.9-2.33 6.96-2.12 8.32.86 1.72 3.78 1.55 4.13-3.34 7-4.86 2.85-5.27 3.57-3.08 5.39 1.12.92 2.29.74 5.45-.87 4.76-2.43 6.63-1.95 8.03 2.07.99 2.84.84 3.1-3.39 5.67-5.24 3.19-6.14 4.78-3.49 6.2 1.5.8 2.92.55 6.13-1.09l4.18-2.13 1.81 2.35c2.45 3.18 2.32 4.44-.69 6.56-6.95 4.91-7.14 5.15-5.07 6.76 1.59 1.23 2.29 1.25 4.5.12 5.79-2.94 6.91-2.88 8.61.4 1.91 3.7 1.53 4.46-3.56 7.05-7.2 3.68-4.2 7.39 3.57 4.42 4.41-1.69 4.61-1.68 6 .15 2.61 3.45 1.84 5.94-2.44 7.87-2.17.98-4.21 2.47-4.53 3.32-.45 1.18-.87 1.27-1.76.38-1.86-1.86-4.77-1.41-4.77.74 0 1.6-.88 1.96-5.57 2.25-4.05.25-5.93-.07-6.87-1.16"/></g></svg>