<svg xmlns="http://www.w3.org/2000/svg" width="160" height="160" viewBox="0 0 160 160"><path fill="#c7f0ff" stroke="#c7f0ff" stroke-miterlimit="10" stroke-width="1.6" d="M16 80a64 64 0 1 0 128 0 64 64 0 1 0-128 0Z"/><path fill="#ffcebf" d="m105.357 137.738-.943-28.148a7.54 7.54 0 0 0-.982-3.721l-2.133-3.762a16.5 16.5 0 0 1-2.158-8.333l.107-9.28a16.45 16.45 0 0 0-1.342-6.69l-4.55-12.777a3.36 3.36 0 0 1 1.892-4.433 3.555 3.555 0 0 1 4.592 1.835l8.47 13.92c.597-1.347 5.103-12.469-1.305-27.703a4.274 4.274 0 0 1 2.457-5.633 4.53 4.53 0 0 1 5.83 2.376 54 54 0 0 1 2.113 6.06 70.2 70.2 0 0 0-3.597-13.708 4.286 4.286 0 0 1 2.7-5.528 4.51 4.51 0 0 1 5.72 2.611c4.545 12.251 4.222 20.766 4.658 31.653a138 138 0 0 0-2.032-23.234 5.496 5.496 0 0 1 3.885-5.936 4.47 4.47 0 0 1 5.28 3.36c2.24 10.455 6.383 38.187-3.36 61.541a20.4 20.4 0 0 0-1.576 7.84l.943 12.464a57.37 57.37 0 0 1-24.67 15.226"/><path fill="none" stroke="#45413c" stroke-linecap="round" stroke-linejoin="round" stroke-width="1.6" d="m105.357 137.74-.943-28.15a7.54 7.54 0 0 0-.982-3.721l-2.133-3.762a16.5 16.5 0 0 1-2.158-8.333l.107-9.28a16.45 16.45 0 0 0-1.342-6.69l-4.55-12.777a3.36 3.36 0 0 1 1.892-4.433 3.555 3.555 0 0 1 4.592 1.835l8.47 13.92c.597-1.347 5.103-12.469-1.305-27.703a4.274 4.274 0 0 1 2.457-5.633 4.53 4.53 0 0 1 5.83 2.376 54 54 0 0 1 2.113 6.06 70.2 70.2 0 0 0-3.597-13.708 4.286 4.286 0 0 1 2.7-5.528 4.51 4.51 0 0 1 5.72 2.611c4.545 12.251 4.222 20.766 4.658 31.653a138 138 0 0 0-2.032-23.234 5.496 5.496 0 0 1 3.885-5.936 4.47 4.47 0 0 1 5.28 3.36c2.24 10.455 6.383 38.187-3.36 61.541a20.4 20.4 0 0 0-1.576 7.84l.943 12.464"/><path fill="none" stroke="#45413c" stroke-linecap="round" stroke-miterlimit="10" stroke-width="1.6" d="M117.392 51.322a58.8 58.8 0 0 1-.576 21.958"/><path fill="none" stroke="#45413c" stroke-miterlimit="10" stroke-width="1.6" d="M126.89 66.48a30 30 0 0 1-1.735 11.19"/><path fill="#ffcebf" d="m54.014 137.738.944-28.148a7.5 7.5 0 0 1 .983-3.721l2.139-3.762a16.5 16.5 0 0 0 2.157-8.333l-.106-9.28a16.5 16.5 0 0 1 1.341-6.69l4.552-12.777a3.36 3.36 0 0 0-1.894-4.433 3.554 3.554 0 0 0-4.588 1.83l-8.47 13.92c-.597-1.347-5.104-12.469 1.306-27.702a4.275 4.275 0 0 0-2.458-5.628 4.526 4.526 0 0 0-5.827 2.376 54 54 0 0 0-2.114 6.061 70 70 0 0 1 3.597-13.709 4.29 4.29 0 0 0-2.7-5.528 4.51 4.51 0 0 0-5.72 2.612c-4.545 12.25-4.222 20.766-4.658 31.652a138 138 0 0 1 2.032-23.233 5.5 5.5 0 0 0-3.885-5.936 4.47 4.47 0 0 0-5.28 3.36c-2.24 10.454-6.383 38.187 3.36 61.54a20.4 20.4 0 0 1 1.576 7.84l-.944 11.119a83 83 0 0 0 24.657 16.57"/><path fill="none" stroke="#45413c" stroke-linecap="round" stroke-linejoin="round" stroke-width="1.6" d="m54.014 137.74.944-28.15a7.5 7.5 0 0 1 .983-3.721l2.139-3.762a16.5 16.5 0 0 0 2.157-8.333l-.106-9.28a16.5 16.5 0 0 1 1.341-6.69l4.552-12.777a3.36 3.36 0 0 0-1.894-4.433 3.554 3.554 0 0 0-4.588 1.83l-8.47 13.92c-.597-1.347-5.104-12.469 1.306-27.702a4.275 4.275 0 0 0-2.458-5.628 4.526 4.526 0 0 0-5.827 2.376 54 54 0 0 0-2.114 6.061 70 70 0 0 1 3.597-13.709 4.29 4.29 0 0 0-2.7-5.528 4.51 4.51 0 0 0-5.72 2.612c-4.545 12.25-4.222 20.766-4.658 31.652a138 138 0 0 1 2.032-23.233 5.5 5.5 0 0 0-3.885-5.936 4.47 4.47 0 0 0-5.28 3.36c-2.24 10.454-6.383 38.187 3.36 61.54a20.4 20.4 0 0 1 1.576 7.84l-.944 11.119"/><path fill="none" stroke="#45413c" stroke-linecap="round" stroke-miterlimit="10" stroke-width="1.6" d="M41.98 51.322a58.8 58.8 0 0 0 .58 21.958"/><path fill="none" stroke="#45413c" stroke-miterlimit="10" stroke-width="1.6" d="M32.48 66.48a30 30 0 0 0 1.734 11.19"/><path fill="none" stroke="#ff6242" stroke-linecap="round" stroke-linejoin="round" stroke-width="2.4000000000000004" d="M21.323 68.608 118.8 83.29M137.987 68.608 40.51 83.29M32.87 72.493c3.23 3.438 26.056 26.926 46.816 26.926 21.114 0 44.354-25.19 46.962-28.091"/><path fill="#ffcebf" stroke="#45413c" stroke-linecap="round" stroke-linejoin="round" stroke-width="1.6" d="m31.558 88.882-1.61-18.036a4.63 4.63 0 0 1 4.186-5.076 4.714 4.714 0 0 1 5.253 4.044l1.186 14.418c3.328 2.47 6.165 4.114 6.696 8.651l.62 5.296M127.814 88.882l1.61-18.036a4.63 4.63 0 0 0-4.186-5.076 4.714 4.714 0 0 0-5.252 4.044L118.8 84.232c-3.328 2.47-6.166 4.114-6.698 8.651l-.619 5.296"/><path fill="none" stroke="#ff6242" stroke-linecap="round" stroke-linejoin="round" stroke-width="2.4000000000000004" d="M129.411 86.843h-99.45"/></svg>