<svg xmlns="http://www.w3.org/2000/svg" width="100" height="100" fill="none" viewBox="0 0 100 100"><desc>Sports Golf 4 Streamline Illustration: https://streamlinehq.com</desc><path fill="#ccf7ad" d="M50 90.6a39.95 39.95 0 0 0 34.608-20H15.392A39.95 39.95 0 0 0 50 90.6M13.564 67.1c.546 1.2 1.17 2.363 1.828 3.5h69.216a41 41 0 0 0 1.828-3.5z"/><path fill="#b8ecff" d="M90 50.6a39.999 39.999 0 1 0-76.436 16.5h72.872A39.84 39.84 0 0 0 90 50.6"/><path stroke="#45413c" stroke-linecap="round" stroke-linejoin="round" d="M11 67.104h78M6.5 67.104H9M91 67.104h2.5"/><path fill="#6dd627" stroke="#45413c" stroke-linecap="round" stroke-linejoin="round" d="M15.115 67.1s17.916-10.75 50.44-10.75c20.4 0 22.877 10.75 22.877 10.75z"/><path stroke="#45413c" stroke-linecap="round" stroke-linejoin="round" d="M65.28 56.354V40.092"/><path fill="#ff6242" stroke="#45413c" stroke-linecap="round" stroke-linejoin="round" d="M65.28 35.149v4.943l5.352-2.292a1.1 1.1 0 0 0 0-2.026l-3.816-1.636a1.1 1.1 0 0 0-1.537 1.011"/><path fill="#daedf7" d="M48.494 46.442a11.411 11.411 0 0 0-22.822 0v3.8h4.437v8.241h13.947v-8.237h4.438z"/><path fill="#fff" d="M37.083 35.031a11.41 11.41 0 0 0-11.411 11.411v3.8a11.41 11.41 0 1 1 22.822 0v-3.8a11.41 11.41 0 0 0-11.411-11.411"/><path stroke="#45413c" stroke-linecap="round" stroke-linejoin="round" d="M48.494 46.442a11.411 11.411 0 0 0-22.822 0v3.8h4.437v8.241h13.947v-8.237h4.438z"/><path stroke="#45413c" stroke-linecap="round" stroke-linejoin="round" d="M30.109 50.246v-.8a3.8 3.8 0 0 0-.7-2.2 3.8 3.8 0 0 1-.57-2.079M44.056 50.246v-.8a3.8 3.8 0 0 1 .7-2.2 3.8 3.8 0 0 0 .569-2.079"/><path fill="#45413c" d="M37.083 85.113c7.002 0 12.679-.852 12.679-1.902s-5.677-1.902-12.68-1.902c-7.001 0-12.678.852-12.678 1.902s5.677 1.902 12.679 1.902" opacity=".15"/><path fill="#a6fbff" stroke="#45413c" stroke-linecap="round" stroke-linejoin="round" d="M32.645 40.409a.633.633 0 0 0 .884.583l3.554-1.523-3.792-3.792q-.328.115-.646.249z"/><path fill="#a6fbff" stroke="#45413c" stroke-linecap="round" stroke-linejoin="round" d="M41.52 40.409a.634.634 0 0 1-.883.583l-3.554-1.523 3.79-3.792q.33.116.647.249z"/><path stroke="#45413c" stroke-linecap="round" stroke-linejoin="round" d="M37.083 43.273v-3.804"/><path fill="#bf8256" stroke="#45413c" stroke-linecap="round" stroke-linejoin="round" d="M40.174 35.461a1 1 0 0 1-.74-.967v-2.8h-4.702v2.8a1 1 0 0 1-.738.964q-.355.1-.7.216l3.792 3.792 3.79-3.792c-.231-.074-.465-.149-.702-.213"/><path fill="#bf8256" stroke="#45413c" stroke-linecap="round" stroke-linejoin="round" d="M45.958 26.388a1.56 1.56 0 0 0-1.268-1.52v-1.015a7.607 7.607 0 1 0-15.215 0v1.015a1.553 1.553 0 0 0 .16 3.074 7.608 7.608 0 0 0 14.9 0 1.57 1.57 0 0 0 1.423-1.554"/><path fill="#45413c" d="M35.18 26.705a.95.95 0 1 1-1.9.002.95.95 0 0 1 1.9-.002M39.935 27.656a.951.951 0 1 0 0-1.902.951.951 0 0 0 0 1.902"/><path fill="#bf8256" d="M33.913 28.607a.951.951 0 1 1-1.902 0 .951.951 0 0 1 1.902 0M42.154 28.607a.951.951 0 1 1-1.902 0 .951.951 0 0 1 1.902 0"/><path stroke="#45413c" stroke-linecap="round" stroke-linejoin="round" d="M35.182 30.25a3.43 3.43 0 0 0 3.8 0"/><path fill="#614b44" stroke="#45413c" stroke-linecap="round" stroke-linejoin="round" d="M37.083 15.612a3.17 3.17 0 1 0 0-6.34 3.17 3.17 0 0 0 0 6.34"/><path fill="#614b44" d="M37.083 13.71a8.874 8.874 0 0 0-8.875 8.875v2.536l1.417-.3a1.74 1.74 0 0 0 1.316-1.687v-1.817A2.314 2.314 0 0 1 33.257 19c1.29 0 2.252.544 3.826 1.268C38.656 19.546 39.618 19 40.909 19a2.315 2.315 0 0 1 2.315 2.315v1.812a1.74 1.74 0 0 0 1.317 1.687l1.417.3v-2.529a8.875 8.875 0 0 0-8.875-8.875"/><path fill="#a86c4d" d="M37.083 13.71a8.874 8.874 0 0 0-8.875 8.875v2.536a8.875 8.875 0 1 1 17.75 0v-2.536a8.875 8.875 0 0 0-8.875-8.875"/><path stroke="#45413c" stroke-linecap="round" stroke-linejoin="round" d="M37.083 13.71a8.874 8.874 0 0 0-8.875 8.875v2.536l1.417-.3a1.74 1.74 0 0 0 1.316-1.687v-1.817A2.314 2.314 0 0 1 33.257 19c1.29 0 2.252.544 3.826 1.268C38.656 19.546 39.618 19 40.909 19a2.315 2.315 0 0 1 2.315 2.315v1.812a1.74 1.74 0 0 0 1.317 1.687l1.417.3v-2.529a8.875 8.875 0 0 0-8.875-8.875"/><path fill="#fff" stroke="#45413c" stroke-linecap="round" stroke-linejoin="round" d="M28.412 20.683h17.341a8.8 8.8 0 0 0-1.387-3.17H29.8a8.8 8.8 0 0 0-1.388 3.17"/><path fill="#bdbec0" stroke="#45413c" stroke-linecap="round" stroke-linejoin="round" d="M28.412 20.683s1.7 3.17 8.671 3.17 8.67-3.17 8.67-3.17z"/><path fill="#f0d3a8" d="M44.056 58.487H30.109l-1.093 20.234a3.8 3.8 0 0 1 5.063.937l1.031-14.2a1.974 1.974 0 0 1 3.945 0l1.031 14.2a3.8 3.8 0 0 1 5.064-.937z"/><path fill="#debb7e" d="m44.296 62.925-.24-4.438H30.109l-.24 4.438z"/><path stroke="#45413c" stroke-linecap="round" stroke-linejoin="round" d="M44.056 58.487H30.109l-1.093 20.234a3.8 3.8 0 0 1 5.063.937l1.031-14.2a1.974 1.974 0 0 1 3.945 0l1.031 14.2a3.8 3.8 0 0 1 5.064-.937z"/><path fill="#87898c" stroke="#45413c" stroke-linecap="round" stroke-linejoin="round" d="M33.235 81.943a1.27 1.27 0 0 0 1.1-1.9 3.804 3.804 0 0 0-6.59 0 1.267 1.267 0 0 0 1.1 1.9zM40.931 81.943a1.27 1.27 0 0 1-1.1-1.9 3.804 3.804 0 0 1 6.59 0 1.27 1.27 0 0 1-1.1 1.9z"/><path stroke="#45413c" stroke-linecap="round" stroke-linejoin="round" d="M37.083 78.958V61.023"/><path fill="#87898c" stroke="#45413c" stroke-linecap="round" stroke-linejoin="round" d="M37.083 53.416a1.267 1.267 0 0 0-1.268 1.268v5.705a.633.633 0 0 0 .634.634h1.268a.634.634 0 0 0 .634-.634v-5.705a1.27 1.27 0 0 0-1.268-1.268"/><path fill="#adc4d9" stroke="#45413c" stroke-linecap="round" stroke-linejoin="round" d="M36.38 83.465a2.4 2.4 0 0 1-1.357.678l-2.248.321a1.41 1.41 0 0 1-1.6-1.2l-.2-1.428a1.41 1.41 0 0 1 1.4-1.612h2.405c.665 0 1.303-.264 1.773-.734l.534-.534v2.811a2.4 2.4 0 0 1-.707 1.698"/><path fill="#bf8256" stroke="#45413c" stroke-linecap="round" stroke-linejoin="round" d="M44.056 50.246v1.268a5.07 5.07 0 0 1-5.072 5.071h-2.218a2.22 2.22 0 0 0 0 4.438h2.218a9.51 9.51 0 0 0 9.51-9.509v-1.268z"/><path fill="#87898c" stroke="#45413c" stroke-linecap="round" stroke-linejoin="round" d="M39.9 56.5q-.452.081-.911.081h-2.223a2.22 2.22 0 0 0 0 4.438h2.218c.997 0 1.989-.155 2.938-.463z"/><path fill="#bf8256" stroke="#45413c" stroke-linecap="round" stroke-linejoin="round" d="M30.109 50.246v1.268a5.07 5.07 0 0 0 5.072 5.071H37.4a2.219 2.219 0 0 1 0 4.438h-2.22a9.51 9.51 0 0 1-9.508-9.509v-1.268z"/><path fill="#87898c" stroke="#45413c" stroke-linecap="round" stroke-linejoin="round" d="M34.27 56.5q.453.081.91.081h2.22a2.22 2.22 0 0 1 0 4.438h-2.22a9.5 9.5 0 0 1-2.937-.463z"/><path fill="#daedf7" stroke="#45413c" stroke-linecap="round" stroke-linejoin="round" d="M47.454 80.948a2.81 2.81 0 1 1-5.618 0 2.81 2.81 0 0 1 5.618 0"/><path fill="#45413c" stroke="#45413c" stroke-miterlimit="10" d="M44.69 90.728c3.5 0 6.339-.852 6.339-1.902s-2.838-1.902-6.34-1.902c-3.5 0-6.338.852-6.338 1.902s2.838 1.902 6.339 1.902Z" opacity=".15"/><path fill="#ffe500" stroke="#45413c" stroke-linecap="round" stroke-linejoin="round" d="M42.384 83.756h4.523a.326.326 0 0 1 .288.482l-1.364 1.631-.9 2.574a.327.327 0 0 1-.575 0l-.9-2.574-1.356-1.631a.326.326 0 0 1 .284-.482"/></svg>