<svg xmlns="http://www.w3.org/2000/svg" width="100" height="100" fill="none" viewBox="0 0 100 100"><desc>Sports Golf 11 Streamline Illustration: https://streamlinehq.com</desc><path fill="#ccf7ad" d="M50 90a39.95 39.95 0 0 0 34.608-20H15.392A39.95 39.95 0 0 0 50 90M13.564 66.5c.546 1.2 1.17 2.363 1.828 3.5h69.216a41 41 0 0 0 1.828-3.5z"/><path fill="#b8ecff" d="M90 50a39.998 39.998 0 0 0-64.477-31.642A40 40 0 0 0 13.564 66.5h72.872A39.8 39.8 0 0 0 90 50"/><path stroke="#45413c" stroke-linecap="round" stroke-linejoin="round" d="M11 66.5h78M6.5 66.5H9M91 66.5h2.5"/><path fill="#6dd627" stroke="#45413c" stroke-linecap="round" stroke-linejoin="round" d="M15.092 66.5s17.915-10.746 50.439-10.746c20.4 0 22.877 10.749 22.877 10.749z"/><path stroke="#45413c" stroke-linecap="round" stroke-linejoin="round" d="M65.256 55.754V39.492"/><path fill="#ff6242" stroke="#45413c" stroke-linecap="round" stroke-linejoin="round" d="M65.256 34.549v4.943l5.353-2.292a1.1 1.1 0 0 0 0-2.027l-3.817-1.636a1.1 1.1 0 0 0-1.536 1.012"/><path fill="#daedf7" stroke="#45413c" stroke-linecap="round" stroke-linejoin="round" d="M67.572 76.063a2.81 2.81 0 1 1-5.618 0 2.81 2.81 0 0 1 5.618 0"/><path fill="#45413c" stroke="#45413c" stroke-miterlimit="10" d="M64.808 85.843c3.5 0 6.339-.851 6.339-1.902s-2.838-1.902-6.339-1.902c-3.5 0-6.339.852-6.339 1.902s2.838 1.902 6.339 1.902Z" opacity=".15"/><path stroke="#45413c" stroke-linecap="round" stroke-linejoin="round" d="M46.956 79.122V59.47"/><path fill="#87898c" stroke="#45413c" stroke-linecap="round" stroke-linejoin="round" d="M46.956 51.863a1.27 1.27 0 0 0-1.268 1.268v5.7a.634.634 0 0 0 .634.634h1.268a.634.634 0 0 0 .634-.634v-5.7a1.27 1.27 0 0 0-1.268-1.268"/><path fill="#adc4d9" stroke="#45413c" stroke-linecap="round" stroke-linejoin="round" d="M47.659 83.628a2.4 2.4 0 0 0 1.357.679l2.248.321a1.41 1.41 0 0 0 1.6-1.2l.2-1.428a1.41 1.41 0 0 0-1.4-1.612h-2.401a2.5 2.5 0 0 1-1.774-.735l-.533-.533v2.81a2.4 2.4 0 0 0 .703 1.698"/><path fill="#ffcebf" stroke="#45413c" stroke-linecap="round" stroke-linejoin="round" d="M38.5 52.033h4.438v3.486a2.85 2.85 0 0 0 2.853 2.853v0a2.22 2.22 0 0 1 2.218 2.219v0a2.22 2.22 0 0 1-2.219 2.219v0a7.29 7.29 0 0 1-7.29-7.291z"/><path fill="#87898c" stroke="#45413c" stroke-linecap="round" stroke-linejoin="round" d="M45.79 58.372a2.84 2.84 0 0 1-1.427-.4l-1.321 4.298c.872.357 1.806.54 2.748.54a2.22 2.22 0 0 0 0-4.438"/><path fill="#4aeff7" d="M42.937 48.229a11.412 11.412 0 0 0-21.953-4.367 11.4 11.4 0 0 0-.869 4.367v3.8h4.438v8.241H38.5v-8.237h4.438z"/><path fill="#debb7e" d="m24.553 60.274 2.535 23.456h8.876L38.5 60.274z"/><path fill="#b89558" d="m38.157 63.444.343-3.17H24.553l.342 3.17z"/><path stroke="#45413c" stroke-linecap="round" stroke-linejoin="round" d="m24.553 60.274 2.535 23.456h8.876L38.5 60.274z"/><path fill="#ffcebf" stroke="#45413c" stroke-linecap="round" stroke-linejoin="round" d="M20.115 52.033V63.76a2.22 2.22 0 0 0 4.438 0V52.033z"/><path fill="#a6fbff" d="M31.526 36.818a11.41 11.41 0 0 0-11.411 11.411v3.8a11.41 11.41 0 1 1 22.822 0v-3.8a11.41 11.41 0 0 0-11.411-11.411"/><path stroke="#45413c" stroke-linecap="round" stroke-linejoin="round" d="M42.937 48.229a11.412 11.412 0 0 0-21.953-4.367 11.4 11.4 0 0 0-.869 4.367v3.8h4.438v8.241H38.5v-8.237h4.438z"/><path stroke="#45413c" stroke-linecap="round" stroke-linejoin="round" d="M24.553 52.033v-.8a3.8 3.8 0 0 0-.7-2.2 3.8 3.8 0 0 1-.569-2.078M38.5 52.033v-.8a3.8 3.8 0 0 1 .7-2.2 3.8 3.8 0 0 0 .569-2.078"/><path fill="#45413c" d="M31.526 86.899c7.002 0 12.679-.851 12.679-1.902s-5.677-1.902-12.679-1.902-12.679.852-12.679 1.902 5.677 1.902 12.679 1.902" opacity=".15"/><path stroke="#45413c" stroke-linecap="round" stroke-linejoin="round" d="M31.526 65.345V83.73"/><path fill="#fff" stroke="#45413c" stroke-linecap="round" stroke-linejoin="round" d="M26.286 83.73a1.27 1.27 0 0 1-1.1-1.9 3.8 3.8 0 0 1 3.3-1.9 3.04 3.04 0 0 1 3.043 3.043v.761z"/><path fill="#fff" stroke="#45413c" stroke-linecap="round" stroke-linejoin="round" d="M36.765 83.73a1.27 1.27 0 0 0 1.1-1.9 3.8 3.8 0 0 0-3.295-1.9 3.04 3.04 0 0 0-3.043 3.043v.761zM27.088 42.2a.635.635 0 0 0 .884.583l3.554-1.523-3.792-3.792q-.328.115-.646.249zM35.964 42.2a.635.635 0 0 1-.884.583l-3.554-1.523 3.792-3.792q.328.115.646.249z"/><path stroke="#45413c" stroke-linecap="round" stroke-linejoin="round" d="M31.526 45.059v-3.803"/><path fill="#ffcebf" stroke="#45413c" stroke-linecap="round" stroke-linejoin="round" d="M34.617 37.248a1 1 0 0 1-.738-.967v-2.8h-4.703v2.8a1 1 0 0 1-.739.964q-.354.096-.7.216l3.792 3.792 3.792-3.792a12 12 0 0 0-.704-.213"/><path fill="#ffcebf" stroke="#45413c" stroke-linecap="round" stroke-linejoin="round" d="M40.4 28.175a1.56 1.56 0 0 0-1.268-1.521v-1.015a7.607 7.607 0 0 0-15.214 0v1.015a1.553 1.553 0 0 0 .16 3.074 7.608 7.608 0 0 0 14.895 0 1.57 1.57 0 0 0 1.427-1.553"/><path fill="#ffb59e" d="M27.405 30.077a.951.951 0 1 0 0-1.902.951.951 0 0 0 0 1.902M35.647 30.077a.951.951 0 1 0 0-1.902.951.951 0 0 0 0 1.902"/><path stroke="#45413c" stroke-linecap="round" stroke-linejoin="round" d="M29.624 31.4a3.43 3.43 0 0 0 3.8 0"/><path fill="#45413c" d="M28.673 27.541a.951.951 0 1 0 0-1.902.951.951 0 0 0 0 1.902M34.379 27.541a.951.951 0 1 0 0-1.902.951.951 0 0 0 0 1.902"/><path fill="#ffe500" stroke="#45413c" stroke-linecap="round" stroke-linejoin="round" d="M31.526 17.399a3.17 3.17 0 1 0 0-6.34 3.17 3.17 0 0 0 0 6.34"/><path fill="#ffe500" d="M31.526 15.5a8.874 8.874 0 0 0-8.875 8.876v2.535l1.417-.3a1.74 1.74 0 0 0 1.317-1.687V23.1a2.314 2.314 0 0 1 2.315-2.311c1.29 0 2.252.544 3.826 1.268 1.574-.724 2.536-1.268 3.826-1.268a2.314 2.314 0 0 1 2.315 2.311v1.812a1.74 1.74 0 0 0 1.317 1.688l1.417.3v-2.528a8.875 8.875 0 0 0-8.875-8.872"/><path fill="#fff48c" d="M31.526 15.5a8.874 8.874 0 0 0-8.875 8.876v2.535a8.875 8.875 0 1 1 17.75 0v-2.539a8.875 8.875 0 0 0-8.875-8.872"/><path stroke="#45413c" stroke-linecap="round" stroke-linejoin="round" d="M31.526 15.5a8.874 8.874 0 0 0-8.875 8.876v2.535l1.417-.3a1.74 1.74 0 0 0 1.317-1.687V23.1a2.314 2.314 0 0 1 2.315-2.311c1.29 0 2.252.544 3.826 1.268 1.574-.724 2.536-1.268 3.826-1.268a2.314 2.314 0 0 1 2.315 2.311v1.812a1.74 1.74 0 0 0 1.317 1.688l1.417.3v-2.528a8.875 8.875 0 0 0-8.875-8.872"/><path fill="#4acfff" stroke="#45413c" stroke-linecap="round" stroke-linejoin="round" d="M22.856 22.47H40.2a8.8 8.8 0 0 0-1.39-3.17H24.242a8.8 8.8 0 0 0-1.386 3.17"/><path fill="#00b8f0" stroke="#45413c" stroke-linecap="round" stroke-linejoin="round" d="M22.856 22.47s1.7 3.169 8.67 3.169S40.2 22.47 40.2 22.47z"/><path fill="#ffe500" stroke="#45413c" stroke-linecap="round" stroke-linejoin="round" d="M62.5 78.871h4.523a.327.327 0 0 1 .288.482l-1.365 1.63-.9 2.575a.328.328 0 0 1-.575 0l-.9-2.574-1.365-1.631a.327.327 0 0 1 .294-.482"/></svg>