<svg viewBox="-2.5 -2.5 500 500" xmlns="http://www.w3.org/2000/svg" id="Tags-Yen--Streamline-Ux" height="500" width="500">
  <desc>
    Tags Yen Streamline Illustration: https://streamlinehq.com
  </desc>
  <path d="M49.5 247.5a198 198 0 1 0 396 0 198 198 0 1 0 -396 0Z" fill="#daedf7" stroke="#daedf7" stroke-width="5"></path>
  <path d="M189.4464 117.23580000000001a8.2863 8.2863 0 0 0 -8.4645 8.0982l-2.0592 93.7035a8.25165 8.25165 0 0 0 2.29185 5.9103l121.572 127.04175a19.1367 19.1367 0 0 0 27.33885 0.90585L412.0677 274.4775a16.577550000000002 16.577550000000002 0 0 0 0.2574 -23.685750000000002L288.95625 121.8591A8.29125 8.29125 0 0 0 283.14000000000004 119.29500000000002Z" fill="#ffe500" stroke-width="5"></path>
  <path d="m206.98425 138.6 -20.067300000000003 -21.03255a8.2863 8.2863 0 0 0 -5.94 7.7616000000000005l-2.0592 93.7035a8.25165 8.25165 0 0 0 2.29185 5.9103l121.572 127.04175a19.1367 19.1367 0 0 0 27.33885 0.90585l42.74325 -40.9068 -131.90265 -137.8773Z" fill="#ebcb00" stroke-width="5"></path>
  <path d="M189.4464 117.23580000000001a8.2863 8.2863 0 0 0 -8.4645 8.0982l-2.0592 93.7035a8.25165 8.25165 0 0 0 2.29185 5.9103l121.572 127.04175a19.1367 19.1367 0 0 0 27.33885 0.90585L412.0677 274.4775a16.577550000000002 16.577550000000002 0 0 0 0.2574 -23.685750000000002L288.95625 121.8591A8.29125 8.29125 0 0 0 283.14000000000004 119.29500000000002Z" fill="none" stroke="#45413c" stroke-linecap="round" stroke-linejoin="round" stroke-width="5"></path>
  <path d="M225.3339 107.52390000000001a8.29125 8.29125 0 0 0 -11.71665 0L147.3417 173.79944999999998a8.2863 8.2863 0 0 0 -2.4255 5.8608v175.83885000000004a19.13175 19.13175 0 0 0 19.1268 19.54755h113.42430000000002a16.5726 16.5726 0 0 0 16.5627 -16.9389V179.685a8.30115 8.30115 0 0 0 -2.42055 -5.8608Z" fill="#ff6242" stroke-width="5"></path>
  <path d="M223.245 184.22910000000002a24.85395 24.85395 0 1 1 -3.75705 -49.42575 25.42815 25.42815 0 0 1 3.75705 0.28215l0.0396 -29.0664a8.28135 8.28135 0 0 0 -9.6525 1.485L147.3417 173.79944999999998a8.2863 8.2863 0 0 0 -2.4255 5.8608v175.83885000000004a19.13175 19.13175 0 0 0 19.1268 19.54755h59.17230000000001Z" fill="#ff6242" stroke-width="5"></path>
  <path d="M225.3339 107.52390000000001a8.29125 8.29125 0 0 0 -11.71665 0L147.3417 173.79944999999998a8.2863 8.2863 0 0 0 -2.4255 5.8608v175.83885000000004a19.13175 19.13175 0 0 0 19.1268 19.54755h113.42430000000002a16.5726 16.5726 0 0 0 16.5627 -16.9389V179.685a8.30115 8.30115 0 0 0 -2.42055 -5.8608Z" fill="none" stroke="#45413c" stroke-linecap="round" stroke-linejoin="round" stroke-width="5"></path>
  <path d="M219.47310000000002 184.51125a24.85395 24.85395 0 1 1 24.858900000000002 -24.85395 24.849 24.849 0 0 1 -24.858900000000002 24.85395Z" fill="#daedf7" stroke-width="5"></path>
  <path d="M219.47310000000002 184.51125a24.85395 24.85395 0 1 1 24.858900000000002 -24.85395 24.849 24.849 0 0 1 -24.858900000000002 24.85395Z" fill="none" stroke="#45413c" stroke-linecap="round" stroke-linejoin="round" stroke-width="5"></path>
  <path d="M186.8823 103.6431a19.532700000000002 19.532700000000002 0 1 0 -27.225 25.482599999999998l54.4104 27.72a1.8018 1.8018 0 0 0 2.376 -2.50965Z" fill="none" stroke="#45413c" stroke-linecap="round" stroke-linejoin="round" stroke-width="5"></path>
  <path d="M175.50225 405.603a48.0249 9.00405 0 1 0 96.0498 0 48.0249 9.00405 0 1 0 -96.0498 0Z" fill="#45413c" opacity=".15" stroke-width="5"></path>
  <path d="M257.22180000000003 227.403A8.122950000000001 8.122950000000001 0 1 0 244.1241 217.8L220.77 249.5889 197.43075 217.8a8.122950000000001 8.122950000000001 0 1 0 -13.0977 9.61785l28.31895 38.5803v3.465h-11.5632a8.1279 8.1279 0 1 0 0 16.25085h11.5632v6.771600000000001h-11.5632a8.1279 8.1279 0 1 0 0 16.25085h11.5632V329.175a8.1279 8.1279 0 1 0 16.25085 0v-20.433600000000002h11.558250000000001a8.1279 8.1279 0 1 0 0 -16.25085h-11.558250000000001v-6.771600000000001h11.558250000000001a8.1279 8.1279 0 1 0 0 -16.25085h-11.558250000000001v-3.465Z" fill="#ffffff" stroke="#e04122" stroke-linecap="round" stroke-linejoin="round" stroke-width="5"></path>
</svg>