<svg xmlns="http://www.w3.org/2000/svg" width="87" height="87" fill="none" viewBox="0 0 87 87"><g clip-path="url(#a)"><path fill="#40493a" d="M43.5 83.503a39.95 39.95 0 0 0 34.608-20H8.892a39.95 39.95 0 0 0 34.608 20"/><path fill="#373a35" d="M7.064 60.003c.546 1.2 1.17 2.363 1.828 3.5h69.216a41 41 0 0 0 1.828-3.5z"/><path fill="#2c3538" d="M83.5 43.503A39.998 39.998 0 0 0 19.023 11.86 40 40 0 0 0 7.064 60.002h72.872a39.84 39.84 0 0 0 3.564-16.5"/><path stroke="#45413c" stroke-linecap="round" stroke-linejoin="round" d="M4.5 60.003h78M0 60.003h2.5M84.5 60.003H87"/><path fill="#00dba8" d="M12.889 14.403h56.955v14.586H12.889z"/><path fill="#8cffe4" d="M68.687 14.403h-54.64a1.16 1.16 0 0 0-1.158 1.158v6.483h56.956V15.56a1.16 1.16 0 0 0-1.158-1.158"/><path stroke="#45413c" stroke-linecap="round" stroke-linejoin="round" d="M12.889 14.403h56.955v14.586H12.889z"/><path fill="#fff" d="M36.39 29.403c-.287-.001-.562-.108-.773-.3L25.392 19.96l-10.226 9.149a1.16 1.16 0 0 1-.887.289v32.93h22.226V29.404a1 1 0 0 1-.116 0"/><path fill="#f8f8f8" d="M24.535 25.572a1.3 1.3 0 0 1 1.713 0l10.257 8.974v-5.143a1.152 1.152 0 0 1-.888-.294l-10.225-9.15-10.226 9.15a1.16 1.16 0 0 1-.887.289v32.93z"/><path stroke="#45413c" stroke-linecap="round" stroke-linejoin="round" d="M36.505 62.329H14.28v-33.34l11.113-9.724 11.113 9.723z"/><path fill="#fff" d="M36.505 28.989h31.95v33.34h-31.95z"/><path fill="#f8f8f8" d="M36.505 28.989h31.951v3.948H36.505z"/><path stroke="#45413c" stroke-linecap="round" stroke-linejoin="round" d="M36.505 28.989h31.95v33.34h-31.95z"/><path fill="#00b8f0" d="M31.338 58.856H19.446a1 1 0 0 1-1-1V47.743h13.892v10.112a1 1 0 0 1-1 1"/><path fill="#4acfff" d="M18.446 57.698a1.157 1.157 0 0 0 1.154 1.157h1.555l6.672-11.112h-9.381z"/><path stroke="#45413c" stroke-linecap="round" stroke-linejoin="round" d="M31.338 58.856H19.446a1 1 0 0 1-1-1V47.743h13.892v10.112a1 1 0 0 1-1 1"/><path fill="#00b8f0" d="M63.983 58.856H53.48a1 1 0 0 1-1-1V47.743h12.5v10.112a1 1 0 0 1-.997 1"/><path fill="#4acfff" d="M52.48 57.698a1.16 1.16 0 0 0 1.158 1.157h1.555l6.668-11.112H52.48z"/><path stroke="#45413c" stroke-linecap="round" stroke-linejoin="round" d="M63.983 58.856H53.48a1 1 0 0 1-1-1V47.743h12.5v10.112a1 1 0 0 1-.997 1"/><path fill="#00dba8" stroke="#45413c" stroke-linecap="round" stroke-linejoin="round" d="M65.292 47.165a.372.372 0 0 1-.309.578H36.505v-4.168h25.774a1.16 1.16 0 0 1 .964.516z"/><path fill="#f0c2a1" d="M36.505 62.329h32.34a1 1 0 0 1 1 1v5.946h-33.34z"/><path fill="#ffe3cf" d="M68.687 62.329H36.505v2.774h33.34v-1.62a1.16 1.16 0 0 0-1.158-1.154"/><path fill="#f0c2a1" d="M13.889 62.329h22.616v6.946H12.889v-5.946a1 1 0 0 1 1-1"/><path fill="#ffe3cf" d="M14.047 62.329a1.16 1.16 0 0 0-1.158 1.158v1.616h23.616v-2.774z"/><path stroke="#45413c" stroke-linecap="round" stroke-linejoin="round" d="M36.505 62.329h32.34a1 1 0 0 1 1 1v5.946h-33.34z"/><path fill="#00b8f0" d="M22.614 35.24h5.557v8.335h-5.557z"/><path fill="#4acfff" d="M22.614 35.24v8.335l5.002-8.335z"/><path stroke="#45413c" stroke-linecap="round" stroke-linejoin="round" d="M22.614 35.24h5.557v8.335h-5.557zM22.614 47.743h5.557v11.112h-5.557zM55.953 47.743h5.557v11.112h-5.557z"/><path fill="#e0e0e0" stroke="#45413c" stroke-linecap="round" stroke-linejoin="round" d="M46.924 62.329H36.505V50.52h9.419a1 1 0 0 1 1 1z"/><path fill="#00dba8" stroke="#45413c" stroke-linecap="round" stroke-linejoin="round" d="M18.137 47.165a.372.372 0 0 0 .309.578h13.892a.372.372 0 0 0 .309-.578L30.6 44.09a1.16 1.16 0 0 0-.964-.516h-8.487a1.16 1.16 0 0 0-.963.516z"/><path fill="#bf8256" stroke="#45413c" stroke-linecap="round" stroke-linejoin="round" d="M21.456 32.462h7.872v2.777h-7.872zM40.209 32.462h7.872v2.777h-7.872zM54.101 32.462h7.872v2.777H54.1z"/><path fill="#daedf7" stroke="#45413c" stroke-linecap="round" stroke-linejoin="round" d="M67.761 6.53h-4.168a1.158 1.158 0 1 0 0 2.317h4.168a1.158 1.158 0 0 0 0-2.316"/><path fill="#00b8f0" d="M41.367 35.24h5.557v8.335h-5.557z"/><path fill="#4acfff" d="M41.367 35.24v8.335h.002l5-8.335z"/><path stroke="#45413c" stroke-linecap="round" stroke-linejoin="round" d="M41.367 35.24h5.557v8.335h-5.557z"/><path fill="#00b8f0" d="M55.259 35.24h5.557v8.335h-5.557z"/><path fill="#4acfff" d="M55.259 35.24v8.335l5.002-8.335z"/><path stroke="#45413c" stroke-linecap="round" stroke-linejoin="round" d="M55.259 35.24h5.557v8.335h-5.557z"/><path fill="#f8f8f8" stroke="#45413c" stroke-linecap="round" stroke-linejoin="round" d="m60.948 18.928-2.911-1.747-2.911 1.746a1.16 1.16 0 0 0-.562.994v5.595h6.946V19.92a1.16 1.16 0 0 0-.562-.994"/><path fill="#00b8f0" d="M59.426 25.516h-2.778v-3.472a1.39 1.39 0 0 1 2.371-.983 1.4 1.4 0 0 1 .407.983z"/><path fill="#4acfff" d="M59.379 21.81a1.37 1.37 0 0 0-1.342-1.156 1.39 1.39 0 0 0-1.39 1.39v2.5z"/><path stroke="#45413c" stroke-linecap="round" stroke-linejoin="round" d="M59.426 25.516h-2.778v-3.472a1.39 1.39 0 0 1 2.371-.983 1.4 1.4 0 0 1 .407.983z"/><path fill="#daedf7" stroke="#45413c" stroke-linecap="round" stroke-linejoin="round" d="M63.593 8.847h4.168v8.029a1 1 0 0 1-1 1h-2.168a1 1 0 0 1-1-1z"/><path fill="#bf8256" stroke="#45413c" stroke-linecap="round" stroke-linejoin="round" d="M36.505 62.329h10.419v6.946H36.505z"/><path fill="#b89558" stroke="#45413c" stroke-linecap="round" stroke-linejoin="round" d="M49.7 69.275h-2.776V57.467H48.7a1 1 0 0 1 1 1z"/><path fill="#915e3a" stroke="#45413c" stroke-linecap="round" stroke-linejoin="round" d="M44.145 62.329h-4.862v-8.026a1 1 0 0 1 1-1h2.862a1 1 0 0 1 1 1z"/><path stroke="#45413c" stroke-linecap="round" stroke-linejoin="round" d="M13.889 62.329h22.616v6.946H12.889v-5.946a1 1 0 0 1 1-1M36.505 64.413h10.419v2.084H36.505zM21.51 23.433h7.763M25.392 19.96v3.473M54.564 25.516v1.39M61.51 25.516v1.39M17.751 66.496h13.197M53.175 66.496h13.197"/><path fill="#6dd627" stroke="#45413c" stroke-linecap="round" stroke-linejoin="round" d="M67.336 69.079v-.01l.01.01h13.13a1.817 1.817 0 0 0-1.695-2.492q-.21.016-.41.083a4 4 0 0 0 .045-.448 4.01 4.01 0 0 0-7.684-1.614 2.893 2.893 0 0 0-3.962 2.4 1.78 1.78 0 0 0-1.125-.424 1.825 1.825 0 0 0-1.825 1.825c0 .228.045.454.13.667z"/><path fill="#00dba8" stroke="#45413c" stroke-linecap="round" stroke-linejoin="round" d="M36.389 29.403c-.286-.001-.56-.108-.772-.3L25.392 19.96l-10.226 9.149a1.157 1.157 0 1 1-1.543-1.725l11-9.84a1.156 1.156 0 0 1 1.544 0l11 9.84a1.157 1.157 0 0 1-.772 2.02z"/></g><defs><clipPath id="a"><path fill="#fff" d="M0 0h87v87H0z"/></clipPath></defs></svg>