<svg xmlns="http://www.w3.org/2000/svg" width="80" height="80" viewBox="15 0 758 758"><defs><clipPath id="c"><circle cx="390" cy="376" r="364"/></clipPath></defs><g clip-path="url(#c)"><path fill="#2f3e47" d="M455.56 139.23c-1.57 1.1-4.04.8-15.06-1.84-5.5-1.32-16.98-4.01-25.5-6-8.52-1.98-20.23-4.71-26-6.07-5.77-1.35-11.09-3.04-11.82-3.75-1.75-1.7-.65-7.68 5.83-31.59 5.4-19.95 6-21 13.12-23.14 3.47-1.04 5.58-.79 17.66 2.09 7.54 1.8 20.24 4.74 28.22 6.52 15.59 3.49 20.11 5.28 22.47 8.89 2.46 3.74 2.88 10.52 1.09 17.42-.9 3.45-2.74 11.77-4.1 18.5-2.58 12.77-4.13 17.74-5.91 18.97"/><path fill="#44423e" d="M419.53 693.98c-1.74 1.44-35.18 2.1-44.53.88-3.58-.47-8.3-1.02-10.5-1.22-26.78-2.45-60.81-14.54-85.82-30.48-17.07-10.88-35.51-28.54-45.99-44.03-10.65-15.76-17.97-35.42-19.76-53.13-2.49-24.71 1.45-45.97 12.65-68.3 6.7-13.35 12.06-20.34 27.14-35.41l11.21-11.21-4.44-7.2C249.9 428.32 245.82 414 245.85 396c.02-11.82 2.12-21.54 7.1-32.89 1.68-3.82 3.05-7.14 3.05-7.39 0-.24-8.81-7.31-19.57-15.72l-19.56-15.29-17.19 4.78c-20.86 5.8-21.9 6-24.57 4.57-2.38-1.27-2.92-6.18-.86-7.78.69-.54 4.4-1.73 8.25-2.65 11.81-2.83 22-6.23 22-7.36 0-.59-5.18-5.16-11.5-10.16-15.88-12.55-17-13.6-17-15.92 0-2.55 2.54-5.19 4.99-5.19 1.02 0 6.27 3.45 11.68 7.68 5.41 4.22 13.75 10.73 18.54 14.46 4.79 3.74 8.9 6.47 9.14 6.08.24-.4-.21-7.02-.98-14.72-1.85-18.29-1.65-20.69 1.85-21.91 4.37-1.53 6.4 1.12 7.07 9.2.3 3.69 1.27 13.69 2.16 22.21 1.54 14.86 1.72 15.58 4.32 17.5 3.51 2.59 16.41 12.76 22.42 17.68l4.69 3.84 6.98-8.36c3.84-4.59 9.92-10.93 13.51-14.08 5.93-5.21 6.44-5.96 5.58-8.22-1.56-4.09-1.05-12.54 1.02-17.1 1.06-2.34 2.47-7.03 3.14-10.43.92-4.64 2.09-7.15 4.69-10.03l3.47-3.84-4.07-8.77c-5.52-11.88-8.11-21.75-8.86-33.79-2.65-42.73 20.63-82.28 59.4-100.91 3.43-1.64 6.24-3.22 6.25-3.51 0-.29-2.94-1.08-6.55-1.77-10.25-1.94-13.94-5.27-10.94-9.85 1.92-2.93 2.17-2.93 15.13.19 5.83 1.41 11.55 2.42 12.72 2.25 1.88-.27 2.78-2.93 8.2-24.3 3.34-13.2 6.79-25.35 7.67-27 2.26-4.26 5.56-7.07 11.23-9.58 6.03-2.67 13.04-2.31 28.05 1.45 5.5 1.37 16.3 3.92 24 5.67 21.83 4.96 24.2 5.81 28.55 10.25 5.45 5.56 7.34 11.05 6.73 19.57-.27 3.78-.89 7.49-1.38 8.25-.49.77-.93 2.29-.99 3.39-.05 1.1-1.82 9.76-3.92 19.25s-3.62 17.45-3.39 17.68 6.49 1.92 13.91 3.75l13.49 3.32.31 3.68c.44 5.34-1.8 6.26-10.35 4.27-3.67-.85-7.08-1.41-7.58-1.24-.5.16 1.29 3.31 3.98 7 9.92 13.61 17.76 32.94 18.55 45.77.5 8.08 1.01 8.76 7.43 10.03 13.39 2.65 16.16 4.37 16.16 10.06 0 5.29-3.88 8.36-12.46 9.85-9.85 1.72-11.23 2.44-11.83 6.26-1.13 7.17-3 12.66-6.97 20.48l-4.14 8.16 3.54 3.91c2.66 2.95 3.83 5.43 4.75 10.1.67 3.4 2.08 8.09 3.14 10.43 2.19 4.81 2.55 12.38.77 16.27-1.14 2.52-.85 2.94 7.25 10.41 4.65 4.29 10.66 10.55 13.36 13.93 2.69 3.37 5.32 6.13 5.83 6.13 1.05 0 9.41-6.33 21.36-16.18l8.11-6.68 1.11-10.32c.6-5.68 1.66-15.66 2.35-22.18 1.08-10.31 1.53-12.05 3.41-13.29 1.75-1.14 2.69-1.18 4.8-.22 3.14 1.43 3.18 2.27 1.14 22.33-.79 7.68-1.26 14.13-1.05 14.34.2.21 8.39-5.89 18.2-13.54 9.81-7.66 19.03-14.22 20.51-14.59 4.57-1.15 7.58 3.78 4.57 7.49-1.37 1.69-20.42 16.84-21.17 16.84-.26 0-2.16 1.55-4.24 3.45-2.76 2.54-3.37 3.59-2.3 3.97.8.28 7.18 2.11 14.17 4.06 17.77 4.95 17.79 4.96 17.79 8.3 0 3.33-1.6 5.21-4.45 5.24-1.13.01-10.44-2.29-20.7-5.11l-18.64-5.12-6.86 5.33c-3.77 2.92-11.35 8.79-16.85 13.04s-11.32 8.81-12.94 10.13l-2.93 2.42 2.8 5.89c4.58 9.66 7.54 23.4 7.56 35.1.02 18.3-4.35 32.97-14.61 49.04l-3.34 5.24 12.29 12.26c24.91 24.87 37.56 51.66 39.3 83.26 2.42 43.72-19.1 83.33-61.81 113.81-12.42 8.87-51.54 27.3-53.59 25.26-.3-.31-1.04-.17-1.64.3-3.12 2.43-31.71 8.45-35.88 7.55-1.55-.33-3.41-.08-4.18.56m-59.77-11.52c18.66 3.16 52 2.99 71.21-.36 16.91-2.94 38.34-8.66 41.53-11.07.55-.42 5.05-2.48 10-4.58 9.36-3.98 18.51-8.96 24.5-13.35 9.12-6.68 22.85-18.2 26-21.81 5.73-6.57 13.25-16.3 16.39-21.2 3.6-5.63 10.61-20.36 10.61-22.3 0-.78.85-3.19 1.88-5.35 1.03-2.17 2.38-8.29 3-13.61 2.77-23.92.09-42.51-8.88-61.51-4.6-9.74-15.2-25.72-22.2-33.48-4.36-4.83-14.59-13.84-15.71-13.84-.48 0-4.42 3.21-8.74 7.14-21.64 19.66-48.76 32.27-82.85 38.5-11.47 2.09-40.7 2.87-54 1.43-21.51-2.34-54.34-12.4-66.34-20.35-2.01-1.33-7.58-5.01-12.37-8.16-4.79-3.16-11.76-8.63-15.49-12.14-5.04-4.75-7.28-6.24-8.7-5.79-3.73 1.18-20.19 18.91-26.84 28.9-11.14 16.75-16.4 30.22-19.36 49.61-2 13.09-1.29 24.15 2.52 39.16 3.46 13.65 7.08 21.69 15.5 34.51 12.31 18.73 29.62 34.44 51.7 46.93 21.34 12.07 38.71 17.99 66.64 22.72M374 496.89c8.98 1.43 31.91 1.23 42.59-.38 24.76-3.71 35.96-6.9 53.28-15.18 15.62-7.46 24.88-13.97 36.67-25.78 19.07-19.08 28.05-41.27 26.08-64.43-.85-9.97-6.51-28.12-8.78-28.12-.52 0-4.42 2.7-8.68 6s-8.44 6-9.3 6c-.85 0-2.35-.88-3.32-1.96-2.96-3.26-1.25-6.24 7.44-12.97 4.41-3.41 8.02-6.67 8.02-7.25 0-2.27-12.18-15.31-21.8-23.33l-3.3-2.75-3.52 1.88c-5.33 2.84-5.55 3.45-3.34 9.46 8.54 23.2 16.51 67.15 14.54 80.21-.81 5.41-4.87 10.84-9.33 12.48-4.48 1.65-29.81 4.53-35.27 4-5.33-.51-8.99-2.99-11.46-7.77-.71-1.38-1.82-8.8-2.45-16.5-.64-7.7-1.59-17.08-2.12-20.85-1.22-8.63-6.28-29.56-8.73-36.15-1.57-4.21-2.25-4.98-4.29-4.85-1.34.08-9.49.65-18.11 1.27-36.71 2.65-73.67-3.74-103.46-17.88l-10.14-4.81-6.15 5.03c-5.62 4.6-18.07 18.81-18.07 20.62 0 .42 3.61 3.66 8.01 7.19 8.48 6.8 9.74 8.66 8.05 11.82-2.24 4.19-4.79 3.64-13.1-2.8-4.32-3.35-8.28-6.09-8.79-6.09-1.21 0-4.74 8.27-6.92 16.21-2.59 9.44-2.29 27.89.63 38.26 3.78 13.46 10.82 25.14 22.51 37.32 11.44 11.92 30.22 24.57 44.15 29.72 2.73 1.01 5.41 2.13 5.96 2.48 1.06.69 7.99 2.95 10.5 3.42.83.16 2.17.56 3 .9 1.94.78 16.61 3.61 29 5.58m-2.5-201.43c18.72 2.75 44.98 1.36 63.94-3.4 16.59-4.17 34.93-12.6 40.75-18.72 3.36-3.54 11.39-19.55 12.33-24.59l.02-.08c.27-1.47.46-2.46.05-3.02-.85-1.17-4.29-.46-14.93 1.74l-.3.06c-30.01 6.19-47.1 9.23-56.99 10.15-5.84.54-7.73.3-12.01-1.54-6.29-2.71-11.58-8.02-14.48-14.56-2.99-6.72-3.09-18.07-.21-24.5 6.21-13.87 17.56-18.43 36.33-14.6 25.34 5.17 43.04 8.9 52.47 11.05 6.04 1.38 11.33 2.15 11.77 1.71 1.13-1.13-2-15.47-5.04-23.16-5.62-14.18-12.58-24.44-23.47-34.64-5.13-4.79-7.38-6.21-10.76-6.75-2.36-.38-4.77-1-5.37-1.4-.61-.39-1.77-.72-2.6-.73-1.42-.02-16.49-3.45-33-7.5-4.12-1.01-13.77-3.27-21.42-5.01l-13.93-3.17-6.57 1.75c-41.22 10.97-70.41 48.42-70.51 90.45-.05 20.06 6.58 39.84 16.44 49.1 10.17 9.55 31.78 17.58 57.49 21.36m6 44.53c8.25.41 17.48.59 20.5.39 3.02-.19 7.08-.45 9.01-.57 1.94-.12 4.06.12 4.73.53 1.54.95 19.25-1.66 29.76-4.37 4.4-1.14 13.17-3.83 19.5-5.99 6.33-2.15 13.08-4.44 15-5.09 1.92-.66 4.79-1.65 6.37-2.21 1.57-.56 4.39-2.59 6.25-4.5 2.8-2.89 3.38-4.24 3.38-7.9 0-2.42-.86-6.52-1.92-9.09-1.05-2.58-2.51-7.38-3.25-10.67-1.13-5.09-1.74-6.13-4.08-6.95-2.4-.83-3.51-.43-8.5 3.09-10.53 7.42-23.95 12.84-35.75 14.43-3.85.52-11.4 1.53-16.77 2.25-5.37.71-10.3 1.83-10.95 2.48-1.63 1.63-31.09 1.63-34.1-.01-2.14-1.16-12.29-3.02-26.18-4.8-3.85-.5-9.6-1.8-12.77-2.91-7.79-2.71-18.15-7.36-18.57-8.33-.83-1.95-9.3-6.77-11.9-6.77-4.44 0-6.2 1.95-7.2 8-.51 3.02-1.63 7.47-2.49 9.88-2.03 5.66-2 12.53.07 15.7 1.96 2.98 9.19 7.42 12.1 7.42 1.13 0 6.11 1.56 11.06 3.47 4.95 1.92 12.53 4.44 16.85 5.62 4.32 1.17 8.3 2.49 8.85 2.92 1.82 1.42 15.78 3.22 31 3.98m78.06-200.76c1.78-1.23 3.33-6.2 5.91-18.97 1.36-6.73 3.2-15.05 4.1-18.5 1.79-6.9 1.37-13.68-1.09-17.42-2.36-3.61-6.88-5.4-22.47-8.89-7.98-1.78-20.68-4.72-28.22-6.52-12.08-2.88-14.19-3.13-17.66-2.09-7.12 2.14-7.72 3.19-13.12 23.14-6.48 23.91-7.58 29.89-5.83 31.59.73.71 6.05 2.4 11.82 3.75 5.77 1.36 17.48 4.09 26 6.07 8.52 1.99 20 4.68 25.5 6 11.02 2.64 13.49 2.94 15.06 1.84M454 424c2.37 2.37 2.72 2.37 19.7.14 9.62-1.27 14.03-1.81 15.92-4.28 1.59-2.09 1.39-5.56 1.02-11.99l-.03-.37c-.68-11.75-2.16-21.27-5.68-36.5-1.2-5.23-2.54-11.75-2.96-14.5-.8-5.27-4.11-14.46-6.56-18.25-1.9-2.93-3.52-2.84-14.29.76-4.95 1.66-11.38 3.47-14.29 4.02-8.06 1.53-8.5 2.35-6.35 11.67 1.74 7.52 3.97 13.26 5.56 14.3 1.02.67 5.03 24.66 5.41 32.37.17 3.37.36 9.39.43 13.38.1 5.81.52 7.65 2.12 9.25m-49.66-177.51c5.16 3.09 10.81 3.24 23.21.61 4.92-1.04 12.78-2.45 17.45-3.13 4.67-.69 14.58-2.57 22-4.19s17.34-3.54 22.02-4.26c8.94-1.37 15.98-3.74 15.98-5.39 0-1.8-16.23-6.42-32.5-9.24-3.3-.58-11.62-2.35-18.5-3.94-24.14-5.58-41.72-8.49-45.53-7.53-4.15 1.04-9.28 5.65-10.96 9.84-.83 2.08-1.51 6.55-1.51 9.94 0 8.2 2.77 13.95 8.34 17.29m-1.83 219.65c-10.34 4.69-22.44-.59-27.16-11.86-3.74-8.92.95-20.24 10.11-24.4 7.13-3.24 17.44-1.93 22.9 2.91 2.52 2.24 6.62 11.03 6.62 14.21.02 7.76-5.26 15.86-12.47 19.14m0-58c-5.52 2.5-12.1 2.35-16.91-.41-8.3-4.74-13.11-14.76-10.79-22.48 3.1-10.35 10.52-15.7 20.75-14.95 10.33.75 17.04 6.72 18.94 16.84 1.47 7.86-3.93 17.33-11.99 21M370.1 199.73c-6.46 4.32-16.14 1.95-19.64-4.8-.8-1.56-1.46-5.04-1.46-7.75 0-17.2 25.55-17.64 27.64-.47.59 4.84-1.99 9.99-6.54 13.02m78.11-4.97c-4.97 2.79-8.66 2.8-13.43.04-4.92-2.85-7.15-7.64-6.53-14.03.64-6.68 4.59-10.77 11.11-11.51 9.13-1.03 15.64 4.32 15.64 12.87 0 6.42-1.85 9.85-6.79 12.63m-58.86 261.31c3.8 2.32 5.83 2.41 9.67.42 3.71-1.92 4.98-4.32 4.98-9.42 0-4.96-2.39-7.68-7.6-8.65-5.31-1-8.6.48-10.73 4.83-2.39 4.88-.92 10.02 3.68 12.82m-1.43-58.99c4.11 4.11 8.25 3.95 12.68-.48 5.98-5.98 4.02-14.18-3.85-16.13-6.64-1.65-11.75 2.4-11.75 9.3 0 3.51.58 4.96 2.92 7.31"/><path fill="#6d4233" d="M404.34 246.49c-5.57-3.34-8.34-9.09-8.34-17.29 0-3.39.68-7.86 1.51-9.94 1.68-4.19 6.81-8.8 10.96-9.84 3.81-.96 21.39 1.95 45.53 7.53 6.88 1.59 15.2 3.36 18.5 3.94 16.27 2.82 32.5 7.44 32.5 9.24 0 1.65-7.04 4.02-15.98 5.39-4.68.72-14.6 2.64-22.02 4.26s-17.33 3.5-22 4.19c-4.67.68-12.53 2.09-17.45 3.13-12.4 2.63-18.05 2.48-23.21-.61m.46-1.57c1.87 1.4 4.29 2.03 7.84 2.05 8.03.05 87.66-14.87 89.57-16.78 1.26-1.26-30.58-8.64-78.65-18.21-12.91-2.57-16.61-1.96-21.43 3.52-7.41 8.44-6.1 22.87 2.67 29.42m78.56 118.87c-.48-1.62-.92-2.85-1.32-3.57-.51-.94-1.7-4.16-2.63-7.15-1.75-5.63-5.05-12.02-6.87-13.32-1.3-.93-5.43-.19-12.54 2.26-3.02 1.04-8.07 2.39-11.2 3-4.11.8-5.87 1.64-6.3 3-.72 2.25 1.07 12.83 3.03 17.9 1.71 4.47 5.52 27.24 5.92 35.46-.38-7.71-4.39-31.7-5.41-32.37-1.59-1.04-3.82-6.78-5.56-14.3-2.15-9.32-1.71-10.14 6.35-11.67 2.91-.55 9.34-2.36 14.29-4.02 10.77-3.6 12.39-3.69 14.29-.76 2.45 3.79 5.76 12.98 6.56 18.25.24 1.54.76 4.27 1.39 7.29m-159.32-35.11c-1.15-.41-2.25-.82-3.24-1.21-4.95-1.91-9.93-3.47-11.06-3.47-2.91 0-10.14-4.44-12.1-7.42-2.07-3.17-2.1-10.04-.07-15.7.86-2.41 1.98-6.86 2.49-9.88 1-6.05 2.76-8 7.2-8 2.6 0 11.07 4.82 11.9 6.77.16.35 1.65 1.21 3.88 2.28-3.26-1.53-6.21-3.12-8.74-4.74-8.44-5.37-10.65-4.55-12.61 4.73-.75 3.55-2.11 7.9-3.02 9.66-2.56 4.91-2.17 10.56.99 14.31 2.54 3.02 13.56 8.47 24.38 12.67M393 340.46c10.61-.21 34.19-2.54 44.03-4.53 3.01-.61 6.9-1.26 8.64-1.43.83-.09 2.14-.38 3.79-.82-3.12.95-5.98 1.77-7.96 2.29-10.51 2.71-28.22 5.32-29.76 4.37-.67-.41-2.79-.65-4.73-.53-1.93.12-5.99.38-9.01.57-1.04.07-2.8.09-5 .08m-15.5-.47c-15.22-.76-29.18-2.56-31-3.98-.41-.33-2.75-1.14-5.72-2.03.8.16 1.54.29 2.22.38 1.92.24 7.1 1.12 11.5 1.94 6.82 1.28 14.54 2.19 34.5 4.08l.28.03c-3.62-.08-7.81-.22-11.78-.42m-34.25-40.35c2.5.59 5.16 1.1 7.25 1.37 13.89 1.78 24.04 3.64 26.18 4.8.96.52 4.57.88 9.12 1.07-5.72-.14-10.81-.44-14.11-.92-9.62-1.39-19.41-3.6-28.44-6.32m63.15 7.01c2.39-.2 4.03-.48 4.38-.83.65-.65 5.58-1.77 10.95-2.48 5.37-.72 12.92-1.73 16.77-2.25 1.52-.2 3.06-.47 4.62-.8-9.53 2.57-20.35 4.85-27.62 5.68-2.57.29-5.7.51-9.1.68m56.72 22.61c6.46-2.32 12.84-4.87 15.76-6.49 9.57-5.26 13.4-9.86 12.73-16.09.25 1.33.39 2.61.39 3.6 0 3.66-.58 5.01-3.38 7.9-1.86 1.91-4.68 3.94-6.25 4.5-1.58.56-4.45 1.55-6.37 2.21-1.71.58-7.23 2.45-12.88 4.37m24.14 52.46c1.89 9.54 2.85 17.04 3.35 25.78-.39-6.79-1.75-16.71-3.35-25.78m-12.46-95.45c4.53-3.16 5.64-3.5 7.95-2.7-1.99-.69-3.26-.37-7.95 2.7"/><path fill="#5a5f60" d="M389.35 456.07c-4.6-2.8-6.07-7.94-3.68-12.82 2.13-4.35 5.42-5.83 10.73-4.83 5.21.97 7.6 3.69 7.6 8.65 0 5.1-1.27 7.5-4.98 9.42-3.84 1.99-5.87 1.9-9.67-.42m-1.43-58.99c-2.34-2.35-2.92-3.8-2.92-7.31 0-6.9 5.11-10.95 11.75-9.3 7.87 1.95 9.83 10.15 3.85 16.13-4.43 4.43-8.57 4.59-12.68.48"/><path fill="#8f9899" d="M304.63 167.93c9.25-14.03 21.82-25.8 36.87-33.77 4.04-2.14 8.5-5.55 8.5-6.5 0-.28-2.49-1.07-5.53-1.75-.96-.22-1.92-.51-2.85-.86 1.4.43 3.01.82 4.82 1.16 3.61.69 6.55 1.48 6.55 1.77-.01.29-2.82 1.87-6.25 3.51-17.52 8.42-31.88 21.11-42.11 36.44m62.92-58.11c1.14-4.19 2.54-9.56 3.97-15.32 2.94-11.8 6.08-22.97 7.28-25.98-1.28 3.54-4.31 14.35-7.25 25.98-1.74 6.85-3.01 11.78-4 15.32m-32.59 11.2c-.61-.66-.96-1.3-.96-1.86 0-.43.59-1.52 1.38-2.6-1.03 1.65-1.17 3.14-.42 4.46m1.86-6.28.9-1.11 3.53.81c-2.48-.42-3.61-.32-4.43.3m47.22-53.09c1.71-1.38 3.79-2.57 6.41-3.73-2.59 1.14-4.68 2.35-6.41 3.73m-30.48 55.58c1.91.41 3.51.73 4.86.98-1.45-.26-3.12-.6-4.86-.98m8.18 1.5"/><path fill="#bde9fb" d="M427.5 735.54c-14.35 1.57-57.28 1.75-71.5.29-46.64-4.76-91.53-17.89-132.5-38.74-50.89-25.91-96.47-65.57-130.16-113.28-14.68-20.79-33.47-55.16-40.89-74.81-7.77-20.59-15.39-47.65-19.85-70.5-12.34-63.28-4.85-134.32 20.97-199 5.32-13.33 17.61-38.08 24.47-49.28 2.45-4.01 5.81-9.51 7.46-12.22 6.62-10.91 18.01-26.16 26.13-35 2.27-2.48 6.38-7.2 9.13-10.5 10.07-12.08 39.3-39.02 51.83-47.78 2.54-1.77 5.87-4.12 7.4-5.22 29.24-21.03 63.61-38.05 100.94-49.99 18.11-5.79 32.03-9.05 55.33-12.97 19.12-3.22 62.41-4.5 84.74-2.51 36.6 3.26 82.67 15.01 113.5 28.95 50.8 22.95 90.58 51.88 125.87 91.52 14.12 15.85 31.83 39.77 38.72 52.3 1.42 2.58 4.28 7.63 6.35 11.2 26.36 45.53 41.88 99.21 45.7 158 1.04 16.04.9 22.86-1.08 51-1.9 26.92-8.74 59.15-18.35 86.5-7.25 20.6-10.52 28.33-20.14 47.5-2.97 5.9-15.93 28-20.53 35-6.1 9.28-21.99 30.19-27.36 36-17.95 19.43-34.74 35.79-43.18 42.1-1.65 1.23-4.37 3.51-6.05 5.07s-5.36 4.3-8.18 6.09c-2.82 1.78-7.71 5.22-10.86 7.64-7.86 6.03-26.14 16.95-41.84 24.98-39.28 20.1-81.86 32.82-126.07 37.66m-7.97-41.56c.77-.64 2.63-.89 4.18-.56 4.17.9 32.76-5.12 35.88-7.55.6-.47 1.34-.61 1.64-.3 2.05 2.04 41.17-16.39 53.59-25.26 42.71-30.48 64.23-70.09 61.81-113.81-1.74-31.6-14.39-58.39-39.3-83.26l-12.29-12.26 3.34-5.24c10.26-16.07 14.63-30.74 14.61-49.04-.02-11.7-2.98-25.44-7.56-35.1l-2.8-5.89 2.93-2.42c1.62-1.32 7.44-5.88 12.94-10.13s13.08-10.12 16.85-13.04l6.86-5.33 18.64 5.12c10.26 2.82 19.57 5.12 20.7 5.11 2.85-.03 4.45-1.91 4.45-5.24 0-3.34-.02-3.35-17.79-8.3-6.99-1.95-13.37-3.78-14.17-4.06-1.07-.38-.46-1.43 2.3-3.97 2.08-1.9 3.98-3.45 4.24-3.45.75 0 19.8-15.15 21.17-16.84 3.01-3.71 0-8.64-4.57-7.49-1.48.37-10.7 6.93-20.51 14.59-9.81 7.65-18 13.75-18.2 13.54-.21-.21.26-6.66 1.05-14.34 2.04-20.06 2-20.9-1.14-22.33-2.11-.96-3.05-.92-4.8.22-1.88 1.24-2.33 2.98-3.41 13.29-.69 6.52-1.75 16.5-2.35 22.18l-1.11 10.32-8.11 6.68c-11.95 9.85-20.31 16.18-21.36 16.18-.51 0-3.14-2.76-5.83-6.13-2.7-3.38-8.71-9.64-13.36-13.93-8.1-7.47-8.39-7.89-7.25-10.41 1.78-3.89 1.42-11.46-.77-16.27-1.06-2.34-2.47-7.03-3.14-10.43-.92-4.67-2.09-7.15-4.75-10.1l-3.54-3.91 4.14-8.16c3.97-7.82 5.84-13.31 6.97-20.48.6-3.82 1.98-4.54 11.83-6.26 8.58-1.49 12.46-4.56 12.46-9.85 0-5.69-2.77-7.41-16.16-10.06-6.42-1.27-6.93-1.95-7.43-10.03-.79-12.83-8.63-32.16-18.55-45.77-2.69-3.69-4.48-6.84-3.98-7 .5-.17 3.91.39 7.58 1.24 8.55 1.99 10.79 1.07 10.35-4.27l-.31-3.68-13.49-3.32c-7.42-1.83-13.68-3.52-13.91-3.75s1.29-8.19 3.39-17.68 3.87-18.15 3.92-19.25c.06-1.1.5-2.62.99-3.39.49-.76 1.11-4.47 1.38-8.25.61-8.52-1.28-14.01-6.73-19.57-4.35-4.44-6.72-5.29-28.55-10.25-7.7-1.75-18.5-4.3-24-5.67-15.01-3.76-22.02-4.12-28.05-1.45h-.01c-2.58 1.15-4.67 2.35-6.4 3.73-2.06 1.65-3.59 3.53-4.82 5.85q-.165.3-.42 1.02c-1.2 3.01-4.34 14.18-7.28 25.98-1.43 5.76-2.83 11.13-3.97 15.32-2.1 7.51-2.92 8.8-4.2 8.98-.11.02-.27.03-.46.02-.33-.01-.71-.04-1.15-.09-.87-.1-2.01-.28-3.32-.52-.04-.01-.08-.01-.12-.02-1.32-.24-2.89-.56-4.74-.96-.96-.21-1.94-.44-2.93-.68-4.41-1.06-7.34-1.76-9.38-2.11l-3.53-.81-.9 1.11c-.48.36-.85.9-1.32 1.62-.04.06-.08.13-.12.2-.79 1.08-1.38 2.17-1.38 2.6 0 .56.35 1.2.96 1.86.91 1.61 3.14 2.95 6.66 4.03.93.35 1.89.64 2.85.86 3.04.68 5.53 1.47 5.53 1.75 0 .95-4.46 4.36-8.5 6.5-15.05 7.97-27.62 19.74-36.87 33.77-12.41 18.59-18.74 41.05-17.29 64.47.75 12.04 3.34 21.91 8.86 33.79l4.07 8.77-3.47 3.84c-2.6 2.88-3.77 5.39-4.69 10.03-.67 3.4-2.08 8.09-3.14 10.43-2.07 4.56-2.58 13.01-1.02 17.1.86 2.26.35 3.01-5.58 8.22-3.59 3.15-9.67 9.49-13.51 14.08l-6.98 8.36-4.69-3.84c-6.01-4.92-18.91-15.09-22.42-17.68-2.6-1.92-2.78-2.64-4.32-17.5-.89-8.52-1.86-18.52-2.16-22.21-.67-8.08-2.7-10.73-7.07-9.2-3.5 1.22-3.7 3.62-1.85 21.91.77 7.7 1.22 14.32.98 14.72-.24.39-4.35-2.34-9.14-6.08-4.79-3.73-13.13-10.24-18.54-14.46-5.41-4.23-10.66-7.68-11.68-7.68-2.45 0-4.99 2.64-4.99 5.19 0 2.32 1.12 3.37 17 15.92 6.32 5 11.5 9.57 11.5 10.16 0 1.13-10.19 4.53-22 7.36-3.85.92-7.56 2.11-8.25 2.65-2.06 1.6-1.52 6.51.86 7.78 2.67 1.43 3.71 1.23 24.57-4.57l17.19-4.78L236.43 340c10.76 8.41 19.57 15.48 19.57 15.72 0 .25-1.37 3.57-3.05 7.39-4.98 11.35-7.08 21.07-7.1 32.89-.03 18 4.05 32.32 13.64 47.88l4.44 7.2-11.21 11.21c-15.08 15.07-20.44 22.06-27.14 35.41-11.2 22.33-15.14 43.59-12.65 68.3 1.79 17.71 9.11 37.37 19.76 53.13 10.48 15.49 28.92 33.15 45.99 44.03 25.01 15.94 59.04 28.03 85.82 30.48 2.2.2 6.92.75 10.5 1.22 9.35 1.22 42.79.56 44.53-.88M309.7 496.5c1.99 1.92 3.75 3.5 3.93 3.5 1.15 0 8.37-3.34 8.37-3.87 0-.78-4.26-3.29-8.77-5.55 14.2 6.7 38.51 13.77 56.46 16.15-5.11-.57-9.84-1.34-14.33-2.32-3.93-.86-8.43-1.42-10-1.24-2.5.29-2.82.69-2.55 3.23.56 5.17-3.7 5.87-15.15 2.49-8.45-2.5-17.05-6.45-18.87-8.66-.71-.86-4.89-3.24-9.29-5.28-7.85-3.64-20.6-13.46-20.08-15.45.14-.55 1.79-1.07 3.67-1.16 1.87-.09 3.97-.21 4.66-.25 2.69-.19.95-2.81-5.19-7.84-3.53-2.89-6.83-5.25-7.35-5.25-.51 0-.88 1.23-.82 2.74.19 4.68-5.81 3.55-6.57-1.24-.25-1.55.32-2.07 2.49-2.32 2.31-.27 2.6-.58 1.63-1.75-.65-.79-1.82-1.43-2.6-1.43-.75 0-5.22 3.86-10.09 8.68 4.63-4.83 8.72-8.53 10.35-9.05 1.42-.45 3.66 1.04 8.7 5.79 3.73 3.51 10.7 8.98 15.49 12.14 4.79 3.15 10.36 6.83 12.37 8.16 1.43.95 3.16 1.93 5.13 2.92-4.05-1.92-7.85-3.41-8.49-3.02-.44.28-.8 1.82-.8 3.44 0 2.3.45 2.94 2.05 2.94 1.13 0 3.67 1.58 5.65 3.5m159.55-.16c2.57 1.04 5.34.59 8.25-1.34 1.65-1.09 3.98-1.99 5.18-1.99 1.2-.01 2.88-.72 3.75-1.58 1.61-1.61 2.24-7.86.73-7.26-.3.12-2.3 1.08-5.03 2.42 9.92-5.49 18.97-11.96 27.22-19.45.18-.16.35-.32.52-.47-.76.73-1.57 1.52-2.4 2.36l-6.92 6.97h3.6c5.45 0 6.51 2.06 3.14 6.06-3.15 3.75-13.45 10.69-17.25 11.64-1.39.34-4.13 1.9-6.08 3.46-3.48 2.79-10.29 6.74-18.79 10.89-2.37 1.16-6.75 2.36-9.71 2.67l-5.4.55.61-5.13c.02-.13.03-.25.04-.37.26-2.16.42-3.5-.17-4.18-.79-.88-2.89-.61-7.81.46 10.69-2.8 20.62-6.33 29.84-10.62-4.67 2.64-5.5 4.03-3.32 4.91M472 272.69c0 3.95 2.63 2.86 6.01-1.74-.69 1.03-1.31 1.85-1.82 2.39-3.54 3.72-11.7 8.29-21.29 12.24 2.08-1.03 3.6-2.23 3.6-3.21 0-1.34-.85-1.96-3-2.2-3.81-.41-4.86-1.45-4.06-3.98.69-2.18 8.22-8.15 15.82-12.54 5.92-3.42 15.03-15.95 11.96-16.44-.84-.14-8.58 1.04-16.21 2.35 3.27-.66 6.71-1.36 10.35-2.11l.3-.06c7.5-1.55 11.42-2.36 13.38-2.29-1.67.32-2.79 1.39-2.37 2.48.62 1.62.63 1.63 2.75.81.66-.25 1.14-.83 1.39-1.43-.04.47-.15 1.04-.27 1.71l-.02.08c-.43 2.33-2.39 7.02-4.7 11.73.92-2.44.64-3.48-.78-3.48-1.57 0-8.04 6.36-8.07 7.93-.02.87-.69 2.44-1.5 3.51s-1.47 2.98-1.47 4.25m-72.2 246.56c.32 1.59-.8 1.75-12.56 1.75-7.1 0-13.18-.27-13.5-.6-.33-.33-3.45-.79-6.92-1.02-8.08-.53-13.41-2.19-11.91-3.69.6-.6 1.09-2.25 1.09-3.68 0-2.58.01-2.58 8.99-2.68 4.96-.05 8.74.3 8.44.79-.3.48.27.9 1.26.92 2.42.05 9.25.91 12.12 1.53 1.69.36 2.22 1.08 2 2.69-.29 2.03.1 2.2 5.17 2.22 4.41.02 5.54.36 5.82 1.77m155.24 80.39c-1.97 4.01-4.12 8.05-5.65 10.45-3.14 4.9-10.66 14.63-16.39 21.2-1.64 1.88-6.16 5.91-11.4 10.29 3.11-2.71 2.97-3.19 1.47-3.75-1.24-.46-2.62-.61-3.07-.33-1.24.77-4-.55-4-1.91 0-.66 1.71-2.97 3.8-5.14s4.57-5.19 5.52-6.7 2.34-2.75 3.1-2.75c1.87 0 2.78 2.76 1.63 4.91-.9 1.68-1.07 6.09-.23 6.09 2.14 0 15.45-14.76 14.57-16.17-.27-.45.63-1.94 2.01-3.32 1.71-1.71 2.05-2.51 1.05-2.51-.8 0-1.45.44-1.45.99 0 .54-1.69 1.75-3.75 2.69s-4.03 1.87-4.36 2.05c-.34.19-1.18-1.01-1.86-2.66-.9-2.18-.96-3.82-.22-5.95.56-1.62.77-3.2.47-3.51-.31-.31 0-1.25.7-2.09 1.82-2.19 8.24-1.92 11.29.48 1.4 1.1 3.06 2 3.69 2 .53 0 1.74-1.84 3.08-4.36M357.66 494.05c-6.46-1.22-11.57-2.3-12.66-2.74-.83-.34-2.17-.74-3-.9-2.51-.47-9.44-2.73-10.5-3.42-.36-.23-1.65-.8-3.27-1.45 2.19.75 3.81 1.09 4.18.72.32-.33.59-1.39.59-2.36s1.29-2.68 2.86-3.8c2.34-1.66 3.85-1.94 8.25-1.49 8.89.91 15.05 4 11.1 5.57-1.15.46-.64.7 1.59.75 1.81.04 4.66-.63 6.31-1.49 3.77-1.95 9.26-1.55 9.68.7.78 4.08-17.56 8.55-22.31 5.44-2.37-1.56-5.48-2.13-5.48-1.01 0 1.62 3.42 3.56 7.69 4.38 1.78.33 3.67.76 4.97 1.1m-28.12 181.6c-3.6-1.1-7.09-2.28-10.51-3.57 2.44.75 3.21.34 5.25-.79 1.77-.99 3.49-2.15 3.81-2.59.33-.44 1-.67 1.5-.51s2.63-.77 4.73-2.07c3.55-2.2 4.6-2.34 14.51-1.93 5.88.24 11.57.93 12.65 1.54 1.8 1 1.67 1.18-1.51 2.02-3.39.9-3.67 1.45-2.85 5.71.49 2.53-3.02 3.39-4.66 1.15-1.06-1.44-6.46-1.98-6.46-.64 0 1.13-12.55.48-13.82-.72-1.95-1.84-3.18-1.52-3.18.82 0 .91.14 1.4.54 1.58M374 496.89c-.89-.14-1.8-.29-2.71-.44 4.93.59 5.72.5 8.54-.07 2.7-.54 2.9-.79 1.63-2.07-1.86-1.85-1.87-3.31-.03-3.31.78 0 2.3-1.11 3.37-2.48 4.09-5.2 9.86-5.11 18.63.28 4.35 2.68 5.76 6.08 2.61 6.31-.85.06.44.5 2.87.97 2.77.55 6.63.48 12.03-.24-1.4.23-2.85.45-4.35.67-10.68 1.61-33.61 1.81-42.59.38m-42.85-212.27c-7.22-3.15-13.09-6.72-17.14-10.52-4.09-3.84-7.62-9.48-10.35-16.2.37.86.8 1.81 1.31 2.87 3.59 7.59 5.39 8.57 8.54 4.62l2.32-2.89 5.71 3c3.14 1.65 7.29 4.46 9.21 6.24 3.04 2.8 3.33 3.46 2.17 4.85-.74.89-2.37 2.01-3.63 2.49s-2.29 1.47-2.29 2.21c0 .78 1.73 2.08 4.15 3.33m110.66 207.14c.11-.25.19-.66.19-1.14 0-.75-1.31-1.63-2.92-1.95-1.66-.34-3.18-1.42-3.53-2.52-.34-1.06-1.61-2.19-2.83-2.51-1.94-.51-2.03-.75-.71-1.97 1.64-1.52 12.32-4.67 15.85-4.67 2.9 0 8.14 3.9 8.14 6.07 0 2.77 3.1 2.9 9.27.4-8.08 3.66-15.11 6.19-23.46 8.29m31.24-11.98c6.7-3.62 7.71-5.77 4.02-7.74-2.49-1.33-3.57-4.74-2.07-6.54 2.34-2.82 12-7.5 15.48-7.5 3.36 0 3.52.16 3.52 3.5 0 2.25.48 3.5 1.33 3.5.52 0 1.7-.75 3.17-1.89-7.7 6.7-15.19 11.56-25.45 16.67m-149.13 4.11c-9-3.61-19.76-10.06-29.19-17.32 1.38.48 2.11-.21 4.6-3.09l3.33-3.85 4.92 2.61c2.71 1.44 7.31 3.78 10.22 5.2 4.71 2.29 6.16 4.56 2.92 4.56-2.46 0-9.72 3.33-9.72 4.47 0 1.22 6.93 4.89 12.92 7.42m241.24 82.32c-.08.87-.18 1.74-.28 2.62-.62 5.32-1.97 11.44-3 13.61-1.03 2.16-1.88 4.57-1.88 5.35 0 .62-.72 2.54-1.81 5.06.82-2.02 1.49-3.93 1.81-5.33.8-3.57-.04-4.52-3.99-4.52-1.33 0-2.25-1.41-3.4-5.25-2.99-10-4.82-17.26-4.96-19.75-.18-3.02 2.14-3.36 3.74-.55 1.43 2.51 2.5 3.89 5.86 7.54 1.67 1.82 2.75 4.12 2.75 5.88 0 2.68 2.42 6.04 3.54 4.92.27-.27.99-4.5 1.6-9.39.01-.06.02-.13.02-.19m-6.18-52c5.6 14.24 7.71 28.64 6.7 45.63.7-14.88-1.39-33.84-4.2-33.84-1.33 0-1.69.78-2.92 6.29-.42 1.91-1.16 2.69-2.34 2.5-1.14-.19-1.83.47-2.04 1.96-.32 2.22-1.61 2.98-2.54 1.48-.83-1.35-1.17-26.03-.37-26.84.43-.42 1.47.22 2.31 1.42 1.48 2.12 5.09 2.97 5.4 1.4m-51.68-59.42c.84-1 1.37-1.79 1.37-2.18 0-2.36-2.3-2.69-4.86-.7-1.27 1-3.87 2.61-5.77 3.58l-3.46 1.78 1.72-2.38c.95-1.32 2.82-4.04 4.16-6.05 3.2-4.77 9.33-11.19 12.77-13.34 2.7-1.68 2.75-1.67 3.74.91.88 2.31 1.23 2.48 2.97 1.39.97-.6 2.29-2.4 3.57-4.58-4.1 7.52-9.51 14.74-16.21 21.57M361.5 351.97c3.93.68 5.84.59 11.2-.54 2.1-.44 2.38-.77 1.25-1.48-.14-.09-.34-.18-.59-.25 8.47.72 17.06.96 25.67.71-6.9.32-13.83.55-18.53.59-2.2.02-3.53.36-2.97.77.57.4 1.02 1.4 1 2.23-.04 2.17-7.99 2.45-15.33.55-3.3-.85-7.39-1.55-9.09-1.55-1.71 0-3.11-.45-3.11-1s1.01-1.01 2.25-1.02c1.82-.01 1.96-.2.75-.98-.83-.53-1.05-.98-.5-.99 1.78-.04-4.67-3.01-6.53-3.01-1 0-7.28-1.58-13.97-3.5-14.25-4.1-16-4.26-16-1.48 0 1.69-.45 1.91-2.75 1.38-1.51-.35-3.83-1.32-5.16-2.15l-2.41-1.5 2.35-1.77 2.34-1.77-8.02-4.04-3.18-1.59 5.19 2.46c18.29 8.68 39.28 14.44 61.26 16.98-3.82-.05-7.55.28-7.12.98.34.55.03 1.06-.69 1.14s.49.45 2.69.83m25.9 326.21c-3.25.38-7.25.94-8.9 1.26-3.36.65-6.5-.79-6.5-2.99 0-1.31-1.21-1.89-3.25-1.57-.41.07-.75-.73-.75-1.77 0-1.75.95-1.91 12.34-2.05 10.3-.12 12.57.12 13.69 1.48 2.36 2.84-.05 4.88-6.63 5.64m127.18-30.89a270 270 0 0 1-7.58 5.81c-5.71 4.18-14.27 8.9-23.17 12.77 3.62-1.72 6.89-3.63 8.49-5.11l2.78-2.59-2.24-2.08c-1.23-1.15-3.09-2.09-4.12-2.09-2.71 0-1.79-3.42 1.02-3.82 1.23-.18 2.25-.63 2.26-1 0-.37.4-1.29.87-2.04.72-1.13 1.47-1.14 4.47-.06 3.3 1.2 3.79 1.13 5.93-.89 1.29-1.2 2.65-2.19 3.02-2.19 1.36 0 .65 3.8-.81 4.36-2.14.82-1.93 4.64.26 4.64.85 0 4.61-2.46 8.82-5.71M382.37 507.68c14.64.46 35.01-.37 44.13-2.04 1.33-.24 2.65-.5 3.95-.76-6.59 1.66-7.32 2.39-5.99 3.73.77.76 1.88 1.39 2.47 1.39s1.07.64 1.07 1.41c0 .87 1.55 1.68 4.05 2.1 7.13 1.2 3.2 4.18-5.8 4.39-4.36.1-5.15-.6-3.05-2.7.93-.93-.05-1.2-4.44-1.2-5.38 0-7.98-1.13-5.76-2.5.57-.35.77-1.06.46-1.57-.32-.51.2-.93 1.15-.93s1.45-.28 1.11-.62c-.35-.34-8.18-.55-17.42-.46-5.73.06-11.01-.02-15.93-.24m37.71-212.7c1.85-.43 2.92-.94 2.92-1.5 0-1.72-2.32-2.48-7.52-2.48-4.75 0-6.58-1.37-3.76-2.81 3.05-1.57 10.25-2.28 12.25-1.21 1.97 1.06 2.4 4.97.57 5.08-.57.04-.08.45 1.08.92 3.31 1.34 14.07-1.69 14.71-4.14.36-1.38-.19-2.28-1.91-3.06-1.33-.6-2.42-1.42-2.42-1.8 0-.89 7.99-3.98 10.28-3.98 2.32 0 2.18.67-.94 4.36l-2.65 3.14 2.98.3c1.6.16 3.73-.21 5.8-.85-5.21 2-10.71 3.77-16.03 5.11-4.74 1.19-9.94 2.17-15.36 2.92m58.73 373.06c-3.32 1.46-5.9 2.68-6.31 2.99-1.9 1.44-10.3 4.05-20.36 6.56 3.86-1.03 6.47-1.92 6.84-2.42.28-.4 1.72-1.48 3.19-2.42 2.44-1.55 2.58-1.96 1.56-4.66-.66-1.73-2.09-3.21-3.43-3.55-2.84-.71-3.27-5.19-.55-5.76 3.36-.69 6.4.5 7.3 2.85.61 1.62 1.69 2.37 3.39 2.37h2.49l-2.01 3.4-2 3.41 4.1-.93c1.68-.37 3.69-1.03 5.79-1.84m-84.16-376.36c-.99.99-11.1 1.06-15.15.1-2.2-.51-6.74-.73-10.09-.49-5.29.4-6.25.19-7.34-1.55-1.74-2.78.26-3.98 5.43-3.27 2.2.31 7.6.98 12 1.5 8.6 1.02 16.02 2.84 15.15 3.71M285.22 458.56a98 98 0 0 1-3.83-3.77c-4.35-4.53-8.05-8.99-11.19-13.5 1.92 2.16 3.8 1.57 3.8-1.35 0-3.08 2.17-2.29 7.33 2.65 5.26 5.04 6.01 8.65 1.92 9.23-1.24.18-2.25.76-2.25 1.31 0 .65 1.87 2.94 4.22 5.43m11.23 203.03c-1.1-.6-2.21-1.22-3.33-1.85a181 181 0 0 1-6.83-4.06c1.31.52 2.13.52 2.54.02.69-.82.56-1.82-.41-3.14-2.16-2.95-1.76-3.56 2.33-3.56 4.46-.01 13.26 2.95 13.22 4.45-.02.58-.72 1.95-1.56 3.05-1.49 1.95-1.57 1.95-2.92.12-1.9-2.56-4.4-1.41-4.04 1.85.15 1.43.45 2.72.67 2.88q.15.12.33.24m60.31-368.86c-7.1-1.59-13.7-3.52-19.62-5.71l.06.02c3.03.89 5.22-.79 4.26-3.28-.85-2.21 2.33-4.96 4.81-4.17 8.11 2.57 10.89 4.96 6.49 5.59-1.23.18-2.39 1.11-2.57 2.07-.47 2.43 1.07 4.01 6.57 5.48m-86.28 351.75q-10.515-8.445-18.93-18.24c4.14 4.27 10.01 9.58 9.05 7.97-.43-.72-.24-1.94.42-2.73.97-1.17 1.59-1.21 3.33-.21 4.23 2.42 11.65 8.13 11.65 8.97 0 .47-1.8.64-4 .39-4.57-.52-5.13.56-1.52 3.85m219.96 1.59c-2.35 2.59-2.87 2.48-7.2-1.52-3.12-2.87-3.56-3.74-2.64-5.24 1.53-2.48 6.93-3.94 8.82-2.38 2.46 2.04 3.01 6.94 1.02 9.14m-61.57 31.41c-.82.76-5.54 1.55-11.7 1.95-9.61.63-10.31.55-9.99-1.13.28-1.47 1.69-1.91 7.83-2.4 4.12-.34 8.24-.93 9.16-1.33s2.66-.2 3.87.45c1.84.98 1.97 1.38.83 2.46M415.4 518.7c-2.33 1.7-5.86 1.66-7.31-.09-.64-.77-2.49-1.95-4.12-2.62-3.43-1.42-3.84-2.95-.98-3.7 1.09-.28 1.74-.92 1.44-1.4-.3-.49.63-.89 2.07-.89 1.49 0 2.35.43 2 1-.34.55-.14 1 .44 1s1.06.86 1.06 1.91c0 1.41.52 1.77 2.01 1.38 1.1-.29 2.71.07 3.59.79 1.43 1.19 1.42 1.44-.2 2.62m15.25-30.76c-3.52 1.34-5.51 1.22-8.65-.52-1.38-.77-3.51-1.4-4.75-1.41-3.08-.02-2.89-2.81.25-3.6 3.1-.78 7.79.31 6.98 1.62-.34.55.83.98 2.71.99 1.82 0 3.97.43 4.78.94 1.17.74.91 1.14-1.32 1.98m83.87-25.32c1.92-1.59 3.3-2.62 3.57-2.62 1.12 0 11.35 9.01 15.71 13.84 2.23 2.47 4.83 5.78 7.47 9.45-7.1-9.31-16.72-19.29-18.81-19.29-.7 0-1.72 1.32-2.28 2.93-1.01 2.88-5.71 6.88-6.8 5.78-.77-.77 1.68-7.76 3.58-10.19 1.4-1.8 1.39-1.87-.05-.76-.88.67-1.8 1.01-2.06.76-.04-.04-.15 0-.33.1m19.99 133c-1.48 2.27-4.9 3.22-5.83 1.63-.82-1.39 1.1-4.73 4.7-8.18 1.98-1.89 3.81-3.21 4.09-2.94.72.73-1.15 6.73-2.96 9.49M302.5 254.85c-1.67-4.71-2.96-9.86-3.8-15.22.55 1.65 1.31 2.37 2.32 2.37 2.06 0 4.61 3.21 5.15 6.5.24 1.44-.3 2.09-1.92 2.32-1.98.28-2.59 1.24-1.75 4.03M457 671.01c-1.26 2.34-3.02 2.91-5.82 1.87-3.23-1.21-2.74-6.23.65-6.71 3.22-.46 6.4 2.52 5.17 4.84m-2.69-14.08c-6.84 1.9-10.25.59-6.98-2.69 2.24-2.24 10-2.28 10.45-.05.25 1.22-.71 1.98-3.47 2.74m-12.35 3.61c-1.6 1.94-10.96 2.04-10.96.12 0-2.8 10.01-5.08 11.53-2.62.35.58.1 1.7-.57 2.5M330 662.41c0 4.38-5.26 3.89-8.32-.78-2.19-3.34-2.16-3.43 1.07-2.93 6.69 1.03 7.25 1.31 7.25 3.71m196.31-234.82c.9-2.22 1.42-4.13 1.13-4.89-.36-.93-1.06-1.7-1.55-1.7-2.06 0-.61-3.78 2.87-7.45l2.93-3.09c-1.08 5.83-2.88 11.55-5.38 17.13m-104.4-72.6c-2.67 1.43-8.41 1.94-10.17.92-1.58-.92-1.61-1.18-.25-2.55 1.46-1.45 3.93-1.37 9.92.33 1.52.43 1.62.71.5 1.3m126.26 218.54c-1.27 2.78-3.92 3.28-4.83.91-.68-1.77 1.15-6.44 2.52-6.44 2.18 0 3.45 3.03 2.31 5.53m-27.18 48.98c-1.6 1.93-3.41 1.89-5.08-.12-1.13-1.36-1.05-1.82.57-3 1.05-.76 2.51-1.39 3.24-1.39 1.94 0 2.71 2.77 1.27 4.51M378.03 667.5c0 1.17-9.22 1.98-10.3.9-1.8-1.8-.33-2.48 4.78-2.2 3.03.17 5.52.75 5.52 1.3m13.74.3c.31.94-.69 1.23-3.68 1.05-5.35-.32-7.31-1.51-3.89-2.36 3.51-.89 7.05-.27 7.57 1.31m125.89-55.37c-.33.86-1.03 1.57-1.57 1.57-1.72 0-2.3-2.04-1.02-3.59 1.52-1.82 3.48-.29 2.59 2.02M260.95 423.8q-1.17-3.105-2.07-6.33c-.49-1.75-.91-3.72-1.25-5.84.31.67.7 1.25 1.21 1.9 1.67 2.12 2.08 3.58 1.59 5.77-.27 1.24-.16 2.55.52 4.5m178.47 251.59-.02.01c-1.2.46-1.65.63-2.01.51-.22-.07-.4-.25-.7-.55-1.04-1.04.28-2.36 2.37-2.36 2.34 0 2.57 1.55.36 2.39M474 645.5c0 .83-.89 1.5-2 1.5-2.38 0-2.65-1.54-.42-2.39 2.24-.86 2.42-.79 2.42.89M314 656c0 .55-.87 1-1.94 1s-2.22-.45-2.56-1c-.35-.57.49-1 1.94-1 1.41 0 2.56.45 2.56 1m15.5-181c.34.55-.28 1-1.38 1s-2.28-.45-2.62-1 .28-1 1.38-1 2.28.45 2.62 1m202.99-70.12v-7.83c-.01-3.67-.08-6.59-.25-9.04.17 1.1.3 2.15.38 3.11.39 4.63.35 9.23-.13 13.76M337.43 677.84c-2.65-.68-5.22-1.39-7.73-2.15.31.06.73-.01 1.3-.19 1.1-.35 2-.22 2 .28 0 .52 1.57 1.23 4.43 2.06m191.65-303.48c-2.49-7.07-4.44-11.33-5.24-11.36 1.2 0 3.35 5.09 5.24 11.36m-260.79 64.06c-2.65-4.16-4.84-8.37-6.61-12.74.55 1.29 1.29 2.82 2.23 4.69 1.47 2.91 3.12 5.93 4.38 8.05m-39.64 149.32c-.97-2.9-1.85-5.99-2.73-9.44-1.41-5.55-2.39-10.56-2.97-15.33 1.03 7.6 3.24 17.12 5.7 24.77m79.24-404.75c11.99-23.25 33.58-41.36 60.19-48.44-26.54 7.06-48.17 25.21-60.19 48.44m66.9 112.9c6.65.75 15.12 1.02 23.11.9-8.11.22-16.05-.07-23.11-.9M229.9 513.63c3.09-7.99 7.22-15.63 12.86-24.1.82-1.23 1.78-2.57 2.85-3.99-6.52 8.91-11.93 18.56-15.71 28.09m26.68-112.97c-.21-5.02-.07-10.13.43-14.54-.33 3.21-.47 7.06-.45 11.98.01.91.01 1.77.02 2.56m191-148.06c-2.2.56-8.21 1.63-14.51 2.64 4.21-.71 9.02-1.59 14.51-2.64M222.31 552.47c.02-4.37.38-8.72 1.09-13.33.02-.12.03-.24.05-.36-.67 4.76-1.07 9.46-1.14 13.69m19.05 60.24c-2.77-4.21-5.01-7.91-6.91-11.46 1.96 3.52 4.44 7.63 6.91 11.46m199.25-217.57c-.45-3.86-.94-7.21-1.53-10.56.37 1.94.67 3.67.87 5.07.18 1.28.41 3.21.66 5.49m-22.38-45.89c-2.15.19-4.92.38-8.03.57 2.84-.2 5.6-.4 8.03-.57M393.7 684.73c-10.65 0-21.17-.54-29.59-1.63 8.49 1.09 18.98 1.63 29.59 1.63M431.59 494c.72-.15 1.46-.3 2.23-.46 1.37-.29 2.69-.56 3.83-.79-1.93.43-3.94.84-6.06 1.25m1.36-135.05c-.51-1.7-1-3.28-1.45-4.66.43 1.24.92 2.83 1.45 4.66"/><path fill="#ffffff" d="M0 0h788v754H0Zm427.5 735.54c44.21-4.84 86.79-17.56 126.07-37.66 15.7-8.03 33.98-18.95 41.84-24.98 3.15-2.42 8.04-5.86 10.86-7.64 2.82-1.79 6.5-4.53 8.18-6.09s4.4-3.84 6.05-5.07c8.44-6.31 25.23-22.67 43.18-42.1 5.37-5.81 21.26-26.72 27.36-36 4.6-7 17.56-29.1 20.53-35 9.62-19.17 12.89-26.9 20.14-47.5 9.61-27.35 16.45-59.58 18.35-86.5 1.98-28.14 2.12-34.96 1.08-51-3.82-58.79-19.34-112.47-45.7-158-2.07-3.57-4.93-8.62-6.35-11.2-6.89-12.53-24.6-36.45-38.72-52.3-35.29-39.64-75.07-68.57-125.87-91.52-30.83-13.94-76.9-25.69-113.5-28.95-22.33-1.99-65.62-.71-84.74 2.51-23.3 3.92-37.22 7.18-55.33 12.97-37.33 11.94-71.7 28.96-100.94 49.99-1.53 1.1-4.86 3.45-7.4 5.22-12.53 8.76-41.76 35.7-51.83 47.78-2.75 3.3-6.86 8.02-9.13 10.5-8.12 8.84-19.51 24.09-26.13 35-1.65 2.71-5.01 8.21-7.46 12.22-6.86 11.2-19.15 35.95-24.47 49.28-25.82 64.68-33.31 135.72-20.97 199 4.46 22.85 12.08 49.91 19.85 70.5 7.42 19.65 26.21 54.02 40.89 74.81 33.69 47.71 79.27 87.37 130.16 113.28 40.97 20.85 85.86 33.98 132.5 38.74 14.22 1.46 57.15 1.28 71.5-.29m-67.74-53.08c-8.24-1.39-15.55-2.89-22.33-4.62-2.86-.83-4.43-1.54-4.43-2.06 0-.5-.9-.63-2-.28-.57.18-.99.25-1.3.19l-.16-.04c-.4-.18-.54-.67-.54-1.58 0-2.34 1.23-2.66 3.18-.82 1.27 1.2 13.82 1.85 13.82.72 0-1.34 5.4-.8 6.46.64 1.64 2.24 5.15 1.38 4.66-1.15-.82-4.26-.54-4.81 2.85-5.71 3.18-.84 3.31-1.02 1.51-2.02-1.08-.61-6.77-1.3-12.65-1.54-9.91-.41-10.96-.27-14.51 1.93-2.1 1.3-4.23 2.23-4.73 2.07s-1.17.07-1.5.51c-.32.44-2.04 1.6-3.81 2.59-2.04 1.13-2.81 1.54-5.25.79-7.57-2.86-14.86-6.27-22.58-10.49q-.18-.12-.33-.24c-.22-.16-.52-1.45-.67-2.88-.36-3.26 2.14-4.41 4.04-1.85 1.35 1.83 1.43 1.83 2.92-.12.84-1.1 1.54-2.47 1.56-3.05.04-1.5-8.76-4.46-13.22-4.45-4.09 0-4.49.61-2.33 3.56.97 1.32 1.1 2.32.41 3.14-.41.5-1.23.5-2.54-.02-5.61-3.51-10.88-7.24-15.81-11.2-3.61-3.29-3.05-4.37 1.52-3.85 2.2.25 4 .08 4-.39 0-.84-7.42-6.55-11.65-8.97-1.74-1-2.36-.96-3.33.21-.66.79-.85 2.01-.42 2.73.96 1.61-4.91-3.7-9.05-7.97-3.68-4.29-7.06-8.76-10.13-13.43l-.06-.1c-2.47-3.83-4.95-7.94-6.91-11.46-2.38-4.49-4.21-8.74-5.8-13.51-2.46-7.65-4.67-17.17-5.7-24.77a84 84 0 0 1-.64-10.5c.07-4.23.47-8.93 1.14-13.69 1.46-9.42 3.47-17.45 6.45-25.15 3.78-9.53 9.19-19.18 15.71-28.09 3.83-5.05 9.01-11.02 13.64-15.86 4.87-4.82 9.34-8.68 10.09-8.68.78 0 1.95.64 2.6 1.43.97 1.17.68 1.48-1.63 1.75-2.17.25-2.74.77-2.49 2.32.76 4.79 6.76 5.92 6.57 1.24-.06-1.51.31-2.74.82-2.74.52 0 3.82 2.36 7.35 5.25 6.14 5.03 7.88 7.65 5.19 7.84-.69.04-2.79.16-4.66.25-1.88.09-3.53.61-3.67 1.16-.52 1.99 12.23 11.81 20.08 15.45 4.4 2.04 8.58 4.42 9.29 5.28 1.82 2.21 10.42 6.16 18.87 8.66 11.45 3.38 15.71 2.68 15.15-2.49-.27-2.54.05-2.94 2.55-3.23 1.57-.18 6.07.38 10 1.24 4.49.98 9.22 1.75 14.33 2.32.95.12 1.89.24 2.81.34 2.72.29 6.1.49 9.87.61 4.92.22 10.2.3 15.93.24 9.24-.09 17.07.12 17.42.46.34.34-.16.62-1.11.62s-1.47.42-1.15.93c.31.51.11 1.22-.46 1.57-2.22 1.37.38 2.5 5.76 2.5 4.39 0 5.37.27 4.44 1.2-2.1 2.1-1.31 2.8 3.05 2.7 9-.21 12.93-3.19 5.8-4.39-2.5-.42-4.05-1.23-4.05-2.1 0-.77-.48-1.41-1.07-1.41s-1.7-.63-2.47-1.39c-1.33-1.34-.6-2.07 5.99-3.73 4.2-.84 8.29-1.78 12.28-2.83 4.92-1.07 7.02-1.34 7.81-.46.59.68.43 2.02.17 4.18-.01.12-.02.24-.04.37l-.61 5.13 5.4-.55c2.96-.31 7.34-1.51 9.71-2.67 8.5-4.15 15.31-8.1 18.79-10.89 1.95-1.56 4.69-3.12 6.08-3.46 3.8-.95 14.1-7.89 17.25-11.64 3.37-4 2.31-6.06-3.14-6.06h-3.6l6.92-6.97c.83-.84 1.64-1.63 2.4-2.36 1.69-1.53 3.3-2.93 4.65-4.05.18-.1.29-.14.33-.1.26.25 1.18-.09 2.06-.76 1.44-1.11 1.45-1.04.05.76-1.9 2.43-4.35 9.42-3.58 10.19 1.09 1.1 5.79-2.9 6.8-5.78.56-1.61 1.58-2.93 2.28-2.93 2.09 0 11.71 9.98 18.81 19.29 5.67 7.85 11.59 17.39 14.73 24.03 1.08 2.3 2.08 4.59 2.98 6.89-.31 1.57-3.92.72-5.4-1.4-.84-1.2-1.88-1.84-2.31-1.42-.8.81-.46 25.49.37 26.84.93 1.5 2.22.74 2.54-1.48.21-1.49.9-2.15 2.04-1.96 1.18.19 1.92-.59 2.34-2.5 1.23-5.51 1.59-6.29 2.92-6.29 2.81 0 4.9 18.96 4.2 33.84-.13 2.09-.3 4.21-.52 6.37 0 .06-.01.13-.02.19-.61 4.89-1.33 9.12-1.6 9.39-1.12 1.12-3.54-2.24-3.54-4.92 0-1.76-1.08-4.06-2.75-5.88-3.36-3.65-4.43-5.03-5.86-7.54-1.6-2.81-3.92-2.47-3.74.55.14 2.49 1.97 9.75 4.96 19.75 1.15 3.84 2.07 5.25 3.4 5.25 3.95 0 4.79.95 3.99 4.52-.32 1.4-.99 3.31-1.81 5.33-.87 2.01-1.98 4.39-3.15 6.79-1.34 2.52-2.55 4.36-3.08 4.36-.63 0-2.29-.9-3.69-2-3.05-2.4-9.47-2.67-11.29-.48-.7.84-1.01 1.78-.7 2.09.3.31.09 1.89-.47 3.51-.74 2.13-.68 3.77.22 5.95.68 1.65 1.52 2.85 1.86 2.66.33-.18 2.3-1.11 4.36-2.05s3.75-2.15 3.75-2.69c0-.55.65-.99 1.45-.99 1 0 .66.8-1.05 2.51-1.38 1.38-2.28 2.87-2.01 3.32.88 1.41-12.43 16.17-14.57 16.17-.84 0-.67-4.41.23-6.09 1.15-2.15.24-4.91-1.63-4.91-.76 0-2.15 1.24-3.1 2.75s-3.43 4.53-5.52 6.7-3.8 4.48-3.8 5.14c0 1.36 2.76 2.68 4 1.91.45-.28 1.83-.13 3.07.33 1.5.56 1.64 1.04-1.47 3.75-2.26 1.89-4.66 3.84-7.02 5.71-4.21 3.25-7.97 5.71-8.82 5.71-2.19 0-2.4-3.82-.26-4.64 1.46-.56 2.17-4.36.81-4.36-.37 0-1.73.99-3.02 2.19-2.14 2.02-2.63 2.09-5.93.89-3-1.08-3.75-1.07-4.47.06-.47.75-.87 1.67-.87 2.04-.01.37-1.03.82-2.26 1-2.81.4-3.73 3.82-1.02 3.82 1.03 0 2.89.94 4.12 2.09l2.24 2.08-2.78 2.59c-1.6 1.48-4.87 3.39-8.49 5.11-.44.2-.89.39-1.33.58-1.28.54-2.53 1.08-3.69 1.59-2.1.81-4.11 1.47-5.79 1.84l-4.1.93 2-3.41 2.01-3.4h-2.49c-1.7 0-2.78-.75-3.39-2.37-.9-2.35-3.94-3.54-7.3-2.85-2.72.57-2.29 5.05.55 5.76 1.34.34 2.77 1.82 3.43 3.55 1.02 2.7.88 3.11-1.56 4.66-1.47.94-2.91 2.02-3.19 2.42-.37.5-2.98 1.39-6.84 2.42-6.8 1.69-14.35 3.33-21.17 4.51-9.96 1.74-23.73 2.62-37.27 2.63h-.02c-10.6-.01-21.09-.54-29.57-1.63-1.53-.19-2.98-.41-4.35-.64m-2.1-188.41c-1.3-.34-3.19-.77-4.97-1.1-4.27-.82-7.69-2.76-7.69-4.38 0-1.12 3.11-.55 5.48 1.01 4.75 3.11 23.09-1.36 22.31-5.44-.42-2.25-5.91-2.65-9.68-.7-1.65.86-4.5 1.53-6.31 1.49-2.23-.05-2.74-.29-1.59-.75 3.95-1.57-2.21-4.66-11.1-5.57-4.4-.45-5.91-.17-8.25 1.49-1.57 1.12-2.86 2.83-2.86 3.8s-.27 2.03-.59 2.36c-.37.37-1.99.03-4.18-.72-.84-.33-1.76-.69-2.69-1.03-.53-.2-1.07-.41-1.62-.62-5.99-2.53-12.92-6.2-12.92-7.42 0-1.14 7.26-4.47 9.72-4.47 3.24 0 1.79-2.27-2.92-4.56-2.91-1.42-7.51-3.76-10.22-5.2l-4.92-2.61-3.33 3.85c-2.49 2.88-3.22 3.57-4.6 3.09-3.39-2.6-6.61-5.3-9.51-8.01-2.35-2.49-4.22-4.78-4.22-5.43 0-.55 1.01-1.13 2.25-1.31 4.09-.58 3.34-4.19-1.92-9.23-5.16-4.94-7.33-5.73-7.33-2.65 0 2.92-1.88 3.51-3.8 1.35-.66-.96-1.3-1.91-1.91-2.87-1.26-2.12-2.91-5.14-4.38-8.05-.94-1.87-1.68-3.4-2.23-4.69a61 61 0 0 1-.73-1.88c-.68-1.95-.79-3.26-.52-4.5.49-2.19.08-3.65-1.59-5.77-.51-.65-.9-1.23-1.21-1.9-.55-3.39-.9-7.16-1.05-10.97-.01-.79-.01-1.65-.02-2.56-.02-4.92.12-8.77.45-11.98.29-2.59.71-4.95 1.24-6.91 2.18-7.94 5.71-16.21 6.92-16.21.51 0 4.47 2.74 8.79 6.09 8.31 6.44 10.86 6.99 13.1 2.8 1.69-3.16.43-5.02-8.05-11.82-4.4-3.53-8.01-6.77-8.01-7.19 0-1.81 12.45-16.02 18.07-20.62l6.15-5.03 4.95 2.35 3.18 1.59 8.02 4.04-2.34 1.77-2.35 1.77 2.41 1.5c1.33.83 3.65 1.8 5.16 2.15 2.3.53 2.75.31 2.75-1.38 0-2.78 1.75-2.62 16 1.48 6.69 1.92 12.97 3.5 13.97 3.5 1.86 0 8.31 2.97 6.53 3.01-.55.01-.33.46.5.99 1.21.78 1.07.97-.75.98-1.24.01-2.25.47-2.25 1.02s1.4 1 3.11 1c1.7 0 5.79.7 9.09 1.55 7.34 1.9 15.29 1.62 15.33-.55.02-.83-.43-1.83-1-2.23-.56-.41.77-.75 2.97-.77 4.7-.04 11.63-.27 18.53-.59 3.26-.09 6.52-.25 9.79-.49l1.38-.1c3.11-.19 5.88-.38 8.03-.57 4.49-.32 7.88-.55 8.7-.6 2.04-.13 2.72.64 4.29 4.85.09.24.18.51.28.79.02.07.05.15.08.23.41 1.2.87 2.71 1.37 4.43 2.06 7.18 4.66 18.03 6.13 25.63.59 3.35 1.08 6.7 1.53 10.56.48 4.45 1.04 10.27 1.46 15.36.63 7.7 1.74 15.12 2.45 16.5 2.47 4.78 6.13 7.26 11.46 7.77 5.46.53 30.79-2.35 35.27-4 4.46-1.64 8.52-7.07 9.33-12.48 1.97-13.06-6-57.01-14.54-80.21-2.21-6.01-1.99-6.62 3.34-9.46l3.52-1.88 3.3 2.75c9.62 8.02 21.8 21.06 21.8 23.33 0 .58-3.61 3.84-8.02 7.25-8.69 6.73-10.4 9.71-7.44 12.97.97 1.08 2.47 1.96 3.32 1.96.86 0 5.04-2.7 9.3-6s8.16-6 8.68-6c1.2 0 3.35 5.09 5.24 11.36 1.33 4.42 2.53 9.43 3.16 13.65.17 2.45.24 5.37.25 9.04v7.83c-.19 1.87-.46 3.73-.8 5.58l-2.93 3.09c-3.48 3.67-4.93 7.45-2.87 7.45.49 0 1.19.77 1.55 1.7.29.76-.23 2.67-1.13 4.89-.86 1.89-1.79 3.77-2.8 5.63-1.28 2.18-2.6 3.98-3.57 4.58-1.74 1.09-2.09.92-2.97-1.39-.99-2.58-1.04-2.59-3.74-.91-3.44 2.15-9.57 8.57-12.77 13.34-1.34 2.01-3.21 4.73-4.16 6.05l-1.72 2.38 3.46-1.78c1.9-.97 4.5-2.58 5.77-3.58 2.56-1.99 4.86-1.66 4.86.7 0 .39-.53 1.18-1.37 2.18-.25.26-.5.51-.76.76-2.78 2.79-5.42 5.28-8.04 7.56-1.47 1.14-2.65 1.89-3.17 1.89-.85 0-1.33-1.25-1.33-3.5 0-3.34-.16-3.5-3.52-3.5-3.48 0-13.14 4.68-15.48 7.5-1.5 1.8-.42 5.21 2.07 6.54 3.69 1.97 2.68 4.12-4.02 7.74a241 241 0 0 1-7.78 3.69c-6.17 2.5-9.27 2.37-9.27-.4 0-2.17-5.24-6.07-8.14-6.07-3.53 0-14.21 3.15-15.85 4.67-1.32 1.22-1.23 1.46.71 1.97 1.22.32 2.49 1.45 2.83 2.51.35 1.1 1.87 2.18 3.53 2.52 1.61.32 2.92 1.2 2.92 1.95 0 .48-.08.89-.19 1.14-1.35.34-2.73.67-4.16.99-1.14.23-2.46.5-3.83.79-.77.16-1.51.31-2.23.46-3.27.63-6.79 1.23-10.65 1.84-5.4.72-9.26.79-12.03.24-2.43-.47-3.72-.91-2.87-.97 3.15-.23 1.74-3.63-2.61-6.31-8.77-5.39-14.54-5.48-18.63-.28-1.07 1.37-2.59 2.48-3.37 2.48-1.84 0-1.83 1.46.03 3.31 1.27 1.28 1.07 1.53-1.63 2.07-2.82.57-3.61.66-8.54.07-4.63-.76-9.42-1.61-13.63-2.4m13.84-198.59c-5.09-.75-10.03-1.67-14.74-2.73-5.5-1.47-7.04-3.05-6.57-5.48.18-.96 1.34-1.89 2.57-2.07 4.4-.63 1.62-3.02-6.49-5.59-2.48-.79-5.66 1.96-4.81 4.17.96 2.49-1.23 4.17-4.26 3.28l-.06-.02c-2.09-.77-4.09-1.57-5.99-2.4-2.42-1.25-4.15-2.55-4.15-3.33 0-.74 1.03-1.73 2.29-2.21s2.89-1.6 3.63-2.49c1.16-1.39.87-2.05-2.17-4.85-1.92-1.78-6.07-4.59-9.21-6.24l-5.71-3-2.32 2.89c-3.15 3.95-4.95 2.97-8.54-4.62-.51-1.06-.94-2.01-1.31-2.87-.4-.99-.79-2.01-1.16-3.05-.84-2.79-.23-3.75 1.75-4.03 1.62-.23 2.16-.88 1.92-2.32-.54-3.29-3.09-6.5-5.15-6.5-1.01 0-1.77-.72-2.32-2.37a93 93 0 0 1-1.13-14.63c.03-14.91 3.73-29.23 10.32-42.01v-.01c12.02-23.22 33.65-41.37 60.18-48.43h.01l6.57-1.75 13.93 3.17c7.65 1.74 17.3 4 21.42 5.01 16.51 4.05 31.58 7.48 33 7.5.83.01 1.99.34 2.6.73.6.4 3.01 1.02 5.37 1.4 3.38.54 5.63 1.96 10.76 6.75 10.89 10.2 17.85 20.46 23.47 34.64 3.04 7.69 6.17 22.03 5.04 23.16-.44.44-5.73-.33-11.77-1.71-9.43-2.15-27.13-5.88-52.47-11.05-18.77-3.83-30.12.73-36.33 14.6-2.88 6.43-2.78 17.78.21 24.5 2.9 6.54 8.19 11.85 14.48 14.56 4.28 1.84 6.17 2.08 12.01 1.54h.05l.05-.01c.07 0 .13-.01.2-.02 4.11-.39 9.45-1.14 16.4-2.33 6.3-1.01 12.31-2.08 14.51-2.64 4.63-.88 9.76-1.89 15.43-3.04 7.63-1.31 15.37-2.49 16.21-2.35 3.07.49-6.04 13.02-11.96 16.44-7.6 4.39-15.13 10.36-15.82 12.54-.8 2.53.25 3.57 4.06 3.98 2.15.24 3 .86 3 2.2 0 .98-1.52 2.18-3.6 3.21-1.12.47-2.27.92-3.43 1.37-2.07.64-4.2 1.01-5.8.85l-2.98-.3 2.65-3.14c3.12-3.69 3.26-4.36.94-4.36-2.29 0-10.28 3.09-10.28 3.98 0 .38 1.09 1.2 2.42 1.8 1.72.78 2.27 1.68 1.91 3.06-.64 2.45-11.4 5.48-14.71 4.14-1.16-.47-1.65-.88-1.08-.92 1.83-.11 1.4-4.02-.57-5.08-2-1.07-9.2-.36-12.25 1.21-2.82 1.44-.99 2.81 3.76 2.81 5.2 0 7.52.76 7.52 2.48 0 .56-1.07 1.07-2.92 1.5-7.18 1.01-14.75 1.62-22.18 1.81-7.99.12-16.46-.15-23.11-.9-1.12-.13-2.22-.27-3.29-.43m31.01 170.68c7.21-3.28 12.49-11.38 12.47-19.14 0-3.18-4.1-11.97-6.62-14.21-5.46-4.84-15.77-6.15-22.9-2.91-9.16 4.16-13.85 15.48-10.11 24.4 4.72 11.27 16.82 16.55 27.16 11.86m0-58c8.06-3.67 13.46-13.14 11.99-21-1.9-10.12-8.61-16.09-18.94-16.84-10.23-.75-17.65 4.6-20.75 14.95-2.32 7.72 2.49 17.74 10.79 22.48 4.81 2.76 11.39 2.91 16.91.41m80.85-44.35c.49 2.37 1.04 4.91 1.57 7.21.9 3.9 1.67 7.43 2.33 10.72.66 3.74 1.28 7.63 1.8 11.38-.1-.34-.2-.57-.29-.67-.35-.34-3.48.06-6.95.89-3.48.84-11.77 2.8-18.42 4.35l-12 2.8c-.61-8.87-4.22-30.24-5.87-34.56-.71-1.84-1.4-4.41-1.96-7.05.31 1.2.66 2.51 1.06 3.94 1.15 4.18 1.82 5.2 3.16 4.82.94-.26 8.69-2.17 17.21-4.23s15.68-3.88 15.91-4.06c.24-.19.2-.9-.04-1.96.48 1.31.91 2.37 1.17 2.85.4.72.84 1.95 1.32 3.57m-159.32-35.11c-4.65-1.81-9.34-3.84-13.38-5.82.22.07.38.12.45.12.34.01 1.11-2.34 1.71-5.23s2.17-10.31 3.5-16.5l2.42-11.24-1.77-1.09c1.86 1.06 3.89 2.11 6.07 3.13 3.81 1.85 9.77 4.34 14.69 6.05 1.45.51 3.43 1.05 5.52 1.54 6.22 1.88 12.8 3.51 19.44 4.8-3.08-.55-6.3-1.22-8.24-1.72l-5.06-1.33-2.31 15.89c-1.35 9.32-1.94 16.26-1.41 16.79.35.35 2.28.92 4.93 1.52-3.21-.56-6.23-1.06-7.6-1.23-.68-.09-1.42-.22-2.22-.38-.99-.3-2.05-.6-3.13-.89-3.46-.94-9-2.75-13.61-4.41m139.08.58-2.12.72c-3.48 1.19-7.71 2.54-11.54 3.7-1.65.44-2.96.73-3.79.82-1.18.12-3.34.45-5.54.84 1.46-.32 2.46-.59 2.77-.78.46-.28.49-2.66.06-5.29-1.26-7.7-3.41-26.69-3.13-27.64.06-.23-.05-.36-.3-.4 1.21-.31 2.41-.62 3.59-.94 9.7-2.03 20.06-6.36 28.78-12.04-1.99 1.66-1.92 2.02-.48 9.45 2.26 11.65 4.58 22.64 5.08 24.05.57 1.63.91 1.59 5.21-.62-.88.54-1.82 1.09-2.83 1.64-2.92 1.62-9.3 4.17-15.76 6.49m-52.32-6.65.3 16.62 6.41-.6c-9.15.98-18.74 1.72-24.51 1.83-1.14-.01-2.39-.03-3.72-.05l-.28-.03c-7.53-.71-13.31-1.29-17.97-1.79 1.44.1 2.81.19 3.72.24l3.25.17v-15.98c0-1.83.01-3.45.03-4.89.05-6.46.08-9.31-1.34-10.75-.48-.5-1.14-.83-2.02-1.08 3.07.29 6.93.48 11.13.58 6.7.28 15.41.2 20.6-.23q2.145-.105 4.11-.24Zm-40.7-122.88c4.55-3.03 7.13-8.18 6.54-13.02-2.09-17.17-27.64-16.73-27.64.47 0 2.71.66 6.19 1.46 7.75 3.5 6.75 13.18 9.12 19.64 4.8m78.11-4.97c4.94-2.78 6.79-6.21 6.79-12.63 0-8.55-6.51-13.9-15.64-12.87-6.52.74-10.47 4.83-11.11 11.51-.62 6.39 1.61 11.18 6.53 14.03 4.77 2.76 8.46 2.75 13.43-.04M399.8 519.25c-.28-1.41-1.41-1.75-5.82-1.77-5.07-.02-5.46-.19-5.17-2.22.22-1.61-.31-2.33-2-2.69-2.87-.62-9.7-1.48-12.12-1.53-.99-.02-1.56-.44-1.26-.92.3-.49-3.48-.84-8.44-.79-8.98.1-8.99.1-8.99 2.68 0 1.43-.49 3.08-1.09 3.68-1.5 1.5 3.83 3.16 11.91 3.69 3.47.23 6.59.69 6.92 1.02.32.33 6.4.6 13.5.6 11.76 0 12.88-.16 12.56-1.75m-12.4 158.93c6.58-.76 8.99-2.8 6.63-5.64-1.12-1.36-3.39-1.6-13.69-1.48-11.39.14-12.34.3-12.34 2.05 0 1.04.34 1.84.75 1.77 2.04-.32 3.25.26 3.25 1.57 0 2.2 3.14 3.64 6.5 2.99 1.65-.32 5.65-.88 8.9-1.26M309.7 496.5c-1.98-1.92-4.52-3.5-5.65-3.5-1.6 0-2.05-.64-2.05-2.94 0-1.62.36-3.16.8-3.44.64-.39 4.44 1.1 8.49 3.02.62.31 1.27.63 1.94.94 4.51 2.26 8.77 4.77 8.77 5.55 0 .53-7.22 3.87-8.37 3.87-.18 0-1.94-1.58-3.93-3.5m84.95-204.82c.87-.87-6.55-2.69-15.15-3.71-4.4-.52-9.8-1.19-12-1.5-5.17-.71-7.17.49-5.43 3.27 1.09 1.74 2.05 1.95 7.34 1.55 3.35-.24 7.89-.02 10.09.49 4.05.96 14.16.89 15.15-.1m74.6 204.66c-2.18-.88-1.35-2.27 3.32-4.91 3.28-1.52 6.46-3.13 9.56-4.84 2.73-1.34 4.73-2.3 5.03-2.42 1.51-.6.88 5.65-.73 7.26-.87.86-2.55 1.57-3.75 1.58-1.2 0-3.53.9-5.18 1.99-2.91 1.93-5.68 2.38-8.25 1.34M472 272.69c0-1.27.66-3.18 1.47-4.25s1.48-2.64 1.5-3.51c.03-1.57 6.5-7.93 8.07-7.93 1.42 0 1.7 1.04.78 3.48-1.92 3.92-4.08 7.85-5.81 10.47-3.38 4.6-6.01 5.69-6.01 1.74m18.44 373.38c1.99-2.2 1.44-7.1-1.02-9.14-1.89-1.56-7.29-.1-8.82 2.38-.92 1.5-.48 2.37 2.64 5.24 4.33 4 4.85 4.11 7.2 1.52m-61.57 31.41c1.14-1.08 1.01-1.48-.83-2.46-1.21-.65-2.95-.85-3.87-.45s-5.04.99-9.16 1.33c-6.14.49-7.55.93-7.83 2.4-.32 1.68.38 1.76 9.99 1.13 6.16-.4 10.88-1.19 11.7-1.95M415.4 518.7c1.62-1.18 1.63-1.43.2-2.62-.88-.72-2.49-1.08-3.59-.79-1.49.39-2.01.03-2.01-1.38 0-1.05-.48-1.91-1.06-1.91s-.78-.45-.44-1c.35-.57-.51-1-2-1-1.44 0-2.37.4-2.07.89.3.48-.35 1.12-1.44 1.4-2.86.75-2.45 2.28.98 3.7 1.63.67 3.48 1.85 4.12 2.62 1.45 1.75 4.98 1.79 7.31.09m15.25-30.76c2.23-.84 2.49-1.24 1.32-1.98-.81-.51-2.96-.94-4.78-.94-1.88-.01-3.05-.44-2.71-.99.81-1.31-3.88-2.4-6.98-1.62-3.14.79-3.33 3.58-.25 3.6 1.24.01 3.37.64 4.75 1.41 3.14 1.74 5.13 1.86 8.65.52m103.86 107.68c1.81-2.76 3.68-8.76 2.96-9.49-.28-.27-2.11 1.05-4.09 2.94-3.6 3.45-5.52 6.79-4.7 8.18.93 1.59 4.35.64 5.83-1.63M457 671.01c1.23-2.32-1.95-5.3-5.17-4.84-3.39.48-3.88 5.5-.65 6.71 2.8 1.04 4.56.47 5.82-1.87m-2.69-14.08c2.76-.76 3.72-1.52 3.47-2.74-.45-2.23-8.21-2.19-10.45.05-3.27 3.28.14 4.59 6.98 2.69m-12.35 3.61c.67-.8.92-1.92.57-2.5-1.52-2.46-11.53-.18-11.53 2.62 0 1.92 9.36 1.82 10.96-.12M330 662.41c0-2.4-.56-2.68-7.25-3.71-3.23-.5-3.26-.41-1.07 2.93 3.06 4.67 8.32 5.16 8.32.78m31.5-310.44c-2.2-.38-3.41-.75-2.69-.83s1.03-.59.69-1.14c-.43-.7 3.3-1.03 7.12-.98 2.23.26 4.48.48 6.74.68.25.07.45.16.59.25 1.13.71.85 1.04-1.25 1.48-5.36 1.13-7.27 1.22-11.2.54m60.41 3.02c1.12-.59 1.02-.87-.5-1.3-5.99-1.7-8.46-1.78-9.92-.33-1.36 1.37-1.33 1.63.25 2.55 1.76 1.02 7.5.51 10.17-.92m126.26 218.54c1.14-2.5-.13-5.53-2.31-5.53-1.37 0-3.2 4.67-2.52 6.44.91 2.37 3.56 1.87 4.83-.91m-27.18 48.98c1.44-1.74.67-4.51-1.27-4.51-.73 0-2.19.63-3.24 1.39-1.62 1.18-1.7 1.64-.57 3 1.67 2.01 3.48 2.05 5.08.12M378.03 667.5c0-.55-2.49-1.13-5.52-1.3-5.11-.28-6.58.4-4.78 2.2 1.08 1.08 10.3.27 10.3-.9m13.74.3c-.52-1.58-4.06-2.2-7.57-1.31-3.42.85-1.46 2.04 3.89 2.36 2.99.18 3.99-.11 3.68-1.05m96.82-422.15c.22.31.27.74.22 1.31-.25.6-.73 1.18-1.39 1.43-2.12.82-2.13.81-2.75-.81-.42-1.09.7-2.16 2.37-2.48.82.03 1.3.21 1.55.55m29.07 366.78c.89-2.31-1.07-3.84-2.59-2.02-1.28 1.55-.7 3.59 1.02 3.59.54 0 1.24-.71 1.57-1.57m-78.24 62.96c2.21-.84 1.98-2.39-.36-2.39-2.09 0-3.41 1.32-2.37 2.36.3.3.48.48.7.55.36.12.81-.05 2.01-.51ZM474 645.5c0-1.68-.18-1.75-2.42-.89-2.23.85-1.96 2.39.42 2.39 1.11 0 2-.67 2-1.5M314 656c0-.55-1.15-1-2.56-1-1.45 0-2.29.43-1.94 1 .34.55 1.49 1 2.56 1s1.94-.45 1.94-1m15.5-181c-.34-.55-1.52-1-2.62-1s-1.72.45-1.38 1 1.52 1 2.62 1 1.72-.45 1.38-1m108.22-173.32c-3.84 1.29-15.81 3.6-21.29 4.17 5.85-.72 13.68-2.29 21.29-4.17m41.13 49.71c-1.54-3.85-3.57-8.1-5.06-10.29 1.61 2.18 3.64 6.28 5.06 10.29m11.42 67.32c-.18.42-.39.8-.65 1.15-1.89 2.47-6.3 3.01-15.92 4.28 11.22-1.48 15.2-2.26 16.57-5.43m-47.92-69.64c.02-.45.07-.8.15-1.06.43-1.36 2.19-2.2 6.3-3-3.84.75-5.87 1.6-6.45 4.06m48.96-43.88c.11.5.21 1 .3 1.49.26 2.35-.13 4.47-1.23 6.48 1.16-2.41 1.47-5.08.93-7.97m-191.19 11.3c-.18-.16-.33-.33-.46-.48-1.67-1.98-2.56-4.5-2.66-7.15.14 2.77 1.21 5.39 3.12 7.63m183.95-32.3c.8.52 1.32 1.28 1.81 2.69-.5-1.18-1.1-2.08-1.81-2.69m4.42 12.41c.54 1.76 1.11 3.4 1.59 4.59.13.31.26.64.38 1-.1-.27-.2-.54-.32-.8-.52-1.26-1.11-2.99-1.65-4.79m-177.7-11.34c-2.05-1.03-3.59-1.46-4.8-1.2 1.21-.26 2.76.16 4.8 1.2m120.57 51.64c1.34-.21 2.64-.42 3.86-.63-1.17.21-2.47.42-3.86.63"/><path fill="#f16230" d="M454 424c-1.6-1.6-2.03-3.45-2.14-9.25-.08-3.99-.23-8.83-.35-10.75l-.21-3.5 12.1-2.83c6.65-1.55 14.94-3.51 18.42-4.35 3.47-.83 6.6-1.23 6.95-.89.85.85 2.11 12.58 2.18 20.17.07 8.72-.93 9.39-17.25 11.54-16.98 2.23-17.33 2.23-19.7-.14m-9.37-61.2c-3.97-14.37-3.52-16.29 4.17-17.79 3.13-.61 8.18-1.96 11.2-3 7.13-2.46 11.23-3.19 12.62-2.26 2.46 1.64 9.62 18.55 8.29 19.58-.23.18-7.39 2-15.91 4.06s-16.27 3.97-17.21 4.23c-1.34.38-2.01-.64-3.16-4.82M367 338.29c-6.89-.56-20.33-3.22-21.33-4.22-.53-.53.06-7.47 1.41-16.79l2.31-15.89 5.06 1.33c2.78.72 8.2 1.78 12.05 2.34 12.91 1.87 11.5-.34 11.5 17.96V339l-3.25-.17c-1.79-.1-5.27-.34-7.75-.54m43.8-15.68-.3-16.61 4-.01c3.96-.02 20.33-3.12 23.79-4.51.99-.4 1.68-.33 1.54.15-.28.95 1.87 19.94 3.13 27.64.43 2.63.4 5.01-.06 5.29-1.33.82-15.65 3.17-24.1 3.95l-7.7.72zm-104.34-1.49c-8.57-3.89-11.75-11.82-7.79-19.42.91-1.76 2.27-6.11 3.02-9.66 1.93-9.15 4.05-10.03 12.16-5.04l4.89 3.01-2.42 11.24c-1.33 6.19-2.9 13.61-3.5 16.5s-1.37 5.24-1.71 5.23c-.33-.01-2.43-.85-4.65-1.86m170.04.63c-.5-1.41-2.82-12.4-5.08-24.05-1.51-7.78-1.51-7.81.78-9.7 8.66-7.15 13-6.36 14.77 2.69.63 3.2 2.06 8.01 3.17 10.7 3.46 8.33.59 15.1-8.35 19.7-4.38 2.25-4.72 2.3-5.29.66m-71.7-76.83c-8.77-6.55-10.08-20.98-2.67-29.42 4.82-5.48 8.52-6.09 21.43-3.52 48.07 9.57 79.91 16.95 78.65 18.21-1.91 1.91-81.54 16.83-89.57 16.78-3.55-.02-5.97-.65-7.84-2.05"/></g></svg>