<svg xmlns="http://www.w3.org/2000/svg" width="80" height="80" viewBox="62 62 900 900"><defs><clipPath id="c"><circle cx="512" cy="512" r="450"/></clipPath></defs><g clip-path="url(#c)"><path fill="#332c28" d="M292.39 584.42c-1.88 4.92-2.39-1.29-2.39-29.37 0-28.4-.14-31.04-1.75-32.04-1.61-.99-1.59-1.06.22-.79 4.06.61 4.5 3.82 4.52 32.95 0 15.22-.26 28.38-.6 29.25M213 469.22c0 .43-.45.78-1 .78s-1-.43-1-.96c0-.6-8.94-.77-24-.43-16.68.36-24 .2-24-.54 0-.75 18.47-1.07 61.17-1.07 33.64 0 60.92.25 60.62.55s-16.58.62-36.17.72-35.62.52-35.62.95m38.24 116.65c-1.97 1.06-13.12 1.08-17.74.04-1.76-.39 1.44-.72 7.72-.79l10.71-.12.32-10.75.33-10.75.21 10.71c.18 9.35-.02 10.84-1.55 11.66"/><path fill="#463d37" d="M697.43 849.67c-1.49 1.09-29.5 1.33-155.95 1.33-84.78 0-154.45-.3-154.81-.67-1.09-1.08-.76-4.84.53-6.13.79-.79 4.93-1.2 12-1.2 5.94 0 10.8-.36 10.8-.79 0-.44-2.26-2.52-5.01-4.62-12.55-9.57-32.33-34.18-40.28-50.09-5.34-10.71-10.5-25.54-12.16-35-.29-1.65-.8-4.12-1.13-5.5-1.42-5.92-1.31-40.57.16-49.24 3.5-20.71 11.01-39.72 22.76-57.63 6-9.15 10.42-14.6 20.31-25.03l7.15-7.54-3.54-7.03c-3.34-6.64-8.59-20.53-7.75-20.53.21 0-.24-2.14-1.01-4.75-4.73-16.13-4.32-38.6 1.05-56.89.93-3.17-.7-3.52-5.63-1.2-8.03 3.78-15.37 7.12-19.42 8.84-5.58 2.38-13.4 5.89-17.22 7.73-2.9 1.4-5.01 1.41-21 .08-9.78-.82-18.12-1.31-18.53-1.09s-.75 14.4-.75 31.52c0 29.27-.12 31.38-2.04 35.34-1.19 2.46-3.71 5.31-6.07 6.87l-4.04 2.68-71.17.15c-56.08.13-71.82-.11-74.18-1.13-3.81-1.63-7.46-5-8.59-7.92-.48-1.26-1.06-42.33-1.28-91.27l-.41-89 2.14-3.14c1.18-1.72 3.36-4.04 4.85-5.14 2.65-1.97 4.29-2.02 76.5-2.14 40.59-.08 74.69.25 75.79.72s3.35 2.74 5 5.05l3 4.19 1 73.81 3.42.1c2.09.06 3.6.68 3.89 1.59.27.83 3.68 4.85 7.59 8.93 3.9 4.09 9.7 10.17 12.89 13.5 3.18 3.34 6.18 6.71 6.66 7.48.7 1.15 5.83-.79 26.54-10l25.67-11.41 3.53-7c4.77-9.47 13.13-21.83 19.27-28.5 4.52-4.91 4.98-5.82 4.3-8.5-.42-1.65-.75-7.73-.75-13.5.02-9.82.24-10.97 3.4-17.75 1.86-3.99 3.77-7.25 4.24-7.25 1.13 0 1.09-3.35-.06-4.55-1.79-1.86-9.23-16.59-11.73-23.22-6.38-16.89-8.7-38.39-6.01-55.73 1.4-9.06 5.14-22.88 7.57-28 .52-1.1 1.86-4.02 2.97-6.5 6.2-13.79 18.08-29.02 30.11-38.63 3.02-2.41 6.02-4.81 6.66-5.33 6.2-5.07 23.71-14.08 30.04-15.47 3.24-.72 6.03-3.04 4.6-3.83-.44-.25-4-1.26-7.91-2.25-7.47-1.89-9.99-4.04-8.87-7.55.88-2.79 4.35-2.5 19.56 1.62 7.22 1.96 13.26 3.42 13.4 3.25.39-.45 5.49-17.85 6.1-20.81.28-1.38.95-3.85 1.48-5.5s3-10.65 5.48-20c2.49-9.35 5.26-18.7 6.16-20.79 3.12-7.22 11.51-12.69 19.49-12.7 3.02-.01 47.4 11.48 49.94 12.93.89.51 3.37 1.21 5.5 1.57 2.13.35 4.54.9 5.37 1.22s1.95.63 2.5.7c2.68.34 8.11 1.89 9 2.57.55.42 2.52 1.09 4.37 1.49 3.24.69 8.12 5.14 10.84 9.89 2.27 3.95 1.46 14.4-2.15 27.89-1.88 7.02-3.42 12.87-3.43 13 0 .13-.22.91-.48 1.73-2.48 7.72-4.65 15.64-4.65 17 0 .92-.33 2-.73 2.4-.41.4-1.33 3.29-2.05 6.42-.14.63-.28 1.23-.41 1.79-1.52 6.57-1.96 8.5-1.21 9.27.37.38 1.05.47 2.04.71 1.57.38 3.3.94 3.84 1.25s1.67.63 2.5.72c1.76.17 9.82 2.27 12.02 3.12.83.32 2.56.72 3.86.9 4.81.63 7.71 5.45 4.94 8.22-1.67 1.67-4.3 1.49-11.64-.81-3.49-1.1-7.25-1.99-8.36-1.99-1.98 0-1.99.07-.25 2.72.99 1.5 2.16 3.19 2.6 3.75.45.57 1.97 2.47 3.37 4.22 3.85 4.8 13.99 25.12 15.38 30.81.68 2.75 1.64 6.58 2.15 8.5 2.65 10.09 3.68 32.42 2 43.25-2.54 16.41-9.63 36.47-14.66 41.5-.76.77-1.39 2-1.39 2.74s-.56 1.53-1.25 1.76c-1.45.49.25 4.3 3.45 7.73 1.03 1.11 1.63 2.02 1.32 2.02s.46 1.91 1.71 4.25c2 3.75 2.29 5.83 2.45 17.67l.03 3.28c.03 4.57.05 7.16.78 9.53 1.11 3.65 3.9 6.78 10.95 15.71 3.02 3.82 6.91 9.67 8.65 13 1.73 3.33 4.08 7.47 5.22 9.19l2.06 3.13 25.71-17.13 25.7-17.13 1.21-8.5c.67-4.67 1.38-9.4 1.57-10.5s.61-4.25.91-7c1.12-9.96 2.77-17.46 4.09-18.55 1.91-1.58 5.35-.21 5.93 2.37.27 1.2-.55 9.38-1.83 18.18-1.27 8.8-2.15 16.33-1.94 16.73.21.41 7.09-3.76 15.3-9.25s15.39-9.98 15.96-9.98c.56 0 1.02-.45 1.02-1s.44-1 .97-1c1.01 0 12.56-7.58 14.85-9.75 1.61-1.52 2.72-1.57 5.25-.21 2.38 1.27 2.74 6.96.43 6.96-.83 0-1.5.45-1.5 1s-.67 1-1.5 1-1.5.45-1.5 1-.67 1-1.5 1-1.5.45-1.5 1-.67 1-1.5 1-1.5.45-1.5 1-.67 1-1.5 1-1.5.45-1.5 1-.67 1-1.5 1-1.5.45-1.5 1-.67 1-1.5 1-1.5.45-1.5 1-.67 1-1.5 1-1.5.45-1.5 1-.67 1-1.5 1-1.5.45-1.5 1-.67 1-1.5 1-1.5.45-1.5 1-.67 1-1.5 1-1.5.45-1.5 1-.67 1-1.5 1-1.5.45-1.5 1-.67 1-1.5 1-1.5.4-1.5.89-1.12 1.18-2.5 1.52c-1.38.35-2.5 1.19-2.5 1.88 0 1.09 6.71 2.53 28.5 6.13 1.1.18 3.4.38 5.12.45 6.4.26 10.57 6.98 5.35 8.64-1 .32-12.32-1.21-25.14-3.39-12.83-2.19-24.53-3.74-26-3.45s-3.59 1.39-4.71 2.43c-1.12 1.05-2.51 1.9-3.08 1.9s-1.04.45-1.04 1-.67 1-1.5 1-1.5.45-1.5 1-.67 1-1.5 1-1.5.45-1.5 1-.67 1-1.5 1-1.5.45-1.5 1-.67 1-1.5 1-1.5.45-1.5 1-.67 1-1.5 1-1.5.45-1.5 1-.67 1-1.5 1-1.5.45-1.5 1-.67 1-1.5 1-1.5.45-1.5 1-.67 1-1.5 1-1.5.45-1.5 1-.67 1-1.5 1-1.5.45-1.5 1-.67 1-1.5 1-1.5.45-1.5 1-.67 1-1.5 1-1.5.45-1.5 1-.67 1-1.5 1-1.5.45-1.5 1-.67 1-1.5 1-1.5.45-1.5 1-.67 1-1.5 1-1.5.45-1.5 1a1 1 0 0 1-.99 1c-.55 0-2.09.95-3.42 2.11-2.32 2.01-2.36 2.28-1.03 6.06 4.38 12.4 5.79 39.29 2.89 54.97-1.75 9.49-5.08 20.4-7.12 23.36-.76 1.1-1.83 3.67-2.38 5.71-.55 2.03-1.56 4.28-2.25 5-1.96 2.02-1.53 2.9 4.51 9.29 23.18 24.51 37.27 50.25 43.28 79.03 2.26 10.8 3.16 39.55 1.59 50.52-1.35 9.44-5.39 25.56-7.75 30.93-.85 1.94-2.13 4.87-2.84 6.52-4.9 11.42-5.91 13.5-6.55 13.5-.4 0-1.01 1.12-1.35 2.5-.35 1.38-1.07 2.5-1.61 2.5s-.98.67-.98 1.5-.45 1.5-1 1.5-1 .67-1 1.5-.45 1.5-1 1.5-1 .67-1 1.5-.45 1.5-1 1.5-1 .57-1 1.26-.9 1.82-2 2.51c-1.1.68-2 1.66-2 2.18 0 1.07-2.64 4.02-11.71 13.05-12.01 11.96-13.15 13-14.22 13-.59 0-1.07.67-1.07 1.5 0 1.27 2.48 1.5 16.25 1.51 8.94.01 17.25.28 18.47.61 3.04.82 4.04 4.35 1.71 6.05m-267.76-6.93c2.49.42 28 .65 56.68.51s75.78-.36 104.65-.5l52.5-.25 2.25-2.25c1.24-1.24 2.92-2.25 3.75-2.25s1.5-.4 1.5-.88c0-.82 10.36-9.12 11.39-9.12.26 0 3.09-2.78 6.29-6.18 3.2-3.41 7.28-7.64 9.07-9.42s3.25-3.67 3.25-4.21.67-1.24 1.5-1.55c.83-.32 1.5-1.27 1.5-2.11s.36-1.53.81-1.53c1.29 0 6.4-7.82 11.1-17 2.39-4.67 4.74-8.93 5.22-9.45s.87-1.96.87-3.19.45-2.52 1-2.86 1-1.24 1-1.99c0-.76.51-2.65 1.14-4.19.63-1.55 1.29-3.49 1.48-4.32.18-.83 1.24-5.55 2.36-10.5 2.65-11.8 3.65-30.79 2.15-41.05-.64-4.37-1.33-9.3-1.54-10.96-.67-5.27-4.98-20.17-7.52-25.99-2.9-6.63-8.76-18.14-9.82-19.29-.69-.74-1.25-2-1.25-2.78 0-.79-.4-1.43-.89-1.43-.48 0-1.58-1.46-2.44-3.25-1.61-3.36-3.89-6.61-6.92-9.87-.96-1.03-1.75-2.18-1.75-2.55 0-.36-1.09-1.83-2.42-3.25-1.34-1.42-4.11-4.52-6.17-6.88-6.36-7.32-7.09-7.22-14.41 1.91-2.3 2.87-12.63 13.41-17.61 17.96-1.15 1.06-2.57 1.93-3.14 1.93s-1.3.67-1.61 1.5c-.32.83-1.27 1.5-2.11 1.5s-1.53.46-1.53 1.03-.79 1.33-1.75 1.7c-1.71.65-2.87 1.47-5.71 4.02-.77.69-2.07 1.25-2.9 1.25-.82 0-2.11.56-2.86 1.25s-2.24 1.73-3.32 2.32c-6.39 3.5-8.35 4.49-11.96 5.99-2.2.92-5.36 2.27-7.02 2.99-3.29 1.44-25.1 7.29-29.34 7.88-1.45.2-5.86.89-9.81 1.53-7.26 1.18-39.35.89-46.33-.43-1.92-.36-4.78-.81-6.35-1-5.51-.67-10.16-1.72-11.15-2.52-1.02-.84-12.19-4.43-14-4.51-1.52-.06-23.47-10.41-24.5-11.55-.27-.3-2.97-2.05-6-3.89-15.16-9.22-27.5-20.44-36.65-33.31-1.47-2.06-3.12-3.75-3.67-3.75-1.13 0-11.11 10.11-14.18 14.36-1.1 1.52-2.79 3.51-3.75 4.43-.96.91-1.75 2.18-1.75 2.83 0 .64-.67 1.43-1.5 1.74-.83.32-1.5 1.27-1.5 2.11s-.45 1.53-1 1.53-1 .67-1 1.5-.45 1.5-1 1.5-1 .67-1 1.5-.37 1.5-.82 1.5c-.44 0-1.84 2.47-3.09 5.5-1.26 3.03-2.69 5.5-3.19 5.5-.49 0-.91.79-.93 1.75s-1.14 3.55-2.5 5.75c-1.35 2.2-2.46 4.79-2.46 5.76-.01.97-.42 2.55-.92 3.5-1.54 2.94-4.93 16.32-6.67 26.28-3.24 18.62-.25 49.53 6.15 63.61.79 1.73 1.43 3.57 1.43 4.08 0 1.78 10.38 21.79 13.18 25.41 1.55 2.01 2.82 3.94 2.82 4.3 0 1.74 8.82 12.23 16.17 19.22 4.53 4.31 9.53 9.08 11.11 10.59s3.3 2.75 3.83 2.75c.52 0 1.21.67 1.53 1.5.31.83 1.24 1.5 2.04 1.5.81 0 2.82 1.34 4.46 2.99q2.985 2.985 7.53 3.75m86.83-380.32c15.02 2.77 35.72 1.01 53.25-4.52 10.92-3.45 32.25-14.78 32.25-17.13 0-.43.72-.77 1.59-.77 2.61 0 19.61-17.87 25.47-26.77 2.99-4.55 5.45-8.6 5.47-9 .01-.4.76-1.85 1.67-3.23 1.62-2.46 5.49-12.14 7.58-19 4.67-15.3 5.05-36.74.94-52.71-2.47-9.6-7.29-23.18-8.62-24.29-.33-.27-1.45-2.08-2.5-4-7.63-14.09-21.54-29.1-28.77-31.05-2.31-.62-5.13-1.25-6.26-1.41-1.14-.15-2.74-.53-3.57-.84-3.47-1.32-19.56-5.88-34-9.65-8.53-2.23-18.88-4.97-23-6.08-18.4-5-22.57-5.97-25.58-5.97-2.97 0-18.37 3.96-22.92 5.89-6.11 2.6-14.17 6.72-15.32 7.83-.73.7-1.97 1.28-2.75 1.28-.79 0-1.43.45-1.43 1s-.67 1-1.5 1-1.5.45-1.5 1-.56 1-1.25 1.01c-3.5.03-27.75 24.03-27.75 27.46 0 .84-.34 1.53-.76 1.53-.8 0-1.96 2.01-4.77 8.25-.93 2.06-2.09 3.75-2.58 3.75s-.89.72-.89 1.6c0 .87-.74 3.01-1.64 4.75-.91 1.73-2 3.88-2.44 4.78-4.49 9.26-7.32 39-4.99 52.4 2.14 12.29 9.07 31.61 12.61 35.15.8.8 1.46 1.88 1.46 2.38s.66 1.71 1.47 2.68c2.37 2.85 7.98 10.72 8.03 11.26.09 1 16.65 17 17.59 17 .54 0 1.23.67 1.55 1.5.31.83 1.2 1.5 1.97 1.5.76 0 1.39.34 1.39.76 0 .41 1.27 1.31 2.81 2 1.55.68 3.78 2.14 4.96 3.24s2.74 2 3.47 2c.72 0 2.29.68 3.48 1.52 1.19.83 6.13 3.02 10.97 4.85 4.85 1.84 9.71 3.69 10.81 4.12s2.9.93 4 1.11c1.1.19 5.6 1 10 1.82m-2 205.39c2.75.47 13.55.78 24 .69 19.35-.18 25.2-1 42.5-6.03 12.35-3.59 33.23-13.23 37.71-17.41 1.21-1.13 2.68-2.06 3.25-2.06s1.04-.45 1.04-1 .48-1 1.07-1 1.7-.56 2.48-1.25c.77-.69 2.63-2.15 4.14-3.25s6.05-5.38 10.1-9.5c10.08-10.26 11.21-11.55 11.21-12.77 0-.59.34-1.21.76-1.4 1.14-.49 7.49-9.86 9.4-13.86 6.11-12.75 9.06-20.86 10.36-28.47.37-2.2.97-5.58 1.33-7.5 1.14-6.12.54-28.83-.8-30.44-.67-.81-.91-1.97-.53-2.59.79-1.29-2.61-13.97-3.76-13.97-.42 0-.76.4-.76.89s-1.12 1.18-2.5 1.52c-1.38.35-2.5 1.07-2.5 1.61s-.42.98-.94.98-3.87 1.84-7.46 4.08c-6.59 4.14-9.77 4.54-10.98 1.38-1.05-2.74.64-4.58 9.76-10.69 5.02-3.36 9.27-6.48 9.45-6.94.19-.46.93-.83 1.66-.83 1.5 0 1.45-.89-.37-6.25-.7-2.06-1.66-3.75-2.13-3.75s-1.43-1.58-2.13-3.5c-.69-1.92-1.62-3.5-2.06-3.5s-.8-.48-.8-1.07c0-1.61-5.36-9.07-10.41-14.5l-4.49-4.82-3.3 3.68c-1.81 2.02-4.35 5.04-5.63 6.69-1.28 1.66-2.96 3.02-3.74 3.02s-1.98.9-2.66 2c-.69 1.1-1.78 2-2.43 2-.64 0-1.32.35-1.51.79-.18.43-1.8 1.81-3.59 3.07-2.78 1.96-3.2 2.77-2.8 5.47.76 5.22 3.43 17.65 3.98 18.53 1.08 1.75 1.94 18.57 2.01 39.14.1 30.59-.87 33.02-14.69 37.01-3.98 1.15-8.16 2.54-9.29 3.1s-3.5 1.05-5.28 1.1-3.46.46-3.74.9c-.27.44-1.12.56-1.88.27-.77-.29-2.37-.01-3.57.63s-5.4 1.15-9.33 1.13c-6.7-.04-7.31-.23-9.6-3.02-2.25-2.73-2.42-3.63-2.01-10.8.67-11.86.55-42.92-.21-50.82-.36-3.85-1.39-10.15-2.27-14l-1.61-7.01-21.22.01c-20.74 0-27.17-.44-35.93-2.46-2.36-.54-5.96-1-7.99-1.02-2.03-.01-3.99-.5-4.35-1.09-.37-.59-1.24-.85-1.94-.58s-1.67.13-2.15-.32c-1.16-1.07-15.77-6.03-17.79-6.03-.87 0-1.58-.37-1.58-.82s-2.81-2.13-6.25-3.75c-3.44-1.61-6.4-3.27-6.58-3.68-.19-.41-.97-.75-1.75-.75s-1.42-.45-1.42-1-.67-1-1.5-1-1.5-.45-1.5-1-.69-1-1.53-1-1.79-.67-2.11-1.5c-.31-.83-1.01-1.5-1.55-1.5s-3.92-3.15-7.52-7c-5.87-6.28-9.29-8.55-9.29-6.15 0 .47-1.24 2.21-2.75 3.88-5.42 5.95-8.25 9.72-8.25 10.99 0 .7-.44 1.28-.98 1.28s-1.26 1.12-1.61 2.5c-.34 1.38-1.1 2.5-1.69 2.5-.58 0-.8.26-.48.57.31.32-.96 3.28-2.83 6.6-1.88 3.31-3.41 6.44-3.41 6.94s-.44 1.7-.97 2.65c-1.4 2.5-4.72 14.67-6.04 22.16-2.48 14.02-.51 37.53 4.09 48.58.68 1.65 1.15 3.39 1.04 3.88-.11.48.46 1.6 1.27 2.5.81.89 1.47 1.97 1.46 2.41-.01 1.89 9.45 19.61 10.73 20.1.78.3 1.42 1.03 1.42 1.62 0 1.22 1.49 3.18 4.75 6.24 1.24 1.16 2.25 2.4 2.25 2.75 0 .79 10.81 11.56 15.05 15 1.69 1.38 3.7 3.06 4.44 3.75.75.69 1.85 1.25 2.44 1.25s1.07.45 1.07 1 .67 1 1.5 1 1.5.34 1.5.76c0 .41 1.36 1.35 3.02 2.09s3.58 1.86 4.25 2.49c2.28 2.15 21.15 10.58 30.23 13.51 8.12 2.62 12.25 3.59 20.37 4.74 1.45.21 4.88.76 7.63 1.22m-362.25-68.93c3.21 2.06 4.08 2.09 72.07 2.1 45.31.01 69.47-.33 70.74-1.01 1.05-.57 2.67-2.48 3.59-4.25 1.49-2.86 1.66-7.19 1.46-38.97-.16-24.64.1-35.75.83-35.75.58 0 1.06-1.1 1.06-2.44s.45-2.72 1-3.06.99-2.73.98-5.31c-.01-3.4-.28-4.28-.98-3.19-.76 1.17-.97.89-.98-1.25-.01-1.51-.5-2.75-1.08-2.75-.72 0-.96-4.81-.75-14.75.17-8.11.2-26.09.06-39.94-.24-24.52-.31-25.27-2.5-27.78l-2.25-2.58h-71.94c-58.32 0-72.19.25-73.26 1.32-1.08 1.08-1.32 17.5-1.32 88.28.01 47.82.01 87.47.01 88.1.01.64 1.47 2.09 3.26 3.23m135.19-128.04c-4.04 1.84-124.32 1.63-126.97-.22-1.85-1.3-1.97-2.57-1.9-21.58.05-16.39.33-20.37 1.5-21.1.81-.52 28.37-.92 64.11-.92 55-.02 62.86.17 64.21 1.51 1.27 1.28 1.54 4.91 1.56 21.35l.03 19.81ZM613 235.46c2.47.74 4.8 1.05 5.16.69 1.44-1.43 11-36.96 11.11-41.29.13-5.42-2.1-9.46-6.07-10.99-8.87-3.43-71.3-19.87-75.44-19.87-3.65.01-9.14 2.96-10.59 5.7-1.19 2.24-11.17 38.6-11.17 40.69 0 .96 1.58 1.95 4.25 2.64 2.34.61 14.15 3.79 26.25 7.07s28.75 7.78 37 9.99c8.25 2.22 17.03 4.64 19.5 5.37M162.67 466.33c.36.37 28.02.67 61.46.67 59.09 0 60.83-.05 61.83-1.93 1.32-2.46 1.37-28.08.06-31.5l-.97-2.57H163.28l-.63 5.25c-.84 6.98-.83 29.24.02 30.08m362.51-76.26c-4 1.61-12.16.85-28.18-2.63-34.73-7.53-38.34-8.44-40.13-10.06-2.15-1.94-2.45-6.21-.62-8.69 1.09-1.48 43.99-17.69 46.81-17.69.58 0 3.16-.97 5.74-2.16 6.06-2.79 12.72-2.92 17.76-.34 5.1 2.61 5.44 2.98 8.83 9.78 2.55 5.13 2.82 6.52 2.35 12.34-.29 3.61-1.02 7.06-1.63 7.67s-1.11 1.72-1.11 2.46c0 1.69-6.72 8.07-9.82 9.32M291.07 586.7l-1.97 3.19-12.22-.06c-11.42-.06-12.36-.22-14.54-2.4l-2.34-2.34v-29.41c0-2.29 0-4.42-.01-6.42-.03-17.78-.05-24.43 3.16-26.89 1.91-1.46 4.97-1.43 9.86-1.39.92.01 1.9.02 2.95.02 9.27 0 11.74.23 13.65 1.51-.34-.14-.72-.23-1.14-.29-1.81-.27-1.83-.2-.22.79 1.61 1 1.75 3.64 1.75 32.04 0 23.07.34 31.38 1.51 30.88-.13.26-.28.51-.44.77M589.5 256.95c11.55 3.16 21.16 5.61 21.35 5.46.65-.51 5.04-16.85 4.64-17.25-.41-.41-67.62-18.59-82.8-22.39-7.55-1.89-8.93-2-9.69-.77-1.2 1.94-4.36 14.97-3.78 15.56.26.25 11.45 3.43 24.87 7.06 13.43 3.63 33.86 9.18 45.41 12.33m-76.49 247.18c7.28.84 40.63.57 41.54-.34.39-.4.94-8 1.23-16.9l.51-16.19-3.96.63c-10.3 1.65-24.23 1.78-34.29.32-5.75-.83-10.81-1.29-11.25-1.02-.97.6-.95 23.33.03 28.87.7 3.99.72 4 6.19 4.63m51.92-2.01c.2 1.84 23.86-4.71 34.43-9.52l7.45-3.4.71-7.52c.82-8.8.3-30.19-.76-31.25-.4-.4-3.4.91-6.66 2.93-9.15 5.64-17.81 9.73-26.87 12.66l-8.28 2.67-.04 16.41c-.02 9.02-.01 16.68.02 17.02M486 498.4c4.67 1.37 9.21 2.52 10.07 2.55 1.37.04 1.56-2.12 1.5-16.95-.04-10.6-.45-17-1.07-17.02-2.59-.05-18.9-7.57-27.31-12.59-5.18-3.09-9.77-5.21-10.24-4.74-1.22 1.22-2.19 25.91-1.25 31.85l.8 5 9.5 4.7c5.23 2.59 13.33 5.83 18 7.2m-219.8 86.4c1.74 1.74 19.2 1.63 20.66-.13 1.3-1.57 1.56-57.29.27-58.09-1.17-.72-19.23-1.48-20.8-.88-1.84.71-1.96 57.27-.13 59.1m307.4-24.64c.93 1.51 35.47-9.43 39.15-12.4 1.55-1.25 1.59-7.47.11-19.02-.62-4.81-.7-7.22-1.83-7.91-1.06-.66-3.04.19-7.23 1.97-.73.31-1.54.66-2.42 1.03-3.92 1.64-11.57 4.21-17 5.7-5.43 1.5-10.46 2.89-11.17 3.08-1 .28-1.15 3.23-.66 13.61.35 7.29.82 13.57 1.05 13.94m-59.1-177.85c7.76 1.77 13.34-2.46 14.99-11.36 1.26-6.78-4.44-15.95-9.92-15.95-2.19 0-15.71 4.43-36.49 11.95-14.54 5.27-15.24 5.66-11.5 6.39 3.67.72 40.22 8.36 42.92 8.97m56.86 204.05-.58 4.85 4.36-.69c14.23-2.26 33.76-7.44 36.52-9.67 1.43-1.17 2.83-11.66 2.43-18.35-.16-2.75-.38-5.09-.48-5.2s-4.09 1.35-8.87 3.24c-8.63 3.43-26.32 8.46-29.75 8.46-1.47 0-1.91 1.14-2.43 6.25-.34 3.44-.89 8.44-1.2 11.11m45.47-114.61c-.18 5.64-.07 10.25.26 10.25.32 0 2.61-1.58 5.09-3.51 16.34-12.73 21.27-33.55 11.66-49.22l-1.97-3.22-16.91 16.79 1.1 9.33c.6 5.13.95 13.94.77 19.58m-362.22 39.5c-1.13 1.49-3.06 1.75-12.97 1.75-15.52 0-15.64-.11-15.64-14.55 0-9.86.16-10.7 2.45-13 2.31-2.3 3.12-2.45 13.35-2.45h.37c6.79 0 10.24 0 12 1.73 1.83 1.8 1.82 5.47 1.8 12.95v.4c-.02 7.91-.44 11.96-1.36 13.17m-34.96 38.24c-1.17 1.17-4.08 1.51-13.01 1.51-11.23 0-11.54-.06-13.57-2.63-1.79-2.29-2.07-4.03-2.07-13 0-14.18.21-14.38 15.25-14.35 6.19 0 11.93.44 12.75.96 2.24 1.41 2.81 25.35.65 27.51m34.52-.14c-1.47 1.33-4.01 1.65-13 1.65-14.98 0-15.17-.18-15.17-14.55 0-9.86.16-10.7 2.45-13 2.31-2.3 3.11-2.45 13.45-2.45h.02c6.81 0 10.33 0 12.14 1.76 1.94 1.87 1.94 5.75 1.94 13.78v.03c0 9.5-.27 11.36-1.83 12.78m-34.7 38.04c-1.3 1.29-3.85 1.61-13.04 1.61-15.25 0-15.43-.17-15.43-14.39 0-13.52.58-14.31 11.26-15.14 4.43-.35 10.08-.13 13.15.51l5.38 1.12.15 12.33c.12 10.16-.14 12.63-1.47 13.96m-35.17.18c-1.28.97-5.21 1.38-13.49 1.4h-.15c-7.29.02-10.95.03-12.79-1.8-1.87-1.85-1.87-5.58-1.87-13.09v-.15c0-13.43.54-14.11 11.16-14.03 4.04.03 9.14-.02 11.34-.13h.09c2.82-.13 4.53-.21 5.58.58 1.64 1.24 1.66 4.6 1.77 13.18.13 11.14-.07 12.85-1.64 14.04m104.87-76.22c-1.47 1.32-3.99 1.65-12.81 1.65h-1c-6.81 0-10.21.01-11.91-1.69-1.69-1.69-1.7-5.07-1.72-11.81v-.99c-.04-15.44.03-15.51 15.31-15.51h.81c6.43 0 9.72 0 11.4 1.64 1.75 1.72 1.75 5.23 1.75 12.41v.87c0 10.13-.25 12-1.83 13.43m195.4-164.89c-3.25 1.41-4.64 2.04-6.03 2.06-1.08.02-2.17-.32-4.13-.93l-.24-.07c-4.95-1.55-7.35-3.46-10.01-7.98-2.25-3.8-2.48-11.59-.47-15.63 5.71-11.43 22.86-11.66 28.33-.38 4.15 8.59.64 19.4-7.45 22.93m90.75.61c-6.26 2.38-15.11-.44-19.24-6.13-3.36-4.62-3.41-12.87-.11-18.29 5.05-8.29 18.28-10.14 24.18-3.39 8.03 9.2 5.48 23.89-4.83 27.81M254.43 587.43c-1.25 1.25-3.99 1.57-13.44 1.57C226 589 226 589 226 574.5v-.67c0-6.56 0-9.96 1.7-11.71 1.83-1.89 5.64-1.85 13.57-1.77l.75.01c12.86.12 13.07.16 13.66 2.49.37 1.48.07 2.69-.79 3.23-1.76 1.09-1.78 17.12-.02 17.71 1.57.52 1.41 1.78-.44 3.64m186.98-113.89c3 3 5.94 5.46 6.52 5.46.7 0 1.1-4.74 1.16-13.75.05-7.56.38-16 .75-18.75l.66-5-7.17-7.25c-3.94-3.99-7.36-7.25-7.61-7.25s-1.63 2.64-3.08 5.88c-2.17 4.83-2.64 7.35-2.64 14.25 0 7.21.41 9.24 2.98 14.66 1.75 3.71 5.21 8.54 8.43 11.75m128.66 48.12c.87 2.32 1.1 2.31 11.93-.6 9.4-2.53 24.15-8.17 26.64-10.19.79-.65.86-2.2.22-5.15-.87-4.02-1.2-5.72-2.09-6.1-.64-.27-1.57.13-3.19.83-.1.04-.2.08-.31.13-7.03 3.03-20.15 7.26-27.8 8.96l-7.61 1.69.7 4.14c.38 2.27 1.06 5.1 1.51 6.29m-27.05-106.08c-4.71 2.47-6.8 2.91-15 3.17-10.44.33-15.58-.96-24.28-6.06-3.51-2.05-4.74-3.38-4.74-5.11 0-4.52 5.5-5.89 9.18-2.29.73.71 2.9 1.91 4.82 2.66s3.93 1.75 4.45 2.21c1.39 1.23 13.16 1.02 17.93-.31 2.27-.64 6.71-3.11 9.87-5.5s6.56-4.35 7.55-4.35c2.26 0 4.2 1.88 4.2 4.08 0 2.13-6.88 7.79-13.98 11.5M196.7 546.37c.39.38 5 .57 10.25.41l9.55-.28.28-10.12c.28-9.81.22-10.15-2-10.74-2.98-.8-11.69-.81-15.66-.02l-3.12.63v9.71c0 5.34.32 10.02.7 10.41m34.92-.92c.52 1.37 2.13 1.57 10.25 1.33l9.63-.28v-21l-6.89-.34c-3.78-.18-8.4-.05-10.25.3l-3.36.63v8.87c0 4.88.28 9.6.62 10.49M266 488v21.07l10.25-.29 10.25-.28.28-10.25.29-10.25Zm-69.3 96.37c.39.38 5 .57 10.25.41l9.55-.28.28-10.25.29-10.25H196v9.83c0 5.41.32 10.15.7 10.54m34.92-76.92c.52 1.37 2.13 1.57 10.25 1.33l9.63-.28.28-10.25.29-10.25H231v8.92c0 4.9.28 9.64.62 10.53m-70.44 75.84c.81 1.56 2.15 1.75 10.62 1.5l9.7-.29v-20h-20.99l-.13 8.5c-.06 4.67.3 9.3.8 10.29m70.52 1.08c.39.38 5 .57 10.25.41l9.55-.28.29-9.68.28-9.68-9.78-.33c-5.39-.19-10.13-.19-10.54-.01-.95.4-.99 18.62-.05 19.57m-47.05-34.88c-1.18 1.18-4.14 1.51-13.52 1.51-11.28 0-12.11-.14-13.57-2.22-.86-1.22-1.56-2.8-1.56-3.5 0-1.82 4.67-1.59 5.38.26.48 1.26 2.31 1.48 10.35 1.25l9.77-.29.28-10.25.29-10.25-3.54-.06c-1.94-.04-6.01-.06-9.03-.06s-6.17.02-6.98.06c-.82.03-1.79 1.29-2.17 2.8-.66 2.61-2.56 5.26-3.78 5.26-.31 0-.57-2.03-.57-4.5 0-7.5 1.8-8.5 15.25-8.48 6.19 0 11.93.44 12.75.96 2.24 1.41 2.81 25.35.65 27.51m.17-38.17c-1.37 1.38-3.75 1.68-13.18 1.68-11.23 0-11.54-.06-13.57-2.63-1.79-2.28-2.07-4.02-2.05-12.75.01-10.85.83-13.82 3.25-11.81.78.64 1.81.84 2.29.43s.3.01-.4.93c-.75.99-1.34 5.09-1.45 10.08-.25 11.44.27 11.92 12.51 11.54l9.28-.29.29-10.27c.24-8.93.06-10.35-1.43-10.92-1.56-.6-1.54-.73.21-1.41 1.06-.42-3.16-.79-9.38-.83-7.27-.04-11.09-.43-10.69-1.07.86-1.4 19.84-1.26 22.98.17 3.32 1.52 3.78 3.65 3.37 15.6-.27 7.58-.74 10.27-2.03 11.55m33.63.52c-1.41.64-7.19 1.16-13 1.16-14.14 0-14.45-.31-14.45-14.44 0-5.88.44-10.71 1-11.06.64-.39 1 2.71 1 8.61 0 11.89.83 11.18 1.08-.92.1-5.09.41-9.04.68-8.76.28.27.42 4.94.32 10.37-.15 7.58.15 10.15 1.27 11.07.96.8 4.58 1.11 10.8.92l9.35-.29v-21l-12-1.11 6-.5c4.67-.4 3.61-.55-4.81-.7-14.45-.25-13.3-2.19 1.3-2.19h.98c6.31 0 9.57-.01 11.25 1.62 1.79 1.73 1.78 5.32 1.78 12.72v1.07c0 12.18-.02 12.28-2.55 13.43m99.81 13.09c4.53.44 9 .86 9.93.93.93.08 1.92-.23 2.19-.67.59-.96-19.18-22.54-21.08-23.01-1-.25-1.3 2.08-1.3 10.19 0 6.02.43 10.78 1.01 11.14.56.34 4.72.98 9.25 1.42m52.58 324.38c-.78 1.41-2.58 1.69-10.69 1.69-9.91 0-12.15-.74-12.15-4s2.24-4 12.04-4c9.1 0 9.7.13 10.69 2.31.68 1.49.72 2.92.11 4M213 469.22c0-.43 16.03-.85 35.62-.95s35.87-.42 36.17-.72-26.98-.55-60.62-.55c-42.7 0-61.17.32-61.17 1.07 0 .74 7.32.9 24 .54 15.06-.34 24-.17 24 .43 0 .53.45.96 1 .96s1-.35 1-.78m38.24 116.65c1.53-.82 1.73-2.31 1.55-11.66l-.21-10.71-.33 10.75-.32 10.75-10.71.12c-6.28.07-9.48.4-7.72.79 4.62 1.04 15.77 1.02 17.74-.04m39.62-62.37 1.64 1.32.06 6.34c-.31-4.28-.83-6.49-1.7-7.66m1.82 56.74c.08-2.08.14-4.84.19-8.07-.01 3.59-.07 6.16-.19 8.07"/><path fill="#4e4a49" d="M191.88 487.64c.25-1.53.55-2.48.92-2.84.35-.36 1.26-.65 2.75-.9-.81.54 2.46 1.15 10.14 1.29 8.42.15 9.48.3 4.81.7l-6 .5 12 1.11v1l-10.25-.28-10.25-.29v9.87c0 4.74.24 8.96.56 10.22q-.12-.075-.21-.15c-1.12-.92-1.42-3.49-1.27-11.07.1-5.43-.04-10.1-.32-10.37-.27-.28-.58 3.67-.68 8.76-.25 12.1-1.08 12.81-1.08.92 0-5.9-.36-9-1-8.61-.04.03-.08.07-.12.14m-30.26 19.81c.06.16.14.3.24.43-2.19-1.33-2.29-4.3-2.15-10.63.11-4.99.7-9.09 1.45-10.08.7-.92.88-1.34.4-.93s-1.51.21-2.29-.43c-.65-.54-1.18-.72-1.61-.49.71-.77 1.71-1.24 3.13-1.53-.14.06-.24.13-.29.21-.4.64 3.42 1.03 10.69 1.07 6.22.04 10.44.41 9.38.83-1.75.68-1.77.81-.21 1.41.52.2.88.5 1.12 1.19l-10.23-.28-10.25-.29v8.95c0 4.93.28 9.68.62 10.57m138.49 26.92v-1.11c.02-13.39.04-25.15.05-35.48.09 3.5.35 5.22.78 5.22.58 0 1.07 1.24 1.08 2.75.01 2.14.22 2.42.98 1.25.7-1.09.97-.21.98 3.19.01 2.58-.43 4.97-.98 5.31s-1 1.72-1 3.06-.48 2.44-1.06 2.44c-.45 0-.72 4.26-.83 13.37m-144.08-3.35c.08 1.73.29 2.98.54 2.98 1.22 0 3.12-2.65 3.78-5.26.05-.2.11-.4.18-.59-.81 3.63-.6 14.42.46 16.81-1.14-1.1-3.95-1.26-4.77-.3-.22-2.08-.22-4.85-.22-8.53v-.35c0-1.8 0-3.38.03-4.76m99.6 53.2c-.18-.18-.43-.32-.76-.43-1.76-.59-1.74-16.62.02-17.71.4-.25.68-.65.82-1.15.17 2.37.27 5.7.27 9.25.01 4.97-.08 8.05-.35 10.04m42.83 11.86c1.32-4.4 1.55-14.82 1.62-43.58l.03 4.25c.2 31.78.03 36.11-1.46 38.97-.06.12-.12.24-.19.36m1.7-106.6c.05-54.84-.12-64.46-1.3-67.39 1.12 2.28 1.2 6.78 1.39 26.22.14 13.85.11 31.83-.06 39.94zm-118.66-.92c.43 1.31.44 3.95.29 9.67l-.29 10.27-9.28.29c-1.72.05-3.21.09-4.5.08 1.15-.01 2.52-.04 4.15-.09l9.63-.28Zm-20.2 38.19c.38-.48.82-.8 1.22-.81.63-.03 2.66-.05 4.95-.06-3.67.09-5.38.35-6.17.87m-3.03-4.13c2.01-1.59 5.81-1.61 12.98-1.6-7.07-.01-10.92.26-12.98 1.6m-1.85-15.91c-.34-1.83-.42-4.51-.42-9.15 0-5.26 0-8.53.72-10.6-.49 1.86-.7 5.3-.7 10.66-.01 4.6.06 7.27.4 9.09m34.64-2.77c.33 8.83 2.33 9.06 14.39 9.06-12.06 0-14.25-.19-14.39-9.06m21.39-20.91c3.47.01 5.53.32 6.76 1.49 1.8 1.73 1.8 5.33 1.79 12.62v1.27-1.07c0-7.4.01-10.99-1.78-12.72-1.23-1.19-3.29-1.51-6.77-1.59m-27.46 2.06c.85.65 1.36 1.47 1.62 2.48.11.44.19 1.38.25 2.65-.22-2.79-.78-4.2-1.87-5.13m59.4 75.29c-.74-.01-1.53-.02-2.37-.02l-.75-.01c-7.93-.08-11.74-.12-13.57 1.77-.51.52-.87 1.19-1.12 2.05.26-.88.62-1.57 1.14-2.1 1.84-1.87 5.62-1.83 13.43-1.75l.59.01c.91.01 1.8.03 2.65.05m-70.2-77.29c3.02.02 5.37.2 7.18.57-1.81-.29-4.42-.48-7.18-.57m28.63 25.75c1.28 0 2.68-.01 4.13-.06l9.55-.28-9.35.29c-1.62.05-3.06.07-4.33.05m52.41 52.64c.05.07.1.22.15.43-.12-.25-.27-.46-.51-.63.19.07.31.14.36.2m-93.74-15.71c.31.37.7.63 1.34.8-.73-.17-1.12-.44-1.34-.8m-4.51 2.09a13 13 0 0 0 .75 1.16c-.3-.33-.55-.72-.75-1.16"/><path fill="#9257cf" d="M613 235.46c-2.47-.73-11.25-3.15-19.5-5.37-8.25-2.21-24.9-6.71-37-9.99s-23.91-6.46-26.25-7.07c-2.67-.69-4.25-1.68-4.25-2.64 0-2.09 9.98-38.45 11.17-40.69 1.45-2.74 6.94-5.69 10.59-5.7 4.14 0 66.57 16.44 75.44 19.87 3.97 1.53 6.2 5.57 6.07 10.99-.11 4.33-9.67 39.86-11.11 41.29-.36.36-2.69.05-5.16-.69"/><path fill="#9da4a9" d="M589.5 256.95c-9.23-2.52-24.14-6.57-36.61-9.95 11.12 3.01 22.41 6.07 27.61 7.48 6.6 1.79 12.06 2.98 12.14 2.64s1.13-4.14 2.35-8.44 1.93-8.09 1.6-8.43c-.35-.35-16.76-4.94-33.83-9.56 24.05 6.45 52.47 14.2 52.73 14.47.4.4-3.99 16.74-4.64 17.25-.19.15-9.8-2.3-21.35-5.46m-54.07-33.49c-.96-.24-1.88-.47-2.74-.69-4.24-1.06-6.54-1.57-7.87-1.58 1.33.01 3.63.51 7.87 1.58.78.19 1.7.43 2.74.69"/><path fill="#bceaf9" d="M0 0h1024v1024H0Zm697.43 849.67c2.33-1.7 1.33-5.23-1.71-6.05-1.22-.33-9.53-.6-18.47-.61-13.77-.01-16.25-.24-16.25-1.51 0-.83.48-1.5 1.07-1.5 1.07 0 2.21-1.04 14.22-13 2.97-2.96 5.26-5.27 6.98-7.07-1.61 1.73-3.77 4.02-6.64 7.05-3.22 3.4-5.47 6.53-5 6.96.48.42 8.29 1.76 17.37 2.98 18.96 2.54 31.95 5.34 36.11 7.8 1.59.94 2.9 1.95 2.91 2.25 0 .29.4 1.14.87 1.88 1.12 1.77 2.84.84 14.69-7.91 40.03-29.57 75.97-67.05 101.18-105.52 31.37-47.86 51.54-99.37 61.12-156.12 4.69-27.74 5.51-37.71 5.48-66.3-.03-29.04-.94-40.44-5.43-67.5-13.31-80.41-48.68-151.14-107.09-214.11-13.35-14.38-43.87-40.05-65.2-54.8-14.98-10.37-47.89-28.49-65.64-36.13-31.49-13.57-73.89-25.6-103.5-29.39-4.4-.56-11.83-1.52-16.5-2.13-23.71-3.1-67.61-2.13-97.5 2.16-35.28 5.06-76.79 16.55-103.5 28.66-60.48 27.42-105.36 60.42-146.54 107.74-3.83 4.4-7.21 8.23-7.51 8.5s-1.63 2.08-2.96 4-5.39 7.33-9.02 12c-9.78 12.56-25.3 37.45-34 54.5-18.38 36.03-29.57 68.26-37.35 107.5-5.74 29-7.64 48.34-7.65 77.77 0 30.82 1.95 50.59 8.02 81.37 3.13 15.89 4.04 19.5 9.12 36.36 11.76 38.98 30.09 77.42 53.19 111.5 10.33 15.25 31.75 40.95 46.76 56.08 18.68 18.85 33.24 31.31 52.75 45.12 22.37 15.84 33.43 22.4 57.19 33.95 44.39 21.56 87.5 33.74 139 39.26 15.25 1.64 54.16 1.94 70.5.55 42.82-3.65 79.21-12.2 119-27.99 23-9.13 62.11-29.3 63.21-32.61.21-.63-4.28-.16-11.43 1.22-21.38 4.12-51.12 7.14-94.78 9.64-35.42 2.02-159.19 1.7-193.5-.51-68.77-4.42-104.57-10.15-105.82-16.93-.44-2.41 4.87-5.4 12.78-7.2 12-2.73 61.12-9.05 68.78-8.85 1.84.05.72-1.57-6.25-8.97-3.96-4.2-8.83-10.34-13.38-16.66 8.94 12.17 19.88 24.39 27.88 30.49 2.75 2.1 5.01 4.18 5.01 4.62 0 .43-4.86.79-10.8.79-7.07 0-11.21.41-12 1.2-1.29 1.29-1.62 5.05-.53 6.13.36.37 70.03.67 154.81.67 126.45 0 154.46-.24 155.95-1.33m-267.76-6.93q-4.545-.765-7.53-3.75c-1.64-1.65-3.65-2.99-4.46-2.99-.8 0-1.73-.67-2.04-1.5-.32-.83-1.01-1.5-1.53-1.5-.53 0-2.25-1.24-3.83-2.75s-6.58-6.28-11.11-10.59c-2.59-2.46-5.37-5.37-7.88-8.17 2.63 1.84 3.27 1.92 2 .26-4.7-6.15-6.74-9.19-6.91-10.35-.25-1.75-8.02-9.71-8.37-8.65-2.42-4.11-5.87-10.63-8.26-15.53 2.18 4.11 5.02 8.76 6.06 9.53.93.68 2.81 2.03 4.17 3 1.36.96 4.29 3.36 6.5 5.34 13.14 11.71 38.03 24.18 58.69 29.41 5.55 1.4 10.6 2.86 11.21 3.24 1.19.74 6.18 1.5 21.62 3.27 5.23.6 11.75 1.45 14.5 1.88 6.07.96 48.69.73 50.3-.27.63-.39 2.63-.89 4.44-1.13 32.98-4.22 52.34-10.97 75.72-26.41 9.4-6.2 25.45-21.55 32.38-30.98 7.47-10.14 18.66-34.51 18.66-40.63 0-1.23.74-3.97 1.65-6.1 1.31-3.08 1.65-7.33 1.65-20.87.01-9.35-.47-20.15-1.05-24-1.45-9.53-5.37-22.77-9.13-30.9-1.72-3.71-3.12-7.1-3.12-7.55 0-.44-.67-1.37-1.5-2.05-2.14-1.77-6.03.06-11.19 5.27-8.35 8.44-14.07 13.73-14.85 13.73-.34 0-3.84 2.12-7.78 4.71-7.67 5.03-27.35 15.24-29.43 15.27-.7.01-3.46 1.08-6.15 2.38-2.69 1.29-8.42 3.11-12.74 4.04-4.32.92-11.01 2.41-14.86 3.3-12.96 3-47.75 2.91-61-.17-1.1-.25-5.38-1.11-9.5-1.91-13.94-2.69-39.08-13.02-48.44-19.9-2.41-1.77-7.02-4.7-10.25-6.51-6.59-3.69-9.36-6.18-20.81-18.68-4.4-4.8-9.13-9.97-10.52-11.48s-3.05-3.91-3.7-5.33c-1-2.19-.87-2.97.85-5.16 1.12-1.42 2.44-2.32 2.95-2.01s.92.01.92-.67c0-.7.99-.3 2.31.95 1.28 1.19 2.74 2.16 3.25 2.14.2-.01.25-.12.18-.31 9 12.08 20.86 22.64 35.26 31.4 3.03 1.84 5.73 3.59 6 3.89 1.03 1.14 22.98 11.49 24.5 11.55 1.81.08 12.98 3.67 14 4.51.99.8 5.64 1.85 11.15 2.52 1.57.19 4.43.64 6.35 1 6.98 1.32 39.07 1.61 46.33.43 3.95-.64 8.36-1.33 9.81-1.53 4.24-.59 26.05-6.44 29.34-7.88 1.66-.72 4.82-2.07 7.02-2.99 3.61-1.5 5.57-2.49 11.96-5.99 1.08-.59 2.57-1.63 3.32-2.32s2.04-1.25 2.86-1.25c.83 0 2.13-.56 2.9-1.25 2.84-2.55 4-3.37 5.71-4.02.96-.37 1.75-1.13 1.75-1.7s.69-1.03 1.53-1.03 1.79-.67 2.11-1.5c.31-.83 1.04-1.5 1.61-1.5s1.99-.87 3.14-1.93c4.98-4.55 15.31-15.09 17.61-17.96 7.32-9.13 8.05-9.23 14.41-1.91 2.06 2.36 4.83 5.46 6.17 6.88 1.33 1.42 2.42 2.89 2.42 3.25 0 .37.79 1.52 1.75 2.55 3.03 3.26 5.31 6.51 6.92 9.87.86 1.79 1.96 3.25 2.44 3.25.49 0 .89.64.89 1.43 0 .78.56 2.04 1.25 2.78 1.06 1.15 6.92 12.66 9.82 19.29 2.54 5.82 6.85 20.72 7.52 25.99.21 1.66.9 6.59 1.54 10.96 1.5 10.26.5 29.25-2.15 41.05-1.12 4.95-2.18 9.67-2.36 10.5-.19.83-.85 2.77-1.48 4.32-.63 1.54-1.14 3.43-1.14 4.19 0 .75-.45 1.65-1 1.99s-1 1.63-1 2.86-.39 2.67-.87 3.19-2.83 4.78-5.22 9.45c-4.7 9.18-9.81 17-11.1 17-.45 0-.81.69-.81 1.53s-.67 1.79-1.5 2.11c-.83.31-1.5 1.01-1.5 1.55s-1.46 2.43-3.25 4.21-5.87 6.01-9.07 9.42c-3.2 3.4-6.03 6.18-6.29 6.18-1.03 0-11.39 8.3-11.39 9.12 0 .48-.67.88-1.5.88s-2.51 1.01-3.75 2.25l-2.25 2.25-52.5.25c-28.87.14-75.97.36-104.65.5s-54.19-.09-56.68-.51m84.83-174.93c-2.75-.46-6.18-1.01-7.63-1.22-8.12-1.15-12.25-2.12-20.37-4.74-9.08-2.93-27.95-11.36-30.23-13.51-.67-.63-2.59-1.75-4.25-2.49s-3.02-1.68-3.02-2.09c0-.42-.67-.76-1.5-.76s-1.5-.45-1.5-1-.48-1-1.07-1-1.69-.56-2.44-1.25c-.74-.69-2.75-2.37-4.44-3.75-4.24-3.44-15.05-14.21-15.05-15 0-.35-1.01-1.59-2.25-2.75-3.26-3.06-4.75-5.02-4.75-6.24 0-.59-.64-1.32-1.42-1.62-1.01-.39-7.14-11.55-9.65-17.14.36.33.71.47.94.33 1.17-.72 7.13 3.21 7.13 4.7 0 1.46 15.42 16.72 16.89 16.72.51 0 3.2 1.8 5.98 3.99 5.8 4.58 12.43 8.48 23.13 13.59 13.16 6.28 19.15 8.09 34.5 10.38 8.25 1.23 15.19 2.42 15.42 2.64.75.72 19.42.31 27.08-.6 4.12-.49 10.2-1.18 13.5-1.54 7.16-.77 28.47-8.04 39.85-13.58 9.06-4.42 22.47-13.52 27.82-18.88 1.92-1.92 4.69-4.3 6.15-5.29 2.27-1.53 10.68-12.63 10.68-14.1 0-.28 1.07-1.66 2.37-3.07 4.86-5.24 11.73-20.68 15.15-34.04 4.53-17.65 5.24-24 2.99-26.49-1.59-1.75-1.92-1.78-4.07-.38-1.38.91-2.81 1.15-4.02.92 1.8.02 4.45-1.12 8.18-3.47 3.59-2.24 6.94-4.08 7.46-4.08s.94-.44.94-.98 1.12-1.26 2.5-1.61c1.38-.34 2.5-1.03 2.5-1.52s.34-.89.76-.89c1.15 0 4.55 12.68 3.76 13.97-.38.62-.14 1.78.53 2.59 1.34 1.61 1.94 24.32.8 30.44-.36 1.92-.96 5.3-1.33 7.5-1.3 7.61-4.25 15.72-10.36 28.47-1.91 4-8.26 13.37-9.4 13.86-.42.19-.76.81-.76 1.4 0 1.22-1.13 2.51-11.21 12.77-4.05 4.12-8.59 8.4-10.1 9.5s-3.37 2.56-4.14 3.25c-.78.69-1.89 1.25-2.48 1.25s-1.07.45-1.07 1-.47 1-1.04 1-2.04.93-3.25 2.06c-4.48 4.18-25.36 13.82-37.71 17.41-17.3 5.03-23.15 5.85-42.5 6.03-10.45.09-21.25-.22-24-.69m2-205.39c-4.4-.82-8.9-1.63-10-1.82-1.1-.18-2.9-.68-4-1.11s-5.96-2.28-10.81-4.12c-4.84-1.83-9.78-4.02-10.97-4.85-1.19-.84-2.76-1.52-3.48-1.52-.73 0-2.29-.9-3.47-2s-3.41-2.56-4.96-3.24c-1.54-.69-2.81-1.59-2.81-2 0-.42-.63-.76-1.39-.76-.77 0-1.66-.67-1.97-1.5-.32-.83-1.01-1.5-1.55-1.5-.19 0-1-.64-2.17-1.66.01 0 .02-.01.03-.02.25-.21-2.19-2.96-5.43-6.11l-5.79-5.63c-.04-.19-.14-.44-.34-.76-.4-.65.89.06 2.88 1.57 1.99 1.52 3.81 2.61 4.04 2.44.24-.18 1.88.79 3.65 2.17 3.54 2.75 20.93 11.99 22.56 12 .56 0 4.2 1.34 8.09 2.97 5 2.1 9.83 3.23 16.48 3.86 11.73 1.11 28.24.72 37.33-.88 11.02-1.94 31.35-10.09 39.32-15.77 1.69-1.2 3.39-2.18 3.78-2.18 1.07 0 12.22-9.85 17.54-15.5 5.07-5.38 11.94-14.11 11.94-15.16 0-.36 1.01-2.04 2.25-3.75 4.73-6.5 11.3-23.95 13.79-36.61 1.61-8.18 1.37-31.42-.41-39.04-2.66-11.46-8.6-28.21-11.2-31.62-1.4-1.83-2.26-3.79-1.91-4.35s.26-.92-.2-.79c-.45.13-2.26-.54-4.02-1.47-1.76-.94-4.81-1.71-6.78-1.71s-5.2-.67-7.17-1.5c-1.98-.83-5.35-1.5-7.5-1.5s-5.59-.73-7.63-1.61c-3.33-1.44-6.54-2.24-21.96-5.44-2.33-.49-6.38-1.76-9-2.83s-7.91-2.94-11.76-4.16c-3.85-1.21-8.6-3.01-10.56-4-2.94-1.49-5.71-2.29-11.94-3.46-2.23-.42-5.95-2.08-8.15-3.63-1.46-1.03-3.46-1.87-4.45-1.87-1.65 0-1.65-.1.12-1.39 1.75-1.28 1.62-1.36-1.55-1-1.25.15-3.16.55-5.28 1.1 5.41-1.45 11.06-2.71 12.73-2.71 2.94 0 7 .93 24.46 5.66-.96-.17-1.67-.2-1.84-.03-.29.29.34 1.17 1.4 1.95 1.95 1.42 9.54 2.06 8.16.69-.34-.34-1.34-.79-2.57-1.22 5.05 1.34 12.53 3.32 18.97 5 14.44 3.77 30.53 8.33 34 9.65.83.31 2.43.69 3.57.84 1.13.16 3.95.79 6.26 1.41 7.23 1.95 21.14 16.96 28.77 31.05 1.05 1.92 2.17 3.73 2.5 4 1.33 1.11 6.15 14.69 8.62 24.29 4.11 15.97 3.73 37.41-.94 52.71-2.09 6.86-5.96 16.54-7.58 19-.91 1.38-1.66 2.83-1.67 3.23-.02.4-2.48 4.45-5.47 9-5.86 8.9-22.86 26.77-25.47 26.77-.87 0-1.59.34-1.59.77 0 2.35-21.33 13.68-32.25 17.13-17.53 5.53-38.23 7.29-53.25 4.52m127.05 61.67c.09-.33.23-.67.41-1.02.53-.98 3.9-3.7 7.5-6.04 3.6-2.35 6.54-4.66 6.54-5.15 0-.48.67-.88 1.5-.88s1.5-.48 1.5-1.06-1.34-.26-2.99.71c-3.69 2.18-4.18 1.67-6.43-6.65-.96-3.58-2.95-9.88-4.42-14-3.41-9.57-5.1-10.06-11.27-3.29-2.42 2.65-6.3 6.31-8.64 8.14-5.15 4.02-5.92 6.57-3.89 12.85 4.23 13.03 5.89 25.52 6.39 48.02.27 12.21.18 24.25-.19 26.74-1.23 8.2-6.79 12.63-20.06 15.97-3.85.97-8.8 2.37-11 3.1-2.2.74-7.88 1.61-12.63 1.95-7 .49-8.73.33-9.18-.84-.4-1.04.48-1.63 3.13-2.12 11.07-2.03 13.35-2.75 12.28-3.82-.15-.15-.29-.27-.43-.36.47-.07.98-.11 1.5-.13 1.78-.05 4.15-.54 5.28-1.1s5.31-1.95 9.29-3.1c13.82-3.99 14.79-6.42 14.69-37.01-.07-20.57-.93-37.39-2.01-39.14-.55-.88-3.22-13.31-3.98-18.53-.4-2.7.02-3.51 2.8-5.47 1.79-1.26 3.41-2.64 3.59-3.07.19-.44.87-.79 1.51-.79.65 0 1.74-.9 2.43-2 .68-1.1 1.88-2 2.66-2s2.46-1.36 3.74-3.02c1.28-1.65 3.82-4.67 5.63-6.69l3.3-3.68 4.49 4.82c5.05 5.43 10.41 12.89 10.41 14.5 0 .59.36 1.07.8 1.07s1.37 1.58 2.06 3.5c.7 1.92 1.66 3.5 2.13 3.5s1.43 1.69 2.13 3.75c1.82 5.36 1.87 6.25.37 6.25-.73 0-1.47.37-1.66.83-.18.46-4.43 3.58-9.45 6.94-6.38 4.27-9.12 6.46-9.83 8.32m-82.45-1.03c-.52-1.52-1.14-1.84-1.99-1.48-3.54 1.5-24.92 3.49-31.11 2.89-15.65-1.53-39.36-5.59-47.21-8.09-11.71-3.72-36.09-16.67-40.97-21.76-.73-.76-4.8-4.97-9.06-9.36l-7.73-7.98 2.08-1.88c2.05-1.85 2.11-1.84 4.5.94 1.34 1.55 2.89 2.66 3.45 2.47.38-.12.02-.9-.83-1.96.65.66 1.34 1.37 2.06 2.15 3.6 3.85 6.98 7 7.52 7s1.24.67 1.55 1.5c.32.83 1.27 1.5 2.11 1.5s1.53.45 1.53 1 .67 1 1.5 1 1.5.45 1.5 1 .64 1 1.42 1 1.56.34 1.75.75c.18.41 3.14 2.07 6.58 3.68 3.44 1.62 6.25 3.3 6.25 3.75s.71.82 1.58.82c2.02 0 16.63 4.96 17.79 6.03.48.45 1.45.59 2.15.32s1.57-.01 1.94.58c.36.59 2.32 1.08 4.35 1.09 2.03.02 5.63.48 7.99 1.02 8.76 2.02 15.19 2.46 35.93 2.46l21.22-.01 1.61 7.01c.17.77.36 1.63.54 2.56m-280.29-64.91-.31 4.35-57.26.08-57.27.07.38-4.35c.2-2.39.58-4.56.84-4.82s1.47.6 2.7 1.9c1.91 2.04 2.76 2.27 5.92 1.6 2.03-.43 13.59-1.1 25.69-1.47 12.1-.38 25.58-.85 29.95-1.05 4.38-.21 8.43 0 9 .45 1.71 1.33 26.39 2.12 29.02.92 1.27-.58 2.8-2.13 3.4-3.44 2.53-5.55 8.45-1.26 7.94 5.76m684.26 526.98c1.08 2.13 2.4 3.87 2.93 3.87s1.85-1.74 2.93-3.87c3.07-6.01 6.91-10.02 12.73-13.3 2.94-1.66 5.34-3.38 5.34-3.83s-2.4-2.17-5.34-3.83c-5.82-3.28-9.66-7.29-12.73-13.3-1.08-2.13-2.4-3.87-2.93-3.87s-1.85 1.74-2.93 3.87c-3.07 6.01-6.91 10.02-12.73 13.3-2.94 1.66-5.34 3.38-5.34 3.83s2.4 2.17 5.34 3.83c5.82 3.28 9.66 7.29 12.73 13.3M266 488h21.07l-.29 10.25-.28 10.25-10.25.28-10.25.29V498.5c0 6.8.38 10.5 1.07 10.5 1.48 0 3.97-2.62 3.22-3.38-.34-.34 2.32-.62 5.93-.62h6.55v-5.01c0-2.76-.38-5.25-.83-5.53-.46-.28-2.89 0-5.39.63-4.03 1.02-4.55 1.46-4.55 3.92 0 1.55-.67 3.03-1.5 3.35-1.22.47-1.53-.51-1.66-5.14l-.17-5.72-1.34 11L267 491l16.5-.4-7.5-.51-7.5-.51 8.5-.6 8.5-.61Zm104.84 361.31c.61-1.08.57-2.51-.11-4-.99-2.18-1.59-2.31-10.69-2.31-9.8 0-12.04.74-12.04 4s2.24 4 12.15 4c8.11 0 9.91-.28 10.69-1.69m82.23-418.7c.78.88 1.54 1.7 2.24 2.44-2.78-2.6-6-5.74-8.38-8.17.53.21.86.13.8-.28Zm-26.26 41.67-3.44 3.5c-2.67 2.72-4.89 5.19-6.5 7.19 1.34-1.69 3.14-3.78 5.38-6.24 1.51-1.67 2.75-3.41 2.75-3.88 0-1.03.63-1.2 1.81-.57M654 526c0 .55.2 1 .44 1s.72-.45 1.06-1 .14-1-.44-1-1.06.45-1.06 1M383.34 801.38c.7.99 1.34 1.62 1.71 1.62.52 0 .95.69.95 1.53 0 .4.15.82.4 1.19-1.45-1.82-2.53-3.35-3.06-4.34m27.81-180.52c-.19-.2-.43-.42-.7-.64-1.13-.95-2.11-2.16-2.18-2.69-.02-.15-.04-.28-.07-.4.66.68 1.42 1.6 2.15 2.62.26.37.53.74.8 1.11m-32.4 173.13c.04.01.09.01.13.01.49 0 1.18.79 1.53 1.75.18.5.39 1.02.62 1.52-.27-.36-.55-.74-.85-1.13-.36-.47-.85-1.21-1.43-2.15m7.92 12.08c.24.25.53.45.83.57.83.31 1.5 1.18 1.5 1.91 0 .13.03.27.08.42-.87-1.02-1.68-1.99-2.41-2.9m20.58-189.8c-.83-.01-2.16.81-4.03 2.48 1.74-1.64 3.09-2.75 3.46-2.75.13 0 .33.1.57.27M162.67 466.33c-.43-.42-.64-6.24-.64-12.81.07 6.42.29 12.47.64 12.81m333.21-216.56c-2.31.69-4.6 1.46-6.38 2.17-5.09 2.03-14.13 6.63-15.32 7.78 1.15-1.11 9.21-5.23 15.32-7.83 1.36-.58 3.7-1.34 6.38-2.12M443.1 420.25c-.97-1.55-3.49-5.1-5.56-7.86 2.51 3.24 4.77 6.45 5.56 7.86m120.38 139.98c-.03-10.9-.26-21.57-.67-25.73-.07-.76-.15-1.48-.22-2.16q.15 1.17.24 2.16c.4 4.18.62 14.85.65 25.73M399.13 622.8c-2.81 2.98-5.65 6.21-6.63 7.56 1.34-1.85 3.98-4.81 6.63-7.56m4.62-32.91c-.21-.53-.74-1.33-1.36-2.01-.81-.9-1.38-2.02-1.27-2.5-.11.48.56 1.71 1.49 2.75.73.8 1.17 1.5 1.14 1.76m222.97-352.18c.65-2.33 1.44-5 2.29-7.71-.92 3-1.68 5.58-2.29 7.71m60.81 577.34c.3-.47.45-.8.47-1.05-.02.25-.13.55-.47 1.05M589.7 596.88c-.06.05-.13.1-.19.14.05-.05.11-.09.19-.14"/><path fill="#b8bce0" d="M564.93 502.12c-.03-.34-.04-8-.02-17.02l.04-16.41 8.28-2.67c9.06-2.93 17.72-7.02 26.87-12.66 3.26-2.02 6.26-3.33 6.66-2.93 1.06 1.06 1.58 22.45.76 31.25l-.71 7.52-7.45 3.4c-10.57 4.81-34.23 11.36-34.43 9.52M486 498.4c-4.67-1.37-12.77-4.61-18-7.2l-9.5-4.7-.8-5c-.94-5.94.03-30.63 1.25-31.85.47-.47 5.06 1.65 10.24 4.74 8.41 5.02 24.72 12.54 27.31 12.59.62.02 1.03 6.42 1.07 17.02.06 14.83-.13 16.99-1.5 16.95-.86-.03-5.4-1.18-10.07-2.55m49.43-274.94c6.05 1.56 16.22 4.26 27.33 7.23 17.07 4.62 33.48 9.21 33.83 9.56.33.34-.38 4.13-1.6 8.43s-2.27 8.1-2.35 8.44-5.54-.85-12.14-2.64c-5.2-1.41-16.49-4.47-27.61-7.48-3.13-.85-6.1-1.65-8.8-2.38-13.42-3.63-24.61-6.81-24.87-7.06-.58-.59 2.58-13.62 3.78-15.56.33-.54.78-.82 1.82-.81h.01c1.33.02 3.62.52 7.86 1.58q1.29.33 2.73.69ZM266.2 584.8c-1.83-1.83-1.71-58.39.13-59.1 1.57-.6 19.63.16 20.8.88 1.29.8 1.03 56.52-.27 58.09-1.46 1.76-18.92 1.87-20.66.13m307.4-24.64c-.23-.37-.7-6.65-1.05-13.94-.49-10.38-.34-13.33.66-13.61.71-.19 5.74-1.58 11.17-3.08 5.43-1.49 13.08-4.06 17-5.7.88-.37 1.69-.72 2.42-1.03 4.19-1.78 6.17-2.63 7.23-1.97 1.13.69 1.21 3.1 1.83 7.91 1.48 11.55 1.44 17.77-.11 19.02-3.68 2.97-38.22 13.91-39.15 12.4m-412.11-14.39c-.05-.08-.08-.15-.11-.23-.09-.22-.22-.41-.39-.58-1.06-2.39-1.27-13.18-.46-16.81.2-.54.47-1.02.77-1.4.79-.52 2.5-.78 6.17-.87h2.03c3.02 0 7.09.02 9.03.06l3.54.06-.29 10.25-.28 10.25-9.77.29c-4.92.14-7.51.11-8.9-.22-.64-.17-1.03-.43-1.34-.8m35.21.6c-.38-.39-.7-5.07-.7-10.41v-9.71l3.12-.63c3.97-.79 12.68-.78 15.66.02 2.22.59 2.28.93 2 10.74l-.28 10.12-9.55.28c-5.25.16-9.86-.03-10.25-.41m34.92-.92c-.34-.89-.62-5.61-.62-10.49v-8.87l3.36-.63c1.85-.35 6.47-.48 10.25-.3l6.89.34v21l-9.63.28c-8.12.24-9.73.04-10.25-1.33m-34.92 38.92c-.38-.39-.7-5.13-.7-10.54V564h21.07l-.29 10.25-.28 10.25-9.55.28c-5.25.16-9.86-.03-10.25-.41m34.92-76.92c-.34-.89-.62-5.63-.62-10.53V488h21.07l-.29 10.25-.28 10.25-9.63.28c-8.12.24-9.73.04-10.25-1.33m-70.44 75.84c-.5-.99-.86-5.62-.8-10.29l.13-8.5h20.99v20l-9.7.29c-8.47.25-9.81.06-10.62-1.5m41.64-74.45c-3.29-.05-5.38-.32-6.26-.82-.32-1.26-.56-5.48-.56-10.22v-9.87l10.25.29 10.25.28v20l-9.55.28c-1.45.05-2.85.06-4.13.06m-41.2-1.39c-.34-.89-.62-5.64-.62-10.57v-8.95l10.25.29 10.23.28c.01.02.01.04.02.06v19.94l-9.63.28c-1.63.05-3 .08-4.15.09-2.8-.02-4.65-.25-5.86-.99-.1-.13-.18-.27-.24-.43M266 488l19.5.37-8.5.61-8.5.6 7.5.51 7.5.51-16.5.4.33 11.5 1.34-11 .17 5.72c.13 4.63.44 5.61 1.66 5.14.83-.32 1.5-1.8 1.5-3.35 0-2.46.52-2.9 4.55-3.92 2.5-.63 4.93-.91 5.39-.63.45.28.83 2.77.83 5.53V505h-6.55c-3.61 0-6.27.28-5.93.62.75.76-1.74 3.38-3.22 3.38-.69 0-1.07-3.7-1.07-10.5Z"/><path fill="#fff" d="M626.72 237.71c.61-2.13 1.37-4.71 2.29-7.71.21-.67.42-1.33.64-2 .26-.82.48-1.6.48-1.73.01-.13 1.55-5.98 3.43-13 3.61-13.49 4.42-23.94 2.15-27.89-2.72-4.75-7.6-9.2-10.84-9.89-1.85-.4-3.82-1.07-4.37-1.49-.89-.68-6.32-2.23-9-2.57-.55-.07-1.67-.38-2.5-.7s-3.24-.87-5.37-1.22c-2.13-.36-4.61-1.06-5.5-1.57-2.54-1.45-46.92-12.94-49.94-12.93-7.98.01-16.37 5.48-19.49 12.7-.9 2.09-3.67 11.44-6.16 20.79-2.48 9.35-4.95 18.35-5.48 20s-1.2 4.12-1.48 5.5c-.61 2.96-5.71 20.36-6.1 20.81-.14.17-6.18-1.29-13.4-3.25-15.21-4.12-18.68-4.41-19.56-1.62-1.12 3.51 1.4 5.66 8.87 7.55 3.91.99 7.47 2 7.91 2.25 1.43.79-1.36 3.11-4.6 3.83-6.33 1.39-23.84 10.4-30.04 15.47-.64.52-3.64 2.92-6.66 5.33-12.03 9.61-23.91 24.84-30.11 38.63-1.11 2.48-2.45 5.4-2.97 6.5-2.43 5.12-6.17 18.94-7.57 28-2.69 17.34-.37 38.84 6.01 55.73 2.5 6.63 9.94 21.36 11.73 23.22 1.15 1.2 1.19 4.55.06 4.55-.47 0-2.38 3.26-4.24 7.25-3.16 6.78-3.38 7.93-3.4 17.75 0 5.77.33 11.85.75 13.5.68 2.68.22 3.59-4.3 8.5-6.14 6.67-14.5 19.03-19.27 28.5l-3.53 7-25.67 11.41c-20.71 9.21-25.84 11.15-26.54 10-.48-.77-3.48-4.14-6.66-7.48-3.19-3.33-8.99-9.41-12.89-13.5-3.91-4.08-7.32-8.1-7.59-8.93-.29-.91-1.8-1.53-3.89-1.59l-3.42-.1-1-73.81-3-4.19c-1.65-2.31-3.9-4.58-5-5.05s-35.2-.8-75.79-.72c-72.21.12-73.85.17-76.5 2.14-1.49 1.1-3.67 3.42-4.85 5.14l-2.14 3.14.41 89c.22 48.94.8 90.01 1.28 91.27 1.13 2.92 4.78 6.29 8.59 7.92 2.36 1.02 18.1 1.26 74.18 1.13l71.17-.15 4.04-2.68c2.36-1.56 4.88-4.41 6.07-6.87 1.92-3.96 2.04-6.07 2.04-35.34 0-17.12.34-31.3.75-31.52s8.75.27 18.53 1.09c15.99 1.33 18.1 1.32 21-.08 3.82-1.84 11.64-5.35 17.22-7.73 4.05-1.72 11.39-5.06 19.42-8.84 4.93-2.32 6.56-1.97 5.63 1.2-5.37 18.29-5.78 40.76-1.05 56.89.77 2.61 1.22 4.75 1.01 4.75-.84 0 4.41 13.89 7.75 20.53l3.54 7.03-7.15 7.54c-9.89 10.43-14.31 15.88-20.31 25.03-11.75 17.91-19.26 36.92-22.76 57.63-1.47 8.67-1.58 43.32-.16 49.24.33 1.38.84 3.85 1.13 5.5 1.66 9.46 6.82 24.29 12.16 35 2.88 5.77 7.32 12.67 12.4 19.6 4.55 6.32 9.42 12.46 13.38 16.66 6.97 7.4 8.09 9.02 6.25 8.97-7.66-.2-56.78 6.12-68.78 8.85-7.91 1.8-13.22 4.79-12.78 7.2 1.25 6.78 37.05 12.51 105.82 16.93 34.31 2.21 158.08 2.53 193.5.51 43.66-2.5 73.4-5.52 94.78-9.64 7.15-1.38 11.64-1.85 11.43-1.22-1.1 3.31-40.21 23.48-63.21 32.61-39.79 15.79-76.18 24.34-119 27.99-16.34 1.39-55.25 1.09-70.5-.55-51.5-5.52-94.61-17.7-139-39.26-23.76-11.55-34.82-18.11-57.19-33.95-19.51-13.81-34.07-26.27-52.75-45.12-15.01-15.13-36.43-40.83-46.76-56.08-23.1-34.08-41.43-72.52-53.19-111.5-5.08-16.86-5.99-20.47-9.12-36.36-6.07-30.78-8.02-50.55-8.02-81.37.01-29.43 1.91-48.77 7.65-77.77 7.78-39.24 18.97-71.47 37.35-107.5 8.7-17.05 24.22-41.94 34-54.5 3.63-4.67 7.69-10.08 9.02-12s2.66-3.73 2.96-4 3.68-4.1 7.51-8.5c41.18-47.32 86.06-80.32 146.54-107.74 26.71-12.11 68.22-23.6 103.5-28.66 29.89-4.29 73.79-5.26 97.5-2.16 4.67.61 12.1 1.57 16.5 2.13 29.61 3.79 72.01 15.82 103.5 29.39 17.75 7.64 50.66 25.76 65.64 36.13 21.33 14.75 51.85 40.42 65.2 54.8 58.41 62.97 93.78 133.7 107.09 214.11 4.49 27.06 5.4 38.46 5.43 67.5.03 28.59-.79 38.56-5.48 66.3-9.58 56.75-29.75 108.26-61.12 156.12-25.21 38.47-61.15 75.95-101.18 105.52-11.85 8.75-13.57 9.68-14.69 7.91-.47-.74-.87-1.59-.87-1.88-.01-.3-1.32-1.31-2.91-2.25-4.16-2.46-17.15-5.26-36.11-7.8-9.08-1.22-16.89-2.56-17.37-2.98-.47-.43 1.78-3.56 5-6.96 2.87-3.03 5.03-5.32 6.64-7.05 2.32-2.42 3.63-3.92 4.26-4.88.34-.5.45-.8.47-1.05v-.05c0-.52.9-1.5 2-2.18 1.1-.69 2-1.82 2-2.51s.45-1.26 1-1.26 1-.67 1-1.5.45-1.5 1-1.5 1-.67 1-1.5.45-1.5 1-1.5 1-.67 1-1.5.44-1.5.98-1.5 1.26-1.12 1.61-2.5c.34-1.38.95-2.5 1.35-2.5.64 0 1.65-2.08 6.55-13.5.71-1.65 1.99-4.58 2.84-6.52 2.36-5.37 6.4-21.49 7.75-30.93 1.57-10.97.67-39.72-1.59-50.52-6.01-28.78-20.1-54.52-43.28-79.03-6.04-6.39-6.47-7.27-4.51-9.29.69-.72 1.7-2.97 2.25-5 .55-2.04 1.62-4.61 2.38-5.71 2.04-2.96 5.37-13.87 7.12-23.36 2.9-15.68 1.49-42.57-2.89-54.97-1.33-3.78-1.29-4.05 1.03-6.06 1.33-1.16 2.87-2.11 3.42-2.11a1 1 0 0 0 .99-1c0-.55.67-1 1.5-1s1.5-.45 1.5-1 .67-1 1.5-1 1.5-.45 1.5-1 .67-1 1.5-1 1.5-.45 1.5-1 .67-1 1.5-1 1.5-.45 1.5-1 .67-1 1.5-1 1.5-.45 1.5-1 .67-1 1.5-1 1.5-.45 1.5-1 .67-1 1.5-1 1.5-.45 1.5-1 .67-1 1.5-1 1.5-.45 1.5-1 .67-1 1.5-1 1.5-.45 1.5-1 .67-1 1.5-1 1.5-.45 1.5-1 .67-1 1.5-1 1.5-.45 1.5-1 .67-1 1.5-1 1.5-.45 1.5-1 .67-1 1.5-1 1.5-.45 1.5-1 .67-1 1.5-1 1.5-.45 1.5-1 .47-1 1.04-1 1.96-.85 3.08-1.9c1.12-1.04 3.24-2.14 4.71-2.43s13.17 1.26 26 3.45c12.82 2.18 24.14 3.71 25.14 3.39 5.22-1.66 1.05-8.38-5.35-8.64-1.72-.07-4.02-.27-5.12-.45-21.79-3.6-28.5-5.04-28.5-6.13 0-.69 1.12-1.53 2.5-1.88 1.38-.34 2.5-1.03 2.5-1.52s.67-.89 1.5-.89 1.5-.45 1.5-1 .67-1 1.5-1 1.5-.45 1.5-1 .67-1 1.5-1 1.5-.45 1.5-1 .67-1 1.5-1 1.5-.45 1.5-1 .67-1 1.5-1 1.5-.45 1.5-1 .67-1 1.5-1 1.5-.45 1.5-1 .67-1 1.5-1 1.5-.45 1.5-1 .67-1 1.5-1 1.5-.45 1.5-1 .67-1 1.5-1 1.5-.45 1.5-1 .67-1 1.5-1 1.5-.45 1.5-1 .67-1 1.5-1 1.5-.45 1.5-1 .67-1 1.5-1 1.5-.45 1.5-1 .67-1 1.5-1c2.31 0 1.95-5.69-.43-6.96-2.53-1.36-3.64-1.31-5.25.21-2.29 2.17-13.84 9.75-14.85 9.75-.53 0-.97.45-.97 1s-.46 1-1.02 1c-.57 0-7.75 4.49-15.96 9.98s-15.09 9.66-15.3 9.25c-.21-.4.67-7.93 1.94-16.73 1.28-8.8 2.1-16.98 1.83-18.18-.58-2.58-4.02-3.95-5.93-2.37-1.32 1.09-2.97 8.59-4.09 18.55-.3 2.75-.72 5.9-.91 7s-.9 5.83-1.57 10.5l-1.21 8.5-25.7 17.13-25.71 17.13-2.06-3.13c-1.14-1.72-3.49-5.86-5.22-9.19-1.74-3.33-5.63-9.18-8.65-13-7.05-8.93-9.84-12.06-10.95-15.71-.73-2.37-.75-4.96-.78-9.53l-.03-3.28c-.16-11.84-.45-13.92-2.45-17.67-1.25-2.34-2.02-4.25-1.71-4.25s-.29-.91-1.32-2.02c-3.2-3.43-4.9-7.24-3.45-7.73.69-.23 1.25-1.02 1.25-1.76s.63-1.97 1.39-2.74c5.03-5.03 12.12-25.09 14.66-41.5 1.68-10.83.65-33.16-2-43.25-.51-1.92-1.47-5.75-2.15-8.5-1.39-5.69-11.53-26.01-15.38-30.81-1.4-1.75-2.92-3.65-3.37-4.22-.44-.56-1.61-2.25-2.6-3.75-1.74-2.65-1.73-2.72.25-2.72 1.11 0 4.87.89 8.36 1.99 7.34 2.3 9.97 2.48 11.64.81 2.77-2.77-.13-7.59-4.94-8.22-1.3-.18-3.03-.58-3.86-.9-2.2-.85-10.26-2.95-12.02-3.12-.83-.09-1.96-.41-2.5-.72s-2.27-.87-3.84-1.25c-.99-.24-1.67-.33-2.04-.71-.75-.77-.31-2.7 1.21-9.27.13-.56.27-1.16.41-1.79.72-3.13 1.64-6.02 2.05-6.42.4-.4.73-1.48.73-2.4 0-.76.68-3.59 1.72-7.29M407.25 616.27c.27.2.59.49.95.86.03.12.05.25.07.4.07.53 1.05 1.74 2.18 2.69.27.22.51.44.7.64.19.27.39.54.59.8.07.19.02.3-.18.31-.51.02-1.97-.95-3.25-2.14-1.32-1.25-2.31-1.65-2.31-.95 0 .68-.41.98-.92.67s-1.83.59-2.95 2.01c-1.72 2.19-1.85 2.97-.85 5.16.65 1.42 2.31 3.82 3.7 5.33s6.12 6.68 10.52 11.48c11.45 12.5 14.22 14.99 20.81 18.68 3.23 1.81 7.84 4.74 10.25 6.51 9.36 6.88 34.5 17.21 48.44 19.9 4.12.8 8.4 1.66 9.5 1.91 13.25 3.08 48.04 3.17 61 .17 3.85-.89 10.54-2.38 14.86-3.3 4.32-.93 10.05-2.75 12.74-4.04 2.69-1.3 5.45-2.37 6.15-2.38 2.08-.03 21.76-10.24 29.43-15.27 3.94-2.59 7.44-4.71 7.78-4.71.78 0 6.5-5.29 14.85-13.73 5.16-5.21 9.05-7.04 11.19-5.27.83.68 1.5 1.61 1.5 2.05 0 .45 1.4 3.84 3.12 7.55 3.76 8.13 7.68 21.37 9.13 30.9.58 3.85 1.06 14.65 1.05 24 0 13.54-.34 17.79-1.65 20.87-.91 2.13-1.65 4.87-1.65 6.1 0 6.12-11.19 30.49-18.66 40.63-6.93 9.43-22.98 24.78-32.38 30.98-23.38 15.44-42.74 22.19-75.72 26.41-1.81.24-3.81.74-4.44 1.13-1.61 1-44.23 1.23-50.3.27-2.75-.43-9.27-1.28-14.5-1.88-15.44-1.77-20.43-2.53-21.62-3.27-.61-.38-5.66-1.84-11.21-3.24-20.66-5.23-45.55-17.7-58.69-29.41-2.21-1.98-5.14-4.38-6.5-5.34-1.36-.97-3.24-2.32-4.17-3-1.04-.77-3.88-5.42-6.06-9.53-1.62-3.32-2.75-5.9-2.75-6.49 0-.51-.64-2.35-1.43-4.08-6.4-14.08-9.39-44.99-6.15-63.61 1.74-9.96 5.13-23.34 6.67-26.28.5-.95.91-2.53.92-3.5 0-.97 1.11-3.56 2.46-5.76 1.36-2.2 2.48-4.79 2.5-5.75s.44-1.75.93-1.75c.5 0 1.93-2.47 3.19-5.5 1.25-3.03 2.65-5.5 3.09-5.5.45 0 .82-.67.82-1.5s.45-1.5 1-1.5 1-.67 1-1.5.45-1.5 1-1.5 1-.69 1-1.53.67-1.79 1.5-2.11c.83-.31 1.5-1.1 1.5-1.74 0-.65.79-1.92 1.75-2.83.96-.92 2.65-2.91 3.75-4.43 1.34-1.85 3.98-4.81 6.63-7.56 1.43-1.48 2.86-2.9 4.09-4.05 1.87-1.67 3.2-2.49 4.03-2.48m45.82-185.66-5.34-6.01c.06.41-.27.49-.8.28-2.01-2.05-3.41-3.59-3.43-3.88-.01-.09-.16-.35-.4-.75-.79-1.41-3.05-4.62-5.56-7.86-.8-1.05-1.52-1.99-2.07-2.65-.81-.97-1.47-2.18-1.47-2.68s-.66-1.58-1.46-2.38c-3.54-3.54-10.47-22.86-12.61-35.15-2.33-13.4.5-43.14 4.99-52.4.44-.9 1.53-3.05 2.44-4.78.9-1.74 1.64-3.88 1.64-4.75 0-.88.4-1.6.89-1.6s1.65-1.69 2.58-3.75c2.81-6.24 3.97-8.25 4.77-8.25.42 0 .76-.69.76-1.53 0-3.43 24.25-27.43 27.75-27.46.69-.01 1.25-.46 1.25-1.01s.67-1 1.5-1 1.5-.45 1.5-1 .64-1 1.43-1c.78 0 2.02-.58 2.75-1.28 1.19-1.15 10.23-5.75 15.32-7.78 1.78-.71 4.07-1.48 6.38-2.17 1.22-.35 2.51-.71 3.81-1.06 2.12-.55 4.03-.95 5.28-1.1 3.17-.36 3.3-.28 1.55 1-1.77 1.29-1.77 1.39-.12 1.39.99 0 2.99.84 4.45 1.87 2.2 1.55 5.92 3.21 8.15 3.63 6.23 1.17 9 1.97 11.94 3.46 1.96.99 6.71 2.79 10.56 4 3.85 1.22 9.14 3.09 11.76 4.16s6.67 2.34 9 2.83c15.42 3.2 18.63 4 21.96 5.44 2.04.88 5.48 1.61 7.63 1.61s5.52.67 7.5 1.5c1.97.83 5.2 1.5 7.17 1.5s5.02.77 6.78 1.71c1.76.93 3.57 1.6 4.02 1.47.46-.13.55.23.2.79s.51 2.52 1.91 4.35c2.6 3.41 8.54 20.16 11.2 31.62 1.78 7.62 2.02 30.86.41 39.04-2.49 12.66-9.06 30.11-13.79 36.61-1.24 1.71-2.25 3.39-2.25 3.75 0 1.05-6.87 9.78-11.94 15.16-5.32 5.65-16.47 15.5-17.54 15.5-.39 0-2.09.98-3.78 2.18-7.97 5.68-28.3 13.83-39.32 15.77-9.09 1.6-25.6 1.99-37.33.88-6.65-.63-11.48-1.76-16.48-3.86-3.89-1.63-7.53-2.97-8.09-2.97-1.63-.01-19.02-9.25-22.56-12-1.77-1.38-3.41-2.35-3.65-2.17-.23.17-2.05-.92-4.04-2.44-1.99-1.51-3.28-2.22-2.88-1.57.2.32.3.57.34.76l5.79 5.63c3.24 3.15 5.68 5.9 5.43 6.11-.01.01-.02.02-.03.02-1-.87-2.25-2.02-3.61-3.29-.7-.74-1.46-1.56-2.24-2.44M152.25 598.88c-1.79-1.14-3.25-2.59-3.26-3.23 0-.63 0-40.28-.01-88.1 0-70.78.24-87.2 1.32-88.28 1.07-1.07 14.94-1.32 73.26-1.32h71.94l2.25 2.58c.45.52.82.97 1.11 1.56 1.18 2.93 1.35 12.55 1.3 67.39-.06 3.43-.06 6.19 0 8.3-.01 10.33-.03 22.09-.05 35.48v1.11c-.05 4.72-.06 10.74-.03 18.13-.07 28.76-.3 39.18-1.62 43.58-.95 1.67-2.42 3.36-3.4 3.89-1.27.68-25.43 1.02-70.74 1.01-67.99-.01-68.86-.04-72.07-2.1m491.3-74.79c-.31.81-.24 1.55.07 2.37.53 1.37 1.42 2.07 2.8 2.09 1.21.23 2.64-.01 4.02-.92 2.15-1.4 2.48-1.37 4.07.38 2.25 2.49 1.54 8.84-2.99 26.49-3.42 13.36-10.29 28.8-15.15 34.04-1.3 1.41-2.37 2.79-2.37 3.07 0 1.47-8.41 12.57-10.68 14.1-1.46.99-4.23 3.37-6.15 5.29-5.35 5.36-18.76 14.46-27.82 18.88-11.38 5.54-32.69 12.81-39.85 13.58-3.3.36-9.38 1.05-13.5 1.54-7.66.91-26.33 1.32-27.08.6-.23-.22-7.17-1.41-15.42-2.64-15.35-2.29-21.34-4.1-34.5-10.38-10.7-5.11-17.33-9.01-23.13-13.59-2.78-2.19-5.47-3.99-5.98-3.99-1.47 0-16.89-15.26-16.89-16.72 0-1.49-5.96-5.42-7.13-4.7-.23.14-.58 0-.94-.33-.67-1.48-1.08-2.57-1.08-2.96 0-.1-.03-.24-.1-.4.03-.26-.41-.96-1.14-1.76-.93-1.04-1.6-2.27-1.49-2.75.11-.49-.36-2.23-1.04-3.88-4.6-11.05-6.57-34.56-4.09-48.58 1.32-7.49 4.64-19.66 6.04-22.16.53-.95.97-2.15.97-2.65s1.53-3.63 3.41-6.94c1.87-3.32 3.14-6.28 2.83-6.6-.32-.31-.1-.57.48-.57.59 0 1.35-1.12 1.69-2.5.35-1.38 1.07-2.5 1.61-2.5s.98-.58.98-1.28c0-.75.97-2.35 2.87-4.75 1.61-2 3.83-4.47 6.5-7.19l3.44-3.5c1.23.67 3.07 2.21 5.42 4.57.85 1.06 1.21 1.84.83 1.96-.56.19-2.11-.92-3.45-2.47-2.39-2.78-2.45-2.79-4.5-.94l-2.08 1.88 7.73 7.98c4.26 4.39 8.33 8.6 9.06 9.36 4.88 5.09 29.26 18.04 40.97 21.76 7.85 2.5 31.56 6.56 47.21 8.09 6.19.6 27.57-1.39 31.11-2.89.85-.36 1.47-.04 1.99 1.48.57 2.92 1.13 6.42 1.49 9.28.07.68.15 1.4.22 2.16.41 4.15.64 14.82.67 25.71v.02c.02 9.67-.12 19.51-.44 25.09-.41 7.17-.24 8.07 2.01 10.8 2.29 2.79 2.9 2.98 9.6 3.02 3.93.02 8.13-.49 9.33-1.13s2.8-.92 3.57-.63c.76.29 1.61.17 1.88-.27.02-.03.05-.06.08-.09.06-.04.12-.09.18-.13l.01-.01c.38-.22 1.11-.42 1.97-.54.14.09.28.21.43.36 1.07 1.07-1.21 1.79-12.28 3.82-2.65.49-3.53 1.08-3.13 2.12.45 1.17 2.18 1.33 9.18.84 4.75-.34 10.43-1.21 12.63-1.95 2.2-.73 7.15-2.13 11-3.1 13.27-3.34 18.83-7.77 20.06-15.97.37-2.49.46-14.53.19-26.74-.5-22.5-2.16-34.99-6.39-48.02-2.03-6.28-1.26-8.83 3.89-12.85 2.34-1.83 6.22-5.49 8.64-8.14 6.17-6.77 7.86-6.28 11.27 3.29 1.47 4.12 3.46 10.42 4.42 14 2.25 8.32 2.74 8.83 6.43 6.65 1.65-.97 2.99-1.29 2.99-.71s-.67 1.06-1.5 1.06-1.5.4-1.5.88c0 .49-2.94 2.8-6.54 5.15-3.6 2.34-6.97 5.06-7.5 6.04-.18.35-.32.69-.41 1.02m-356.11-53.25 2.54-1.15-.03-19.81c-.02-16.44-.29-20.07-1.56-21.35-1.35-1.34-9.21-1.53-64.21-1.51-35.74 0-63.3.4-64.11.92-1.17.73-1.45 4.71-1.5 21.1-.07 19.01.05 20.28 1.9 21.58 2.65 1.85 122.93 2.06 126.97.22m-124.77-4.51c-.43-.42-.64-6.24-.64-12.81-.01-6.52.2-13.79.62-17.27l.63-5.25h121.77l.97 2.57c1.31 3.42 1.26 29.04-.06 31.5-1 1.88-2.74 1.93-61.83 1.93-33.44 0-61.1-.3-61.46-.67m362.51-76.26c3.1-1.25 9.82-7.63 9.82-9.32 0-.74.5-1.85 1.11-2.46s1.34-4.06 1.63-7.67c.47-5.82.2-7.21-2.35-12.34-3.39-6.8-3.73-7.17-8.83-9.78-5.04-2.58-11.7-2.45-17.76.34-2.58 1.19-5.16 2.16-5.74 2.16-2.82 0-45.72 16.21-46.81 17.69-1.83 2.48-1.53 6.75.62 8.69 1.79 1.62 5.4 2.53 40.13 10.06 16.02 3.48 24.18 4.24 28.18 2.63M292.39 584.42c.11-.28.21-1.78.29-4.18.12-1.91.18-4.48.19-8.07.08-4.84.12-10.75.12-17-.01-11.66-.09-19.16-.43-24.01l-.06-6.34-1.64-1.32c-.35-.48-.77-.79-1.25-.99-1.91-1.28-4.38-1.51-13.65-1.51-1.05 0-2.03-.01-2.95-.02-4.89-.04-7.95-.07-9.86 1.39-3.21 2.46-3.19 9.11-3.16 26.89.01 2 .01 4.13.01 6.42v29.41l2.34 2.34c2.18 2.18 3.12 2.34 14.54 2.4l12.22.06 1.97-3.19c.16-.26.31-.51.44-.77.25-.11.55-.63.88-1.51m-107.57-73.1c1.29-1.28 1.76-3.97 2.03-11.55.15-4.32.18-7.36.01-9.55-.06-1.27-.14-2.21-.25-2.65-.26-1.01-.77-1.83-1.62-2.48-.42-.36-.92-.65-1.51-.92-.43-.19-1.16-.37-2.11-.51-1.81-.37-4.16-.55-7.18-.57-5.64-.19-11.92.03-13.4.7-1.42.29-2.42.76-3.13 1.53-.39.2-.7.73-.94 1.64-.72 2.07-.72 5.34-.72 10.6 0 4.64.08 7.32.42 9.15.3 1.63.81 2.58 1.65 3.66 2.03 2.57 2.34 2.63 13.57 2.63 9.43 0 11.81-.3 13.18-1.68m-.17 38.17c2.16-2.16 1.59-26.1-.65-27.51-.82-.52-6.56-.96-12.75-.96-7.17-.01-10.97.01-12.98 1.6-1.86 1.22-2.27 3.32-2.27 6.88 0 .53.01 1.04.03 1.52-.03 1.38-.03 2.96-.03 4.76v.35c0 3.68 0 6.45.22 8.53-.14.17-.22.38-.22.62 0 .53.41 1.57.98 2.58.2.44.45.83.75 1.16 1.16 1.57 2.19 1.9 9.01 1.96h.01l.21.01c1.11.01 2.38.01 3.82.01h.35c9.38 0 12.34-.33 13.52-1.51m33.8-37.65c2.53-1.15 2.55-1.25 2.55-13.43v-1.27c.01-7.29.01-10.89-1.79-12.62-1.23-1.17-3.29-1.48-6.76-1.49-1.29-.03-2.78-.03-4.48-.03h-.98c-6.84 0-10.73.42-11.44.9-1.49.25-2.4.54-2.75.9-.37.36-.67 1.31-.92 2.84-.5.91-.88 5.46-.88 10.92 0 2.08.01 3.85.06 5.38.14 8.87 2.33 9.06 14.39 9.06 5.81 0 11.59-.52 13-1.16m36.16-.59c.92-1.21 1.34-5.26 1.36-13.17v-.4c.02-7.48.03-11.15-1.8-12.95-1.76-1.73-5.21-1.73-12-1.73h-.37c-10.23 0-11.04.15-13.35 2.45-2.29 2.3-2.45 3.14-2.45 13 0 14.44.12 14.55 15.64 14.55 9.91 0 11.84-.26 12.97-1.75m-34.96 38.24c2.16-2.16 1.59-26.1-.65-27.51-.82-.52-6.56-.96-12.75-.96-15.04-.03-15.25.17-15.25 14.35 0 8.97.28 10.71 2.07 13 2.03 2.57 2.34 2.63 13.57 2.63 8.93 0 11.84-.34 13.01-1.51m34.52-.14c1.56-1.42 1.83-3.28 1.83-12.78v-.03c0-8.03 0-11.91-1.94-13.78-1.81-1.76-5.33-1.76-12.14-1.76h-.02c-10.34 0-11.14.15-13.45 2.45-2.29 2.3-2.45 3.14-2.45 13 0 14.37.19 14.55 15.17 14.55 8.99 0 11.53-.32 13-1.65m-34.7 38.04c1.33-1.33 1.59-3.8 1.47-13.96l-.15-12.33-5.38-1.12c-3.07-.64-8.72-.86-13.15-.51-10.68.83-11.26 1.62-11.26 15.14 0 14.22.18 14.39 15.43 14.39 9.19 0 11.74-.32 13.04-1.61m-35.17.18c1.57-1.19 1.77-2.9 1.64-14.04-.11-8.58-.13-11.94-1.77-13.18-1.05-.79-2.76-.71-5.58-.58h-.09c-2.2.11-7.3.16-11.34.13-10.62-.08-11.16.6-11.16 14.03v.15c0 7.51 0 11.24 1.87 13.09 1.84 1.83 5.5 1.82 12.79 1.8h.15c8.28-.02 12.21-.43 13.49-1.4m104.87-76.22c1.58-1.43 1.83-3.3 1.83-13.43v-.87c0-7.18 0-10.69-1.75-12.41-1.68-1.64-4.97-1.64-11.4-1.64h-.81c-15.28 0-15.35.07-15.31 15.51v.99c.02 6.74.03 10.12 1.72 11.81 1.7 1.7 5.1 1.69 11.91 1.69h1c8.82 0 11.34-.33 12.81-1.65m-8.36-53.2c.51-7.02-5.41-11.31-7.94-5.76-.6 1.31-2.13 2.86-3.4 3.44-2.63 1.2-27.31.41-29.02-.92-.57-.45-4.62-.66-9-.45-4.37.2-17.85.67-29.95 1.05-12.1.37-23.66 1.04-25.69 1.47-3.16.67-4.01.44-5.92-1.6-1.23-1.3-2.44-2.16-2.7-1.9s-.64 2.43-.84 4.82l-.38 4.35 57.27-.07 57.26-.08Zm-26.38 129.28c1.46-1.46 1.87-2.56 1.2-3.21.27-1.99.36-5.07.35-10.04 0-3.55-.1-6.88-.27-9.25.17-.57.17-1.29-.03-2.08-.09-.37-.18-.68-.3-.94-.05-.21-.1-.36-.15-.43-.05-.06-.17-.13-.36-.2-.99-.72-3.41-.82-10.48-.9-.85-.02-1.74-.04-2.65-.05l-.59-.01c-7.81-.08-11.59-.12-13.43 1.75-.52.53-.88 1.22-1.14 2.1-.58 2.01-.58 5.06-.58 9.66v.67c0 14.5 0 14.5 14.99 14.5 9.45 0 12.19-.32 13.44-1.57m230.14-240.97c8.09-3.53 11.6-14.34 7.45-22.93-5.47-11.28-22.62-11.05-28.33.38-2.01 4.04-1.78 11.83.47 15.63 2.66 4.52 5.06 6.43 10.01 7.98l.24.07c1.96.61 3.05.95 4.13.93 1.39-.02 2.78-.65 6.03-2.06m90.75.61c10.31-3.92 12.86-18.61 4.83-27.81-5.9-6.75-19.13-4.9-24.18 3.39-3.3 5.42-3.25 13.67.11 18.29 4.13 5.69 12.98 8.51 19.24 6.13m389.75 638.06c-3.07-6.01-6.91-10.02-12.73-13.3-2.94-1.66-5.34-3.38-5.34-3.83s2.4-2.17 5.34-3.83c5.82-3.28 9.66-7.29 12.73-13.3 1.08-2.13 2.4-3.87 2.93-3.87s1.85 1.74 2.93 3.87c3.07 6.01 6.91 10.02 12.73 13.3 2.94 1.66 5.34 3.38 5.34 3.83s-2.4 2.17-5.34 3.83c-5.82 3.28-9.66 7.29-12.73 13.3-1.08 2.13-2.4 3.87-2.93 3.87s-1.85-1.74-2.93-3.87M543.02 415.58c7.1-3.71 13.98-9.37 13.98-11.5 0-2.2-1.94-4.08-4.2-4.08-.99 0-4.39 1.96-7.55 4.35s-7.6 4.86-9.87 5.5c-4.77 1.33-16.54 1.54-17.93.31-.52-.46-2.53-1.46-4.45-2.21s-4.09-1.95-4.82-2.66c-3.68-3.6-9.18-2.23-9.18 2.29 0 1.73 1.23 3.06 4.74 5.11 8.7 5.1 13.84 6.39 24.28 6.06 8.2-.26 10.29-.7 15-3.17M231.7 584.37c-.94-.95-.9-19.17.05-19.57.41-.18 5.15-.18 10.54.01l9.78.33-.28 9.68-.29 9.68-9.55.28c-5.25.16-9.86-.03-10.25-.41m86.56-59.44c-4.53-.44-8.69-1.08-9.25-1.42-.58-.36-1.01-5.12-1.01-11.14 0-8.11.3-10.44 1.3-10.19 1.9.47 21.67 22.05 21.08 23.01-.27.44-1.26.75-2.19.67-.93-.07-5.4-.49-9.93-.93m65.08 276.45c-.22-.42-.34-.74-.34-.94 0-.29-.83-1.61-1.97-3.17-.23-.5-.44-1.02-.62-1.52-.35-.96-1.04-1.75-1.53-1.75-.04 0-.09 0-.13-.01-.23-.38-.48-.8-.74-1.24.35-1.06 8.12 6.9 8.37 8.65.17 1.16 2.21 4.2 6.91 10.35 1.27 1.66.63 1.58-2-.26-.76-.85-1.5-1.7-2.21-2.52-.05-.15-.08-.29-.08-.42 0-.73-.67-1.6-1.5-1.91-.3-.12-.59-.32-.83-.57-.09-.12-.18-.24-.27-.35-.25-.37-.4-.79-.4-1.19 0-.84-.43-1.53-.95-1.53-.37 0-1.01-.63-1.71-1.62M538 251.97l4.03 1.08c1.23.43 2.23.88 2.57 1.22 1.38 1.37-6.21.73-8.16-.69-1.06-.78-1.69-1.66-1.4-1.95.17-.17.88-.14 1.84.03.37.1.74.2 1.12.31M654 526c0-.55.48-1 1.06-1s.78.45.44 1-.82 1-1.06 1-.44-.45-.44-1"/><path fill="#f57e51" d="M571.36 586.36c.31-2.67.86-7.67 1.2-11.11.52-5.11.96-6.25 2.43-6.25 3.43 0 21.12-5.03 29.75-8.46 4.78-1.89 8.77-3.35 8.87-3.24s.32 2.45.48 5.2c.4 6.69-1 17.18-2.43 18.35-2.76 2.23-22.29 7.41-36.52 9.67l-4.36.69zm-1.29-64.7c-.45-1.19-1.13-4.02-1.51-6.29l-.7-4.14 7.61-1.69c7.65-1.7 20.77-5.93 27.8-8.96 4.2-1.81 4.06-1.94 5.59 5.14.64 2.95.57 4.5-.22 5.15-2.49 2.02-17.24 7.66-26.64 10.19-10.83 2.91-11.06 2.92-11.93.6m-57.06-17.53c-5.47-.63-5.49-.64-6.19-4.63-.98-5.54-1-28.27-.03-28.87.44-.27 5.5.19 11.25 1.02 10.06 1.46 23.99 1.33 34.29-.32l3.96-.63-.51 16.19c-.29 8.9-.84 16.5-1.23 16.9-.91.91-34.26 1.18-41.54.34m103.82-32.38c.18-5.64-.17-14.45-.77-19.58l-1.1-9.33 8.45-8.4 8.46-8.39 1.97 3.22c9.61 15.67 4.68 36.49-11.66 49.22-2.48 1.93-4.77 3.51-5.09 3.51-.33 0-.44-4.61-.26-10.25m-175.42 1.79c-3.22-3.21-6.68-8.04-8.43-11.75-2.57-5.42-2.98-7.45-2.98-14.66 0-6.9.47-9.42 2.64-14.25 1.45-3.24 2.83-5.88 3.08-5.88s3.67 3.26 7.61 7.25l7.17 7.25-.66 5c-.37 2.75-.7 11.19-.75 18.75-.06 9.01-.46 13.75-1.16 13.75-.58 0-3.52-2.46-6.52-5.46m73.09-91.23c-2.7-.61-39.25-8.25-42.92-8.97-3.74-.73-3.04-1.12 11.5-6.39 20.78-7.52 34.3-11.95 36.49-11.95 5.48 0 11.18 9.17 9.92 15.95-1.65 8.9-7.23 13.13-14.99 11.36"/></g></svg>