<svg xmlns="http://www.w3.org/2000/svg" width="80" height="80" viewBox="27 63 854 854"><path fill="#453b35" d="M253.41 698.92c-4.92 1.24-45.1 1.3-50.27.08-6.1-1.44-6.57-2.62-6.31-15.74.21-10.62 1.42-35.36 4.15-85.26 3.64-66.46 8.77-143.18 10.69-159.79.81-6.95 2.16-7.63 14.83-7.46 11.98.17 15.61 1.08 17.18 4.31 1.89 3.93 4.16 16.96 6.86 39.44 4.79 39.89 5.04 41.51 6.82 43.29 1.52 1.52 1.95 1.54 4.34.2 3.63-2.04 11.26-10.87 51.8-59.89 39.88-48.22 48.58-59.35 52.46-67.1 4.58-9.13 12.16-34.13 21.99-72.5 2.26-8.8 4.97-18.7 6.02-22 1.06-3.3 3.34-11.4 5.07-18 5.46-20.83 27.83-100.57 31.09-110.8 1.72-5.39 3.86-10.68 4.75-11.76 1.17-1.42 3.85-2.26 9.73-3.08 9.82-1.37 14.64-.65 16.22 2.41 2.61 5.04 1.6 1.54 47.18 164.23 20.02 71.49 22.02 76.81 33.81 90.27 3.72 4.25 9 10.47 11.72 13.81 2.73 3.35 13.73 16.85 24.44 30 10.71 13.16 21.96 26.66 25 30.01 6.58 7.26 20.37 23.3 28.02 32.6 3.03 3.68 5.8 6.72 6.17 6.75.95.09 2.46-7.58 4.84-24.59 4.51-32.25 8.09-56.08 9.11-60.66 1.36-6.15 3.32-7.01 16.02-7.04 11.78-.04 14.06 1.1 15.76 7.89 1.46 5.79 3.78 28.85 4.57 45.46.33 6.88 1.02 18.35 1.52 25.5.51 7.15 1.2 18.17 1.54 24.5s1.02 15.33 1.52 20c1.39 13.13 3.78 58 5.03 94.5 1.04 30.35.89 40.42-.75 48.59l-.6 3.03-26.12-.31c-28.11-.33-29.2-.53-31.68-5.76-.76-1.59-1.4-9.69-1.71-21.55l-.48-19-21.41-17c-32.12-25.51-36.19-28.5-38.85-28.5-3.5 0-4.19 4.02-4.85 28.6-.31 11.6-1.02 22.3-1.58 23.77-.56 1.46-2.26 3.22-3.78 3.89-2.13.95-29.06 1.23-117.27 1.23-62.98.01-115.72-.33-117.22-.75-4.61-1.29-5.1-3.63-5.48-26.24-.2-11.55-.6-23.36-.9-26.25-.48-4.6-.82-5.25-2.78-5.25-2.31 0-45.83 33.13-54.98 41.86-6.61 6.3-7.64 9.13-7.64 20.95 0 5.44-.29 13.96-.64 18.95l-.65 9.08Zm400.34-13.64c1.51.23 8.94.49 16.5.57L684 686l-.01-9.25c-.01-5.09-.67-21.63-1.47-36.75s-1.92-36.72-2.5-48c-.57-11.28-1.53-26.58-2.12-34-.6-7.42-1.26-17.33-1.47-22-2.86-63.95-4.79-85.79-7.84-88.84-2.72-2.72-5.29-.53-5.98 5.12-.36 2.87-1.57 12.87-2.7 22.22-1.12 9.35-3.13 23.52-4.45 31.5-1.33 7.97-3.12 19.37-3.99 25.32-2.3 15.85-3.34 17.68-9.13 16.23-4.52-1.14-18.24-16.3-59.29-65.55-65.5-78.58-66.01-79.27-70.89-94.71-3.06-9.69-24.8-86.7-35.66-126.29-3.09-11.27-9.21-33.1-13.6-48.5-13.25-46.53-13.75-47.66-17.76-39.75-2.96 5.85-24.49 80.24-40.14 138.75-3.39 12.65-7.91 28.4-10.04 35s-6.18 19.85-8.98 29.45c-2.81 9.6-6.58 20.63-8.38 24.5-3.47 7.45-13.9 20.83-26.26 33.69-4.04 4.19-7.34 8.1-7.34 8.68s-4.11 5.69-9.12 11.37c-5.02 5.67-14.81 17.43-21.75 26.14-13.73 17.22-44.01 53.7-52.23 62.93-2.82 3.17-6.2 6.03-7.52 6.36-3.64.91-6.94-1.83-8.19-6.8-1.12-4.46-6.05-39.46-6.8-48.32-.82-9.68-5.47-42.04-6.5-45.25-1.29-4.02-5.39-4.62-6.83-1-1.2 2.98-6.32 75.27-7.64 107.75-1.13 27.8-2.44 47.59-4 60.5-1.68 13.87-3.16 61.43-2.05 65.85l.67 2.65h30.71l.63-3.12c.34-1.72.62-7.24.63-12.26.01-10.32 1.54-21.37 3.25-23.43 1.76-2.13 39.02-31.97 55.56-44.51 8.11-6.15 17.89-13.81 21.72-17.03 9.85-8.28 49.7-38.21 53.46-40.15 1.72-.89 4.07-1.48 5.21-1.31 2.91.43 9.97 9.09 10.39 12.74.2 1.66 2.55 7.42 5.23 12.79 2.69 5.38 7.91 16.75 11.6 25.28 3.7 8.53 7.36 16.85 8.14 18.5 1.7 3.6 3.1 13.22 4.03 27.63l.68 10.62 5.11.62c2.81.34 13.7.62 24.21.62l19.1.01.62-12.75c.67-13.96 1.31-16.59 7.95-32.79 7.02-17.12 24.87-57.72 26.43-60.11 1.78-2.73 6.53-4.73 9.22-3.87 1.14.36 4.41 2.65 7.27 5.09 2.85 2.43 5.65 4.43 6.21 4.43s2.17 1.15 3.56 2.57c1.4 1.41 4.65 3.99 7.23 5.75 7.41 5.03 28.61 21.47 36.59 28.38 4.01 3.46 10.95 8.87 15.42 12 4.48 3.14 9.98 7.52 12.22 9.75 2.25 2.22 5.26 4.71 6.71 5.54 4.14 2.37 13.76 9.89 20.05 15.67 3.15 2.9 7.29 5.93 9.2 6.72 3.82 1.6 5.09 3.46 7.19 10.54 1.64 5.51 3.39 20.79 3.41 29.76.02 5.98.11 6.2 2.77 6.6M486.4 483.36c-8.19 1.12-80.67.62-83.15-.58-2.22-1.07-2.25-1.33-2.21-20.68.06-23.95 1.23-39.33 3.23-42.39.81-1.24 1.8-4.59 2.19-7.45 1.39-10.09 11.8-27.92 21.07-36.08 2.52-2.21 6.66-4.74 9.2-5.6 5.27-1.8 15.98-2.06 21.48-.54 7.02 1.95 19.04 15.36 25.66 28.62 3.33 6.66 7.9 22.15 9.17 31.01 1.49 10.41.92 47.93-.77 50.94-.84 1.48-2.58 2.3-5.87 2.75m-29.44 385.97c-2.83 1.47-6.12 2.62-7.3 2.57-6.83-.33-13.59-3.59-16.83-8.13l-2.33-3.27.09-78.69c.01-6.3.02-12.12.02-17.5.04-55.39.04-63.37 3.95-66.57 1.04-.85 2.35-1.36 4.01-2.34 8.51-4.98 18.4-3.23 24.13 4.27l2.8 3.67.33 65.72c.32 63.46-.49 91.56-2.74 95.78-.54 1-3.29 3.02-6.13 4.49M419.5 471.17c4.48.76 54.68 0 58.37-.88l2.36-.56-.52-19.12c-.34-12.64-1.08-21.48-2.18-26.11-1.98-8.37-2.03-8.55-2.96-10.67-.4-.92-.83-2.27-.96-3s-1.71-4.21-3.52-7.74c-4.02-7.85-12.2-16.76-17.61-19.18-7.55-3.38-15.47.51-22.27 10.93-2.04 3.11-4.16 5.99-4.71 6.39-.55.41-.69.75-.31.75.39.01-.41 2.53-1.77 5.61-3.49 7.88-7.45 23.66-8.01 31.91-.27 3.85-.64 7.9-.84 9s-.07 6.5.29 12l.64 10Zm-76.73 180.19c2.92.85 63.01.2 63.9-.69 1.71-1.71 1.59-20.26-.17-26.35-2.2-7.62-8.81-23.82-18.17-44.56-7.37-16.32-7.62-16.73-10.19-16.11-4.24 1.01-8.25 3.32-14.34 8.24-3.14 2.54-8.92 7.08-12.86 10.11-3.93 3.03-8.34 6.47-9.79 7.67l-2.65 2.16.13 25.34c.14 26.31.98 33.28 4.14 34.19m148.63-.29c2.62 1.12 62.13.74 63.27-.4.46-.46.98-13.67 1.17-29.36l.35-28.53-3.85-4c-3.81-3.96-22.86-18.82-31.14-24.28-3.7-2.44-4.49-2.63-5.71-1.42-.77.78-4.85 9.52-9.06 19.42-16.88 39.69-19.19 47.64-17.8 61.22.54 5.25 1.06 6.62 2.77 7.35m-48.16 209.89c2.9 1.17 8.87 1.26 10.6.16 2.25-1.42 3.38-41.55 2.81-99.12-.29-28.88-.82-53.94-1.19-55.69-.63-3-1-3.23-6.07-3.87-.26-.03-.5-.06-.74-.09-2.19-.28-3.91-.51-5.26.1-4.9 2.2-4.89 15.35-4.85 76.38l.01 5.67c.05 74.03.09 74.62 4.69 76.46"/><path fill="#849eb1" d="m419.5 471.17-4-.67-.64-10c-.36-5.5-.49-10.9-.29-12s.57-5.15.84-9c.56-8.25 4.52-24.03 8.01-31.91 1.36-3.08 2.16-5.6 1.77-5.61-.38 0-.24-.34.31-.75.55-.4 2.67-3.28 4.71-6.39 6.8-10.42 14.72-14.31 22.27-10.93 5.41 2.42 13.59 11.33 17.61 19.18 1.81 3.53 3.39 7.01 3.52 7.74s.56 2.08.96 3c.93 2.12.98 2.3 2.96 10.67 1.1 4.63 1.84 13.47 2.18 26.11l.52 19.12-2.36.56c-3.69.88-53.89 1.64-58.37.88"/><path fill="#bbe8f8" d="M496 875.96c-14.46 1.47-63.85 2.07-84.71 1.03-48.55-2.44-102.7-18.67-152.65-45.77-41.05-22.27-91.04-63.87-119.23-99.22-48.39-60.67-77.07-124.68-88.06-196.49-2.09-13.69-3.07-79.19-1.41-94.82 11.73-110.58 63.84-204.7 152.82-275.98 22.83-18.29 38.5-28.33 64.74-41.46C326.71 93.62 376.98 81.99 445.8 82c67.77.02 120.44 12.08 177.55 40.67 55.11 27.59 102.86 66.73 137.98 113.1 50.93 67.25 78.87 142.77 83.17 224.73.69 13.17-.89 55.74-2.6 69.99-2.83 23.67-12.06 61.57-20.55 84.41-17.26 46.41-41 85.71-77.58 128.4-27.42 32-75.65 69.87-117.77 92.45-36.93 19.81-89.54 36.08-130 40.21M253.41 698.92l4.3-1.08.65-9.08c.35-4.99.64-13.51.64-18.95 0-11.82 1.03-14.65 7.64-20.95 9.15-8.73 52.67-41.86 54.98-41.86 1.96 0 2.3.65 2.78 5.25.3 2.89.7 14.7.9 26.25.38 22.61.87 24.95 5.48 26.24 1.5.42 54.24.76 117.22.75 88.21 0 115.14-.28 117.27-1.23 1.52-.67 3.22-2.43 3.78-3.89.56-1.47 1.27-12.17 1.58-23.77.66-24.58 1.35-28.6 4.85-28.6 2.66 0 6.73 2.99 38.85 28.5l21.41 17 .48 19c.31 11.86.95 19.96 1.71 21.55 2.48 5.23 3.57 5.43 31.68 5.76l26.12.31.6-3.03c1.64-8.17 1.79-18.24.75-48.59-1.25-36.5-3.64-81.37-5.03-94.5-.5-4.67-1.18-13.67-1.52-20s-1.03-17.35-1.54-24.5c-.5-7.15-1.19-18.62-1.52-25.5-.79-16.61-3.11-39.67-4.57-45.46-1.7-6.79-3.98-7.93-15.76-7.89-12.7.03-14.66.89-16.02 7.04-1.02 4.58-4.6 28.41-9.11 60.66-1.41 10.13-2.52 16.94-3.39 20.78.31-1.71.43-3.41.09-3.76-.44-.44-4.22 1.06-5.56 2.2-.19.16.49 1.43 1.5 2.83l.27.36a130 130 0 0 1-3.92-4.57c-7.65-9.3-21.44-25.34-28.02-32.6-3.04-3.35-14.29-16.85-25-30.01-10.71-13.15-21.71-26.65-24.44-30-2.72-3.34-8-9.56-11.72-13.81-11.79-13.46-13.79-18.78-33.81-90.27-45.58-162.69-44.57-159.19-47.18-164.23-1.58-3.06-6.4-3.78-16.22-2.41-5.88.82-8.56 1.66-9.73 3.08-.89 1.08-3.03 6.37-4.75 11.76-3.26 10.23-25.63 89.97-31.09 110.8-1.73 6.6-4.01 14.7-5.07 18-1.05 3.3-3.76 13.2-6.02 22-9.83 38.37-17.41 63.37-21.99 72.5-3.88 7.75-12.58 18.88-52.46 67.1-40.54 49.02-48.17 57.85-51.8 59.89-2.39 1.34-2.82 1.32-4.34-.2-1.78-1.78-2.03-3.4-6.82-43.29-2.7-22.48-4.97-35.51-6.86-39.44-1.57-3.23-5.2-4.14-17.18-4.31-12.67-.17-14.02.51-14.83 7.46-1.92 16.61-7.05 93.33-10.69 159.79-2.73 49.9-3.94 74.64-4.15 85.26-.26 13.12.21 14.3 6.31 15.74 5.17 1.22 45.35 1.16 50.27-.08m203.55 170.41c2.84-1.47 5.59-3.49 6.13-4.49 2.25-4.22 3.06-32.32 2.74-95.78l-.33-65.72-2.8-3.67c-5.73-7.5-15.62-9.25-24.13-4.27-1.66.98-2.97 1.49-4.01 2.34-3.91 3.2-3.91 11.18-3.95 66.57 0 5.38-.01 11.2-.02 17.5l-.09 78.69 2.33 3.27c3.24 4.54 10 7.8 16.83 8.13 1.18.05 4.47-1.1 7.3-2.57"/><path fill="none" d="M0 0h908v920H0Zm496 875.96c40.46-4.13 93.07-20.4 130-40.21 42.12-22.58 90.35-60.45 117.77-92.45 36.58-42.69 60.32-81.99 77.58-128.4 8.49-22.84 17.72-60.74 20.55-84.41 1.71-14.25 3.29-56.82 2.6-69.99-4.3-81.96-32.24-157.48-83.17-224.73-35.12-46.37-82.87-85.51-137.98-113.1C566.24 94.08 513.57 82.02 445.8 82c-68.82-.01-119.09 11.62-178.3 41.25-26.24 13.13-41.91 23.17-64.74 41.46-88.98 71.28-141.09 165.4-152.82 275.98-1.66 15.63-.68 81.13 1.41 94.82C62.34 607.32 91.02 671.33 139.41 732c28.19 35.35 78.18 76.95 119.23 99.22 49.95 27.1 104.1 43.33 152.65 45.77 20.86 1.04 70.25.44 84.71-1.03m157.75-190.68c-2.66-.4-2.75-.62-2.77-6.6-.02-8.97-1.77-24.25-3.41-29.76-2.1-7.08-3.37-8.94-7.19-10.54-1.91-.79-6.05-3.82-9.2-6.72-6.29-5.78-15.91-13.3-20.05-15.67-1.45-.83-4.46-3.32-6.71-5.54-2.24-2.23-7.74-6.61-12.22-9.75-4.47-3.13-11.41-8.54-15.42-12-7.98-6.91-29.18-23.35-36.59-28.38-2.58-1.76-5.83-4.34-7.23-5.75-1.39-1.42-3-2.57-3.56-2.57s-3.36-2-6.21-4.43c-2.86-2.44-6.13-4.73-7.27-5.09-2.69-.86-7.44 1.14-9.22 3.87-1.56 2.39-19.41 42.99-26.43 60.11-6.64 16.2-7.28 18.83-7.95 32.79L471.7 652l-19.1-.01c-10.51 0-21.4-.28-24.21-.62l-5.11-.62-.68-10.62c-.93-14.41-2.33-24.03-4.03-27.63-.78-1.65-4.44-9.97-8.14-18.5-3.69-8.53-8.91-19.9-11.6-25.28-2.68-5.37-5.03-11.13-5.23-12.79-.42-3.65-7.48-12.31-10.39-12.74-1.14-.17-3.49.42-5.21 1.31-3.76 1.94-43.61 31.87-53.46 40.15-3.83 3.22-13.61 10.88-21.72 17.03-16.54 12.54-53.8 42.38-55.56 44.51-1.71 2.06-3.24 13.11-3.25 23.43-.01 5.02-.29 10.54-.63 12.26l-.63 3.12h-30.71l-.67-2.65c-1.11-4.42.37-51.98 2.05-65.85 1.56-12.91 2.87-32.7 4-60.5 1.32-32.48 6.44-104.77 7.64-107.75 1.44-3.62 5.54-3.02 6.83 1 1.03 3.21 5.68 35.57 6.5 45.25.75 8.86 5.68 43.86 6.8 48.32 1.25 4.97 4.55 7.71 8.19 6.8 1.32-.33 4.7-3.19 7.52-6.36 8.22-9.23 38.5-45.71 52.23-62.93 6.94-8.71 16.73-20.47 21.75-26.14 5.01-5.68 9.12-10.79 9.12-11.37s3.3-4.49 7.34-8.68c12.36-12.86 22.79-26.24 26.26-33.69 1.8-3.87 5.57-14.9 8.38-24.5 2.8-9.6 6.85-22.85 8.98-29.45s6.65-22.35 10.04-35c15.65-58.51 37.18-132.9 40.14-138.75 4.01-7.91 4.51-6.78 17.76 39.75 4.39 15.4 10.51 37.23 13.6 48.5 10.86 39.59 32.6 116.6 35.66 126.29 4.88 15.44 5.39 16.13 70.89 94.71 41.05 49.25 54.77 64.41 59.29 65.55 5.79 1.45 6.83-.38 9.13-16.23.87-5.95 2.66-17.35 3.99-25.32 1.32-7.98 3.33-22.15 4.45-31.5 1.13-9.35 2.34-19.35 2.7-22.22.69-5.65 3.26-7.84 5.98-5.12 3.05 3.05 4.98 24.89 7.84 88.84.21 4.67.87 14.58 1.47 22 .59 7.42 1.55 22.72 2.12 34 .58 11.28 1.7 32.88 2.5 48s1.46 31.66 1.47 36.75L684 686l-13.75-.15c-7.56-.08-14.99-.34-16.5-.57M486.4 483.36c3.29-.45 5.03-1.27 5.87-2.75 1.69-3.01 2.26-40.53.77-50.94-1.27-8.86-5.84-24.35-9.17-31.01-6.62-13.26-18.64-26.67-25.66-28.62-5.5-1.52-16.21-1.26-21.48.54-2.54.86-6.68 3.39-9.2 5.6-9.27 8.16-19.68 25.99-21.07 36.08-.39 2.86-1.38 6.21-2.19 7.45-2 3.06-3.17 18.44-3.23 42.39-.04 19.35-.01 19.61 2.21 20.68 2.48 1.2 74.96 1.7 83.15.58m-143.63 168c-3.16-.91-4-7.88-4.14-34.19l-.13-25.34 2.65-2.16c1.45-1.2 5.86-4.64 9.79-7.67 3.94-3.03 9.72-7.57 12.86-10.11 6.09-4.92 10.1-7.23 14.34-8.24 2.57-.62 2.82-.21 10.19 16.11 9.36 20.74 15.97 36.94 18.17 44.56 1.76 6.09 1.88 24.64.17 26.35-.89.89-60.98 1.54-63.9.69m148.63-.29c-1.71-.73-2.23-2.1-2.77-7.35-1.39-13.58.92-21.53 17.8-61.22 4.21-9.9 8.29-18.64 9.06-19.42 1.22-1.21 2.01-1.02 5.71 1.42 8.28 5.46 27.33 20.32 31.14 24.28l3.85 4-.35 28.53c-.19 15.69-.71 28.9-1.17 29.36-1.14 1.14-60.65 1.52-63.27.4m145.77-128.13c-.2-.02-1.05-.86-2.25-2.18l-.27-.36c-1.01-1.4-1.69-2.67-1.5-2.83 1.34-1.14 5.12-2.64 5.56-2.2.34.35.22 2.05-.09 3.76-.59 2.61-1.07 3.85-1.45 3.81"/><path fill="#f9dc0f" d="M443.24 860.96c-4.6-1.84-4.64-2.43-4.69-76.46-.06-85.4-.32-83.45 10.84-82.06 5.07.64 5.44.87 6.07 3.87.37 1.75.9 26.81 1.19 55.69.57 57.57-.56 97.7-2.81 99.12-1.73 1.1-7.7 1.01-10.6-.16"/></svg>