<svg xmlns="http://www.w3.org/2000/svg" width="80" height="80" viewBox="24 55 860 860"><path fill="#493e31" d="M210.59 760.79c-2.37 1.28-6.22 1.72-16.59 1.9l-13.5.23-6.33-3.32c-8.99-4.73-15.53-11.55-20.23-21.1-4.27-8.68-6.08-17.64-5.25-26.06.97-9.85 4.03-14.26 25.27-36.37C229.14 618.61 497.21 349.41 597 251.25c44.24-43.52 60.65-59.06 64-60.6 3.76-1.72 6.48-2.05 16.5-2.03 6.6.01 13.31.31 14.92.66 12.94 2.87 25.38 15.99 29.17 30.76 2.11 8.25 1.67 26.89-.71 29.61-.88 1.02-1.93 3.2-2.33 4.85-.53 2.23-49.09 51.34-189.88 192.01-201.91 201.73-313.08 311.57-318.08 314.28m-25.89-14.17c5.42 2.02 15.6 1.22 21.8-1.7 3.99-1.88 21.31-18.51 86-82.56 139.73-138.37 373.83-373.62 398.39-400.37 17.14-18.66 17.61-19.45 17.61-29.42 0-6.81-.44-8.96-2.79-13.75-3.17-6.45-8.08-11.21-14.52-14.06-3.54-1.57-6.13-1.88-13.15-1.61l-8.74.35-5.4 4.63c-21.66 18.58-490.49 487-495.78 495.34-2.89 4.55-3.12 5.58-3.12 13.76 0 9.49 1.23 13.76 5.61 19.51 2.94 3.85 8.63 7.84 14.09 9.88m314.43-174.37c-2.76 2.31-4.2 2.74-8.96 2.71-7.21-.05-11.11-1.77-16.26-7.16-5.71-5.98-7.3-9.41-7.34-15.8-.04-6.73 2.22-11.82 6.95-15.65 1.93-1.57 11.22-10.73 20.64-20.35C524.71 484.77 677 333.15 682.73 328.26c5.45-4.66 5.73-4.77 13.17-5.08 9.53-.41 15.35 2.22 18.85 8.51 5 8.98 3.47 24.23-3.02 30.12-1.63 1.48-4.15 4.04-5.6 5.69-4.42 5.05-42.7 43.24-59.19 59.07-8.55 8.21-18.9 18.4-23 22.63-16.06 16.63-119.45 118.55-124.81 123.05m-74.5-182.5L380.57 434l-8.53-.06c-7.46-.05-9.05-.39-12.52-2.66-5.24-3.42-5.89-4.13-8.48-9.2-2.66-5.22-3.09-15.82-.79-19.34 3.89-5.94 44.26-47.4 118.18-121.37 85.28-85.35 86-86 95.26-86.59 5.88-.37 12.83 2.05 16.05 5.58 6.55 7.22 8.18 18.74 3.79 26.98-3.44 6.47-4.86 8.01-42.5 46.02-37.45 37.81-63.3 62.41-66.44 63.23-1.21.31-2.89 2.3-3.99 4.73-1.34 2.95-14.87 17.2-45.97 48.43m71.55 286.66c-6.74 3.41-13.91 3.41-20.12 0-8.81-4.85-10.98-8.33-11.78-18.9-.52-6.89-.39-7.48 2.49-11.63 1.68-2.41 36.28-37.74 76.89-78.52 70.38-70.66 77.95-78.43 86.22-79.26 1.02-.11 2.06-.1 3.22-.1h.64c4.38 0 6.31.61 10.56 3.35 8.82 5.69 9.15 6.34 9.54 18.77l.34 10.91-76.45 76.4c-59.41 59.37-77.58 76.97-81.55 78.98m-234.5-227.46c-5.92 2.21-12.95.75-20.24-4.2-7.63-5.17-8.76-7.35-9.26-17.86l-.44-9.13 156.5-156.51 6.54-.52c8.98-.72 15.01 1.19 19.54 6.2 4.28 4.74 5.67 9.29 5.67 18.57l.01 7-77.75 77.71c-43.59 43.56-78.99 78.16-80.57 78.74M184.9 619.03c-4.94 1.42-16.92 1.11-20.4-.52-7.27-3.41-11.44-10.43-11.48-19.31v-.1c0-1.45-.01-2.7.14-3.93.93-7.6 7.83-14.47 57.33-63.93 33.88-33.85 54.55-53.78 56.74-54.69 1.89-.79 5.74-1.74 8.56-2.12 5.71-.75 11.15 1.35 16.55 6.41 5.27 4.93 6.93 9.6 6.42 17.99-.33 5.41-.91 7.81-2.11 8.68-.91.67-1.65 1.78-1.65 2.48 0 .69-24.01 25.29-53.35 54.66-40.55 40.59-54.17 53.64-56.75 54.38M321.4 756.6c-5.33 2.23-13.48 1.61-18.36-1.4-8.14-5.02-12.04-11.41-12.04-19.7 0-6.76 2.38-11.86 8.85-18.95 11.4-12.52 67.36-68.24 73.65-73.36 3.85-3.13 7.23-6 7.52-6.38 2.04-2.7 14.04-3.63 20.16-1.57 3.97 1.34 11.58 9.93 12.31 13.9.34 1.85.48 7.15.31 11.77l-.3 8.42-41.56 40.58c-45.82 44.75-45.78 44.71-50.54 46.69m163.52-199.52c1.61 1.6 3.84 2.92 4.95 2.92 2.79 0 59.29-55.13 128.19-125.09 30.57-31.02 62.18-63.35 70.25-71.83 13.68-14.36 14.69-15.69 14.69-19.25 0-4.18-2.7-7.83-5.79-7.83-2.25 0-17.82 14.7-75.62 71.44-47.01 46.15-122.76 123.05-133.56 135.6-3.31 3.86-6.03 7.93-6.03 9.06s1.32 3.37 2.92 4.98M368.39 419.03c1.16.48 2.68.78 3.38.67 3.62-.57 185.61-183.43 196.16-197.11 3.91-5.06 4.24-5.91 3.22-8.15-1.54-3.4-4.95-4.56-8.33-2.83-4.28 2.19-22.58 19.39-62.74 58.99C451.32 318.68 362 409.79 362 411.44c0 1.9 3.95 6.59 6.39 7.59m-118.16 14.3c3.54 1.43 6.13.32 12.98-5.58 19.96-17.18 115.81-112.5 133.94-133.21 6.32-7.21 7.85-9.59 7.85-12.18 0-6.65-4.91-8.09-12.05-3.52C381.41 286.2 246 421.93 246 426.13c0 1.71 2.92 6.67 4.23 7.2m231.65 229.66c3.18 1.86 4.93.89 14.71-8.16C537.63 616.84 640 513.42 640 509.94c0-2.41-4.77-7.94-6.84-7.94-2.1.01-15.48 12.3-51.14 47-28.44 27.68-97.13 97.7-101.77 103.75-2.25 2.93-2.37 3.55-1.24 6.28.69 1.66 1.98 3.44 2.87 3.96m-312.84-58.92c1.47 2.75 4.92 2.39 10.15-1.07 7.13-4.73 39.84-36.11 68.87-66.08 2.19-2.26 4.25-4.39 6.2-6.39 25.9-26.72 30.74-31.71 29.75-34.91-.3-.97-1.13-1.78-2.08-2.99-2.83-3.59-5.86-3.32-11.6 1.02-17.41 13.15-78.14 73.41-96.86 96.11-5.62 6.81-6.65 10.16-4.43 14.31m140.71 137.77c3.93 1.43 4.36 1.38 8.25-.93 5.72-3.41 74.6-74.18 80.78-83 1.32-1.89 1.31-2.5-.12-5.49-2.21-4.64-5.7-5.39-9.92-2.15-1.78 1.37-13.44 12.22-25.91 24.1-24.87 23.7-52.38 52.51-55.27 57.9-2.39 4.43-1.52 8.21 2.19 9.57"/><path fill="#bae8f8" d="M210.59 760.79c5-2.71 116.17-112.55 318.08-314.28C669.46 305.84 718.02 256.73 718.55 254.5c.4-1.65 1.45-3.83 2.33-4.85 2.38-2.72 2.82-21.36.71-29.61-1.29-5.04-3.59-9.88-6.57-14.2 1.07 1.51 2.08 3.08 3 4.7 2.32 4.05 3.67 5.35 6.08 5.83 6.66 1.33 32.1 31.53 47.84 56.79 42.97 68.95 66.95 165.98 60.02 242.84-6.32 70.03-31.34 139.49-70.43 195.51-37.92 54.34-95.31 103.64-151.97 130.54-47.59 22.6-83.35 32.97-132.56 38.44-14.09 1.57-51.38 2.68-63.5 1.89-43.84-2.86-99.98-16.57-136.83-33.42-46.42-21.22-79.28-43.89-116.53-80.4-25.83-25.32-43.44-46.98-60.7-74.69-39.27-63.05-59.41-133.36-59.43-207.42-.03-72.13 17.43-138.09 52.92-199.95 40.05-69.82 98.19-124.18 172.57-161.33 19.76-9.87 28.64-13.53 48.77-20.09 40.59-13.24 74.79-18.37 122.23-18.33 46.97.03 84.64 5.91 125.7 19.63 38.49 12.86 81.89 36.22 112.8 60.72 9.86 7.81 14.75 12.76 18.31 18.51 1.62 2.63 4.5 5.22 7.96 7.17 2.54 1.43 5.09 3.4 7.52 5.77-4.86-4.63-10.57-7.98-16.37-9.27-1.61-.35-8.32-.65-14.92-.66-10.02-.02-12.74.31-16.5 2.03-3.35 1.54-19.76 17.08-64 60.6-99.79 98.16-367.86 367.36-423.04 424.82-21.24 22.11-24.3 26.52-25.27 36.37-.83 8.42.98 17.38 5.25 26.06 4.7 9.55 11.24 16.37 20.23 21.1l6.33 3.32 13.5-.23c10.37-.18 14.22-.62 16.59-1.9m288.54-188.54c5.36-4.5 108.75-106.42 124.81-123.05 4.1-4.23 14.45-14.42 23-22.63 16.49-15.83 54.77-54.02 59.19-59.07 1.45-1.65 3.97-4.21 5.6-5.69 6.49-5.89 8.02-21.14 3.02-30.12-3.5-6.29-9.32-8.92-18.85-8.51-7.44.31-7.72.42-13.17 5.08C677 333.15 524.71 484.77 494.16 516c-9.42 9.62-18.71 18.78-20.64 20.35-4.73 3.83-6.99 8.92-6.95 15.65.04 6.39 1.63 9.82 7.34 15.8 5.15 5.39 9.05 7.11 16.26 7.16 4.76.03 6.2-.4 8.96-2.71m-74.5-182.5c31.1-31.23 44.63-45.48 45.97-48.43 1.1-2.43 2.78-4.42 3.99-4.73 3.14-.82 28.99-25.42 66.44-63.23 37.64-38.01 39.06-39.55 42.5-46.02 4.39-8.24 2.76-19.76-3.79-26.98-3.22-3.53-10.17-5.95-16.05-5.58-9.26.59-9.98 1.24-95.26 86.59-73.92 73.97-114.29 115.43-118.18 121.37-2.3 3.52-1.87 14.12.79 19.34 2.59 5.07 3.24 5.78 8.48 9.2 3.47 2.27 5.06 2.61 12.52 2.66l8.53.06Zm71.55 286.66c3.97-2.01 22.14-19.61 81.55-78.98l76.45-76.4-.34-10.91c-.39-12.43-.72-13.08-9.54-18.77-4.25-2.74-6.18-3.35-10.56-3.35h-.64c-1.16 0-2.2-.01-3.22.1-8.27.83-15.84 8.6-86.22 79.26-40.61 40.78-75.21 76.11-76.89 78.52-2.88 4.15-3.01 4.74-2.49 11.63.8 10.57 2.97 14.05 11.78 18.9 6.21 3.41 13.38 3.41 20.12 0m-234.5-227.46c1.58-.58 36.98-35.18 80.57-78.74L420 292.5l-.01-7c0-9.28-1.39-13.83-5.67-18.57-4.53-5.01-10.56-6.92-19.54-6.2l-6.54.52-156.5 156.51.44 9.13c.5 10.51 1.63 12.69 9.26 17.86 7.29 4.95 14.32 6.41 20.24 4.2M184.9 619.03c2.58-.74 16.2-13.79 56.75-54.38 29.34-29.37 53.35-53.97 53.35-54.66 0-.7.74-1.81 1.65-2.48 1.2-.87 1.78-3.27 2.11-8.68.51-8.39-1.15-13.06-6.42-17.99-5.4-5.06-10.84-7.16-16.55-6.41-2.82.38-6.67 1.33-8.56 2.12-2.19.91-22.86 20.84-56.74 54.69-49.5 49.46-56.4 56.33-57.33 63.93-.15 1.23-.14 2.48-.14 3.93v.1c.04 8.88 4.21 15.9 11.48 19.31 3.48 1.63 15.46 1.94 20.4.52M321.4 756.6c4.76-1.98 4.72-1.94 50.54-46.69l41.56-40.58.3-8.42c.17-4.62.03-9.92-.31-11.77-.73-3.97-8.34-12.56-12.31-13.9-6.12-2.06-18.12-1.13-20.16 1.57-.29.38-3.67 3.25-7.52 6.38-6.29 5.12-62.25 60.84-73.65 73.36-6.47 7.09-8.85 12.19-8.85 18.95 0 8.29 3.9 14.68 12.04 19.7 4.88 3.01 13.03 3.63 18.36 1.4"/><path fill="none" d="M0 0h888v920H0Zm718.02 210.54c-.92-1.62-1.93-3.19-3-4.7a46.5 46.5 0 0 0-6.23-7.29c-2.43-2.37-4.98-4.34-7.52-5.77-3.46-1.95-6.34-4.54-7.96-7.17-3.56-5.75-8.45-10.7-18.31-18.51-30.91-24.5-74.31-47.86-112.8-60.72-41.06-13.72-78.73-19.6-125.7-19.63-47.44-.04-81.64 5.09-122.23 18.33-20.13 6.56-29.01 10.22-48.77 20.09-74.38 37.15-132.52 91.51-172.57 161.33-35.49 61.86-52.95 127.82-52.92 199.95.02 74.06 20.16 144.37 59.43 207.42 17.26 27.71 34.87 49.37 60.7 74.69 37.25 36.51 70.11 59.18 116.53 80.4 36.85 16.85 92.99 30.56 136.83 33.42 12.12.79 49.41-.32 63.5-1.89 49.21-5.47 84.97-15.84 132.56-38.44 56.66-26.9 114.05-76.2 151.97-130.54 39.09-56.02 64.11-125.48 70.43-195.51 6.93-76.86-17.05-173.89-60.02-242.84-15.74-25.26-41.18-55.46-47.84-56.79-2.41-.48-3.76-1.78-6.08-5.83"/><path fill="#eda337" d="M484.92 557.08c-1.6-1.61-2.92-3.85-2.92-4.98s2.72-5.2 6.03-9.06c10.8-12.55 86.55-89.45 133.56-135.6 57.8-56.74 73.37-71.44 75.62-71.44 3.09 0 5.79 3.65 5.79 7.83 0 3.56-1.01 4.89-14.69 19.25-8.07 8.48-39.68 40.81-70.25 71.83C549.16 504.87 492.66 560 489.87 560c-1.11 0-3.34-1.32-4.95-2.92M368.39 419.03c-2.44-1-6.39-5.69-6.39-7.59 0-1.65 89.32-92.76 138.08-140.84 40.16-39.6 58.46-56.8 62.74-58.99 3.38-1.73 6.79-.57 8.33 2.83 1.02 2.24.69 3.09-3.22 8.15-10.55 13.68-192.54 196.54-196.16 197.11-.7.11-2.22-.19-3.38-.67m-118.16 14.3c-1.31-.53-4.23-5.49-4.23-7.2 0-4.2 135.41-139.93 146.95-147.29 7.14-4.57 12.05-3.13 12.05 3.52 0 2.59-1.53 4.97-7.85 12.18-18.13 20.71-113.98 116.03-133.94 133.21-6.85 5.9-9.44 7.01-12.98 5.58m231.65 229.66c-.89-.52-2.18-2.3-2.87-3.96-1.13-2.73-1.01-3.35 1.24-6.28 4.64-6.05 73.33-76.07 101.77-103.75 35.66-34.7 49.04-46.99 51.14-47 2.07 0 6.84 5.53 6.84 7.94 0 3.48-102.37 106.9-143.41 144.89-9.78 9.05-11.53 10.02-14.71 8.16m-312.84-58.92c-2.22-4.15-1.19-7.5 4.43-14.31 18.72-22.7 79.45-82.96 96.86-96.11 5.74-4.34 8.77-4.61 11.6-1.02.95 1.21 1.78 2.02 2.08 2.99.99 3.2-3.85 8.19-29.75 34.91-1.95 2-4.01 4.13-6.2 6.39-29.03 29.97-61.74 61.35-68.87 66.08-5.23 3.46-8.68 3.82-10.15 1.07m140.71 137.77c-3.71-1.36-4.58-5.14-2.19-9.57 2.89-5.39 30.4-34.2 55.27-57.9 12.47-11.88 24.13-22.73 25.91-24.1 4.22-3.24 7.71-2.49 9.92 2.15 1.43 2.99 1.44 3.6.12 5.49-6.18 8.82-75.06 79.59-80.78 83-3.89 2.31-4.32 2.36-8.25.93"/><path fill="#f8db0f" d="M184.7 746.62c-5.46-2.04-11.15-6.03-14.09-9.88-4.38-5.75-5.61-10.02-5.61-19.51 0-8.18.23-9.21 3.12-13.76 5.29-8.34 474.12-476.76 495.78-495.34l5.4-4.63 8.74-.35c7.02-.27 9.61.04 13.15 1.61 6.44 2.85 11.35 7.61 14.52 14.06 2.35 4.79 2.79 6.94 2.79 13.75 0 9.97-.47 10.76-17.61 29.42-24.56 26.75-258.66 262-398.39 400.37-64.69 64.05-82.01 80.68-86 82.56-6.2 2.92-16.38 3.72-21.8 1.7"/></svg>