<svg width="80" height="80" viewBox="0 0 80 80" fill="none" xmlns="http://www.w3.org/2000/svg">
<g clip-path="url(#clip0_239_29)">
<path d="M0 40C0 50.6087 4.21427 60.7828 11.7157 68.2843C19.2172 75.7857 29.3913 80 40 80C50.6087 80 60.7828 75.7857 68.2843 68.2843C75.7857 60.7828 80 50.6087 80 40C80 29.3913 75.7857 19.2172 68.2843 11.7157C60.7828 4.21427 50.6087 0 40 0C29.3913 0 19.2172 4.21427 11.7157 11.7157C4.21427 19.2172 0 29.3913 0 40Z" fill="#CDF2FF"/>
<path d="M40.065 45.017C30.277 45.017 22.342 42.947 22.342 40.394V58.887C22.342 61.44 30.277 63.511 40.065 63.511C49.853 63.511 57.788 61.44 57.788 58.887V40.394C57.788 42.947 49.853 45.017 40.065 45.017Z" fill="#08C5EB"/>
<path d="M32.359 53.493V63.048C33.103 63.1427 33.8737 63.2237 34.671 63.291V51.182C34.3674 51.1818 34.0668 51.2414 33.7862 51.3574C33.5056 51.4734 33.2507 51.6436 33.036 51.8583C32.8213 52.0729 32.6509 52.3278 32.5348 52.6083C32.4186 52.8888 32.3589 53.1894 32.359 53.493ZM47.77 53.493V63.048C47.026 63.142 46.2557 63.223 45.459 63.291V51.182C45.7626 51.1819 46.0631 51.2416 46.3436 51.3577C46.624 51.4738 46.8788 51.644 47.0935 51.8586C47.3081 52.0732 47.4783 52.3281 47.5944 52.6085C47.7105 52.8889 47.7702 53.1895 47.77 53.493ZM40.065 45.017C30.277 45.017 22.342 42.947 22.342 40.394V42.706C22.342 45.259 30.277 47.329 40.065 47.329C40.5814 47.3279 41.0978 47.3213 41.614 47.309C41.6317 47.9337 41.8924 48.5268 42.3406 48.9623C42.7888 49.3978 43.3891 49.6413 44.014 49.641H46.908C47.5461 49.6408 48.1579 49.3872 48.609 48.936C49.0602 48.4849 49.3138 47.8731 49.314 47.235V46.644C54.391 45.831 57.79 44.374 57.79 42.706V40.394C57.788 42.947 49.853 45.017 40.065 45.017Z" fill="#00A4C5"/>
<path d="M16.178 52.7231C16.178 51.2331 16.724 49.7961 17.714 48.6831L22.342 43.4761V58.8871H18.487C17.8747 58.8868 17.2875 58.6435 16.8546 58.2105C16.4216 57.7775 16.1782 57.1904 16.178 56.5781V52.7231ZM63.948 52.7231C63.948 51.2331 63.402 49.7961 62.412 48.6831L57.784 43.4761V58.8871H61.639C62.2513 58.8868 62.8384 58.6435 63.2714 58.2105C63.7044 57.7775 63.9477 57.1904 63.948 56.5781V52.7231Z" fill="#0093B1" stroke="#574D41" stroke-linecap="round" stroke-linejoin="round"/>
<path d="M40.065 45.017C30.277 45.017 22.342 42.947 22.342 40.394V58.887C22.342 61.44 30.277 63.511 40.065 63.511C49.853 63.511 57.788 61.44 57.788 58.887V40.394C57.788 42.947 49.853 45.017 40.065 45.017Z" stroke="#574D41"/>
<path d="M40.065 10.342C29.277 10.342 22.342 25.753 22.342 30.377V35.771C22.342 38.324 30.277 40.394 40.065 40.394C49.853 40.394 57.788 38.324 57.788 35.771V30.377C57.788 25.753 50.853 10.342 40.065 10.342Z" fill="#08C5EB"/>
<path d="M40.065 10.342C29.277 10.342 22.342 25.753 22.342 30.377V33.459C22.342 28.836 29.277 13.425 40.065 13.425C50.853 13.425 57.788 28.836 57.788 33.459V30.377C57.788 25.753 50.853 10.342 40.065 10.342Z" fill="#00A4C5"/>
<path d="M40.065 10.342C29.277 10.342 22.342 25.753 22.342 30.377V35.771C22.342 38.324 30.277 40.394 40.065 40.394C49.853 40.394 57.788 38.324 57.788 35.771V30.377C57.788 25.753 50.853 10.342 40.065 10.342Z" stroke="#574D41" stroke-linecap="round" stroke-linejoin="round"/>
<path d="M38.524 23.8269C38.524 24.5419 38.686 25.2279 38.975 25.7339C39.264 26.2399 39.656 26.5239 40.065 26.5239C40.474 26.5239 40.865 26.2399 41.155 25.7339C41.444 25.2279 41.606 24.5419 41.606 23.8269C41.606 23.1119 41.444 22.4259 41.155 21.9199C40.866 21.4139 40.474 21.1299 40.065 21.1299C39.656 21.1299 39.265 21.4139 38.975 21.9199C38.686 22.4259 38.524 23.1119 38.524 23.8269Z" fill="#87898C"/>
<path d="M38.524 23.8269C38.524 24.5419 38.686 25.2279 38.975 25.7339C39.264 26.2399 39.656 26.5239 40.065 26.5239C40.474 26.5239 40.865 26.2399 41.155 25.7339C41.444 25.2279 41.606 24.5419 41.606 23.8269C41.606 23.1119 41.444 22.4259 41.155 21.9199C40.866 21.4139 40.474 21.1299 40.065 21.1299C39.656 21.1299 39.265 21.4139 38.975 21.9199C38.686 22.4259 38.524 23.1119 38.524 23.8269Z" stroke="#574D41" stroke-linecap="round" stroke-linejoin="round"/>
<path d="M33.163 24.2C32.863 25.658 31.938 26.7 31.104 26.526C30.27 26.352 29.842 25.026 30.145 23.572C30.448 22.118 31.37 21.072 32.203 21.245C33.036 21.418 33.466 22.739 33.163 24.2Z" fill="#87898C"/>
<path d="M33.163 24.2C32.863 25.658 31.938 26.7 31.104 26.526C30.27 26.352 29.842 25.026 30.145 23.572C30.448 22.118 31.37 21.072 32.203 21.245C33.036 21.418 33.466 22.739 33.163 24.2Z" stroke="#574D41" stroke-linecap="round" stroke-linejoin="round"/>
<path d="M46.9669 24.2C47.2669 25.658 48.192 26.7 49.026 26.526C49.86 26.352 50.2879 25.026 49.9849 23.572C49.6819 22.118 48.7599 21.072 47.9249 21.245C47.0919 21.418 46.6639 22.739 46.9669 24.2Z" fill="#87898C" stroke="#574D41" stroke-linecap="round" stroke-linejoin="round"/>
<path d="M22.342 35.771C22.342 38.324 30.277 40.394 40.065 40.394C49.853 40.394 57.788 38.324 57.788 35.771V40.394C57.788 42.947 49.853 45.017 40.065 45.017C30.277 45.017 22.342 42.947 22.342 40.394V35.771Z" fill="#87898C"/>
<path d="M40.065 40.394C30.277 40.394 22.342 38.324 22.342 35.771V37.312C22.342 39.865 30.277 41.935 40.065 41.935C49.853 41.935 57.788 39.865 57.788 37.312V35.771C57.788 38.324 49.853 40.394 40.065 40.394Z" fill="#87898C"/>
<path d="M22.342 35.771C22.342 38.324 30.277 40.394 40.065 40.394C49.853 40.394 57.788 38.324 57.788 35.771V40.394C57.788 42.947 49.853 45.017 40.065 45.017C30.277 45.017 22.342 42.947 22.342 40.394V35.771Z" stroke="#574D41" stroke-linecap="round" stroke-linejoin="round"/>
<path d="M47.77 45.786C47.7764 46.0936 47.7213 46.3994 47.608 46.6855C47.4947 46.9715 47.3255 47.2321 47.1102 47.4519C46.8949 47.6717 46.638 47.8463 46.3543 47.9655C46.0707 48.0847 45.7661 48.1461 45.4585 48.1461C45.1508 48.1461 44.8463 48.0847 44.5626 47.9655C44.279 47.8463 44.022 47.6717 43.8067 47.4519C43.5915 47.2321 43.4222 46.9715 43.3089 46.6855C43.1956 46.3994 43.1406 46.0936 43.147 45.786V38.8511C43.147 38.238 43.3905 37.6501 43.824 37.2166C44.2575 36.7831 44.8454 36.5396 45.4585 36.5396C46.0715 36.5396 46.6595 36.7831 47.093 37.2166C47.5265 37.6501 47.77 38.238 47.77 38.8511V45.786Z" fill="#C9F6FF" stroke="#574D41"/>
<path d="M45.459 51.9519V61.1999C45.459 61.9083 45.3195 62.6097 45.0484 63.2641C44.7773 63.9185 44.38 64.5132 43.8792 65.014C43.3783 65.5149 42.7836 65.9122 42.1292 66.1833C41.4748 66.4544 40.7734 66.5939 40.065 66.5939C39.3567 66.5939 38.6553 66.4544 38.0008 66.1833C37.3464 65.9122 36.7518 65.5149 36.2509 65.014C35.75 64.5132 35.3527 63.9185 35.0816 63.2641C34.8105 62.6097 34.671 61.9083 34.671 61.1999V51.9519" fill="#C9F6FF"/>
<path d="M45.459 51.9519V61.1999C45.459 61.9083 45.3195 62.6097 45.0484 63.2641C44.7773 63.9185 44.38 64.5132 43.8792 65.014C43.3783 65.5149 42.7836 65.9122 42.1292 66.1833C41.4748 66.4544 40.7734 66.5939 40.065 66.5939C39.3567 66.5939 38.6553 66.4544 38.0008 66.1833C37.3464 65.9122 36.7518 65.5149 36.2509 65.014C35.75 64.5132 35.3527 63.9185 35.0816 63.2641C34.8105 62.6097 34.671 61.9083 34.671 61.1999V51.9519" stroke="#574D41" stroke-linecap="round" stroke-linejoin="round"/>
<path d="M26.963 38.8761C25.278 29.5841 25.563 28.8541 23.883 28.8541C23.679 28.8498 23.4763 28.887 23.2871 28.9632C23.0979 29.0395 22.9261 29.1533 22.7821 29.2978C22.6381 29.4422 22.5248 29.6144 22.4492 29.8039C22.3735 29.9933 22.3371 30.1961 22.342 30.4001V35.7751C22.342 36.9681 24.1 38.0551 26.963 38.8761Z" fill="#87898C"/>
<path d="M23.883 31.1471C24.5425 31.1212 25.1899 31.3291 25.711 31.7341C25.223 29.1551 24.947 28.8541 23.883 28.8541C23.679 28.8498 23.4763 28.887 23.2871 28.9632C23.0979 29.0395 22.9261 29.1533 22.7821 29.2978C22.6381 29.4422 22.5248 29.6144 22.4492 29.8039C22.3735 29.9933 22.3371 30.1961 22.342 30.4001V32.6921C22.3372 32.4882 22.3738 32.2855 22.4495 32.0962C22.5252 31.9068 22.6385 31.7348 22.7825 31.5904C22.9265 31.446 23.0982 31.3323 23.2874 31.2561C23.4765 31.1799 23.6791 31.1428 23.883 31.1471Z" fill="#87898C"/>
<path d="M26.963 38.8761C25.278 29.5841 25.563 28.8541 23.883 28.8541C23.679 28.8498 23.4763 28.887 23.2871 28.9632C23.0979 29.0395 22.9261 29.1533 22.7821 29.2978C22.6381 29.4422 22.5248 29.6144 22.4492 29.8039C22.3735 29.9933 22.3371 30.1961 22.342 30.4001V35.7751C22.342 36.9681 24.1 38.0551 26.963 38.8761Z" stroke="#574D41" stroke-linecap="round" stroke-linejoin="round"/>
<path d="M53.167 38.8761C54.852 29.5841 54.567 28.8541 56.247 28.8541C56.4509 28.8498 56.6536 28.887 56.8429 28.9632C57.0321 29.0395 57.2039 29.1533 57.3479 29.2978C57.4919 29.4422 57.6052 29.6144 57.6808 29.8039C57.7564 29.9933 57.7929 30.1961 57.788 30.4001V35.7751C57.788 36.9681 56.029 38.0551 53.167 38.8761Z" fill="#87898C"/>
<path d="M56.2469 31.1471C55.5875 31.1212 54.9401 31.3291 54.4189 31.7341C54.9069 29.1551 55.1829 28.8541 56.2469 28.8541C56.4508 28.85 56.6534 28.8872 56.8425 28.9635C57.0316 29.0398 57.2033 29.1536 57.3472 29.2981C57.4911 29.4426 57.6043 29.6147 57.6798 29.8041C57.7554 29.9935 57.7918 30.1962 57.7869 30.4001V32.6921C57.7921 32.4882 57.7559 32.2854 57.6804 32.0959C57.6049 31.9064 57.4918 31.7343 57.3478 31.5898C57.2038 31.4454 57.032 31.3316 56.8428 31.2555C56.6535 31.1794 56.4508 31.1425 56.2469 31.1471Z" fill="#87898C"/>
<path d="M53.167 38.8761C54.852 29.5841 54.567 28.8541 56.247 28.8541C56.4509 28.8498 56.6536 28.887 56.8429 28.9632C57.0321 29.0395 57.2039 29.1533 57.3479 29.2978C57.4919 29.4422 57.6052 29.6144 57.6808 29.8039C57.7564 29.9933 57.7929 30.1961 57.788 30.4001V35.7751C57.788 36.9681 56.029 38.0551 53.167 38.8761Z" stroke="#574D41" stroke-linecap="round" stroke-linejoin="round"/>
</g>
<defs>
<clipPath id="clip0_239_29">
<rect width="80" height="80" fill="white"/>
</clipPath>
</defs>
</svg>