<svg xmlns="http://www.w3.org/2000/svg" width="80" height="80" viewBox="38 49 850 850"><path fill="#0d8c47" d="M331.23 631.22c-1 .84-6.95 1.36-18.26 1.62l-16.78.39-1.65-2.53c-1.47-2.24-1.72-8.59-2.26-56.1-.56-50.09-.72-53.69-2.42-55.23-4.08-3.69-45.19-4.38-56.46-.94l-5.1 1.56-.73 43.75c-.77 46.69-1.56 58.48-4.09 61.28-2.27 2.51-7.16 3-22.69 2.3l-13.79-.63V477l3.75-.02c14.8-.1 38.32-2.03 41.82-3.42 6.76-2.71 6.89-3.25 7.26-29.66l.33-23.6 20.67-.63c20.98-.64 27.4-1.47 29.77-3.85 1.66-1.65 3.05-14.41 3.92-35.92l.68-16.6 19.15-.68c21.16-.76 26.01-1.61 27.86-4.9.87-1.55 1.36-9.74 1.62-27.09l.38-24.87 17.64.48c18.47.5 20.75.88 21.58 3.6.28.91 1.19 11.48 2.02 23.48.86 12.48 2.06 22.98 2.79 24.5 1.21 2.53 1.8 2.72 10.77 3.45 5.22.42 37.16.65 70.99.5 55.87-.25 61.79-.43 64.63-1.98 1.72-.95 3.47-2.52 3.89-3.5.42-.99 1.09-11.79 1.48-24 .89-27.4.64-26.8 11.66-27.84 7.64-.71 23.61-.05 26.63 1.11 2.09.8 3.4 9.7 4.62 31.47 1.06 18.82 1.35 20.42 3.92 21.55.92.41 10.22 1.06 20.67 1.45s19.76 1.03 20.68 1.42c2.93 1.24 3.82 6.43 3.84 22.45.02 17.22 1.12 27.38 3.17 29.44 3.57 3.56 6.4 4.09 24.99 4.66 12.45.38 18.71.33 21.94 3.44 3.49 3.35 3.46 10.38 3.9 25.56.39 13.3 1.05 21.4 1.86 23.05 2.43 4.93 4.23 5.35 25.62 5.96 12.44.36 20.81 1.02 22.13 1.75 1.2.67 2.41 2.62 2.77 4.46.35 1.81.91 28.93 1.24 60.28.75 72.26-.08 81.82-7.4 84.6-1.68.64-8.28.75-17.83.32l-15.18-.7-.62-33.11c-.35-18.21-.9-42.45-1.24-53.87l-.6-20.76-2.64-.74c-3.49-.98-45.08-.91-52.27.09-9.22 1.28-8.81.26-9.87 24.68-.51 11.82-.94 35.92-.96 53.55-.02 26.05-.3 32.42-1.45 34-1.28 1.76-2.91 1.96-17.75 2.21-11.89.2-17.01-.08-18.83-1.03l-2.5-1.3-.5-24.8-.5-24.81-3.15-2.81c-2.97-2.65-3.84-2.85-15.5-3.5-6.79-.38-60.5-.51-119.35-.29-81.82.32-107.9.71-110.83 1.66-6.19 2.02-6.84 4.78-7.44 31.36-.42 18.44-.8 22.98-2 23.97m28.8-154.82c17.82 4.79 35.21-3.01 42.8-19.2 2.35-5.02 2.66-6.9 2.63-15.7-.05-11.67-1.93-16.71-8.91-23.89-8.87-9.14-19.5-12.71-31.99-10.76-13.41 2.08-21.62 7.91-26.97 19.15-2.76 5.81-3.08 7.46-3.04 15.5.03 7.56.47 9.92 2.68 14.74 5.16 11.18 12.04 17.27 22.8 20.16m203.83 210.63c-13.88.9-50.24 1.08-56.36.28-9.82-1.28-10.8-3.5-10.84-24.42-.03-13.49.22-16.2 1.61-17.59 2.32-2.32 16.01-3.18 51.95-3.24l29.73-.06 1.72 3.25c3.74 7.04 2.56 35.42-1.63 39.22-1.38 1.24-5.24 1.85-16.18 2.56M546.5 475.66c5.67 1.89 15.3.97 21.73-2.08 11.75-5.57 21.32-19.58 21.22-31.06-.08-8.31-5.15-20.19-11.37-26.6-5.79-5.99-10.21-7.31-24.58-7.37-10.22-.05-11.33.14-15.63 2.67-13.02 7.66-19.73 22.33-16.98 37.15 2.52 13.61 10.71 22.33 25.61 27.29M422.83 682.6c-1.47 1.47-5.38 1.7-33.5 1.96-17.51.17-34.19-.02-37.07-.41-8.56-1.15-8.76-1.61-8.76-20.65 0-14.44.22-16.64 1.79-18.21 1.65-1.65 4.61-1.79 39.2-1.79 29.4 0 37.69.28 38.71 1.3.97.97 1.3 5.77 1.3 18.72 0 14.92-.24 17.65-1.67 19.08m207.14-390.08c-1.49.92-29.75 1.46-34.47.66l-4-.68-.27-19.11c-.23-16.47-.05-19.29 1.32-20.43 1.12-.93 6.42-1.45 17.89-1.77 1.33-.03 2.58-.07 3.74-.11 8.16-.26 12.38-.4 14.56 1.65 2.32 2.18 2.31 6.87 2.27 16.57 0 1.29-.01 2.67-.01 4.14 0 11.55-.38 18.68-1.03 19.08M331.2 291.2c-.93.93-6.02 1.4-18.02 1.65-1.19.02-2.32.05-3.39.07-9.32.22-13.91.33-16.16-1.91-2.18-2.17-2.16-6.55-2.14-15.16.01-1.02.01-2.1.01-3.24 0-1.15 0-2.23-.01-3.26-.02-8.9-.04-13.38 2.2-15.63 2.25-2.27 6.81-2.25 15.97-2.23 1.05.01 2.15.01 3.32.01 12.55 0 17.26.34 18.22 1.3 1.86 1.86 1.86 36.54 0 38.4"/><path fill="#345037" d="M331.23 631.22c1.2-.99 1.58-5.53 2-23.97.6-26.58 1.25-29.34 7.44-31.36 2.93-.95 29.01-1.34 110.83-1.66 58.85-.22 112.56-.09 119.35.29 11.66.65 12.53.85 15.5 3.5l3.15 2.81.5 24.81.5 24.8 2.5 1.3c1.82.95 6.94 1.23 18.83 1.03 14.84-.25 16.47-.45 17.75-2.21 1.15-1.58 1.43-7.95 1.45-34 .02-17.63.45-41.73.96-53.55 1.06-24.42.65-23.4 9.87-24.68 7.19-1 48.78-1.07 52.27-.09l2.64.74.6 20.76c.34 11.42.89 35.66 1.24 53.87l.62 33.11 15.18.7c9.55.43 16.15.32 17.83-.32 7.32-2.78 8.15-12.34 7.4-84.6-.33-31.35-.89-58.47-1.24-60.28-.36-1.84-1.57-3.79-2.77-4.46-1.32-.73-9.69-1.39-22.13-1.75-21.39-.61-23.19-1.03-25.62-5.96-.81-1.65-1.47-9.75-1.86-23.05-.44-15.18-.41-22.21-3.9-25.56-1.46-1.41-3.54-2.17-6.54-2.61 3.52.39 5.17.96 7.15 1.99 2.57 1.34 4.43 3.08 4.72 4.44.27 1.23.65 10.57.84 20.74s.71 19.3 1.15 20.29c1.87 4.15 6.14 5.08 26.58 5.75 11.67.38 20.38 1.11 21.68 1.8 1.53.82 2.42 2.59 2.99 5.91 1.04 6.08 1 125.96-.05 137.31-.43 4.71-1.18 9.2-1.67 9.98-1.18 1.92-13.22 2.73-30.09 2.02l-13.38-.56-.72-42.5c-.84-49.08-1.69-61.73-4.27-63.61-.95-.7-4.19-1.58-7.19-1.96-6.97-.87-38.86.09-42.82 1.29-5.82 1.76-5.84 1.95-6.52 57.28-.41 32.91-1.01 51.41-1.72 53.1-1.37 3.26-5.27 3.9-23.75 3.9-14.87 0-19.16-1.01-20.7-4.87-.58-1.45-1.26-11.85-1.51-23.13-.54-24.32-1.02-26.55-6.09-27.95-5.78-1.6-103.71-3.23-172.21-2.88-57.51.3-62.76.47-65.74 2.1-1.78.97-3.44 2.77-3.69 4-1.2 5.88-1.62 10.72-2.55 29.68-.56 11.24-1.36 20.79-1.79 21.22-.91.91-35.55 1.95-39.23 1.18-1.38-.28-2.95-.95-3.5-1.48-.63-.61-1.21-20.1-1.56-52.17-.63-57.81-.58-57.39-7.65-60.36-3.19-1.34-7.03-1.51-24.29-1.09-20.93.51-25.1 1.2-26.55 4.42-.46 1.01-1.09 23.68-1.4 50.39-.51 42.95-.76 48.86-2.23 51.1-1.48 2.26-2.54 2.6-9.74 3.15-8.96.7-33.16-.17-34.32-1.22-1.21-1.1-1.15-148.18.06-151.24.58-1.46 1.58-2.98 2.23-3.38s10.1-1.05 21.01-1.45c22.38-.81 24.14-1.34 25.88-7.8.56-2.09 1.47-11.42 2.03-20.76 1.32-22.19 1.75-25.12 3.83-26 .93-.39 10.53-1.02 21.32-1.38 28.77-.99 28.02-.18 28.97-30.98.37-11.88.98-22.35 1.37-23.27.38-.92 1.45-1.99 2.37-2.38s10.3-1 20.86-1.35c18.47-.61 19.28-.72 21.75-3.04 3.87-3.64 4.55-7.85 4.55-28.16.01-19.01.79-24.19 3.83-25.41 2.89-1.17 21.41-1.79 30.49-1.03 5.29.44 8.39.49 10.27 2.04 2.92 2.41 2.86 8.42 3.37 25.06.75 24.5 1.2 26.73 5.86 28.64 3.67 1.51 57.42 2.07 102.69 1.09l36-.79.7-10c.39-5.5 1.13-16.69 1.65-24.87.71-11.01 1.35-15.26 2.48-16.39 1.24-1.24 4.22-1.5 15.85-1.4 8.86.08 15.2.34 19.65.85-6.2-.56-15.77-.74-21.17-.24-11.02 1.04-10.77.44-11.66 27.84-.39 12.21-1.06 23.01-1.48 24-.42.98-2.17 2.55-3.89 3.5-2.84 1.55-8.76 1.73-64.63 1.98-33.83.15-65.77-.08-70.99-.5-8.97-.73-9.56-.92-10.77-3.45-.73-1.52-1.93-12.02-2.79-24.5-.83-12-1.74-22.57-2.02-23.48-.83-2.72-3.11-3.1-21.58-3.6l-17.64-.48-.38 24.87c-.26 17.35-.75 25.54-1.62 27.09-1.85 3.29-6.7 4.14-27.86 4.9l-19.15.68-.68 16.6c-.87 21.51-2.26 34.27-3.92 35.92-2.37 2.38-8.79 3.21-29.77 3.85l-20.67.63-.33 23.6c-.37 26.41-.5 26.95-7.26 29.66-3.5 1.39-27.02 3.32-41.82 3.42L187 477v149.69l13.79.63c15.53.7 20.42.21 22.69-2.3 2.53-2.8 3.32-14.59 4.09-61.28l.73-43.75 5.1-1.56c11.27-3.44 52.38-2.75 56.46.94 1.7 1.54 1.86 5.14 2.42 55.23.54 47.51.79 53.86 2.26 56.1l1.65 2.53 16.78-.39c11.31-.26 17.26-.78 18.26-1.62m92.86 55.06c-3.14 1.36-61.95 1.93-72.96.72-4.24-.47-6.79-.67-8.33-2.03-2.3-2.04-2.3-6.69-2.3-18.8v-1.46c0-20.61.42-22.18 6.26-23.42 2.06-.43 19.72-.79 39.24-.79 39.17 0 40.51.19 42.29 6 .51 1.65.99 9.53 1.07 17.5.16 16.11-.85 20.39-5.27 22.28M360.03 476.4c-10.76-2.89-17.64-8.98-22.8-20.16-2.21-4.82-2.65-7.18-2.68-14.74-.04-8.04.28-9.69 3.04-15.5 5.35-11.24 13.56-17.07 26.97-19.15 12.49-1.95 23.12 1.62 31.99 10.76 6.98 7.18 8.86 12.22 8.91 23.89.03 8.8-.28 10.68-2.63 15.7-7.59 16.19-24.98 23.99-42.8 19.2m62.8 206.2c1.43-1.43 1.67-4.16 1.67-19.08 0-12.95-.33-17.75-1.3-18.72-1.02-1.02-9.31-1.3-38.71-1.3-34.59 0-37.55.14-39.2 1.79-1.57 1.57-1.79 3.77-1.79 18.21 0 19.04.2 19.5 8.76 20.65 2.88.39 19.56.58 37.07.41 28.12-.26 32.03-.49 33.5-1.96M359 472.51c6.87 2.24 17.29 1.42 23.78-1.89 11.07-5.63 17.29-15.18 18.02-27.65.38-6.64.11-8.29-2.16-13.08-3.13-6.61-9.93-13.95-15.82-17.06-3.6-1.9-5.9-2.28-13.82-2.3-8.42-.03-10.15.29-15.22 2.78-11.55 5.67-16.34 15.09-15.6 30.66.36 7.35.88 9.48 3.47 14.1 3.52 6.26 10.75 12.28 17.35 14.44m-32.5-176.49c-8.24 1.33-29.23 1.13-33.5-.33l-3.5-1.19-.79-16.5c-.44-9.08-.52-18.86-.18-21.75.34-2.92.54-4.83 1.56-6.08 1.96-2.4 6.98-2.31 21.91-2.02l.65.01c13.49.25 20.68.77 21.44 1.53s1.33 8 1.66 20.98c.6 23.61.55 23.76-9.25 25.35m304.36-.95c-2.54 1.36-33.23 2.16-37.81.99-3.84-.99-6.06-3.39-6.02-6.5.15-10.63 2.07-39.05 2.69-39.64.43-.41 10.04-1.07 21.36-1.46l20.57-.71 1.43 3.37c1 2.39 1.41 7.48 1.4 17.38-.03 18.12-.99 25.16-3.62 26.57m-.89-2.55c.65-.4 1.03-7.53 1.03-19.08 0-1.47.01-2.85.01-4.14.04-9.7.05-14.39-2.27-16.57-2.18-2.05-6.4-1.91-14.56-1.65-1.16.04-2.41.08-3.74.11-11.47.32-16.77.84-17.89 1.77-1.37 1.14-1.55 3.96-1.32 20.43l.27 19.11 4 .68c4.72.8 32.98.26 34.47-.66M331.2 291.2c1.86-1.86 1.86-36.54 0-38.4-.96-.96-5.67-1.3-18.22-1.3-1.17 0-2.27 0-3.32-.01-9.16-.02-13.72-.04-15.97 2.23-2.24 2.25-2.22 6.73-2.2 15.63.01 1.03.01 2.11.01 3.26 0 1.14 0 2.22-.01 3.24-.02 8.61-.04 12.99 2.14 15.16 2.25 2.24 6.84 2.13 16.16 1.91 1.07-.02 2.2-.05 3.39-.07 12-.25 17.09-.72 18.02-1.65m248.88 17.77c1.14 4.3 1.99 13.03 2.83 28.06-.83-14.8-1.7-23.65-2.83-28.06"/><path fill="#433c34" d="M437.74 698.22c-1.72.98-12.82 1.31-47.74 1.41-47.43.13-57.03-.26-59.2-2.43-.97-.97-1.39-7.2-1.64-24.6l-.34-23.3-18.57-.69c-22.91-.85-27.06-1.38-28.26-3.62-1.02-1.92-2.96-61.61-2.98-91.76l-.01-19.28-2.57-.97c-1.41-.54-9.73-.98-18.5-.98H242v40.75c-.01 22.41-.3 46.45-.65 53.41-.63 12.34-.71 12.69-3.25 13.97-1.93.98-10.46 1.41-33.23 1.67l-30.62.35-1.25-3.32c-2-5.33-3.54-96.92-2.32-138.33.55-18.7 1.33-34.75 1.73-35.66 1.37-3.1 6.23-3.95 26.94-4.69 17.23-.62 20.95-1.02 22.33-2.4s1.79-5.23 2.46-23.45c.95-25.63 1.19-27.09 4.58-28.38 1.4-.54 12.16-1.32 23.93-1.75 17.94-.65 21.65-1.04 23.05-2.44 1.41-1.41 1.78-5.15 2.41-24.21.81-24.87 1.24-28.18 3.72-28.97 2.57-.81 24.7-2.51 33.17-2.55.97 0 1.85 0 2.67.01 3.98.02 6.28.04 7.6-1.09 1.79-1.53 1.78-5.18 1.74-13.79 0-1.3-.01-2.71-.01-4.25V309l-9.25-.05c-5.09-.03-15.24-.41-22.57-.85-17.84-1.06-17.24-.43-18.26-19.32-1.1-20.29.12-47.25 2.25-49.38 2.32-2.32 22.52-3.7 42.83-2.92 20.01.76 23.68 1.27 24.54 3.39.37.9 1.02 11.46 1.46 23.48.46 12.5 1.23 22.28 1.82 22.87 1.52 1.52 14.71 2.66 31.41 2.73 14.52.05 14.75.08 16.34 2.52 1.31 2 1.76 6.95 2.39 26.09.73 22.34.89 23.74 2.94 25.78l2.16 2.16h58.39c32.11 0 58.73-.35 59.15-.77s1.06-11 1.41-23.51c.72-25.31 1.25-27.6 6.99-30.47 2.88-1.44 6.26-1.75 19-1.76 8.53 0 17.86-.29 20.75-.64l5.25-.63.05-17.61c.06-20.33 1.01-30.91 2.88-32.07 3.74-2.31 63.42-2.3 67.16.02 1.71 1.05 2.5 29 1.42 50.56-.46 9.24-.29 13.93-2.55 16.38-2.68 2.91-8.78 2.66-23.41 3.09-14.62.43-22.06 1.02-22.86 1.82-.79.79-1.31 6.78-1.54 17.99l-.35 16.8 4.74.65c2.61.36 10.41.69 17.35.73 14.59.1 23.64 1.05 25.24 2.65.72.72 1.39 9.86 1.87 25.79.71 23.15.88 24.81 2.84 26.77 1.94 1.94 3.63 2.13 24.24 2.8 17.39.56 22.47 1.03 23.62 2.18 1.99 1.99 3.23 12.64 3.28 28.23.05 18.16.79 23.46 3.42 24.56 1.15.48 11.55 1.27 23.1 1.76 22.39.93 25.39 1.59 27.58 6.04 1.88 3.8 2.38 65.14 1.02 123.61-1.03 44.33-1.2 47.08-3.03 48.91-1.71 1.71-4.1 2.03-20.26 2.73-23.71 1.03-42.23.18-45.01-2.07-2.94-2.38-3.68-11.99-3.75-48.54-.03-17.05-.35-37.44-.71-45.32l-.66-14.31-15.81.31c-13.33.27-16.07.59-17.52 2.04-1.56 1.56-1.78 6.52-2.38 55-.36 29.3-.99 54.03-1.39 54.95-.41.92-1.43 1.94-2.29 2.27-.85.33-11.05 1.09-22.67 1.69s-21.42 1.38-21.78 1.73-1.07 10.49-1.56 22.53l-.9 21.89-2.62 2.25c-2.31 1.99-4.19 2.35-15.44 3-17.63 1.02-87.11-.03-90.49-1.36-2.31-.92-2.78-1.85-3.46-6.87-.43-3.19-.77-16.15-.75-28.8.04-18.61.37-24.1 1.74-28.75l1.7-5.75h88.1l-.33-18.92c-.18-10.4-.59-19.17-.9-19.49-1.1-1.1-217.28-.87-220.06.23-3.83 1.52-5.28 8.55-4.62 22.43.06 1.33.09 2.54.12 3.65.1 3.77.16 6.31 1.38 8.04 2.87 4.09 12.18 3.65 43.5 4.18 22.14.38 41.48 1 42.99 1.39 4.5 1.15 5.15 5.63 5.21 35.49.03 14.58-.29 27.72-.71 29.22s-1.77 3.3-3 4m142.34-389.25c-.53-2.07-1.12-3.16-1.79-3.41-.89-.34-2.88-.64-5.46-.87-4.45-.51-10.79-.77-19.65-.85-11.63-.1-14.61.16-15.85 1.4-1.13 1.13-1.77 5.38-2.48 16.39-.52 8.18-1.26 19.37-1.65 24.87l-.7 10-36 .79c-45.27.98-99.02.42-102.69-1.09-4.66-1.91-5.11-4.14-5.86-28.64-.51-16.64-.45-22.65-3.37-25.06-1.88-1.55-4.98-1.6-10.27-2.04-9.08-.76-27.6-.14-30.49 1.03-3.04 1.22-3.82 6.4-3.83 25.41 0 20.31-.68 24.52-4.55 28.16-2.47 2.32-3.28 2.43-21.75 3.04-10.56.35-19.94.96-20.86 1.35s-1.99 1.46-2.37 2.38c-.39.92-1 11.39-1.37 23.27-.95 30.8-.2 29.99-28.97 30.98-10.79.36-20.39.99-21.32 1.38-2.08.88-2.51 3.81-3.83 26-.56 9.34-1.47 18.67-2.03 20.76-1.74 6.46-3.5 6.99-25.88 7.8-10.91.4-20.36 1.05-21.01 1.45s-1.65 1.92-2.23 3.38c-1.21 3.06-1.27 150.14-.06 151.24 1.16 1.05 25.36 1.92 34.32 1.22 7.2-.55 8.26-.89 9.74-3.15 1.47-2.24 1.72-8.15 2.23-51.1.31-26.71.94-49.38 1.4-50.39 1.45-3.22 5.62-3.91 26.55-4.42 17.26-.42 21.1-.25 24.29 1.09 7.07 2.97 7.02 2.55 7.65 60.36.35 32.07.93 51.56 1.56 52.17.55.53 2.12 1.2 3.5 1.48 3.68.77 38.32-.27 39.23-1.18.43-.43 1.23-9.98 1.79-21.22.93-18.96 1.35-23.8 2.55-29.68.25-1.23 1.91-3.03 3.69-4 2.98-1.63 8.23-1.8 65.74-2.1 68.5-.35 166.43 1.28 172.21 2.88 5.07 1.4 5.55 3.63 6.09 27.95.25 11.28.93 21.68 1.51 23.13 1.54 3.86 5.83 4.87 20.7 4.87 18.48 0 22.38-.64 23.75-3.9.71-1.69 1.31-20.19 1.72-53.1.68-55.33.7-55.52 6.52-57.28 3.96-1.2 35.85-2.16 42.82-1.29 3 .38 6.24 1.26 7.19 1.96 2.58 1.88 3.43 14.53 4.27 63.61l.72 42.5 13.38.56c16.87.71 28.91-.1 30.09-2.02.49-.78 1.24-5.27 1.67-9.98 1.05-11.35 1.09-131.23.05-137.31-.57-3.32-1.46-5.09-2.99-5.91-1.3-.69-10.01-1.42-21.68-1.8-20.44-.67-24.71-1.6-26.58-5.75-.44-.99-.96-10.12-1.15-20.29s-.57-19.51-.84-20.74c-.29-1.36-2.15-3.1-4.72-4.44-1.98-1.03-3.63-1.6-7.15-1.99-3.62-.54-8.58-.63-15.4-.83-18.59-.57-21.42-1.1-24.99-4.66-2.05-2.06-3.15-12.22-3.17-29.44-.02-16.02-.91-21.21-3.84-22.45-.92-.39-10.23-1.03-20.68-1.42s-19.75-1.04-20.67-1.45c-2.57-1.13-2.86-2.73-3.92-21.55-.84-15.03-1.69-23.76-2.83-28.06M424.09 686.28c4.42-1.89 5.43-6.17 5.27-22.28-.08-7.97-.56-15.85-1.07-17.5-1.78-5.81-3.12-6-42.29-6-19.52 0-37.18.36-39.24.79-5.84 1.24-6.26 2.81-6.26 23.42v1.46c0 12.11 0 16.76 2.3 18.8 1.54 1.36 4.09 1.56 8.33 2.03 11.01 1.21 69.82.64 72.96-.72m139.77.75c10.94-.71 14.8-1.32 16.18-2.56 4.19-3.8 5.37-32.18 1.63-39.22l-1.72-3.25-29.73.06c-35.94.06-49.63.92-51.95 3.24-1.39 1.39-1.64 4.1-1.61 17.59.04 20.92 1.02 23.14 10.84 24.42 6.12.8 42.48.62 56.36-.28M546.5 475.66c-14.9-4.96-23.09-13.68-25.61-27.29-2.75-14.82 3.96-29.49 16.98-37.15 4.3-2.53 5.41-2.72 15.63-2.67 14.37.06 18.79 1.38 24.58 7.37 6.22 6.41 11.29 18.29 11.37 26.6.1 11.48-9.47 25.49-21.22 31.06-6.43 3.05-16.06 3.97-21.73 2.08M359 472.51c-6.6-2.16-13.83-8.18-17.35-14.44-2.59-4.62-3.11-6.75-3.47-14.1-.74-15.57 4.05-24.99 15.6-30.66 5.07-2.49 6.8-2.81 15.22-2.78 7.92.02 10.22.4 13.82 2.3 5.89 3.11 12.69 10.45 15.82 17.06 2.27 4.79 2.54 6.44 2.16 13.08-.73 12.47-6.95 22.02-18.02 27.65-6.49 3.31-16.91 4.13-23.78 1.89m-32.5-176.49c9.8-1.59 9.85-1.74 9.25-25.35-.33-12.98-.9-20.22-1.66-20.98s-7.95-1.28-21.44-1.53l-.65-.01c-14.93-.29-19.95-.38-21.91 2.02-1.02 1.25-1.22 3.16-1.56 6.08-.34 2.89-.26 12.67.18 21.75l.79 16.5 3.5 1.19c4.27 1.46 25.26 1.66 33.5.33m304.36-.95c2.63-1.41 3.59-8.45 3.62-26.57.01-9.9-.4-14.99-1.4-17.38l-1.43-3.37-20.57.71c-11.32.39-20.93 1.05-21.36 1.46-.62.59-2.54 29.01-2.69 39.64-.04 3.11 2.18 5.51 6.02 6.5 4.58 1.17 35.27.37 37.81-.99M363.5 461.79c4.17 1.46 5.41 1.43 11.35-.34 9.4-2.79 16.13-11.43 16.14-20.74.02-8.25-11.63-19.7-20.06-19.71-6.04 0-12.29 2.77-16.96 7.53-4.08 4.16-4.4 4.88-4.78 10.79-.34 5.32.01 7.14 2.19 11.44 2.7 5.33 7 9.24 12.12 11.03m185-.21c4.59 2.05 8.62 1.69 14.57-1.33 8.98-4.55 14.62-15.68 12.14-23.96-1.57-5.23-7.25-11.65-12.59-14.23-3.81-1.85-4.99-1.99-9.1-1.06-6.18 1.38-9.34 3.1-13.15 7.16-4.42 4.71-5.6 7.44-5.6 12.94 0 7.13 6.89 17.42 13.73 20.48"/><path fill="#bae8f8" d="M506.45 864.56c-16.49 1.83-66.73 2.71-80.45 1.41-44.91-4.26-98.06-19.33-137-38.83-58.7-29.41-114.93-78.03-154.28-133.4-23.94-33.7-45.83-78.96-56.19-116.24-11.35-40.81-15.16-72.19-14.24-117.43.91-44.89 6.5-80.72 17.78-114.07 20.74-61.31 51.78-112.45 94.87-156.34 29.32-29.85 56.12-50.72 89.47-69.66 119.77-67.99 272.57-67.58 392.09 1.06 82.57 47.42 150.49 129.35 180.09 217.27 25.08 74.46 27.52 157.58 6.92 235.17-17.05 64.2-53.09 124.98-105 177.06-64.66 64.89-145.3 104.17-234.06 114m-68.71-166.34c1.23-.7 2.58-2.5 3-4s.74-14.64.71-29.22c-.06-29.86-.71-34.34-5.21-35.49-1.51-.39-20.85-1.01-42.99-1.39-31.32-.53-40.63-.09-43.5-4.18-1.22-1.73-1.28-4.27-1.38-8.04-.03-1.11-.06-2.32-.12-3.65-.66-13.88.79-20.91 4.62-22.43 2.78-1.1 218.96-1.33 220.06-.23.31.32.72 9.09.9 19.49l.33 18.92h-88.1l-1.7 5.75c-1.37 4.65-1.7 10.14-1.74 28.75-.02 12.65.32 25.61.75 28.8.68 5.02 1.15 5.95 3.46 6.87 3.38 1.33 72.86 2.38 90.49 1.36 11.25-.65 13.13-1.01 15.44-3l2.62-2.25.9-21.89c.49-12.04 1.2-22.18 1.56-22.53s10.16-1.13 21.78-1.73 21.82-1.36 22.67-1.69c.86-.33 1.88-1.35 2.29-2.27.4-.92 1.03-25.65 1.39-54.95.6-48.48.82-53.44 2.38-55 1.45-1.45 4.19-1.77 17.52-2.04l15.81-.31.66 14.31c.36 7.88.68 28.27.71 45.32.07 36.55.81 46.16 3.75 48.54 2.78 2.25 21.3 3.1 45.01 2.07 16.16-.7 18.55-1.02 20.26-2.73 1.83-1.83 2-4.58 3.03-48.91 1.36-58.47.86-119.81-1.02-123.61-2.19-4.45-5.19-5.11-27.58-6.04-11.55-.49-21.95-1.28-23.1-1.76-2.63-1.1-3.37-6.4-3.42-24.56-.05-15.59-1.29-26.24-3.28-28.23-1.15-1.15-6.23-1.62-23.62-2.18-20.61-.67-22.3-.86-24.24-2.8-1.96-1.96-2.13-3.62-2.84-26.77-.48-15.93-1.15-25.07-1.87-25.79-1.6-1.6-10.65-2.55-25.24-2.65-6.94-.04-14.74-.37-17.35-.73l-4.74-.65.35-16.8c.23-11.21.75-17.2 1.54-17.99.8-.8 8.24-1.39 22.86-1.82 14.63-.43 20.73-.18 23.41-3.09 2.26-2.45 2.09-7.14 2.55-16.38 1.08-21.56.29-49.51-1.42-50.56-3.74-2.32-63.42-2.33-67.16-.02-1.87 1.16-2.82 11.74-2.88 32.07l-.05 17.61-5.25.63c-2.89.35-12.22.64-20.75.64-12.74.01-16.12.32-19 1.76-5.74 2.87-6.27 5.16-6.99 30.47-.35 12.51-.99 23.09-1.41 23.51s-27.04.77-59.15.77h-58.39l-2.16-2.16c-2.05-2.04-2.21-3.44-2.94-25.78-.63-19.14-1.08-24.09-2.39-26.09-1.59-2.44-1.82-2.47-16.34-2.52-16.7-.07-29.89-1.21-31.41-2.73-.59-.59-1.36-10.37-1.82-22.87-.44-12.02-1.09-22.58-1.46-23.48-.86-2.12-4.53-2.63-24.54-3.39-20.31-.78-40.51.6-42.83 2.92-2.13 2.13-3.35 29.09-2.25 49.38 1.02 18.89.42 18.26 18.26 19.32 7.33.44 17.48.82 22.57.85l9.25.05v17.88c0 1.54.01 2.95.01 4.25.04 8.61.05 12.26-1.74 13.79-1.32 1.13-3.62 1.11-7.6 1.09-.82-.01-1.7-.01-2.67-.01-8.47.04-30.6 1.74-33.17 2.55-2.48.79-2.91 4.1-3.72 28.97-.63 19.06-1 22.8-2.41 24.21-1.4 1.4-5.11 1.79-23.05 2.44-11.77.43-22.53 1.21-23.93 1.75-3.39 1.29-3.63 2.75-4.58 28.38-.67 18.22-1.08 22.07-2.46 23.45s-5.1 1.78-22.33 2.4c-20.71.74-25.57 1.59-26.94 4.69-.4.91-1.18 16.96-1.73 35.66-1.22 41.41.32 133 2.32 138.33l1.25 3.32 30.62-.35c22.77-.26 31.3-.69 33.23-1.67 2.54-1.28 2.62-1.63 3.25-13.97.35-6.96.64-31 .65-53.41V532h15.93c8.77 0 17.09.44 18.5.98l2.57.97.01 19.28c.02 30.15 1.96 89.84 2.98 91.76 1.2 2.24 5.35 2.77 28.26 3.62l18.57.69.34 23.3c.25 17.4.67 23.63 1.64 24.6 2.17 2.17 11.77 2.56 59.2 2.43 34.92-.1 46.02-.43 47.74-1.41"/><path fill="none" d="M0 464V0h936v928H0zm506.45 400.56c88.76-9.83 169.4-49.11 234.06-114 51.91-52.08 87.95-112.86 105-177.06 20.6-77.59 18.16-160.71-6.92-235.17-29.6-87.92-97.52-169.85-180.09-217.27C538.98 52.42 386.18 52.01 266.41 120c-33.35 18.94-60.15 39.81-89.47 69.66-43.09 43.89-74.13 95.03-94.87 156.34-11.28 33.35-16.87 69.18-17.78 114.07-.92 45.24 2.89 76.62 14.24 117.43 10.36 37.28 32.25 82.54 56.19 116.24 39.35 55.37 95.58 103.99 154.28 133.4 38.94 19.5 92.09 34.57 137 38.83 13.72 1.3 63.96.42 80.45-1.41M363.5 461.79c-5.12-1.79-9.42-5.7-12.12-11.03-2.18-4.3-2.53-6.12-2.19-11.44.38-5.91.7-6.63 4.78-10.79 4.67-4.76 10.92-7.53 16.96-7.53 8.43.01 20.08 11.46 20.06 19.71-.01 9.31-6.74 17.95-16.14 20.74-5.94 1.77-7.18 1.8-11.35.34m185-.21c-6.84-3.06-13.73-13.35-13.73-20.48 0-5.5 1.18-8.23 5.6-12.94 3.81-4.06 6.97-5.78 13.15-7.16 4.11-.93 5.29-.79 9.1 1.06 5.34 2.58 11.02 9 12.59 14.23 2.48 8.28-3.16 19.41-12.14 23.96-5.95 3.02-9.98 3.38-14.57 1.33"/></svg>