<svg xmlns="http://www.w3.org/2000/svg" width="82" height="82" fill="none" viewBox="0 0 82 82"><path fill="#daedf7" stroke="#daedf7" d="M1 41a40 40 0 1 0 80 0 40 40 0 0 0-80 0Z"/><path fill="#f0c2a1" d="M8.904 11.175h64.239v59.65H8.904z"/><path fill="#ffe3cf" d="M73.143 18.057v-3.44a3.44 3.44 0 0 0-3.443-3.442H12.345A3.44 3.44 0 0 0 8.9 14.616v3.442a3.437 3.437 0 0 1 3.441-3.442H69.7a3.437 3.437 0 0 1 3.443 3.441"/><path fill="#e09f7e" d="M15.786 44.441a24.09 24.09 0 1 0 48.18 0 24.09 24.09 0 0 0-48.18 0M67.407 21.5v3.808a5.1 5.1 0 0 1-4.015 1.928 5.16 5.16 0 0 1-4.29-8.03h6.011a2.3 2.3 0 0 1 2.294 2.294"/><path fill="#e09f7e" d="m65.87 23.38-1.95 4.153a1.145 1.145 0 0 1-1.526.55L60.926 31.2l-4.084 8.649h-2.535l4.543-9.636 1.468-3.109a1.145 1.145 0 0 1-.551-1.525l1.95-4.153a1.154 1.154 0 0 1 1.526-.551l2.076.976a1.143 1.143 0 0 1 .551 1.529"/><path fill="#45413c" stroke="#45413c" stroke-linejoin="round" d="M39.876 16.908a24.09 24.09 0 1 0 0 48.18 24.09 24.09 0 0 0 0-48.18Z"/><path fill="#87898c" d="M55.673 59.183 41.046 42.342a1.8 1.8 0 0 1-.693.375l5.942 21.506a24 24 0 0 0 9.378-5.04M40.349 39.277a1.8 1.8 0 0 1 1.111.9l19.827-10.229a24.15 24.15 0 0 0-15.075-12.2z"/><path fill="#ffe500" stroke="#45413c" stroke-linejoin="round" d="M39.876 31.183a9.815 9.815 0 1 0 9.07 6.06 9.81 9.81 0 0 0-9.07-6.06Z"/><path stroke="#87898c" stroke-linejoin="round" d="M27.385 40.997a12.491 12.491 0 1 0 24.983 0 12.491 12.491 0 0 0-24.983 0Z"/><path stroke="#87898c" stroke-linejoin="round" d="M20.247 40.997a19.628 19.628 0 1 0 39.256 0 19.628 19.628 0 0 0-39.256 0Z"/><path stroke="#45413c" stroke-linejoin="round" d="M39.876 16.908a24.09 24.09 0 1 0 0 48.18 24.09 24.09 0 0 0 0-48.18Z"/><path stroke="#87898c" stroke-linejoin="round" d="M48.07 50.429a12.5 12.5 0 0 1-4.87 2.608M43.163 28.944a12.52 12.52 0 0 1 7.815 6.324M52.752 55.819a19.7 19.7 0 0 1-7.647 4.1M45.04 22.055a19.68 19.68 0 0 1 12.283 9.94"/><path stroke="#45413c" d="M8.904 11.175h64.239v59.65H8.904z"/><path fill="#ebcb00" d="M38.157 42.722a1.719 1.719 0 1 0 3.438 0 1.719 1.719 0 0 0-3.438 0"/><path fill="#daedf7" stroke="#45413c" d="M38.157 40.997a1.719 1.719 0 1 0 3.438 0 1.719 1.719 0 0 0-3.438 0Z"/><path fill="#87898c" d="M58.23 20.352a5.162 5.162 0 1 0 10.324 0 5.162 5.162 0 0 0-10.324 0"/><path fill="#45413c" d="m65.87 23.38-.883 1.881a5.3 5.3 0 0 1-1.595.253 5.04 5.04 0 0 1-3.1-1.044l1.422-3.04a1.154 1.154 0 0 1 1.526-.551l2.076.976a1.147 1.147 0 0 1 .554 1.525"/><path stroke="#45413c" d="M58.23 20.352a5.162 5.162 0 1 0 10.324 0 5.162 5.162 0 0 0-10.324 0Z"/><path stroke="#45413c" d="M8.904 11.175h64.239v59.65H8.904z"/><path fill="#f8f8f8" d="M57.083 61.648a6.883 6.883 0 1 0 13.766 0 6.883 6.883 0 0 0-13.766 0"/><path fill="#bdbec0" d="M68.919 56.869a6.883 6.883 0 1 1-9.906 9.558z"/><path stroke="#45413c" d="M57.083 61.648a6.883 6.883 0 1 0 13.766 0 6.883 6.883 0 0 0-13.766 0Z"/><path fill="#87898c" d="M59.377 61.648a4.59 4.59 0 1 0 9.179 0 4.59 4.59 0 0 0-9.179 0"/><path fill="#87898c" d="M68.407 62.8a4.59 4.59 0 1 0-8.883 0 4.584 4.584 0 0 1 8.883 0"/><path stroke="#45413c" d="M59.377 61.648a4.59 4.59 0 1 0 9.179 0 4.59 4.59 0 0 0-9.179 0Z"/><path fill="#f8f8f8" d="M11.198 61.648a6.883 6.883 0 1 0 13.766 0 6.883 6.883 0 0 0-13.766 0"/><path fill="#bdbec0" d="M23.034 56.869a6.884 6.884 0 1 1-9.906 9.558z"/><path stroke="#45413c" d="M11.198 61.648a6.883 6.883 0 1 0 13.766 0 6.883 6.883 0 0 0-13.766 0Z"/><path fill="#87898c" d="M13.492 61.648a4.59 4.59 0 1 0 9.178 0 4.59 4.59 0 0 0-9.178 0"/><path fill="#87898c" d="M22.522 62.8a4.59 4.59 0 1 0-8.883 0 4.584 4.584 0 0 1 8.883 0"/><path stroke="#45413c" d="M13.492 61.648a4.59 4.59 0 1 0 9.178 0 4.59 4.59 0 0 0-9.178 0Z"/><path fill="#87898c" d="M50.518 51.808a1.721 1.721 0 1 1-3.113-1.467l.733-1.557a1.15 1.15 0 0 1 1.527-.549l1.037.489a1.145 1.145 0 0 1 .549 1.527z"/><path fill="#87898c" d="m50.175 48.476.527.248a1.15 1.15 0 0 1 .549 1.527l-.733 1.557a1.72 1.72 0 0 1-2.29.823z"/><path stroke="#45413c" d="M50.518 51.808a1.721 1.721 0 1 1-3.113-1.467l.733-1.557a1.15 1.15 0 0 1 1.527-.549l1.037.489a1.145 1.145 0 0 1 .549 1.527z"/><path fill="#f8f8f8" stroke="#45413c" d="m49.144 47.99 9.779-20.755 2.075.978-9.778 20.754z"/><path fill="#87898c" stroke="#45413c" d="m58.923 27.236 1.467-3.113 2.075.978-1.467 3.113z"/><path fill="#87898c" d="m59.353 23.635 2.934-6.227 4.15 1.956-2.934 6.226z"/><path fill="#87898c" d="m61.058 24.438-.668-.315a1.15 1.15 0 0 1-.549-1.527l1.956-4.15a1.15 1.15 0 0 1 1.527-.549l2.075.978a1.147 1.147 0 0 1 .549 1.526l-.344.732-1.413-.666a1.14 1.14 0 0 0-1.526.539l-1.606 3.43"/><path stroke="#45413c" d="m59.353 23.635 2.934-6.227 4.15 1.956-2.934 6.226z"/><path fill="#87898c" d="m44.488 55.184 7.822-4.8 2.4 3.91-7.822 4.8z"/><path fill="#87898c" d="m45.677 57.123-.59-.962a1.147 1.147 0 0 1 .378-1.577l5.866-3.6a1.147 1.147 0 0 1 1.578.377l.6.972z"/><path stroke="#45413c" d="m44.488 55.184 7.822-4.8 2.4 3.91-7.822 4.8z"/></svg>