<svg xmlns="http://www.w3.org/2000/svg" width="100" height="100" fill="none" viewBox="0 0 100 100"><path fill="#daedf7" stroke="#daedf7" stroke-miterlimit="10" d="M50 95.214c22.091 0 40-17.909 40-40s-17.909-40-40-40-40 17.909-40 40 17.909 40 40 40Z"/><path fill="#9ceb60" d="M51.3 91.789v3.392q1.815-.057 3.586-.274c1.778-6.078 3.564-13.2 3.63-17.461.087-5.537 4.508-14.1 4.508-14.1C54.109 69.142 51.3 91.789 51.3 91.789"/><path fill="#6dd627" d="M47.564 95.133a40 40 0 0 0 2.436.081c.385 0 .766-.018 1.148-.029V42.537h-3.584z"/><path fill="#46b000" d="M47.564 55.664a9.6 9.6 0 0 0 1.9.185q.848 0 1.683-.144V42.537h-3.583z"/><path stroke="#45413c" stroke-linecap="round" stroke-linejoin="round" d="M51.148 95.185V42.537h-3.584v50.261"/><path fill="#9ceb60" d="M38.947 69.813s2.307 10.08 6.106 25.086q1.9.234 3.858.288c-1.475-8.929-4.351-19.453-9.964-25.374"/><path stroke="#45413c" stroke-linecap="round" stroke-linejoin="round" d="M48.911 95.187c-1.475-8.929-4.351-19.453-9.964-25.374 0 0 2.307 10.08 6.106 25.086M54.883 94.907c1.778-6.078 3.564-13.2 3.63-17.461.087-5.537 4.508-14.1 4.508-14.1C54.109 69.142 51.3 91.789 51.3 91.789"/><path fill="#ff6196" stroke="#45413c" stroke-linecap="round" stroke-linejoin="round" d="M49.627 26.379c0 9.274-4.205 13.181-9.391 13.181s-9.39-3.907-9.39-13.181c0-6.1 4.057-14.8 6.838-20.056a2.887 2.887 0 0 1 5.106 0c2.781 5.255 6.837 13.961 6.837 20.056"/><path fill="#ff6196" stroke="#45413c" stroke-linecap="round" stroke-linejoin="round" d="M49.307 26.379c0 9.274 4.2 13.181 9.391 13.181s9.39-3.907 9.39-13.181c0-6.1-4.057-14.8-6.838-20.056a2.887 2.887 0 0 0-5.106 0c-2.781 5.255-6.837 13.961-6.837 20.056"/><path fill="#ff87af" d="M49.464 27.692A20.28 20.28 0 0 1 69.742 7.414a1.983 1.983 0 0 1 1.77 2.88 17.1 17.1 0 0 0-1.846 7.722v12.766a20.277 20.277 0 0 1-20.2 20.275z"/><path fill="#ff6196" d="M49.464 43.462v7.595a20.277 20.277 0 0 0 20.2-20.275v-.991a23.61 23.61 0 0 1-20.2 13.671"/><path stroke="#45413c" stroke-linecap="round" stroke-linejoin="round" d="M49.464 27.692A20.28 20.28 0 0 1 69.742 7.414a1.983 1.983 0 0 1 1.77 2.88 17.1 17.1 0 0 0-1.846 7.722v12.766a20.277 20.277 0 0 1-20.2 20.275z"/><path fill="#ff87af" d="M49.469 27.692A20.28 20.28 0 0 0 29.191 7.414a1.983 1.983 0 0 0-1.769 2.88 17.1 17.1 0 0 1 1.846 7.722v12.766a20.28 20.28 0 0 0 20.2 20.275z"/><path fill="#ff6196" d="M49.469 43.462v7.595a20.277 20.277 0 0 1-20.2-20.275v-.991a23.61 23.61 0 0 0 20.2 13.671"/><path stroke="#45413c" stroke-linecap="round" stroke-linejoin="round" d="M49.469 27.692A20.28 20.28 0 0 0 29.191 7.414a1.983 1.983 0 0 0-1.769 2.88 17.1 17.1 0 0 1 1.846 7.722v12.766a20.28 20.28 0 0 0 20.2 20.275z"/><path fill="#ff87af" d="M61.461 34.217c0 11.849-5.371 16.84-12 16.84s-12-4.991-12-16.84c0-7.788 5.183-20.758 8.736-27.467a3.689 3.689 0 0 1 6.523 0c3.559 6.713 8.741 19.68 8.741 27.467"/><path fill="#ff6196" d="M37.589 32a22 22 0 0 0-.121 2.22c0 11.849 5.371 16.84 12 16.84s12-4.991 12-16.84A22 22 0 0 0 61.34 32c-.788 9.842-5.8 14.061-11.876 14.061S38.377 41.839 37.589 32"/><path stroke="#45413c" stroke-linecap="round" stroke-linejoin="round" d="M61.461 34.217c0 11.849-5.371 16.84-12 16.84s-12-4.991-12-16.84c0-7.788 5.183-20.758 8.736-27.467a3.689 3.689 0 0 1 6.523 0c3.559 6.713 8.741 19.68 8.741 27.467"/></svg>