<svg viewBox="-2.5 -2.5 500 500" xmlns="http://www.w3.org/2000/svg" id="Star-Rating-Blank--Streamline-Ux" height="500" width="500">
  <desc>
    Star Rating Blank Streamline Illustration: https://streamlinehq.com
  </desc>
  <path d="M169.19354177055 429.35967935883a198 198 0 1 0 156.61062725022 -363.71570138244A198 198 0 1 0 169.19354177055 429.35967935883Z" fill="#daedf7" stroke="#daedf7" stroke-width="5"></path>
  <path d="M243.28260000000003 411.98850000000004a27.28935 8.1873 0 1 0 54.5787 0 27.28935 8.1873 0 1 0 -54.5787 0Z" fill="#45413c" opacity=".15" stroke-width="5"></path>
  <path d="m103.95 213.46380000000002 -4.2966 12.681899999999999a3.2769000000000004 3.2769000000000004 0 0 0 0.49500000000000005 3.0096l8.004150000000001 10.7316a3.2719500000000004 3.2719500000000004 0 0 1 -2.6631000000000005 5.23215l-13.365000000000002 -0.17325000000000002a3.2719500000000004 3.2719500000000004 0 0 0 -2.7126 1.3860000000000001l-7.7319 10.9296a3.2769000000000004 3.2769000000000004 0 0 1 -5.8014 -0.9207000000000001l-3.9600000000000004 -12.785850000000002a3.2769000000000004 3.2769000000000004 0 0 0 -2.15325 -2.15325l-12.785850000000002 -3.9600000000000004a3.2719500000000004 3.2719500000000004 0 0 1 -0.9157500000000001 -5.79645l10.9296 -7.7319a3.2868000000000004 3.2868000000000004 0 0 0 1.3860000000000001 -2.71755l-0.17325000000000002 -13.365000000000002a3.2769000000000004 3.2769000000000004 0 0 1 5.23215 -2.6680500000000005l10.7316 8.0091a3.2769000000000004 3.2769000000000004 0 0 0 3.0096 0.49500000000000005l12.67695 -4.2966a3.2719500000000004 3.2719500000000004 0 0 1 4.09365 4.09365Z" fill="#ffe500" stroke-width="5"></path>
  <path d="m65.75580000000001 236.6991 10.9296 -7.72695a3.2868000000000004 3.2868000000000004 0 0 0 1.3860000000000001 -2.71755L77.89815 212.85a3.2224500000000003 3.2224500000000003 0 0 1 1.8463500000000002 -2.97l-6.3904499999999995 -4.76685a3.2769000000000004 3.2769000000000004 0 0 0 -5.23215 2.6680500000000005l0.1683 13.365000000000002a3.2719500000000004 3.2719500000000004 0 0 1 -1.38105 2.71755l-10.9296 7.7319a3.2719500000000004 3.2719500000000004 0 0 0 0.9157500000000001 5.79645l7.52895 2.34135a3.2224500000000003 3.2224500000000003 0 0 1 1.3315500000000002 -3.03435Z" fill="#fff48c" stroke-width="5"></path>
  <path d="m103.95 213.46380000000002 -4.2966 12.681899999999999a3.2769000000000004 3.2769000000000004 0 0 0 0.49500000000000005 3.0096l8.004150000000001 10.7316a3.2719500000000004 3.2719500000000004 0 0 1 -2.6631000000000005 5.23215l-13.365000000000002 -0.17325000000000002a3.2719500000000004 3.2719500000000004 0 0 0 -2.7126 1.3860000000000001l-7.7319 10.9296a3.2769000000000004 3.2769000000000004 0 0 1 -5.8014 -0.9207000000000001l-3.9600000000000004 -12.785850000000002a3.2769000000000004 3.2769000000000004 0 0 0 -2.15325 -2.15325l-12.785850000000002 -3.9600000000000004a3.2719500000000004 3.2719500000000004 0 0 1 -0.9157500000000001 -5.79645l10.9296 -7.7319a3.2868000000000004 3.2868000000000004 0 0 0 1.3860000000000001 -2.71755l-0.17325000000000002 -13.365000000000002a3.2769000000000004 3.2769000000000004 0 0 1 5.23215 -2.6680500000000005l10.7316 8.0091a3.2769000000000004 3.2769000000000004 0 0 0 3.0096 0.49500000000000005l12.67695 -4.2966a3.2719500000000004 3.2719500000000004 0 0 1 4.09365 4.09365Z" fill="none" stroke="#45413c" stroke-linecap="round" stroke-linejoin="round" stroke-width="5"></path>
  <path d="m184.88745 102.1185 -4.30155 12.681899999999999a3.2620500000000003 3.2620500000000003 0 0 0 0.49500000000000005 3.0096l8.0091 10.72665a3.2719500000000004 3.2719500000000004 0 0 1 -2.6631000000000005 5.23215l-13.365000000000002 -0.1683a3.2719500000000004 3.2719500000000004 0 0 0 -2.7126 1.38105l-7.7319 10.934550000000002a3.2769000000000004 3.2769000000000004 0 0 1 -5.8014 -0.9207000000000001l-3.9600000000000004 -12.785850000000002a3.2670000000000003 3.2670000000000003 0 0 0 -2.15325 -2.15325l-12.785850000000002 -3.9600000000000004a3.2769000000000004 3.2769000000000004 0 0 1 -0.9157500000000001 -5.8014l10.9296 -7.72695a3.2719500000000004 3.2719500000000004 0 0 0 1.38105 -2.71755l-0.1683 -13.365000000000002a3.2719500000000004 3.2719500000000004 0 0 1 5.23215 -2.6680500000000005l10.7316 8.0091a3.2719500000000004 3.2719500000000004 0 0 0 3.0096 0.49500000000000005l12.67695 -4.30155a3.2769000000000004 3.2769000000000004 0 0 1 4.09365 4.0986Z" fill="#ffe500" stroke-width="5"></path>
  <path d="m146.71800000000002 125.3538 10.9296 -7.7319a3.2769000000000004 3.2769000000000004 0 0 0 1.3860000000000001 -2.7126l-0.17325000000000002 -13.365000000000002a3.2224500000000003 3.2224500000000003 0 0 1 1.8463500000000002 -2.97l-6.3904499999999995 -4.76685a3.2719500000000004 3.2719500000000004 0 0 0 -5.23215 2.6680500000000005l0.1683 13.365000000000002a3.2719500000000004 3.2719500000000004 0 0 1 -1.38105 2.71755L136.94175 120.28500000000001a3.2769000000000004 3.2769000000000004 0 0 0 0.9157500000000001 5.8014l7.52895 2.34135a3.2224500000000003 3.2224500000000003 0 0 1 1.3315500000000002 -3.07395Z" fill="#fff48c" stroke-width="5"></path>
  <path d="m184.88745 102.1185 -4.30155 12.681899999999999a3.2620500000000003 3.2620500000000003 0 0 0 0.49500000000000005 3.0096l8.0091 10.72665a3.2719500000000004 3.2719500000000004 0 0 1 -2.6631000000000005 5.23215l-13.365000000000002 -0.1683a3.2719500000000004 3.2719500000000004 0 0 0 -2.7126 1.38105l-7.7319 10.934550000000002a3.2769000000000004 3.2769000000000004 0 0 1 -5.8014 -0.9207000000000001l-3.9600000000000004 -12.785850000000002a3.2670000000000003 3.2670000000000003 0 0 0 -2.15325 -2.15325l-12.785850000000002 -3.9600000000000004a3.2769000000000004 3.2769000000000004 0 0 1 -0.9157500000000001 -5.8014l10.9296 -7.72695a3.2719500000000004 3.2719500000000004 0 0 0 1.38105 -2.71755l-0.1683 -13.365000000000002a3.2719500000000004 3.2719500000000004 0 0 1 5.23215 -2.6680500000000005l10.7316 8.0091a3.2719500000000004 3.2719500000000004 0 0 0 3.0096 0.49500000000000005l12.67695 -4.30155a3.2769000000000004 3.2769000000000004 0 0 1 4.09365 4.0986Z" fill="none" stroke="#45413c" stroke-linecap="round" stroke-linejoin="round" stroke-width="5"></path>
  <path d="M352.78155000000004 102.13335 348.48 114.84a3.2769000000000004 3.2769000000000004 0 0 0 0.49500000000000005 3.0096l8.004150000000001 10.7316a3.2719500000000004 3.2719500000000004 0 0 1 -2.6631000000000005 5.23215l-13.365000000000002 -0.17325000000000002a3.2719500000000004 3.2719500000000004 0 0 0 -2.7126 1.3860000000000001l-7.7319 10.9296a3.2769000000000004 3.2769000000000004 0 0 1 -5.8014 -0.9207000000000001l-3.9600000000000004 -12.785850000000002a3.2769000000000004 3.2769000000000004 0 0 0 -2.15325 -2.15325l-12.785850000000002 -3.9600000000000004a3.2719500000000004 3.2719500000000004 0 0 1 -0.9157500000000001 -5.79645l10.9296 -7.7319a3.2868000000000004 3.2868000000000004 0 0 0 1.3860000000000001 -2.71755l-0.17325000000000002 -13.365000000000002a3.2769000000000004 3.2769000000000004 0 0 1 5.23215 -2.6680500000000005l10.7316 8.0091a3.2769000000000004 3.2769000000000004 0 0 0 3.0096 0.49500000000000005l12.622499999999999 -4.35105a3.2719500000000004 3.2719500000000004 0 0 1 4.15305 4.12335Z" fill="#ffe500" stroke-width="5"></path>
  <path d="m314.6121 125.36865000000002 10.9296 -7.72695a3.2868000000000004 3.2868000000000004 0 0 0 1.3860000000000001 -2.71755l-0.17325000000000002 -13.365000000000002a3.2224500000000003 3.2224500000000003 0 0 1 1.8463500000000002 -2.97l-6.3904499999999995 -4.76685a3.2769000000000004 3.2769000000000004 0 0 0 -5.23215 2.6680500000000005l0.1683 13.365000000000002a3.2719500000000004 3.2719500000000004 0 0 1 -1.38105 2.71755L304.83585 120.28500000000001a3.2719500000000004 3.2719500000000004 0 0 0 0.9157500000000001 5.79645l7.52895 2.34135a3.2224500000000003 3.2224500000000003 0 0 1 1.3315500000000002 -3.05415Z" fill="#fff48c" stroke-width="5"></path>
  <path d="M352.78155000000004 102.13335 348.48 114.84a3.2769000000000004 3.2769000000000004 0 0 0 0.49500000000000005 3.0096l8.004150000000001 10.7316a3.2719500000000004 3.2719500000000004 0 0 1 -2.6631000000000005 5.23215l-13.365000000000002 -0.17325000000000002a3.2719500000000004 3.2719500000000004 0 0 0 -2.7126 1.3860000000000001l-7.7319 10.9296a3.2769000000000004 3.2769000000000004 0 0 1 -5.8014 -0.9207000000000001l-3.9600000000000004 -12.785850000000002a3.2769000000000004 3.2769000000000004 0 0 0 -2.15325 -2.15325l-12.785850000000002 -3.9600000000000004a3.2719500000000004 3.2719500000000004 0 0 1 -0.9157500000000001 -5.79645l10.9296 -7.7319a3.2868000000000004 3.2868000000000004 0 0 0 1.3860000000000001 -2.71755l-0.17325000000000002 -13.365000000000002a3.2769000000000004 3.2769000000000004 0 0 1 5.23215 -2.6680500000000005l10.7316 8.0091a3.2769000000000004 3.2769000000000004 0 0 0 3.0096 0.49500000000000005l12.622499999999999 -4.35105a3.2719500000000004 3.2719500000000004 0 0 1 4.15305 4.12335Z" fill="none" stroke="#45413c" stroke-linecap="round" stroke-linejoin="round" stroke-width="5"></path>
  <path d="m428.0958 213.44895000000002 -4.30155 12.681899999999999a3.2769000000000004 3.2769000000000004 0 0 0 0.49500000000000005 3.0096l8.0091 10.72665a3.2719500000000004 3.2719500000000004 0 0 1 -2.6680500000000005 5.23215l-13.365000000000002 -0.1683a3.2818500000000004 3.2818500000000004 0 0 0 -2.71755 1.38105l-7.72695 10.934550000000002a3.2769000000000004 3.2769000000000004 0 0 1 -5.8014 -0.9207000000000001L396 243.54000000000002a3.2769000000000004 3.2769000000000004 0 0 0 -2.15325 -2.15325l-12.785850000000002 -3.9600000000000004a3.2769000000000004 3.2769000000000004 0 0 1 -0.9009 -5.81625l10.934550000000002 -7.72695a3.2818500000000004 3.2818500000000004 0 0 0 1.38105 -2.71755l-0.1683 -13.365000000000002a3.2719500000000004 3.2719500000000004 0 0 1 5.23215 -2.6680500000000005l10.72665 8.0091a3.2769000000000004 3.2769000000000004 0 0 0 3.0096 0.49500000000000005l12.681899999999999 -4.30155a3.2769000000000004 3.2769000000000004 0 0 1 4.1382 4.11345Z" fill="#ffe500" stroke-width="5"></path>
  <path d="m389.92635 236.68425 10.9296 -7.7319a3.2620500000000003 3.2620500000000003 0 0 0 1.38105 -2.7126L402.06870000000004 212.85a3.2125500000000002 3.2125500000000002 0 0 1 1.8414000000000001 -2.97l-6.3904499999999995 -4.76685a3.2719500000000004 3.2719500000000004 0 0 0 -5.227200000000001 2.6680500000000005l0.1683 13.365000000000002a3.2818500000000004 3.2818500000000004 0 0 1 -1.38105 2.71755L380.16 231.6105a3.2719500000000004 3.2719500000000004 0 0 0 0.9207000000000001 5.8014l7.52895 2.34135a3.20265 3.20265 0 0 1 1.3167000000000002 -3.069Z" fill="#fff48c" stroke-width="5"></path>
  <path d="m428.0958 213.44895000000002 -4.30155 12.681899999999999a3.2769000000000004 3.2769000000000004 0 0 0 0.49500000000000005 3.0096l8.0091 10.72665a3.2719500000000004 3.2719500000000004 0 0 1 -2.6680500000000005 5.23215l-13.365000000000002 -0.1683a3.2818500000000004 3.2818500000000004 0 0 0 -2.71755 1.38105l-7.72695 10.934550000000002a3.2769000000000004 3.2769000000000004 0 0 1 -5.8014 -0.9207000000000001L396 243.54000000000002a3.2769000000000004 3.2769000000000004 0 0 0 -2.15325 -2.15325l-12.785850000000002 -3.9600000000000004a3.2769000000000004 3.2769000000000004 0 0 1 -0.9009 -5.81625l10.934550000000002 -7.72695a3.2818500000000004 3.2818500000000004 0 0 0 1.38105 -2.71755l-0.1683 -13.365000000000002a3.2719500000000004 3.2719500000000004 0 0 1 5.23215 -2.6680500000000005l10.72665 8.0091a3.2769000000000004 3.2769000000000004 0 0 0 3.0096 0.49500000000000005l12.681899999999999 -4.30155a3.2769000000000004 3.2769000000000004 0 0 1 4.1382 4.11345Z" fill="none" stroke="#45413c" stroke-linecap="round" stroke-linejoin="round" stroke-width="5"></path>
  <path d="M270.3987 160.38a10.147499999999999 10.147499999999999 0 0 1 18.0576 6.4350000000000005l-0.6484500000000001 62.9244a10.14255 10.14255 0 0 0 6.71715 9.67725l54.71235000000001 19.57725a10.147499999999999 10.147499999999999 0 0 1 -0.06435 19.1268l-58.726800000000004 20.57715a10.14255 10.14255 0 0 0 -6.77655 9.009l-3.465 61.9542a10.147499999999999 10.147499999999999 0 0 1 -18.81 4.6629l-31.680000000000003 -52.6878a10.1376 10.1376 0 0 0 -12.0978 -4.3263l-57.915 20.62665a10.147499999999999 10.147499999999999 0 0 1 -11.5929 -15.54795l36.63 -50.079150000000006a10.14255 10.14255 0 0 0 0.49500000000000005 -11.2662L152.86095 207.9a10.147499999999999 10.147499999999999 0 0 1 12.087900000000001 -14.850000000000001l54.71235000000001 19.572300000000002a10.1376 10.1376 0 0 0 11.3256 -3.1977Z" fill="#ffe500" stroke-width="5"></path>
  <path d="m288.26325 185.43690000000004 0.19305 -18.6021a10.147499999999999 10.147499999999999 0 0 0 -18.0576 -6.4350000000000005l-39.4119 49.054500000000004a10.1376 10.1376 0 0 1 -11.3256 3.1977L164.94885000000002 193.05a10.147499999999999 10.147499999999999 0 0 0 -12.087900000000001 14.850000000000001l9.60795 15.7905a10.9197 10.9197 0 0 1 10.093050000000002 -2.1582l54.71235000000001 19.57725a10.152450000000002 10.152450000000002 0 0 0 11.33055 -3.1977l39.4119 -49.05945a10.89 10.89 0 0 1 10.2465 -3.4154999999999998Z" fill="#fff48c" stroke-width="5"></path>
  <path d="M270.3987 160.38a10.147499999999999 10.147499999999999 0 0 1 18.0576 6.4350000000000005l-0.6484500000000001 62.9244a10.14255 10.14255 0 0 0 6.71715 9.67725l54.71235000000001 19.57725a10.147499999999999 10.147499999999999 0 0 1 -0.06435 19.1268l-58.726800000000004 20.57715a10.14255 10.14255 0 0 0 -6.77655 9.009l-3.465 61.9542a10.147499999999999 10.147499999999999 0 0 1 -18.81 4.6629l-31.680000000000003 -52.6878a10.1376 10.1376 0 0 0 -12.0978 -4.3263l-57.915 20.62665a10.147499999999999 10.147499999999999 0 0 1 -11.5929 -15.54795l36.63 -50.079150000000006a10.14255 10.14255 0 0 0 0.49500000000000005 -11.2662L152.86095 207.9a10.147499999999999 10.147499999999999 0 0 1 12.087900000000001 -14.850000000000001l54.71235000000001 19.572300000000002a10.1376 10.1376 0 0 0 11.3256 -3.1977Z" fill="none" stroke="#45413c" stroke-linecap="round" stroke-linejoin="round" stroke-width="5"></path>
</svg>