<svg width="430" height="430" viewBox="0 0 430 430" fill="none" xmlns="http://www.w3.org/2000/svg">
<g clip-path="url(#clip0_242_2)">
<path d="M413 222.806C413.004 193.255 406.393 164.079 393.653 137.415C380.912 110.752 362.365 87.279 339.372 68.717C316.378 50.1551 289.521 36.9752 260.771 30.144C232.021 23.3129 202.106 23.0037 173.221 29.239C144.335 35.4744 117.212 48.0963 93.8397 66.179C70.4675 84.2617 51.4392 107.347 38.1503 133.741C24.8614 160.135 17.6489 189.169 17.0418 218.713C16.4347 248.258 22.4484 277.563 34.6418 304.481H395.358C407.007 278.829 413.023 250.979 413 222.806Z" fill="#B8ECFF"/>
<path d="M34.6418 304.481C50.3467 339.151 75.7111 368.559 107.698 389.185C139.685 409.811 176.939 420.781 215 420.781C253.061 420.781 290.315 409.811 322.302 389.185C354.289 368.559 379.653 339.151 395.358 304.481H34.6418Z" fill="#DAEDF7"/>
<path d="M21.95 304.481H408.05" stroke="#45413C" stroke-width="5" stroke-linecap="round" stroke-linejoin="round"/>
<path d="M-0.324951 304.481H12.05" stroke="#45413C" stroke-width="5" stroke-linecap="round" stroke-linejoin="round"/>
<path d="M417.95 304.481H430.325" stroke="#45413C" stroke-width="5" stroke-linecap="round" stroke-linejoin="round"/>
<path d="M126.118 242.225H84.2903C82.9775 242.225 81.7185 242.747 80.7902 243.675C79.8618 244.603 79.3403 245.862 79.3403 247.175V304.348H131.068V247.175C131.068 245.862 130.546 244.603 129.618 243.675C128.69 242.747 127.431 242.225 126.118 242.225Z" fill="#FF6242"/>
<path d="M126.118 242.225H84.2903C82.9775 242.225 81.7185 242.747 80.7902 243.675C79.8618 244.603 79.3403 245.862 79.3403 247.175V264.005C79.3403 262.561 79.914 261.176 80.9351 260.155C81.9563 259.134 83.3412 258.56 84.7853 258.56H125.623C127.067 258.56 128.452 259.134 129.473 260.155C130.494 261.176 131.068 262.561 131.068 264.005V247.175C131.068 245.862 130.546 244.603 129.618 243.675C128.69 242.747 127.431 242.225 126.118 242.225Z" fill="#FF6242"/>
<path d="M126.118 242.225H84.2903C82.9775 242.225 81.7185 242.747 80.7902 243.675C79.8618 244.603 79.3403 245.862 79.3403 247.175V304.348H131.068V247.175C131.068 245.862 130.546 244.603 129.618 243.675C128.69 242.747 127.431 242.225 126.118 242.225Z" stroke="#45413C" stroke-width="5" stroke-linecap="round" stroke-linejoin="round"/>
<path d="M199.625 157.847H157.798C156.485 157.847 155.226 158.369 154.298 159.297C153.369 160.226 152.848 161.485 152.848 162.797V304.367H204.575V162.797C204.575 161.485 204.054 160.226 203.126 159.297C202.197 158.369 200.938 157.847 199.625 157.847Z" fill="#00B8F0"/>
<path d="M199.625 157.847H157.798C156.485 157.847 155.226 158.369 154.298 159.297C153.369 160.226 152.848 161.485 152.848 162.797V179.627C152.848 178.183 153.422 176.798 154.443 175.777C155.464 174.756 156.849 174.182 158.293 174.182H199.13C200.575 174.182 201.959 174.756 202.981 175.777C204.002 176.798 204.575 178.183 204.575 179.627V162.797C204.575 161.485 204.054 160.226 203.126 159.297C202.197 158.369 200.938 157.847 199.625 157.847Z" fill="#4ACFFF"/>
<path d="M199.625 157.847H157.798C156.485 157.847 155.226 158.369 154.298 159.297C153.369 160.226 152.848 161.485 152.848 162.797V304.367H204.575V162.797C204.575 161.485 204.054 160.226 203.126 159.297C202.197 158.369 200.938 157.847 199.625 157.847Z" stroke="#45413C" stroke-width="5" stroke-linecap="round" stroke-linejoin="round"/>
<path d="M346.64 98.4473H304.813C303.5 98.4473 302.241 98.9688 301.313 99.8971C300.384 100.825 299.863 102.084 299.863 103.397V304.367H351.59V103.397C351.59 102.084 351.069 100.825 350.14 99.8971C349.212 98.9688 347.953 98.4473 346.64 98.4473Z" fill="#6DD627"/>
<path d="M346.64 98.4473H304.813C303.5 98.4473 302.241 98.9688 301.313 99.8971C300.384 100.825 299.863 102.084 299.863 103.397V120.227C299.863 118.783 300.436 117.398 301.458 116.377C302.479 115.356 303.864 114.782 305.308 114.782H346.145C347.589 114.782 348.974 115.356 349.995 116.377C351.017 117.398 351.59 118.783 351.59 120.227V103.397C351.59 102.084 351.069 100.825 350.14 99.8971C349.212 98.9688 347.953 98.4473 346.64 98.4473Z" fill="#9CEB60"/>
<path d="M346.64 98.4473H304.813C303.5 98.4473 302.241 98.9688 301.313 99.8971C300.384 100.825 299.863 102.084 299.863 103.397V304.367H351.59V103.397C351.59 102.084 351.069 100.825 350.14 99.8971C349.212 98.9688 347.953 98.4473 346.64 98.4473Z" stroke="#45413C" stroke-width="5" stroke-linecap="round" stroke-linejoin="round"/>
<path d="M273.133 185.072H231.305C229.992 185.072 228.733 185.594 227.805 186.522C226.877 187.45 226.355 188.709 226.355 190.022V304.367H278.083V190.022C278.083 188.709 277.561 187.45 276.633 186.522C275.705 185.594 274.446 185.072 273.133 185.072Z" fill="#FFE500"/>
<path d="M273.133 185.072H231.305C229.992 185.072 228.733 185.594 227.805 186.522C226.877 187.45 226.355 188.709 226.355 190.022V206.852C226.355 205.408 226.929 204.023 227.95 203.002C228.971 201.981 230.356 201.407 231.8 201.407H272.638C274.082 201.407 275.467 201.981 276.488 203.002C277.509 204.023 278.083 205.408 278.083 206.852V190.022C278.083 188.709 277.561 187.45 276.633 186.522C275.705 185.594 274.446 185.072 273.133 185.072Z" fill="#FFF48C"/>
<path d="M273.133 185.072H231.305C229.992 185.072 228.733 185.594 227.805 186.522C226.877 187.45 226.355 188.709 226.355 190.022V304.367H278.083V190.022C278.083 188.709 277.561 187.45 276.633 186.522C275.705 185.594 274.446 185.072 273.133 185.072Z" stroke="#45413C" stroke-width="5" stroke-linecap="round" stroke-linejoin="round"/>
<path d="M105.209 157.699C103.689 157.701 102.204 157.237 100.957 156.369C99.7086 155.501 98.7572 154.271 98.2309 152.844C97.7046 151.418 97.6287 149.865 98.0136 148.394C98.3984 146.924 99.2253 145.607 100.383 144.621L173.915 81.9193C175.054 80.9481 176.46 80.3438 177.948 80.1857C179.437 80.0276 180.938 80.323 182.256 81.0332L250.13 117.599L319.806 24.5389C320.988 22.9635 322.747 21.922 324.696 21.6435C326.646 21.365 328.626 21.8723 330.201 23.0539C331.777 24.2354 332.818 25.9944 333.097 27.9438C333.375 29.8933 332.868 31.8735 331.686 33.4489L258.164 131.622C257.097 133.046 255.555 134.039 253.819 134.421C252.082 134.804 250.265 134.55 248.699 133.706L179.667 96.5168L110.025 155.917C108.683 157.065 106.975 157.697 105.209 157.699Z" fill="#9CEB60" stroke="#46B000" stroke-width="5" stroke-linecap="round" stroke-linejoin="round"/>
<path d="M85.4041 150.269C85.4041 155.52 87.4901 160.556 91.2033 164.269C94.9166 167.983 99.9528 170.069 105.204 170.069C110.455 170.069 115.492 167.983 119.205 164.269C122.918 160.556 125.004 155.52 125.004 150.269C125.004 147.669 124.492 145.094 123.497 142.692C122.502 140.289 121.043 138.107 119.205 136.268C117.366 134.429 115.183 132.971 112.781 131.976C110.379 130.981 107.804 130.469 105.204 130.469C102.604 130.469 100.029 130.981 97.6269 131.976C95.2247 132.971 93.0419 134.429 91.2033 136.268C89.3647 138.107 87.9063 140.289 86.9112 142.692C85.9162 145.094 85.4041 147.669 85.4041 150.269Z" fill="#C8FFA1" stroke="#46B000" stroke-width="5"/>
<path d="M158.912 87.5722C158.912 92.8235 160.998 97.8597 164.711 101.573C168.424 105.286 173.46 107.372 178.712 107.372C183.963 107.372 188.999 105.286 192.712 101.573C196.426 97.8597 198.512 92.8235 198.512 87.5722C198.512 82.3209 196.426 77.2847 192.712 73.5715C188.999 69.8583 183.963 67.7722 178.712 67.7722C173.46 67.7722 168.424 69.8583 164.711 73.5715C160.998 77.2847 158.912 82.3209 158.912 87.5722Z" fill="#C8FFA1" stroke="#46B000" stroke-width="5"/>
<path d="M232.419 127.172C232.419 132.423 234.505 137.46 238.218 141.173C241.931 144.886 246.968 146.972 252.219 146.972C257.47 146.972 262.506 144.886 266.22 141.173C269.933 137.46 272.019 132.423 272.019 127.172C272.019 121.921 269.933 116.885 266.22 113.171C262.506 109.458 257.47 107.372 252.219 107.372C246.968 107.372 241.931 109.458 238.218 113.171C234.505 116.885 232.419 121.921 232.419 127.172Z" fill="#C8FFA1" stroke="#46B000" stroke-width="5"/>
<path d="M305.927 28.9938C305.927 34.2451 308.013 39.2813 311.726 42.9946C315.439 46.7078 320.475 48.7938 325.727 48.7938C330.978 48.7938 336.014 46.7078 339.727 42.9946C343.44 39.2813 345.527 34.2451 345.527 28.9938C345.527 23.7426 343.44 18.7064 339.727 14.9931C336.014 11.2799 330.978 9.19385 325.727 9.19385C320.475 9.19385 315.439 11.2799 311.726 14.9931C308.013 18.7064 305.927 23.7426 305.927 28.9938Z" fill="#C8FFA1" stroke="#46B000" stroke-width="5"/>
</g>
<defs>
<clipPath id="clip0_242_2">
<rect width="430" height="430" fill="white"/>
</clipPath>
</defs>
</svg>
