<svg width="440" height="440" viewBox="0 0 440 440" fill="none" xmlns="http://www.w3.org/2000/svg">
<path d="M418 220C418.004 190.449 411.393 161.272 398.653 134.609C385.912 107.946 367.365 84.4728 344.372 65.9109C321.378 47.3489 294.521 34.169 265.771 27.3379C237.021 20.5067 207.106 20.1975 178.221 26.4329C149.335 32.6683 122.212 45.2902 98.8397 63.3728C75.4675 81.4555 56.4392 104.54 43.1503 130.935C29.8614 157.329 22.6489 186.363 22.0418 215.907C21.4347 245.452 27.4484 274.757 39.6418 301.675H400.358C412.007 276.023 418.023 248.173 418 220Z" fill="#B8ECFF"/>
<path d="M39.6418 301.675C55.3467 336.344 80.7111 365.753 112.698 386.379C144.685 407.005 181.939 417.975 220 417.975C258.061 417.975 295.315 407.005 327.302 386.379C359.289 365.753 384.653 336.344 400.358 301.675H39.6418Z" fill="white"/>
<path d="M26.95 301.675H413.05" stroke="#45413C" stroke-width="5" stroke-linecap="round" stroke-linejoin="round"/>
<path d="M4.67505 301.675H17.05" stroke="#45413C" stroke-width="5" stroke-linecap="round" stroke-linejoin="round"/>
<path d="M422.95 301.675H435.325" stroke="#45413C" stroke-width="5" stroke-linecap="round" stroke-linejoin="round"/>
<path d="M388.795 368.54V279.192C388.795 277.945 388.299 276.749 387.418 275.867C386.536 274.985 385.34 274.49 384.092 274.49H73.7274C72.4802 274.49 71.2841 274.985 70.4022 275.867C69.5203 276.749 69.0249 277.945 69.0249 279.192V368.54" fill="white"/>
<path d="M388.795 368.54V279.192C388.795 277.945 388.299 276.749 387.418 275.867C386.536 274.985 385.34 274.49 384.092 274.49H73.7274C72.4802 274.49 71.2841 274.985 70.4022 275.867C69.5203 276.749 69.0249 277.945 69.0249 279.192V368.54" stroke="#45413C" stroke-width="5" stroke-linecap="round" stroke-linejoin="round"/>
<path d="M374.697 368.54V293.3C374.697 292.052 374.202 290.856 373.32 289.974C372.438 289.093 371.242 288.597 369.995 288.597H87.8448C86.5977 288.597 85.4016 289.093 84.5197 289.974C83.6378 290.856 83.1423 292.052 83.1423 293.3V368.54" fill="#F7E5C6"/>
<path d="M374.697 368.54V293.3C374.697 292.052 374.202 290.856 373.32 289.974C372.438 289.093 371.242 288.597 369.995 288.597H87.8448C86.5977 288.597 85.4016 289.093 84.5197 289.974C83.6378 290.856 83.1423 292.052 83.1423 293.3V368.54" stroke="#45413C" stroke-width="5" stroke-linecap="round" stroke-linejoin="round"/>
<path d="M167.788 154.165V135.766H134.86V154.165C130.026 155.293 125.32 156.908 120.812 158.986C125.005 167.896 131.752 182.717 151.319 184.726C170.901 182.692 177.678 167.778 181.831 158.986C177.324 156.911 172.619 155.296 167.788 154.165Z" fill="#BF8256"/>
<path d="M167.787 154.239C157.051 157.46 145.606 157.46 134.87 154.239V135.766H167.787V154.239Z" fill="#BF8256"/>
<path d="M109.006 288.597H193.651V375.593H109.006V288.597Z" fill="#B89558"/>
<path d="M109.006 288.597H193.651V305.056H109.006V288.597Z" fill="#947746"/>
<path d="M109.006 375.593V288.597H193.651V375.593" stroke="#45413C" stroke-width="5" stroke-linecap="round" stroke-linejoin="round"/>
<path d="M151.329 305.056V375.593" stroke="#45413C" stroke-width="5" stroke-linecap="round" stroke-linejoin="round"/>
<path d="M120.832 159.006C108.181 164.815 97.4619 174.131 89.9462 185.848C82.4306 197.565 78.4338 211.193 78.4299 225.113V319.163H108.996V316.812H123.104C125.598 316.812 127.99 315.821 129.754 314.057C131.518 312.294 132.509 309.901 132.509 307.407V176.633C127.473 171.6 123.502 165.606 120.832 159.006Z" fill="#00DFEB"/>
<path d="M252.828 262.733H247.72V288.597H252.814C254.576 288.7 256.34 288.443 257.999 287.84C259.658 287.236 261.176 286.301 262.46 285.09C263.744 283.879 264.768 282.418 265.467 280.797C266.166 279.177 266.527 277.43 266.527 275.665C266.527 273.9 266.166 272.153 265.467 270.533C264.768 268.912 263.744 267.451 262.46 266.24C261.176 265.029 259.658 264.094 257.999 263.491C256.34 262.887 254.576 262.63 252.814 262.733H252.828Z" fill="#BF8256" stroke="#45413C" stroke-width="5" stroke-linecap="round" stroke-linejoin="round"/>
<path d="M245.379 260.382H240.028C235.835 260.382 231.813 258.716 228.848 255.751C225.883 252.786 224.217 248.765 224.217 244.572V225.113C224.215 211.194 220.22 197.568 212.707 185.851C205.194 174.134 194.479 164.817 181.831 159.006C179.151 165.596 175.175 171.58 170.139 176.603V307.407C170.139 309.901 171.13 312.294 172.893 314.057C174.657 315.821 177.049 316.812 179.544 316.812H193.651V250.824C193.651 256.402 194.75 261.925 196.884 267.078C199.019 272.232 202.148 276.914 206.092 280.859C210.036 284.803 214.719 287.932 219.872 290.066C225.026 292.201 230.549 293.3 236.127 293.3H245.379C246.626 293.3 247.822 292.804 248.704 291.922C249.586 291.04 250.081 289.844 250.081 288.597V265.085C250.081 263.837 249.586 262.641 248.704 261.759C247.822 260.878 246.626 260.382 245.379 260.382Z" fill="#00DFEB"/>
<path d="M224.178 243.923H224.217V225.113C224.215 211.194 220.22 197.568 212.707 185.851C205.194 174.134 194.478 164.817 181.83 159.006C179.24 165.314 175.491 171.081 170.777 176.009C185.753 180.162 199.011 188.99 208.617 201.207C218.223 213.424 223.675 228.39 224.178 243.923Z" fill="#4AEFF7"/>
<path d="M131.855 176.014C127.151 171.083 123.412 165.314 120.832 159.006C108.181 164.815 97.4619 174.131 89.9462 185.848C82.4306 197.565 78.4338 211.193 78.4299 225.113V246.275C78.4317 230.334 83.6568 214.833 93.3054 202.144C102.954 189.454 116.495 180.277 131.855 176.014Z" fill="#4AEFF7"/>
<path d="M151.329 184.746C144.336 184.173 137.726 181.315 132.519 176.613V288.597H170.139V176.603C164.932 181.308 158.322 184.17 151.329 184.746Z" fill="white" stroke="#45413C" stroke-width="5" stroke-linecap="round" stroke-linejoin="round"/>
<path d="M245.379 260.382H240.028C235.835 260.382 231.813 258.716 228.848 255.751C225.883 252.786 224.217 248.765 224.217 244.572V225.113C224.215 211.194 220.22 197.568 212.707 185.851C205.194 174.134 194.479 164.817 181.831 159.006C179.151 165.596 175.175 171.58 170.139 176.603V307.407C170.139 309.901 171.13 312.294 172.893 314.057C174.657 315.821 177.049 316.812 179.544 316.812H193.651V250.824C193.651 256.402 194.75 261.925 196.884 267.078C199.019 272.232 202.148 276.914 206.092 280.859C210.036 284.803 214.719 287.932 219.872 290.066C225.026 292.201 230.549 293.3 236.127 293.3H245.379C246.626 293.3 247.822 292.804 248.704 291.922C249.586 291.04 250.081 289.844 250.081 288.597V265.085C250.081 263.837 249.586 262.641 248.704 261.759C247.822 260.878 246.626 260.382 245.379 260.382Z" stroke="#45413C" stroke-width="5" stroke-linecap="round" stroke-linejoin="round"/>
<path d="M120.832 159.006C108.181 164.815 97.4619 174.131 89.9462 185.848C82.4306 197.565 78.4338 211.193 78.4299 225.113V319.163H108.996V316.812H123.104C125.598 316.812 127.99 315.821 129.754 314.057C131.518 312.294 132.509 309.901 132.509 307.407V176.633C127.473 171.6 123.502 165.606 120.832 159.006Z" stroke="#45413C" stroke-width="5" stroke-linecap="round" stroke-linejoin="round"/>
<path d="M193.651 274.49V208.655" stroke="#45413C" stroke-width="5" stroke-linecap="round" stroke-linejoin="round"/>
<path d="M109.006 316.812V208.655" stroke="#45413C" stroke-width="5" stroke-linecap="round" stroke-linejoin="round"/>
<path d="M146.626 183.964V288.691" stroke="#45413C" stroke-width="5" stroke-linecap="round" stroke-linejoin="round"/>
<path d="M156.031 183.964V288.597" stroke="#45413C" stroke-width="5" stroke-linecap="round" stroke-linejoin="round"/>
<path d="M120.822 158.981C125.326 156.906 130.03 155.292 134.86 154.165V142.82C121.6 142.691 108.698 147.121 98.3142 155.368C97.3576 156.153 96.7517 157.286 96.6292 158.517C96.5067 159.749 96.8777 160.978 97.6608 161.937L117.159 186.162C117.595 186.703 118.146 187.142 118.772 187.445C119.398 187.748 120.084 187.908 120.779 187.914C121.475 187.92 122.163 187.772 122.794 187.48C123.426 187.188 123.985 186.76 124.43 186.226L132.469 176.598C127.447 171.564 123.487 165.574 120.822 158.981Z" fill="#00DFEB" stroke="#45413C" stroke-width="5" stroke-linecap="round" stroke-linejoin="round"/>
<path d="M181.84 158.981C177.331 156.903 172.623 155.288 167.787 154.16V142.82C181.049 142.692 193.952 147.122 204.338 155.368C205.294 156.154 205.899 157.287 206.021 158.518C206.142 159.75 205.77 160.979 204.987 161.936L185.493 186.162C185.057 186.703 184.506 187.142 183.88 187.445C183.254 187.748 182.568 187.908 181.873 187.914C181.177 187.92 180.489 187.772 179.858 187.48C179.227 187.188 178.668 186.76 178.222 186.226L170.168 176.588C175.196 171.558 179.165 165.571 181.84 158.981Z" fill="#00DFEB" stroke="#45413C" stroke-width="5" stroke-linecap="round" stroke-linejoin="round"/>
<path d="M167.788 154.165V135.766H134.86V154.165C130.026 155.293 125.32 156.908 120.812 158.986C125.005 167.896 131.752 182.717 151.319 184.726C170.901 182.692 177.678 167.778 181.831 158.986C177.324 156.911 172.619 155.296 167.788 154.165Z" stroke="#45413C" stroke-width="5" stroke-linecap="round" stroke-linejoin="round"/>
<path d="M96.0767 341.349C94.3773 341.349 92.6946 341.014 91.1246 340.364C89.5547 339.713 88.1284 338.759 86.9272 337.557C85.726 336.355 84.7735 334.928 84.1241 333.358C83.4746 331.787 83.141 330.104 83.1423 328.405V319.163H109.006V328.405C109.007 330.104 108.674 331.787 108.025 333.357C107.376 334.927 106.424 336.354 105.223 337.556C104.022 338.758 102.597 339.711 101.027 340.362C99.4579 341.013 97.7757 341.349 96.0767 341.349Z" fill="#BF8256" stroke="#45413C" stroke-width="5" stroke-linecap="round" stroke-linejoin="round"/>
<path d="M355.887 196.898C355.887 200.016 354.649 203.007 352.444 205.211C350.239 207.416 347.249 208.655 344.131 208.655H287.701C286.157 208.656 284.627 208.353 283.199 207.763C281.772 207.172 280.475 206.307 279.382 205.215C278.289 204.123 277.422 202.827 276.831 201.4C276.239 199.973 275.935 198.443 275.935 196.898V194.547H355.878L355.887 196.898Z" fill="white" stroke="#45413C" stroke-width="5" stroke-linecap="round" stroke-linejoin="round"/>
<path d="M396.646 116.743L379.093 126.311C378.529 126.619 377.908 126.808 377.268 126.867C376.629 126.925 375.984 126.852 375.373 126.652C374.763 126.451 374.2 126.128 373.719 125.702C373.239 125.275 372.85 124.755 372.579 124.173L367.203 112.649C366.751 111.68 365.982 110.893 365.023 110.42C364.063 109.946 362.971 109.814 361.927 110.045C360.882 110.275 359.948 110.855 359.277 111.689C358.607 112.522 358.24 113.56 358.239 114.629V192.196C358.239 193.443 357.743 194.639 356.861 195.521C355.979 196.403 354.783 196.898 353.536 196.898H278.296C277.049 196.898 275.853 196.403 274.971 195.521C274.089 194.639 273.594 193.443 273.594 192.196V114.639C273.592 113.569 273.226 112.532 272.555 111.699C271.885 110.865 270.95 110.285 269.905 110.055C268.861 109.824 267.769 109.956 266.81 110.43C265.85 110.903 265.081 111.69 264.629 112.659L259.253 124.173C258.982 124.755 258.594 125.275 258.113 125.702C257.632 126.128 257.069 126.451 256.459 126.652C255.849 126.852 255.204 126.925 254.564 126.867C253.924 126.808 253.303 126.619 252.739 126.311L235.191 116.743C234.136 116.164 233.342 115.202 232.974 114.056C232.606 112.91 232.691 111.666 233.211 110.58L255.145 64.8026C256.485 62.0393 258.479 59.6444 260.954 57.8254C263.428 56.0063 266.309 54.8179 269.346 54.3631L289.993 51.2594L298.903 49.9427C299.761 49.5894 300.496 48.9902 301.015 48.2204C301.534 47.4506 301.813 46.5447 301.818 45.6164V41.7158C301.818 48.7696 302.432 59.1151 315.926 60.5258C329.425 59.1151 330.033 48.7696 330.033 41.7158V45.6164C330.04 46.5444 330.32 47.4498 330.839 48.2193C331.357 48.9888 332.091 49.5883 332.949 49.9427L341.859 51.2594L362.501 54.3631C365.538 54.8171 368.419 56.0052 370.894 57.8243C373.369 59.6435 375.362 62.0388 376.702 64.8026L398.631 110.605C399.145 111.688 399.225 112.927 398.857 114.068C398.488 115.209 397.697 116.166 396.646 116.743Z" fill="#FF6242"/>
<mask id="mask0_312_2" style="mask-type:alpha" maskUnits="userSpaceOnUse" x="232" y="41" width="168" height="156">
<path d="M396.646 116.743L379.093 126.311C378.529 126.619 377.908 126.808 377.268 126.867C376.629 126.925 375.984 126.852 375.373 126.652C374.763 126.451 374.2 126.128 373.719 125.702C373.239 125.275 372.85 124.755 372.579 124.173L367.203 112.649C366.751 111.68 365.982 110.893 365.023 110.42C364.063 109.946 362.971 109.814 361.927 110.045C360.882 110.275 359.948 110.855 359.277 111.689C358.607 112.522 358.24 113.56 358.239 114.629V192.196C358.239 193.443 357.743 194.639 356.861 195.521C355.979 196.403 354.783 196.898 353.536 196.898H278.296C277.049 196.898 275.853 196.403 274.971 195.521C274.089 194.639 273.594 193.443 273.594 192.196V114.639C273.592 113.569 273.226 112.532 272.555 111.699C271.885 110.865 270.95 110.285 269.905 110.055C268.861 109.824 267.769 109.956 266.81 110.43C265.85 110.903 265.081 111.69 264.629 112.659L259.253 124.173C258.982 124.755 258.594 125.275 258.113 125.702C257.632 126.128 257.069 126.451 256.459 126.652C255.849 126.852 255.204 126.925 254.564 126.867C253.924 126.808 253.303 126.619 252.739 126.311L235.191 116.743C234.136 116.164 233.342 115.202 232.974 114.056C232.606 112.91 232.691 111.666 233.211 110.58L255.145 64.8026C256.485 62.0393 258.479 59.6444 260.954 57.8254C263.428 56.0063 266.309 54.8179 269.346 54.3631L289.993 51.2594L298.903 49.9427C299.761 49.5894 300.496 48.9902 301.015 48.2204C301.534 47.4506 301.813 46.5447 301.818 45.6164V41.7158C301.818 48.7696 302.432 59.1151 315.926 60.5258C329.425 59.1151 330.033 48.7696 330.033 41.7158V45.6164C330.04 46.5444 330.32 47.4498 330.839 48.2193C331.357 48.9888 332.091 49.5883 332.949 49.9427L341.859 51.2594L362.501 54.3631C365.538 54.8171 368.419 56.0052 370.894 57.8243C373.369 59.6435 375.362 62.0388 376.702 64.8026L398.631 110.605C399.145 111.688 399.225 112.927 398.857 114.068C398.488 115.209 397.697 116.166 396.646 116.743Z" fill="black"/>
</mask>
<g mask="url(#mask0_312_2)">
<rect x="248" y="185" width="133" height="10" fill="#970297"/>
<rect x="248" y="175" width="133" height="10" fill="#9990FF"/>
<rect x="248" y="165" width="133" height="10" fill="#E2D300"/>
<rect x="248" y="155" width="133" height="10" fill="#5A9C51"/>
<rect x="245" y="145" width="133" height="10" fill="#E2D300"/>
<rect x="245" y="135" width="133" height="10" fill="#9990FF"/>
<rect x="245" y="125" width="133" height="10" fill="#E2D300"/>
<rect x="245" y="115" width="133" height="10" fill="#5A9C51"/>
<rect x="223" y="105" width="191" height="10" fill="#E2D300"/>
<rect x="223" y="95" width="191" height="10" fill="#9990FF"/>
<rect x="223" y="85" width="191" height="10" fill="#E2D300"/>
<rect x="223" y="75" width="191" height="10" fill="#5A9C51"/>
<rect x="219" y="65" width="191" height="10" fill="#E2D300"/>
<rect x="219" y="55" width="191" height="10" fill="#800080"/>
<rect x="219" y="45" width="191" height="10" fill="#800080"/>
</g>
<path d="M330.024 37.0133V41.7158C330.024 48.7695 329.415 59.115 315.916 60.5258C302.422 59.115 301.809 48.7695 301.809 41.7158V37.0133C301.813 35.7673 302.309 34.5735 303.19 33.6924C304.071 32.8114 305.265 32.3147 306.511 32.3108H325.321C326.567 32.3134 327.762 32.8097 328.643 33.691C329.525 34.5723 330.021 35.7669 330.024 37.0133Z" fill="white" stroke="#45413C" stroke-width="5" stroke-linecap="round" stroke-linejoin="round"/>
<path d="M258.536 76.846C259.8 74.2345 261.683 71.9713 264.021 70.2529C266.359 68.5345 269.081 67.4129 271.95 66.9856L291.443 64.0552H340.389L359.887 66.9856C362.756 67.4137 365.477 68.5356 367.814 70.254C370.151 71.9723 372.033 74.2352 373.297 76.846L393.309 118.56L396.646 116.743C397.702 116.165 398.496 115.203 398.865 114.056C399.233 112.91 399.148 111.666 398.626 110.58L376.668 64.8026C375.328 62.0388 373.334 59.6435 370.859 57.8243C368.385 56.0052 365.504 54.8171 362.466 54.3631L341.825 51.2594L332.915 49.9427C332.057 49.5883 331.323 48.9888 330.804 48.2193C330.286 47.4498 330.006 46.5444 329.999 45.6164V41.7158C329.999 48.7696 329.39 59.1151 315.891 60.5258C302.398 59.1151 301.784 48.7696 301.784 41.7158V45.6164C301.779 46.5447 301.499 47.4506 300.98 48.2204C300.462 48.9902 299.727 49.5894 298.868 49.9427L289.958 51.2594L269.312 54.3631C266.281 54.8232 263.407 56.014 260.939 57.8328C258.471 59.6516 256.482 62.0437 255.145 64.8026L233.202 110.605C232.681 111.691 232.596 112.934 232.964 114.081C233.333 115.227 234.126 116.189 235.182 116.768L238.518 118.584L258.536 76.846Z" fill="#970297"/>
<path d="M396.646 116.743L379.093 126.311C378.529 126.619 377.908 126.808 377.268 126.867C376.629 126.925 375.984 126.852 375.373 126.652C374.763 126.451 374.2 126.128 373.719 125.702C373.239 125.275 372.85 124.755 372.579 124.173L367.203 112.649C366.751 111.68 365.982 110.893 365.023 110.42C364.063 109.946 362.971 109.814 361.927 110.045C360.882 110.275 359.948 110.855 359.277 111.689C358.607 112.522 358.24 113.56 358.239 114.629V192.196C358.239 193.443 357.743 194.639 356.861 195.521C355.979 196.403 354.783 196.898 353.536 196.898H278.296C277.049 196.898 275.853 196.403 274.971 195.521C274.089 194.639 273.594 193.443 273.594 192.196V114.639C273.592 113.569 273.226 112.532 272.555 111.699C271.885 110.865 270.95 110.285 269.905 110.055C268.861 109.824 267.769 109.956 266.81 110.43C265.85 110.903 265.081 111.69 264.629 112.659L259.253 124.173C258.982 124.755 258.594 125.275 258.113 125.702C257.632 126.128 257.069 126.451 256.459 126.652C255.849 126.852 255.204 126.925 254.564 126.867C253.924 126.808 253.303 126.619 252.739 126.311L235.191 116.743C234.136 116.164 233.342 115.202 232.974 114.056C232.606 112.91 232.691 111.666 233.211 110.58L255.145 64.8026C256.485 62.0393 258.479 59.6444 260.954 57.8254C263.428 56.0063 266.309 54.8179 269.346 54.3631L289.993 51.2594L298.903 49.9427C299.761 49.5894 300.496 48.9902 301.015 48.2204C301.534 47.4506 301.813 46.5447 301.818 45.6164V41.7158C301.818 48.7696 302.432 59.1151 315.926 60.5258C329.425 59.1151 330.033 48.7696 330.033 41.7158V45.6164C330.04 46.5444 330.32 47.4498 330.839 48.2193C331.357 48.9888 332.091 49.5883 332.949 49.9427L341.859 51.2594L362.501 54.3631C365.538 54.8171 368.419 56.0052 370.894 57.8243C373.369 59.6435 375.362 62.0388 376.702 64.8026L398.631 110.605C399.145 111.688 399.225 112.927 398.857 114.068C398.488 115.209 397.697 116.166 396.646 116.743Z" stroke="#45413C" stroke-width="5" stroke-linecap="round" stroke-linejoin="round"/>
<path d="M332.365 260.382H327.662C326.415 260.382 325.219 259.887 324.337 259.005C323.455 258.123 322.96 256.927 322.96 255.68V208.655C320.638 208.768 318.282 208.655 315.906 208.655C313.53 208.655 311.174 208.768 308.852 208.655V255.68C308.852 256.927 308.357 258.123 307.475 259.005C306.593 259.887 305.397 260.382 304.15 260.382H299.447C296.953 260.382 294.561 261.373 292.797 263.137C291.033 264.9 290.042 267.293 290.042 269.787V274.49H341.77V269.787C341.77 267.293 340.779 264.9 339.015 263.137C337.252 261.373 334.859 260.382 332.365 260.382Z" fill="#F0D3A8"/>
<path d="M308.862 208.655V220.411H322.96V208.655C320.638 208.768 318.282 208.655 315.906 208.655C313.53 208.655 311.184 208.768 308.862 208.655Z" fill="#DEBB7E"/>
<path d="M332.365 260.382H327.662C326.415 260.382 325.219 259.887 324.337 259.005C323.455 258.123 322.96 256.927 322.96 255.68V208.655C320.638 208.768 318.282 208.655 315.906 208.655C313.53 208.655 311.174 208.768 308.852 208.655V255.68C308.852 256.927 308.357 258.123 307.475 259.005C306.593 259.887 305.397 260.382 304.15 260.382H299.447C296.953 260.382 294.561 261.373 292.797 263.137C291.033 264.9 290.042 267.293 290.042 269.787V274.49H341.77V269.787C341.77 267.293 340.779 264.9 339.015 263.137C337.252 261.373 334.859 260.382 332.365 260.382Z" stroke="#45413C" stroke-width="5" stroke-linecap="round" stroke-linejoin="round"/>
<path d="M379.093 126.311L396.641 116.743C397.697 116.165 398.492 115.203 398.86 114.057C399.228 112.91 399.143 111.666 398.621 110.58L396.438 106.036L370.777 120.327L372.569 124.173C372.841 124.756 373.229 125.278 373.711 125.705C374.192 126.132 374.756 126.456 375.367 126.657C375.979 126.857 376.625 126.93 377.266 126.87C377.907 126.811 378.529 126.621 379.093 126.311Z" fill="#970297" stroke="#45413C" stroke-width="5" stroke-linecap="round" stroke-linejoin="round"/>
<path d="M252.739 126.311L235.191 116.743C234.136 116.164 233.342 115.202 232.974 114.056C232.606 112.91 232.691 111.666 233.211 110.58L235.394 106.036L261.055 120.327L259.263 124.173C258.992 124.756 258.603 125.278 258.122 125.705C257.64 126.132 257.077 126.456 256.465 126.657C255.853 126.857 255.207 126.93 254.566 126.87C253.925 126.811 253.304 126.621 252.739 126.311Z" fill="#970297" stroke="#45413C" stroke-width="5" stroke-linecap="round" stroke-linejoin="round"/>
<path d="M315.916 109.902C314.669 109.902 313.473 109.407 312.591 108.525C311.709 107.643 311.214 106.447 311.214 105.2V60.5259H320.619V105.2C320.619 106.447 320.123 107.643 319.241 108.525C318.359 109.407 317.163 109.902 315.916 109.902Z" stroke="#45413C" stroke-width="5" stroke-linecap="round" stroke-linejoin="round"/>
<path d="M315.916 60.5258L303.883 72.5593C303.361 73.0816 302.725 73.4737 302.024 73.7041C301.323 73.9344 300.578 73.9964 299.848 73.8851C299.119 73.7737 298.426 73.4921 297.826 73.0631C297.226 72.6341 296.735 72.0698 296.393 71.4158C293.726 66.4608 291.6 61.2332 290.052 55.8233C289.663 54.3288 289.648 52.7613 290.008 51.2594C290.954 48.7662 292.544 46.5689 294.618 44.8922C296.691 43.2154 299.173 42.1192 301.809 41.7158C301.809 48.7696 302.422 59.125 315.916 60.5258Z" fill="#FF6242" stroke="#45413C" stroke-width="5" stroke-linecap="round" stroke-linejoin="round"/>
<path d="M341.77 55.8233C340.222 61.2332 338.096 66.4608 335.429 71.4158C335.088 72.0698 334.597 72.6341 333.997 73.0631C333.396 73.4921 332.703 73.7737 331.974 73.8851C331.245 73.9964 330.499 73.9344 329.799 73.7041C329.098 73.4737 328.461 73.0816 327.94 72.5593L315.906 60.5258C329.405 59.1151 330.014 48.7696 330.014 41.7158C332.651 42.1184 335.133 43.2142 337.207 44.891C339.282 46.5679 340.873 48.7656 341.819 51.2594C342.178 52.7617 342.161 54.3292 341.77 55.8233Z" fill="#FF6242" stroke="#45413C" stroke-width="5" stroke-linecap="round" stroke-linejoin="round"/>
<path d="M198.354 88.741V76.9847C198.354 70.8093 197.137 64.6944 194.774 58.989C192.411 53.2837 188.947 48.0997 184.58 43.733C180.214 39.3663 175.03 35.9025 169.324 33.5393C163.619 31.1761 157.504 29.9597 151.329 29.9597C145.153 29.9597 139.038 31.1761 133.333 33.5393C127.628 35.9025 122.444 39.3663 118.077 43.733C113.71 48.0997 110.246 53.2837 107.883 58.989C105.52 64.6944 104.304 70.8093 104.304 76.9847V88.741C101.809 88.741 99.4171 89.7319 97.6533 91.4956C95.8896 93.2594 94.8987 95.6516 94.8987 98.146C94.8987 100.64 95.8896 103.033 97.6533 104.796C99.4171 106.56 101.809 107.551 104.304 107.551C104.502 107.551 104.685 107.501 104.883 107.492C106.541 118.625 112.143 128.792 120.668 136.142C129.193 143.491 140.075 147.534 151.331 147.534C162.587 147.534 173.469 143.491 181.994 136.142C190.519 128.792 196.121 118.625 197.779 107.492C197.973 107.492 198.156 107.551 198.354 107.551C200.848 107.551 203.24 106.56 205.004 104.796C206.768 103.033 207.759 100.64 207.759 98.146C207.759 95.6516 206.768 93.2594 205.004 91.4956C203.24 89.7319 200.848 88.741 198.354 88.741Z" fill="#BF8256" stroke="#45413C" stroke-width="5" stroke-linecap="round" stroke-linejoin="round"/>
<path d="M118.411 108.724C118.411 109.496 118.563 110.261 118.859 110.975C119.154 111.688 119.587 112.336 120.134 112.882C120.68 113.428 121.328 113.862 122.041 114.157C122.755 114.453 123.519 114.605 124.292 114.605C125.064 114.605 125.829 114.453 126.542 114.157C127.256 113.862 127.904 113.428 128.45 112.882C128.996 112.336 129.429 111.688 129.725 110.975C130.02 110.261 130.172 109.496 130.172 108.724C130.172 107.952 130.02 107.187 129.725 106.474C129.429 105.76 128.996 105.112 128.45 104.566C127.904 104.02 127.256 103.587 126.542 103.291C125.829 102.996 125.064 102.844 124.292 102.844C123.519 102.844 122.755 102.996 122.041 103.291C121.328 103.587 120.68 104.02 120.134 104.566C119.587 105.112 119.154 105.76 118.859 106.474C118.563 107.187 118.411 107.952 118.411 108.724Z" fill="#BF8256"/>
<path d="M172.49 108.724C172.49 110.284 173.11 111.779 174.212 112.882C175.315 113.985 176.811 114.605 178.371 114.605C179.93 114.605 181.426 113.985 182.529 112.882C183.632 111.779 184.251 110.284 184.251 108.724C184.251 107.164 183.632 105.669 182.529 104.566C181.426 103.463 179.93 102.844 178.371 102.844C176.811 102.844 175.315 103.463 174.212 104.566C173.11 105.669 172.49 107.164 172.49 108.724Z" fill="#BF8256"/>
<path d="M192.854 122.312C186.744 127.707 179.785 132.055 172.257 135.182C172.797 129.889 172.415 124.543 171.129 119.381C170.667 117.63 169.635 116.083 168.195 114.985C166.755 113.886 164.99 113.3 163.179 113.318H139.478C137.672 113.305 135.913 113.894 134.479 114.992C133.045 116.09 132.017 117.634 131.558 119.381C130.268 124.543 129.885 129.889 130.425 135.182C122.899 132.056 115.941 127.707 109.833 122.312L109.788 122.401C113.769 129.977 119.746 136.322 127.071 140.748C134.396 145.174 142.792 147.513 151.351 147.513C159.91 147.513 168.306 145.174 175.631 140.748C182.956 136.322 188.933 129.977 192.914 122.401L192.854 122.312ZM156.69 139.572C154.952 139.899 153.165 140.181 151.329 140.369C149.492 140.181 147.71 139.899 145.968 139.572C143.797 139.125 141.852 137.927 140.476 136.189C139.101 134.451 138.381 132.284 138.444 130.068C138.507 127.962 138.92 125.881 139.667 123.911C139.744 123.689 139.892 123.5 140.088 123.372C140.284 123.244 140.517 123.184 140.751 123.203H161.912C162.145 123.185 162.376 123.245 162.572 123.373C162.767 123.501 162.914 123.69 162.991 123.911C163.74 125.88 164.153 127.962 164.214 130.068C164.282 132.285 163.564 134.455 162.187 136.194C160.81 137.933 158.863 139.13 156.69 139.572Z" fill="#614B44" stroke="#45413C" stroke-width="5" stroke-linejoin="round"/>
<path d="M198.354 76.9847C198.354 70.8093 197.137 64.6944 194.774 58.989C192.411 53.2837 188.947 48.0997 184.58 43.733C180.214 39.3663 175.03 35.9025 169.324 33.5393C163.619 31.1761 157.504 29.9597 151.329 29.9597C145.153 29.9597 139.038 31.1761 133.333 33.5393C127.628 35.9025 122.444 39.3663 118.077 43.733C113.71 48.0997 110.246 53.2837 107.883 58.989C105.52 64.6944 104.304 70.8093 104.304 76.9847V88.642L123.114 72.0892L125.044 58.6697C125.157 57.8752 125.57 57.1544 126.2 56.6567C126.829 56.159 127.626 55.9227 128.425 55.9967L151.329 58.0757L174.232 55.9967C175.032 55.9226 175.829 56.1588 176.46 56.6563C177.09 57.1539 177.505 57.8748 177.618 58.6697L179.544 72.0892L198.354 88.642V76.9847Z" fill="#614B44"/>
<path d="M178.296 63.4018L193.359 55.8728" stroke="#BF8256" stroke-width="5" stroke-linecap="round" stroke-linejoin="round"/>
<path d="M180.469 72.896L196.76 64.7483" stroke="#BF8256" stroke-width="5" stroke-linecap="round" stroke-linejoin="round"/>
<path d="M198.354 76.9847C198.354 70.8093 197.137 64.6944 194.774 58.989C192.411 53.2837 188.947 48.0997 184.58 43.733C180.214 39.3663 175.03 35.9025 169.324 33.5393C163.619 31.1761 157.504 29.9597 151.329 29.9597C145.153 29.9597 139.038 31.1761 133.333 33.5393C127.628 35.9025 122.444 39.3663 118.077 43.733C113.71 48.0997 110.246 53.2837 107.883 58.989C105.52 64.6944 104.304 70.8093 104.304 76.9847V88.642L123.114 72.0892L125.044 58.6697C125.157 57.8752 125.57 57.1544 126.2 56.6567C126.829 56.159 127.626 55.9227 128.425 55.9967L151.329 58.0757L174.232 55.9967C175.032 55.9226 175.829 56.1588 176.46 56.6563C177.09 57.1539 177.505 57.8748 177.618 58.6697L179.544 72.0892L198.354 88.642V76.9847Z" stroke="#45413C" stroke-width="5" stroke-linejoin="round"/>
<path d="M196.002 107.452C196.002 108.699 196.498 109.895 197.38 110.777C198.262 111.659 199.458 112.154 200.705 112.154C201.952 112.154 203.148 111.659 204.03 110.777C204.912 109.895 205.407 108.699 205.407 107.452C205.407 106.205 204.912 105.008 204.03 104.127C203.148 103.245 201.952 102.749 200.705 102.749C199.458 102.749 198.262 103.245 197.38 104.127C196.498 105.008 196.002 106.205 196.002 107.452Z" fill="white" stroke="#45413C" stroke-width="5" stroke-linejoin="round"/>
<path d="M177.192 91.107C176.612 89.71 175.63 88.5163 174.372 87.6766C173.113 86.8368 171.634 86.3887 170.121 86.3887C168.608 86.3887 167.129 86.8368 165.871 87.6766C164.613 88.5163 163.631 89.71 163.05 91.107" stroke="#45413C" stroke-width="5" stroke-linecap="round" stroke-linejoin="round"/>
<path d="M139.612 91.107C139.03 89.7103 138.048 88.5172 136.789 87.6778C135.53 86.8385 134.051 86.3906 132.538 86.3906C131.025 86.3906 129.546 86.8385 128.288 87.6778C127.029 88.5172 126.047 89.7103 125.465 91.107" stroke="#45413C" stroke-width="5" stroke-linecap="round" stroke-linejoin="round"/>
</svg>
