<svg xmlns="http://www.w3.org/2000/svg" width="100" height="100" viewBox="0 0 100 100"><desc>House 8 Streamline Illustration: https://streamlinehq.com</desc><path fill="#ccf7ad" d="M50 90a39.95 39.95 0 0 0 34.608-20H15.392A39.95 39.95 0 0 0 50 90M13.564 66.5c.546 1.2 1.17 2.363 1.828 3.5h69.216a41 41 0 0 0 1.828-3.5Z"/><path fill="#b8ecff" d="M90 50a40 40 0 1 0-76.436 16.5h72.872A39.84 39.84 0 0 0 90 50"/><path fill="none" stroke="#45413c" stroke-linecap="round" stroke-linejoin="round" d="M11 66.5h78M6.5 66.5H9M91 66.5h2.5"/><path fill="#8ca4b8" d="m85.029 54-6.615-19.782a1.28 1.28 0 0 0-1.211-.873H32.459a1.28 1.28 0 0 0-1.211.873L24.633 54a1.276 1.276 0 0 0 1.211 1.68h57.974A1.276 1.276 0 0 0 85.029 54"/><path fill="#adc4d9" d="m80.256 39.726-1.842-5.508a1.28 1.28 0 0 0-1.211-.873H32.459a1.28 1.28 0 0 0-1.211.873l-1.842 5.508Z"/><path fill="none" stroke="#45413c" stroke-linecap="round" stroke-linejoin="round" d="m85.029 54-6.615-19.782a1.28 1.28 0 0 0-1.211-.873H32.459a1.28 1.28 0 0 0-1.211.873L24.633 54a1.276 1.276 0 0 0 1.211 1.68h57.974A1.276 1.276 0 0 0 85.029 54"/><path fill="#fff" d="M25.477 55.68h58.709v19.782H25.477z"/><path fill="#daedf7" d="M25.477 55.68h58.709v3.853H25.477z"/><path fill="none" stroke="#45413c" stroke-linecap="round" stroke-linejoin="round" d="M25.477 55.68h58.709v19.782H25.477z"/><path fill="#bf8256" stroke="#45413c" stroke-linecap="round" stroke-linejoin="round" d="M54.831 64.614h5.743v10.848h-5.743zM49.088 64.614h5.743v10.848h-5.743z"/><path fill="#e09f7e" stroke="#45413c" stroke-linecap="round" stroke-linejoin="round" d="M60.574 64.614H49.088v-4.807a1 1 0 0 1 1-1h9.486a1 1 0 0 1 1 1Z"/><path fill="#daedf7" stroke="#45413c" stroke-linecap="round" stroke-linejoin="round" d="M50.364 30.792h8.934v5.105h-8.934Z"/><path fill="#ff6242" stroke="#45413c" stroke-linecap="round" stroke-linejoin="round" d="M58.022 23.773a1.277 1.277 0 0 0-1.277-1.273h-3.828a1.277 1.277 0 0 0-1.277 1.277v7.019h6.382Z"/><path fill="none" stroke="#45413c" stroke-linecap="round" stroke-linejoin="round" d="M50.364 25.687h8.934"/><path fill="#daedf7" d="m25.477 55.68-10.849 7.207v12.575h10.849Z"/><path fill="#adc4d9" d="m14.628 66.716 10.849-7.207V55.68l-10.849 7.208Z"/><path fill="none" stroke="#45413c" stroke-linecap="round" stroke-linejoin="round" d="m25.477 55.68-10.849 7.207v12.575h10.849Z"/><path fill="#daedf7" stroke="#45413c" stroke-linecap="round" stroke-linejoin="round" d="m25.477 55.68-13.894 9.231"/><path fill="#bf8256" stroke="#45413c" stroke-linecap="round" stroke-linejoin="round" d="M21.286 66.528h-2.467a1 1 0 0 0-1 1v7.934h4.467v-7.934a1 1 0 0 0-1-1"/><path fill="#00b8f0" d="M33.772 62.061h5.105v8.296h-5.105z"/><path fill="#4acfff" d="m33.772 68.031 5.105-5.105v-.865h-5.105z"/><path fill="none" stroke="#45413c" stroke-linecap="round" stroke-linejoin="round" d="M33.772 62.061h5.105v8.296h-5.105z"/><path fill="#daedf7" stroke="#45413c" stroke-linecap="round" stroke-linejoin="round" d="M40.154 61.36c0 .458-.371.7-.829.7h-6c-.458 0-.829-.243-.829-.7V59.7a.83.83 0 0 1 .829-.829h6a.83.83 0 0 1 .829.829Z"/><path fill="none" stroke="#45413c" stroke-linecap="round" stroke-linejoin="round" d="M32.496 70.357h7.658"/><path fill="#00b8f0" d="M70.785 62.061h5.105v8.296h-5.105z"/><path fill="#4acfff" d="m70.785 68.031 5.105-5.105v-.865h-5.105z"/><path fill="none" stroke="#45413c" stroke-linecap="round" stroke-linejoin="round" d="M70.785 62.061h5.105v8.296h-5.105z"/><path fill="#daedf7" stroke="#45413c" stroke-linecap="round" stroke-linejoin="round" d="M77.166 61.36c0 .458-.371.7-.829.7h-6c-.458 0-.829-.243-.829-.7V59.7a.83.83 0 0 1 .829-.829h6a.83.83 0 0 1 .829.829Z"/><path fill="none" stroke="#45413c" stroke-linecap="round" stroke-linejoin="round" d="M69.508 70.357h7.658"/><path fill="#daedf7" stroke="#45413c" stroke-linecap="round" stroke-linejoin="round" d="M44.621 45.044a1.27 1.27 0 0 0-.459-.98l-4.212-3.4a1.28 1.28 0 0 0-1.634 0l-4.084 3.4a1.27 1.27 0 0 0-.46.98v6.166a1.277 1.277 0 0 0 1.277 1.277h8.3a1.277 1.277 0 0 0 1.277-1.277Z"/><path fill="#00b8f0" d="M41.43 52.489h-4.467V46.47a1 1 0 0 1 1-1h2.467a1 1 0 0 1 1 1Z"/><path fill="#4acfff" d="M40.154 45.47h-1.915a1.276 1.276 0 0 0-1.276 1.276v3.961s4.417-4.286 4.424-4.291a1.276 1.276 0 0 0-1.233-.946"/><path fill="none" stroke="#45413c" stroke-linecap="round" stroke-linejoin="round" d="M41.43 52.489h-4.467V46.47a1 1 0 0 1 1-1h2.467a1 1 0 0 1 1 1Z"/><path fill="#daedf7" stroke="#45413c" stroke-linecap="round" stroke-linejoin="round" d="M75.89 45.044a1.27 1.27 0 0 0-.46-.98l-4.211-3.4a1.28 1.28 0 0 0-1.634 0l-4.085 3.4a1.27 1.27 0 0 0-.459.98v6.166a1.277 1.277 0 0 0 1.277 1.277h8.3a1.277 1.277 0 0 0 1.272-1.277Z"/><path fill="#00b8f0" d="M72.7 52.489h-4.468V46.47a1 1 0 0 1 1-1H71.7a1 1 0 0 1 1 1Z"/><path fill="#4acfff" d="M71.423 45.47h-1.915a1.276 1.276 0 0 0-1.276 1.276v3.961s4.417-4.286 4.424-4.291a1.28 1.28 0 0 0-1.233-.946"/><path fill="none" stroke="#45413c" stroke-linecap="round" stroke-linejoin="round" d="M72.7 52.489h-4.468V46.47a1 1 0 0 1 1-1H71.7a1 1 0 0 1 1 1Z"/></svg>