<svg xmlns="http://www.w3.org/2000/svg" width="80" height="81" fill="none" viewBox="0 0 80 81"><path fill="#b8ecff" d="M0 40.75a40 40 0 1 0 80 0 40 40 0 0 0-80 0"/><path fill="#ffe500" d="M25.185 41.492a14.271 14.271 0 1 0 28.542 0 14.271 14.271 0 0 0-28.542 0"/><path fill="#fff48c" d="M53.494 44.076a14.27 14.27 0 1 0-28.076 0 14.26 14.26 0 0 1 28.076 0"/><path stroke="#45413c" stroke-linecap="round" stroke-linejoin="round" d="M25.185 41.492a14.271 14.271 0 1 0 28.542 0 14.271 14.271 0 0 0-28.542 0"/><path fill="#ffe500" stroke="#45413c" stroke-linecap="round" stroke-linejoin="round" d="M39.456 21.212a1.32 1.32 0 0 1-1.322-1.321v-3.569a1.322 1.322 0 0 1 2.644 0v3.569a1.32 1.32 0 0 1-1.322 1.321m-15.274 6.327a1.32 1.32 0 0 1-.935-.387l-2.523-2.524a1.321 1.321 0 1 1 1.869-1.868l2.523 2.523a1.321 1.321 0 0 1-.934 2.256m-6.327 15.274h-3.57a1.323 1.323 0 0 1 0-2.643h3.57a1.323 1.323 0 0 1 0 2.643M54.73 27.539a1.322 1.322 0 0 1-.934-2.256l2.523-2.523a1.321 1.321 0 0 1 1.869 1.868l-2.523 2.524a1.32 1.32 0 0 1-.935.387m11.217 13.953a1.32 1.32 0 0 1-1.321 1.321h-3.57a1.32 1.32 0 0 1-1.358-1.322 1.323 1.323 0 0 1 1.359-1.321h3.569a1.32 1.32 0 0 1 1.32 1.322"/><path fill="#ffe500" stroke="#45413c" stroke-linecap="round" stroke-linejoin="round" d="M39.661 61.716a1.32 1.32 0 0 0-1.322 1.321v3.569a1.322 1.322 0 0 0 2.644 0v-3.569a1.32 1.32 0 0 0-1.322-1.321m-15.274-6.327a1.32 1.32 0 0 0-.935.387L20.93 58.3a1.321 1.321 0 1 0 1.87 1.868l2.522-2.523a1.322 1.322 0 0 0-.934-2.256M18.06 40.115h-3.569a1.322 1.322 0 0 0 0 2.643h3.57a1.322 1.322 0 0 0 0-2.643m36.875 15.274a1.322 1.322 0 0 0-.934 2.256l2.523 2.523a1.321 1.321 0 0 0 1.87-1.868l-2.524-2.524a1.32 1.32 0 0 0-.935-.387m11.217-13.953a1.32 1.32 0 0 0-1.32-1.321h-3.57a1.321 1.321 0 1 0 0 2.643h3.57a1.32 1.32 0 0 0 1.32-1.322"/><path fill="#fff" stroke="#45413c" stroke-linecap="round" stroke-linejoin="round" d="M51.446 1.528c-3.191-1.9-5.659 1.937-5.659 1.937S43.318-.37 40.128 1.528C36.938 3.428 34 7.498 34 7.498c5.765-1.888 6.812-5.74 10.022-1.993a1.83 1.83 0 0 0 1.385.638h.76a1.83 1.83 0 0 0 1.379-.638c3.21-3.748 4.256.105 10.021 1.992.001 0-2.936-4.07-6.121-5.969M71.821 13.04c-3.8-2.264-6.747 2.31-6.747 2.31s-2.944-4.574-6.747-2.31-7.306 7.117-7.306 7.117c6.873-2.25 8.121-6.843 11.948-2.375a2.18 2.18 0 0 0 1.652.76h.906a2.17 2.17 0 0 0 1.651-.76c3.828-4.468 5.075.125 11.948 2.375 0 0-3.502-4.853-7.305-7.117"/></svg>