<svg width="460" height="460" viewBox="0 0 460 460" fill="none" xmlns="http://www.w3.org/2000/svg">
<path opacity="0.15" d="M243.689 365.254C243.689 361.492 221.32 358.423 193.723 358.423C166.126 358.423 143.752 361.474 143.752 365.254C143.752 369.034 166.126 372.085 193.723 372.085C221.32 372.085 243.689 369.034 243.689 365.254Z" fill="#45413C"/>
<path d="M8 230C8 282.513 28.8607 332.875 65.9929 370.007C103.125 407.139 153.487 428 206 428C258.513 428 308.875 407.139 346.007 370.007C383.139 332.875 404 282.513 404 230C404 177.487 383.139 127.125 346.007 89.9929C308.875 52.8607 258.513 32 206 32C153.487 32 103.125 52.8607 65.9929 89.9929C28.8607 127.125 8 177.487 8 230Z" fill="#DAEDF7" stroke="#DAEDF7" stroke-width="5"/>
<path d="M267.032 248.238C266.975 250.79 265.921 253.217 264.096 255.001C262.271 256.786 259.82 257.785 257.268 257.785C254.716 257.785 252.265 256.786 250.441 255.001C248.616 253.217 247.562 250.79 247.504 248.238" stroke="#45413C" stroke-width="5" stroke-linecap="round" stroke-linejoin="round"/>
<path d="M42.0049 230.205C42.0049 246.648 45.2434 262.929 51.5356 278.119C57.8277 293.31 67.0503 307.112 78.6767 318.739C90.3031 330.365 104.106 339.588 119.296 345.88C134.487 352.172 150.768 355.411 167.21 355.411C183.652 355.411 199.934 352.172 215.124 345.88C230.315 339.588 244.117 330.365 255.744 318.739C267.37 307.112 276.593 293.31 282.885 278.119C289.177 262.929 292.415 246.648 292.415 230.205C292.415 213.763 289.177 197.482 282.885 182.291C276.593 167.101 267.37 153.298 255.744 141.672C244.117 130.045 230.315 120.823 215.124 114.531C199.934 108.239 183.652 105 167.21 105C150.768 105 134.487 108.239 119.296 114.531C104.106 120.823 90.3031 130.045 78.6767 141.672C67.0503 153.298 57.8277 167.101 51.5356 182.291C45.2434 197.482 42.0049 213.763 42.0049 230.205Z" fill="#FFE500"/>
<path d="M42.5445 218.474C45.3935 249.567 59.7595 278.474 82.8234 299.521C105.887 320.568 135.984 332.237 167.208 332.237C198.432 332.237 228.528 320.568 251.592 299.521C274.656 278.474 289.022 249.567 291.871 218.474C292.231 222.335 292.412 226.245 292.416 230.205C292.208 263.276 278.924 294.922 255.466 318.233C232.008 341.544 200.279 354.628 167.208 354.628C134.136 354.628 102.408 341.544 78.9495 318.233C55.4911 294.922 42.2079 263.276 42 230.205C42 226.252 42.1815 222.341 42.5445 218.474Z" fill="#EBCB00"/>
<path d="M42.0049 230.205C42.0049 246.648 45.2434 262.929 51.5356 278.119C57.8277 293.31 67.0503 307.112 78.6767 318.739C90.3031 330.365 104.106 339.588 119.296 345.88C134.487 352.172 150.768 355.411 167.21 355.411C183.652 355.411 199.934 352.172 215.124 345.88C230.315 339.588 244.117 330.365 255.744 318.739C267.37 307.112 276.593 293.31 282.885 278.119C289.177 262.929 292.415 246.648 292.415 230.205C292.415 213.763 289.177 197.482 282.885 182.291C276.593 167.101 267.37 153.298 255.744 141.672C244.117 130.045 230.315 120.823 215.124 114.531C199.934 108.239 183.652 105 167.21 105C150.768 105 134.487 108.239 119.296 114.531C104.106 120.823 90.3031 130.045 78.6767 141.672C67.0503 153.298 57.8277 167.101 51.5356 182.291C45.2434 197.482 42.0049 213.763 42.0049 230.205Z" stroke="#45413C" stroke-width="5" stroke-linecap="round" stroke-linejoin="round"/>
<path d="M139.386 123.548C139.386 124.766 140.106 125.972 141.504 127.098C142.902 128.223 144.952 129.246 147.536 130.107C150.119 130.968 153.187 131.652 156.562 132.118C159.938 132.584 163.556 132.824 167.21 132.824C170.864 132.824 174.482 132.584 177.858 132.118C181.234 131.652 184.301 130.968 186.885 130.107C189.468 129.246 191.518 128.223 192.916 127.098C194.314 125.972 195.034 124.766 195.034 123.548C195.034 122.329 194.314 121.123 192.916 119.998C191.518 118.872 189.468 117.85 186.885 116.988C184.301 116.127 181.234 115.444 177.858 114.977C174.482 114.511 170.864 114.271 167.21 114.271C163.556 114.271 159.938 114.511 156.562 114.977C153.187 115.444 150.119 116.127 147.536 116.988C144.952 117.85 142.902 118.872 141.504 119.998C140.106 121.123 139.386 122.329 139.386 123.548Z" fill="#FFFACF"/>
<path d="M232.278 241.16C226.943 254.025 217.914 265.02 206.332 272.755C194.75 280.49 181.135 284.619 167.208 284.619C153.28 284.619 139.665 280.49 128.084 272.755C116.502 265.02 107.473 254.025 102.138 241.16" stroke="#45413C" stroke-width="5" stroke-linecap="round" stroke-linejoin="round"/>
<path d="M109.013 183.972C109.013 180.114 110.546 176.414 113.274 173.685C116.002 170.957 119.703 169.424 123.561 169.424C127.42 169.424 131.12 170.957 133.848 173.685C136.577 176.414 138.109 180.114 138.109 183.972" stroke="#45413C" stroke-width="5" stroke-linecap="round" stroke-linejoin="round"/>
<path d="M196.307 183.972C196.307 180.114 197.839 176.414 200.568 173.685C203.296 170.957 206.996 169.424 210.855 169.424C214.713 169.424 218.413 170.957 221.142 173.685C223.87 176.414 225.403 180.114 225.403 183.972" stroke="#45413C" stroke-width="5" stroke-linecap="round" stroke-linejoin="round"/>
<path d="M85.7383 212.489C85.7383 215.576 86.9644 218.536 89.1468 220.718C91.3293 222.901 94.2893 224.127 97.3757 224.127C100.462 224.127 103.422 222.901 105.605 220.718C107.787 218.536 109.013 215.576 109.013 212.489C109.013 209.403 107.787 206.443 105.605 204.26C103.422 202.078 100.462 200.852 97.3757 200.852C94.2893 200.852 91.3293 202.078 89.1468 204.26C86.9644 206.443 85.7383 209.403 85.7383 212.489Z" fill="#FFAA54"/>
<path d="M225.403 212.489C225.403 215.576 226.629 218.536 228.811 220.718C230.994 222.901 233.954 224.127 237.04 224.127C240.127 224.127 243.087 222.901 245.269 220.718C247.452 218.536 248.678 215.576 248.678 212.489C248.678 209.403 247.452 206.443 245.269 204.26C243.087 202.078 240.127 200.852 237.04 200.852C233.954 200.852 230.994 202.078 228.811 204.26C226.629 206.443 225.403 209.403 225.403 212.489Z" fill="#FFAA54"/>
<path d="M360.5 41.3853C347.204 42.6469 334.397 47.0489 323.131 54.2295C311.864 61.4101 302.46 71.1645 295.691 82.6912C288.922 94.2179 284.981 107.188 284.192 120.536C283.404 133.884 285.789 147.229 291.153 159.474L270.789 206.078C270.466 206.816 270.361 207.63 270.485 208.426C270.609 209.221 270.958 209.964 271.49 210.568C272.022 211.172 272.715 211.611 273.487 211.835C274.26 212.058 275.08 212.055 275.851 211.827L324.304 197.556C335.712 204.582 348.625 208.791 361.978 209.835C375.33 210.879 388.74 208.729 401.098 203.561C413.457 198.393 424.411 190.356 433.055 180.114C441.7 169.872 447.787 157.718 450.814 144.657C453.842 131.595 453.722 117.999 450.466 104.992C447.21 91.9855 440.911 79.9406 432.088 69.8521C423.265 59.7635 412.172 51.9207 399.725 46.9709C387.278 42.0212 373.833 40.1066 360.5 41.3853Z" fill="white"/>
<path d="M273.517 199.812L324.304 184.845C336.667 192.502 350.798 196.827 365.323 197.399C379.848 197.97 394.274 194.769 407.199 188.107C420.123 181.445 431.108 171.548 439.085 159.378C447.062 147.208 451.76 133.178 452.722 118.652C453.127 123.685 453.089 128.743 452.608 133.769C451.234 148.059 446.246 161.762 438.116 173.585C429.986 185.408 418.981 194.961 406.141 201.342C393.301 207.724 379.049 210.723 364.73 210.057C350.412 209.391 336.498 205.082 324.304 197.536L275.851 211.827C275.08 212.055 274.26 212.058 273.487 211.834C272.714 211.611 272.022 211.172 271.49 210.568C270.958 209.964 270.609 209.22 270.485 208.425C270.361 207.629 270.466 206.814 270.789 206.077L273.517 199.812Z" fill="#DAEDF7"/>
<path d="M360.5 41.3853C347.204 42.6469 334.397 47.0489 323.131 54.2295C311.864 61.4101 302.46 71.1645 295.691 82.6912C288.922 94.2179 284.981 107.188 284.192 120.536C283.404 133.884 285.789 147.229 291.153 159.474L270.789 206.078C270.466 206.816 270.361 207.63 270.485 208.426C270.609 209.221 270.958 209.964 271.49 210.568C272.022 211.172 272.715 211.611 273.487 211.835C274.26 212.058 275.08 212.055 275.851 211.827L324.304 197.556C335.712 204.582 348.625 208.791 361.978 209.835C375.33 210.879 388.74 208.729 401.098 203.561C413.457 198.393 424.411 190.356 433.055 180.114C441.7 169.872 447.787 157.718 450.814 144.656C453.842 131.595 453.722 117.999 450.466 104.992C447.21 91.9855 440.911 79.9406 432.088 69.8521C423.265 59.7635 412.172 51.9207 399.725 46.9709C387.278 42.0212 373.833 40.1066 360.5 41.3853Z" stroke="#45413C" stroke-width="5" stroke-linecap="round" stroke-linejoin="round"/>
<mask id="path-16-outside-1_323_57" maskUnits="userSpaceOnUse" x="326" y="87" width="84" height="72" fill="black">
<rect fill="white" x="326" y="87" width="84" height="72"/>
<path d="M327.4 153.48V90.93C327.4 89.31 328.54 88.5 330.82 88.5C331.72 88.5 332.47 88.71 333.07 89.13C333.73 89.55 334.06 90.15 334.06 90.93V153.48C334.06 154.26 333.73 154.89 333.07 155.37C332.41 155.79 331.63 156 330.73 156C328.51 156 327.4 155.16 327.4 153.48ZM342.91 133.68C342.91 128.52 344.26 124.08 346.96 120.36C349.72 116.58 353.02 113.85 356.86 112.17C360.76 110.49 364.84 109.65 369.1 109.65C375.1 109.65 380.62 111.93 385.66 116.49C390.76 120.99 393.31 126.69 393.31 133.59C393.31 140.13 391.06 145.74 386.56 150.42C382.06 155.04 376.18 157.35 368.92 157.35C361.78 157.35 355.66 155.04 350.56 150.42C345.46 145.74 342.91 140.16 342.91 133.68ZM349.57 133.77C349.57 138.03 351.52 141.93 355.42 145.47C359.32 148.95 363.85 150.69 369.01 150.69C373.87 150.69 378.01 148.92 381.43 145.38C384.91 141.84 386.65 137.91 386.65 133.59C386.65 129.39 385 125.46 381.7 121.8C378.4 118.14 374.14 116.31 368.92 116.31C362.8 116.31 358.03 118.17 354.61 121.89C351.25 125.61 349.57 129.57 349.57 133.77ZM402.107 153.48V90.93C402.107 89.31 403.247 88.5 405.527 88.5C406.427 88.5 407.177 88.71 407.777 89.13C408.437 89.55 408.767 90.15 408.767 90.93V153.48C408.767 154.26 408.437 154.89 407.777 155.37C407.117 155.79 406.337 156 405.437 156C403.217 156 402.107 155.16 402.107 153.48Z"/>
</mask>
<path d="M327.4 153.48V90.93C327.4 89.31 328.54 88.5 330.82 88.5C331.72 88.5 332.47 88.71 333.07 89.13C333.73 89.55 334.06 90.15 334.06 90.93V153.48C334.06 154.26 333.73 154.89 333.07 155.37C332.41 155.79 331.63 156 330.73 156C328.51 156 327.4 155.16 327.4 153.48ZM342.91 133.68C342.91 128.52 344.26 124.08 346.96 120.36C349.72 116.58 353.02 113.85 356.86 112.17C360.76 110.49 364.84 109.65 369.1 109.65C375.1 109.65 380.62 111.93 385.66 116.49C390.76 120.99 393.31 126.69 393.31 133.59C393.31 140.13 391.06 145.74 386.56 150.42C382.06 155.04 376.18 157.35 368.92 157.35C361.78 157.35 355.66 155.04 350.56 150.42C345.46 145.74 342.91 140.16 342.91 133.68ZM349.57 133.77C349.57 138.03 351.52 141.93 355.42 145.47C359.32 148.95 363.85 150.69 369.01 150.69C373.87 150.69 378.01 148.92 381.43 145.38C384.91 141.84 386.65 137.91 386.65 133.59C386.65 129.39 385 125.46 381.7 121.8C378.4 118.14 374.14 116.31 368.92 116.31C362.8 116.31 358.03 118.17 354.61 121.89C351.25 125.61 349.57 129.57 349.57 133.77ZM402.107 153.48V90.93C402.107 89.31 403.247 88.5 405.527 88.5C406.427 88.5 407.177 88.71 407.777 89.13C408.437 89.55 408.767 90.15 408.767 90.93V153.48C408.767 154.26 408.437 154.89 407.777 155.37C407.117 155.79 406.337 156 405.437 156C403.217 156 402.107 155.16 402.107 153.48Z" fill="black"/>
<path d="M333.07 89.13L332.497 89.9492L332.515 89.9618L332.533 89.9737L333.07 89.13ZM333.07 155.37L333.607 156.214L333.633 156.197L333.658 156.179L333.07 155.37ZM327.4 153.48H328.4V90.93H327.4H326.4V153.48H327.4ZM327.4 90.93H328.4C328.4 90.3849 328.573 90.1084 328.834 89.9227C329.158 89.6923 329.768 89.5 330.82 89.5V88.5V87.5C329.592 87.5 328.492 87.7127 327.676 88.2923C326.797 88.9166 326.4 89.8551 326.4 90.93H327.4ZM330.82 88.5V89.5C331.562 89.5 332.1 89.6715 332.497 89.9492L333.07 89.13L333.643 88.3108C332.84 87.7485 331.878 87.5 330.82 87.5V88.5ZM333.07 89.13L332.533 89.9737C332.906 90.2108 333.06 90.4931 333.06 90.93H334.06H335.06C335.06 89.8069 334.554 88.8892 333.607 88.2863L333.07 89.13ZM334.06 90.93H333.06V153.48H334.06H335.06V90.93H334.06ZM334.06 153.48H333.06C333.06 153.923 332.897 154.259 332.482 154.561L333.07 155.37L333.658 156.179C334.563 155.521 335.06 154.597 335.06 153.48H334.06ZM333.07 155.37L332.533 154.526C332.057 154.83 331.469 155 330.73 155V156V157C331.791 157 332.763 156.75 333.607 156.214L333.07 155.37ZM330.73 156V155C329.718 155 329.141 154.803 328.836 154.573C328.583 154.382 328.4 154.079 328.4 153.48H327.4H326.4C326.4 154.561 326.772 155.518 327.629 156.167C328.434 156.777 329.522 157 330.73 157V156ZM346.96 120.36L346.153 119.77L346.151 119.773L346.96 120.36ZM356.86 112.17L356.465 111.252L356.459 111.254L356.86 112.17ZM385.66 116.49L384.989 117.232L384.999 117.24L385.66 116.49ZM386.56 150.42L387.277 151.118L387.281 151.113L386.56 150.42ZM350.56 150.42L349.884 151.157L349.889 151.161L350.56 150.42ZM355.42 145.47L354.748 146.21L354.754 146.216L355.42 145.47ZM381.43 145.38L380.717 144.679L380.711 144.685L381.43 145.38ZM381.7 121.8L380.958 122.47V122.47L381.7 121.8ZM354.61 121.89L353.874 121.213L353.868 121.22L354.61 121.89ZM342.91 133.68H343.91C343.91 128.704 345.208 124.476 347.77 120.947L346.96 120.36L346.151 119.773C343.312 123.684 341.91 128.336 341.91 133.68H342.91ZM346.96 120.36L347.768 120.95C350.436 117.296 353.601 114.687 357.261 113.086L356.86 112.17L356.459 111.254C352.439 113.013 349.004 115.864 346.153 119.77L346.96 120.36ZM356.86 112.17L357.256 113.088C361.03 111.462 364.976 110.65 369.1 110.65V109.65V108.65C364.705 108.65 360.49 109.518 356.465 111.252L356.86 112.17ZM369.1 109.65V110.65C374.819 110.65 380.107 112.814 384.989 117.232L385.66 116.49L386.331 115.748C381.133 111.046 375.381 108.65 369.1 108.65V109.65ZM385.66 116.49L384.999 117.24C389.88 121.547 392.31 126.972 392.31 133.59H393.31H394.31C394.31 126.408 391.641 120.433 386.322 115.74L385.66 116.49ZM393.31 133.59H392.31C392.31 139.874 390.159 145.235 385.839 149.727L386.56 150.42L387.281 151.113C391.962 146.245 394.31 140.386 394.31 133.59H393.31ZM386.56 150.42L385.844 149.722C381.557 154.124 375.948 156.35 368.92 156.35V157.35V158.35C376.413 158.35 382.564 155.956 387.277 151.118L386.56 150.42ZM368.92 157.35V156.35C362.018 156.35 356.14 154.126 351.232 149.679L350.56 150.42L349.889 151.161C355.18 155.954 361.542 158.35 368.92 158.35V157.35ZM350.56 150.42L351.236 149.683C346.327 145.178 343.91 139.859 343.91 133.68H342.91H341.91C341.91 140.461 344.594 146.302 349.884 151.157L350.56 150.42ZM349.57 133.77H348.57C348.57 138.377 350.692 142.529 354.748 146.21L355.42 145.47L356.092 144.73C352.348 141.331 350.57 137.683 350.57 133.77H349.57ZM355.42 145.47L354.754 146.216C358.835 149.857 363.601 151.69 369.01 151.69V150.69V149.69C364.099 149.69 359.805 148.043 356.086 144.724L355.42 145.47ZM369.01 150.69V151.69C374.145 151.69 378.544 149.807 382.149 146.075L381.43 145.38L380.711 144.685C377.477 148.033 373.595 149.69 369.01 149.69V150.69ZM381.43 145.38L382.143 146.081C385.778 142.384 387.65 138.212 387.65 133.59H386.65H385.65C385.65 137.608 384.043 141.296 380.717 144.679L381.43 145.38ZM386.65 133.59H387.65C387.65 129.101 385.878 124.94 382.443 121.13L381.7 121.8L380.958 122.47C384.122 125.98 385.65 129.679 385.65 133.59H386.65ZM381.7 121.8L382.443 121.13C378.941 117.246 374.404 115.31 368.92 115.31V116.31V117.31C373.876 117.31 377.859 119.034 380.958 122.47L381.7 121.8ZM368.92 116.31V115.31C362.584 115.31 357.523 117.244 353.874 121.213L354.61 121.89L355.346 122.567C358.538 119.096 363.016 117.31 368.92 117.31V116.31ZM354.61 121.89L353.868 121.22C350.376 125.086 348.57 129.276 348.57 133.77H349.57H350.57C350.57 129.864 352.124 126.134 355.352 122.56L354.61 121.89ZM407.777 89.13L407.204 89.9492L407.222 89.9618L407.24 89.9737L407.777 89.13ZM407.777 155.37L408.314 156.214L408.34 156.197L408.365 156.179L407.777 155.37ZM402.107 153.48H403.107V90.93H402.107H401.107V153.48H402.107ZM402.107 90.93H403.107C403.107 90.3849 403.28 90.1084 403.541 89.9227C403.865 89.6923 404.475 89.5 405.527 89.5V88.5V87.5C404.299 87.5 403.199 87.7127 402.383 88.2923C401.504 88.9166 401.107 89.8551 401.107 90.93H402.107ZM405.527 88.5V89.5C406.269 89.5 406.807 89.6715 407.204 89.9492L407.777 89.13L408.35 88.3108C407.547 87.7485 406.585 87.5 405.527 87.5V88.5ZM407.777 89.13L407.24 89.9737C407.613 90.2108 407.767 90.4931 407.767 90.93H408.767H409.767C409.767 89.8069 409.261 88.8892 408.314 88.2863L407.777 89.13ZM408.767 90.93H407.767V153.48H408.767H409.767V90.93H408.767ZM408.767 153.48H407.767C407.767 153.923 407.604 154.259 407.189 154.561L407.777 155.37L408.365 156.179C409.27 155.521 409.767 154.597 409.767 153.48H408.767ZM407.777 155.37L407.24 154.526C406.764 154.83 406.176 155 405.437 155V156V157C406.498 157 407.47 156.75 408.314 156.214L407.777 155.37ZM405.437 156V155C404.425 155 403.848 154.803 403.543 154.573C403.29 154.382 403.107 154.079 403.107 153.48H402.107H401.107C401.107 154.561 401.479 155.518 402.336 156.167C403.141 156.777 404.229 157 405.437 157V156Z" fill="black" mask="url(#path-16-outside-1_323_57)"/>
</svg>
