<svg xmlns="http://www.w3.org/2000/svg" width="80" height="80" viewBox="62 62 900 900"><defs><clipPath id="c"><circle cx="512" cy="512" r="450"/></clipPath></defs><g clip-path="url(#c)"><path fill="#252522" d="M604 920c-1.97 1.97-3.33 2-91.36 2h-89.37l-2.76-2.75c-2.76-2.74-2.77-2.77-2.21-13.44.84-16.23 5.81-25.02 17.2-30.42 4.62-2.19 6.24-2.37 21.25-2.38L473 873v-66.74l-4.77-.64c-9.23-1.22-18.5-8.16-22.11-16.56-1.27-2.96-2.08-7.28-2.21-11.86l-.21-7.2h-5.19c-7.44 0-19.8-3.43-27.43-7.61-22.32-12.23-35.08-32.95-35.08-56.98v-9.09l-9.46-1.16c-17.3-2.13-29.5-8.09-40.4-19.77-7.17-7.68-12.13-16.39-14.72-25.89-2.4-8.78-2.35-70 .06-72.41 1.36-1.36 6.08-1.66 32.8-2.09l31.22-.5.27-20.87c.16-12.39-.12-21.35-.7-22.04-.53-.64-3.63-1.27-6.89-1.4-8.11-.32-16.28-2.54-25.18-6.85-9.86-4.78-22.06-16.85-26.62-26.34-5.91-12.31-6.22-14.59-6.68-49.94l-.42-32.43 4.63-4.63h30.01c29.2 0 30.04-.05 31.1-2.04 1.1-2.06 1.06-40.22-.04-41.32-.29-.29-4.34-1-9-1.58-11.46-1.44-19.56-4.3-28.22-9.96-9.03-5.91-16.29-13.77-20.98-22.72-6.88-13.15-7.15-15.07-7.07-51.33.07-32.28.08-32.46 2.29-34.25 2.03-1.65 4.88-1.8 33.41-1.8h31.19l2.16-7.25c7.43-25 31.91-43.45 59.54-44.88l4.7-.24v-5.64c0-16.39 9.46-27.36 26.31-30.52l3.65-.69.27-23.64.27-23.64 6.75-.3 6.75-.29V157h51v-48.81l6.25.54c3.44.3 6.35.61 6.46.7.12.09.35 10.61.5 23.37l.29 23.2 3.5.53c8.28 1.26 13.88 3.59 17.85 7.44 5.97 5.79 7.44 9.3 7.96 19.03.24 4.68.95 8.83 1.57 9.23.62.41 3.37.76 6.12.78 20.2.16 42.91 14.64 52.6 33.52 3.06 5.98 4.13 8.8 6.49 17.22.27.97 7.51 1.25 31.88 1.25 30.55 0 31.59.06 33.6 2.07 2.03 2.03 2.06 2.79 1.73 35.75-.33 32.21-.44 33.96-2.66 40.18-4.79 13.44-13.02 24.1-24.58 31.83-8.92 5.97-17.07 8.84-29.33 10.35l-9.27 1.15.27 21.58.27 21.59 31.2.5c21.2.34 31.56.86 32.33 1.63.62.62 1.54 2.87 2.06 5 1.19 4.95.2 58.83-1.21 65.72-3.22 15.82-17.23 33.8-31.88 40.96-8.64 4.22-17.45 6.68-23.96 6.7-.65.01-1.24 0-1.8-.01-2.57-.02-4.24-.04-5.31.75-1.97 1.44-1.96 5.58-1.94 17.28.01 1.39.01 2.88.01 4.48 0 18.48.21 21.36 1.58 21.88.87.34 15.02.61 31.43.61h29.85l2.2 3.08c2.17 3.06 2.19 3.37 1.67 33.75-.58 34-1.03 37.09-7.37 50.07-2.55 5.21-5.73 9.53-10.74 14.58-11.28 11.37-22.31 16.61-39.33 18.7l-9.29 1.14v6.75c0 31.07-20.12 57.42-49.61 64.96-4.24 1.08-10.11 1.97-13.05 1.97H581v6.32c0 3.48-.7 8.38-1.55 10.89-3.11 9.11-12.68 16.84-22.7 18.32l-4.75.7V873l16.25.01c14.94.01 16.66.2 21.29 2.36 6.16 2.86 12.76 10.12 14.88 16.36 1.06 3.09 1.58 8.22 1.58 15.45 0 9.49-.25 11.07-2 12.82M431 755.91c2.48.48 38.56.92 80.18.98 82.64.12 83.89.05 95.62-5.64 7.56-3.66 18.11-14.12 21.95-21.75.82-1.63 1.54-2.75 2.16-3.93 4.13-7.82 4.12-17.83 4.09-193.26-.01-15.72-.01-32.76-.01-51.24v-46.5c.01-180.57.01-190.72-4.15-198.7-.58-1.11-1.24-2.18-1.99-3.66-3.92-7.72-13.96-17.45-21.63-20.97-1.76-.8-3.22-1.49-4.72-2.06-8.19-3.16-17.59-3.16-84.89-3.17h-4.22c-48.71-.01-80.15.37-83.5 1.01-19.36 3.64-36.23 20.51-39.87 39.87-.67 3.54-1.02 83.69-1.02 234.54 0 202.86.18 229.83 1.54 235.05 2.1 8.08 5.06 14.49 8.2 17.77 1.45 1.51 2.24 2.75 1.75 2.75-1.6 0 5.9 7.13 11.51 10.94 6.03 4.11 12.08 6.64 19 7.97m99.77-35.98c-14.34 3.84-33.91 2.29-48-3.8-12.14-5.24-26.41-17.33-33.73-28.57-18.47-28.35-15.34-65.95 7.56-90.74 10.12-10.97 21.36-17.85 35.9-21.96 10.63-3 27.63-3.21 38.5-.47 32.83 8.29 56.22 38.47 56.23 72.54 0 25.32-12.6 48.91-33.45 62.65-8.71 5.73-13.05 7.69-23.01 10.35m-1.18-331.95c-16.4 4.19-34.66 1.96-51.04-6.23-24.72-12.37-41.55-39.19-41.55-66.23 0-8.18 2.54-21.43 5.51-28.75 16.48-40.54 65.71-58.58 104.41-38.24 25.17 13.22 40.43 38.59 40.28 66.97-.17 34.41-23.51 63.77-57.61 72.48m0 166.03c-36.81 9.28-76.34-13.1-89.23-50.51-2.46-7.14-2.76-9.45-2.81-21.5-.07-19.65 3.13-29.89 14.16-45.21 7.09-9.84 15.21-16.61 26.79-22.33 10.99-5.43 18.23-7.39 30-8.13 29.15-1.84 58.36 15.11 70.98 41.17 7.78 16.04 9.81 35.37 5.48 51.93-6.98 26.64-28.43 47.78-55.37 54.58M497.5 707.1c20.91 5.23 41.89-.65 57.49-16.1 12.03-11.93 17.66-24.26 18.69-41 .48-7.92.22-10.83-1.6-17.45-6.14-22.37-22.89-39.59-43.72-44.96-9.83-2.54-25.52-2.14-35.14.9-25.02 7.9-42.18 31.08-42.54 57.47-.15 10.78 1.28 17.73 5.52 26.76 8.07 17.21 23.29 29.88 41.3 34.38m7-164.73c11.3 1.74 28.18-1.97 39.4-8.64 7.87-4.68 17.96-15.29 22.36-23.5 13.26-24.73 8.79-53.6-11.36-73.33-16.48-16.13-37.77-21.45-60.1-15-19.74 5.69-34.76 20.43-41.89 41.1-1.81 5.25-2.25 8.71-2.26 18-.02 10.07.32 12.39 2.67 18.63 4.21 11.16 7.47 16.29 15.62 24.49 9.8 9.87 22.09 16.17 35.56 18.25m-3-166.82c32.27 6.15 64.72-16.39 71.08-49.39 1.81-9.35 1.79-13.43-.13-22.95-5.57-27.74-28.52-48-56.53-49.9-28.66-1.95-54.82 16.67-63.53 45.19-2.46 8.08-2.43 25.87.07 33 4.11 11.75 7.96 17.91 16.54 26.54 10.49 10.53 18.46 14.83 32.5 17.51M649 423v94h5.89c14.66 0 30.83-9.12 39.16-22.08 6.73-10.48 7.28-13.62 7.72-44.17l.39-27.75Zm0 165v94h5.29c19.58 0 37.75-13.19 44.88-32.58 1.98-5.42 2.21-8.27 2.59-33.67l.43-27.75Zm-289.89 92.42c2.97.8 7.75 1.48 10.64 1.51l5.25.07v-34.84c0-19.17.29-40.32.65-47l.66-12.16h-53.45l.32 29.25.32 29.25 3.8 7.78c6.27 12.83 17.92 22.4 31.81 26.14m-1.03-165.01c2.98.8 8.01 1.49 11.17 1.52l5.75.07v-45.42c0-24.98.27-46.13.61-47 .54-1.42-2.15-1.58-26-1.58H323v26.29c0 28.68.66 33.6 5.78 43.09 5.55 10.28 17.86 19.96 29.3 23.03M649 259v93h5.29c6.79 0 15.7-2.33 22.1-5.78 7-3.78 15.55-12.56 19.43-19.95 5.19-9.87 6.14-16.62 6.16-43.52L702 259Zm-289.74 91.46c2.88.77 7.6 1.44 10.49 1.47l5.25.07v-35.25c.01-19.39.3-40.31.66-46.5l.65-11.25H323v26.53c0 24.13.19 27.09 2.06 32.64 5.33 15.83 18.2 27.98 34.2 32.29m72.08 557.27c.28.46 15.73.73 34.33.61 18.61-.12 54.93-.25 80.72-.28l46.89-.06-.56-6.15c-.61-6.77-2.46-10.03-7.71-13.6L581.7 886h-77.57c-56.18-.01-64.01-.01-67.55 3.88-.75.83-1.3 1.82-2.08 3.03-2.2 3.4-4.26 13.05-3.16 14.82m54.78-54.96.25 20.26 25.56-.26 25.57-.27.53-66.5h-50.76l-.7 13.25c-.38 7.29-.58 22.37-.45 33.52m-29.8-666.02-.24 6.25H568v-6.11c0-4.36-.6-7.19-2.09-9.84-.85-1.51-1.45-2.69-2.31-3.62-3.2-3.44-10.09-3.44-46.79-3.43H466.3l-3.4 2.29c-4.52 3.04-6.28 6.91-6.58 14.46m8.82 604.11c4.31 2.16 4.87 2.18 48.44 1.91l44.08-.27 3.78-2.88c4.58-3.5 6.56-7.9 6.56-14.59V770H457v6.25c.01 7.78 2.15 11.62 8.14 14.61"/><path fill="#45a313" d="M497.5 707.1c-18.01-4.5-33.23-17.17-41.3-34.38-3.81-8.13-5.36-14.57-5.52-23.64.2 9.43 2 16.56 6.19 24.92 3.26 6.51 4.27 7.65 9.15 10.3 6.79 3.7 14.36 6.43 21.23 7.65 5.98 1.07 16.83.55 23.63-1.12 17.25-4.24 33.36-17.55 40.72-33.65 7.57-16.55 7.35-34.3-.63-51.92-1.69-3.72-3.09-6.98-3.11-7.26-.05-.79-1.12-1.89-2.83-3.08 12.85 8.28 22.66 21.64 27.05 37.63 1.82 6.62 2.08 9.53 1.6 17.45-1.03 16.74-6.66 29.07-18.69 41-15.6 15.45-36.58 21.33-57.49 16.1m-40.56-87.34c7.18-14.64 20.08-26.15 36.28-31.27-16.14 5.1-29.08 16.65-36.28 31.27m82.58-27.99c-3.43-1.66-7.48-3.22-11.24-4.2l.08.02c3.87 1 7.61 2.4 11.16 4.18"/><path fill="#617077" d="M0 512V0h1024v1024H0zm604 408c1.75-1.75 2-3.33 2-12.82 0-7.23-.52-12.36-1.58-15.45-2.12-6.24-8.72-13.5-14.88-16.36-4.63-2.16-6.35-2.35-21.29-2.36L552 873v-66.77l4.75-.7c10.02-1.48 19.59-9.21 22.7-18.32.85-2.51 1.55-7.41 1.55-10.89V770h5.34c2.94 0 8.81-.89 13.05-1.97 29.49-7.54 49.61-33.89 49.61-64.96v-6.75l9.29-1.14c17.02-2.09 28.05-7.33 39.33-18.7 5.01-5.05 8.19-9.37 10.74-14.58 6.34-12.98 6.79-16.07 7.37-50.07.52-30.38.5-30.69-1.67-33.75l-2.2-3.08h-29.85c-16.41 0-30.56-.27-31.43-.61-1.37-.52-1.58-3.4-1.58-21.88 0-24.18-.69-22.47 9.04-22.5 6.51-.02 15.32-2.48 23.96-6.7 14.65-7.16 28.66-25.14 31.88-40.96 1.41-6.89 2.4-60.77 1.21-65.72-.52-2.13-1.44-4.38-2.06-5-.77-.77-11.13-1.29-32.33-1.63l-31.2-.5-.27-21.59-.27-21.58 9.27-1.15c12.26-1.51 20.41-4.38 29.33-10.35 11.56-7.73 19.79-18.39 24.58-31.83 2.22-6.22 2.33-7.97 2.66-40.18.33-32.96.3-33.72-1.73-35.75-2.01-2.01-3.05-2.07-33.6-2.07-24.37 0-31.61-.28-31.88-1.25-2.36-8.42-3.43-11.24-6.49-17.22-9.69-18.88-32.4-33.36-52.6-33.52-2.75-.02-5.5-.37-6.12-.78-.62-.4-1.33-4.55-1.57-9.23-.52-9.73-1.99-13.24-7.96-19.03-3.97-3.85-9.57-6.18-17.85-7.44l-3.5-.53-.29-23.2c-.15-12.76-.38-23.28-.5-23.37-.11-.09-3.02-.4-6.46-.7l-6.25-.54V157h-51v-49.09l-6.75.29-6.75.3-.27 23.64-.27 23.64-3.65.69C452.46 159.63 443 170.6 443 186.99v5.64l-4.7.24c-27.63 1.43-52.11 19.88-59.54 44.88L376.6 245h-31.19c-28.53 0-31.38.15-33.41 1.8-2.21 1.79-2.22 1.97-2.29 34.25-.08 36.26.19 38.18 7.07 51.33 4.69 8.95 11.95 16.81 20.98 22.72 8.66 5.66 16.76 8.52 28.22 9.96 4.66.58 8.71 1.29 9 1.58 1.1 1.1 1.14 39.26.04 41.32-1.06 1.99-1.9 2.04-31.1 2.04h-30.01l-2.32 2.31-2.31 2.32.42 32.43c.46 35.35.77 37.63 6.68 49.94 4.56 9.49 16.76 21.56 26.62 26.34 8.9 4.31 17.07 6.53 25.18 6.85 3.26.13 6.36.76 6.89 1.4.58.69.86 9.65.7 22.04l-.27 20.87-31.22.5c-26.72.43-31.44.73-32.8 2.09-2.41 2.41-2.46 63.63-.06 72.41 2.59 9.5 7.55 18.21 14.72 25.89 10.9 11.68 23.1 17.64 40.4 19.77l9.46 1.16v9.09c0 24.03 12.76 44.75 35.08 56.98 7.63 4.18 19.99 7.61 27.43 7.61h5.19l.21 7.2c.13 4.58.94 8.9 2.21 11.86 3.61 8.4 12.88 15.34 22.11 16.56l4.77.64V873l-16.25.01c-15.01.01-16.63.19-21.25 2.38-11.39 5.4-16.36 14.19-17.2 30.42-.56 10.67-.55 10.7 2.21 13.44l2.76 2.75h89.37c88.03 0 89.39-.03 91.36-2m-172.66-12.27c-1.1-1.77.96-11.42 3.16-14.82 4.65-7.2 1.35-6.91 78.25-6.91h68.95l3.31 2.25c5.25 3.57 7.1 6.83 7.71 13.6l.56 6.15-46.89.06c-25.79.03-62.11.16-80.72.28-18.6.12-34.05-.15-34.33-.61m54.78-54.96c-.13-11.15.07-26.23.45-33.52l.7-13.25h50.76l-.27 33.25-.26 33.25-25.57.27-25.56.26zm-20.98-61.91c-5.99-2.99-8.13-6.83-8.14-14.61V770h111v5.03c0 6.69-1.98 11.09-6.56 14.59l-3.78 2.88-44.08.27c-43.57.27-44.13.25-48.44-1.91M431 755.91c-6.92-1.33-12.97-3.86-19-7.97-5.61-3.81-13.11-10.94-11.51-10.94.49 0-.3-1.24-1.75-2.75-3.14-3.28-6.1-9.69-8.2-17.77-1.36-5.22-1.54-32.19-1.54-235.05 0-150.85.35-231 1.02-234.54 3.64-19.36 20.51-36.23 39.87-39.87 3.35-.64 34.79-1.02 83.5-1.01 83.89.01 82.23-.08 93.83 5.23 7.67 3.52 17.71 13.25 21.63 20.97 6.58 12.97 6.13-5.65 6.14 248.86.01 255.83.53 234.98-6.24 248.43-3.84 7.63-14.39 18.09-21.95 21.75-11.73 5.69-12.98 5.76-95.62 5.64-41.62-.06-77.7-.5-80.18-.98m99.77-35.98c9.96-2.66 14.3-4.62 23.01-10.35 20.85-13.74 33.45-37.33 33.45-62.65-.01-34.07-23.4-64.25-56.23-72.54-10.87-2.74-27.87-2.53-38.5.47-14.54 4.11-25.78 10.99-35.9 21.96-22.9 24.79-26.03 62.39-7.56 90.74 7.32 11.24 21.59 23.33 33.73 28.57 14.09 6.09 33.66 7.64 48 3.8m-1.18-165.92c26.94-6.8 48.39-27.94 55.37-54.58 4.33-16.56 2.3-35.89-5.48-51.93-12.62-26.06-41.83-43.01-70.98-41.17-11.77.74-19.01 2.7-30 8.13-11.58 5.72-19.7 12.49-26.79 22.33-11.03 15.32-14.23 25.56-14.16 45.21.05 12.05.35 14.36 2.81 21.5 12.89 37.41 52.42 59.79 89.23 50.51m0-166.03c34.1-8.71 57.44-38.07 57.61-72.48.15-28.38-15.11-53.75-40.28-66.97-38.7-20.34-87.93-2.3-104.41 38.24-2.97 7.32-5.51 20.57-5.51 28.75 0 27.04 16.83 53.86 41.55 66.23 16.38 8.19 34.64 10.42 51.04 6.23M359.11 680.42c-13.89-3.74-25.54-13.31-31.81-26.14l-3.8-7.78-.32-29.25-.32-29.25h53.45l-.66 12.16c-.36 6.68-.65 27.83-.65 47V682l-5.25-.07c-2.89-.03-7.67-.71-10.64-1.51M649 635v-47h53.19l-.43 27.75c-.38 25.4-.61 28.25-2.59 33.67-7.13 19.39-25.3 32.58-44.88 32.58H649zM358.08 515.41c-11.44-3.07-23.75-12.75-29.3-23.03-5.12-9.49-5.78-14.41-5.78-43.09V423h26.61c23.85 0 26.54.16 26 1.58-.34.87-.61 22.02-.61 47V517l-5.75-.07c-3.16-.03-8.19-.72-11.17-1.52M649 470v-47h53.16l-.39 27.75c-.44 30.55-.99 33.69-7.72 44.17-8.33 12.96-24.5 22.08-39.16 22.08H649zM359.26 350.46c-16-4.31-28.87-16.46-34.2-32.29-1.87-5.55-2.06-8.51-2.06-32.64V259h53.31l-.65 11.25c-.36 6.19-.65 27.11-.66 46.5V352l-5.25-.07c-2.89-.03-7.61-.7-10.49-1.47M649 305.5V259h53l-.02 23.75c-.02 26.9-.97 33.65-6.16 43.52-3.88 7.39-12.43 16.17-19.43 19.95-6.4 3.45-15.31 5.78-22.1 5.78H649zM456.32 186.75c.3-7.55 2.06-11.42 6.58-14.46l3.4-2.29h45.94c51.33 0 49.58-.23 53.67 7.05 1.49 2.65 2.09 5.48 2.09 9.84V193H456.08zm30.93 505.2c-6.87-1.22-14.44-3.95-21.23-7.65-4.88-2.65-5.89-3.79-9.15-10.3-4.72-9.42-6.41-17.27-6.19-28.62.53-26.02 17.76-49.06 42.54-56.89 9.59-3.03 25.32-3.44 35.06-.92 8.92 2.31 19.41 7.9 19.58 10.43.02.28 1.42 3.54 3.11 7.26 7.98 17.62 8.2 35.37.63 51.92-7.36 16.1-23.47 29.41-40.72 33.65-6.8 1.67-17.65 2.19-23.63 1.12m17.25-149.58c-13.47-2.08-25.76-8.38-35.56-18.25-8.15-8.2-11.41-13.33-15.62-24.49-2.35-6.24-2.69-8.56-2.67-18.63.01-9.29.45-12.75 2.26-18 7.13-20.67 22.15-35.41 41.89-41.1 22.33-6.45 43.62-1.13 60.1 15 20.15 19.73 24.62 48.6 11.36 73.33-4.4 8.21-14.49 18.82-22.36 23.5-11.22 6.67-28.1 10.38-39.4 8.64m-3-166.82c-14.04-2.68-22.01-6.98-32.5-17.51-8.58-8.63-12.43-14.79-16.54-26.54-2.5-7.13-2.53-24.92-.07-33 8.71-28.52 34.87-47.14 63.53-45.19 28.01 1.9 50.96 22.16 56.53 49.9 1.92 9.52 1.94 13.6.13 22.95-6.36 33-38.81 55.54-71.08 49.39"/><path fill="#6bc928" d="M0 512V0h1024v1024H0zm604 408c1.75-1.75 2-3.33 2-12.82 0-7.23-.52-12.36-1.58-15.45-2.12-6.24-8.72-13.5-14.88-16.36-4.63-2.16-6.35-2.35-21.29-2.36L552 873v-66.77l4.75-.7c10.02-1.48 19.59-9.21 22.7-18.32.85-2.51 1.55-7.41 1.55-10.89V770h5.34c2.94 0 8.81-.89 13.05-1.97 29.49-7.54 49.61-33.89 49.61-64.96v-6.75l9.29-1.14c17.02-2.09 28.05-7.33 39.33-18.7 5.01-5.05 8.19-9.37 10.74-14.58 6.34-12.98 6.79-16.07 7.37-50.07.52-30.38.5-30.69-1.67-33.75l-2.2-3.08h-29.85c-16.41 0-30.56-.27-31.43-.61-1.37-.52-1.58-3.4-1.58-21.88 0-24.18-.69-22.47 9.04-22.5 6.51-.02 15.32-2.48 23.96-6.7 14.65-7.16 28.66-25.14 31.88-40.96 1.41-6.89 2.4-60.77 1.21-65.72-.52-2.13-1.44-4.38-2.06-5-.77-.77-11.13-1.29-32.33-1.63l-31.2-.5-.27-21.59-.27-21.58 9.27-1.15c12.26-1.51 20.41-4.38 29.33-10.35 11.56-7.73 19.79-18.39 24.58-31.83 2.22-6.22 2.33-7.97 2.66-40.18.33-32.96.3-33.72-1.73-35.75-2.01-2.01-3.05-2.07-33.6-2.07-24.37 0-31.61-.28-31.88-1.25-2.36-8.42-3.43-11.24-6.49-17.22-9.69-18.88-32.4-33.36-52.6-33.52-2.75-.02-5.5-.37-6.12-.78-.62-.4-1.33-4.55-1.57-9.23-.52-9.73-1.99-13.24-7.96-19.03-3.97-3.85-9.57-6.18-17.85-7.44l-3.5-.53-.29-23.2c-.15-12.76-.42-23.34-.59-23.51s-6.7-.6-14.5-.96l-14.19-.64.28 24.15.29 24.16h-7.09c-3.91 0-11.89.29-17.75.65l-10.66.65v-49.39l-6.75.29-6.75.3-.27 23.64-.27 23.64-3.65.69C452.46 159.63 443 170.6 443 186.99v5.64l-4.7.24c-27.63 1.43-52.11 19.88-59.54 44.88L376.6 245h-31.19c-28.53 0-31.38.15-33.41 1.8-2.21 1.79-2.22 1.97-2.29 34.25-.08 36.26.19 38.18 7.07 51.33 4.69 8.95 11.95 16.81 20.98 22.72 8.66 5.66 16.76 8.52 28.22 9.96 4.66.58 8.71 1.29 9 1.58 1.1 1.1 1.14 39.26.04 41.32-1.06 1.99-1.9 2.04-31.1 2.04h-30.01l-2.32 2.31-2.31 2.32.42 32.43c.46 35.35.77 37.63 6.68 49.94 4.56 9.49 16.76 21.56 26.62 26.34 8.9 4.31 17.07 6.53 25.18 6.85 3.26.13 6.36.76 6.89 1.4.58.69.86 9.65.7 22.04l-.27 20.87-31.22.5c-26.72.43-31.44.73-32.8 2.09-2.41 2.41-2.46 63.63-.06 72.41 2.59 9.5 7.55 18.21 14.72 25.89 10.9 11.68 23.1 17.64 40.4 19.77l9.46 1.16v9.09c0 24.03 12.76 44.75 35.08 56.98 7.63 4.18 19.99 7.61 27.43 7.61h5.19l.21 7.2c.13 4.58.94 8.9 2.21 11.86 3.61 8.4 12.88 15.34 22.11 16.56l4.77.64V873l-16.25.01c-15.01.01-16.63.19-21.25 2.38-11.39 5.4-16.36 14.19-17.2 30.42-.56 10.67-.55 10.7 2.21 13.44l2.76 2.75h89.37c88.03 0 89.39-.03 91.36-2m-172.66-12.27c-1.1-1.77.96-11.42 3.16-14.82 4.61-7.14 2.23-6.91 70.47-6.91h61.16l2.68 3.15c3.97 4.64 4.47 5.74 5.77 12.6l1.18 6.25-38.13.06c-20.97.03-53.35.16-71.96.28-18.6.12-34.05-.15-34.33-.61m54.79-55.48c-.14-10.86.05-25.71.44-33l.7-13.25H522v66h-35.61zm-22.92-62.39c-4.51-2.89-6.21-6.67-6.21-13.81V770h44.33c24.39 0 44.54.21 44.8.46.25.25.17 3.6-.18 7.44-.53 5.69-1.18 7.62-3.55 10.47l-2.9 3.49-36.5.05c-35.45.05-36.59 0-39.79-2.05m-50.71-50.52c-9.92-1.19-15.11-4.68-18.42-12.37-5.38-12.52-5.08 2.19-5.08-245.54 0-150.85.35-231 1.02-234.54 3.64-19.36 20.51-36.23 39.87-39.87 3.35-.64 34.79-1.02 83.5-1.01 83.87.01 82.28-.07 93.77 5.22 5.33 2.46 15.04 10.41 16.85 13.79.8 1.48.62 1.7-1.04 1.26-1.1-.29-2.25-.92-2.54-1.4-.3-.48-1.39-.88-2.42-.88-1.63 0-1.75.41-.94 3.24 1.39 4.84 1.24 463.71-.15 471.33-3.48 19.04-20.49 36.32-39.72 40.32-3.64.76-29.72 1.06-83.5.96-43.01-.08-79.55-.31-81.2-.51m118.27-19.41c9.96-2.66 14.3-4.62 23.01-10.35 20.85-13.74 33.45-37.33 33.45-62.65-.01-34.07-23.4-64.25-56.23-72.54-10.87-2.74-27.87-2.53-38.5.47-14.54 4.11-25.78 10.99-35.9 21.96-22.9 24.79-26.03 62.39-7.56 90.74 7.32 11.24 21.59 23.33 33.73 28.57 14.09 6.09 33.66 7.64 48 3.8m-1.18-165.92c26.94-6.8 48.39-27.94 55.37-54.58 4.33-16.56 2.3-35.89-5.48-51.93-12.62-26.06-41.83-43.01-70.98-41.17-11.77.74-19.01 2.7-30 8.13-11.58 5.72-19.7 12.49-26.79 22.33-11.03 15.32-14.23 25.56-14.16 45.21.05 12.05.35 14.36 2.81 21.5 12.89 37.41 52.42 59.79 89.23 50.51m0-166.03c34.1-8.71 57.44-38.07 57.61-72.48.15-28.38-15.11-53.75-40.28-66.97-38.7-20.34-87.93-2.3-104.41 38.24-2.97 7.32-5.51 20.57-5.51 28.75 0 27.04 16.83 53.86 41.55 66.23 16.38 8.19 34.64 10.42 51.04 6.23M359.11 680.42c-13.89-3.74-25.54-13.31-31.81-26.14l-3.8-7.78-.32-29.25-.32-29.25h53.45l-.66 12.16c-.36 6.68-.65 27.83-.65 47V682l-5.25-.07c-2.89-.03-7.67-.71-10.64-1.51M649 635v-47h53.19l-.43 27.75c-.38 25.4-.61 28.25-2.59 33.67-7.13 19.39-25.3 32.58-44.88 32.58H649zM358.08 515.41c-11.44-3.07-23.75-12.75-29.3-23.03-5.12-9.49-5.78-14.41-5.78-43.09V423h26.61c23.85 0 26.54.16 26 1.58-.34.87-.61 22.02-.61 47V517l-5.75-.07c-3.16-.03-8.19-.72-11.17-1.52M649 470v-47h53.16l-.39 27.75c-.44 30.55-.99 33.69-7.72 44.17-8.33 12.96-24.5 22.08-39.16 22.08H649zM359.26 350.46c-16-4.31-28.87-16.46-34.2-32.29-1.87-5.55-2.06-8.51-2.06-32.64V259h53.31l-.65 11.25c-.36 6.19-.65 27.11-.66 46.5V352l-5.25-.07c-2.89-.03-7.61-.7-10.49-1.47M649 305.5V259h53l-.02 23.75c-.02 26.9-.97 33.65-6.16 43.52-3.88 7.39-12.43 16.17-19.43 19.95-6.4 3.45-15.31 5.78-22.1 5.78H649zM456.35 186.25c.27-7.06 2.1-10.97 6.55-13.96 3.39-2.29 3.44-2.29 41.8-2.29h38.4l1.38 3.29c.75 1.81 1.6 6.76 1.88 11l.52 7.71h-90.75zm30.9 505.7c-6.87-1.22-14.44-3.95-21.23-7.65-4.88-2.65-5.89-3.79-9.15-10.3-4.72-9.42-6.41-17.27-6.19-28.62.53-26.02 17.76-49.06 42.54-56.89 9.59-3.03 25.32-3.44 35.06-.92 8.92 2.31 19.41 7.9 19.58 10.43.02.28 1.42 3.54 3.11 7.26 7.98 17.62 8.2 35.37.63 51.92-7.36 16.1-23.47 29.41-40.72 33.65-6.8 1.67-17.65 2.19-23.63 1.12m17.25-149.58c-13.47-2.08-25.76-8.38-35.56-18.25-8.15-8.2-11.41-13.33-15.62-24.49-2.35-6.24-2.69-8.56-2.67-18.63.01-9.29.45-12.75 2.26-18 7.13-20.67 22.15-35.41 41.89-41.1 22.33-6.45 43.62-1.13 60.1 15 20.15 19.73 24.62 48.6 11.36 73.33-4.4 8.21-14.49 18.82-22.36 23.5-11.22 6.67-28.1 10.38-39.4 8.64m-3-166.82c-14.04-2.68-22.01-6.98-32.5-17.51-8.58-8.63-12.43-14.79-16.54-26.54-2.5-7.13-2.53-24.92-.07-33 8.71-28.52 34.87-47.14 63.53-45.19 28.01 1.9 50.96 22.16 56.53 49.9 1.92 9.52 1.94 13.6.13 22.95-6.36 33-38.81 55.54-71.08 49.39"/><path fill="#748691" d="M0 512V0h1024v1024H0zm604 408c1.75-1.75 2-3.33 2-12.82 0-7.23-.52-12.36-1.58-15.45-2.12-6.24-8.72-13.5-14.88-16.36-4.63-2.16-6.35-2.35-21.29-2.36L552 873v-66.77l4.75-.7c10.02-1.48 19.59-9.21 22.7-18.32.85-2.51 1.55-7.41 1.55-10.89V770h5.34c2.94 0 8.81-.89 13.05-1.97 29.49-7.54 49.61-33.89 49.61-64.96v-6.75l9.29-1.14c17.02-2.09 28.05-7.33 39.33-18.7 5.01-5.05 8.19-9.37 10.74-14.58 6.34-12.98 6.79-16.07 7.37-50.07.52-30.38.5-30.69-1.67-33.75l-2.2-3.08h-29.85c-16.41 0-30.56-.27-31.43-.61-1.37-.52-1.58-3.4-1.58-21.88 0-24.18-.69-22.47 9.04-22.5 6.51-.02 15.32-2.48 23.96-6.7 14.65-7.16 28.66-25.14 31.88-40.96 1.41-6.89 2.4-60.77 1.21-65.72-.52-2.13-1.44-4.38-2.06-5-.77-.77-11.13-1.29-32.33-1.63l-31.2-.5-.27-21.59-.27-21.58 9.27-1.15c12.26-1.51 20.41-4.38 29.33-10.35 11.56-7.73 19.79-18.39 24.58-31.83 2.22-6.22 2.33-7.97 2.66-40.18.33-32.96.3-33.72-1.73-35.75-2.01-2.01-3.05-2.07-33.6-2.07-24.37 0-31.61-.28-31.88-1.25-2.36-8.42-3.43-11.24-6.49-17.22-9.69-18.88-32.4-33.36-52.6-33.52-2.75-.02-5.5-.37-6.12-.78-.62-.4-1.33-4.55-1.57-9.23-.52-9.73-1.99-13.24-7.96-19.03-3.97-3.85-9.57-6.18-17.85-7.44l-3.5-.53-.29-23.2c-.15-12.76-.42-23.34-.59-23.51s-6.7-.6-14.5-.96l-14.19-.64.28 24.15.29 24.16h-7.09c-3.91 0-11.89.29-17.75.65l-10.66.65v-49.39l-6.75.29-6.75.3-.27 23.64-.27 23.64-3.65.69C452.46 159.63 443 170.6 443 186.99v5.64l-4.7.24c-27.63 1.43-52.11 19.88-59.54 44.88L376.6 245h-31.19c-28.53 0-31.38.15-33.41 1.8-2.21 1.79-2.22 1.97-2.29 34.25-.08 36.26.19 38.18 7.07 51.33 4.69 8.95 11.95 16.81 20.98 22.72 8.66 5.66 16.76 8.52 28.22 9.96 4.66.58 8.71 1.29 9 1.58 1.1 1.1 1.14 39.26.04 41.32-1.06 1.99-1.9 2.04-31.1 2.04h-30.01l-2.32 2.31-2.31 2.32.42 32.43c.46 35.35.77 37.63 6.68 49.94 4.56 9.49 16.76 21.56 26.62 26.34 8.9 4.31 17.07 6.53 25.18 6.85 3.26.13 6.36.76 6.89 1.4.58.69.86 9.65.7 22.04l-.27 20.87-31.22.5c-26.72.43-31.44.73-32.8 2.09-2.41 2.41-2.46 63.63-.06 72.41 2.59 9.5 7.55 18.21 14.72 25.89 10.9 11.68 23.1 17.64 40.4 19.77l9.46 1.16v9.09c0 24.03 12.76 44.75 35.08 56.98 7.63 4.18 19.99 7.61 27.43 7.61h5.19l.21 7.2c.13 4.58.94 8.9 2.21 11.86 3.61 8.4 12.88 15.34 22.11 16.56l4.77.64V873l-16.25.01c-15.01.01-16.63.19-21.25 2.38-11.39 5.4-16.36 14.19-17.2 30.42-.56 10.67-.55 10.7 2.21 13.44l2.76 2.75h89.37c88.03 0 89.39-.03 91.36-2m-172.66-12.27c-1.1-1.77.96-11.42 3.16-14.82 4.61-7.14 2.23-6.91 70.47-6.91h61.16l2.68 3.15c3.97 4.64 4.47 5.74 5.77 12.6l1.18 6.25-38.13.06c-20.97.03-53.35.16-71.96.28-18.6.12-34.05-.15-34.33-.61m54.79-55.48c-.14-10.86.05-25.71.44-33l.7-13.25H522v66h-35.61zm-22.92-62.39c-4.51-2.89-6.21-6.67-6.21-13.81V770h44.33c24.39 0 44.54.21 44.8.46.25.25.17 3.6-.18 7.44-.53 5.69-1.18 7.62-3.55 10.47l-2.9 3.49-36.5.05c-35.45.05-36.59 0-39.79-2.05m-50.71-50.52c-9.92-1.19-15.11-4.68-18.42-12.37-5.38-12.52-5.08 2.19-5.08-245.54 0-150.85.35-231 1.02-234.54 3.64-19.36 20.51-36.23 39.87-39.87 3.35-.64 34.79-1.02 83.5-1.01 83.87.01 82.28-.07 93.77 5.22 5.33 2.46 15.04 10.41 16.85 13.79.8 1.48.62 1.7-1.04 1.26-1.1-.29-2.25-.92-2.54-1.4-.3-.48-1.39-.88-2.42-.88-1.63 0-1.75.41-.94 3.24 1.39 4.84 1.24 463.71-.15 471.33-3.48 19.04-20.49 36.32-39.72 40.32-3.64.76-29.72 1.06-83.5.96-43.01-.08-79.55-.31-81.2-.51m118.27-19.41c9.96-2.66 14.3-4.62 23.01-10.35 20.85-13.74 33.45-37.33 33.45-62.65-.01-34.07-23.4-64.25-56.23-72.54-10.87-2.74-27.87-2.53-38.5.47-14.54 4.11-25.78 10.99-35.9 21.96-22.9 24.79-26.03 62.39-7.56 90.74 7.32 11.24 21.59 23.33 33.73 28.57 14.09 6.09 33.66 7.64 48 3.8m-1.18-165.92c26.94-6.8 48.39-27.94 55.37-54.58 4.33-16.56 2.3-35.89-5.48-51.93-12.62-26.06-41.83-43.01-70.98-41.17-11.77.74-19.01 2.7-30 8.13-11.58 5.72-19.7 12.49-26.79 22.33-11.03 15.32-14.23 25.56-14.16 45.21.05 12.05.35 14.36 2.81 21.5 12.89 37.41 52.42 59.79 89.23 50.51m0-166.03c34.1-8.71 57.44-38.07 57.61-72.48.15-28.38-15.11-53.75-40.28-66.97-38.7-20.34-87.93-2.3-104.41 38.24-2.97 7.32-5.51 20.57-5.51 28.75 0 27.04 16.83 53.86 41.55 66.23 16.38 8.19 34.64 10.42 51.04 6.23M359.11 680.42c-13.89-3.74-25.54-13.31-31.81-26.14l-3.8-7.78-.32-29.25-.32-29.25h53.45l-.66 12.16c-.36 6.68-.65 27.83-.65 47V682l-5.25-.07c-2.89-.03-7.67-.71-10.64-1.51M649 635v-47h53.19l-.43 27.75c-.38 25.4-.61 28.25-2.59 33.67-7.13 19.39-25.3 32.58-44.88 32.58H649zM358.08 515.41c-11.44-3.07-23.75-12.75-29.3-23.03-5.12-9.49-5.78-14.41-5.78-43.09V423h26.61c23.85 0 26.54.16 26 1.58-.34.87-.61 22.02-.61 47V517l-5.75-.07c-3.16-.03-8.19-.72-11.17-1.52M649 470v-47h53.16l-.39 27.75c-.44 30.55-.99 33.69-7.72 44.17-8.33 12.96-24.5 22.08-39.16 22.08H649zM359.26 350.46c-16-4.31-28.87-16.46-34.2-32.29-1.87-5.55-2.06-8.51-2.06-32.64V259h53.31l-.65 11.25c-.36 6.19-.65 27.11-.66 46.5V352l-5.25-.07c-2.89-.03-7.61-.7-10.49-1.47M649 305.5V259h53l-.02 23.75c-.02 26.9-.97 33.65-6.16 43.52-3.88 7.39-12.43 16.17-19.43 19.95-6.4 3.45-15.31 5.78-22.1 5.78H649zM456.35 186.25c.27-7.06 2.1-10.97 6.55-13.96 3.39-2.29 3.44-2.29 41.8-2.29h38.4l1.38 3.29c.75 1.81 1.6 6.76 1.88 11l.52 7.71h-90.75zm7.02 461.11c-.9-3.6 1.9-15.95 5.2-22.91 3.35-7.08 13.2-17.3 20-20.74 10.6-5.36 23.71-7.26 26.78-3.88 3.97 4.39.93 8.59-6.85 9.47-16.5 1.86-29.4 13.27-33.1 29.29-2.4 10.4-3.07 11.41-7.55 11.41-3.29 0-3.9-.36-4.48-2.64m41.13-104.99c-13.47-2.08-25.76-8.38-35.56-18.25-8.15-8.2-11.41-13.33-15.62-24.49-2.35-6.24-2.69-8.56-2.67-18.63.01-9.29.45-12.75 2.26-18 7.13-20.67 22.15-35.41 41.89-41.1 22.33-6.45 43.62-1.13 60.1 15 20.15 19.73 24.62 48.6 11.36 73.33-4.4 8.21-14.49 18.82-22.36 23.5-11.22 6.67-28.1 10.38-39.4 8.64m-3-166.82c-14.04-2.68-22.01-6.98-32.5-17.51-8.58-8.63-12.43-14.79-16.54-26.54-2.5-7.13-2.53-24.92-.07-33 8.71-28.52 34.87-47.14 63.53-45.19 28.01 1.9 50.96 22.16 56.53 49.9 1.92 9.52 1.94 13.6.13 22.95-6.36 33-38.81 55.54-71.08 49.39"/><path fill="#96a9b3" d="M0 512V0h1024v1024H0zm604 408c1.75-1.75 2-3.33 2-12.82 0-7.23-.52-12.36-1.58-15.45-2.12-6.24-8.72-13.5-14.88-16.36-4.63-2.16-6.35-2.35-21.29-2.36L552 873v-66.77l4.75-.7c10.02-1.48 19.59-9.21 22.7-18.32.85-2.51 1.55-7.41 1.55-10.89V770h5.34c2.94 0 8.81-.89 13.05-1.97 29.49-7.54 49.61-33.89 49.61-64.96v-6.75l9.29-1.14c17.02-2.09 28.05-7.33 39.33-18.7 5.01-5.05 8.19-9.37 10.74-14.58 6.34-12.98 6.79-16.07 7.37-50.07.52-30.38.5-30.69-1.67-33.75l-2.2-3.08h-29.85c-16.41 0-30.56-.27-31.43-.61-1.37-.52-1.58-3.4-1.58-21.88 0-24.18-.69-22.47 9.04-22.5 6.51-.02 15.32-2.48 23.96-6.7 14.65-7.16 28.66-25.14 31.88-40.96 1.41-6.89 2.4-60.77 1.21-65.72-.52-2.13-1.44-4.38-2.06-5-.77-.77-11.13-1.29-32.33-1.63l-31.2-.5-.27-21.59-.27-21.58 9.27-1.15c12.26-1.51 20.41-4.38 29.33-10.35 11.56-7.73 19.79-18.39 24.58-31.83 2.22-6.22 2.33-7.97 2.66-40.18.33-32.96.3-33.72-1.73-35.75-2.01-2.01-3.05-2.07-33.6-2.07-24.37 0-31.61-.28-31.88-1.25-2.36-8.42-3.43-11.24-6.49-17.22-9.69-18.88-32.4-33.36-52.6-33.52-2.75-.02-5.5-.37-6.12-.78-.62-.4-1.33-4.55-1.57-9.23-.52-9.73-1.99-13.24-7.96-19.03-3.97-3.85-9.57-6.18-17.85-7.44l-3.5-.53-.22-16.25c-.12-8.94-.23-19.45-.25-23.37l-.03-7.12-15.75-1.21c-8.66-.66-19.75-1.06-24.64-.88l-8.9.33-.1 24.5-.11 24.5-7.25.29-7.25.3v-49.18l-6.75.29-6.75.3-.27 23.64-.27 23.64-3.65.69C452.46 159.63 443 170.6 443 186.99v5.64l-4.7.24c-27.63 1.43-52.11 19.88-59.54 44.88L376.6 245h-31.19c-28.53 0-31.38.15-33.41 1.8-2.21 1.79-2.22 1.97-2.29 34.25-.08 36.26.19 38.18 7.07 51.33 4.69 8.95 11.95 16.81 20.98 22.72 8.66 5.66 16.76 8.52 28.22 9.96 4.66.58 8.71 1.29 9 1.58 1.1 1.1 1.14 39.26.04 41.32-1.06 1.99-1.9 2.04-31.1 2.04h-30.01l-2.32 2.31-2.31 2.32.42 32.43c.46 35.35.77 37.63 6.68 49.94 4.56 9.49 16.76 21.56 26.62 26.34 8.9 4.31 17.07 6.53 25.18 6.85 3.26.13 6.36.76 6.89 1.4.58.69.86 9.65.7 22.04l-.27 20.87-31.22.5c-26.72.43-31.44.73-32.8 2.09-2.41 2.41-2.46 63.63-.06 72.41 2.59 9.5 7.55 18.21 14.72 25.89 10.9 11.68 23.1 17.64 40.4 19.77l9.46 1.16v9.09c0 24.03 12.76 44.75 35.08 56.98 7.63 4.18 19.99 7.61 27.43 7.61h5.19l.21 7.2c.13 4.58.94 8.9 2.21 11.86 3.61 8.4 12.88 15.34 22.11 16.56l4.77.64V873l-16.25.01c-15.01.01-16.63.19-21.25 2.38-11.39 5.4-16.36 14.19-17.2 30.42-.56 10.67-.55 10.7 2.21 13.44l2.76 2.75h89.37c88.03 0 89.39-.03 91.36-2m-172.53-12.05c-1.21-1.95.7-11.44 3.03-15.04 3.18-4.93 7.81-6.91 16.12-6.91 6.75 0 6.8.02 4.35 1.72-5.6 3.89-9 10.13-9.29 17.03l-.18 4.25h-6.69c-3.68 0-6.98-.47-7.34-1.05m54.66-55.7c-.14-10.86.05-25.71.44-33l.7-13.25h14.63l.07 33 .08 33h-15.66zM403.5 737.29c-3.2-.77-7.19-5.14-9.42-10.32-5.38-12.52-5.08 2.19-5.08-245.54 0-150.85.35-231 1.02-234.54 3.64-19.36 20.51-36.23 39.87-39.87 3.35-.64 34.79-1.02 83.5-1.01 83.93.01 82.35-.07 93.77 5.25 5.01 2.34 13.84 9.08 13.84 10.57 0 .37-38.14.52-84.75.34-91.79-.35-90.68-.41-102.25 5.14-7.74 3.72-18.23 13.75-22.23 21.26-6.16 11.56-5.77-5.1-5.75 247.39.01 190.26.25 231.54 1.36 236.29 1.47 6.22 1.4 6.31-3.88 5.04m59.87-89.93c-.9-3.6 1.9-15.95 5.2-22.91 3.35-7.08 13.2-17.3 20-20.74 10.6-5.36 23.71-7.26 26.78-3.88 3.97 4.39.93 8.59-6.85 9.47-16.5 1.86-29.4 13.27-33.1 29.29-2.4 10.4-3.07 11.41-7.55 11.41-3.29 0-3.9-.36-4.48-2.64M323 596v-8h53v16h-53zm326 0v-8h53v16h-53zm-144.5-53.63c-13.47-2.08-25.76-8.38-35.56-18.25-8.15-8.2-11.41-13.33-15.62-24.49-2.35-6.24-2.69-8.56-2.67-18.63.01-9.29.45-12.75 2.26-18 7.13-20.67 22.15-35.41 41.89-41.1 22.33-6.45 43.62-1.13 60.1 15 20.15 19.73 24.62 48.6 11.36 73.33-4.4 8.21-14.49 18.82-22.36 23.5-11.22 6.67-28.1 10.38-39.4 8.64M323 431.25V423h26.61c23.85 0 26.54.16 26 1.58-.34.87-.61 4.58-.61 8.25v6.67h-52zm351.75 8-25.75-.28V423h53v8.5c0 4.67-.34 8.4-.75 8.27s-12.34-.36-26.5-.52m-173.25-63.7c-14.04-2.68-22.01-6.98-32.5-17.51-8.58-8.63-12.43-14.79-16.54-26.54-2.5-7.13-2.53-24.92-.07-33 8.71-28.52 34.87-47.14 63.53-45.19 28.01 1.9 50.96 22.16 56.53 49.9 1.92 9.52 1.94 13.6.13 22.95-6.36 33-38.81 55.54-71.08 49.39M323 266.75V259h53v14.94l-26.5.28-26.5.28zm326-.25V259h53v15h-53z"/><path fill="#baeaf9" d="M0 512V0h1024v1024H0zm604 408c1.75-1.75 2-3.33 2-12.82 0-7.23-.52-12.36-1.58-15.45-2.12-6.24-8.72-13.5-14.88-16.36-4.63-2.16-6.35-2.35-21.29-2.36L552 873v-66.77l4.75-.7c10.02-1.48 19.59-9.21 22.7-18.32.85-2.51 1.55-7.41 1.55-10.89V770h5.34c2.94 0 8.81-.89 13.05-1.97 29.49-7.54 49.61-33.89 49.61-64.96v-6.75l9.29-1.14c17.02-2.09 28.05-7.33 39.33-18.7 5.01-5.05 8.19-9.37 10.74-14.58 6.34-12.98 6.79-16.07 7.37-50.07.52-30.38.5-30.69-1.67-33.75l-2.2-3.08h-29.85c-16.41 0-30.56-.27-31.43-.61-1.37-.52-1.58-3.4-1.58-21.88 0-24.18-.69-22.47 9.04-22.5 6.51-.02 15.32-2.48 23.96-6.7 14.65-7.16 28.66-25.14 31.88-40.96 1.41-6.89 2.4-60.77 1.21-65.72-.52-2.13-1.44-4.38-2.06-5-.77-.77-11.13-1.29-32.33-1.63l-31.2-.5-.27-21.59-.27-21.58 9.27-1.15c12.26-1.51 20.41-4.38 29.33-10.35 11.56-7.73 19.79-18.39 24.58-31.83 2.22-6.22 2.33-7.97 2.66-40.18.33-32.96.3-33.72-1.73-35.75-2.01-2.01-3.05-2.07-33.6-2.07-24.37 0-31.61-.28-31.88-1.25-2.36-8.42-3.43-11.24-6.49-17.22-9.69-18.88-32.4-33.36-52.6-33.52-2.75-.02-5.5-.37-6.12-.78-.62-.4-1.33-4.55-1.57-9.23-.52-9.73-1.99-13.24-7.96-19.03-3.97-3.85-9.57-6.18-17.85-7.44l-3.5-.53-.22-16.25c-.12-8.94-.23-19.45-.25-23.37l-.03-7.12-16.18-1.27c-15.97-1.27-58.49-.93-60.76.47-.7.43-1.06 8.65-1.06 23.99v23.33l-3.67.69c-16.88 3.16-26.33 14.12-26.33 30.52v5.64l-4.7.24c-27.63 1.43-52.11 19.88-59.54 44.88L376.6 245h-31.19c-28.53 0-31.38.15-33.41 1.8-2.21 1.79-2.22 1.97-2.29 34.25-.08 36.26.19 38.18 7.07 51.33 4.69 8.95 11.95 16.81 20.98 22.72 8.66 5.66 16.76 8.52 28.22 9.96 4.66.58 8.71 1.29 9 1.58 1.1 1.1 1.14 39.26.04 41.32-1.06 1.99-1.9 2.04-31.1 2.04h-30.01l-2.32 2.31-2.31 2.32.42 32.43c.46 35.35.77 37.63 6.68 49.94 4.56 9.49 16.76 21.56 26.62 26.34 8.9 4.31 17.07 6.53 25.18 6.85 3.26.13 6.36.76 6.89 1.4.58.69.86 9.65.7 22.04l-.27 20.87-31.22.5c-26.72.43-31.44.73-32.8 2.09-2.41 2.41-2.46 63.63-.06 72.41 2.59 9.5 7.55 18.21 14.72 25.89 10.9 11.68 23.1 17.64 40.4 19.77l9.46 1.16v9.09c0 24.03 12.76 44.75 35.08 56.98 7.63 4.18 19.99 7.61 27.43 7.61h5.19l.21 7.2c.13 4.58.94 8.9 2.21 11.86 3.61 8.4 12.88 15.34 22.11 16.56l4.77.64V873l-16.25.01c-15.01.01-16.63.19-21.25 2.38-11.39 5.4-16.36 14.19-17.2 30.42-.56 10.67-.55 10.7 2.21 13.44l2.76 2.75h89.37c88.03 0 89.39-.03 91.36-2m-99.5-377.63c-13.47-2.08-25.76-8.38-35.56-18.25-8.15-8.2-11.41-13.33-15.62-24.49-2.35-6.24-2.69-8.56-2.67-18.63.01-9.29.45-12.75 2.26-18 7.13-20.67 22.15-35.41 41.89-41.1 22.33-6.45 43.62-1.13 60.1 15 20.15 19.73 24.62 48.6 11.36 73.33-4.4 8.21-14.49 18.82-22.36 23.5-11.22 6.67-28.1 10.38-39.4 8.64m-3-166.82c-14.04-2.68-22.01-6.98-32.5-17.51-8.58-8.63-12.43-14.79-16.54-26.54-2.5-7.13-2.53-24.92-.07-33 8.71-28.52 34.87-47.14 63.53-45.19 28.01 1.9 50.96 22.16 56.53 49.9 1.92 9.52 1.94 13.6.13 22.95-6.36 33-38.81 55.54-71.08 49.39"/><path fill="#fff" d="M0 512V0h1024v1024H0zm604 408c1.75-1.75 2-3.33 2-12.82 0-7.23-.52-12.36-1.58-15.45-2.12-6.24-8.72-13.5-14.88-16.36-4.63-2.16-6.35-2.35-21.29-2.36L552 873v-24.04c0-23.45.05-24.01 1.93-23 1.3.7 35.97 1.04 105.31 1.04h103.37l6.95-5.69c11.08-9.09 43.51-41.89 52.19-52.81 13.63-17.14 34.25-46.61 34.25-48.95 0-.41.85-1.94 1.88-3.4 1.69-2.37 6.11-10.24 10.47-18.65 6.2-11.96 21.65-48.68 21.65-51.47 0-.62.67-2.42 1.48-3.99.81-1.58 2.67-7.29 4.12-12.7 1.46-5.41 3.28-12.09 4.06-14.84s2.32-9.28 3.42-14.5c7.29-34.64 8.99-50.75 9.16-86.5.17-36.17-.37-41.55-8.73-87.68-2.25-12.43-10.01-38.55-17.32-58.32-3.48-9.4-13.85-32.84-17.7-40-7.16-13.33-10.09-18.51-13.82-24.5-19.48-31.24-33.73-49.6-57.77-74.41-29.75-30.71-57.33-51.43-101.64-76.35-10.62-5.98-45.57-20.73-59.82-25.26-29.65-9.41-60-16.12-73.96-16.33-5.2-.08-9.47-.43-9.47-.76-.03-1.64-35.92-3.17-57.21-2.44-12.26.42-23.42.73-24.8.69-3.48-.1-23.23 2.53-37 4.92-13.57 2.36-31.75 6.85-45 11.14-5.23 1.68-12.88 4.15-17 5.48-4.12 1.32-8.4 2.82-9.5 3.34-1.1.51-4.59 1.87-7.75 3.03-7.72 2.81-39.92 18.82-51.75 25.72-12.76 7.44-33.85 21.37-39.35 25.99-2.45 2.06-7.52 6.22-11.26 9.24-7.28 5.89-25.99 22.71-33.41 30.04-16.54 16.32-46.72 54.47-55.12 69.67-1.76 3.19-3.77 6.48-4.48 7.32-3.07 3.64-20.96 38.97-25.56 50.47-8.3 20.75-12.59 32.74-15.4 43-7.72 28.17-10.2 40.48-13.59 67.5-1.83 14.59-2.2 22.57-2.2 48 0 18.32.49 34.29 1.23 40 3.17 24.51 7.5 48.46 10.66 59 .74 2.47 2.77 9.67 4.51 16 4.57 16.6 13.87 41.53 21.51 57.63 5.03 10.6 18.45 35.04 22.44 40.87 1.5 2.2 4.21 6.38 6 9.28 6.07 9.81 19.66 27.83 31.02 41.12 7.95 9.3 39.51 40.37 46.83 46.1 5.14 4.02 5.57 4.17 12 3.98 3.67-.11 53.58-.15 110.92-.09L473 827v46l-16.25.01c-15.01.01-16.63.19-21.25 2.38-11.39 5.4-16.36 14.19-17.2 30.42-.56 10.67-.55 10.7 2.21 13.44l2.76 2.75h89.37c88.03 0 89.39-.03 91.36-2M372.03 574.32c.05-1.15 2.54-4.32 3.4-4.32 1.53 0-.04 4.5-1.68 4.81-.96.19-1.74-.03-1.72-.49m132.47-31.95c-13.47-2.08-25.76-8.38-35.56-18.25-8.15-8.2-11.41-13.33-15.62-24.49-2.35-6.24-2.69-8.56-2.67-18.63.01-9.29.45-12.75 2.26-18 7.13-20.67 22.15-35.41 41.89-41.1 22.33-6.45 43.62-1.13 60.1 15 20.15 19.73 24.62 48.6 11.36 73.33-4.4 8.21-14.49 18.82-22.36 23.5-11.22 6.67-28.1 10.38-39.4 8.64m-3-166.82c-14.04-2.68-22.01-6.98-32.5-17.51-8.58-8.63-12.43-14.79-16.54-26.54-2.5-7.13-2.53-24.92-.07-33 8.71-28.52 34.87-47.14 63.53-45.19 28.01 1.9 50.96 22.16 56.53 49.9 1.92 9.52 1.94 13.6.13 22.95-6.36 33-38.81 55.54-71.08 49.39"/><path fill="#e82721" d="M504.5 542.37c-13.47-2.08-25.76-8.38-35.56-18.25-8.15-8.2-11.41-13.33-15.62-24.49-2.35-6.24-2.69-8.56-2.67-18.63.01-9.29.45-12.75 2.26-18 7.13-20.67 22.15-35.41 41.89-41.1 22.33-6.45 43.62-1.13 60.1 15 20.15 19.73 24.62 48.6 11.36 73.33-4.4 8.21-14.49 18.82-22.36 23.5-11.22 6.67-28.1 10.38-39.4 8.64m-3-166.82c-14.04-2.68-22.01-6.98-32.5-17.51-8.58-8.63-12.43-14.79-16.54-26.54-2.5-7.13-2.53-24.92-.07-33 8.71-28.52 34.87-47.14 63.53-45.19 28.01 1.9 50.96 22.16 56.53 49.9 1.92 9.52 1.94 13.6.13 22.95-6.36 33-38.81 55.54-71.08 49.39"/><path fill="#f6a624" d="M504.5 542.37c-13.47-2.08-25.76-8.38-35.56-18.25-8.15-8.2-11.41-13.33-15.62-24.49-2.35-6.24-2.69-8.56-2.67-18.63.01-9.29.45-12.75 2.26-18 7.13-20.67 22.15-35.41 41.89-41.1 22.33-6.45 43.62-1.13 60.1 15 20.15 19.73 24.62 48.6 11.36 73.33-4.4 8.21-14.49 18.82-22.36 23.5-11.22 6.67-28.1 10.38-39.4 8.64M465 318c-5.77-5.77.87-26.57 12.13-38.04 8.2-8.34 18.33-13.14 29.06-13.77 7.06-.4 8.31-.22 9.47 1.36 1.85 2.53 1.67 5.84-.41 7.69-.96.86-4.82 2.03-8.57 2.6-3.75.58-8.77 2-11.16 3.15-10.85 5.25-18.68 16.31-20.35 28.75-1.25 9.34-5.58 12.85-10.17 8.26"/></g></svg>