<svg xmlns="http://www.w3.org/2000/svg" width="85" height="82" fill="none" viewBox="0 0 85 82"><path fill="#daedf7" stroke="#daedf7" d="M1 41a40 40 0 1 0 80 0 40 40 0 0 0-80 0Z"/><path fill="#b8ecff" stroke="#009fd9" stroke-linecap="round" stroke-linejoin="round" d="M78.779 37.324a1.9 1.9 0 0 0-2.6-.697l-2.797 1.614a24.21 24.21 0 0 0-12.13-23.086l1.344-.314a1.905 1.905 0 0 0 1.115-2.962 1.9 1.9 0 0 0-1.979-.745l-7.078 1.65q-.122.045-.236.11a2 2 0 0 0-.355.164q-.148.106-.27.238a1.8 1.8 0 0 0-.245.264q-.108.167-.177.355a2 2 0 0 0-.116.233c-.007.028.001.055-.004.083a4 4 0 0 0-.013.756c.005.028-.004.056.003.085l1.65 7.077a1.903 1.903 0 1 0 3.706-.863l-.852-3.658a20.39 20.39 0 0 1 11.929 18.458l-.82-1.42a1.904 1.904 0 0 0-3.297 1.904l3.634 6.294s.009.007.011.012a1.886 1.886 0 0 0 2.569.689s.012-.002.018-.005l6.293-3.636a1.9 1.9 0 0 0 .697-2.6"/><path fill="#adc4d9" d="M23.02 15.05a6.06 6.06 0 0 0 6.05 6.05h4.4a1.1 1.1 0 0 1 1.1 1.1v4.4h3.3v-4.4a1.1 1.1 0 0 1 1.1-1.1h4.4a6.05 6.05 0 1 0 0-12.1 5.56 5.56 0 0 0-5.2 3.6l-.917 2.45a1.1 1.1 0 0 1-2.06 0l-.917-2.45a5.55 5.55 0 0 0-5.2-3.6 6.054 6.054 0 0 0-6.056 6.05m18.15.24a2.295 2.295 0 1 1 2.3 2.288 2.305 2.305 0 0 1-2.3-2.288m-14.476 0a2.288 2.288 0 1 1 2.288 2.288 2.3 2.3 0 0 1-2.288-2.288"/><path fill="#daedf7" d="M29.07 10.997a5.55 5.55 0 0 1 5.2 3.6 2.08 2.08 0 0 0 3.894 0 5.56 5.56 0 0 1 5.2-3.6 6.04 6.04 0 0 1 5.961 5.05A6.014 6.014 0 0 0 43.37 9a5.56 5.56 0 0 0-5.2 3.6l-.917 2.45a1.1 1.1 0 0 1-2.06 0l-.917-2.45a5.55 5.55 0 0 0-5.2-3.6 6.054 6.054 0 0 0-6.05 6.05q.003.504.09 1a6.05 6.05 0 0 1 5.954-5.053"/><path stroke="#45413c" stroke-linecap="round" stroke-linejoin="round" d="M23.02 15.05a6.06 6.06 0 0 0 6.05 6.05h4.4a1.1 1.1 0 0 1 1.1 1.1v4.4h3.3v-4.4a1.1 1.1 0 0 1 1.1-1.1h4.4a6.05 6.05 0 1 0 0-12.1 5.56 5.56 0 0 0-5.2 3.6l-.917 2.45a1.1 1.1 0 0 1-2.06 0l-.917-2.45a5.55 5.55 0 0 0-5.2-3.6 6.054 6.054 0 0 0-6.056 6.05m18.15.24a2.295 2.295 0 1 1 2.3 2.288 2.305 2.305 0 0 1-2.3-2.288m-14.476 0a2.288 2.288 0 1 1 2.288 2.288 2.3 2.3 0 0 1-2.288-2.288"/><path fill="#fc9" stroke="#45413c" stroke-linecap="round" stroke-linejoin="round" d="M37.685 58.046a1.983 1.983 0 0 0-2.763.46l-5.07 7.1a1.1 1.1 0 0 1-1.387.344l-2.926-1.46a1.98 1.98 0 1 0-1.77 3.543l7.92 3.96a1.982 1.982 0 0 0 1.77-3.543.543.543 0 0 1-.2-.8l4.884-6.838a1.98 1.98 0 0 0-.458-2.766"/><path fill="#ffaa54" d="M30.575 64.597a18 18 0 0 0 3.332 2.144l4.238-5.932a1.98 1.98 0 0 0-3.223-2.3l-4.349 6.089"/><path stroke="#45413c" stroke-linecap="round" stroke-linejoin="round" d="M37.685 58.046a1.983 1.983 0 0 0-2.763.46l-5.07 7.1a1.1 1.1 0 0 1-1.387.344l-2.926-1.46a1.98 1.98 0 1 0-1.77 3.543l7.92 3.96a1.982 1.982 0 0 0 1.77-3.543.543.543 0 0 1-.2-.8l4.884-6.838a1.98 1.98 0 0 0-.458-2.766"/><path fill="#45413c" d="M24.325 73.124c0 .403 1.812.789 5.037 1.074 3.225.284 7.598.444 12.16.444 4.56 0 8.934-.16 12.159-.444 3.224-.285 5.036-.671 5.036-1.074 0-.402-1.812-.789-5.036-1.073-3.225-.285-7.6-.445-12.16-.445s-8.934.16-12.16.445c-3.224.284-5.036.67-5.036 1.073" opacity=".15"/><path fill="#ffe500" d="M60.88 47.527a1.32 1.32 0 0 1 1.312 1.468C61.177 58.063 50.928 65.19 41.655 65.19a17.666 17.666 0 0 1-17.66-17.663v-9.649a11.88 11.88 0 0 1 23.76 0v7.012a2.64 2.64 0 0 0 2.64 2.64z"/><path fill="#ebcb00" d="M23.994 42.69v4.842A17.667 17.667 0 0 0 41.655 65.19c9.273 0 19.522-7.125 20.537-16.193a1.32 1.32 0 0 0-.859-1.388c-2.825 7.362-11.616 12.744-19.68 12.744A17.67 17.67 0 0 1 24 42.69"/><path stroke="#45413c" stroke-linecap="round" stroke-linejoin="round" d="M60.88 47.527a1.32 1.32 0 0 1 1.312 1.468C61.177 58.063 50.928 65.19 41.655 65.19a17.666 17.666 0 0 1-17.66-17.663v-9.649a11.88 11.88 0 0 1 23.76 0v7.012a2.64 2.64 0 0 0 2.64 2.64z"/><path fill="#fff" stroke="#45413c" stroke-linecap="round" stroke-linejoin="round" d="M28.32 37.218a5.94 5.94 0 1 0 11.88 0 5.94 5.94 0 0 0-11.88 0"/><path fill="#4acfff" stroke="#45413c" stroke-linecap="round" stroke-linejoin="round" d="M29.19 35.118a2.97 2.97 0 1 0 5.94 0 2.97 2.97 0 0 0-5.94 0"/><path fill="#ffaa54" stroke="#45413c" stroke-linecap="round" stroke-linejoin="round" d="M24.972 37.19a1.1 1.1 0 0 0-1.228-.384l-5.552 1.851a1.1 1.1 0 0 1-.522.043 1.442 1.442 0 0 0-1.518 2.067l.467.933c.101.205.136.436.1.662a1.908 1.908 0 0 0 2.35 2.15l.758-.19c.175-.043.358-.043.533 0l3.425.857a1.1 1.1 0 0 0 1.147-.408l2.368-3.153a1.1 1.1 0 0 0 0-1.32z"/><path stroke="#45413c" stroke-linecap="round" stroke-linejoin="round" d="M53.4 47.527a8.8 8.8 0 0 1-8.8 8.831M36.45 60.758a15.6 15.6 0 0 0 5.95 1.1c2.781 0 6.157-.706 8.305-2.508"/><path fill="#fc9" d="M54.62 65.119a2 2 0 0 0-2.8-.133.545.545 0 0 1-.824-.1l-2.714-4.111a15 15 0 0 1-4.093.989l3.681 5.576a1.1 1.1 0 0 1-.176 1.418l-1.176 1.075a1.98 1.98 0 0 0-.119 2.794 1.976 1.976 0 0 0 2.79.129l5.3-4.845a1.99 1.99 0 0 0 .131-2.792"/><path fill="#ffaa54" d="M48.282 60.773c-1.311.52-2.689.853-4.093.99l2.49 3.77a22.6 22.6 0 0 0 3.957-1.195z"/><path stroke="#45413c" stroke-linecap="round" stroke-linejoin="round" d="M54.62 65.119a2 2 0 0 0-2.8-.133.545.545 0 0 1-.824-.1l-2.714-4.111a15 15 0 0 1-4.093.989l3.681 5.576a1.1 1.1 0 0 1-.176 1.418l-1.176 1.075a1.98 1.98 0 0 0-.119 2.794 1.976 1.976 0 0 0 2.79.129l5.3-4.845a1.99 1.99 0 0 0 .131-2.792"/></svg>