<svg xmlns="http://www.w3.org/2000/svg" width="160" height="160" viewBox="0 0 160 160"><path fill="#e8f4fa" stroke="#daedf7" stroke-miterlimit="10" stroke-width="1.6" d="M16 83.41a64 64 0 1 0 128 0 64 64 0 1 0-128 0Z"/><path fill="#45413c" d="M26.754 133.666a19.563 2.773 0 1 0 39.126 0 19.563 2.773 0 1 0-39.126 0" opacity=".15"/><path fill="#fff" stroke="#45413c" stroke-linecap="round" stroke-linejoin="round" stroke-width="1.6" d="M33.574 129.198v-6.24a2.12 2.12 0 0 0 1.328.466h7.167v5.666Z"/><path fill="#f0f0f0" stroke="#45413c" stroke-linecap="round" stroke-linejoin="round" stroke-width="1.6" d="M32.291 132.984a2.117 2.117 0 0 1-1.905-3.08 6.37 6.37 0 0 1 5.577-3.291h1.063a6.37 6.37 0 0 1 5.577 3.291 2.117 2.117 0 0 1-1.904 3.08Z"/><path fill="#009fd9" d="M67.554 91.573V75.645a21.24 21.24 0 0 0-14.03-19.981l-3.754 6.758a2.1 2.1 0 0 0-.268 1.03v23.873a4.25 4.25 0 0 0 4.247 4.248Z"/><path fill="#f7e5c6" d="m32.512 95.82.266 25.484a2.125 2.125 0 0 0 2.124 2.123h7.432l.575-16.867a3.41 3.41 0 0 1 6.816 0l.574 16.872h7.432a2.123 2.123 0 0 0 2.123-2.123l.266-25.485Z"/><path fill="#f0d5a8" d="M60.12 95.82H32.512l.08 5.31h27.45z"/><path fill="none" stroke="#45413c" stroke-linecap="round" stroke-linejoin="round" stroke-width="1.6" d="m32.512 95.82.266 25.484a2.125 2.125 0 0 0 2.124 2.123h7.432l.575-16.867a3.41 3.41 0 0 1 6.816 0l.574 16.872h7.432a2.123 2.123 0 0 0 2.123-2.123l.266-25.485Z"/><path fill="#f0f0f0" stroke="#45413c" stroke-linecap="round" stroke-linejoin="round" stroke-width="1.6" d="M53.749 91.573a4.25 4.25 0 0 1-4.247-4.248V63.453a2.1 2.1 0 0 1 .268-1.03l3.753-6.759a21.3 21.3 0 0 0-14.414 0l3.755 6.758a2.1 2.1 0 0 1 .267 1.03v23.873a4.25 4.25 0 0 1-4.251 4.248h-6.368v4.246H60.12v-4.246Z"/><path fill="#00b8f0" d="m53.523 55.664-2.579 4.64c7.853 3.54 16.61 13.043 16.61 21.707v-6.366a21.24 21.24 0 0 0-14.03-19.981"/><path fill="none" stroke="#45413c" stroke-linecap="round" stroke-linejoin="round" stroke-width="1.6" d="M67.554 91.573V75.645a21.24 21.24 0 0 0-14.03-19.981l-3.754 6.758a2.1 2.1 0 0 0-.268 1.03v23.873a4.25 4.25 0 0 0 4.247 4.248Z"/><path fill="#fff" stroke="#45413c" stroke-linecap="round" stroke-linejoin="round" stroke-width="1.6" d="M59.06 129.093v-6.131a2.12 2.12 0 0 1-1.329.465H50.56v5.666Z"/><path fill="#f0f0f0" stroke="#45413c" stroke-linecap="round" stroke-linejoin="round" stroke-width="1.6" d="M60.342 132.984a2.117 2.117 0 0 0 1.906-3.08 6.37 6.37 0 0 0-5.58-3.291h-1.06a6.37 6.37 0 0 0-5.58 3.291 2.117 2.117 0 0 0 1.906 3.08Z"/><path fill="#4acfff" stroke="#45413c" stroke-linecap="round" stroke-linejoin="round" stroke-width="1.6" d="M55.438 62.73a2.125 2.125 0 0 1-2.838 1.412l-3.032-1.212a2 2 0 0 1 .202-.508l3.753-6.758a21 21 0 0 1 3.41 1.584Z"/><path fill="#009fd9" d="M43.131 83.109V63.453a2.13 2.13 0 0 0-.267-1.03l-3.755-6.759a21.24 21.24 0 0 0-14.029 19.98v4.849a11.08 11.08 0 0 0 11.08 11.08h8.832v-8.464Z"/><path fill="none" stroke="#45413c" stroke-linecap="round" stroke-linejoin="round" stroke-width="1.6" d="M43.131 83.109h-5.078a5.54 5.54 0 0 1-5.541-5.541v-6.17"/><path fill="#00b8f0" d="M25.28 82.595a28.87 28.87 0 0 1 16.16-22.739l-2.33-4.192a21.24 21.24 0 0 0-14.028 19.98v4.849a11 11 0 0 0 .2 2.104"/><path fill="none" stroke="#45413c" stroke-linecap="round" stroke-linejoin="round" stroke-width="1.6" d="M43.131 83.109V63.453a2.13 2.13 0 0 0-.267-1.03l-3.755-6.759a21.24 21.24 0 0 0-14.029 19.98v4.849a11.08 11.08 0 0 0 11.08 11.08h8.832v-8.464Z"/><path fill="#4acfff" stroke="#45413c" stroke-linecap="round" stroke-linejoin="round" stroke-width="1.6" d="M37.195 62.73a2.123 2.123 0 0 0 2.837 1.412l3.04-1.212a2.1 2.1 0 0 0-.202-.508l-3.761-6.758a21 21 0 0 0-3.408 1.584Z"/><path fill="#ffcebf" stroke="#45413c" stroke-linecap="round" stroke-linejoin="round" stroke-width="1.6143999999999998" d="M52.096 55.2a1.6 1.6 0 0 1-1.163-1.54v-4.705H41.73v4.701a1.6 1.6 0 0 1-1.167 1.54q-.734.206-1.44.463c2.581 4.64 3.11 6.178 7.2 6.178s4.627-1.533 7.208-6.178a32 32 0 0 0-1.435-.459"/><path fill="#ffcebf" stroke="#45413c" stroke-linecap="round" stroke-linejoin="round" stroke-width="1.6" d="M61.016 40.62a2.616 2.616 0 0 0-2.123-2.54v-1.709a12.742 12.742 0 1 0-25.485 0v1.709a2.6 2.6 0 0 0 .267 5.149 12.744 12.744 0 0 0 24.95 0 2.63 2.63 0 0 0 2.391-2.61"/><path fill="#ffb59e" d="M37.656 42.211a1.592 1.592 0 1 0 3.184 0 1.592 1.592 0 1 0-3.184 0M51.46 42.211a1.592 1.592 0 1 0 3.185 0 1.592 1.592 0 1 0-3.184 0"/><path fill="none" stroke="#45413c" stroke-linecap="round" stroke-linejoin="round" stroke-width="1.6" d="M42.966 46.99a5.75 5.75 0 0 0 6.372 0"/><path fill="#a86c4d" d="M56.205 24.789a.64.64 0 0 1-.13-.667 10.3 10.3 0 0 0 .658-2.818.64.64 0 0 0-.759-.68 29.3 29.3 0 0 1-8.078-.058 14 14 0 0 0-1.744-.123 13.805 13.805 0 0 0-13.803 13.805v1.54a2.28 2.28 0 0 0 1.56 2.166 1.514 1.514 0 0 0 1.961-1.138 10.4 10.4 0 0 1 4.42-7.091.64.64 0 0 1 .764.032 6.42 6.42 0 0 0 4.037 1.305 7 7 0 0 0 2.15-.334.64.64 0 0 1 .69.206 3.158 3.158 0 0 0 4.78.184.64.64 0 0 1 .924 0 10.47 10.47 0 0 1 2.8 5.703 1.51 1.51 0 0 0 1.96 1.137 2.28 2.28 0 0 0 1.562-2.166v-1.54a13.76 13.76 0 0 0-3.752-9.463"/><path fill="#de926a" d="M46.816 23.36a14 14 0 0 1 1.744.122 32.4 32.4 0 0 0 7.696.128 10.2 10.2 0 0 0 .48-2.31.64.64 0 0 0-.758-.68 29.3 29.3 0 0 1-8.079-.057 14 14 0 0 0-1.744-.123 13.803 13.803 0 0 0-13.803 13.805v1.539a2.28 2.28 0 0 0 .664 1.61v-.23a13.8 13.8 0 0 1 13.8-13.804"/><path fill="none" stroke="#45413c" stroke-linecap="round" stroke-linejoin="round" stroke-width="1.6" d="M56.205 24.789a.64.64 0 0 1-.13-.667 10.3 10.3 0 0 0 .658-2.818.64.64 0 0 0-.759-.68 29.3 29.3 0 0 1-8.078-.058 14 14 0 0 0-1.744-.123 13.805 13.805 0 0 0-13.803 13.805v1.54a2.28 2.28 0 0 0 1.56 2.166 1.514 1.514 0 0 0 1.961-1.138 10.4 10.4 0 0 1 4.42-7.091.64.64 0 0 1 .764.032 6.42 6.42 0 0 0 4.037 1.305 7 7 0 0 0 2.15-.334.64.64 0 0 1 .69.206 3.158 3.158 0 0 0 4.78.184.64.64 0 0 1 .924 0 10.47 10.47 0 0 1 2.8 5.703 1.51 1.51 0 0 0 1.96 1.137 2.28 2.28 0 0 0 1.562-2.166v-1.54a13.76 13.76 0 0 0-3.752-9.463M44.029 37.434h4.248"/><path fill="#00b8f0" d="M42.664 41.68h-4.702a1.365 1.365 0 0 1-1.367-1.365v-3.534a.41.41 0 0 1 .41-.41h6.614a.41.41 0 0 1 .41.41v3.539a1.365 1.365 0 0 1-1.365 1.36"/><path fill="#4acfff" d="M37.069 36.371a.48.48 0 0 0-.48.48v3.26a1.58 1.58 0 0 0 1.577 1.575h.554l3.186-5.308Z"/><path fill="none" stroke="#45413c" stroke-linecap="round" stroke-linejoin="round" stroke-width="1.6" d="M42.664 41.68h-4.702a1.365 1.365 0 0 1-1.367-1.365v-3.534a.41.41 0 0 1 .41-.41h6.614a.41.41 0 0 1 .41.41v3.539a1.365 1.365 0 0 1-1.365 1.36"/><path fill="#00b8f0" d="M54.344 41.68h-4.702a1.365 1.365 0 0 1-1.365-1.365v-3.534a.41.41 0 0 1 .41-.41h6.612a.41.41 0 0 1 .41.41v3.539a1.365 1.365 0 0 1-1.365 1.36"/><path fill="#4acfff" d="M48.749 36.371a.48.48 0 0 0-.48.48v3.26a1.576 1.576 0 0 0 1.576 1.575h.555l3.186-5.308Z"/><path fill="none" stroke="#45413c" stroke-linecap="round" stroke-linejoin="round" stroke-width="1.6" d="M54.344 41.68h-4.702a1.365 1.365 0 0 1-1.365-1.365v-3.534a.41.41 0 0 1 .41-.41h6.612a.41.41 0 0 1 .41.41v3.539a1.365 1.365 0 0 1-1.365 1.36"/><path fill="#ff6242" d="M73.483 66.843a5.5 5.5 0 0 1 3.04-1.963.702.702 0 0 0 .43-1.074l-4.542-6.808a1.416 1.416 0 0 0-1.965-.392L46.88 72.333a2.834 2.834 0 0 0-.784 3.93l14.94 22.4a1.42 1.42 0 0 0 1.966.393l6.808-4.542a.7.7 0 0 1 1.073.43 5.5 5.5 0 0 0 1.97 3.051 5.664 5.664 0 0 0 8.22-7.595 5.4 5.4 0 0 0-1.308-1.366.71.71 0 0 1 0-1.17l7.98-5.325a1.416 1.416 0 0 0 .393-1.965L83.6 73.771a.71.71 0 0 0-1.171 0 5.4 5.4 0 0 1-1.367 1.309 5.664 5.664 0 0 1-7.585-8.229Z"/><path fill="#ff866e" d="m75.555 65.213-1.635-2.46a1.416 1.416 0 0 0-1.965-.391l-23.58 15.726a2.9 2.9 0 0 0-.65.62l-1.63-2.446a2.834 2.834 0 0 1 .783-3.93l23.575-15.726a1.416 1.416 0 0 1 1.965.392l4.542 6.808a.702.702 0 0 1-.43 1.074 5.6 5.6 0 0 0-.975.333"/><path fill="none" stroke="#45413c" stroke-linecap="round" stroke-linejoin="round" stroke-width="1.6" d="M73.483 66.843a5.5 5.5 0 0 1 3.04-1.963.702.702 0 0 0 .43-1.074l-4.542-6.808a1.416 1.416 0 0 0-1.965-.392L46.88 72.333a2.834 2.834 0 0 0-.784 3.93l14.94 22.4a1.42 1.42 0 0 0 1.966.393l6.808-4.542a.7.7 0 0 1 1.073.43 5.5 5.5 0 0 0 1.97 3.051 5.664 5.664 0 0 0 8.22-7.595 5.4 5.4 0 0 0-1.308-1.366.71.71 0 0 1 0-1.17l7.98-5.325a1.416 1.416 0 0 0 .393-1.965L83.6 73.771a.71.71 0 0 0-1.171 0 5.4 5.4 0 0 1-1.367 1.309 5.664 5.664 0 0 1-7.585-8.229Z"/><path fill="#ffcebf" stroke="#45413c" stroke-linecap="round" stroke-linejoin="round" stroke-width="1.6" d="M69.37 97.067 65.962 99.1a2.176 2.176 0 0 1-2.77-.413l-1.4-1.633a2.144 2.144 0 0 1 .597-3.23l4.038-2.409a2.146 2.146 0 0 1 3.127 1.013l.77 2.008a2.176 2.176 0 0 1-.954 2.632M47.646 91.306a3.717 3.717 0 0 0 0-7.434h-2.654v7.434Z"/><path fill="#724f3d" d="M135.83 33.246c1.213-.716 1.324-2.77.248-4.592a4.96 4.96 0 0 0-1.92-1.888 2.14 2.14 0 0 0 1.6-.98c.672-1.237-.288-3.056-2.144-4.066a4.35 4.35 0 0 0-3.43-.434c-.178-.219-.37-.425-.558-.64a2.3 2.3 0 0 0 1.6-1.646c.241-1.389-1.25-2.806-3.332-3.17a4.25 4.25 0 0 0-3.641.844l-.053-.023a2.06 2.06 0 0 0 .762-1.515c0-1.408-1.712-2.55-3.826-2.55s-3.826 1.142-3.826 2.55c0-1.408-1.713-2.55-3.825-2.55s-3.826 1.142-3.826 2.55a2.06 2.06 0 0 0 .76 1.515l-.05.023a4.26 4.26 0 0 0-3.641-.834c-2.08.363-3.573 1.78-3.331 3.17a2.3 2.3 0 0 0 1.6 1.646c-.189.21-.38.416-.559.64a4.34 4.34 0 0 0-3.428.434c-1.858 1.01-2.818 2.828-2.144 4.065a2.13 2.13 0 0 0 1.6.981 4.96 4.96 0 0 0-1.92 1.888c-1.076 1.82-.96 3.875.248 4.592a1.97 1.97 0 0 0 1.473.176 4.1 4.1 0 0 0-.923 3.811c.406 2.08 1.856 3.536 3.238 3.266a1.8 1.8 0 0 0 .55-.221 16.544 16.544 0 0 0 28.36 0 1.8 1.8 0 0 0 .55.22c1.382.271 2.832-1.191 3.238-3.265a4.1 4.1 0 0 0-.923-3.811 1.97 1.97 0 0 0 1.473-.186"/><path fill="#a86c4d" d="M136.08 28.654a4.96 4.96 0 0 0-1.92-1.888 2.14 2.14 0 0 0 1.6-.98c.672-1.237-.29-3.058-2.144-4.066a4.35 4.35 0 0 0-3.43-.434c-.178-.22-.37-.425-.559-.64a2.3 2.3 0 0 0 1.6-1.646c.242-1.389-1.25-2.806-3.331-3.17a4.25 4.25 0 0 0-3.642.844c-.017 0-.035-.018-.052-.023a2.06 2.06 0 0 0 .761-1.515c0-1.408-1.713-2.55-3.824-2.55s-3.827 1.142-3.827 2.55c0-1.408-1.714-2.55-3.826-2.55s-3.825 1.142-3.825 2.55a2.06 2.06 0 0 0 .76 1.515c-.016 0-.034.016-.05.023a4.26 4.26 0 0 0-3.641-.834c-2.08.363-3.575 1.78-3.333 3.17a2.3 2.3 0 0 0 1.6 1.646c-.187.21-.38.414-.559.64a4.34 4.34 0 0 0-3.428.434c-1.858 1.008-2.818 2.828-2.144 4.065a2.13 2.13 0 0 0 1.6.981 4.95 4.95 0 0 0-1.92 1.888c-1.076 1.82-.96 3.875.25 4.592a1.87 1.87 0 0 0 1.196.224 6.6 6.6 0 0 1 .598-1.398 4.4 4.4 0 0 1 1.71-1.684 1.9 1.9 0 0 1-1.426-.872c-.6-1.102.254-2.72 1.908-3.624a5.15 5.15 0 0 1 3.554-.96 2.05 2.05 0 0 1-1.422-1.467c-.215-1.237 1.12-2.5 2.968-2.824a3.8 3.8 0 0 1 3.246.75l.045-.02a1.83 1.83 0 0 1-.679-1.349c0-1.253 1.527-2.272 3.408-2.272s3.41 1.02 3.41 2.272c0-1.253 1.526-2.272 3.41-2.272s3.408 1.02 3.408 2.272a1.83 1.83 0 0 1-.679 1.349l.047.02a3.79 3.79 0 0 1 3.244-.75c1.855.32 3.184 1.587 2.968 2.824a2.05 2.05 0 0 1-1.422 1.467 6 6 0 0 1 3.552.96c1.654.898 2.51 2.522 1.91 3.624a1.9 1.9 0 0 1-1.425.872 4.4 4.4 0 0 1 1.709 1.684 5.6 5.6 0 0 1 .54 1.39 1.88 1.88 0 0 0 1.255-.216c1.214-.726 1.325-2.78.251-4.602"/><path fill="none" stroke="#45413c" stroke-linecap="round" stroke-linejoin="round" stroke-width="1.6" d="M135.83 33.246c1.213-.716 1.324-2.77.248-4.592a4.96 4.96 0 0 0-1.92-1.888 2.14 2.14 0 0 0 1.6-.98c.672-1.237-.288-3.056-2.144-4.066a4.35 4.35 0 0 0-3.43-.434c-.178-.219-.37-.425-.558-.64a2.3 2.3 0 0 0 1.6-1.646c.241-1.389-1.25-2.806-3.332-3.17a4.25 4.25 0 0 0-3.641.844l-.053-.023a2.06 2.06 0 0 0 .762-1.515c0-1.408-1.712-2.55-3.826-2.55s-3.826 1.142-3.826 2.55c0-1.408-1.713-2.55-3.825-2.55s-3.826 1.142-3.826 2.55a2.06 2.06 0 0 0 .76 1.515l-.05.023a4.26 4.26 0 0 0-3.641-.834c-2.08.363-3.573 1.78-3.331 3.17a2.3 2.3 0 0 0 1.6 1.646c-.189.21-.38.416-.559.64a4.34 4.34 0 0 0-3.428.434c-1.858 1.01-2.818 2.828-2.144 4.065a2.13 2.13 0 0 0 1.6.981 4.96 4.96 0 0 0-1.92 1.888c-1.076 1.82-.96 3.875.248 4.592a1.97 1.97 0 0 0 1.473.176 4.1 4.1 0 0 0-.923 3.811c.406 2.08 1.856 3.536 3.238 3.266a1.8 1.8 0 0 0 .55-.221 16.544 16.544 0 0 0 28.36 0 1.8 1.8 0 0 0 .55.22c1.382.271 2.832-1.191 3.238-3.265a4.1 4.1 0 0 0-.923-3.811 1.97 1.97 0 0 0 1.473-.186"/><path fill="#724f3d" stroke="#45413c" stroke-linecap="round" stroke-linejoin="round" stroke-width="1.6" d="M123.9 58.197c0-2.114 1.142-3.826 2.551-3.826s2.55 1.712 2.55 3.826-1.14 3.825-2.55 3.825-2.55-1.713-2.55-3.825"/><path fill="#724f3d" stroke="#45413c" stroke-linecap="round" stroke-linejoin="round" stroke-width="1.6" d="M123.9 53.094c0-2.113 1.142-3.825 2.551-3.825s2.55 1.712 2.55 3.825-1.14 3.826-2.55 3.826-2.55-1.712-2.55-3.826"/><path fill="#724f3d" stroke="#45413c" stroke-linecap="round" stroke-linejoin="round" stroke-width="1.6" d="M123.9 48c0-2.112 1.142-3.827 2.551-3.827s2.55 1.709 2.55 3.827-1.14 3.826-2.55 3.826-2.55-1.719-2.55-3.826M130.277 65.848c0 1.482-1.882 4.022-3.005 5.406a1.054 1.054 0 0 1-1.64 0c-1.12-1.384-3.006-3.924-3.006-5.406a3.826 3.826 0 0 1 7.65 0M110.72 58.197c0-2.114-1.142-3.826-2.552-3.826s-2.55 1.712-2.55 3.826 1.142 3.825 2.55 3.825 2.552-1.713 2.552-3.825"/><path fill="#724f3d" stroke="#45413c" stroke-linecap="round" stroke-linejoin="round" stroke-width="1.6" d="M110.72 53.094c0-2.113-1.142-3.825-2.552-3.825s-2.55 1.712-2.55 3.825 1.142 3.826 2.55 3.826 2.552-1.712 2.552-3.826"/><path fill="#724f3d" stroke="#45413c" stroke-linecap="round" stroke-linejoin="round" stroke-width="1.6" d="M110.72 48c0-2.112-1.142-3.827-2.552-3.827s-2.547 1.709-2.547 3.827 1.142 3.826 2.55 3.826 2.549-1.719 2.549-3.826M104.347 65.848c0 1.482 1.882 4.022 3.005 5.406a1.054 1.054 0 0 0 1.64 0c1.12-1.384 3.006-3.924 3.006-5.406a3.826 3.826 0 1 0-7.65 0"/><path fill="#d18660" stroke="#45413c" stroke-linecap="round" stroke-linejoin="round" stroke-width="1.6" d="m130.048 34.485-1.789-6.45a2.56 2.56 0 0 0-3.04-1.673c-4.48 1.12-5.573 1.507-7.907 1.507s-3.43-.386-7.907-1.507a2.56 2.56 0 0 0-3.04 1.673l-1.789 6.45a2.603 2.603 0 0 0 .267 5.153 12.734 12.734 0 0 0 24.938 0 2.603 2.603 0 0 0 .267-5.153"/><path fill="#bd704a" d="M108.81 38.629a1.594 1.594 0 1 0 3.187 0 1.594 1.594 0 1 0-3.187 0M122.626 38.629a1.594 1.594 0 1 0 3.187 0 1.594 1.594 0 1 0-3.187 0"/><path fill="none" stroke="#45413c" stroke-linecap="round" stroke-linejoin="round" stroke-width="1.6" d="M120.5 42.349a5.32 5.32 0 0 1-6.377 0"/><path fill="#45413c" d="M110.936 34.378a1.594 1.594 0 1 0 3.187 0 1.594 1.594 0 1 0-3.187 0M120.5 34.378a1.594 1.594 0 1 0 3.188 0 1.594 1.594 0 1 0-3.187 0"/><path fill="#ffb0ca" d="M126.323 56.246a5 5 0 0 1-2.635-4.307 2.174 2.174 0 0 0-2.126-2.219h-8.501a2.173 2.173 0 0 0-2.125 2.22 5 5 0 0 1-2.635 4.306 19.09 19.09 0 0 0-10.115 16.852v2.742h6.374v15.323a9.1 9.1 0 0 0 1.062 4.251v4.25H129v-4.251a9.1 9.1 0 0 0 1.062-4.251v-5.776a6.376 6.376 0 0 0 6.376-6.376v-5.912a19.1 19.1 0 0 0-10.115-16.852"/><path fill="#fcd" d="M136.437 78.06a19.005 19.005 0 0 0-18.997-19.004c-9.424 0-17.738 7.766-19.246 16.782v-2.74a19.09 19.09 0 0 1 10.115-16.852 5 5 0 0 0 2.635-4.307 2.173 2.173 0 0 1 2.125-2.219h8.5a2.174 2.174 0 0 1 2.127 2.22 5 5 0 0 0 2.635 4.306 19.1 19.1 0 0 1 10.115 16.852v4.96"/><path fill="#45413c" d="M102.52 133.666a14.784 2.773 0 1 0 29.568 0 14.784 2.773 0 1 0-29.568 0" opacity=".15"/><path fill="#00b8f0" d="m105.622 99.662 4.252 32.941h14.876l4.25-32.94z"/><path fill="#009fd9" d="M106.446 106.038h21.732l.822-6.376h-23.378z"/><path fill="none" stroke="#45413c" stroke-linecap="round" stroke-linejoin="round" stroke-width="1.6" d="m105.622 99.662 4.252 32.941h14.876l4.25-32.94z"/><path fill="#656769" stroke="#45413c" stroke-linecap="round" stroke-linejoin="round" stroke-width="1.6" d="M128.426 132.603a2.12 2.12 0 0 0 1.907-3.083 6.37 6.37 0 0 0-5.583-3.293h-1.062a6.376 6.376 0 0 0-6.376 6.376ZM117.312 132.603a6.376 6.376 0 0 0-6.376-6.376h-1.062a6.37 6.37 0 0 0-5.583 3.293 2.118 2.118 0 0 0 1.907 3.083Z"/><path fill="none" stroke="#45413c" stroke-linecap="round" stroke-linejoin="round" stroke-width="1.6" d="M117.312 99.662v32.941M126.323 56.246a5 5 0 0 1-2.635-4.307 2.174 2.174 0 0 0-2.126-2.219h-8.501a2.173 2.173 0 0 0-2.125 2.22 5 5 0 0 1-2.635 4.306 19.09 19.09 0 0 0-10.115 16.852v2.742h6.374v15.323a9.1 9.1 0 0 0 1.062 4.251v4.25H129v-4.251a9.1 9.1 0 0 0 1.062-4.251v-5.776h0a6.376 6.376 0 0 0 6.376-6.376v-5.912a19.1 19.1 0 0 0-10.115-16.852M129 95.413h-23.378M104.56 90.1V72.034"/><path fill="none" stroke="#45413c" stroke-linecap="round" stroke-linejoin="round" stroke-width="1.6" d="M130.062 85.386h-10.201v-8.047h5.505a3.14 3.14 0 0 0 3.141-3.14v-2.164"/><path fill="#ffe500" d="m91.107 53.486-2.693 8.263a.744.744 0 0 1-1.177.345 5.84 5.84 0 0 0-3.64-1.25A6.013 6.013 0 0 0 81.72 72.58a5.8 5.8 0 0 0 1.989.28.754.754 0 0 1 .765.98l-3.157 9.681 11.121 3.626a.744.744 0 0 0 .975-.746 5.83 5.83 0 0 1 1.14-3.68 6.013 6.013 0 0 1 10.581 5.405 5.8 5.8 0 0 1-.947 1.773.755.755 0 0 0 .341 1.195l9.686 3.147 9.325-28.606a3.01 3.01 0 0 0-1.93-3.794l-28.606-9.317a1.504 1.504 0 0 0-1.896.963"/><path fill="#fff48c" d="m121.61 61.846-28.607-9.323a1.504 1.504 0 0 0-1.896.96l-1.6 4.92a1.5 1.5 0 0 1 1.896-.96L120 66.766a3.01 3.01 0 0 1 1.92 3.794l1.6-4.92a3.01 3.01 0 0 0-1.91-3.794"/><path fill="none" stroke="#45413c" stroke-linecap="round" stroke-linejoin="round" stroke-width="1.6" d="m91.107 53.486-2.693 8.263a.744.744 0 0 1-1.177.345 5.84 5.84 0 0 0-3.64-1.25A6.013 6.013 0 0 0 81.72 72.58a5.8 5.8 0 0 0 1.989.28.754.754 0 0 1 .765.98l-3.157 9.681 11.121 3.626a.744.744 0 0 0 .975-.746 5.83 5.83 0 0 1 1.14-3.68 6.013 6.013 0 0 1 10.581 5.405 5.8 5.8 0 0 1-.947 1.773.755.755 0 0 0 .341 1.195l9.686 3.147 9.325-28.606a3.01 3.01 0 0 0-1.93-3.794l-28.606-9.317a1.504 1.504 0 0 0-1.896.963"/><path fill="#d18660" stroke="#45413c" stroke-linecap="round" stroke-linejoin="round" stroke-width="1.6" d="m88.363 88.846-2.957-1.995a1.955 1.955 0 0 1-.724-2.41l.792-1.76a1.92 1.92 0 0 1 2.856-.75l3.51 2.357a1.93 1.93 0 0 1 .374 2.93l-1.339 1.396a1.96 1.96 0 0 1-2.512.232M119.853 77.464h-3.603a3.718 3.718 0 1 0 0 7.437h3.603Z"/></svg>