<svg xmlns="http://www.w3.org/2000/svg" fill="none" viewBox="0 0 200 200" id="Board-Games--Streamline-Brooklyn">
  <desc>
    Board Games Streamline Illustration: https://streamlinehq.com
  </desc>
  <g id="board-games--hobbies-leisure-board-games">
    <g id="cash 3">
      <path id="vector" fill="#38a1ff" d="M155.597 141.837c-0.448 2.702 -3.98 4.359 -6.454 1.968 -1.072 -1.036 -1.321 -2.248 -1.056 -3.347 -0.359 -0.058 -0.711 -0.115 -1.057 -0.168 -0.374 2.691 1.248 5.71 4.867 5.732 2.819 0.017 4.455 -1.841 4.847 -3.949 -0.387 -0.08 -0.77 -0.159 -1.146 -0.235l-0.001 -0.001Z" stroke-width="1"></path>
      <path id="vector_2" fill="#38a1ff" d="M172.675 145.911c-0.961 1.231 -2.292 2.844 -4.186 4.892 -0.173 1.136 0.631 1.271 1.288 0.473 1.335 -1.622 2.892 -3.46 4.092 -5.014 -0.38 -0.114 -0.778 -0.231 -1.194 -0.351Z" stroke-width="1"></path>
      <path id="vector_3" fill="#38a1ff" d="M172.331 154.122c-1.582 1.993 -1.413 -1.438 -35.707 -7.839 0 0 -0.159 -0.015 -0.443 -0.041 -0.546 0.477 -1.065 0.928 -1.56 1.355 7.88 1.076 15.677 2.875 23.434 4.817 14.935 3.739 13.023 5.401 15.454 2.917 2.446 -3.155 4.329 -5.515 5.729 -7.308 -0.472 -0.165 -1.008 -0.353 -1.62 -0.562l-5.287 6.661Z" stroke-width="1"></path>
    </g>
    <g id="cash 2">
      <path id="vector_4" fill="#38a1ff" d="M167.223 123.653c0.401 0.086 0.802 0.174 1.204 0.262 0.76 -1.808 0.332 -4.037 -0.974 -5.484l-0.986 0.868c1.349 1.365 1.423 3.048 0.756 4.354Z" stroke-width="1"></path>
      <path id="vector_5" fill="#38a1ff" d="M187.195 116.665c0.83 0.391 -1.565 5.723 -3.29 9.831 -0.4 0.953 -1.209 1.055 -1.372 -0.081 4.069 -8.326 3.582 -10.259 4.661 -9.75h0.001Z" stroke-width="1"></path>
      <path id="vector_6" fill="#38a1ff" d="M192.159 115.513c-0.244 1.136 -0.388 1.41 -4.995 12.973 -0.09 0.226 -0.179 0.398 -0.296 0.53 0.559 0.209 1.094 0.419 1.6 0.63l0.175 -0.334c5.514 -14.305 6.434 -15 3.511 -15.733 -4.283 -1.075 -10.971 -1.24 -18.092 -0.94l-1.971 1.724c9.628 -0.417 18.223 -0.225 20.07 1.151l-0.002 -0.001Z" stroke-width="1"></path>
    </g>
    <g id="cash 1">
      <path id="vector_7" fill="#38a1ff" d="M162.27 127.438c6.7 0.087 6.45 9.896 -0.008 9.856 -6.567 -0.04 -6.556 -9.942 0.008 -9.856Zm2.998 2.791c-3.063 -4.663 -9.546 1.19 -5.76 4.849 3.283 3.173 8.43 -0.784 5.76 -4.849Z" stroke-width="1"></path>
      <path id="vector_8" fill="#38a1ff" d="M186.123 134.083c0.682 0.615 -3.146 5.029 -5.979 8.47 -0.657 0.798 -1.461 0.663 -1.288 -0.473 6.292 -6.804 6.379 -8.798 7.267 -7.997Z" stroke-width="1"></path>
      <path id="vector_9" fill="#38a1ff" d="M191.76 132.547c-6.158 -3.669 -19.078 -6.866 -30.127 -8.982l-1.362 1.206c13.259 2.746 28.986 7.004 30.94 9.636 -0.559 1.017 -0.777 1.239 -8.514 10.99 -1.582 1.994 -1.413 -1.438 -35.707 -7.838 0 0 -0.354 -0.033 -0.958 -0.086l-1.496 1.34c8.034 1.068 15.98 2.898 23.885 4.877 14.935 3.739 13.023 5.401 15.454 2.917 9.394 -12.114 10.474 -12.517 7.885 -14.059v-0.001Z" stroke-width="1"></path>
    </g>
    <g id="board game">
      <path id="vector_10" fill="#38a1ff" d="M113.91 135.567c0.027 0.539 -0.16 1.13 -0.656 1.92 -0.695 1.107 -4.405 5.552 -7.083 8.661 10.971 2.993 18.371 4.997 18.522 4.998 0.096 -0.432 1.183 -11.22 1.259 -12.479l-12.042 -3.1Z" stroke-width="1"></path>
      <path id="vector_11" fill="#38a1ff" d="M33.915 122.305c7.532 -0.461 4.07 -1.16 15.785 5.072 3.411 1.814 4.951 2.635 4.957 4.654l19.975 5.484c-0.756 -1.791 -0.061 -2.486 1.202 -4.222 1.935 -2.661 3.412 -4.729 4.592 -6.344L8.10804 108.337s-0.366 6.282 -0.287 8.998c0.062 2.137 0.016 1.975 2.47796 2.436 0.045 0.035 5.084 1.437 13.022 3.63 1.48 -0.706 4.344 -0.714 10.594 -1.096Z" stroke-width="1"></path>
      <path id="vector_12" fill="#38a1ff" d="M189.31 96.0295c-49.148 42.9495 -63.015 54.7845 -63.015 54.7845l1.088 -12.866s48.008 -40.8155 64.167 -54.7595c-0.411 4.255 -1.489 12.185 -2.24 12.841Z" stroke-width="1"></path>
      <path id="vector_13" fill="#191919" d="M88.037 57.1826c0.16 0.627 0.314 1.171 0.484 1.671 6.14 1.39 24.813 5.537 44.515 9.903 0.456 -0.646 0.917 -1.201 1.378 -1.699 -21.138 -4.581 -41.268 -8.904 -46.377 -9.875Z" stroke-width="1"></path>
      <path id="vector_14" fill="#191919" d="m191.183 79.4248 -40.306 -8.792c0.125 0.688 0.243 1.389 0.319 2.147l39.068 8.643 -64.134 55.8382 -12.91 -3.386c0.48 0.75 0.77 1.34 0.676 2.067l11.48 2.981s-0.785 11.155 -0.881 11.586c-0.148 -0.001 -7.297 -1.915 -17.953 -4.79 -0.493 0.575 -0.959 1.114 -1.375 1.591l19.09 5.195c2.475 0.673 1.049 1.24 63.185 -53.4002 3.202 -2.814 3.763 -3.019 3.999 -4.474 2.335 -14.362 3.319 -14.416 -0.256 -15.206h-0.002Zm-0.127 6.613c-1.582 9.623 -1.301 9.025 -2.052 9.681 -49.174 42.9202 -61.57 54.3632 -62.485 54.6592 0.6 -7.054 1.038 -11.77 1.038 -11.77s46.564 -40.3022 63.046 -54.2342c0.787 -0.665 1.138 -0.844 0.452 1.664h0.001Z" stroke-width="1"></path>
      <path id="vector_15" fill="#191919" d="M76.534 65.2159c0.36 -0.815 0.7 -1.643 0.935 -2.71C5.74503 106.634 6.40602 104.693 6.46402 108.411c0.042 2.691 0.054 8.97 0.025 11.293 0.242 0.423 0.188 0.599 15.61798 4.897 0.336 -0.668 0.809 -1.086 1.631 -1.367 -8.208 -2.243 -13.444 -3.684 -13.491 -3.72 -2.46198 -0.461 -2.15698 -0.253 -2.08098 -2.389 0.101 -2.824 0.063 -8.625 0.063 -8.625L80.241 127.202c0.448 -0.615 0.853 -1.166 1.225 -1.662L9.36802 106.619 76.534 65.2159Z" stroke-width="1"></path>
      <path id="vector_16" fill="#191919" d="m54.475 133.496 21.107 5.757c-0.587 -0.93 -0.949 -1.635 -1.127 -2.221l-19.819 -5.383c0.073 0.656 -0.055 1.239 -0.161 1.847Z" stroke-width="1"></path>
      <path id="vector_17" fill="#191919" d="M158.255 81.5239c-2.712 -0.585 -5.28 -1.183 -7.725 -1.791 -0.29 1.121 -0.342 1.205 -0.512 1.63 17.974 4.622 20.059 3.166 17.866 5.045 -2.791 2.392 -5.518 4.855 -8.153 7.417 -1.428 1.388 -2.046 0.636 -18.197 -4.111 -1.287 -0.378 -0.531 -0.2 1.568 -4.369 -0.565 -0.043 -1.183 -0.111 -1.861 -0.202 -0.979 1.763 -1.554 2.437 -1.425 2.528 -0.644 1.163 -0.798 1.225 -1.511 0.982 -11.635 -3.973 -17.08 -6.983 -21.877 -8.724 -1.234 -0.448 -0.175 -0.617 0.936 -8.349 1.164 0.26 6.278 1.946 12.519 3.915 0.11 -0.437 0.307 -0.992 0.538 -1.607 -15.485 -5.047 -27.196 -9.618 -37.602 -8.202 0.315 0.507 0.632 1.068 0.937 1.69 9.917 -0.91 22.014 3.148 21.82 4.131 -0.487 2.46 -0.94 4.924 -1.411 7.426 -1.176 0.277 -9.573 -4.256 -15.856 -1.728 -3.767 1.515 -5.29 5.472 -2.787 8.512 2.521 3.062 6.563 4.19 7.943 5.189 -6.592 7.198 -6.33 7.347 -7.203 6.867 -5.749 -3.163 -13.418 -8.128 -14.716 -14.576 -0.061 -0.304 -0.116 -0.603 -0.164 -0.897 -0.662 -0.066 -1.337 -0.162 -2.028 -0.287 0.069 0.574 0.164 1.155 0.285 1.743 0.194 0.131 0.208 0.319 0.161 0.523 4.449 14.507 32.089 21.1121 38.064 24.4331 1.193 0.663 8.967 8.89 -47.248 -4.759 -29.305 -7.1161 -29.117 -8.9291 -31.358 -7.4301 -9.751 6.5221 -11.303 7.4451 -9.723 8.6161 2.33 1.728 34.247 10.08 58.031 15.665 1.278 -0.226 1.118 -0.147 3.944 -0.66 -10.892 -2.706 -26.979 -6.858 -26.994 -6.864 0.454 -0.945 3.965 -4.378 5.906 -6.994 0.809 -1.09 0.01 0.054 33.272 6.39 -1.3 3.706 -0.516 1.256 -2.048 5.747 0.745 -0.011 1.097 -0.059 1.642 0.427 0.219 -0.581 0.466 -1.198 0.778 -1.931 1.242 -3.832 1.042 -4.07 2.097 -3.846 3.019 0.639 9.179 1.251 12.362 -0.248 2.931 -1.38 1.24 -2.956 2.643 -3.081 2.808 -0.251 1.331 -0.362 13.38 -1.995 1.119 -0.152 1.103 -0.135 1.609 0.884 3.648 7.342 -2.191 12.198 -10.04 14.568 -5.982 1.806 -13.047 1.314 -19.542 0.251 0.34 0.528 0.712 1.111 1.123 1.755 1.958 0.366 3.485 0.61 4.473 0.705 0.015 -0.159 7.528 1.344 17.336 -2.141 4.928 -1.751 9.302 -5.458 9.385 -10.732 0.134 -8.474 -9.244 -13.4861 -9.323 -13.6991 -12.394 -5.656 -28.987 -10.032 -32.821 -14.843 -2.177 -2.731 0.329 -5.795 3.556 -6.144 10.72 -1.159 28.38 10.8 54.805 17.351 2.152 0.533 4.207 0.98 5.668 -0.467 13.444 -13.308 14.262 -10.091 -2.52 -13.709l-0.002 -0.004ZM63.059 112.163c-0.703 0.836 -0.258 1.048 -16.392 -3.625 -2.823 -0.818 -13.448 -3.821 -15.427 -4.515 1.311 -1.215 1.166 -0.758 8.497 -5.9001 1.361 -0.955 0.054 -0.21 29.213 7.2341 -4.282 5.003 -4.471 5.118 -5.891 6.806Zm42.676 -20.3821c16.593 7.115 23.315 7.121 28.836 14.2031 -14.935 2.164 -14.437 2.395 -14.968 1.953 -3.895 -3.237 -13.411 -5.005 -20.447 -8.7951 -1.271 -0.479 -1.608 0.416 5.42 -7.036 0.332 -0.352 0.59 -0.569 1.159 -0.325Z" stroke-width="1"></path>
    </g>
    <g id="pawn 2">
      <path id="vector_18" fill="#38a1ff" d="M148.759 59.8662c-3.16 10.256 2.108 11.55 -1.491 21.222 -0.292 0.784 -0.575 1.862 -1.866 1.622 -3.358 0.538 -9.152 -0.993 -12.381 -3.817 -1.096 -0.959 -0.785 -1.032 -0.659 -2.156 0.18 -1.603 1.862 -6.081 4.851 -8.652 4.868 -4.186 6.227 -6.561 7.236 -10.636 3.394 2.593 5.055 -0.004 4.309 2.416l0.001 0.001Z" stroke-width="1"></path>
      <path id="vector_19" fill="#38a1ff" d="M148.246 57.3813c-2.568 -0.027 -4.627 -2.124 -4.578 -4.663 0.047 -2.475 2.166 -4.617 4.555 -4.605 6.16 0.03 6.233 9.334 0.023 9.268Z" stroke-width="1"></path>
      <path id="vector_20" fill="#191919" d="M153.519 50.1272c-3.437 -6.8 -14.082 -1.901 -10.617 5.41 0.177 0.373 0.4 0.686 0.252 1.163 -3.287 10.658 -8.269 7.24 -12.112 18.548 -0.801 2.356 -0.135 3.75 0.951 4.682 3.304 2.835 6.069 3.394 8.875 4.109 6.994 0.986 7.155 -0.488 8.364 -3.523 2.677 -9.792 -1.122 -10.163 0.461 -17.906 0.658 -3.219 0.93 -4.237 1.234 -4.573 2.193 -0.986 4.342 -4.45 2.593 -7.91h-0.001Zm-4.759 9.74c-3.16 10.256 2.108 11.55 -1.491 21.222 -0.292 0.784 -0.575 1.862 -1.866 1.622 -3.358 0.538 -9.152 -0.993 -12.381 -3.817 -1.096 -0.959 -0.785 -1.032 -0.659 -2.156 0.18 -1.603 1.862 -6.081 4.851 -8.652 4.868 -4.186 6.227 -6.561 7.236 -10.636 3.394 2.593 5.055 -0.004 4.309 2.416l0.001 0.001Zm-0.513 -2.485c-2.568 -0.027 -4.627 -2.124 -4.578 -4.663 0.047 -2.475 2.166 -4.617 4.555 -4.605 6.16 0.03 6.233 9.334 0.023 9.268Z" stroke-width="1"></path>
    </g>
    <g id="pawn 1">
      <path id="vector_21" fill="#38a1ff" d="M81.859 53.8192c-3.657 0.582 -6.663 -3.676 -4.284 -7.232 1.509 -2.256 4.395 -2.206 4.941 -1.803 5.939 1.516 3.71 9.341 -0.657 9.035Z" stroke-width="1"></path>
      <path id="vector_22" fill="#38a1ff" d="M91.918 77.5284c-3.302 2.508 -13.753 3.294 -13.874 0.73 -0.488 -0.6 -0.38 -1.349 -0.486 -2.039 -1.448 -9.416 4.317 -9.496 2.541 -20.997 1.693 0.304 3.183 -0.088 4.693 -0.988 0.532 3.861 1.618 7.334 3.888 10.346 3.054 3.196 6.502 12.062 3.238 12.948Z" stroke-width="1"></path>
      <path id="vector_23" fill="#191919" d="M94.805 75.2702c-0.782 -8.289 -4.68 -11.011 -5.718 -13.04 -1.574 -1.724 -2.287 -5.86 -2.952 -8.543 -0.104 -0.421 -0.087 -0.779 0.129 -1.188 2.745 -5.194 -1.079 -9.646 -5.902 -8.924 -5.192 0.776 -6.711 7.284 -2.632 10.515 0.316 0.251 0.748 0.396 0.809 0.89 1.486 12.125 -3.139 9.054 -2.704 19.928 0.112 2.785 0.575 5.446 3.075 5.958 5.026 1.031 9.468 0.588 14.382 -2.387 1.212 -0.733 1.637 -1.899 1.513 -3.208v-0.001Zm-17.23 -28.683c2.086 -3.118 6.638 -2.154 8.007 0.641 1.379 2.816 -0.574 6.812 -3.722 6.591 -3.657 0.582 -6.664 -3.676 -4.285 -7.232Zm14.343 30.941c-3.302 2.508 -13.753 3.294 -13.874 0.73 -0.488 -0.6 -0.38 -1.349 -0.486 -2.039 -1.448 -9.416 4.317 -9.496 2.541 -20.997 1.693 0.304 3.183 -0.088 4.693 -0.988 0.532 3.861 1.618 7.334 3.888 10.346 3.054 3.196 6.502 12.062 3.238 12.948Z" stroke-width="1"></path>
    </g>
    <g id="details">
      <path id="vector_24" fill="#38a1ff" d="M24.584 66.6705c2.02 -0.423 11.709 3.907 16.596 6.041 1.08 0.472 1.86 1.259 1.305 2.266 -0.648 1.176 -1.866 0.7 -3.978 -0.121 -12.637 -4.914 -16.25 -5.762 -13.924 -8.187l0.001 0.001Z" stroke-width="1"></path>
      <path id="vector_25" fill="#38a1ff" d="M60.157 60.1888c-0.063 1.576 -1.539 1.86 -2.324 1.024 -0.74 -0.788 -5.653 -16.083 -5.543 -17.391 0.098 -1.165 1.614 -1.805 2.654 0.511 1.04 2.316 4.483 12.934 5.213 15.856Z" stroke-width="1"></path>
      <path id="vector_26" fill="#38a1ff" d="M40.19 53.0345c4.092 4.032 10.79 11.61 11.047 12.1 0.742 1.416 -0.772 2.492 -1.899 1.609 -1.209 -0.946 -9.65 -10.224 -10.684 -11.426 -2.447 -2.844 -0.095 -3.891 1.536 -2.283Z" stroke-width="1"></path>
    </g>
    <g id="dice 1">
      <path id="vector_27" fill="#191919" d="M39.792 152.894c-5.643 0.602 -6.617 1.141 -8.28 -0.081 -12.145 -8.926 -13.055 -8.652 -12.594 -10.647 3.513 -15.208 2.026 -8.522 3.88 -16.317 0.465 -1.955 -0.256 -1.798 13.269 -2.631 1.518 -0.093 3.419 -0.342 4.276 0.229 1.61 1.075 3.394 1.839 5.074 2.785 6.978 3.928 8.572 4.009 8.124 6.556 -3.093 17.572 -3.179 17.749 -3.83 18.577 -1.755 0.773 -9.834 1.52 -9.919 1.529Zm9.921 -22.202c-0.924 -0.848 -0.279 -0.242 -10.186 -5.764 -0.696 -0.388 -0.304 -0.288 -11.42 0.58 -1.874 0 -1.839 0.256 -1.839 0.256s6.962 3.726 9.859 5.766c0.53 0.373 0.019 0.313 13.586 -0.838Zm2.073 2.765c0.239 -1.527 -0.099 -1.105 -0.935 -0.982 -0.025 0.004 -12.46 1.038 -13.413 1.022 -1.87 -0.033 -0.371 1.519 -3.742 17.422 -0.059 0.277 -0.161 0.559 0.031 0.913 0.842 0.008 9.975 -1.469 14.126 -1.726 0.676 -0.042 0.739 -0.026 0.955 -1.504 0.216 -1.478 2.692 -13.316 2.978 -15.145Zm-20.004 17.39c0.548 -0.988 -0.156 -0.037 3.342 -17.614 0.15 -0.753 0.104 -0.172 -8.324 -5.13 -0.819 -0.482 -1.655 -0.934 -2.5 -1.407 -0.296 0.471 -0.367 0.921 -0.467 1.359 -3.49 15.288 -3.769 14.476 -2.374 15.466l10.323 7.326Z" stroke-width="1"></path>
      <path id="vector_28" fill="#191919" d="M29.216 138.7c-0.037 1.751 -2.699 1.586 -2.616 -0.098 0.091 -1.853 2.654 -1.714 2.616 0.098Z" stroke-width="1"></path>
      <path id="vector_29" fill="#191919" d="M25.018 131.944c0.038 -1.434 2.091 -1.455 2.387 -0.175 0.425 1.841 -2.449 2.539 -2.387 0.175Z" stroke-width="1"></path>
      <path id="vector_30" fill="#191919" d="M30.909 144.773c1.132 1.57 -1.111 2.9 -2.078 1.384 -0.773 -1.211 1.111 -2.725 2.078 -1.384Z" stroke-width="1"></path>
      <path id="vector_31" fill="#191919" d="M38.718 138.957c-0.403 -0.739 -0.374 -0.999 0.196 -1.759 0.175 -0.234 0.429 -0.402 0.717 -0.452 2.491 -0.435 1.898 3.54 -0.311 2.743 -0.259 -0.093 -0.471 -0.29 -0.602 -0.532Z" stroke-width="1"></path>
      <path id="vector_32" fill="#191919" d="M39.137 146.875c-1.837 -0.327 -1.449 -2.497 0.344 -2.343 1.551 0.133 1.449 2.662 -0.344 2.343Z" stroke-width="1"></path>
      <path id="vector_33" fill="#191919" d="M46.027 146.538c-1.541 -0.22 -1.595 -2.227 -0.05 -2.537 1.739 -0.349 1.972 2.811 0.05 2.537Z" stroke-width="1"></path>
      <path id="vector_34" fill="#191919" d="M48.11 138.838c-1.384 0.546 -2.45 -1.214 -1.128 -2.101 1.392 -0.935 2.75 1.461 1.128 2.101Z" stroke-width="1"></path>
      <path id="vector_35" fill="#191919" d="M37.5261 129.162c-1.432 -0.07 -1.722 -2.643 0.3 -2.437 1.603 0.163 1.23 2.511 -0.3 2.437Z" stroke-width="1"></path>
    </g>
    <g id="dice 2">
      <path id="vector_36" fill="#191919" d="M102.935 148.343c-1.076 0.469 -6.471 2.147 -6.492 2.154 -8.41 2.525 -8.849 3.427 -10.551 1.153 -0.019 -0.025 -7.127 -9.691 -9.917 -13.882 -1.024 -1.538 -0.757 -1.868 0.755 -3.934 9.676 -13.227 7.334 -11.287 14.143 -12.517 11.528 -2.083 11.393 -2.418 12.358 -0.982 1.397 2.078 1.653 2.481 9.248 14.318 1.053 1.641 0.636 1.649 -9.544 13.69Zm-4.643 -10.388c0.671 0.992 0.138 0.559 10.805 -2.5 2.829 -0.811 2.183 0.982 -6.788 -13.634 -1.021 -1.664 -4.912 0.513 -14.195 1.707 0 1.103 0.298 -0.184 10.178 14.426v0.001Zm-8.107 12.608c0.844 0.042 5.36 -1.759 8.587 -2.55 3.857 -0.944 4.053 -2.351 10.446 -9.859 0.738 -0.867 1.338 -1.316 0.215 -0.98 -8.362 2.502 -11.452 3.69 -11.452 3.69s-3.518 4.323 -7.797 9.698l0.001 0.001Zm-12.602 -14.972c-0.573 0.705 -0.557 0.713 0.154 1.474 0.019 0.085 8.378 12.087 9.125 13.157 0.387 0.554 0.264 1.071 1.339 -0.143 1 -1.129 8.221 -10.122 8.63 -10.528 1.007 -1.003 -1.032 -1.247 -10.636 -15.348 -0.782 0.886 -5.72 7.832 -8.612 11.388Z" stroke-width="1"></path>
      <path id="vector_37" fill="#191919" d="M88.053 138.304c0.058 1.745 -2.615 1.584 -2.645 -0.06 -0.013 -0.709 0.65 -1.39 1.334 -1.374 0.684 0.016 1.287 0.713 1.311 1.434Z" stroke-width="1"></path>
      <path id="vector_38" fill="#191919" d="M92.374 139.831c-0.778 -0.142 -1.128 -0.853 -1.007 -1.484 0.315 -1.643 1.991 -1.046 2.374 -0.25 0.446 0.926 -0.487 1.895 -1.367 1.734Z" stroke-width="1"></path>
      <path id="vector_39" fill="#191919" d="M87.1289 143.838c1.651 0.059 1.649 2.71 -0.127 2.627 -1.501 -0.071 -1.572 -2.687 0.127 -2.627Z" stroke-width="1"></path>
      <path id="vector_40" fill="#191919" d="M85.105 131.784c-1.113 -2.078 1.628 -3.179 2.195 -1.374 0.403 1.282 -0.934 2.091 -2.195 1.374Z" stroke-width="1"></path>
      <path id="vector_41" fill="#191919" d="M79.96 136.548c0 -1.436 2.362 -1.824 2.393 0.359 0.017 1.155 -2.393 1.247 -2.393 -0.359Z" stroke-width="1"></path>
      <path id="vector_42" fill="#191919" d="M100.853 129.958c-1.678 1.457 -3.315 -0.181 -2.241 -1.418 0.621 -0.715 2.372 -0.846 2.241 1.418Z" stroke-width="1"></path>
      <path id="vector_43" fill="#191919" d="M92.602 124.863c1.395 -0.573 2.369 1.135 1.689 1.824 -1.798 1.823 -3.287 -1.167 -1.689 -1.824Z" stroke-width="1"></path>
      <path id="vector_44" fill="#191919" d="M105.919 133.757c-1.403 0.465 -2.417 -1.389 -1.147 -2.249 1.54 -1.043 2.929 1.658 1.147 2.249Z" stroke-width="1"></path>
      <path id="vector_45" fill="#191919" d="M99.331 143.782c0.025 -1.73 2.561 -1.624 2.55 -0.029 -0.011 1.503 -2.577 1.885 -2.55 0.029Z" stroke-width="1"></path>
    </g>
  </g>
</svg>