<svg viewBox="-2.5 -2.5 500 500" xmlns="http://www.w3.org/2000/svg" id="Gladiator-Helmet--Streamline-Ux" height="500" width="500">
  <desc>
    Gladiator Helmet Streamline Illustration: https://streamlinehq.com
  </desc>
  <path d="M51.975 238.2435a195.525 195.85170000000002 0 1 0 391.05 0 195.525 195.85170000000002 0 1 0 -391.05 0Z" fill="#daedf7" stroke="#daedf7" stroke-width="5"></path>
  <path d="M251.5788 75.735A123.85395000000001 123.85395000000001 0 0 0 127.71000000000001 199.59390000000002v129.24945a7.1874 7.1874 0 0 0 0.6435000000000001 2.97c14.1966 31.6107 47.257650000000005 56.61315 81.05625 77.9328a7.28145 7.28145 0 0 0 11.11275 -7.0785l-18.018 -142.97085a7.28145 7.28145 0 0 0 -6.1677 -6.301349999999999q-17.1864 -2.5146 -33.8877 -6.484500000000001a7.2765 7.2765 0 0 1 -5.5935 -7.0884v-36.8478a7.2864 7.2864 0 0 1 9.108 -7.0587A342.54 342.54 0 0 0 230.175 205.99425000000002a7.28145 7.28145 0 0 1 6.8309999999999995 7.2666c0 84.7935 -18.19125 47.92095 8.3259 92.1195a7.2864 7.2864 0 0 0 12.4938 0c26.428050000000002 -44.05500000000001 8.3259 -7.55865 8.3259 -92.1195a7.2765 7.2765 0 0 1 6.8309999999999995 -7.2666 342.54 342.54 0 0 0 64.20150000000001 -10.0782 7.29135 7.29135 0 0 1 9.108 7.0587v36.86265a7.2765 7.2765 0 0 1 -5.6034 7.083450000000001 393.37154999999996 393.37154999999996 0 0 1 -39.34755 7.2468l-18.715950000000003 148.5a7.2864 7.2864 0 0 0 11.11275 7.0785c33.7986 -21.319650000000003 66.85965 -46.322100000000006 81.05625 -77.9328a7.26165 7.26165 0 0 0 0.6385500000000001 -2.97V199.59390000000002A123.85395000000001 123.85395000000001 0 0 0 251.5788 75.735Z" fill="#45413c" stroke-width="5"></path>
  <path d="M251.5788 75.735A123.86385 123.86385 0 0 0 127.71000000000001 199.59390000000002v28.4328a123.85889999999999 123.85889999999999 0 1 1 247.71285 0v-28.4328A123.85889999999999 123.85889999999999 0 0 0 251.5788 75.735Z" fill="#87898c" stroke-width="5"></path>
  <path d="M182.43224999999998 323.235a67.93875 67.93875 0 0 0 -44.6787 -59.202000000000005c-3.08385 -1.11375 -6.514200000000001 -2.3265 -10.033650000000002 -3.5541v27.72l1.1583 0.41085000000000005a41.7186 41.7186 0 0 1 27.47745 36.18945l2.475 47.292300000000004a269.28000000000003 269.28000000000003 0 0 0 27.28935 22.0869Z" fill="#ebcb00" stroke-width="5"></path>
  <path d="m172.22535 332.20439999999996 2.7769500000000003 53.5689c3.63825 2.84625 7.3012500000000005 5.6826 11.107800000000001 8.415000000000001L182.43224999999998 323.235a67.93875 67.93875 0 0 0 -44.6787 -59.202000000000005c-3.08385 -1.11375 -6.514200000000001 -2.3265 -10.033650000000002 -3.5541v12.61755a67.91895000000001 67.91895000000001 0 0 1 44.50545 59.10795Z" fill="#ffe500" stroke-width="5"></path>
  <path d="M182.43224999999998 323.235a67.93875 67.93875 0 0 0 -44.6787 -59.202000000000005c-3.08385 -1.11375 -6.514200000000001 -2.3265 -10.033650000000002 -3.5541v27.72l1.1583 0.41085000000000005a41.7186 41.7186 0 0 1 27.47745 36.18945l2.475 47.292300000000004a269.28000000000003 269.28000000000003 0 0 0 27.28935 22.0869Z" fill="none" stroke="#45413c" stroke-linecap="round" stroke-linejoin="round" stroke-width="5"></path>
  <path d="M251.5788 75.735A123.85395000000001 123.85395000000001 0 0 0 127.71000000000001 199.59390000000002v129.24945a7.1874 7.1874 0 0 0 0.6435000000000001 2.97c14.1966 31.6107 47.257650000000005 56.61315 81.05625 77.9328a7.28145 7.28145 0 0 0 11.11275 -7.0785l-18.018 -142.97085a7.28145 7.28145 0 0 0 -6.1677 -6.301349999999999q-17.1864 -2.5146 -33.8877 -6.484500000000001a7.2765 7.2765 0 0 1 -5.5935 -7.0884v-36.8478a7.2864 7.2864 0 0 1 9.108 -7.0587A342.54 342.54 0 0 0 230.175 205.99425000000002a7.28145 7.28145 0 0 1 6.8309999999999995 7.2666c0 84.7935 -18.19125 47.92095 8.3259 92.1195a7.2864 7.2864 0 0 0 12.4938 0c26.428050000000002 -44.05500000000001 8.3259 -7.55865 8.3259 -92.1195a7.2765 7.2765 0 0 1 6.8309999999999995 -7.2666 342.54 342.54 0 0 0 64.20150000000001 -10.0782 7.29135 7.29135 0 0 1 9.108 7.0587v36.86265a7.2765 7.2765 0 0 1 -5.6034 7.083450000000001 393.37154999999996 393.37154999999996 0 0 1 -39.34755 7.2468l-18.715950000000003 148.5a7.2864 7.2864 0 0 0 11.11275 7.0785c33.7986 -21.319650000000003 66.85965 -46.322100000000006 81.05625 -77.9328a7.26165 7.26165 0 0 0 0.6385500000000001 -2.97V199.59390000000002A123.85395000000001 123.85395000000001 0 0 0 251.5788 75.735Z" fill="none" stroke="#45413c" stroke-linecap="round" stroke-linejoin="round" stroke-width="5"></path>
  <path d="M320.72535000000005 323.235a67.93875 67.93875 0 0 1 44.6787 -59.202000000000005c3.08385 -1.11375 6.50925 -2.3265 10.028699999999999 -3.5541v27.72l-1.1583 0.41085000000000005a41.72355 41.72355 0 0 0 -27.4725 36.18945l-2.475 47.292300000000004a268.78499999999997 268.78499999999997 0 0 1 -27.309150000000002 22.0869Z" fill="#ebcb00" stroke-width="5"></path>
  <path d="m330.93225 332.20439999999996 -2.7769500000000003 53.5689c-3.6432 2.84625 -7.3012500000000005 5.6826 -11.11275 8.415000000000001l3.6828000000000003 -70.9533a67.93875 67.93875 0 0 1 44.6787 -59.202000000000005c3.08385 -1.11375 6.50925 -2.3265 10.028699999999999 -3.5541v12.61755a67.91895000000001 67.91895000000001 0 0 0 -44.5005 59.10795Z" fill="#ffe500" stroke-width="5"></path>
  <path d="M320.72535000000005 323.235a67.93875 67.93875 0 0 1 44.6787 -59.202000000000005c3.08385 -1.11375 6.50925 -2.3265 10.028699999999999 -3.5541v27.72l-1.1583 0.41085000000000005a41.72355 41.72355 0 0 0 -27.4725 36.18945l-2.475 47.292300000000004a268.78499999999997 268.78499999999997 0 0 1 -27.309150000000002 22.0869Z" fill="none" stroke="#45413c" stroke-linecap="round" stroke-linejoin="round" stroke-width="5"></path>
  <path d="M362.2014 143.83214999999998a124.15095000000001 124.15095000000001 0 0 0 -18.84465 -27.40815 248.98499999999999 248.98499999999999 0 0 1 -91.77795 16.5528 248.98499999999999 248.98499999999999 0 0 1 -91.77795 -16.5528 124.0668 124.0668 0 0 0 -18.84465 27.4032c28.581300000000002 15.721200000000001 67.5873 25.413300000000003 110.6226 25.413300000000003s82.05120000000001 -9.6921 110.6226 -25.408350000000002Z" fill="#ffe500" stroke-width="5"></path>
  <path d="M353.47455 129.1653a315.19620000000003 315.19620000000003 0 0 1 -101.89575 16.1766 315.315 315.315 0 0 1 -101.89575 -16.1766 123.80445 123.80445 0 0 1 10.1178 -12.741299999999999 248.98499999999999 248.98499999999999 0 0 0 91.77795 16.5528 248.98499999999999 248.98499999999999 0 0 0 91.77795 -16.5528 125.16075000000001 125.16075000000001 0 0 1 10.1178 12.741299999999999Z" fill="#fff48c" stroke-width="5"></path>
  <path d="M362.2014 143.83214999999998a124.15095000000001 124.15095000000001 0 0 0 -18.84465 -27.40815 248.98499999999999 248.98499999999999 0 0 1 -91.77795 16.5528 248.98499999999999 248.98499999999999 0 0 1 -91.77795 -16.5528 124.0668 124.0668 0 0 0 -18.84465 27.4032c28.581300000000002 15.721200000000001 67.5873 25.413300000000003 110.6226 25.413300000000003s82.05120000000001 -9.6921 110.6226 -25.408350000000002Z" fill="none" stroke="#45413c" stroke-linecap="round" stroke-linejoin="round" stroke-width="5"></path>
</svg>
