<svg width="405" height="405" viewBox="0 0 405 405" fill="none" xmlns="http://www.w3.org/2000/svg">
<path d="M18.1621 242.116H387.015V320.203H18.1621V242.116Z" stroke="#45413C" stroke-width="5" stroke-linejoin="round"/>
<path d="M18.1621 242.116H387.015V320.203H18.1621V242.116Z" stroke="#45413C" stroke-width="5" stroke-linejoin="round"/>
<path d="M18.1621 242.116H387.015V320.203H18.1621V242.116Z" stroke="#45413C" stroke-width="5" stroke-linejoin="round"/>
<path d="M18.1621 242.116H387.015V320.203H18.1621V242.116Z" stroke="#45413C" stroke-width="5" stroke-linejoin="round"/>
<path d="M18.1621 242.116H387.015V320.203H18.1621V242.116Z" stroke="#45413C" stroke-width="5" stroke-linejoin="round"/>
<path d="M18.1621 242.116H387.015V320.203H18.1621V242.116Z" stroke="#45413C" stroke-width="5" stroke-linejoin="round"/>
<path d="M18.1621 242.116H387.015V320.203H18.1621V242.116Z" stroke="#45413C" stroke-width="5" stroke-linejoin="round"/>
<path d="M18.1621 242.116H387.015V320.203H18.1621V242.116Z" fill="#F8F8F8"/>
<path d="M18.1621 242.116H387.015V320.203H18.1621V242.116Z" stroke="#45413C" stroke-width="5" stroke-linejoin="round"/>
<path d="M380.732 242.116H24.4448C22.7786 242.116 21.1805 243.343 20.0023 245.525C18.824 247.707 18.1621 250.667 18.1621 253.754V281.16H387.015V253.754C387.015 250.667 386.353 247.707 385.175 245.525C383.996 243.343 382.398 242.116 380.732 242.116Z" fill="white"/>
<path d="M91.9341 242.117H165.706V320.203H91.9341V242.117Z" fill="#87898C"/>
<path d="M239.478 242.117H313.249V320.203H239.478V242.117Z" fill="#87898C"/>
<path d="M91.9341 242.117H165.706V281.16H91.9341V242.117Z" fill="#BDBEC0"/>
<path d="M239.478 242.117H313.249V281.16H239.478V242.117Z" fill="#BDBEC0"/>
<path d="M91.9339 242.116H24.4448C22.7786 242.116 21.1805 243.343 20.0023 245.525C18.824 247.707 18.1621 250.667 18.1621 253.754V308.565C18.1621 311.652 18.824 314.612 20.0023 316.794C21.1805 318.976 22.7786 320.203 24.4448 320.203H91.9339V242.116Z" stroke="#45413C" stroke-width="5" stroke-linecap="round" stroke-linejoin="round"/>
<path d="M91.9341 242.117H165.706V320.203H91.9341V242.117Z" stroke="#45413C" stroke-width="5" stroke-linecap="round" stroke-linejoin="round"/>
<path d="M165.707 242.117H239.478V320.203H165.707V242.117Z" stroke="#45413C" stroke-width="5" stroke-linecap="round" stroke-linejoin="round"/>
<path d="M239.478 242.117H313.249V320.203H239.478V242.117Z" stroke="#45413C" stroke-width="5" stroke-linecap="round" stroke-linejoin="round"/>
<path d="M380.732 242.117H313.243V320.203H380.732C382.399 320.203 383.997 318.977 385.175 316.794C386.353 314.612 387.015 311.652 387.015 308.565V253.754C387.015 250.667 386.353 247.707 385.175 245.525C383.997 243.343 382.399 242.117 380.732 242.117Z" stroke="#45413C" stroke-width="5" stroke-linecap="round" stroke-linejoin="round"/>
<path d="M18 163.744H386.853V241.83H18V163.744Z" stroke="#45413C" stroke-width="5" stroke-linejoin="round"/>
<path d="M18 163.744H386.853V241.83H18V163.744Z" stroke="#45413C" stroke-width="5" stroke-linejoin="round"/>
<path d="M18 163.744H386.853V241.83H18V163.744Z" stroke="#45413C" stroke-width="5" stroke-linejoin="round"/>
<path d="M18 163.744H386.853V241.83H18V163.744Z" stroke="#45413C" stroke-width="5" stroke-linejoin="round"/>
<path d="M18 163.744H386.853V241.83H18V163.744Z" stroke="#45413C" stroke-width="5" stroke-linejoin="round"/>
<path d="M18 163.744H386.853V241.83H18V163.744Z" stroke="#45413C" stroke-width="5" stroke-linejoin="round"/>
<path d="M18 163.744H386.853V241.83H18V163.744Z" stroke="#45413C" stroke-width="5" stroke-linejoin="round"/>
<path d="M18 163.744H386.853V241.83H18V163.744Z" fill="#87898C"/>
<path d="M18 163.744H386.853V241.83H18V163.744Z" stroke="#45413C" stroke-width="5" stroke-linejoin="round"/>
<path d="M380.57 163.744H24.2827C22.6164 163.744 21.0184 164.97 19.8402 167.153C18.6619 169.335 18 172.295 18 175.382V202.787H386.853V175.382C386.853 172.295 386.191 169.335 385.013 167.153C383.834 164.97 382.236 163.744 380.57 163.744Z" fill="#BDBEC0"/>
<path d="M91.772 163.744H165.544V241.83H91.772V163.744Z" fill="#F8F8F8"/>
<path d="M239.315 163.744H313.087V241.83H239.315V163.744Z" fill="#F8F8F8"/>
<path d="M91.772 163.744H165.544V202.787H91.772V163.744Z" fill="white"/>
<path d="M239.315 163.744H313.087V202.787H239.315V163.744Z" fill="white"/>
<path d="M91.7718 163.744H24.2827C22.6164 163.744 21.0184 164.97 19.8402 167.153C18.6619 169.335 18 172.295 18 175.382V230.193C18 233.28 18.6619 236.24 19.8402 238.422C21.0184 240.604 22.6164 241.83 24.2827 241.83H91.7718V163.744Z" stroke="#45413C" stroke-width="5" stroke-linecap="round" stroke-linejoin="round"/>
<path d="M91.772 163.744H165.544V241.83H91.772V163.744Z" stroke="#45413C" stroke-width="5" stroke-linecap="round" stroke-linejoin="round"/>
<path d="M165.544 163.744H239.316V241.83H165.544V163.744Z" stroke="#45413C" stroke-width="5" stroke-linecap="round" stroke-linejoin="round"/>
<path d="M239.315 163.744H313.087V241.83H239.315V163.744Z" stroke="#45413C" stroke-width="5" stroke-linecap="round" stroke-linejoin="round"/>
<path d="M380.57 163.744H313.081V241.83H380.57C382.236 241.83 383.834 240.604 385.013 238.422C386.191 236.24 386.853 233.28 386.853 230.193V175.382C386.853 172.295 386.191 169.335 385.013 167.153C383.834 164.97 382.236 163.744 380.57 163.744Z" stroke="#45413C" stroke-width="5" stroke-linecap="round" stroke-linejoin="round"/>
<path d="M18.1621 85.3722H387.015V163.458H18.1621V85.3722Z" stroke="#45413C" stroke-width="5" stroke-linejoin="round"/>
<path d="M18.1621 85.3722H387.015V163.458H18.1621V85.3722Z" stroke="#45413C" stroke-width="5" stroke-linejoin="round"/>
<path d="M18.1621 85.3722H387.015V163.458H18.1621V85.3722Z" stroke="#45413C" stroke-width="5" stroke-linejoin="round"/>
<path d="M18.1621 85.3722H387.015V163.458H18.1621V85.3722Z" stroke="#45413C" stroke-width="5" stroke-linejoin="round"/>
<path d="M18.1621 85.3722H387.015V163.458H18.1621V85.3722Z" stroke="#45413C" stroke-width="5" stroke-linejoin="round"/>
<path d="M18.1621 85.3722H387.015V163.458H18.1621V85.3722Z" stroke="#45413C" stroke-width="5" stroke-linejoin="round"/>
<path d="M18.1621 85.3722H387.015V163.458H18.1621V85.3722Z" stroke="#45413C" stroke-width="5" stroke-linejoin="round"/>
<path d="M18.1621 85.3722H387.015V163.458H18.1621V85.3722Z" fill="#F8F8F8"/>
<path d="M18.1621 85.3722H387.015V163.458H18.1621V85.3722Z" stroke="#45413C" stroke-width="5" stroke-linejoin="round"/>
<path d="M380.732 85.3722H24.4448C22.7786 85.3722 21.1805 86.5983 20.0023 88.7807C18.824 90.9631 18.1621 93.9231 18.1621 97.0095V124.415H387.015V97.0095C387.015 93.9231 386.353 90.9631 385.175 88.7807C383.996 86.5983 382.398 85.3722 380.732 85.3722Z" fill="white"/>
<path d="M91.9341 85.3722H165.706V163.458H91.9341V85.3722Z" fill="#87898C"/>
<path d="M239.478 85.3722H313.249V163.458H239.478V85.3722Z" fill="#87898C"/>
<path d="M91.9341 85.3722H165.706V124.415H91.9341V85.3722Z" fill="#BDBEC0"/>
<path d="M239.478 85.3722H313.249V124.415H239.478V85.3722Z" fill="#BDBEC0"/>
<path d="M91.9339 85.3722H24.4448C22.7786 85.3722 21.1805 86.5983 20.0023 88.7807C18.824 90.9631 18.1621 93.9231 18.1621 97.0095V151.821C18.1621 154.907 18.824 157.867 20.0023 160.05C21.1805 162.232 22.7786 163.458 24.4448 163.458H91.9339V85.3722Z" stroke="#45413C" stroke-width="5" stroke-linecap="round" stroke-linejoin="round"/>
<path d="M91.9341 85.3722H165.706V163.458H91.9341V85.3722Z" stroke="#45413C" stroke-width="5" stroke-linecap="round" stroke-linejoin="round"/>
<path d="M165.707 85.3722H239.478V163.458H165.707V85.3722Z" stroke="#45413C" stroke-width="5" stroke-linecap="round" stroke-linejoin="round"/>
<path d="M239.478 85.3722H313.249V163.458H239.478V85.3722Z" stroke="#45413C" stroke-width="5" stroke-linecap="round" stroke-linejoin="round"/>
<path d="M380.732 85.3722H313.243V163.458H380.732C382.399 163.458 383.997 162.232 385.175 160.05C386.353 157.867 387.015 154.907 387.015 151.821V97.0095C387.015 93.9231 386.353 90.9631 385.175 88.7807C383.997 86.5983 382.399 85.3722 380.732 85.3722Z" stroke="#45413C" stroke-width="5" stroke-linecap="round" stroke-linejoin="round"/>
<path d="M18 7H386.853V85.0861H18V7Z" stroke="#45413C" stroke-width="5" stroke-linejoin="round"/>
<path d="M18 7H386.853V85.0861H18V7Z" stroke="#45413C" stroke-width="5" stroke-linejoin="round"/>
<path d="M18 7H386.853V85.0861H18V7Z" stroke="#45413C" stroke-width="5" stroke-linejoin="round"/>
<path d="M18 7H386.853V85.0861H18V7Z" stroke="#45413C" stroke-width="5" stroke-linejoin="round"/>
<path d="M18 7H386.853V85.0861H18V7Z" stroke="#45413C" stroke-width="5" stroke-linejoin="round"/>
<path d="M18 7H386.853V85.0861H18V7Z" stroke="#45413C" stroke-width="5" stroke-linejoin="round"/>
<path d="M18 7H386.853V85.0861H18V7Z" stroke="#45413C" stroke-width="5" stroke-linejoin="round"/>
<path d="M18 7H386.853V85.0861H18V7Z" fill="#87898C"/>
<path d="M18 7H386.853V85.0861H18V7Z" stroke="#45413C" stroke-width="5" stroke-linejoin="round"/>
<path d="M380.57 7H24.2827C22.6164 7 21.0184 8.22608 19.8402 10.4085C18.6619 12.5909 18 15.5509 18 18.6373V46.0431H386.853V18.6373C386.853 15.5509 386.191 12.5909 385.013 10.4085C383.834 8.22608 382.236 7 380.57 7Z" fill="#BDBEC0"/>
<path d="M91.772 7H165.544V85.0861H91.772V7Z" fill="#F8F8F8"/>
<path d="M239.315 7H313.087V85.0861H239.315V7Z" fill="#F8F8F8"/>
<path d="M91.772 7H165.544V46.0431H91.772V7Z" fill="white"/>
<path d="M239.315 7H313.087V46.0431H239.315V7Z" fill="white"/>
<path d="M91.7718 7H24.2827C22.6164 7 21.0184 8.22608 19.8402 10.4085C18.6619 12.5909 18 15.5509 18 18.6373V73.4488C18 76.5352 18.6619 79.4952 19.8402 81.6776C21.0184 83.86 22.6164 85.0861 24.2827 85.0861H91.7718V7Z" stroke="#45413C" stroke-width="5" stroke-linecap="round" stroke-linejoin="round"/>
<path d="M91.772 7H165.544V85.0861H91.772V7Z" stroke="#45413C" stroke-width="5" stroke-linecap="round" stroke-linejoin="round"/>
<path d="M165.544 7H239.316V85.0861H165.544V7Z" stroke="#45413C" stroke-width="5" stroke-linecap="round" stroke-linejoin="round"/>
<path d="M239.315 7H313.087V85.0861H239.315V7Z" stroke="#45413C" stroke-width="5" stroke-linecap="round" stroke-linejoin="round"/>
<path d="M380.57 7H313.081V85.0861H380.57C382.236 85.0861 383.834 83.86 385.013 81.6776C386.191 79.4952 386.853 76.5352 386.853 73.4488V18.6373C386.853 15.5509 386.191 12.5909 385.013 10.4085C383.834 8.22608 382.236 7 380.57 7Z" stroke="#45413C" stroke-width="5" stroke-linecap="round" stroke-linejoin="round"/>
<path d="M18 320.396H386.853V398.482H18V320.396Z" stroke="#45413C" stroke-width="5" stroke-linejoin="round"/>
<path d="M18 320.396H386.853V398.482H18V320.396Z" stroke="#45413C" stroke-width="5" stroke-linejoin="round"/>
<path d="M18 320.396H386.853V398.482H18V320.396Z" stroke="#45413C" stroke-width="5" stroke-linejoin="round"/>
<path d="M18 320.396H386.853V398.482H18V320.396Z" stroke="#45413C" stroke-width="5" stroke-linejoin="round"/>
<path d="M18 320.396H386.853V398.482H18V320.396Z" stroke="#45413C" stroke-width="5" stroke-linejoin="round"/>
<path d="M18 320.396H386.853V398.482H18V320.396Z" stroke="#45413C" stroke-width="5" stroke-linejoin="round"/>
<path d="M18 320.396H386.853V398.482H18V320.396Z" stroke="#45413C" stroke-width="5" stroke-linejoin="round"/>
<path d="M18 320.396H386.853V398.482H18V320.396Z" fill="#87898C"/>
<path d="M18 320.396H386.853V398.482H18V320.396Z" stroke="#45413C" stroke-width="5" stroke-linejoin="round"/>
<path d="M380.57 320.396H24.2827C22.6164 320.396 21.0184 321.622 19.8402 323.805C18.6619 325.987 18 328.947 18 332.034V359.439H386.853V332.034C386.853 328.947 386.191 325.987 385.013 323.805C383.834 321.622 382.236 320.396 380.57 320.396Z" fill="#BDBEC0"/>
<path d="M91.772 320.396H165.544V398.482H91.772V320.396Z" fill="#F8F8F8"/>
<path d="M239.315 320.396H313.087V398.482H239.315V320.396Z" fill="#F8F8F8"/>
<path d="M91.772 320.396H165.544V359.439H91.772V320.396Z" fill="white"/>
<path d="M239.315 320.396H313.087V359.439H239.315V320.396Z" fill="white"/>
<path d="M91.7718 320.396H24.2827C22.6164 320.396 21.0184 321.622 19.8402 323.805C18.6619 325.987 18 328.947 18 332.034V386.845C18 389.931 18.6619 392.891 19.8402 395.074C21.0184 397.256 22.6164 398.482 24.2827 398.482H91.7718V320.396Z" stroke="#45413C" stroke-width="5" stroke-linecap="round" stroke-linejoin="round"/>
<path d="M91.772 320.396H165.544V398.482H91.772V320.396Z" stroke="#45413C" stroke-width="5" stroke-linecap="round" stroke-linejoin="round"/>
<path d="M165.544 320.396H239.316V398.482H165.544V320.396Z" stroke="#45413C" stroke-width="5" stroke-linecap="round" stroke-linejoin="round"/>
<path d="M239.315 320.396H313.087V398.482H239.315V320.396Z" stroke="#45413C" stroke-width="5" stroke-linecap="round" stroke-linejoin="round"/>
<path d="M380.57 320.396H313.081V398.482H380.57C382.236 398.482 383.834 397.256 385.013 395.074C386.191 392.891 386.853 389.931 386.853 386.845V332.034C386.853 328.947 386.191 325.987 385.013 323.805C383.834 321.622 382.236 320.396 380.57 320.396Z" stroke="#45413C" stroke-width="5" stroke-linecap="round" stroke-linejoin="round"/>
<circle cx="56.6612" cy="362.005" r="20.9424" fill="#F0D3A8" stroke="#45413C" stroke-width="5"/>
<circle cx="352.374" cy="362.005" r="20.9424" fill="#F0D3A8" stroke="#45413C" stroke-width="5"/>
<circle cx="132.309" cy="283.41" r="20.9424" fill="#F0D3A8" stroke="#45413C" stroke-width="5"/>
<circle cx="205.991" cy="362.005" r="20.9424" fill="#F0D3A8" stroke="#45413C" stroke-width="5"/>
<circle cx="279.673" cy="284.393" r="20.9424" fill="#F0D3A8" stroke="#45413C" stroke-width="5"/>
<circle cx="57.6436" cy="130.151" r="20.9424" fill="#8C5A12" stroke="#45413C" stroke-width="5"/>
<circle cx="131.015" cy="51.2446" r="22.596" fill="#8C5A12" stroke="#45413C" stroke-width="5"/>
<circle cx="205.009" cy="130.151" r="20.9424" fill="#8C5A12" stroke="#45413C" stroke-width="5"/>
<circle cx="278.38" cy="51.2446" r="22.596" fill="#8C5A12" stroke="#45413C" stroke-width="5"/>
<circle cx="352.374" cy="130.151" r="20.9424" fill="#8C5A12" stroke="#45413C" stroke-width="5"/>
</svg>
