<svg width="402" height="402" viewBox="0 0 402 402" fill="none" xmlns="http://www.w3.org/2000/svg">
<mask id="mask0_247_2" style="mask-type:alpha" maskUnits="userSpaceOnUse" x="0" y="0" width="396" height="397">
<path d="M0 198.337C0 250.85 20.8607 301.212 57.9929 338.344C95.1251 375.476 145.487 396.337 198 396.337C250.513 396.337 300.875 375.476 338.007 338.344C375.139 301.212 396 250.85 396 198.337C396 145.824 375.139 95.462 338.007 58.3298C300.875 21.1976 250.513 0.336914 198 0.336914C145.487 0.336914 95.1251 21.1976 57.9929 58.3298C20.8607 95.462 0 145.824 0 198.337Z" fill="#B8ECFF"/>
</mask>
<g mask="url(#mask0_247_2)">
<path d="M3 198.337C3 250.85 23.8607 301.212 60.9929 338.344C98.1251 375.476 148.487 396.337 201 396.337C253.513 396.337 303.875 375.476 341.007 338.344C378.139 301.212 399 250.85 399 198.337C399 145.824 378.139 95.462 341.007 58.3298C303.875 21.1976 253.513 0.336914 201 0.336914C148.487 0.336914 98.1251 21.1976 60.9929 58.3298C23.8607 95.462 3 145.824 3 198.337Z" fill="#B8ECFF"/>
<path d="M227.273 114.718H176.223L179.216 97.565C179.401 96.5082 179.931 95.5529 180.715 94.8651C181.498 94.1772 182.485 93.8003 183.505 93.7998H219.995C221.015 93.8003 222.002 94.1772 222.786 94.8651C223.569 95.5529 224.099 96.5082 224.284 97.565L227.273 114.718Z" fill="#DAEDF7" stroke="#45413C" stroke-width="5" stroke-linecap="round" stroke-linejoin="round"/>
<path d="M235.78 150.577H167.714L170.768 115.904C170.868 114.763 171.369 113.703 172.172 112.931C172.975 112.159 174.022 111.73 175.109 111.73H228.402C229.492 111.725 230.545 112.151 231.353 112.923C232.161 113.696 232.664 114.759 232.765 115.904L235.78 150.577Z" fill="#DAEDF7" stroke="#45413C" stroke-width="5" stroke-linecap="round" stroke-linejoin="round"/>
<path d="M241.452 171.494H162.042L164.786 133.902C164.871 132.745 165.368 131.665 166.177 130.878C166.987 130.091 168.048 129.655 169.15 129.659H234.358C235.459 129.655 236.521 130.091 237.33 130.878C238.139 131.665 238.636 132.745 238.721 133.902L241.452 171.494Z" fill="#DAEDF7" stroke="#45413C" stroke-width="5" stroke-linecap="round" stroke-linejoin="round"/>
<path d="M237.164 166.263C236.255 165.784 235.252 165.536 234.236 165.536H169.264C168.248 165.536 167.245 165.784 166.336 166.263L158.783 170.239C158.058 170.621 157.448 171.209 157.022 171.935C156.596 172.662 156.37 173.5 156.371 174.354V252.177H247.125V174.336C247.126 173.482 246.901 172.645 246.476 171.918C246.05 171.191 245.441 170.604 244.717 170.221L237.164 166.263Z" fill="#8CA4B8" stroke="#45413C" stroke-width="5" stroke-linecap="round" stroke-linejoin="round"/>
<path d="M201.747 93.7999C197.986 93.7999 194.379 95.374 191.72 98.176C189.06 100.978 187.566 104.778 187.566 108.741V123.682H215.927V108.741C215.927 104.778 214.433 100.978 211.774 98.176C209.115 95.374 205.508 93.7999 201.747 93.7999ZM190.402 93.7999L198.051 65.5816C198.281 64.7357 198.766 63.9917 199.433 63.462C200.099 62.9323 200.912 62.6458 201.747 62.6458C202.582 62.6458 203.394 62.9323 204.061 63.462C204.728 63.9917 205.213 64.7357 205.442 65.5816L213.091 93.7907L190.402 93.7999Z" fill="#DAEDF7" stroke="#45413C" stroke-width="5" stroke-linecap="round" stroke-linejoin="round"/>
<path d="M201.748 62.6534V43" stroke="#45413C" stroke-width="5" stroke-linecap="round" stroke-linejoin="round"/>
<path d="M201.747 111.729C198.768 111.729 195.817 112.348 193.065 113.549C190.312 114.751 187.811 116.512 185.704 118.731C183.597 120.951 181.926 123.587 180.786 126.487C179.645 129.387 179.059 132.496 179.059 135.635V174.483H224.436V135.635C224.436 129.295 222.045 123.215 217.79 118.731C213.536 114.248 207.765 111.729 201.747 111.729Z" fill="#DAEDF7" stroke="#45413C" stroke-width="5" stroke-linecap="round" stroke-linejoin="round"/>
<path d="M201.747 129.659C194.226 129.659 187.012 132.807 181.693 138.411C176.375 144.015 173.387 151.616 173.387 159.541V180.459H230.108V159.541C230.108 155.617 229.375 151.731 227.949 148.106C226.524 144.48 224.435 141.186 221.802 138.411C219.168 135.636 216.042 133.435 212.601 131.933C209.16 130.432 205.472 129.659 201.747 129.659Z" fill="#DAEDF7" stroke="#45413C" stroke-width="5" stroke-linecap="round" stroke-linejoin="round"/>
<path d="M201.747 150.576C192.721 150.576 184.064 154.354 177.682 161.079C171.299 167.804 167.714 176.925 167.714 186.435V228.271H235.78V186.435C235.78 176.925 232.194 167.804 225.812 161.079C219.429 154.354 210.773 150.576 201.747 150.576Z" fill="#ADC4D9" stroke="#45413C" stroke-width="5" stroke-linecap="round" stroke-linejoin="round"/>
<path d="M247.124 252.177H235.78V228.271H224.435V186.435C224.435 180.095 222.045 174.015 217.79 169.531C213.535 165.048 207.764 162.53 201.747 162.53C195.729 162.53 189.958 165.048 185.704 169.531C181.449 174.015 179.058 180.095 179.058 186.435V228.271H167.714V252.177H156.37V357.427H144.807V384.809C181.688 398.261 221.785 398.295 258.686 384.905V357.427H247.124V252.177Z" fill="#E0E0E0"/>
<path d="M201.748 183.447C207.765 183.447 213.536 185.966 217.791 190.449C222.046 194.932 224.436 201.013 224.436 207.353V186.435C224.436 180.095 222.046 174.015 217.791 169.531C213.536 165.048 207.765 162.53 201.748 162.53C195.73 162.53 189.959 165.048 185.705 169.531C181.45 174.015 179.059 180.095 179.059 186.435V207.353C179.059 201.013 181.45 194.932 185.705 190.449C189.959 185.966 195.73 183.447 201.748 183.447ZM235.781 258.526C235.781 259.745 236.24 260.914 237.059 261.776C237.877 262.639 238.987 263.123 240.144 263.123H247.125V252.177H235.781V258.526ZM224.436 234.62C224.436 235.839 224.896 237.008 225.714 237.871C226.533 238.733 227.642 239.217 228.8 239.217H235.781V228.271H224.436V234.62ZM167.715 258.526V252.177H156.371V263.123H163.352C164.509 263.123 165.619 262.639 166.437 261.776C167.255 260.914 167.715 259.745 167.715 258.526ZM179.059 234.62V228.271H167.715V239.217H174.696C175.853 239.217 176.963 238.733 177.781 237.871C178.6 237.008 179.059 235.839 179.059 234.62Z" fill="#F8F8F8"/>
<path d="M247.124 252.177H252.796M150.698 252.177H156.37" stroke="#45413C" stroke-width="5" stroke-linecap="round" stroke-linejoin="round"/>
<path d="M210.255 394.693V189.424C210.255 187.046 209.359 184.766 207.763 183.085C206.168 181.403 204.004 180.459 201.747 180.459C199.49 180.459 197.326 181.403 195.731 183.085C194.135 184.766 193.239 187.046 193.239 189.424V394.693" fill="#00B8F0"/>
<path d="M210.255 244.6V189.433C210.255 187.055 209.359 184.775 207.763 183.094C206.168 181.413 204.004 180.468 201.747 180.468C199.49 180.468 197.326 181.413 195.731 183.094C194.135 184.775 193.239 187.055 193.239 189.433V284.096L210.255 244.6Z" fill="#4ACFFF"/>
<path d="M210.255 394.693V189.424C210.255 187.046 209.359 184.766 207.763 183.085C206.168 181.403 204.004 180.459 201.747 180.459C199.49 180.459 197.326 181.403 195.731 183.085C194.135 184.766 193.239 187.046 193.239 189.424V394.693" stroke="#45413C" stroke-width="5" stroke-linecap="round" stroke-linejoin="round"/>
<path d="M181.895 343.778V268.727C181.895 267.508 181.435 266.339 180.617 265.476C179.798 264.614 178.689 264.13 177.531 264.13H174.913C173.756 264.13 172.647 264.614 171.828 265.476C171.01 266.339 170.55 267.508 170.55 268.727V343.778H181.895Z" fill="#00B8F0"/>
<path d="M181.895 310.397V268.727C181.895 267.508 181.435 266.339 180.617 265.476C179.798 264.614 178.689 264.13 177.531 264.13H174.913C173.756 264.13 172.647 264.614 171.828 265.476C171.01 266.339 170.55 267.508 170.55 268.727V336.712L181.895 310.397Z" fill="#4ACFFF"/>
<path d="M181.895 343.778V268.727C181.895 267.508 181.435 266.339 180.617 265.476C179.798 264.614 178.689 264.13 177.531 264.13H174.913C173.756 264.13 172.647 264.614 171.828 265.476C171.01 266.339 170.55 267.508 170.55 268.727V343.778H181.895Z" stroke="#45413C" stroke-width="5" stroke-linecap="round" stroke-linejoin="round"/>
<path d="M221.6 357.427V394.643C229.245 393.739 236.824 392.303 244.289 390.344V357.427H221.6Z" fill="#00B8F0"/>
<path d="M221.6 381.333V357.427H244.289L221.6 381.333Z" fill="#4ACFFF"/>
<path d="M244.289 389.222V357.427H221.6V393.746" stroke="#45413C" stroke-width="5" stroke-linecap="round" stroke-linejoin="round"/>
<path d="M159.206 357.427V390.28C166.669 392.25 174.249 393.694 181.895 394.601V357.427H159.206Z" fill="#00B8F0"/>
<path d="M159.206 381.333V357.427H181.895L159.206 381.333Z" fill="#4ACFFF"/>
<path d="M181.895 393.746V357.427H159.206V389.379M201.747 150.577V141.612M212.267 152.319L215.928 144.6M191.232 152.319L187.567 144.6M201.747 129.659V120.694M209.252 130.716L213.092 126.671M194.243 130.716L190.403 126.671M201.747 111.729V105.753M193.239 204.365H210.255M193.239 236.114H210.255M193.239 267.867H210.255M193.239 299.621H210.255M193.239 331.37H210.255M170.55 288.036H181.895M170.55 315.872H181.895" stroke="#45413C" stroke-width="5" stroke-linecap="round" stroke-linejoin="round"/>
<path d="M232.944 343.778V268.727C232.944 267.508 232.485 266.339 231.666 265.476C230.848 264.614 229.738 264.13 228.581 264.13H225.963C224.806 264.13 223.696 264.614 222.878 265.476C222.06 266.339 221.6 267.508 221.6 268.727V343.778H232.944Z" fill="#00B8F0"/>
<path d="M232.944 310.397V268.727C232.944 267.508 232.485 266.339 231.666 265.476C230.848 264.614 229.738 264.13 228.581 264.13H225.963C224.806 264.13 223.696 264.614 222.878 265.476C222.06 266.339 221.6 267.508 221.6 268.727V336.712L232.944 310.397Z" fill="#4ACFFF"/>
<path d="M221.6 288.036H232.944M221.6 315.872H232.944M232.944 343.778V268.727C232.944 267.508 232.485 266.339 231.666 265.476C230.848 264.614 229.738 264.13 228.581 264.13H225.963C224.806 264.13 223.696 264.614 222.878 265.476C222.06 266.339 221.6 267.508 221.6 268.727V343.778H232.944Z" stroke="#45413C" stroke-width="5" stroke-linecap="round" stroke-linejoin="round"/>
<path d="M258.686 385.641V343.755H247.124V252.177H235.78V228.271H224.435V186.435C224.435 180.095 222.045 174.015 217.79 169.531C213.535 165.048 207.764 162.53 201.747 162.53C195.729 162.53 189.958 165.048 185.704 169.531C181.449 174.015 179.058 180.095 179.058 186.435V228.271H167.714V252.177H156.37V343.778H144.807V384.859" stroke="#45413C" stroke-width="5" stroke-linecap="round" stroke-linejoin="round"/>
<path d="M144.812 343.778H193.243V357.432H144.812V343.778ZM210.256 343.778H258.687V357.432H210.256V343.778Z" fill="#F0D3A8" stroke="#45413C" stroke-width="5" stroke-linecap="round" stroke-linejoin="round"/>
<path d="M144.807 343.778V357.427H144.729C141.753 357.428 138.867 356.349 136.557 354.372C134.246 352.396 132.652 349.642 132.041 346.573C131.978 346.234 131.988 345.884 132.069 345.549C132.149 345.214 132.299 344.902 132.508 344.635C132.716 344.368 132.978 344.153 133.274 344.005C133.57 343.856 133.894 343.779 134.222 343.778H144.807ZM258.687 343.778V357.427H258.787C261.763 357.427 264.647 356.348 266.957 354.372C269.267 352.395 270.861 349.642 271.471 346.573C271.535 346.233 271.526 345.883 271.446 345.547C271.366 345.212 271.216 344.899 271.008 344.632C270.799 344.364 270.537 344.149 270.239 344.001C269.942 343.854 269.618 343.777 269.289 343.778H258.687Z" fill="#DAEDF7" stroke="#45413C" stroke-width="5" stroke-linecap="round" stroke-linejoin="round"/>
<path d="M170.55 357.427V392.85M232.944 357.427V392.9" stroke="#45413C" stroke-width="5" stroke-linecap="round" stroke-linejoin="round"/>
<path d="M355.905 399.676H276L286.62 187.28C286.695 185.791 287.34 184.387 288.42 183.36C289.501 182.332 290.935 181.759 292.426 181.759H339.478C340.97 181.759 342.404 182.332 343.484 183.36C344.565 184.387 345.209 185.791 345.285 187.28L355.905 399.676Z" fill="#4ACFFF"/>
<path d="M292.426 181.759C290.935 181.759 289.501 182.332 288.42 183.36C287.34 184.387 286.695 185.791 286.62 187.28L277.088 377.929L347.457 230.774L345.285 187.28C345.209 185.791 344.565 184.387 343.484 183.36C342.404 182.332 340.97 181.759 339.478 181.759H292.426Z" fill="#4ACFFF"/>
<path d="M355.905 399.676H276L286.62 187.28C286.695 185.791 287.34 184.387 288.42 183.36C289.501 182.332 290.935 181.759 292.426 181.759H339.478C340.97 181.759 342.404 182.332 343.484 183.36C344.565 184.387 345.209 185.791 345.285 187.28L355.905 399.676Z" stroke="#45413C" stroke-width="5" stroke-linecap="round" stroke-linejoin="round"/>
<path d="M294.159 181.759L315.952 399.676L337.745 181.759H294.159Z" fill="#009FD9"/>
<path d="M305.818 298.347L332.081 238.393L337.745 181.759H294.159L305.818 298.347Z" fill="#4ACFFF"/>
<path d="M294.159 181.759L315.952 399.676L337.745 181.759H294.159Z" stroke="#45413C" stroke-width="5" stroke-linecap="round" stroke-linejoin="round"/>
<path d="M291.853 169.2C291.853 168.09 292.294 167.025 293.079 166.24C293.864 165.455 294.928 165.014 296.039 165.014H335.865C336.976 165.014 338.04 165.455 338.825 166.24C339.611 167.025 340.052 168.09 340.052 169.2C340.052 170.311 339.611 171.375 338.825 172.16C338.04 172.945 336.976 173.386 335.865 173.386H296.039C294.928 173.386 293.864 172.945 293.079 172.16C292.294 171.375 291.853 170.311 291.853 169.2ZM291.853 177.573C291.853 176.462 292.294 175.398 293.079 174.612C293.864 173.827 294.928 173.386 296.039 173.386H335.865C336.976 173.386 338.04 173.827 338.825 174.612C339.611 175.398 340.052 176.462 340.052 177.573C340.052 178.683 339.611 179.748 338.825 180.533C338.04 181.318 336.976 181.759 335.865 181.759H296.039C294.928 181.759 293.864 181.318 293.079 180.533C292.294 179.748 291.853 178.683 291.853 177.573Z" fill="#ADC4D9"/>
<path d="M335.865 173.386C336.976 173.386 338.04 172.945 338.825 172.16C339.611 171.375 340.052 170.311 340.052 169.2C340.052 168.09 339.611 167.025 338.825 166.24C338.04 165.455 336.976 165.014 335.865 165.014H296.039C294.928 165.014 293.864 165.455 293.079 166.24C292.294 167.025 291.853 168.09 291.853 169.2C291.853 170.311 292.294 171.375 293.079 172.16C293.864 172.945 294.928 173.386 296.039 173.386M335.865 173.386H296.039M335.865 173.386C336.976 173.386 338.04 173.827 338.825 174.612C339.611 175.398 340.052 176.462 340.052 177.573C340.052 178.683 339.611 179.748 338.825 180.533C338.04 181.318 336.976 181.759 335.865 181.759H296.039C294.928 181.759 293.864 181.318 293.079 180.533C292.294 179.748 291.853 178.683 291.853 177.573C291.853 176.462 292.294 175.398 293.079 174.612C293.864 173.827 294.928 173.386 296.039 173.386" stroke="#45413C" stroke-width="5" stroke-linecap="round" stroke-linejoin="round"/>
<path d="M315.952 156.642V84" stroke="#45413C" stroke-width="5" stroke-linecap="round" stroke-linejoin="round"/>
<path d="M335.865 160.828C335.865 159.718 335.424 158.653 334.639 157.868C333.854 157.083 332.789 156.642 331.679 156.642H300.225C299.114 156.642 298.05 157.083 297.265 157.868C296.48 158.653 296.039 159.718 296.039 160.828V165.014H335.865V160.828Z" fill="#BDBEC0" stroke="#45413C" stroke-width="5" stroke-linecap="round" stroke-linejoin="round"/>
<path d="M311.314 156.642V149.053L313.947 142.84H317.957L320.59 149.053V156.642H311.314Z" fill="#BDBEC0" stroke="#45413C" stroke-width="5" stroke-linecap="round" stroke-linejoin="round"/>
<path d="M331.679 156.642L317.957 115.522H313.947L300.225 156.642M311.314 115.522H320.561M315.952 211.037V228.48M322.754 211.037V228.48M309.149 211.037V228.48" stroke="#45413C" stroke-width="5" stroke-linecap="round" stroke-linejoin="round"/>
<path d="M300.482 63.4016C299.336 63.4068 298.201 63.6268 297.136 64.0501C296.563 60.4129 294.71 57.0997 291.912 54.7072C289.113 52.3146 285.552 51 281.87 51C278.188 51 274.627 52.3146 271.828 54.7072C269.029 57.0997 267.177 60.4129 266.604 64.0501C265.539 63.6268 264.404 63.4068 263.258 63.4016C260.826 63.4577 258.513 64.463 256.813 66.2026C255.113 67.9422 254.162 70.2779 254.162 72.7101C254.162 75.1424 255.113 77.478 256.813 79.2176C258.513 80.9572 260.826 81.9625 263.258 82.0186H300.482C302.914 81.9625 305.227 80.9572 306.927 79.2176C308.626 77.478 309.578 75.1424 309.578 72.7101C309.578 70.2779 308.626 67.9422 306.927 66.2026C305.227 64.463 302.914 63.4577 300.482 63.4016ZM52.5216 145.205C51.3745 145.212 50.2384 145.43 49.1704 145.849C48.6011 142.21 46.7503 138.894 43.9516 136.499C41.1529 134.104 37.5906 132.788 33.9071 132.788C30.2236 132.788 26.6613 134.104 23.8626 136.499C21.0639 138.894 19.2131 142.21 18.6438 145.849C17.3703 145.357 16.0041 145.152 14.6424 145.248C13.2807 145.344 11.9569 145.739 10.7649 146.404C9.57296 147.07 8.54219 147.989 7.74582 149.098C6.94945 150.207 6.40704 151.477 6.15712 152.819C5.9072 154.161 5.95591 155.542 6.29979 156.863C6.64367 158.184 7.27427 159.413 8.1468 160.463C9.01932 161.513 10.1124 162.358 11.3482 162.937C12.5841 163.517 13.9325 163.818 15.2976 163.817H52.5216C54.9897 163.817 57.3567 162.837 59.1019 161.092C60.8471 159.346 61.8276 156.979 61.8276 154.511C61.8276 152.043 60.8471 149.676 59.1019 147.931C57.3567 146.186 54.9897 145.205 52.5216 145.205Z" fill="white" stroke="#45413C" stroke-width="5" stroke-linejoin="round"/>
<path d="M124.08 127.072H60.9784C60.4467 127.072 59.9217 127.19 59.4412 127.418C58.9606 127.645 58.5365 127.976 58.1994 128.388C57.8623 128.799 57.6206 129.28 57.4916 129.795C57.3627 130.311 57.3497 130.849 57.4537 131.371L63.7999 163.014H121.288L127.617 131.371C127.722 130.848 127.708 130.309 127.579 129.792C127.449 129.276 127.206 128.794 126.868 128.383C126.529 127.971 126.104 127.64 125.621 127.414C125.139 127.187 124.613 127.07 124.08 127.072Z" fill="#00DBA8"/>
<path d="M60.9073 148.638H124.164L127.617 131.371C127.721 130.849 127.708 130.311 127.579 129.795C127.451 129.28 127.209 128.799 126.872 128.388C126.535 127.976 126.11 127.645 125.63 127.418C125.149 127.19 124.624 127.072 124.093 127.072H60.9784C60.4467 127.072 59.9217 127.19 59.4412 127.418C58.9606 127.645 58.5365 127.976 58.1994 128.388C57.8623 128.799 57.6206 129.28 57.4916 129.795C57.3627 130.311 57.3497 130.849 57.4537 131.371L60.9073 148.638Z" fill="#8CFFE4"/>
<path d="M124.08 163.014H60.9784C60.4467 163.014 59.9217 163.132 59.4412 163.36C58.9606 163.587 58.5365 163.919 58.1994 164.33C57.8623 164.741 57.6206 165.222 57.4916 165.738C57.3627 166.253 57.3497 166.791 57.4537 167.313L63.7999 198.956H121.288L127.617 167.313C127.722 166.79 127.708 166.251 127.579 165.735C127.449 165.218 127.206 164.736 126.868 164.325C126.529 163.913 126.104 163.582 125.621 163.356C125.139 163.129 124.613 163.012 124.08 163.014Z" fill="#00DBA8"/>
<path d="M60.9073 184.581H124.164L127.617 167.313C127.721 166.791 127.708 166.253 127.579 165.738C127.451 165.222 127.209 164.741 126.872 164.33C126.535 163.919 126.11 163.587 125.63 163.36C125.149 163.132 124.624 163.014 124.093 163.014H60.9784C60.4467 163.014 59.9217 163.132 59.4412 163.36C58.9606 163.587 58.5365 163.919 58.1994 164.33C57.8623 164.741 57.6206 165.222 57.4916 165.738C57.3627 166.253 57.3497 166.791 57.4537 167.313L60.9073 184.581Z" fill="#8CFFE4"/>
<path d="M124.08 198.956H60.9784C60.4467 198.956 59.9217 199.074 59.4412 199.302C58.9606 199.529 58.5365 199.861 58.1994 200.272C57.8623 200.683 57.6206 201.164 57.4916 201.68C57.3627 202.196 57.3497 202.734 57.4537 203.255L63.7999 234.898H121.288L127.617 203.255C127.722 202.732 127.708 202.193 127.579 201.677C127.449 201.16 127.206 200.678 126.868 200.267C126.529 199.856 126.104 199.525 125.621 199.298C125.139 199.071 124.613 198.954 124.08 198.956Z" fill="#00DBA8"/>
<path d="M60.9073 220.519H124.164L127.617 203.255C127.721 202.734 127.708 202.196 127.579 201.68C127.451 201.164 127.209 200.683 126.872 200.272C126.535 199.861 126.11 199.529 125.63 199.302C125.149 199.074 124.624 198.956 124.093 198.956H60.9784C60.4467 198.956 59.9217 199.074 59.4412 199.302C58.9606 199.529 58.5365 199.861 58.1994 200.272C57.8623 200.683 57.6206 201.164 57.4916 201.68C57.3627 202.196 57.3497 202.734 57.4537 203.255L60.9073 220.519Z" fill="#8CFFE4"/>
<path d="M124.081 234.898H60.9789C60.4469 234.897 59.9215 235.015 59.4406 235.242C58.9597 235.47 58.5352 235.801 58.198 236.212C57.8607 236.624 57.619 237.105 57.4904 237.621C57.3618 238.137 57.3494 238.676 57.4541 239.197L63.8003 270.84H121.288L127.618 239.197C127.723 238.675 127.71 238.135 127.581 237.618C127.451 237.101 127.209 236.619 126.87 236.208C126.531 235.796 126.105 235.465 125.623 235.238C125.14 235.012 124.614 234.896 124.081 234.898Z" fill="#00DBA8"/>
<path d="M60.9073 256.461H124.164L127.617 239.197C127.722 238.675 127.71 238.135 127.58 237.618C127.451 237.101 127.208 236.619 126.87 236.208C126.531 235.796 126.105 235.465 125.622 235.238C125.14 235.012 124.613 234.896 124.08 234.898H60.9784C60.4467 234.898 59.9217 235.016 59.4412 235.244C58.9606 235.472 58.5365 235.803 58.1994 236.214C57.8623 236.625 57.6206 237.106 57.4916 237.622C57.3627 238.138 57.3497 238.676 57.4537 239.197L60.9073 256.461Z" fill="#8CFFE4"/>
<path d="M124.081 270.84H60.9789C60.4469 270.839 59.9215 270.957 59.4406 271.184C58.9597 271.412 58.5352 271.743 58.198 272.154C57.8607 272.566 57.619 273.047 57.4904 273.563C57.3618 274.079 57.3494 274.618 57.4541 275.139L63.8003 306.782H121.288L127.618 275.139C127.723 274.616 127.71 274.077 127.581 273.56C127.451 273.043 127.209 272.561 126.87 272.149C126.531 271.738 126.105 271.407 125.623 271.18C125.14 270.954 124.614 270.838 124.081 270.84Z" fill="#00DBA8"/>
<path d="M60.9073 292.403H124.164L127.617 275.139C127.722 274.618 127.71 274.079 127.581 273.563C127.452 273.047 127.211 272.566 126.874 272.155C126.536 271.743 126.112 271.412 125.631 271.185C125.15 270.957 124.625 270.84 124.093 270.84H60.9784C60.4467 270.84 59.9217 270.959 59.4412 271.186C58.9606 271.414 58.5365 271.745 58.1994 272.156C57.8623 272.567 57.6206 273.048 57.4916 273.564C57.3627 274.08 57.3497 274.618 57.4537 275.139L60.9073 292.403Z" fill="#8CFFE4"/>
<path d="M132.072 403.82H53L60.1876 321.157H124.884L132.072 403.82Z" fill="#00DBA8"/>
<path d="M126.445 339.128L124.884 321.157H60.1874L58.626 339.128H126.445Z" fill="#00DBA8"/>
<path d="M132.072 403.82H53L60.1876 321.157H124.884L132.072 403.82ZM124.08 270.84H60.9788C60.4468 270.839 59.9214 270.957 59.4405 271.184C58.9595 271.412 58.5351 271.743 58.1978 272.154C57.8606 272.566 57.6189 273.047 57.4903 273.563C57.3616 274.079 57.3493 274.618 57.454 275.139L63.8002 306.782H121.288L127.618 275.139C127.723 274.616 127.71 274.077 127.581 273.56C127.451 273.043 127.209 272.561 126.87 272.149C126.531 271.738 126.105 271.407 125.623 271.18C125.14 270.954 124.613 270.838 124.08 270.84Z" stroke="#45413C" stroke-width="5" stroke-linecap="round" stroke-linejoin="round"/>
<path d="M124.081 234.898H60.9789C60.4469 234.897 59.9215 235.015 59.4406 235.242C58.9597 235.47 58.5352 235.801 58.198 236.212C57.8607 236.624 57.619 237.105 57.4904 237.621C57.3618 238.137 57.3494 238.676 57.4541 239.197L63.8003 270.84H121.288L127.618 239.197C127.723 238.675 127.71 238.135 127.581 237.618C127.451 237.101 127.209 236.619 126.87 236.208C126.531 235.796 126.105 235.465 125.623 235.238C125.14 235.012 124.614 234.896 124.081 234.898Z" stroke="#45413C" stroke-width="5" stroke-linecap="round" stroke-linejoin="round"/>
<path d="M124.08 198.956H60.9784C60.4467 198.956 59.9217 199.074 59.4412 199.302C58.9606 199.529 58.5365 199.861 58.1994 200.272C57.8623 200.683 57.6206 201.164 57.4916 201.68C57.3627 202.196 57.3497 202.734 57.4537 203.255L63.7999 234.898H121.288L127.617 203.255C127.722 202.732 127.708 202.193 127.579 201.677C127.449 201.16 127.206 200.678 126.868 200.267C126.529 199.856 126.104 199.525 125.621 199.298C125.139 199.071 124.613 198.954 124.08 198.956Z" stroke="#45413C" stroke-width="5" stroke-linecap="round" stroke-linejoin="round"/>
<path d="M124.08 163.014H60.9784C60.4467 163.014 59.9217 163.132 59.4412 163.36C58.9606 163.587 58.5365 163.919 58.1994 164.33C57.8623 164.741 57.6206 165.222 57.4916 165.738C57.3627 166.253 57.3497 166.791 57.4537 167.313L63.7999 198.956H121.288L127.617 167.313C127.722 166.79 127.708 166.251 127.579 165.735C127.449 165.218 127.206 164.736 126.868 164.325C126.529 163.913 126.104 163.582 125.621 163.356C125.139 163.129 124.613 163.012 124.08 163.014Z" stroke="#45413C" stroke-width="5" stroke-linecap="round" stroke-linejoin="round"/>
<path d="M124.08 127.072H60.9784C60.4467 127.072 59.9217 127.19 59.4412 127.418C58.9606 127.645 58.5365 127.976 58.1994 128.388C57.8623 128.799 57.6206 129.28 57.4916 129.795C57.3627 130.311 57.3497 130.849 57.4537 131.371L63.7999 163.014H121.288L127.617 131.371C127.722 130.848 127.708 130.309 127.579 129.792C127.449 129.276 127.206 128.794 126.868 128.383C126.529 127.971 126.104 127.64 125.621 127.414C125.139 127.187 124.613 127.07 124.08 127.072Z" stroke="#45413C" stroke-width="5" stroke-linecap="round" stroke-linejoin="round"/>
<path d="M106.323 109.101H78.753C77.6428 109.101 76.578 109.542 75.793 110.327C75.0079 111.112 74.5669 112.176 74.5669 113.287V127.072H110.509V113.287C110.509 112.176 110.068 111.112 109.283 110.327C108.498 109.542 107.433 109.101 106.323 109.101Z" fill="#00DBA8" stroke="#45413C" stroke-width="5" stroke-linecap="round" stroke-linejoin="round"/>
<path d="M96.9668 73.1587H88.109C87.3054 73.1588 86.5107 73.3273 85.7761 73.6533C85.0416 73.9794 84.3835 74.4557 83.8444 75.0517C83.3052 75.6476 82.8969 76.3499 82.6459 77.1133C82.3948 77.8767 82.3064 78.6843 82.3866 79.4839L85.3503 109.101H99.7255L102.689 79.4839C102.769 78.6844 102.68 77.8771 102.429 77.114C102.177 76.3509 101.769 75.6488 101.23 75.053C100.691 74.4572 100.033 73.9809 99.2989 73.6546C98.5647 73.3284 97.7703 73.1594 96.9668 73.1587Z" fill="#CCFFF3" stroke="#45413C" stroke-width="5" stroke-linecap="round" stroke-linejoin="round"/>
<path d="M92.5376 73.1586V48" stroke="#45413C" stroke-width="5" stroke-linecap="round" stroke-linejoin="round"/>
<path d="M60.1875 306.782H124.884V321.157H60.1875V306.782Z" fill="#E0E0E0" stroke="#45413C" stroke-width="5" stroke-linecap="round" stroke-linejoin="round"/>
<path d="M78.1587 335.532V403.821M106.913 335.532V403.821" stroke="#45413C" stroke-width="5" stroke-linecap="round" stroke-linejoin="round"/>
<path d="M78.1587 342.72H106.913V357.095H78.1587V342.72ZM78.1587 375.07H106.913V389.445H78.1587V375.07Z" fill="#DAEDF7" stroke="#45413C" stroke-width="5" stroke-linecap="round" stroke-linejoin="round"/>
<path d="M54.875 382.258H67.3789M58.002 346.316H67.3789M127.073 346.316H117.696M130.196 382.258H121.288M92.5375 270.84V288.811M92.5375 234.898V252.869M92.5375 198.956V216.927M92.5375 163.014V180.985M92.5375 127.072V145.043" stroke="#45413C" stroke-width="5" stroke-linecap="round" stroke-linejoin="round"/>
<path d="M81.7544 313.97C81.7544 315.386 82.0333 316.788 82.5752 318.096C83.1172 319.404 83.9115 320.593 84.9128 321.595C85.9141 322.596 87.1029 323.39 88.4112 323.932C89.7195 324.474 91.1217 324.753 92.5378 324.753C93.9539 324.753 95.3562 324.474 96.6645 323.932C97.9728 323.39 99.1616 322.596 100.163 321.595C101.164 320.593 101.959 319.404 102.5 318.096C103.042 316.788 103.321 315.386 103.321 313.97C103.321 312.553 103.042 311.151 102.5 309.843C101.959 308.535 101.164 307.346 100.163 306.344C99.1616 305.343 97.9728 304.549 96.6645 304.007C95.3562 303.465 93.9539 303.186 92.5378 303.186C91.1217 303.186 89.7195 303.465 88.4112 304.007C87.1029 304.549 85.9141 305.343 84.9128 306.344C83.9115 307.346 83.1172 308.535 82.5752 309.843C82.0333 311.151 81.7544 312.553 81.7544 313.97Z" fill="#E5FEFF" stroke="#45413C" stroke-width="5" stroke-linecap="round" stroke-linejoin="round"/>
</g>
</svg>
